<?xml version="1.0" encoding="utf-8"?>
<!-- Generator: Adobe Illustrator 18.1.0, SVG Export Plug-In . SVG Version: 6.00 Build 0)  -->
<!DOCTYPE svg PUBLIC "-//W3C//DTD SVG 1.1//EN" "http://www.w3.org/Graphics/SVG/1.1/DTD/svg11.dtd">
<svg version="1.1" id="Layer_1" xmlns="http://www.w3.org/2000/svg" xmlns:xlink="http://www.w3.org/1999/xlink" x="0px" y="0px"
	 viewBox="0 0 600 600" enable-background="new 0 0 600 600" xml:space="preserve">
<symbol  id="Blond_Hair_4" viewBox="-11.3 -7.7 22.6 15.3">
	<g>
		<path fill="#EC5A25" d="M-11.3,6.9c0,0,5.6,2.6,10.6-1.9c5-4.6,5.8-10.2,12-12.7C4.7-6.6,2.2,0.8-1,3.9
			C-6.1,8.8-10.8,6.9-11.3,6.9z"/>
	</g>
</symbol>
<g>
	<path fill="#EF4136" stroke="#F15A29" stroke-width="3.3457" stroke-miterlimit="10" d="M93.9,188.8c0-3,26.7-2.3,43.3-21.1
		c6.2-7,8.6-14.1,20-23.3c5.1-4.2,10.6-7.5,10-8.9c-1.1-2.3-18.2,6.2-21.1,2.2c-2.9-4,11-16.4,25.5-36.6
		c20.6-28.7,14.3-33.9,30-51.1c18.3-20,40.6-28,52.2-32.2c0,0,26.8-10.9,46.7-8.9c4.9,0.5,9.8,1.6,9.8,1.6s3.3,0.8,6.6,1.8
		c10.7,3.6,36.4,26.8,38.2,25.4c1-0.8-10.8-13.8-20.8-21.8c-10-8-23.3-10.9-22.7-12c3.2-6.7,52.6,20.7,55.9,23.4
		c3.5,2.8-10.9-27.7-10.2-27.3c1.4,0.8,18.8,23.4,26.6,37.3c7.4,13.2,7,12.2,15.5,25c7.7,11.7,8.1,27.7,9.2,37.7
		c0.9,8.8,0.7,16.7,0.4,20.8c-0.4,6-1.3,10.5-1.5,12.5c-0.8,4.2-2.2,11.8-6,20.5c-2.2,5.2-4.7,9.6-6.2,11.9c0,0-0.8,1.3-1.5,2.4
		c-8.7,13.6-19,22.4-19,22.4c-4.1,3.5-14.8,14.5-29.8,18.4c-10.2,2.7-31.1,6.6-31.6,6.8c0,0,0.7-12,0.5-6.6
		c0,0.1,52.4-7.1,59.3-32.4c3-10.9-3.7-29.1,3.1-28.9c4,0.1,6.2,3.4,12.4,0.6c9.9-4.5,17.1-20.6,11.2-26.2
		c-3.4-3.2-10.8-1.9-15.6,1.1c-7.3,4.7-8,13.6-10,13.3c-2.5-0.4,2-14.7-5.5-26.7c-3-4.7-5.1-4.7-11.1-13.3c-3.7-5.2-5.5-8-6.7-12.2
		c-2.3-8.7,1.4-13.3-1.1-15.6c-3.3-2.8-10.6,4.3-22.2,7.7c-16.5,5-19.4-3.7-37.8,0c-13,2.6-10.1,6.7-34.4,15.6
		c-4.4,1.6-9.2,3.2-13.3,7.7c-6.5,7.3-6.7,16.7-6.7,17.8c0,8.7,4.4,15,3.3,15.6c-1.3,0.7-5.6-10.6-14.4-12.2
		c-4.3-0.8-9.6,0.7-12.2,4.4c-3.2,4.6-0.9,10.9,0,13.3c3.6,9.6,10.2,8.7,14.4,17.8c3,6.6,0,7.9,3.3,17.8c2.4,7,5.8,11.8,7.7,14.4
		c2.9,4,6.7,9.2,13.3,13.3c4.9,3.1,10.3,4.3,21.1,6.7c0,0,4.9-0.8,19.7,1.8c-0.6-3.7,0.8,9.2-0.9,12.6c-2.4,4.9-15.2,1.3-28.9,1.1
		c-8.8-0.1-6.1,1.5-50,12.2c0,0-17.8,4.4-34.8,5.5h-0.1c-15.7,1.1-23.6,1.5-24,0.1c-0.8-2.5,21.6-15.5,20-12.2
		c-0.3,0.7-71.8-0.7-76.7-5.5c-5.9-5.9,46.7-31.2,38.9-31.1C132.3,193.3,93.9,198.9,93.9,188.8z"/>
	<path fill="#F3D9CC" stroke="#F3D9CC" stroke-width="3.3457" stroke-miterlimit="10" d="M311.2,232.4c0,0,0.9-16.2,1.9-25.7
		c0,0,8.3,4.2,29.9-4.1c2.5-1,11.4-2.7,21.6-13.2c4.7-4.8,5.5-11.3,6.5-15.7c2-9-0.7-9.9-0.9-21c0,0-2.2-0.6,3.4-5.5
		c0.8-0.6,4.4-0.5,5.3-0.1c2,1,5.6,2.2,9.5,1c5.7-1.7,7.8-7.5,9.1-10.9c1-2.5,3.7-10.1,0-13.6c-2.7-2.7-7.7-2-10.9-0.9
		c-9.9,3.6-11.4,16-14.6,15.5c-2.7-0.4,3.2-6.5-0.2-20.9c-1-4.1-1.5-5.8-7.5-12.6c-4.4-4.9-8.6-11.3-12.1-16.6
		c-2.8-4.3-1.5-18.4-4.7-19.1c-6.5-1.5-8.2,5.8-21,10.1c-16,5.3-20-3.9-38.3,0c-9.3,1.9-5.7,3.8-34.6,16.4
		c-7.1,3.1-9.6,4.2-11.8,7.3c-8.5,11.5-0.8,28.9-2,30.6c-0.9,1.3-6.6-9.5-17.1-9.7c-3.7-0.1-9.1,1.3-10.9,4.5
		c-4.7,8.3,6.7,14.9,14.5,28.3c6,10.2,6.6,23.8,11.1,32.2c3.7,7,8.5,12.4,20.6,16.5c14.5,5,28,6.1,33.9,3l0,0
		c5.3,9,0.9,18.1,0.9,18.1c0,1.1-0.1,2.8-0.1,5c1.3,1.1,3.7,2.4,6.9,3.4c0.9,0.3,1.9,0.4,3.3,0.4
		C307.6,235.3,311.2,232.4,311.2,232.4z"/>
	<path fill="#FFF200" stroke="#000000" stroke-width="3.3457" stroke-miterlimit="10" d="M280.9,226.6c-3.7-2.9-9.1-1.7-17.4,0
		c-4,0.9-9.3,2-15.8,5.4c-9.7,5.1-14.4,10.9-23.3,17.9c-12.5,9.7-21.8,21-34.2,30.4c-0.2,0.1-10.4,5.5-21.7,14.7
		c-3.2,2.6-6.6,5.5-7.6,10.3c-1.2,5.2,0.7,11.6,3.8,12.5c2,0.6,3.1-1.8,9.2-5.4c4.2-2.5,7.6-4.5,11.9-4.4c4.4,0.2,4.7,2.5,8.1,2.7
		c6.3,0.3,14.4-9.1,19.1-12.3c4.4-3,9.9-5.6,16.7-12.1c3.4-3.2,4.5-5.7,6.5-5.4c3.3,0.5,2.4,7.3,8.1,16.2c3.7,5.8,4.2,6.4,5.9,11.4
		c1.5,4.4,2.4,17.8,0,26.6c0,0-1.8,0.8-2.4,9.2l-1.5,5.5c0.8,2,7.3-0.4,17.4,0c10.2,0.4,11.4,2.3,16.2,1.1c5.5-1.4,5.9-3.7,12.3-6.1
		c5.3-2,12.2-1.6,14-1.2c5.4,1.5,6.2,3,12.5,5.1c1.8,0.6,0.8-0.1,5.7,0.6c8.3,1.2,13.4,1.3,18.5,0.6c4.5-0.6,5.2-1.4,5.4-1.6
		c2.3-3-0.5-7.7-2.7-17.3c-0.7-3-2.7-10.2-0.5-18.9c0.9-3.4,3.6-6.6,8-14.8c5.3-9.9,4.6-10.1,6.3-15.2c0.9-2.7,1.1-2.6,9.2-10.6
		c7.9-7.9,7.4-6.9,11.7-11.7c3.8-4.3,14.3-15.5,16.4-19.2c1.6-2.8,24.7-39.9,29.5-45.2c2.6-2.9,18-30.3,18.8-31.4
		c4.1-6.6-13.2-1.7-11.2-1.8c9.3-0.6-2.7-4.1-10.6-6.3c-6.4-1.8-2.3-16.1-4.4-10.7c-3,7.5-10.7,21-17.8,31.8
		c-6,9.2-4.7,5.8-12.8,18.6c-7.1,11.4-17.2,21.9-20.6,25.3c-9.3,9.3-14,13.8-22.9,10.1c-3.6-1.5-7.5-2.7-15.8-4.4
		c-9.9-2-11.5-1.3-12.5-0.6c-3.5,2.6-0.7,7.3-4.4,11.9c-3.7,4.6-10.5,4.8-13.1,4.9c-2.6,0.1-7.9,0.2-11.9-3.3
		C282.6,234.8,285.2,229.9,280.9,226.6z"/>
	<polygon fill="#F7941E" stroke="#000000" stroke-width="3.3457" stroke-miterlimit="10" points="285,260 264.4,281.2 285,311.1 
		326.7,311.1 347.4,281.8 326.2,260 	"/>
	<polygon fill="#27AAE1" stroke="#000000" stroke-width="3.3457" stroke-miterlimit="10" points="279.6,281.2 292.6,300.2 
		317.3,300.2 332.1,281.2 325.1,272 287.7,272 	"/>
	<path fill="#F7941E" stroke="#000000" stroke-width="3.3457" stroke-miterlimit="10" d="M167.8,318.7c-1,3.6,3.5,10,11.4,17.9
		c17.2,17.1,19.5,14.9,26.6,23.9c7,8.8,8.2,15.4,17.9,22.2c4.2,3,7.2,4,9.8,3.3c5.3-1.5,7.1-9.5,8.1-14.1c1.3-5.3,2.7-11.9-1.1-16.8
		c-2.9-3.8-7.4-4.7-10.8-5.4c-7.3-1.5-9.2,1.2-13.1,0c-11.2-3.3-6.1-31.6-19.5-38c-5.5-2.6-11.5-2.1-14.6-1.4
		C179.4,311.1,169.2,313.5,167.8,318.7z"/>
	<path fill="#F7941E" stroke="#000000" stroke-width="3.3457" stroke-miterlimit="10" d="M419.8,150.1c-4.8-12.3,25.4-21.2,25.5-36
		c0-7.5-6.5-9.8-5.2-18.6c1.3-8.7,8.7-13.6,9.5-14.1c6.8-4.4,17.5-5.6,22-0.3c2.9,3.3,2.4,8,1.9,11.7c-1.2,10-5.7,13.1-10.6,23.1
		c-2.1,4.4-0.9,3-10.1,33.1c-2.9,9.6-4.4,13.8-8.3,15.4c-5.8,2.2-14.2-0.3-16.1-1.6C426.4,161,422,155.6,419.8,150.1z"/>
	<path fill="#F7941E" stroke="#000000" stroke-width="3.3457" stroke-miterlimit="10" d="M247.6,352.8c-1.1,4-2.1,7.9-3.3,11.9h35.3
		l3.8-13.1L247.6,352.8z"/>
	<polygon fill="#F7941E" stroke="#000000" stroke-width="3.3457" stroke-miterlimit="10" points="323,352.4 323,366.9 355,364.8 
		351.2,351.8 	"/>
	<path fill="#ED1C24" stroke="#000000" stroke-width="3.3457" stroke-miterlimit="10" d="M284.5,353.9c-0.5,0.9-4.2,7.6-1.1,14.1
		c4,8.4,15.7,8.6,17.9,8.7c2.6,0.1,15.3-0.1,20.1-9.8c0.2-0.4,3.8-7.8,0-14.7c-5.3-9.6-19.5-7.8-21.2-7.6
		C297.6,345.1,288.7,346.3,284.5,353.9z"/>
	<path fill="#FFFFFF" stroke="#000000" stroke-width="3.3457" stroke-miterlimit="10" d="M293.1,356.1c-2,3.1-1.6,7.5,0.6,10.3
		c3.6,4.4,11.2,3.5,15.2,0c2.2-1.9,4.6-5.9,3.3-9.2c-1.4-3.3-5.7-4.1-7.6-4.4C302.9,352.5,296.2,351.5,293.1,356.1z"/>
	<path fill="#FFF200" stroke="#000000" stroke-width="3.3457" stroke-miterlimit="10" d="M244.3,366.9c0,0-3.3,9.2-6.3,19.6
		c-0.5,1.7-2.5,9.6-3.8,14.1c-7.9,27.8-6,55.9-9,58.7c-4.1,3.8-4.5,6.6-5.7,11.8c-1.4,6.5-1.4,10-1.6,15.8c-0.1,3-1.5,5.1-1.2,7
		c0.6,2.7,5,4.1,8.1,4.9c1.7,0.5,9,1.5,14.8,1.3c6.2-0.4,13.6-3.2,13.6-3.2v-2.1c0,0,0.7-7.3,1.9-10.9c3.9-10.8,8.9-18.1,15.9-26.1
		c21.8-25.1,23.1-38.5,27.9-40.2c0,0,8.9,13.3,33.4,42.9c7.4,9,13.3,15,13.5,24.5c0.1,5.5-1.6,10.8,1.6,14.1c0.8,0.8,2,1.7,10.3,2.1
		c14.8,0.9,19.2-1.8,20.6-2.7c1.5-1,4.3-2.8,4.4-5.4c0.1-2.4,0.5-4.4,0-7.5c-1.3-7.4-0.8-9.5-4.6-16.1c-1.7-2.9-2.9-6.9-4.5-10.3
		c-3.5-7.5,0.3-28.7-4.2-48.9c-2.4-11.1-0.5-20.1-4.1-23.7c-6.3-6.1-10.5-19.3-10.5-19.3s-28.9-1.3-31.9,0.9
		c-8,5.7-6.9,8.9-21.8,8.9c-13,0-17.9-8.7-21.5-9.7C268.3,363.8,244.3,366.9,244.3,366.9z"/>
	<path fill="#F7941E" stroke="#000000" stroke-width="3.3457" stroke-miterlimit="10" d="M212.9,505.9c0.2-5.2-0.2-9.6,2.1-10.8
		c1.3-0.7,2.6,0,6,1.1c3.9,1.3,8,2.6,11.9,2.7c6.5,0.2,18.6-1.2,19.5,0c3.6,4.2-3.9,16.2-9.2,24.9c-7.8,12.7-10.2,12.8-11.4,18.9
		c-1.1,5.6,0.7,6.9,0,19.5c-0.5,9.2-1.5,11.8-2.1,13.1c-1.1,2.2-2.7,4.7-10.8,11.4c-8.3,6.8-12.6,10.2-16.2,11.4
		c-1.1,0.4-13.4,4.1-22.2-2.7c-1.5-1.2-4.1-3.1-4.9-6.5c-0.3-1.3-1-5.4,6-14.1c7.1-8.9,11.6-9.5,20.6-19.5c3.5-3.9,5.2-5.9,6.5-8.7
		c2.9-6.4,0.8-9.3,1.6-21.7C210.8,513.7,212.6,515.5,212.9,505.9z"/>
	<path fill="#F7941E" stroke="#000000" stroke-width="3.3457" stroke-miterlimit="10" d="M352.8,514.6c-2.8-5.4-7.6-14.7-4.9-17.4
		c1.4-1.4,3.5,0,10.3,1.1c7.3,1.2,15.3,2.4,20.6-1.6c3.4-2.6,3.4-5.5,4.9-5.4c4.2,0.3,5.6,23,6,27.6c1.4,19.6-1.3,20.9,1.6,27.6
		c2.1,4.9,3.8,5.1,20.6,22.2c12.1,12.3,14.9,16,14.1,20.1c-1.2,6-8.9,9-10.8,9.8c-9.3,3.7-18-0.4-19.5-1.1
		c-5.1-2.4-4.4-4.3-15.2-13.5c-7.8-6.8-8.5-6.1-9.8-8.7c-2.4-5-0.2-8.5-0.6-21.7c-0.1-4.3-0.2-6.3-0.6-8.7
		C367.7,533.3,361,530.1,352.8,514.6z"/>
	<path fill="#00AEEF" stroke="#000000" stroke-width="3.3457" stroke-miterlimit="10" d="M390.9,248.1c0,0,2.8,3.2,11.4,8.7
		c7.3,4.6,22.2,16.2,35.3,35.8c12.3,18.5,10.5,26.1,26,46.1c11.9,15.4,19.8,19.6,22.8,21.2c12.1,6,25.4,6.7,32,6.5
		c13.9-0.3,18.9-4.2,21.7-1.1c5,5.4-2.9,25.2-16.2,37.4c-6.8,6.2-16.6,11-36.3,20.6c-10.4,5-9.5,4.1-12.5,6
		c-18.2,11.2-16,23.1-29.9,32.6c-11.9,8.2-13.4,10-38,9.8c-14.4-0.1-23,10-25.4,6.5c-0.5-0.8-1.3-0.9-3.5-5.3
		c-2.7-5.4-4.2-9.2-6.7-14.7c-2.2-4.9,4-22.8-1.8-46.6c-2.6-10.6-5.9-21.7-9.8-30.3c-6-13.1-1.5-3.4-6-13.1
		c-3.4-7.4-8.4-32.3-10.2-37.8c-4.3-13.1,13.6-39.5,13.2-46.2c-0.1-2,14-14.7,24.1-25C385,254.9,389.7,249.6,390.9,248.1z"/>
	<path fill="#00AEEF" stroke="#000000" stroke-width="3.3457" stroke-miterlimit="10" d="M342.5,477c-1.4,1.5-26.4-9-42.5-8.1
		c-24.3,1.4-41.1,13.1-43.2,10.3c-2.3-3.1,8.9-10.3,21.8-29.4c6.1-8.9,17.8-32.4,20.4-32.5c2.3,0,13.1,17.7,24.1,31.1
		C334.4,462.1,343.5,476,342.5,477z"/>
	<path fill="#00AEEF" stroke="#000000" stroke-width="3.3457" stroke-miterlimit="10" d="M218.3,467.3c-6.3,6.8-14.2-9.1-29.9-14.7
		c-15.6-5.5-19.2,3-32.6-1.6c-18.9-6.6-14.1-24.9-36.3-38c-3.8-2.2-15.2-5.8-38-13.1c-18.9-6-21.7-6.3-22.8-9.2
		c-4.3-10.7,24.9-22.9,54.2-60.8c16.8-21.8,15-27.8,32-44.5c11-10.7,20.9-17.1,40.7-29.9c15.9-10.2,27.2-16,40.7-20.1
		c7.9-2.4,23.9-3.3,23.9-3.3s-7.3,7-22.8,18.5c-22.3,16.6-18.5,16.8-35.8,29.3c-19.2,13.8-28.7,17-29.9,26.6
		c-0.6,4.9,1.4,8.9,4.4,14.7c4.8,9.6,9.8,11.8,23.9,25.5c11.5,11.2,17.3,16.8,20.6,21.7c4.4,6.5,6.9,11.9,13.5,15.2
		c6.8,3.4,13.7-1.1,13.1,3.3c-1,6-8.3,20.2-9,48.3c-0.2,6.7-0.6,13.8-2.1,21.9C225.3,461.9,222,463.3,218.3,467.3z"/>
	<g>
		<path fill="#00AEEF" stroke="#000000" stroke-width="3.3457" stroke-miterlimit="10" d="M239.1,281.6c-5.7-4.2-5.9,3.5-20.9,13.7
			c-11.1,7.5-19.4,9.5-19.3,13.1c0.1,2.5,0.1,2.5,3.1,7.3c5.7,9,3.2,24.8,11.8,32.2c5.9,5,15-2.1,22.8,3.9c7.1,5.4,8,13.4,10.3,13.1
			c2-0.3,2.4-7.2,3-13c0.9-8.7,4.3-14.8,5.3-19.9c1.7-8.8,1.4-16,0.8-18.9c-0.5-2.5-4.4-7.3-7.1-14.9
			C246.8,291.7,241.4,283.3,239.1,281.6z"/>
	</g>
	<path fill="#F7941E" stroke="#000000" stroke-width="3.3457" stroke-miterlimit="10" d="M285.4,227c0.2-0.2,0,0.9,2.7-0.5
		c2.2-1.2,1.9-0.9,1.9-0.9s-0.1,3.4,1,6.1c1.4,3.8,6.6,5.4,8.4,5.6c1.9,0.3,9.5,0.4,11.9-3c1.9-2.7,1.7-8.8,1.7-8.8h6.8
		c0,0-1.5,9.5-4.4,12.7c-3.5,4.1-7.6,4.5-10.6,4.8c-2.8,0.3-9.2,1-14.3-3.1C285.8,236.3,283.7,228.8,285.4,227z"/>
	<path fill="none" stroke="#C49A6C" stroke-width="3.3457" stroke-miterlimit="10" d="M381.3,139.1c-0.6-0.8,1.3-3.5,3.8-4.7
		c2.8-1.5,6.4-1,6.6,0C392.2,136,382.4,140.4,381.3,139.1z"/>
	<path fill="none" stroke="#C49A6C" stroke-width="3.3457" stroke-miterlimit="10" d="M233.5,140.9c0.4-0.8-3-3.8-7-4.9
		c-3.3-1-7.4-0.9-7.6,0C218.8,137.5,232.9,142.4,233.5,140.9z"/>
	<g>
		<path fill="#FFFFFF" stroke="#000000" stroke-width="3.3457" stroke-miterlimit="10" d="M255.2,144.3c3,1.7,5.8-3,13.9-3
			c7.5,0,10.5,4.1,12.9,2.3c3-2.2,0.3-10.3-3-19.8c-2.6-7.5-4.7-10.7-7.9-12.9c-1.4-0.9-3.9-2.6-6.6-2c-1.3,0.3-4.4,1.4-7.6,10.5
			C256.4,121,249.4,140.8,255.2,144.3z"/>
		<path fill="#006838" stroke="#000000" stroke-width="3.3457" stroke-miterlimit="10" d="M259.6,139c-4.4-5.7-1.7-12.8-1.4-13.9
			c0.2-0.5,3.7-9.1,10-8.9c5.8,0.2,8.8,7.7,9.3,8.9c2.2,5.6-1.5,17.1-9.1,16.5C263.2,141.2,262.9,143.4,259.6,139z"/>
		<path fill="#2BB673" stroke="#000000" stroke-width="3.3457" stroke-miterlimit="10" d="M268.6,141.2c-3.5-0.3-4.7-0.8-4.9-4.8
			c-0.1-1.8,1-6.8,4.4-6.8c3.4,0,4.6,1.3,4.8,5.7C273.1,138.5,272,141.5,268.6,141.2z"/>
	</g>
	<path fill="none" stroke="#000000" stroke-width="3.3457" stroke-miterlimit="10" d="M313.1,95.9c5-1.6,15.2,0,22.7,8.7"/>
	<path fill="none" stroke="#000000" stroke-width="3.3457" stroke-miterlimit="10" d="M255.2,104.7c0-4.8,10.2-8.7,22.9-8.7"/>
	<line fill="none" stroke="#000000" stroke-width="3.3457" stroke-miterlimit="10" x1="325.4" y1="103.4" x2="325.4" y2="103.4"/>
	<g>
		<path fill="none" stroke="#C49A6C" stroke-width="3.3457" stroke-miterlimit="10" d="M294.8,160.4c-0.6-0.4-4.4-2.7-8.6-1.3
			c-3.8,1.3-7.3,5.1-6.6,9.4c0.6,3.2,3.3,5.3,5.8,6.1c3.2,1,6.9,0,9.4-2.5"/>
	</g>
	<path fill="none" stroke="#BE1E2D" stroke-width="3.3457" stroke-miterlimit="10" d="M251,179.9c1.4-2.1,5.5-4.4,5.5-4.4
		s3.5,4.5,5.9,7.7c8,10.3,19.6,13.3,23.7,14.1c6.4,1.3,11.3,0.8,16.1,0.2c3.7-0.4,9.7-0.5,16.1-3.9c3.5-1.8,7.1-3.7,12.3-7.3
		c5.7-4,6.5-5.4,6.5-5.4c3.8-3.8,4.9-4.5,4.9-4.5s2,2.3,2.7,4"/>
	<g>
		<path fill="#FFFFFF" stroke="#000000" stroke-width="3.3457" stroke-miterlimit="10" d="M310.2,144.3c3,1.7,5.8-3,13.9-3
			c7.5,0,10.5,4.1,12.9,2.3c3-2.2,0.3-10.3-3-19.8c-2.6-7.5-4.7-10.7-7.9-12.9c-1.4-0.9-3.9-2.6-6.6-2c-1.3,0.3-4.4,1.4-7.6,10.5
			C311.3,121,304.3,140.8,310.2,144.3z"/>
		<path fill="#006838" stroke="#000000" stroke-width="3.3457" stroke-miterlimit="10" d="M314.5,139c-4.4-5.7-1.7-12.8-1.4-13.9
			c0.2-0.5,3.7-9.1,10-8.9c5.8,0.2,8.8,7.7,9.3,8.9c2.2,5.6-1.5,17.1-9.1,16.5C318.2,141.2,317.9,143.4,314.5,139z"/>
		<path fill="#2BB673" stroke="#000000" stroke-width="3.3457" stroke-miterlimit="10" d="M323.5,141.2c-3.5-0.3-4.7-0.8-4.9-4.8
			c-0.1-1.8,1-6.8,4.4-6.8c3.4,0,4.6,1.3,4.8,5.7C328.1,138.5,327,141.5,323.5,141.2z"/>
	</g>
	
		<use xlink:href="#Blond_Hair_4"  width="22.6" height="15.3" x="-11.3" y="-7.7" transform="matrix(2.2498 0 0 -3.8433 374.742 89.5135)" overflow="visible"/>
	
		<use xlink:href="#Blond_Hair_4"  width="22.6" height="15.3" x="-11.3" y="-7.7" transform="matrix(2.2498 0 0 -3.8433 382.4013 74.7396)" overflow="visible" enable-background="new    "/>
	
		<use xlink:href="#Blond_Hair_4"  width="22.6" height="15.3" x="-11.3" y="-7.7" transform="matrix(-7.4094 -0.7109 0.3343 -3.4833 266.1825 77.8536)" overflow="visible" enable-background="new    "/>
	
		<use xlink:href="#Blond_Hair_4"  width="22.6" height="15.3" x="-11.3" y="-7.7" transform="matrix(-6.044 -1.7438 0.9676 -3.3536 275.1848 53.6319)" overflow="visible" enable-background="new    "/>
	
		<use xlink:href="#Blond_Hair_4"  width="22.6" height="15.3" x="-11.3" y="-7.7" transform="matrix(-4.4877 -2.3596 1.6252 -3.0909 289.0649 35.8093)" overflow="visible" enable-background="new    "/>
	
		<use xlink:href="#Blond_Hair_4"  width="22.6" height="15.3" x="-11.3" y="-7.7" transform="matrix(-3.6359 0.426 -0.2181 -1.8609 194.6198 126.9391)" overflow="visible" enable-background="new    "/>
	
		<use xlink:href="#Blond_Hair_4"  width="22.6" height="15.3" x="-11.3" y="-7.7" transform="matrix(-5.3951 -0.1516 5.771903e-02 -2.0535 163.003 175.6474)" overflow="visible" enable-background="new    "/>
	
		<use xlink:href="#Blond_Hair_4"  width="22.6" height="15.3" x="-11.3" y="-7.7" transform="matrix(-3.8343 -0.1078 7.214380e-02 -2.5668 204.0364 222.0972)" overflow="visible" enable-background="new    "/>
	
		<use xlink:href="#Blond_Hair_4"  width="22.6" height="15.3" x="-11.3" y="-7.7" transform="matrix(-5.7092 -0.1604 8.154742e-02 -2.9013 165.5027 201.9707)" overflow="visible" enable-background="new    "/>
</g>
</svg>
