<?xml version="1.0" encoding="utf-8"?>
<!-- Generator: Adobe Illustrator 18.1.0, SVG Export Plug-In . SVG Version: 6.00 Build 0)  -->
<!DOCTYPE svg PUBLIC "-//W3C//DTD SVG 1.1//EN" "http://www.w3.org/Graphics/SVG/1.1/DTD/svg11.dtd">
<svg version="1.1" id="Layer_1" xmlns="http://www.w3.org/2000/svg" xmlns:xlink="http://www.w3.org/1999/xlink" x="0px" y="0px"
	 viewBox="0 0 503.3 625.6" enable-background="new 0 0 503.3 625.6" xml:space="preserve">
<symbol  id="Blond_Hair_4" viewBox="-11.3 -7.7 22.7 15.4">
	<g>
		<path fill="#EC5A25" d="M-11.3,7c0,0,5.6,2.6,10.6-1.9c5-4.6,5.8-10.2,12-12.7C4.7-6.5,2.2,0.9-1,4C-6.1,8.9-10.8,7-11.3,7z"/>
	</g>
</symbol>
<path fill="#00AEEF" stroke="#000000" stroke-width="3.324" stroke-miterlimit="10" d="M340.4,477.4c6.8,6.6,14.3-10.1,30.1-16.6
	c15.8-6.5,20.1,2.1,33.5-3.3c19.3-7.7,13.4-26.4,35.7-41c3.8-2.5,15.4-6.8,38.6-15.3c19.2-7.1,22-7.5,23.1-10.7
	c3.9-11.3-26.9-22.4-59-60.1c-18.5-21.7-16.8-28-35.3-44.4c-11.9-10.6-22.4-16.6-43.5-28.8c-16.8-9.7-28.8-15.1-43-18.7
	c-8.3-2.1-24.8-2.2-24.8-2.2s7.9,6.8,24.4,17.9c23.8,16-1.8,17.3-10,37.7c-6.2,15.4-16.1,19.5-14.4,29.4c0.9,5.1,3.2,17.1,5.3,23.5
	c3,9.3,14.9,46.1,15.8,50.5c1.3,6.2,9.6,20.4,11.7,49.5c0.5,6.9,1.3,14.2,3.3,22.6C332.9,472.2,336.4,473.5,340.4,477.4z"/>
<path fill="#EF4136" stroke="#F15A29" stroke-width="3.324" stroke-miterlimit="10" d="M455.1,183.7c-0.2-3.1-27.7-1.1-45.8-19.7
	c-6.7-6.9-9.6-14.1-21.8-23.1c-5.5-4.1-11.3-7.3-10.8-8.7c1-2.4,19.1,5.5,21.9,1.3c2.8-4.2-12.2-16.4-28.2-36.6
	c-22.7-28.6-16.5-34.3-33.5-51.3c-19.8-19.7-43.3-26.9-55.5-30.7c0,0-28.2-10-48.6-6.9c-5.1,0.8-10,2.2-10,2.2c0,0-3.4,1-6.7,2.2
	c-10.9,4.2-36.3,29.5-38.2,28.1c-1.1-0.8,10.5-14.8,20.4-23.6c9.9-8.8,23.5-12.4,22.9-13.5c-3.6-6.7-53.3,24-56.5,26.9
	c-3.5,3.1,9.9-29.1,9.1-28.7c-1.3,0.8-18.2,25.1-25.6,39.8c-7,14-6.6,12.9-14.7,26.6c-7.4,12.5-7,29-7.6,39.4
	c-0.5,9.1,0.2,17.3,0.7,21.4c0.7,6.1,1.8,10.8,2.2,12.8c1,4.3,2.9,12.1,7.2,20.8c2.6,5.2,5.4,9.7,7,12c0,0,0.8,1.2,1.7,2.4
	c9.7,13.6,20.7,22.2,20.7,22.2c4.3,3.4,15.9,14.2,31.7,17.5c10.8,2.3,32.5,5.3,33,5.4c0,0-1.3-12.3-0.8-6.8
	c0,0.1-54.4-4.7-62.8-30.5c-3.6-11.1,2.3-30.2-4.7-29.7c-4.1,0.3-6.2,3.9-12.7,1.3c-10.4-4.2-18.7-20.5-12.9-26.5
	c3.3-3.4,11.1-2.5,16.1,0.4c7.8,4.5,9,13.7,11,13.3c2.6-0.6-2.8-15.1,4.4-27.8c2.9-5,5-5.1,10.8-14.3c3.5-5.6,5.3-8.6,6.3-13
	c2-9.1-2.1-13.7,0.4-16.1c3.2-3.1,11.2,3.8,23.3,6.9c17.3,4.4,19.9-4.8,39-1.9c13.5,2,10.7,6.4,36.3,14.4c4.6,1.4,9.7,2.8,14.2,7.4
	c7.1,7.2,7.7,16.9,7.8,18c0.5,9-3.7,15.7-2.7,16.2c1.3,0.7,5.3-11.2,14.3-13.3c4.4-1,10,0.2,12.8,4c3.6,4.7,1.5,11.3,0.7,13.8
	c-3.2,10.1-10.2,9.5-14,19.1c-2.8,6.9,0.4,8.2-2.6,18.5c-2.1,7.3-5.4,12.5-7.3,15.3c-2.8,4.2-6.5,9.8-13.1,14.4
	c-4.9,3.4-10.4,4.9-21.5,7.9c0,0-5.1-0.6-20.3,2.9c0.4-3.8-0.4,9.6,1.5,12.9c2.7,5,15.8,0.5,29.9-0.3c9.1-0.5,6.4,1.2,52.2,10.1
	c0,0,18.6,3.7,36.2,4c0,0,0.1,0,0.1,0c16.2,0.3,24.4,0.4,24.8-1.1c0.6-2.6-23-14.9-21.3-11.6c0.4,0.7,74.1-4.3,78.9-9.5
	c5.8-6.3-49.8-30-41.7-30.2C415.6,190.3,455.6,194.1,455.1,183.7z"/>
<path fill="#F3D9CC" stroke="#F3D9CC" stroke-width="3.324" stroke-miterlimit="10" d="M232.9,239.5c0,0-1.7-16.7-3.3-26.4
	c0,0-8.4,4.7-31-2.7c-2.7-0.9-11.9-2.2-22.9-12.6c-5.1-4.8-6.3-11.4-7.5-15.9c-2.5-9.2,0.2-10.2-0.1-21.7c0,0,2.3-0.7-3.8-5.5
	c-0.8-0.6-4.6-0.3-5.5,0.2c-2,1.1-5.7,2.5-9.7,1.5c-6-1.5-8.5-7.4-9.9-10.8c-1.1-2.6-4.3-10.2-0.7-14.1c2.7-2.9,7.9-2.5,11.2-1.5
	c10.3,3.2,12.5,16,15.8,15.3c2.7-0.6-3.6-6.6-0.8-21.6c0.8-4.2,1.3-6,7.2-13.3c4.3-5.3,8.3-12.1,11.6-17.8c2.7-4.6,0.6-19.1,3.9-20
	c6.6-1.8,8.7,5.6,22.1,9.3c16.8,4.7,20.4-4.9,39.5-1.9c9.7,1.5,6.1,3.6,36.5,15.2c7.4,2.8,10,3.8,12.6,6.9
	c9.3,11.5,2.3,29.8,3.6,31.5c1,1.3,6.3-10.1,17.2-10.9c3.7-0.3,9.4,0.8,11.5,4.2c5.3,8.4-6.1,15.7-13.5,30
	c-5.7,10.9-5.6,24.8-9.9,33.8c-3.5,7.3-8.2,13.2-20.5,18.1c-14.7,5.9-28.6,7.7-34.9,4.8c0,0,0,0,0,0c-5,9.5,0,18.7,0,18.7
	c0.1,1.1,0.2,2.9,0.3,5.2c-1.3,1.1-3.6,2.7-6.9,3.8c-0.9,0.3-2,0.5-3.3,0.6C236.7,242.3,232.9,239.5,232.9,239.5z"/>
<use xlink:href="#Blond_Hair_4"  width="22.7" height="15.4" x="-11.3" y="-7.7" transform="matrix(5.8668 -0.4467 -0.227 -2.9814 381.4744 200.8841)" overflow="visible"/>
<use xlink:href="#Blond_Hair_4"  width="22.7" height="15.4" x="-11.3" y="-7.7" transform="matrix(3.9401 -0.3 -0.2008 -2.6376 342.7794 223.5649)" overflow="visible"/>
<path fill="#FFF200" stroke="#000000" stroke-width="3.324" stroke-miterlimit="10" d="M263.1,234.9c3.7-3.2,9.3-2.4,17.9-1.1
	c4.2,0.6,10.5,1.1,17.4,2c11.6,1.6,18.4,3.8,29.1-1c12-5.4,28.8-18,39.6-25.2c0.2-0.1,10.5-21.9,18.1-28.9c3.1-2.9,6,7.2,10.3,9.8
	c3.5,2.1,14,5.5,15.5,7.1c0,0-1.6,1.1-3.8,3.6c-3.3,3.8-10.5,16.4-14.3,20.3c-3.2,3.2-11.7,14.7-13.6,17.5
	c-3.7,5.3-12.5,9.1-18.5,12.3c-4.8,2.5-18.1,9-25.7,12.2c-4.5,1.9-21.3,23-22.7,24.6c-2,2.2-2.9,7-7.4,17.3
	c-2.9,6.4-3.9,6.9-5.4,12.1c-1.4,4.7-1.5,18.5,1.6,27.4c0,0,2,0.7,3,9.3l1.8,5.6c-0.7,2.1-7.6,0.1-17.9,1.1
	c-10.4,1-11.6,3.1-16.7,2.1c-5.8-1.1-6.3-3.5-13.1-5.6c-5.6-1.7-12.7-1-14.5-0.4c-5.5,1.8-6.2,3.5-12.5,6c-1.8,0.7-0.8,0-5.9,1
	c-8.5,1.7-13.8,2.1-19,1.7c-4.7-0.4-5.4-1-5.7-1.4c-2.6-2.9,0-8,1.8-18c0.5-3.2,2.2-10.7-0.7-19.6c-1.1-3.5-4.1-6.6-9.2-14.8
	c-6.1-9.8-5.4-10.1-7.4-15.3c-1.1-2.7-1.3-2.6-10.1-10.5c-8.7-7.7-8.1-6.6-12.7-11.3c-4.1-4.1-13.2-14.5-20-14
	c-3.4,0.2-40-7.6-45.2-12.8c-2.9-2.8-23-30.4-23.8-31.6c-4.5-6.5,1-11.8,2.5-13.1c5.7-5.2,7.1-4.6,11.1-9.2c4.4-5.2,5.8-11.5,8.3-6
	c1.2,2.6,17.7,33.6,22.6,35.7c8.8,3.7,49.6,15.7,54.4,16.9c10.6,2.7,15.6,4.7,25.2,1.9c3.8-1.1,7.6-3.2,16-5.4
	c10-2.7,11.8-2,12.8-1.3c3.7,2.5,1.1,7.5,5.2,12.1c4.1,4.6,11.2,4.3,13.7,4.2c2.7-0.1,8.2-0.3,12.1-4.1
	C261.9,243.5,258.9,238.5,263.1,234.9z"/>
<path fill="#F7941E" stroke="#000000" stroke-width="3.324" stroke-miterlimit="10" d="M304.5,360.7c1.3,4.1,2.6,8.1,4,12.2
	l-36.4,1.7l-4.6-13.3L304.5,360.7z"/>
<polygon fill="#F7941E" stroke="#000000" stroke-width="3.324" stroke-miterlimit="10" points="226.6,364 227.3,379 194.2,378.3 
	197.5,364.7 "/>
<path fill="#ED1C24" stroke="#000000" stroke-width="3.324" stroke-miterlimit="10" d="M266.5,363.6c0.5,0.8,4.7,7.7,1.8,14.5
	c-3.7,8.9-15.7,9.7-18.1,9.8c-2.7,0.2-15.8,0.6-21.2-9.1c-0.2-0.4-4.3-7.9-0.7-15.1c5-10.1,19.8-9,21.5-8.9
	C252.4,355.1,261.7,355.9,266.5,363.6z"/>
<path fill="#FFFFFF" stroke="#000000" stroke-width="3.324" stroke-miterlimit="10" d="M257.6,366.3c2.3,3.1,2.1,7.7-0.1,10.7
	c-3.5,4.8-11.4,4.2-15.7,0.8c-2.4-1.9-5.1-5.8-3.8-9.4c1.3-3.5,5.7-4.4,7.6-4.9C247.4,363.1,254.2,361.7,257.6,366.3z"/>
<path fill="#FFF200" stroke="#000000" stroke-width="3.324" stroke-miterlimit="10" d="M308.6,375.1c0,0,3.8,9.3,7.4,19.9
	c0.6,1.8,3.1,9.7,4.6,14.4c9.6,28.4,8.9,57.4,12.2,60.2c4.4,3.6,5,6.6,6.4,11.9c1.7,6.6,1.9,10.2,2.4,16.2c0.3,3.1,1.8,5.2,1.5,7.2
	c-0.4,2.9-5,4.4-8.2,5.4c-1.7,0.6-9.2,2.1-15.2,2c-6.4-0.1-14.2-2.7-14.2-2.7l-0.1-2.2c0,0-1-7.6-2.5-11.2
	c-4.5-11-10-18.2-17.7-26.2c-23.7-24.9-25.8-38.6-30.9-40.2c0,0-8.6,14.3-32.3,46c-7.2,9.6-13,16.2-12.8,25.9
	c0.1,5.7,2.3,11.1-1,14.6c-0.7,0.8-2.1,1.9-10.5,2.8c-15.3,1.6-20-0.9-21.4-1.8c-1.6-0.9-4.5-2.7-4.7-5.4c-0.3-2.5-0.7-4.6-0.4-7.8
	c0.9-7.8,0.3-9.8,4-16.9c1.6-3.1,2.7-7.3,4.2-11c3.2-7.9-1.7-29.6,1.8-50.8c2-11.6-0.5-20.8,3-24.6c6.2-6.6,10-20.4,10-20.4
	s29.8-2.7,33-0.7c8.6,5.5,7.5,8.8,22.9,8.1c13.3-0.6,18.1-9.8,21.7-11.1C283.6,373,308.6,375.1,308.6,375.1z"/>
<path fill="#F7941E" stroke="#000000" stroke-width="3.324" stroke-miterlimit="10" d="M347.9,516.9c-0.4-5.3-0.2-9.9-2.8-11.1
	c-1.4-0.6-2.7,0.1-6.1,1.4c-4,1.5-8.1,3.1-12.2,3.4c-6.7,0.5-19.2-0.3-20.2,1c-3.5,4.5,4.8,16.6,10.8,25.3
	c8.7,12.7,11.2,12.6,12.7,19c1.4,5.8-0.4,7.1,1,20.2c1,9.4,2.2,12.1,2.9,13.3c1.2,2.2,3,4.8,11.8,11.2c9,6.6,13.5,9.9,17.4,11
	c1.1,0.3,14.1,3.5,22.8-3.9c1.4-1.2,4.1-3.4,4.7-7c0.3-1.4,0.7-5.6-6.9-14.3c-7.8-8.8-12.5-9.2-22.3-19.1c-3.8-3.9-5.7-5.8-7.2-8.6
	c-3.3-6.4-1.3-9.5-2.8-22.3C350.4,525,348.7,526.9,347.9,516.9z"/>
<path fill="#F7941E" stroke="#000000" stroke-width="3.324" stroke-miterlimit="10" d="M203.8,532.8c2.6-5.7,7.2-15.5,4.2-18.2
	c-1.5-1.3-3.6,0.2-10.6,1.6c-7.6,1.6-15.7,3.2-21.4-0.7c-3.6-2.5-3.8-5.6-5.3-5.4c-4.3,0.5-4.7,24-4.8,28.9
	c-0.4,20.4,2.3,21.5-0.3,28.6c-1.9,5.2-3.6,5.4-20.2,24c-11.9,13.3-14.6,17.2-13.6,21.4c1.5,6.1,9.7,8.9,11.7,9.5
	c9.7,3.3,18.6-1.2,20.1-2.1c5.1-2.8,4.4-4.6,15-14.8c7.8-7.4,8.5-6.7,9.7-9.4c2.3-5.3-0.2-8.8-0.5-22.4c-0.1-4.4-0.2-6.5,0.1-9
	C189.4,553,196.2,549.3,203.8,532.8z"/>
<path fill="#00AEEF" stroke="#000000" stroke-width="3.324" stroke-miterlimit="10" d="M148.2,262.7c0,0,0.3,0.4-8.3,6.5
	c-7.3,5.2-22.1,17.9-34.6,38.7c-11.8,19.7-9.6,27.5-24.6,48.9c-11.5,16.5-19.5,21.3-22.5,23c-12.2,6.8-25.9,8.1-32.7,8.3
	c-14.4,0.4-19.6-3.4-22.5,0c-5,5.9,4.2,25.9,18.7,37.8c7.3,6.1,17.7,10.6,38.6,19.5c11,4.7,9.9,3.8,13.2,5.5
	c19.4,10.6,17.8,23.1,32.4,32.1c12.7,7.9,14.4,9.6,39.7,8.2c14.8-0.8,24.2,9.2,26.6,5.4c0.5-0.8,1.3-0.9,3.3-5.6
	c2.5-5.7,3.8-9.7,6.2-15.6c2.1-5.2-5.2-23.4-0.4-48.2c2.2-11.1,5-22.6,8.6-31.7c5.5-13.9,1.3-3.6,5.5-13.9
	c3.2-7.8,7.1-33.8,8.6-39.6c3.7-13.8-16-40.1-16-47c0-2.1-15.2-14.5-26.1-24.7C157.7,266.4,149.8,263.5,148.2,262.7z"/>
<path fill="#00AEEF" stroke="#000000" stroke-width="3.324" stroke-miterlimit="10" d="M212.6,493.7c1.4,1.4,26.8-10.6,43.5-10.5
	c25.1,0.2,43,11.5,45.1,8.5c2.3-3.3-9.7-10.2-24.1-29.2c-6.7-8.9-20-32.6-22.7-32.5c-2.4,0.1-12.7,18.9-23.4,33.3
	C220.2,477.8,211.5,492.6,212.6,493.7z"/>
<path fill="none" stroke="#C49A6C" stroke-width="3.324" stroke-miterlimit="10" d="M155.8,146.6c0.5-0.8-1.5-3.5-4.1-4.7
	c-3-1.3-6.6-0.6-6.8,0.3C144.5,143.9,154.8,148,155.8,146.6z"/>
<path fill="none" stroke="#C49A6C" stroke-width="3.324" stroke-miterlimit="10" d="M308.5,141.2c-0.4-0.8,2.9-4.1,6.9-5.5
	c3.4-1.2,7.7-1.2,7.9-0.4C323.6,137,309.3,142.7,308.5,141.2z"/>
<g>
	<path fill="#FFFFFF" stroke="#000000" stroke-width="3.324" stroke-miterlimit="10" d="M286.3,145.7c-3,2-6.2-2.8-14.5-2.4
		c-7.7,0.4-10.7,4.7-13.2,3c-3.2-2.2-0.8-10.7,2.1-20.6c2.3-7.9,4.4-11.4,7.6-13.7c1.3-1,3.9-2.8,6.7-2.4c1.3,0.2,4.5,1.2,8.4,10.5
		C284,121.8,292.1,141.9,286.3,145.7z"/>
	<path fill="#006838" stroke="#000000" stroke-width="3.324" stroke-miterlimit="10" d="M281.5,140.5c4.2-6.2,1.2-13.2,0.7-14.4
		c-0.2-0.5-4.3-9.2-10.7-8.7c-5.9,0.5-8.7,8.5-9.1,9.7c-2,5.9,2.4,17.6,10.2,16.6C277.8,143,278.2,145.2,281.5,140.5z"/>
	<path fill="#2BB673" stroke="#000000" stroke-width="3.324" stroke-miterlimit="10" d="M272.3,143.2c3.6-0.5,4.9-1.1,4.8-5.3
		c0-1.9-1.3-6.9-4.9-6.7c-3.5,0.2-4.7,1.5-4.7,6.1C267.5,140.6,268.8,143.7,272.3,143.2z"/>
</g>
<path fill="none" stroke="#000000" stroke-width="3.324" stroke-miterlimit="10" d="M224.1,98.6c-5.3-1.4-15.7,0.8-23,10.1"/>
<path fill="none" stroke="#000000" stroke-width="3.324" stroke-miterlimit="10" d="M284.3,104.8c-0.2-5-11-8.5-24.1-7.9"/>
<line fill="none" stroke="#000000" stroke-width="3.324" stroke-miterlimit="10" x1="211.8" y1="107.1" x2="211.8" y2="107.1"/>
<g>
	<path fill="none" stroke="#C49A6C" stroke-width="3.324" stroke-miterlimit="10" d="M249.3,164.7c-0.6-0.4-4.2-3.2-8.8-2.2
		c-4,0.9-8.1,4.6-7.7,9c0.3,3.3,2.9,5.8,5.4,6.9c3.2,1.4,7.1,0.7,9.9-1.7"/>
</g>
<path fill="none" stroke="#BE1E2D" stroke-width="3.324" stroke-miterlimit="10" d="M292.3,182.3c-1.6-2.2-5.9-4.2-5.9-4.2
	s-3.3,4.9-5.7,8.3c-7.8,11.1-19.6,14.7-23.8,15.8c-6.5,1.6-11.7,1.3-16.7,1c-3.9-0.2-10,0-16.9-3.2c-3.7-1.7-7.5-3.4-13.1-6.9
	c-6.1-3.8-6.9-5.3-6.9-5.3c-4.1-3.7-5.3-4.5-5.3-4.5s-2,2.5-2.6,4.2"/>
<g>
	<path fill="#FFFFFF" stroke="#000000" stroke-width="3.324" stroke-miterlimit="10" d="M229.5,148.4c-3,2-6.2-2.8-14.5-2.4
		c-7.7,0.4-10.7,4.7-13.2,3c-3.2-2.2-0.8-10.7,2.1-20.6c2.3-7.9,4.4-11.4,7.6-13.7c1.3-1,3.9-2.8,6.7-2.4c1.3,0.2,4.5,1.2,8.4,10.5
		C227.3,124.5,235.4,144.6,229.5,148.4z"/>
	<path fill="#006838" stroke="#000000" stroke-width="3.324" stroke-miterlimit="10" d="M224.7,143.2c4.2-6.2,1.2-13.2,0.7-14.4
		c-0.2-0.5-4.3-9.2-10.7-8.7c-5.9,0.5-8.7,8.5-9.1,9.7c-2,5.9,2.4,17.6,10.2,16.6C221.1,145.7,221.5,147.9,224.7,143.2z"/>
	<path fill="#2BB673" stroke="#000000" stroke-width="3.324" stroke-miterlimit="10" d="M215.6,146c3.6-0.5,4.9-1.1,4.8-5.3
		c0-1.9-1.3-6.9-4.9-6.7c-3.5,0.2-4.7,1.5-4.7,6.1C210.8,143.3,212,146.4,215.6,146z"/>
</g>
<use xlink:href="#Blond_Hair_4"  width="22.7" height="15.4" x="-11.3" y="-7.7" transform="matrix(-2.315 0.111 -0.1895 -3.9548 160.2715 95.0957)" overflow="visible"/>
<use xlink:href="#Blond_Hair_4"  width="22.7" height="15.4" x="-11.3" y="-7.7" transform="matrix(-2.315 0.111 -0.1895 -3.9548 151.6319 80.2202)" overflow="visible"/>
<use xlink:href="#Blond_Hair_4"  width="22.7" height="15.4" x="-11.3" y="-7.7" transform="matrix(7.5892 -1.097 -0.5157 -3.5679 271.2907 77.7442)" overflow="visible"/>
<use xlink:href="#Blond_Hair_4"  width="22.7" height="15.4" x="-11.3" y="-7.7" transform="matrix(6.1332 -2.0924 -1.161 -3.4031 260.8699 53.2298)" overflow="visible"/>
<use xlink:href="#Blond_Hair_4"  width="22.7" height="15.4" x="-11.3" y="-7.7" transform="matrix(4.5014 -2.6493 -1.8248 -3.1005 245.7381 35.5419)" overflow="visible"/>
<use xlink:href="#Blond_Hair_4"  width="22.7" height="15.4" x="-11.3" y="-7.7" transform="matrix(3.7623 0.2591 0.1326 -1.9256 347.8019 124.8168)" overflow="visible"/>
<use xlink:href="#Blond_Hair_4"  width="22.7" height="15.4" x="-11.3" y="-7.7" transform="matrix(5.5441 -0.4221 -0.1607 -2.1102 382.7689 173.5792)" overflow="visible"/>
<g>
	<path fill="#F7941E" stroke="#000000" stroke-width="3.324" stroke-miterlimit="10" d="M67.9,209.3c-13.5-8.2-7.3-52.1-29-54.8
		c-12.1-1.5-14.2-4.6-14.1-5.2c0.1-0.5,14.2,0.6,14-4c-0.2-4.3-15.2-4.5-15.2-3.9c-0.1,0.6,15-0.6,14.9-4.9
		c-0.1-3.7-16.4-1.7-16.4-1.8c0-0.1,16-3.1,15.9-4.9c-0.2-3-16.5-2.7-16.5-2.9c0-0.2,15.6,0.3,16-1.7c0.7-3.8-16.8-7.5-16.2-7.4
		c0.3,0,11.2,4.8,13.6,1.8c2.3-2.8-3.1-10-2.2-14.1c0.5-2.3,5.6-3.6,7.1-1.1c2.1,3.4,3.9,8.4,4,10.8c0.2,5.3,1.5,10.9,17.5,31.7
		c27.7,36.1,40.4,42.8,37.7,51.8C95.9,208.2,77.3,215,67.9,209.3z"/>
	<path fill="none" stroke="#000000" stroke-width="3.324" stroke-miterlimit="10" d="M21.1,117.8c0,3.2,0.1,6.3,0.2,9.2
		c0.1,2.9,0.3,5.6,0.4,8c0.2,2.5,0.4,4.8,0.7,6.7c0.6,4.7,1.5,7.6,2.4,7.6"/>
	<g>
		<g>
			<path d="M21.9,120.5c0,1.2-0.4,3.5,0.4,4.5c0.7,0.9,1.4,0.5,2.3,0.4c1.6-0.1,3.1,0.8,4.8,0.7c1.8,0,3.5-0.4,5.1-1
				c0.8-0.3,0.8-1.3,0-1.6c-2-0.7-3.8-1.6-5.8-2.3c-1.4-0.6-3.3-1.6-4.8-1.4c-0.4,0-0.7,0.2-0.8,0.6c-0.4,1.3-0.6,3,0.9,3.4
				c0.6,0.2,1.3,0,2,0.2c0.6,0.2,1.2,0.5,1.8,0.7c1.1,0.4,2.1,0.7,3.2,0.5c0.9-0.1,1.1-1.3,0.2-1.6c-2.2-0.8-4.3-1.8-6.6-2.2
				c-1-0.2-1.5,1.4-0.4,1.6c2.3,0.3,4.4,1.3,6.6,2.2c0.1-0.5,0.1-1.1,0.2-1.6c-1.7,0.2-3-0.7-4.6-1.2c-0.3-0.1-1.1-0.4-1.4-0.3
				c-0.7-0.2-0.8,0-0.4,0.4c0-0.6,0.1-1.1,0.2-1.7c-0.3,0.2-0.5,0.4-0.8,0.6c1.6-0.2,4,1.2,5.4,1.8c1.6,0.7,3.1,1.3,4.7,1.9
				c0-0.5,0-1.1,0-1.6c-2.8,0.9-5.2,1.1-8,0.3c-0.7-0.2-1.3-0.2-2-0.2c-0.9-0.1-0.3,0.4-0.4-0.4c-0.1-0.9-0.1-1.8,0-2.7
				C23.6,119.4,22,119.5,21.9,120.5L21.9,120.5z"/>
		</g>
	</g>
	<g>
		<g>
			<path d="M22.1,129.1c0.1,1.4,0.2,2.9,0.3,4.3c0.1,0.8,1.1,1.2,1.5,0.4c0.7-1.4,3.9-1.4,5.2-1.7c1.7-0.4,3.3-0.9,4.9-1.3
				c0.6-0.2,0.8-0.9,0.4-1.4c-1.5-1.7-3.8-1.4-5.8-1.3c-1.3,0-5.1-0.8-5.6,1c-0.3,1.1,0.4,2.5,1.5,2.5c1.3,0.1,2.7-0.3,4-0.3
				c1.4,0.1,2.7,0,4.1-0.3c1-0.3,0.6-1.9-0.4-1.6c-1.6,0.4-3.1,0.2-4.7,0.2c-0.5,0-1,0-1.5,0.1c-0.2,0-1.8,0.1-1.3,0.2
				c2.4,0.5,6.8-1.4,8.7,0.8c0.1-0.5,0.2-0.9,0.4-1.4c-2.5,0.7-4.9,1.4-7.5,1.8c-1.6,0.2-2.9,0.5-3.7,2c0.5,0.1,1,0.3,1.5,0.4
				c-0.1-1.4-0.2-2.9-0.3-4.3C23.7,128,22,128,22.1,129.1L22.1,129.1z"/>
		</g>
	</g>
	<g>
		<g>
			<path d="M27.2,130.4c0.7,0,2.1-0.3,2.8,0c0.4,0.2,0.7,0.6,1.1,0.7c0.6,0.2,1.4,0.1,2,0.1c0.8,0,1.8,0.1,2.6-0.2
				c0.4-0.1,0.6-0.4,0.6-0.8c0,0,0-0.1,0-0.1c0-0.3-0.2-0.6-0.4-0.7c0,0-0.1,0-0.1-0.1c-0.9-0.6-1.7,0.9-0.8,1.4c0,0,0.1,0,0.1,0.1
				c-0.1-0.2-0.3-0.5-0.4-0.7c0,0,0,0.1,0,0.1c0.2-0.3,0.4-0.5,0.6-0.8c-0.7,0.2-1.7,0.2-2.4,0.1c-0.5,0.1-1,0-1.5-0.3
				c-0.2-0.1-0.3-0.2-0.5-0.4c-1.1-0.4-2.4-0.2-3.6-0.2C26.1,128.7,26.1,130.4,27.2,130.4L27.2,130.4z"/>
		</g>
	</g>
	<g>
		<g>
			<path d="M23.4,132.4c0.4,0,0.8,0,1.2,0c1.1,0,1.1-1.7,0-1.7c-0.4,0-0.8,0-1.2,0C22.4,130.7,22.4,132.4,23.4,132.4L23.4,132.4z"/>
		</g>
	</g>
	<g>
		<g>
			<path d="M23.1,137.4c4.5,0,9.1,0,13.6,0c-0.1-0.5-0.1-1.1-0.2-1.6c-2.8,0.8-5.6,1.6-8.4,2.4c-0.7,0.2-1.4,0.3-2,0.6
				c-0.3,0-0.6,0.2-0.8,0.3c-0.3,0.3-0.4,0.3-0.4-0.2c-1.4-0.9,2.1-0.5,2.7-0.5c1.4,0,2.7-0.1,4.1-0.3c0.2,0,2-0.2,2-0.2
				c0-0.2-1.7-0.2-1.9-0.2c-0.9,0.1-1.7,0.4-2.5,0.7c-0.4,0.2-0.9,0.5-1.4,0.6c-0.5,0.4-1,0.3-1.5-0.2c-0.9-0.1-1.2-0.3-0.7-0.7
				c0.1,0.5,0.1,1,0.2,1.5c0.2-0.1,0.4-0.2,0.6-0.3c1.1-0.1,1.1-1.7,0-1.7c-0.7,0-0.9,0-1.5,0.5c-0.5,0.4-0.6,1.4,0.2,1.5
				c1.5,0.2,2.5-1.4,1.1-2.5c-1.2-1-2.4-0.1-2.6,1.2c-0.3,2.7,2.3,3,4.3,2.4c0.8-0.3,1.6-0.8,2.5-1c1-0.3,1.9-0.2,2.9-0.4
				c0.8-0.1,1.8-0.4,2.2-1.2c1.1-2.1-1.8-2-3-1.9c-2.4,0.2-4.7,0.4-7.2,0.3c-0.9,0-1.8-0.3-2.3,0.6c-0.6,1,0.2,3.3,1.3,3.6
				c1.4,0.4,4.4-1.1,5.6-1.5c2.3-0.7,4.6-1.3,6.9-2c0.9-0.3,0.7-1.6-0.2-1.6c-4.5,0-9.1,0-13.6,0C22,135.7,22,137.4,23.1,137.4
				L23.1,137.4z"/>
		</g>
	</g>
	<g>
		<g>
			<path d="M23.7,144.3c2.6-0.1,5.2-0.2,7.8,0.1c1.2,0.1,2.7,0.2,3.9,0.6c0.6,0.2,0.6,0.1,0.1-0.2c-0.7,0.3-1.5,0.6-2.2,0.9
				c-1.1,0.4-2.2,0.7-3.4,0.8c-0.2,0-5.3,0.9-4.4-1c0.3-0.5,3.9-0.7,4.5-0.8c0.7-0.1,4.7-0.1,1.8,0.6c-0.9,0.2-1.8,0.3-2.7,0.5
				c-1.3,0.2-3.6,0.5-1-0.1c0.9-0.2,1.9-0.4,2.9-0.5c0.8,0.2,1.4,0.1,1.9-0.4c-0.1,0-0.1,0-0.2,0c-1.2,0.1-2.5,0.4-3.6,0.7
				c-0.6,0.2-1.2,0.3-1.8,0.5c0.1,0.7,0.5,0.8,1.1,0.3c1,0,2.2-0.5,3.2-0.6c1.1-0.1,0.6-1.7-0.4-1.6c-1.6,0.2-7.3,0.8-5.1,3.6
				c0.2,0.2,0.6,0.3,0.8,0.2c2.3-0.8,4.6-1,6.9-1.6c0.7-0.2,1.2-0.3,1.4-1.1c0.4-2.3-3.4-1.9-4.6-1.7c-1.4,0.2-6.6,0.1-6.1,2.8
				c0.6,2.7,5.9,0.9,7.3,0.6c1.4-0.3,4.2-1.5,2.6-3.2c-0.8-0.9-2.4-0.9-3.5-0.8c-1.8,0.2-3.6,0.5-5.4,0.6c-2.2,0.1-2.4,3-0.9,4.4
				c1.6,1.5,6.4,0.1,8.2-0.4c1-0.3,6.2-1.7,4.1-3.7c-1-1-3.7-0.9-5.1-1c-2.7-0.3-5.5-0.3-8.2-0.2C22.7,142.7,22.7,144.4,23.7,144.3
				L23.7,144.3z"/>
		</g>
	</g>
</g>
<path fill="#F7941E" stroke="#000000" stroke-width="3.324" stroke-miterlimit="10" d="M261.7,233.1c0-0.2-2.4-0.4-3.9-0.5
	c-0.6,0-3.4-0.2-3.4-0.2s0.2,2.5-0.7,5.4c-1.2,4-6.5,5.9-8.4,6.3c-2,0.4-9.6,0.7-12.4-2.5c-2.1-2.4-2.1-5.2-2.2-6.8l-6.7,0.6
	c0,0,1.6,7.4,4.7,10.6c3.8,4,8.1,5.4,11.2,5.6c2.9,0.2,10.6,0.8,15.7-3.7C260.3,243.7,261.5,234.7,261.7,233.1z"/>
<g>
	<path fill="#F7941E" stroke="#000000" stroke-width="3.324" stroke-miterlimit="10" d="M408,203.5c13.2-8.7,5.4-52.3,27-55.9
		c12.1-2,14.1-5.1,13.9-5.7c-0.1-0.5-14.2,1.1-14.1-3.5c0.1-4.3,15-5,15.1-4.4c0.1,0.6-15-0.1-15-4.3c0-3.7,16.3-2.3,16.4-2.4
		c0-0.1-16.1-2.5-16-4.3c0.1-3,16.4-3.3,16.4-3.5c0-0.2-15.6,0.9-16-1.2c-0.8-3.7,16.5-8.1,15.9-8c-0.3,0-11,5.2-13.5,2.3
		c-2.4-2.7,2.7-10.1,1.7-14.1c-0.6-2.3-5.7-3.4-7.2-0.9c-2,3.4-3.6,8.5-3.6,10.9c0,5.3-1.1,10.9-16.3,32.3
		c-26.4,37.1-38.8,44.2-35.8,53.1C380,203.4,398.8,209.5,408,203.5z"/>
	<path fill="none" stroke="#000000" stroke-width="3.324" stroke-miterlimit="10" d="M451.5,110.5c0.1,3.3,0.2,3.9,0.2,6.9
		c0,3,0.1,9.2,0,11.8c-0.1,2.6-0.4,1.5-0.6,3.6c-0.5,4.9-1.2,7.9-2.2,8"/>
	<g>
		<g>
			<path d="M449.4,113.4c0,0.6-0.1,1.3,0.1,1.8c-0.3,0.8-0.1,1.1,0.5,0.8c0.7,0,0.8-0.1,0.1-0.2c-1.1-0.3-2.2,0-3.2,0.3
				c-3.2,0.8-5.9,0.8-9.2,0c0,1.1,0,2.1,0,3.2c2-0.6,4-1.5,6-2.2c1.6-0.6,4.2-2,6-1.9c-0.5-0.4-1.1-0.8-1.6-1.2
				c0.2,0.5,0.3,1.2,0.2,1.7c0.3-0.5,0.5-1,0.8-1.4c-0.2,0.1-2.4,0.3-3.1,0.5c-1.6,0.5-3,1.2-4.7,1.2c0,1.1,0,2.2,0,3.3
				c0.3,0,1.3,1.4,1.9,1.7c0.7,0.4,1.5,0.5,2.3,0.2c2-0.7,2.4-3.9,4.2-4.5c2-0.6,1.2-3.8-0.9-3.2c-1.6,0.5-3.3,2.4-3.9,3.9
				c-0.1,0.2-0.3,0.4-0.4,0.5c0.6,0.2,0.7,0.2,0.3-0.1c-0.4-0.3-0.7-0.7-1-1c-0.7-0.6-1.4-1-2.3-0.9c-2.1,0.1-2.1,3.2,0,3.3
				c1.6,0.1,3-0.3,4.4-0.8c1.4-0.5,2.8-0.5,4.2-0.9c2-0.6,2.1-2.6,1.4-4.4c-0.3-0.7-0.8-1.2-1.6-1.2c-1.9-0.1-4.1,1-5.9,1.7
				c-2.3,0.9-4.6,1.8-6.9,2.6c-1.5,0.5-1.7,2.8,0,3.2c1.9,0.4,3.9,0.8,5.9,0.8c2.4,0,4.6-1,6.9-1c3.5,0,3.2-2.7,3-5.8
				C452.6,111.2,449.3,111.2,449.4,113.4L449.4,113.4z"/>
		</g>
	</g>
	<g>
		<g>
			<path d="M449.5,120.5c-0.1,1.6-0.1,3.1-0.2,4.7c1-0.3,2.1-0.6,3.1-0.8c-1.1-1.8-2.8-2.2-4.8-2.4c-3.2-0.3-6.2-0.9-9.3-1.6
				c0.2,0.9,0.5,1.9,0.7,2.8c1.2-1.3,3.5-0.9,5.1-0.9c1.1,0,4.5-0.5,5-0.1c-0.3-0.5-0.5-1-0.8-1.4c0,1.6,0.1,3.3-0.1,4.9
				c1.1-0.1,2.2-0.3,3.3-0.4c-0.1-0.6,0-2.6-0.5-3.7c-0.2-0.5-0.9-0.8-1.4-0.8c-1.5,0-2.9-0.2-4.4-0.2c-1.7,0.1-3.4,0.3-5.2,0
				c-2.1-0.4-3,2.8-0.9,3.2c1.7,0.3,3.4,0.3,5.2,0.2c1.8-0.1,3.5,0.1,5.3,0.1c-0.5-0.3-1-0.5-1.4-0.8c0,0.1,0,2.1,0.1,2.9
				c0.4,2,3.1,1.3,3.3-0.4c0.2-1.9,0.8-5.9-1.4-6.7c-1-0.4-2.4-0.1-3.4,0c-1.5,0-3.1,0-4.6,0.1c-2,0.1-4,0.3-5.4,1.9
				c-0.8,0.9-0.5,2.5,0.7,2.8c2,0.5,4,0.9,6.1,1.2c1.3,0.2,5.3,0.1,6,1.2c0.9,1.4,3,0.8,3.1-0.8c0.1-1.6,0.1-3.1,0.2-4.7
				C452.9,118.3,449.5,118.3,449.5,120.5L449.5,120.5z"/>
		</g>
	</g>
	<g>
		<g>
			<path d="M446.9,120.2c-1.2,0-2.5-0.1-3.6,0.3c-0.2,0.1-0.3,0.2-0.4,0.4c-0.5,0.3-1,0.4-1.5,0.3c-0.7,0.1-1.8,0.1-2.4,0
				c0.2,0.2,0.4,0.4,0.6,0.6c0,0,0-0.1,0-0.1c-0.1,0.3-0.3,0.6-0.4,0.9c0,0,0.1,0,0.1-0.1c0.9-0.6,0-2-0.8-1.4c0,0-0.1,0-0.1,0.1
				c-0.3,0.2-0.4,0.5-0.4,0.9c0,0,0,0.1,0,0.1c0,0.3,0.3,0.5,0.6,0.6c1.2,0.3,3.2,0.3,4.4,0c0.5-0.1,0.8-0.6,1.2-0.7
				c0.8-0.3,2-0.1,2.9-0.1C448,121.9,448,120.2,446.9,120.2L446.9,120.2z"/>
		</g>
	</g>
	<g>
		<g>
			<path d="M450.7,122.1c-0.4,0-0.8,0-1.2,0c-1.1,0-1.1,1.7,0,1.7c0.4,0,0.8,0,1.2,0C451.8,123.7,451.8,122.1,450.7,122.1
				L450.7,122.1z"/>
		</g>
	</g>
	<g>
		<g>
			<path d="M451.3,126.3c-5,0.2-10,0.4-14.9,0.5c-1.8,0.1-2.3,2.8-0.4,3.3c2.5,0.6,5.1,1.1,7.6,1.7c2.1,0.5,4.3,1.3,6.5,1.3
				c0.6,0,1.2-0.3,1.4-0.8c0.8-1.4,1.4-3.9-0.3-4.8c-1.1-0.6-2.9-0.1-4.1,0c-2.1,0.1-4.1-0.1-6.2-0.1c-1.6,0-4.4-0.2-4.2,2.3
				c0.3,2.9,4.1,2.3,6,2.6c2.4,0.4,5.5,2.5,7.7,0.6c1.3-1,1.7-3.6,0.4-4.8c-3.4-3-6.6,4.8-1.4,3.9c1.5-0.3,1.5-2.3,0.4-3
				c-0.7-0.5-1.1-0.6-2-0.6c-2.1,0-2.1,3.3,0,3.3c0.1,0,0.2,0.1,0.3,0.1c0.1-1,0.3-2,0.4-3c0.4,0.2,0.8,0.4,1.2,0.6
				c-0.1,0.5-0.3,1.1-0.4,1.6c-0.2,0.2-4.6-1.8-5.5-2c-0.6-0.1-1.3-0.3-1.8-0.3c-0.3,0-0.6,0-0.9,0c-1.7,1.4-1.9,2-0.7,1.9
				c1.1,0.6,3.8,0.2,5,0.2c1,0,4.2-0.4,4.4-0.3c-0.3-0.5-0.5-1-0.8-1.4c0,0.5-0.1,1-0.3,1.5c0.5-0.3,1-0.5,1.4-0.8
				c-2.2,0-4.6-1-6.7-1.4c-2.2-0.5-4.3-1-6.5-1.4c-0.1,1.1-0.3,2.2-0.4,3.3c5-0.2,10-0.4,14.9-0.5
				C453.4,129.5,453.4,126.2,451.3,126.3L451.3,126.3z"/>
		</g>
	</g>
	<g>
		<g>
			<path d="M450.6,132.8c-4.3-0.1-10.2-0.2-14.1,2c-2.7,1.5-0.9,4.1,1,5.3c3.1,1.8,7.4,3.3,11,2.7c3.1-0.5,3.2-4.8,2.4-7.2
				c-0.2-0.5-0.6-1.1-1.2-1.2c-2.5-0.4-3.5,2.1-4.1,4.1c-0.1,0.3-0.3,0.7-0.4,1c0.9,0.1,1.1-0.1,0.5-0.5c-0.1-0.5-1-1.3-1.4-1.8
				c-0.6-0.9-1.3-1.9-2.2-2.5c-1.9-1.4-4.6-0.1-4.5,2.4c0.2,3.7,6,4.1,8.6,4.6c2.8,0.5,5-1.4,3.9-4.3c-0.3-0.8-0.8-2.2-1.4-2.9
				c-0.9-1-1.4-0.7-2.5-0.5c-2,0.4-3.8,0.2-5.8,0.5c-1.5,0.2-2.8,0.9-3,2.6c-0.1,1.2,0.3,2.1,1.4,2.6c1,0.5,2.3,0.4,3.4,0.7
				c1.5,0.4,3,0.9,4.4,1.6c0.9,0.4,1.7,0.2,2.3-0.6c2.7-3.8-3.9-5.3-6.2-5.7c-2.1-0.3-3,2.9-0.9,3.2c0.5,0.1,3.9,1.3,4.2,0.8
				c0.8-0.2,1.5-0.4,2.3-0.6c-1.4-0.6-2.8-1.2-4.3-1.7c-1.4-0.4-3-0.4-4.4-0.9c0.4,0.4,0.8,0.8,1.2,1.2c-0.6,0.3-0.5,0.4,0.3,0.2
				c0.5-0.1,1-0.1,1.5-0.1c0.8,0,1.6,0.1,2.5,0c0.7-0.1,1.4-0.2,2.1-0.5c0.9-0.4,1.1,0-0.2-0.3c-0.4-0.4-0.8-0.8-1.2-1.2
				c0.3,0.8,0.9,1.5,1.2,2.3c0.3,0.8,0.3,0.5-0.6,0.2c-0.8-0.3-1.7-0.4-2.6-0.5c-0.3-0.1-3.5-0.7-3.5-0.4c0,0.1,0.8,0.9,1,1.1
				c0.7,0.9,1.3,1.9,2.1,2.7c1.1,1.2,2.6,2.2,4,1c0.7-0.5,1-1.4,1.3-2.2c0.2-0.5,0.4-1,0.6-1.5c0.1-0.3,0.2-0.5,0.3-0.8
				c0.4-0.6,0.2-0.6-0.7-0.2c-0.4-0.4-0.8-0.8-1.2-1.2c0.2,0.7,0.3,2.9,0,3.1c-0.1,0.1-2-0.2-2.4-0.3c-2.3-0.3-4-1.4-6.1-2.1
				c-0.8-0.7-1-0.7-0.6-0.1c0.1,0.6,0.5,0.7,1.2,0.1c1,0,2-0.5,2.9-0.7c2.6-0.5,5.3-0.4,7.9-0.4
				C452.7,136.1,452.7,132.8,450.6,132.8L450.6,132.8z"/>
		</g>
	</g>
</g>
<g>
	
		<ellipse fill="#39B54A" stroke="#39B54A" stroke-width="3.324" stroke-miterlimit="10" cx="248.5" cy="300.5" rx="39.2" ry="37.9"/>
	<polygon fill="#39B54A" stroke="#000000" stroke-width="3.324" stroke-miterlimit="10" points="270.4,329.3 248.5,318.3 
		226.7,329.6 230.7,306.1 212.9,289.6 237.3,285.9 248,264.4 259.1,285.7 283.5,289 266,305.8 	"/>
</g>
</svg>
