<?xml version="1.0" encoding="utf-8"?>
<!-- Generator: Adobe Illustrator 18.1.0, SVG Export Plug-In . SVG Version: 6.00 Build 0)  -->
<!DOCTYPE svg PUBLIC "-//W3C//DTD SVG 1.1//EN" "http://www.w3.org/Graphics/SVG/1.1/DTD/svg11.dtd">
<svg version="1.1" id="Layer_1" xmlns="http://www.w3.org/2000/svg" xmlns:xlink="http://www.w3.org/1999/xlink" x="0px" y="0px"
	 viewBox="0 0 502.9 602.5" enable-background="new 0 0 502.9 602.5" xml:space="preserve">
<symbol  id="Blond_Hair_4" viewBox="-11.3 -7.7 22.7 15.4">
	<g>
		<path fill="#EC5A25" d="M-11.3,7c0,0,5.6,2.6,10.6-1.9c5-4.6,5.8-10.2,12-12.7C4.7-6.5,2.2,0.9-1,4C-6.1,8.9-10.8,7-11.3,7z"/>
	</g>
</symbol>
<path fill="#8DC63F" stroke="#000000" stroke-width="2.9423" stroke-miterlimit="10" d="M489.5,601h-476c-6.6,0-12-5.4-12-12V13.5
	c0-6.6,5.4-12,12-12h476c6.6,0,12,5.4,12,12V589C501.5,595.6,496.1,601,489.5,601z"/>
<path fill="#EF4136" stroke="#F15A29" stroke-width="2.9423" stroke-miterlimit="10" d="M63.3,199.8c0-2.7,24.5-2.1,39.7-19.3
	c5.7-6.4,7.9-12.9,18.3-21.4c4.7-3.8,9.7-6.9,9.2-8.1c-1-2.1-16.6,5.6-19.3,2c-2.7-3.6,10.1-15.1,23.4-33.6
	c18.9-26.3,13.1-31.1,27.5-46.8c16.7-18.3,37.1-25.7,47.8-29.5c0,0,24.5-10,42.7-8.1c4.6,0.5,8.9,1.5,8.9,1.5s3,0.7,6,1.7
	c9.8,3.2,33.3,24.5,34.9,23.3c0.9-0.7-9.9-12.6-19-20c-9.1-7.4-21.3-10-20.8-11c2.9-6.1,48.1,19,51.1,21.4c3.2,2.6-10-25.3-9.3-25
	c1.2,0.7,17.1,21.4,24.3,34.1c6.8,12.1,6.4,11.1,14.1,22.9c7.1,10.7,7.4,25.4,8.4,34.5c0.8,8,0.6,15.3,0.3,19
	c-0.4,5.5-1.1,9.6-1.4,11.4c-0.7,3.8-2,10.8-5.5,18.7c-2,4.7-4.4,8.8-5.6,10.9c0,0-0.7,1.1-1.4,2.2c-8,12.4-17.4,20.5-17.4,20.5
	c-3.7,3.1-13.5,13.2-27.2,16.8c-9.4,2.5-28.5,6-29,6.2c0,0,0.6-11,0.4-6c0,0.1,47.9-6.5,54.3-29.6c2.7-10-3.3-26.6,2.9-26.5
	c3.7,0.1,5.7,3.1,11.3,0.6c9-4.1,15.7-18.9,10.3-23.9c-3.1-2.9-9.9-1.8-14.2,1c-6.7,4.3-7.3,12.5-9.2,12.2
	c-2.3-0.4,1.9-13.5-5.1-24.4c-2.7-4.3-4.7-4.3-10.2-12.2c-3.3-4.8-5.1-7.3-6.1-11.2c-2.1-7.9,1.3-12.2-1-14.2
	c-3-2.6-9.7,3.9-20.3,7.1c-15.1,4.6-17.8-3.4-34.6,0c-11.8,2.4-9.2,6.1-31.5,14.2c-4,1.5-8.4,2.9-12.2,7.1c-6,6.6-6.1,15.3-6.1,16.3
	c0,8,4,13.7,3.1,14.2c-1.2,0.6-5.1-9.7-13.2-11.2c-3.9-0.7-8.8,0.6-11.2,4.1c-3,4.3-0.8,10,0,12.2c3.3,8.8,9.4,8,13.2,16.3
	c2.7,6,0,7.3,3.1,16.3c2.2,6.4,5.3,10.8,7.1,13.2c2.6,3.6,6.1,8.4,12.2,12.2c4.5,2.8,9.4,3.9,19.3,6.1c0,0,4.5-0.7,18,1.7
	c-0.5-3.4,0.7,8.4-0.8,11.5c-2.2,4.5-13.9,1.1-26.4,1c-8.1-0.1-5.6,1.3-45.8,11.2c0,0-16.3,4-31.9,5c0,0-0.1,0-0.1,0
	c-14.3,0.9-21.5,1.4-21.9,0c-0.7-2.3,19.7-14.1,18.3-11.2c-0.3,0.6-65.7-0.7-70.2-5.1c-5.4-5.4,42.8-28.6,35.6-28.5
	C98.5,203.9,63.3,209,63.3,199.8z"/>
<path fill="#F3D9CC" stroke="#F3D9CC" stroke-width="2.9423" stroke-miterlimit="10" d="M262.1,239.7c0,0,0.8-14.8,1.8-23.5
	c0,0,7.6,3.8,27.3-3.7c2.3-0.9,10.4-2.5,19.7-12.1c4.3-4.4,5.1-10.3,6-14.4c1.8-8.3-0.6-9-0.8-19.2c0,0-2-0.6,3.1-5
	c0.7-0.6,4.1-0.5,4.9-0.1c1.8,0.9,5.1,2,8.6,0.9c5.3-1.6,7.2-6.9,8.3-10c0.9-2.3,3.4-9.2,0-12.5c-2.5-2.4-7.1-1.9-10-0.8
	c-9,3.3-10.4,14.6-13.3,14.2c-2.4-0.4,2.9-5.9-0.2-19.1c-0.9-3.7-1.4-5.3-6.9-11.5c-4-4.5-7.8-10.4-11-15.2
	c-2.6-3.9-1.3-16.8-4.3-17.5c-5.9-1.3-7.5,5.3-19.2,9.2c-14.7,4.9-18.3-3.5-35,0c-8.5,1.8-5.2,3.5-31.7,15
	c-6.4,2.8-8.7,3.8-10.8,6.7c-7.8,10.5-0.7,26.5-1.8,28c-0.8,1.2-6-8.7-15.7-8.9c-3.3-0.1-8.3,1.1-10,4.2
	c-4.3,7.6,6.1,13.6,13.2,25.9c5.5,9.4,6,21.7,10.2,29.5c3.4,6.3,7.8,11.3,18.9,15.2c13.3,4.6,25.6,5.6,31,2.7c0,0,0,0,0,0
	c4.9,8.2,0.8,16.5,0.8,16.5c0,1-0.1,2.6-0.1,4.6c1.2,1,3.3,2.3,6.3,3.1c0.8,0.2,1.8,0.4,3,0.4C258.8,242.3,262.1,239.7,262.1,239.7z
	"/>
<path fill="#FFF200" stroke="#000000" stroke-width="2.9423" stroke-miterlimit="10" d="M237.2,235.2c-3.4-2.7-8.3-1.6-15.9,0
	c-3.6,0.8-8.5,1.8-14.4,5c-8.9,4.7-13.2,10-21.3,16.4c-11.4,8.9-20,19.2-31.3,27.8c-0.2,0.1-9.5,5-19.9,13.4c-2.9,2.4-6,5.1-6.9,9.4
	c-1.1,4.8,0.6,10.7,3.5,11.4c1.9,0.5,2.8-1.6,8.4-5c3.8-2.3,7-4.1,10.9-4c4,0.2,4.4,2.3,7.4,2.5c5.7,0.3,12.7-9.7,17-12.6
	c3.9-2.7,9.5-3.8,15.7-9.7c3.1-3,4.1-5.2,6-5c3,0.4,2.2,6.7,7.4,14.9c3.3,5.3,3.8,5.9,5.4,10.5c1.4,4,2.2,16.3,0,24.3
	c0,0-1.7,0.7-2.2,8.4l-1.3,5c0.7,1.8,6.7-0.3,15.9,0c9.3,0.3,10.4,2.1,14.9,1c5-1.3,5.4-3.4,11.3-5.6c4.9-1.8,11.1-1.5,12.8-1.1
	c5,1.3,5.7,2.8,11.4,4.7c1.7,0.5,0.7-0.1,5.3,0.5c7.6,1.1,12.3,1.1,16.9,0.5c4.1-0.6,4.7-1.2,5-1.5c2.2-2.7-1.9-7.1-4-15.9
	c-0.6-2.8-2.3-10.3,0-18.4c1.5-5,2.9-4.6,6.5-12.4c4.7-10.2,3.6-13.6,6.5-14.9c3.4-1.5,9.6,3.3,21.8,12.9
	c9.9,7.7,12.5,10.9,18.4,11.4c3.4,0.3,5.6-0.4,9.9,1c2.1,0.7,6.4,2.1,9.4,6c2.2,2.8,2.2,4.9,3.5,5c1.9,0.1,3.9-4.7,4.5-8.4
	c0.2-1.1,0.6-4.3-0.5-7.9c-1.8-5.8-6.6-8.9-10.9-11.9c0,0-1.6-1.1-22.3-16.4c-8.7-6.4-7.2-6-17.9-13.9c-11.1-8.3-12.1-8.3-16.4-12.4
	c-6.4-6.2-6.7-8.6-11.9-11.4c-3.1-1.7-6.9-2.4-14.4-4c-9-1.8-10.5-1.2-11.4-0.5c-3.2,2.4-0.6,6.7-4,10.9c-3.4,4.2-9.6,4.4-11.9,4.5
	c-2.4,0.1-7.3,0.2-10.9-3C238.7,242.7,241,238.2,237.2,235.2z"/>
<polygon fill="#F7941E" stroke="#000000" stroke-width="2.9423" stroke-miterlimit="10" points="238.2,265 219.3,284.3 238.2,311.6 
	276.4,311.6 295.3,284.8 275.9,265 "/>
<polygon fill="#27AAE1" stroke="#000000" stroke-width="2.9423" stroke-miterlimit="10" points="233.2,284.3 245.1,301.7 
	267.7,301.7 281.4,284.3 274.9,275.9 240.7,275.9 "/>
<path fill="#F7941E" stroke="#000000" stroke-width="2.9423" stroke-miterlimit="10" d="M130.9,318.6c-0.8,3.3,3.1,9.1,10.4,16.4
	c15.7,15.7,17.8,13.6,24.3,21.8c6.3,8.1,7.5,14.1,16.4,20.4c3.8,2.7,6.5,3.7,8.9,3c4.8-1.4,6.5-8.6,7.4-12.9
	c1.1-4.9,2.5-10.9-1-15.4c-2.6-3.4-6.9-4.3-9.9-5c-6.7-1.4-8.4,1-11.9,0c-10.2-3-5.6-28.9-17.9-34.7c-5-2.4-10.6-2-13.4-1.2
	C141.6,311.7,132.2,313.9,130.9,318.6z"/>
<path fill="#F7941E" stroke="#000000" stroke-width="2.9423" stroke-miterlimit="10" d="M349.7,310.1c-12,0.9-7.4,29.3-19.7,35.2
	c-6.2,3-10.6-1.5-17.4,3c-6.7,4.4-7.8,12.5-7.9,13.4c-0.9,7.3,2.3,16.6,8.4,18.4c3.8,1.1,7.6-1.2,10.4-3c7.8-4.9,8.6-9.9,14.9-17.9
	c2.8-3.5,2.1-1.9,23.3-21.3c6.7-6.2,9.7-9,9.4-12.9c-0.4-5.6-5.8-11.6-7.7-12.6C361.3,311.2,355.1,309.8,349.7,310.1z"/>
<path fill="#F7941E" stroke="#000000" stroke-width="2.9423" stroke-miterlimit="10" d="M203.9,349.9c-1,3.6-2,7.3-3,10.9h32.3
	l3.5-11.9L203.9,349.9z"/>
<polygon fill="#F7941E" stroke="#000000" stroke-width="2.9423" stroke-miterlimit="10" points="272.9,349.5 272.9,362.8 
	302.2,360.8 298.7,348.9 "/>
<path fill="#ED1C24" stroke="#000000" stroke-width="2.9423" stroke-miterlimit="10" d="M237.7,350.8c-0.4,0.8-3.8,7-1,12.9
	c3.6,7.7,14.3,7.9,16.4,7.9c2.4,0,14-0.1,18.4-8.9c0.2-0.3,3.4-7.2,0-13.4c-4.8-8.7-17.9-7.1-19.4-6.9
	C249.7,342.7,241.6,343.8,237.7,350.8z"/>
<path fill="#FFFFFF" stroke="#000000" stroke-width="2.9423" stroke-miterlimit="10" d="M245.6,352.8c-1.9,2.8-1.5,6.9,0.5,9.4
	c3.3,4.1,10.3,3.2,13.9,0c2-1.8,4.3-5.4,3-8.4c-1.3-3-5.2-3.7-6.9-4C254.5,349.6,248.4,348.6,245.6,352.8z"/>
<path fill="#FFF200" stroke="#000000" stroke-width="2.9423" stroke-miterlimit="10" d="M200.9,362.8c0,0-3,8.4-5.7,17.9
	c-0.5,1.6-2.3,8.7-3.5,12.9c-7.3,25.5-5.5,51.2-8.2,53.7c-3.7,3.4-4.2,6-5.2,10.8c-1.2,5.9-1.3,9.1-1.5,14.4c-0.1,2.7-1.4,4.7-1,6.4
	c0.5,2.5,4.6,3.7,7.4,4.5c1.6,0.4,8.3,1.4,13.5,1.1c5.7-0.3,12.4-3,12.4-3v-2c0,0,0.6-6.7,1.8-10c3.5-9.9,8.1-16.5,14.5-23.9
	c19.9-23,21.2-35.2,25.6-36.8c0,0,8.2,12.2,30.5,39.3c6.8,8.2,12.2,13.7,12.4,22.3c0.1,5-1.5,9.9,1.5,12.9c0.7,0.7,1.9,1.6,9.4,2
	c13.6,0.8,17.6-1.7,18.9-2.5c1.3-0.9,3.8-2.6,4-5c0.1-2.3,0.5-4.1,0-6.9c-1.1-6.8-0.7-8.7-4.2-14.8c-1.6-2.7-2.7-6.3-4.2-9.5
	c-3.2-6.9,0.3-26.3-3.8-44.8c-2.2-10.2-0.4-18.4-3.7-21.6c-5.7-5.6-9.7-17.7-9.7-17.7s-26.5-1.1-29.2,0.8c-7.3,5.2-6.3,8.1-19.9,8.1
	c-11.8,0-16.4-7.9-19.6-8.9C223,359.9,200.9,362.8,200.9,362.8z"/>
<path fill="#F7941E" stroke="#000000" stroke-width="2.9423" stroke-miterlimit="10" d="M172.1,489.8c0.1-4.7-0.2-8.8,2-9.9
	c1.2-0.6,2.4,0,5.5,1c3.6,1.1,7.3,2.4,10.9,2.5c6,0.2,17-1.1,17.9,0c3.3,3.8-3.6,14.9-8.4,22.8c-7.1,11.6-9.4,11.6-10.4,17.4
	c-1,5.2,0.6,6.2,0,17.9c-0.5,8.4-1.5,10.8-2,11.9c-0.9,2-2.4,4.3-9.9,10.4c-7.6,6.2-11.5,9.3-14.9,10.4c-1,0.3-12.3,3.7-20.4-2.5
	c-1.3-1-3.7-2.9-4.5-6c-0.3-1.2-0.9-4.9,5.5-12.9c6.5-8.1,10.6-8.7,18.9-17.9c3.2-3.6,4.8-5.4,6-7.9c2.6-5.8,0.7-8.5,1.5-19.9
	C170.3,497.1,171.9,498.7,172.1,489.8z"/>
<path fill="#F7941E" stroke="#000000" stroke-width="2.9423" stroke-miterlimit="10" d="M300.2,497.8c-2.6-4.9-7-13.4-4.5-15.9
	c1.3-1.2,3.2,0,9.4,1c6.7,1.1,14,2.2,18.9-1.5c3.1-2.4,3.1-5.1,4.5-5c3.8,0.3,5.2,21,5.5,25.3c1.2,18-1.1,19.1,1.5,25.3
	c1.9,4.5,3.4,4.7,18.9,20.4c11.1,11.3,13.6,14.6,12.9,18.4c-1,5.4-8.2,8.2-9.9,8.9c-8.5,3.3-16.5-0.3-17.9-1
	c-4.7-2.2-4.1-3.9-13.9-12.4c-7.2-6.2-7.8-5.6-8.9-7.9c-2.2-4.6-0.2-7.8-0.5-19.9c-0.1-3.9-0.1-5.8-0.5-7.9
	C313.9,515,307.7,512,300.2,497.8z"/>
<path fill="#00AEEF" stroke="#000000" stroke-width="2.9423" stroke-miterlimit="10" d="M300.9,241.6c0,0,25.9,5.2,45.5,19.4
	c6.4,4.6,20.3,14.9,32.3,32.8c11.3,16.9,9.7,23.9,23.8,42.2c10.9,14.1,18.1,18,20.8,19.4c11.1,5.5,23.2,6.1,29.3,6
	c12.8-0.2,17.2-3.8,19.9-1c4.6,5-2.6,23.1-14.9,34.3c-6.2,5.7-15.2,10.1-33.3,18.9c-9.5,4.6-8.6,3.8-11.4,5.5
	c-16.7,10.2-14.7,21.1-27.3,29.8c-10.9,7.5-12.3,9.1-34.7,8.9c-13.1-0.1-21.7,8-24.5,5.2c-2.3-2.3,0.8,3.3-2-4.1
	c-1.9-5.2-3.8-8.4-6.1-13.5c-2.1-4.5,3.6-20.9-1.7-42.7c-2.4-9.7-2.9-20.7-2.9-20.7s5.3-1.6,10.9-4.1c7.4-3.5,9.4-10,13.9-17.4
	c11.5-18.7,22.7-15.3,33.3-34.3c3.6-6.5,6.7-12.1,5.5-18.9c-1.1-6.1-5.2-10-21.8-22.8c-11.4-8.8-16.4-13.6-23.8-17.9
	C316.3,257.8,299.7,242.9,300.9,241.6z"/>
<g>
	<path fill="#27AAE1" stroke="#000000" stroke-width="2.9423" stroke-miterlimit="10" d="M307.2,285.8c5.3-3.7,9.3,2.2,22.8,11.9
		c10,7.2,17.6,9.1,17.4,12.4c-0.1,2.3-2.6,1.6-4.3,6.2c-3.3,9.1-3,21.2-11,27.8c-5.5,4.5-13.1-1.1-20.4,4.2
		c-6.5,4.8-7.3,12.8-9.4,12.4c-1.9-0.3-2.1-6.6-2.5-11.9c-0.6-8-3.6-13.6-4.5-18.4c-1.4-8.1-0.9-14.6-0.3-17.3
		c0.5-2.3,4.2-6.6,6.7-13.5C303.8,293.9,305,287.3,307.2,285.8z"/>
</g>
<path fill="#00AEEF" stroke="#000000" stroke-width="2.9423" stroke-miterlimit="10" d="M290.8,463.5c-1.2,1.3-24.2-8.2-38.9-7.4
	c-22.2,1.2-37.6,12-39.5,9.4c-2.2-2.8,8.2-9.5,20-26.9c5.5-8.1,16.3-29.7,18.7-29.7c2.2,0,12,16.2,22.1,28.5
	C283.4,449.8,291.8,462.5,290.8,463.5z"/>
<path fill="#00AEEF" stroke="#000000" stroke-width="2.9423" stroke-miterlimit="10" d="M177.1,454.6c-5.7,6.2-13-8.3-27.3-13.4
	c-14.3-5.1-17.6,2.7-29.8-1.5c-17.4-6-12.9-22.8-33.3-34.7c-3.5-2-13.9-5.3-34.7-11.9c-17.3-5.5-19.8-5.7-20.8-8.4
	c-3.9-9.8,22.9-21,49.6-55.6c15.4-19.9,13.7-25.5,29.3-40.7c10.1-9.8,19.1-15.7,37.2-27.3c14.5-9.3,24.8-14.6,37.2-18.4
	c7.2-2.2,21.8-3,21.8-3s-6.7,6.4-20.8,16.9c-20.4,15.2-16.9,15.4-32.8,26.8c-17.6,12.6-26.3,15.5-27.3,24.3c-0.5,4.5,1.3,8.1,4,13.4
	c4.5,8.8,8.9,10.8,21.8,23.3c10.5,10.3,15.8,15.4,18.9,19.9c4,5.9,6.3,10.9,12.4,13.9c6.2,3.1,12.5-1,11.9,3
	c-0.9,5.5-7.6,18.4-8.2,44.2c-0.1,6.1-0.5,12.6-1.9,20.1C183.6,449.6,180.5,450.9,177.1,454.6z"/>
<g>
	<path fill="#00AEEF" stroke="#000000" stroke-width="2.9423" stroke-miterlimit="10" d="M307.2,285.8c5.3-3.7,9.3,2.2,22.8,11.9
		c10,7.2,17.6,9.1,17.4,12.4c-0.1,2.3-2.6,1.6-4.3,6.2c-3.3,9.1-3,21.2-11,27.8c-5.5,4.5-13.1-1.1-20.4,4.2
		c-6.5,4.8-7.3,12.8-9.4,12.4c-1.9-0.3-2.1-6.6-2.5-11.9c-0.6-8-3.6-13.6-4.5-18.4c-1.4-8.1-0.9-14.6-0.3-17.3
		c0.5-2.3,4.2-6.6,6.7-13.5C303.8,293.9,305,287.3,307.2,285.8z"/>
</g>
<g>
	<path fill="#00AEEF" stroke="#000000" stroke-width="2.9423" stroke-miterlimit="10" d="M200.1,285.8c-5.2-3.8-9.4,2-23.1,11.4
		c-10.2,6.9-17.8,8.7-17.7,12c0.1,2.3,0.1,2.3,2.9,6.6c5.2,8.2,2.9,22.7,10.8,29.5c5.4,4.6,13.7-2,20.9,3.5c6.4,4.9,7.4,12.3,9.5,12
		c1.9-0.3,2.2-6.5,2.8-11.9c0.8-8,3.9-13.5,4.9-18.3c1.6-8,1.2-14.6,0.7-17.3c-0.5-2.3-4.1-6.7-6.4-13.6
		C203.2,294,202.2,287.4,200.1,285.8z"/>
</g>
<path fill="#F7941E" stroke="#000000" stroke-width="2.9423" stroke-miterlimit="10" d="M238.5,234.7c0.1-0.2,0,0.8,2.4-0.4
	c2-1,1.7-0.8,1.7-0.8s-0.1,3.1,0.8,5.6c1.3,3.5,6,4.9,7.7,5.2c1.8,0.2,8.7,0.3,10.8-2.7c1.7-2.4,1.6-8,1.6-8h6.2c0,0-1.4,8.7-4,11.6
	c-3.2,3.7-7,4.1-9.7,4.4c-2.6,0.3-8.4,0.9-13.1-2.9C238.9,243.3,237,236.4,238.5,234.7z"/>
<path fill="none" stroke="#A97C50" stroke-width="2.9423" stroke-miterlimit="10" d="M326.4,154.2c-0.5-0.7,1.2-3.2,3.5-4.3
	c2.6-1.3,5.9-0.8,6,0C336.2,151.4,327.3,155.5,326.4,154.2z"/>
<path fill="none" stroke="#A97C50" stroke-width="2.9423" stroke-miterlimit="10" d="M191.1,156c0.4-0.7-2.8-3.5-6.4-4.5
	c-3-0.9-6.8-0.8-7,0C177.5,152.9,190.5,157.3,191.1,156z"/>
<g>
	<path fill="#FFFFFF" stroke="#000000" stroke-width="2.9423" stroke-miterlimit="10" d="M263.8,159c2.8,1.6,5.3-2.7,12.7-2.7
		c6.9,0,9.6,3.7,11.8,2.1c2.7-2.1,0.2-9.5-2.7-18.2c-2.4-6.9-4.3-9.9-7.3-11.8c-1.2-0.8-3.5-2.3-6.1-1.8c-1.2,0.2-4,1.3-7,9.7
		C264.8,137.7,258.4,155.9,263.8,159z"/>
	<path fill="#006838" stroke="#000000" stroke-width="2.9423" stroke-miterlimit="10" d="M267.8,154.2c-4-5.3-1.6-11.6-1.2-12.7
		c0.2-0.4,3.4-8.4,9.1-8.2c5.3,0.2,8.1,7.1,8.5,8.2c2.1,5.1-1.4,15.7-8.3,15.1C271.1,156.2,270.9,158.2,267.8,154.2z"/>
	<path fill="#2BB673" stroke="#000000" stroke-width="2.9423" stroke-miterlimit="10" d="M276,156.2c-3.2-0.3-4.3-0.7-4.5-4.4
		c-0.1-1.7,0.9-6.2,4-6.2c3.1,0,4.2,1.1,4.4,5.2C280.1,153.7,279.2,156.5,276,156.2z"/>
</g>
<g>
	<path fill="#FFFFFF" stroke="#000000" stroke-width="2.9423" stroke-miterlimit="10" d="M210.9,159c2.8,1.6,5.3-2.7,12.7-2.7
		c6.9,0,9.6,3.7,11.8,2.1c2.7-2.1,0.2-9.5-2.7-18.2c-2.4-6.9-4.3-9.9-7.3-11.8c-1.2-0.8-3.5-2.3-6.1-1.8c-1.2,0.2-4,1.3-7,9.7
		C211.9,137.7,205.6,155.9,210.9,159z"/>
	<path fill="#006838" stroke="#000000" stroke-width="2.9423" stroke-miterlimit="10" d="M215,154.2c-4-5.3-1.6-11.6-1.2-12.7
		c0.2-0.4,3.4-8.4,9.1-8.2c5.3,0.2,8.1,7.1,8.5,8.2c2.1,5.1-1.4,15.7-8.3,15.1C218.3,156.2,218,158.2,215,154.2z"/>
	<path fill="#2BB673" stroke="#000000" stroke-width="2.9423" stroke-miterlimit="10" d="M223.2,156.2c-3.2-0.3-4.3-0.7-4.5-4.4
		c-0.1-1.7,0.9-6.2,4-6.2c3.1,0,4.2,1.1,4.4,5.2C227.3,153.7,226.3,156.5,223.2,156.2z"/>
</g>
<path fill="none" stroke="#EF4136" stroke-width="2.9423" stroke-miterlimit="10" d="M263.9,114.7c4.6-1.5,13.9,0,20.8,8"/>
<path fill="none" stroke="#EF4136" stroke-width="2.9423" stroke-miterlimit="10" d="M210.9,122.7c0-4.4,9.4-8,21-8"/>
<line fill="none" stroke="#000000" stroke-width="2.9423" stroke-miterlimit="10" x1="275.1" y1="121.7" x2="275.1" y2="121.7"/>
<g>
	<path fill="none" stroke="#A97C50" stroke-width="2.9423" stroke-miterlimit="10" d="M247.2,173.7c-0.5-0.3-4-2.5-7.9-1.2
		c-3.4,1.1-6.7,4.7-6,8.6c0.5,2.9,3,4.9,5.3,5.6c3,0.9,6.3,0,8.6-2.3"/>
</g>
<path fill="none" stroke="#BE1E2D" stroke-width="2.9423" stroke-miterlimit="10" d="M207.1,191.6c1.3-2,5-4,5-4s3.2,4.2,5.4,7.1
	c7.3,9.5,18,12.2,21.7,12.9c5.8,1.2,10.4,0.7,14.8,0.2c3.4-0.4,8.8-0.4,14.8-3.5c3.2-1.6,6.5-3.3,11.3-6.7c5.2-3.6,5.9-5,5.9-5
	c3.5-3.4,4.5-4.2,4.5-4.2s1.8,2.1,2.4,3.6"/>
<use xlink:href="#Blond_Hair_4"  width="22.7" height="15.4" x="-11.3" y="-7.7" transform="matrix(2.0515 0 0 -3.5047 320.9828 108.2028)" overflow="visible"/>
<use xlink:href="#Blond_Hair_4"  width="22.7" height="15.4" x="-11.3" y="-7.7" transform="matrix(2.0515 0 0 -3.5047 327.9913 94.6843)" overflow="visible"/>
<use xlink:href="#Blond_Hair_4"  width="22.7" height="15.4" id="XMLID_1_" x="-11.3" y="-7.7" transform="matrix(-6.7566 -0.6483 0.3048 -3.1764 222.0883 97.5659)" overflow="visible"/>
<use xlink:href="#Blond_Hair_4"  width="22.7" height="15.4" x="-11.3" y="-7.7" transform="matrix(-5.5114 -1.5901 0.8823 -3.0581 230.2631 75.4496)" overflow="visible"/>
<use xlink:href="#Blond_Hair_4"  width="22.7" height="15.4" x="-11.3" y="-7.7" transform="matrix(-4.0922 -2.1516 1.482 -2.8186 242.8925 59.1693)" overflow="visible"/>
<use xlink:href="#Blond_Hair_4"  width="22.7" height="15.4" x="-11.3" y="-7.7" transform="matrix(-3.3155 0.3885 -0.1988 -1.6969 156.4346 142.4282)" overflow="visible"/>
<use xlink:href="#Blond_Hair_4"  width="22.7" height="15.4" x="-11.3" y="-7.7" transform="matrix(-4.9198 -0.1383 5.263338e-02 -1.8726 127.5844 187.024)" overflow="visible"/>
<use xlink:href="#Blond_Hair_4"  width="22.7" height="15.4" x="-11.3" y="-7.7" transform="matrix(-5.2061 -0.1463 7.436225e-02 -2.6457 130.5872 214.7565)" overflow="visible"/>
<use xlink:href="#Blond_Hair_4"  width="22.7" height="15.4" x="-11.3" y="-7.7" transform="matrix(-3.4964 -9.827477e-02 6.578719e-02 -2.3406 165.0599 229.5249)" overflow="visible"/>
</svg>
