<?xml version="1.0" encoding="utf-8"?>
<!-- Generator: Adobe Illustrator 18.1.0, SVG Export Plug-In . SVG Version: 6.00 Build 0)  -->
<!DOCTYPE svg PUBLIC "-//W3C//DTD SVG 1.1//EN" "http://www.w3.org/Graphics/SVG/1.1/DTD/svg11.dtd">
<svg version="1.1" id="Layer_1" xmlns="http://www.w3.org/2000/svg" xmlns:xlink="http://www.w3.org/1999/xlink" x="0px" y="0px"
	 viewBox="0 0 600 600" enable-background="new 0 0 600 600" xml:space="preserve">
<symbol  id="Blond_Hair_4" viewBox="-11.3 -7.7 22.6 15.3">
	<g>
		<path fill="#EC5A25" d="M-11.3,6.9c0,0,5.6,2.6,10.6-1.9c5-4.6,5.8-10.2,12-12.7C4.7-6.6,2.2,0.8-1,3.9
			C-6.1,8.8-10.8,6.9-11.3,6.9z"/>
	</g>
</symbol>
<g>
	<path fill="#EF4136" stroke="#F15A29" stroke-width="3.3374" stroke-miterlimit="10" d="M93.6,188.9c0-3,26.7-2.3,43.3-21.1
		c6.2-6.9,8.6-14.2,20-23.3c5.1-4.1,10.7-7.5,10-8.9c-1.1-2.3-18.2,6.2-21.1,2.2c-2.9-3.9,11.1-16.5,25.5-36.7
		c20.6-28.6,14.4-33.9,30.1-51.1c18.3-19.9,40.5-27.9,52.2-32.3c0,0,26.8-11,46.6-8.9c4.9,0.5,9.8,1.6,9.8,1.6s3.3,0.8,6.5,1.8
		c10.7,3.6,36.4,26.8,38.1,25.3c1-0.8-10.9-13.8-20.7-21.9S310.7,5,311.2,3.9c3.2-6.5,52.6,20.7,55.9,23.3
		c3.5,2.8-11-27.6-10.2-27.3c1.3,0.8,18.7,23.3,26.5,37.3c7.3,13.2,6.9,12.2,15.5,24.9c7.7,11.8,8.1,27.6,9.1,37.8
		c0.9,8.8,0.7,16.8,0.4,20.7c-0.4,6-1.3,10.6-1.5,12.5c-0.8,4.1-2.2,11.8-6,20.4c-2.2,5.1-4.7,9.5-6.2,11.9c0,0-0.8,1.3-1.5,2.4
		c-8.7,13.6-19,22.3-19,22.3c-4,3.5-14.7,14.4-29.8,18.4c-10.3,2.7-31.1,6.5-31.7,6.7c0,0,0.7-12,0.5-6.5c0,0.1,52.4-7,59.2-32.4
		c3-11-3.7-29.1,3.1-29c3.9,0.1,6.2,3.4,12.3,0.6c9.9-4.5,17.1-20.6,11.3-26.1c-3.4-3.2-10.9-1.9-15.6,1.1c-7.3,4.7-8,13.7-10,13.4
		c-2.5-0.4,2-14.7-5.5-26.6c-3-4.7-5.1-4.7-11.2-13.4c-3.7-5.2-5.5-8-6.6-12.2c-2.3-8.7,1.3-13.4-1.1-15.6
		c-3.3-2.8-10.6,4.1-22.2,7.7c-16.5,5-19.5-3.7-37.8,0c-13,2.6-10,6.6-34.5,15.6c-4.4,1.6-9.1,3.2-13.4,7.7
		c-6.5,7.2-6.6,16.7-6.6,17.8c0,8.7,4.3,15,3.3,15.6c-1.3,0.7-5.6-10.7-14.4-12.2c-4.2-0.8-9.5,0.7-12.2,4.4c-3.2,4.6-0.9,11,0,13.4
		c3.6,9.5,10.3,8.7,14.4,17.8c3,6.5,0,7.9,3.3,17.8c2.4,6.9,5.8,11.8,7.7,14.4c2.9,3.9,6.6,9.1,13.4,13.4c4.9,3.1,10.3,4.2,21.1,6.6
		c0,0,4.9-0.8,19.7,1.8c-0.6-3.7,0.8,9.1-0.9,12.6c-2.4,4.9-15.2,1.3-28.8,1.1c-8.8-0.1-6.1,1.4-50,12.2c0,0-17.8,4.3-34.9,5.5h-0.1
		c-15.7,1-23.5,1.5-24,0.1c-0.8-2.5,21.5-15.4,20-12.2c-0.3,0.7-71.8-0.7-76.7-5.5c-5.9-5.9,46.7-31.3,38.9-31.1
		C132,193.3,93.6,199,93.6,188.9z"/>
	<path fill="#F3D9CC" stroke="#F3D9CC" stroke-width="3.3374" stroke-miterlimit="10" d="M310.7,232.5c0,0,0.9-16.2,1.9-25.6
		c0,0,8.3,4.1,29.9-4c2.5-1,11.4-2.7,21.6-13.2c4.6-4.8,5.5-11.3,6.5-15.7c2-9-0.7-9.9-0.9-20.9c0,0-2.2-0.6,3.4-5.4
		c0.8-0.6,4.4-0.5,5.3-0.1c2,1,5.6,2.2,9.4,1c5.7-1.7,7.8-7.5,9.1-11c1-2.5,3.7-10.1,0-13.7c-2.7-2.7-7.7-2-11-0.9
		c-9.8,3.6-11.4,16-14.5,15.5c-2.7-0.4,3.2-6.5-0.2-20.9c-1-4-1.5-5.8-7.5-12.5c-4.3-4.9-8.5-11.4-12-16.7
		c-2.8-4.2-1.4-18.4-4.7-19.2c-6.5-1.4-8.1,5.8-20.9,10c-16.1,5.3-19.9-3.9-38.2,0c-9.2,1.9-5.7,3.8-34.6,16.4
		c-7,3.1-9.4,4.1-11.8,7.2c-8.5,11.6-0.8,29-2,30.6c-0.9,1.3-6.5-9.4-17.1-9.7c-3.6-0.1-9,1.3-11,4.5c-4.7,8.3,6.6,14.9,14.4,28.2
		c6,10.3,6.5,23.7,11.2,32.3c3.7,6.8,8.5,12.4,20.6,16.6c14.5,5,27.9,6.1,33.9,3l0,0c5.3,8.9,0.9,18,0.9,18c0,1.1-0.1,2.8-0.1,5
		c1.3,1.1,3.7,2.4,6.8,3.4c0.9,0.3,1.9,0.4,3.2,0.4C307.1,235.3,310.7,232.5,310.7,232.5z"/>
	<path fill="#FFF200" stroke="#000000" stroke-width="3.3374" stroke-miterlimit="10" d="M283.5,227.5c-3.7-2.9-9.1-1.7-17.3,0
		c-3.9,0.9-9.2,2-15.7,5.4c-9.7,5.1-14.4,11-23.3,17.9c-12.5,9.7-21.9,20.9-34.2,30.4c-0.2,0.1-10.5,5.5-21.7,14.6
		c-3.2,2.6-6.5,5.5-7.5,10.3c-1.2,5.2,0.7,11.7,3.8,12.5c2,0.6,3.1-1.8,9.1-5.4c4.1-2.4,7.6-4.5,11.9-4.3c4.3,0.2,4.7,2.5,8.1,2.7
		c6.3,0.3,14-10.6,18.6-13.8c4.2-2.9,10.4-4,17.2-10.7c3.4-3.2,4.5-5.7,6.5-5.4c3.3,0.5,2.4,7.2,8.1,16.3c3.7,5.7,4.1,6.4,5.9,11.5
		c1.5,4.4,2.4,17.7,0,26.5c0,0-1.8,0.8-2.3,9.1l-1.4,5.5c0.8,2,7.3-0.4,17.3,0c10.2,0.4,11.4,2.3,16.3,1.1c5.5-1.3,5.9-3.7,12.3-6.1
		c5.3-2,12.2-1.6,14-1.2c5.4,1.4,6.2,3,12.5,5.1c1.8,0.6,0.8-0.1,5.7,0.6c8.3,1.2,13.5,1.3,18.4,0.6c4.5-0.6,5.1-1.3,5.4-1.6
		c2.3-3-2.1-7.8-4.3-17.3c-0.7-3-2.5-11.4,0-20c1.5-5.4,3.1-5,7-13.6c5.1-11.2,3.9-14.9,7-16.3c3.7-1.6,10.5,3.6,23.8,14.2
		c10.8,8.4,13.7,11.9,20,12.5c3.7,0.4,6.1-0.5,10.9,1.1c2.2,0.8,6.9,2.2,10.3,6.5c2.4,3.1,2.4,5.3,3.8,5.4c2.1,0.1,4.2-5.1,4.8-9.1
		c0.2-1.3,0.7-4.7-0.6-8.7c-2-6.3-7.1-9.8-11.9-13c0,0-1.7-1.2-24.4-17.9c-9.5-7-7.8-6.5-19.6-15.2c-12.2-9-13.3-9-17.9-13.6
		c-6.9-6.7-7.2-9.3-13-12.5c-3.4-1.8-7.5-2.6-15.7-4.3c-9.8-2-11.6-1.3-12.5-0.6c-3.5,2.6-0.7,7.3-4.3,11.9
		c-3.7,4.6-10.6,4.8-13,4.8c-2.6,0.1-7.9,0.2-11.9-3.3C285.1,235.8,287.6,230.8,283.5,227.5z"/>
	<polygon fill="#F7941E" stroke="#000000" stroke-width="3.3374" stroke-miterlimit="10" points="284.5,260.1 263.9,281.3 
		284.5,311.1 326.2,311.1 346.9,281.7 325.7,260.1 	"/>
	<polygon fill="#27AAE1" stroke="#000000" stroke-width="3.3374" stroke-miterlimit="10" points="279.1,281.3 292.2,300.2 
		316.8,300.2 331.7,281.3 324.6,272.1 287.2,272.1 	"/>
	<path fill="#F7941E" stroke="#000000" stroke-width="3.3374" stroke-miterlimit="10" d="M167.4,318.6c-1,3.6,3.4,10,11.5,17.9
		c17.2,17.1,19.5,14.8,26.5,23.8c6.8,8.8,8.2,15.4,17.9,22.2c4.1,3,7,3.9,9.8,3.3c5.2-1.4,7-9.3,8.1-14.2c1.3-5.3,2.7-11.9-1.1-16.9
		c-2.9-3.8-7.4-4.7-10.9-5.4c-7.3-1.5-9.1,1.2-13,0c-11.3-3.3-6.1-31.7-19.6-37.9c-5.5-2.6-11.6-2.1-14.6-1.3
		C179.1,311.1,168.7,313.5,167.4,318.6z"/>
	<path fill="#F7941E" stroke="#000000" stroke-width="3.3374" stroke-miterlimit="10" d="M406.4,309.4c-13.1,1-8.1,32.1-21.5,38.5
		c-6.7,3.3-11.7-1.6-19,3.3c-7.3,4.8-8.5,13.7-8.7,14.6c-1,7.9,2.5,18.2,9.1,20c4.1,1.2,8.2-1.3,11.5-3.3
		c8.5-5.3,9.3-10.9,16.3-19.6c3-3.8,2.3-2.1,25.4-23.3c7.3-6.7,10.7-9.9,10.3-14.2c-0.5-6.2-6.4-12.7-8.4-13.9
		C419,310.6,412.3,309,406.4,309.4z"/>
	<path fill="#F7941E" stroke="#000000" stroke-width="3.3374" stroke-miterlimit="10" d="M247.1,352.8c-1.1,3.9-2.1,7.9-3.3,11.9
		h35.3l3.9-13L247.1,352.8z"/>
	<polygon fill="#F7941E" stroke="#000000" stroke-width="3.3374" stroke-miterlimit="10" points="322.5,352.4 322.5,366.9 
		354.5,364.7 350.7,351.8 	"/>
	<path fill="#ED1C24" stroke="#000000" stroke-width="3.3374" stroke-miterlimit="10" d="M284,353.9c-0.5,0.9-4.1,7.6-1.1,14.2
		c3.9,8.4,15.7,8.6,17.9,8.7c2.6,0.1,15.3-0.1,20-9.8c0.2-0.4,3.8-7.8,0-14.6c-5.3-9.5-19.6-7.8-21.1-7.5
		C297.2,345,288.3,346.2,284,353.9z"/>
	<path fill="#FFFFFF" stroke="#000000" stroke-width="3.3374" stroke-miterlimit="10" d="M292.7,356.1c-2,3.1-1.6,7.5,0.6,10.3
		c3.6,4.4,11.3,3.5,15.2,0c2.2-1.9,4.6-5.9,3.3-9.1c-1.3-3.3-5.7-4-7.5-4.3C302.4,352.5,295.8,351.5,292.7,356.1z"/>
	<path fill="#FFF200" stroke="#000000" stroke-width="3.3374" stroke-miterlimit="10" d="M243.9,366.9c0,0-3.3,9.1-6.3,19.6
		c-0.5,1.7-2.5,9.5-3.8,14.2c-7.9,27.8-6,55.9-9,58.7c-4,3.7-4.5,6.5-5.6,11.8c-1.3,6.5-1.3,10-1.5,15.8c-0.1,3-1.4,5.1-1.2,6.9
		c0.6,2.7,5,4,8.1,4.8c1.7,0.5,9,1.5,14.7,1.3c6.2-0.4,13.6-3.2,13.6-3.2v-2.1c0,0,0.7-7.3,1.9-11c3.9-10.9,8.9-18,15.9-26.1
		c21.8-25.1,23.1-38.5,27.9-40.2c0,0,8.9,13.4,33.3,42.9c7.3,8.9,13.4,15,13.6,24.4c0.1,5.5-1.6,10.9,1.6,14.2
		c0.8,0.8,2,1.7,10.3,2.1c14.8,0.9,19.3-1.8,20.6-2.7c1.4-1,4.1-2.8,4.3-5.4c0.1-2.4,0.5-4.4,0-7.5c-1.3-7.4-0.8-9.4-4.6-16.2
		c-1.7-2.9-2.9-6.8-4.5-10.4c-3.5-7.4,0.3-28.7-4.1-48.9c-2.4-11.2-0.5-20.1-4-23.6c-6.3-6.1-10.6-19.3-10.6-19.3s-28.8-1.3-32,0.9
		c-8,5.7-6.8,8.9-21.8,8.9c-12.9,0-17.9-8.7-21.4-9.7C267.9,363.7,243.9,366.9,243.9,366.9z"/>
	<path fill="#F7941E" stroke="#000000" stroke-width="3.3374" stroke-miterlimit="10" d="M212.4,505.8c0.2-5.2-0.2-9.5,2.1-10.9
		c1.3-0.7,2.6,0,6,1.1c3.9,1.3,8,2.6,11.9,2.7c6.5,0.2,18.5-1.2,19.6,0c3.6,4.1-3.9,16.3-9.1,24.9c-7.7,12.7-10.3,12.7-11.5,19
		c-1.1,5.6,0.7,6.7,0,19.6c-0.5,9.1-1.5,11.8-2.1,13c-1.1,2.2-2.7,4.7-10.9,11.5c-8.3,6.7-12.5,10.2-16.3,11.5
		c-1.1,0.3-13.5,4-22.2-2.7c-1.4-1.2-4-3.1-4.8-6.5c-0.3-1.3-1-5.4,6-14.2c7-8.9,11.7-9.4,20.6-19.6c3.5-3.9,5.2-5.9,6.5-8.7
		c2.9-6.4,0.8-9.2,1.6-21.7C210.4,513.6,212.1,515.4,212.4,505.8z"/>
	<path fill="#F7941E" stroke="#000000" stroke-width="3.3374" stroke-miterlimit="10" d="M352.3,514.3c-2.8-5.3-7.6-14.6-4.8-17.3
		c1.3-1.3,3.5,0,10.3,1.1c7.3,1.2,15.3,2.4,20.6-1.6c3.4-2.6,3.4-5.5,4.8-5.4c4.1,0.3,5.6,22.9,6,27.6c1.3,19.6-1.3,20.8,1.6,27.6
		c2,4.9,3.8,5.1,20.6,22.2c12.1,12.3,14.9,16,14.2,20c-1.2,5.9-8.9,9-10.9,9.8c-9.2,3.6-18-0.4-19.6-1.1c-5.1-2.4-4.4-4.2-15.2-13.6
		c-7.8-6.7-8.5-6.1-9.8-8.7c-2.4-5-0.2-8.5-0.6-21.7c-0.1-4.1-0.2-6.3-0.6-8.7C367.2,533.1,360.4,529.9,352.3,514.3z"/>
	<path fill="#00AEEF" stroke="#000000" stroke-width="3.3374" stroke-miterlimit="10" d="M353,234.7c0,0,28.2,5.7,49.8,21.2
		c6.9,5,22.2,16.3,35.3,35.8c12.3,18.4,10.6,26.1,26,46c11.9,15.4,19.7,19.6,22.7,21.1c12.1,6,25.3,6.5,32,6.5
		c14-0.3,18.8-4.1,21.7-1.1c5,5.4-2.9,25.1-16.3,37.5c-6.7,6.2-16.7,11.1-36.3,20.6c-10.5,5-9.3,4-12.5,6
		c-18.2,11.2-16.1,23.1-29.9,32.6c-11.9,8.2-13.5,10-37.9,9.8c-14.4-0.1-23.7,8.7-26.7,5.7c-2.5-2.5,0.9,3.7-2.1-4.5
		c-2-5.7-4.1-9.1-6.6-14.7c-2.2-4.8,3.9-22.8-1.8-46.6c-2.6-10.7-3.2-22.5-3.2-22.5s5.8-1.7,11.9-4.5c8.1-3.8,10.3-11,15.2-19
		c12.6-20.4,24.8-16.7,36.3-37.5c3.9-7.1,7.3-13.3,6-20.6c-1.3-6.6-5.7-11-23.8-24.9c-12.5-9.5-17.9-14.9-26-19.6
		C369.9,252.3,351.8,236.1,353,234.7z"/>
	<g>
		<path fill="#27AAE1" stroke="#000000" stroke-width="3.3374" stroke-miterlimit="10" d="M359.9,282.9c5.8-4,10.2,2.4,24.9,13
			c11,7.8,19.2,9.9,19,13.6c-0.1,2.4-2.9,1.7-4.7,6.7c-3.7,10-3.3,23.1-12,30.3c-6,4.9-14.4-1.2-22.2,4.6c-7.1,5.2-7.9,14-10.3,13.6
			c-2-0.4-2.2-7.1-2.7-13c-0.7-8.7-3.9-14.8-4.8-20c-1.5-8.8-1-16-0.3-18.9c0.6-2.5,4.5-7.2,7.3-14.7
			C356.3,291.8,357.5,284.5,359.9,282.9z"/>
	</g>
	<path fill="#00AEEF" stroke="#000000" stroke-width="3.3374" stroke-miterlimit="10" d="M342,477c-1.3,1.4-26.4-9-42.5-8.1
		c-24.2,1.3-41,13.1-43.1,10.3c-2.3-3.1,8.9-10.4,21.9-29.4c6-8.9,17.8-32.5,20.4-32.5c2.3,0,13.1,17.7,24.1,31.1
		C334,461.9,343,475.8,342,477z"/>
	<path fill="#00AEEF" stroke="#000000" stroke-width="3.3374" stroke-miterlimit="10" d="M217.9,467.2c-6.3,6.7-14.3-9.1-29.9-14.6
		c-15.6-5.5-19.3,3-32.6-1.6c-19-6.5-14.2-24.8-36.3-37.9c-3.8-2.2-15.2-5.8-37.9-13c-18.9-6-21.6-6.3-22.7-9.1
		c-4.2-10.8,24.9-22.9,54.2-60.7c16.9-21.8,15-27.7,32-44.4c11.1-10.8,20.9-17.1,40.6-29.9c15.8-10.2,27.1-16,40.6-20
		c7.8-2.4,23.8-3.3,23.8-3.3s-7.3,6.9-22.7,18.4c-22.2,16.6-18.5,16.9-35.8,29.3c-19.2,13.9-28.6,17-29.9,26.5
		c-0.6,4.9,1.3,8.9,4.3,14.6c4.8,9.5,9.8,11.8,23.8,25.4c11.6,11.3,17.3,16.9,20.6,21.7c4.3,6.5,6.8,11.9,13.6,15.2s13.7-1.1,13,3.3
		c-1,6-8.3,20.1-9,48.4c-0.2,6.6-0.6,13.8-2.1,22C224.8,461.8,221.6,463.2,217.9,467.2z"/>
	<g>
		<path fill="#00AEEF" stroke="#000000" stroke-width="3.3374" stroke-miterlimit="10" d="M359.9,282.9c5.8-4,10.2,2.4,24.9,13
			c11,7.8,19.2,9.9,19,13.6c-0.1,2.4-2.9,1.7-4.7,6.7c-3.7,10-3.3,23.1-12,30.3c-6,4.9-14.4-1.2-22.2,4.6c-7.1,5.2-7.9,14-10.3,13.6
			c-2-0.4-2.2-7.1-2.7-13c-0.7-8.7-3.9-14.8-4.8-20c-1.5-8.8-1-16-0.3-18.9c0.6-2.5,4.5-7.2,7.3-14.7
			C356.3,291.8,357.5,284.5,359.9,282.9z"/>
	</g>
	<g>
		<path fill="#00AEEF" stroke="#000000" stroke-width="3.3374" stroke-miterlimit="10" d="M242.9,282.8c-5.7-4.1-10.3,2.2-25.2,12.4
			c-11.2,7.5-19.5,9.4-19.3,13.1c0.1,2.5,0.1,2.5,3.1,7.2c5.7,9,3.2,24.8,11.8,32.3c5.9,5,15-2.1,22.8,3.9c6.9,5.3,8,13.5,10.4,13.1
			c2-0.3,2.4-7.1,3-13c0.9-8.7,4.2-14.7,5.3-19.9c1.7-8.8,1.3-16,0.8-18.9c-0.5-2.5-4.4-7.3-6.9-14.9
			C246.3,291.9,245.2,284.5,242.9,282.8z"/>
	</g>
	<path fill="#F7941E" stroke="#000000" stroke-width="3.3374" stroke-miterlimit="10" d="M284.9,227c0.2-0.2,0,0.9,2.7-0.5
		c2.2-1.2,1.9-0.9,1.9-0.9s-0.1,3.4,1,6.1c1.3,3.8,6.5,5.4,8.4,5.6c1.9,0.3,9.4,0.4,11.8-3c1.9-2.7,1.7-8.8,1.7-8.8h6.7
		c0,0-1.5,9.4-4.3,12.7c-3.5,4-7.6,4.5-10.7,4.8c-2.8,0.3-9.1,1-14.3-3.1C285.3,236.5,283.3,228.9,284.9,227z"/>
	<path fill="none" stroke="#A97C50" stroke-width="3.3374" stroke-miterlimit="10" d="M380.9,139.2c-0.6-0.8,1.3-3.5,3.8-4.7
		c2.8-1.4,6.4-1,6.5,0C391.6,136,381.8,140.6,380.9,139.2z"/>
	<path fill="none" stroke="#A97C50" stroke-width="3.3374" stroke-miterlimit="10" d="M233.2,141.1c0.4-0.8-3-3.8-6.9-4.9
		c-3.3-1-7.4-0.8-7.6,0C218.4,137.8,232.3,142.5,233.2,141.1z"/>
	<g>
		<path fill="#FFFFFF" stroke="#000000" stroke-width="3.3374" stroke-miterlimit="10" d="M312.5,144.4c3,1.7,5.8-3,13.9-3
			c7.4,0,10.6,4,12.9,2.3c3-2.2,0.3-10.4-3-19.8c-2.6-7.5-4.7-10.8-7.9-12.9c-1.3-0.9-3.9-2.5-6.5-1.9c-1.3,0.3-4.3,1.3-7.6,10.6
			C313.6,121.2,306.6,140.9,312.5,144.4z"/>
		<path fill="#006838" stroke="#000000" stroke-width="3.3374" stroke-miterlimit="10" d="M316.9,139.1c-4.3-5.7-1.7-12.7-1.3-13.9
			c0.2-0.5,3.7-9.1,9.9-8.9c5.7,0.2,8.8,7.7,9.2,8.9c2.2,5.6-1.4,17.1-9.1,16.6C320.5,141.3,320.2,143.5,316.9,139.1z"/>
		<path fill="#2BB673" stroke="#000000" stroke-width="3.3374" stroke-miterlimit="10" d="M325.9,141.3c-3.5-0.3-4.7-0.8-4.9-4.8
			c-0.1-1.8,1-6.7,4.3-6.7s4.6,1.3,4.8,5.7C330.4,138.6,329.3,141.6,325.9,141.3z"/>
	</g>
	<g>
		<path fill="#FFFFFF" stroke="#000000" stroke-width="3.3374" stroke-miterlimit="10" d="M254.8,144.4c3,1.7,5.8-3,13.9-3
			c7.4,0,10.6,4,12.9,2.3c3-2.2,0.3-10.4-3-19.8c-2.6-7.5-4.7-10.8-7.9-12.9c-1.3-0.9-3.9-2.5-6.5-1.9c-1.3,0.3-4.3,1.3-7.6,10.6
			C255.9,121.2,248.9,140.9,254.8,144.4z"/>
		<path fill="#006838" stroke="#000000" stroke-width="3.3374" stroke-miterlimit="10" d="M259.2,139.1c-4.3-5.7-1.7-12.7-1.3-13.9
			c0.2-0.5,3.7-9.1,9.9-8.9c5.7,0.2,8.8,7.7,9.2,8.9c2.2,5.6-1.4,17.1-9.1,16.6C262.8,141.3,262.5,143.5,259.2,139.1z"/>
		<path fill="#2BB673" stroke="#000000" stroke-width="3.3374" stroke-miterlimit="10" d="M268.1,141.3c-3.5-0.3-4.7-0.8-4.9-4.8
			c-0.1-1.8,1-6.7,4.3-6.7c3.3,0,4.6,1.3,4.8,5.7C272.7,138.6,271.6,141.6,268.1,141.3z"/>
	</g>
	<path fill="none" stroke="#EF4136" stroke-width="3.3374" stroke-miterlimit="10" d="M312.7,96c5-1.6,15.2,0,22.7,8.7"/>
	<path fill="none" stroke="#EF4136" stroke-width="3.3374" stroke-miterlimit="10" d="M254.8,104.7c0-4.8,10.3-8.7,22.9-8.7"/>
	<line fill="none" stroke="#000000" stroke-width="3.3374" stroke-miterlimit="10" x1="324.9" y1="103.6" x2="324.9" y2="103.6"/>
	<g>
		<path fill="none" stroke="#A97C50" stroke-width="3.3374" stroke-miterlimit="10" d="M294.5,160.5c-0.6-0.4-4.3-2.7-8.6-1.3
			c-3.8,1.3-7.3,5.1-6.5,9.3c0.6,3.2,3.3,5.3,5.8,6.1c3.2,1,6.8,0,9.3-2.5"/>
	</g>
	<path fill="none" stroke="#BE1E2D" stroke-width="3.3374" stroke-miterlimit="10" d="M250.5,180c1.3-2.1,5.4-4.3,5.4-4.3
		s3.5,4.5,5.9,7.7c8,10.4,19.6,13.4,23.7,14.2c6.3,1.3,11.4,0.8,16.2,0.2c3.7-0.4,9.5-0.5,16.2-3.9c3.5-1.8,7-3.7,12.3-7.2
		c5.7-3.9,6.5-5.4,6.5-5.4c3.8-3.8,4.9-4.5,4.9-4.5s2,2.3,2.6,3.9"/>
	
		<use xlink:href="#Blond_Hair_4"  width="22.6" height="15.3" x="-11.3" y="-7.7" transform="matrix(2.2415 0 0 -3.8293 375.096 89.0724)" overflow="visible"/>
	
		<use xlink:href="#Blond_Hair_4"  width="22.6" height="15.3" x="-11.3" y="-7.7" transform="matrix(2.2415 0 0 -3.8293 382.751 74.307)" overflow="visible" enable-background="new    "/>
	
		<use xlink:href="#Blond_Hair_4"  width="22.6" height="15.3" id="XMLID_1_" x="-11.3" y="-7.7" transform="matrix(-7.3825 -0.7084 0.333 -3.4707 266.5821 77.4012)" overflow="visible" enable-background="new    "/>
	
		<use xlink:href="#Blond_Hair_4"  width="22.6" height="15.3" x="-11.3" y="-7.7" transform="matrix(-6.0219 -1.7374 0.964 -3.3414 275.5475 53.1869)" overflow="visible" enable-background="new    "/>
	
		<use xlink:href="#Blond_Hair_4"  width="22.6" height="15.3" x="-11.3" y="-7.7" transform="matrix(-4.4713 -2.3509 1.6192 -3.0797 289.3867 35.3613)" overflow="visible" enable-background="new    "/>
	
		<use xlink:href="#Blond_Hair_4"  width="22.6" height="15.3" x="-11.3" y="-7.7" transform="matrix(-3.6227 0.4245 -0.2173 -1.8541 195.0879 126.3775)" overflow="visible" enable-background="new    "/>
	
		<use xlink:href="#Blond_Hair_4"  width="22.6" height="15.3" x="-11.3" y="-7.7" transform="matrix(-5.3755 -0.151 5.750853e-02 -2.046 163.4755 175.0674)" overflow="visible" enable-background="new    "/>
	
		<use xlink:href="#Blond_Hair_4"  width="22.6" height="15.3" x="-11.3" y="-7.7" transform="matrix(-5.6884 -0.1598 8.125002e-02 -2.8907 166.7384 205.3996)" overflow="visible" enable-background="new    "/>
	
		<use xlink:href="#Blond_Hair_4"  width="22.6" height="15.3" x="-11.3" y="-7.7" transform="matrix(-3.8203 -0.1074 7.188071e-02 -2.5573 204.4847 221.5163)" overflow="visible" enable-background="new    "/>
	<g>
		<g>
			<g>
				<path fill="#FFDE11" d="M406.1,268.6c0.4-2.2,3.4-5,4.9-5.4c1.8-0.5,2.4,0.3,2.6,0.1c0.4-0.4,0.1-0.1,0.1-1.8
					c-0.1-2.5,3.6-5,6.7-5.9c4-1.1,10.1-0.4,11.8,3.4c1,2.2,0,4.5-0.2,5.1c-1.4,3.1-4.9,4.4-7.5,4.4c-3.3,0-4-1.9-6.8-1.8
					c-3.1,0.2-8.5,1.9-9.7,4.2c-0.4,0.9,0,1.8-0.3,1.9C407.1,273,405.6,270.7,406.1,268.6L406.1,268.6z"/>
				<path fill="none" stroke="#231F20" stroke-width="0.3581" stroke-miterlimit="10" d="M406.1,268.6c0.4-2.2,3.4-5,4.9-5.4
					c1.8-0.5,2.4,0.3,2.6,0.1c0.4-0.4,0.1-0.1,0.1-1.8c-0.1-2.5,3.6-5,6.7-5.9c4-1.1,10.1-0.4,11.8,3.4c1,2.2,0,4.5-0.2,5.1
					c-1.4,3.1-4.9,4.4-7.5,4.4c-3.3,0-4-1.9-6.8-1.8c-3.1,0.2-8.5,1.9-9.7,4.2c-0.4,0.9,0,1.8-0.3,1.9
					C407.1,273,405.6,270.7,406.1,268.6L406.1,268.6z"/>
				<path fill="#FFDE11" d="M402.1,254.9c-1.8,1.5-1.7,4.7,0.3,6.1c1.7,1.2,4.3,0.8,5.5-0.9c1-1.5,0.7-3.4-0.4-4.7
					C406.2,253.8,403.6,253.7,402.1,254.9L402.1,254.9z"/>
				<path fill="none" stroke="#231F20" stroke-width="0.3581" stroke-miterlimit="10" d="M402.1,254.9c-1.8,1.5-1.7,4.7,0.3,6.1
					c1.7,1.2,4.3,0.8,5.5-0.9c1-1.5,0.7-3.4-0.4-4.7C406.2,253.8,403.6,253.7,402.1,254.9L402.1,254.9z"/>
				<path fill="#FFDE11" d="M371.8,269.9c-1.3-3,1.9-7.4,1.9-7.4c0.3-0.7,0.6-1.1,0.8-1.3c1.5-1.8,3.7-2.3,4.8-2.5
					c3.1-0.6,7-0.9,8.6-0.3c2.4,0.8,3.3,2.7,3.8,4.5c0.5,1.8-1.1,3.3-0.4,4.1s2.4-0.6,4.6,0.2c1.6,0.5,3.1,2,3.3,3.7
					c0.2,1.2-0.3,2.2-0.6,2.6C395.9,278.2,374.4,275.9,371.8,269.9L371.8,269.9z"/>
				<path fill="none" stroke="#231F20" stroke-width="0.3581" stroke-miterlimit="10" d="M371.8,269.9c-1.3-3,1.9-7.4,1.9-7.4
					c0.3-0.7,0.6-1.1,0.8-1.3c1.5-1.8,3.7-2.3,4.8-2.5c3.1-0.6,7-0.9,8.6-0.3c2.4,0.8,3.3,2.7,3.8,4.5c0.5,1.8-1.1,3.3-0.4,4.1
					s2.4-0.6,4.6,0.2c1.6,0.5,3.1,2,3.3,3.7c0.2,1.2-0.3,2.2-0.6,2.6C395.9,278.2,374.4,275.9,371.8,269.9L371.8,269.9z"/>
				<path fill="#FCEE23" d="M377.8,255.7c2.9-0.9,4.8,1.8,6.5,0.8c1.6-1,0.2-3.5,1.9-5.6c1.9-2.3,6.1-2.1,8.4-1.4
					c0.3,0.1,5.7,1.7,6.9,6.4c0.2,0.8,1.5,3.1,0.4,4.6c-1.4,1.9-4,1.1-5.2,3.1c-0.8,1.3-0.8,2.1-1.9,3.3c-0.1,0.1-1.8,0-2.5,0.4
					c-2,1.2,0.2-2.8-1.3-6c-1.6-3.4-7.8-2.2-8.2-2.2c-4.8,0.7-7.6,4.3-8.6,3.3c-0.4-0.4-0.3-1.1-0.1-2
					C374.2,258.5,375.7,256.3,377.8,255.7L377.8,255.7z"/>
				<path fill="none" stroke="#231F20" stroke-width="0.3581" stroke-miterlimit="10" d="M377.8,255.7c2.9-0.9,4.8,1.8,6.5,0.8
					c1.6-1,0.2-3.5,1.9-5.6c1.9-2.3,6.1-2.1,8.4-1.4c0.3,0.1,5.7,1.7,6.9,6.4c0.2,0.8,1.5,3.1,0.4,4.6c-1.4,1.9-4,1.1-5.2,3.1
					c-0.8,1.3-0.8,2.1-1.9,3.3c-0.1,0.1-1.8,0-2.5,0.4c-2,1.2,0.2-2.8-1.3-6c-1.6-3.4-7.8-2.2-8.2-2.2c-4.8,0.7-7.6,4.3-8.6,3.3
					c-0.4-0.4-0.3-1.1-0.1-2C374.2,258.5,375.7,256.3,377.8,255.7L377.8,255.7z"/>
				<path fill="#FFDE11" d="M372.2,258.7c-1.3-1.1-3.1,0.5-4.9-0.5c-1.5-0.9-2.2-3-1.9-4.8c0.4-2.6,2.8-4.8,5.4-4.6
					c2.1,0.2,3.4,1.9,3.6,2.2c0-0.9,0.1-2.6,1.3-4.2c0,0,0.4-0.5,0.8-0.9c1.6-1.6,4.6-2.4,7.4-2c2.4,0.4,6.6,2.1,7.1,5.4
					c0.5,3.6-3.6,7.2-7.2,7.5c-3,0.4-4.3-1.8-6.5-0.9c-3,1.3-3.4,6.9-4.1,6.7C372.8,262.8,373.6,259.9,372.2,258.7L372.2,258.7z"/>
				<path fill="none" stroke="#231F20" stroke-width="0.3581" stroke-miterlimit="10" d="M372.2,258.7c-1.3-1.1-3.1,0.5-4.9-0.5
					c-1.5-0.9-2.2-3-1.9-4.8c0.4-2.6,2.8-4.8,5.4-4.6c2.1,0.2,3.4,1.9,3.6,2.2c0-0.9,0.1-2.6,1.3-4.2c0,0,0.4-0.5,0.8-0.9
					c1.6-1.6,4.6-2.4,7.4-2c2.4,0.4,6.6,2.1,7.1,5.4c0.5,3.6-3.6,7.2-7.2,7.5c-3,0.4-4.3-1.8-6.5-0.9c-3,1.3-3.4,6.9-4.1,6.7
					C372.8,262.8,373.6,259.9,372.2,258.7L372.2,258.7z"/>
				<path fill="#FCEE23" d="M379.6,240.4c2.5-1,4.6,1.4,6.2,0.3c1.5-1,0.3-3.3,1.9-5.1c2-2.2,6.2-1.3,7-1.1c4.1,0.9,7.6,4.1,7.2,5.5
					c-0.6,1.7-6.8-0.7-10,2.8c-1.3,1.5-1,2.7-2.3,3.2c-2.2,0.9-4.1-2.4-7.6-2.2c-3.1,0.1-4.7,2.6-5.4,2.1
					C375.8,245.2,377.1,241.4,379.6,240.4L379.6,240.4z"/>
				<path fill="none" stroke="#231F20" stroke-width="0.3581" stroke-miterlimit="10" d="M379.6,240.4c2.5-1,4.6,1.4,6.2,0.3
					c1.5-1,0.3-3.3,1.9-5.1c2-2.2,6.2-1.3,7-1.1c4.1,0.9,7.6,4.1,7.2,5.5c-0.6,1.7-6.8-0.7-10,2.8c-1.3,1.5-1,2.7-2.3,3.2
					c-2.2,0.9-4.1-2.4-7.6-2.2c-3.1,0.1-4.7,2.6-5.4,2.1C375.8,245.2,377.1,241.4,379.6,240.4L379.6,240.4z"/>
				<path fill="#FFDE11" d="M390.7,248.9c1.6,1.6,3.6,0.2,6.1,1.9c1.9,1.3,1.4,2.5,3.3,3.7c2.3,1.4,4.9,1,5.7,0.9
					c1.1-0.2,3.8-0.6,5.3-2.9c0.8-1.3,1.5-4.3,0.6-5.2c-1.1-1-3.1,1.4-4.8,0.4c-2-1.2-0.6-4.6-3.2-7c-0.9-0.8-1.8-1.1-2.6-1.3
					c-4.1-1.2-10,0.5-11.3,4.5C389.3,245.4,389.4,247.6,390.7,248.9L390.7,248.9z"/>
				<path fill="none" stroke="#231F20" stroke-width="0.3581" stroke-miterlimit="10" d="M390.7,248.9c1.6,1.6,3.6,0.2,6.1,1.9
					c1.9,1.3,1.4,2.5,3.3,3.7c2.3,1.4,4.9,1,5.7,0.9c1.1-0.2,3.8-0.6,5.3-2.9c0.8-1.3,1.5-4.3,0.6-5.2c-1.1-1-3.1,1.4-4.8,0.4
					c-2-1.2-0.6-4.6-3.2-7c-0.9-0.8-1.8-1.1-2.6-1.3c-4.1-1.2-10,0.5-11.3,4.5C389.3,245.4,389.4,247.6,390.7,248.9L390.7,248.9z"/>
				<g>
					<g>
						<g>
							<defs>
								
									<rect id="SVGID_1_" x="321.8" y="250.7" transform="matrix(0.1063 -0.9943 0.9943 0.1063 49.3338 678.108)" width="160.1" height="121.8"/>
							</defs>
							<clipPath id="SVGID_2_">
								<use xlink:href="#SVGID_1_"  overflow="visible"/>
							</clipPath>
							<path clip-path="url(#SVGID_2_)" fill="#F8ED34" d="M400.4,236.1c1.2-2.7,4.9-3.4,6.2-3.6c1.6-0.3,5.4-0.9,7.4,1.2
								c2.1,2.2,1,5.8,2.4,6.2c0.9,0.2,1.5-1.3,3.1-1.3c1.2,0,2.6,1,2.9,2.2c0.3,1.2-0.6,2.5-1.5,3.2c-2.6,2.1-6.2-0.3-8.4,1.9
								c-0.7,0.7-0.6,1.2-1.5,1.8c-1.2,0.7-3.2,0.9-4.4-0.1c-2-1.5-0.4-4.1-2.5-6.2c-1.5-1.5-3.1-1.1-3.8-2.6
								C399.8,237.6,400.3,236.4,400.4,236.1L400.4,236.1z"/>
						</g>
					</g>
					<g>
						<g>
							<defs>
								
									<rect id="SVGID_3_" x="321.8" y="250.7" transform="matrix(0.1063 -0.9943 0.9943 0.1063 49.3338 678.108)" width="160.1" height="121.8"/>
							</defs>
							<clipPath id="SVGID_4_">
								<use xlink:href="#SVGID_3_"  overflow="visible"/>
							</clipPath>
							<path clip-path="url(#SVGID_4_)" fill="none" stroke="#231F20" stroke-width="0.3581" stroke-miterlimit="10" d="
								M400.4,236.1c1.2-2.7,4.9-3.4,6.2-3.6c1.6-0.3,5.4-0.9,7.4,1.2c2.1,2.2,1,5.8,2.4,6.2c0.9,0.2,1.5-1.3,3.1-1.3
								c1.2,0,2.6,1,2.9,2.2c0.3,1.2-0.6,2.5-1.5,3.2c-2.6,2.1-6.2-0.3-8.4,1.9c-0.7,0.7-0.6,1.2-1.5,1.8c-1.2,0.7-3.2,0.9-4.4-0.1
								c-2-1.5-0.4-4.1-2.5-6.2c-1.5-1.5-3.1-1.1-3.8-2.6C399.8,237.6,400.3,236.4,400.4,236.1L400.4,236.1z"/>
						</g>
					</g>
				</g>
				<path fill="#F8ED34" d="M397.8,275c1.2,1.9,8.7,1.2,9.4-0.6c0-0.1,0.7,0.5,0.7,0.1c-0.2-2.2-1.7-3.1-1.9-4.4
					c-0.2-1.7,1.1-3.7,2.3-4.8c1.8-1.6,3.1-1.7,3.1-2.5c0-1.1-2.5-2-4.4-2.3c-2-0.3-3.5,0.2-5.5,0.8c-2.5,0.8-3.7,1.1-4.7,2.3
					c-0.9,1.1-1.8,3.2-1,4.4c0.9,1.5,2.6,0.9,3.5,2.4C400.1,271.9,396.9,273.6,397.8,275L397.8,275z"/>
				<path fill="none" stroke="#231F20" stroke-width="0.3581" stroke-miterlimit="10" d="M397.8,275c1.2,1.9,8.7,1.2,9.4-0.6
					c0-0.1,0.7,0.5,0.7,0.1c-0.2-2.2-1.7-3.1-1.9-4.4c-0.2-1.7,1.1-3.7,2.3-4.8c1.8-1.6,3.1-1.7,3.1-2.5c0-1.1-2.5-2-4.4-2.3
					c-2-0.3-3.5,0.2-5.5,0.8c-2.5,0.8-3.7,1.1-4.7,2.3c-0.9,1.1-1.8,3.2-1,4.4c0.9,1.5,2.6,0.9,3.5,2.4
					C400.1,271.9,396.9,273.6,397.8,275L397.8,275z"/>
				<path fill="#FCEE23" d="M409.7,269.1c1.6-1.1,3.1-1.6,5.5-2c2.1-0.4,3.1-0.2,4.5-0.3c0.7-0.1,5.5,0.3,6,4.3
					c0,0.3,0.9,2.7-0.3,3.8c-1.2,1.2-3.2-0.4-7.4-0.7c-5.4-0.4-8.9,1.8-10,0.2c-0.4-0.6,0.1-1.3-0.2-2
					C407.1,270.8,409,269.6,409.7,269.1L409.7,269.1z"/>
				<path fill="none" stroke="#231F20" stroke-width="0.3581" stroke-miterlimit="10" d="M409.7,269.1c1.6-1.1,3.1-1.6,5.5-2
					c2.1-0.4,3.1-0.2,4.5-0.3c0.7-0.1,5.5,0.3,6,4.3c0,0.3,0.9,2.7-0.3,3.8c-1.2,1.2-3.2-0.4-7.4-0.7c-5.4-0.4-8.9,1.8-10,0.2
					c-0.4-0.6,0.1-1.3-0.2-2C407.1,270.8,409,269.6,409.7,269.1L409.7,269.1z"/>
				<path fill="#FFDE11" d="M423.6,275.2c0-0.5,1.6-1.4,2.2-1.5c2.2-0.6,4,0.7,4.2,0.8c0.8,0.6,3.5,2.8,3.1,3.4
					C432.3,279.1,423.4,276.5,423.6,275.2L423.6,275.2z"/>
				<path fill="none" stroke="#231F20" stroke-width="0.3581" stroke-miterlimit="10" d="M423.6,275.2c0-0.5,1.6-1.4,2.2-1.5
					c2.2-0.6,4,0.7,4.2,0.8c0.8,0.6,3.5,2.8,3.1,3.4C432.3,279.1,423.4,276.5,423.6,275.2L423.6,275.2z"/>
				<path fill="#FFDE11" d="M432.2,264.4c0.9-0.1,3.6-0.4,6.6,1.1c1.3,0.7,3.5,1.8,4.3,4c1.1,2.9-1,5.7,0.1,6.5
					c0.7,0.5,1.5-0.6,3.4-0.5c1.8,0.1,3.8,1.2,3.7,1.9c-0.1,1.6-9.3,3.8-17.2,0.7c-1.6-0.6-3-4.5-6.4-4.5c-2.3,0-2.4-2.6-2.1-4.4
					C425.4,266.3,429.7,264.7,432.2,264.4L432.2,264.4z"/>
				<path fill="none" stroke="#231F20" stroke-width="0.3581" stroke-miterlimit="10" d="M432.2,264.4c0.9-0.1,3.6-0.4,6.6,1.1
					c1.3,0.7,3.5,1.8,4.3,4c1.1,2.9-1,5.7,0.1,6.5c0.7,0.5,1.5-0.6,3.4-0.5c1.8,0.1,3.8,1.2,3.7,1.9c-0.1,1.6-9.3,3.8-17.2,0.7
					c-1.6-0.6-3-4.5-6.4-4.5c-2.3,0-2.4-2.6-2.1-4.4C425.4,266.3,429.7,264.7,432.2,264.4L432.2,264.4z"/>
				<path fill="#FFDE11" d="M433.6,252.1c1-1.2,7.7,1,8.8,5c0.6,2.3-1.1,3.7-0.1,5.8c1.1,2.1,3.5,1.5,4.6,3.5c1.2,2.3-0.1,6.2-2.5,7
					c-1.1,0.4-2.1,0-2.5-0.2c-3.2-1.3-2.5-5.1-5.7-7.5c-2.8-2.2-6.2-0.3-6.5-1.4c-0.4-1.5,4.5-3,5.8-5.6
					C437,255.9,432.8,253.1,433.6,252.1L433.6,252.1z"/>
				<path fill="none" stroke="#231F20" stroke-width="0.3581" stroke-miterlimit="10" d="M433.6,252.1c1-1.2,7.7,1,8.8,5
					c0.6,2.3-1.1,3.7-0.1,5.8c1.1,2.1,3.5,1.5,4.6,3.5c1.2,2.3-0.1,6.2-2.5,7c-1.1,0.4-2.1,0-2.5-0.2c-3.2-1.3-2.5-5.1-5.7-7.5
					c-2.8-2.2-6.2-0.3-6.5-1.4c-0.4-1.5,4.5-3,5.8-5.6C437,255.9,432.8,253.1,433.6,252.1L433.6,252.1z"/>
				<path fill="#FFDE11" d="M419.8,244.5c-0.5-1.6,3.1-4.5,5.3-5.5c4.2-2,8.7,0.6,9.7,1.1c1.2,0.8,4.1,2.5,4.4,5.2
					c0.3,2.6-1.7,4.6-0.9,5.5c0.6,0.6,1.6-0.4,3.1,0c2.3,0.7,3.1,4.1,3.3,6c0.1,1.7-0.8,6.6-1.4,6.9c-2.5,1.5-1.4-7.1-4-9.9
					c-1.4-1.5-2.7,0-5.7-1.4c-1.8-0.8-3.1,0-4.4,0.1c-1.9,0.1-1.9,0.5-2.7,0.2c-1-0.4,0.3-3.4-1.2-5.7
					C423.9,245.1,420.3,246,419.8,244.5L419.8,244.5z"/>
				<path fill="none" stroke="#231F20" stroke-width="0.3581" stroke-miterlimit="10" d="M419.8,244.5c-0.5-1.6,3.1-4.5,5.3-5.5
					c4.2-2,8.7,0.6,9.7,1.1c1.2,0.8,4.1,2.5,4.4,5.2c0.3,2.6-1.7,4.6-0.9,5.5c0.6,0.6,1.6-0.4,3.1,0c2.3,0.7,3.1,4.1,3.3,6
					c0.1,1.7-0.8,6.6-1.4,6.9c-2.5,1.5-1.4-7.1-4-9.9c-1.4-1.5-2.7,0-5.7-1.4c-1.8-0.8-3.1,0-4.4,0.1c-1.9,0.1-1.9,0.5-2.7,0.2
					c-1-0.4,0.3-3.4-1.2-5.7C423.9,245.1,420.3,246,419.8,244.5L419.8,244.5z"/>
				<path fill="#FCEE23" d="M443.4,263.3c0-1.3,0.2-5.2,1.3-5.6c2.5-0.9,6.6,2.6,7.7,3.3c2.7,1.5,6.2,4.8,5.6,7.6
					c-0.4,1.8-2,2.3-1.7,3.4c0.4,1.3,3.1,0.6,4.9,2.3c1.4,1.4,2.1,4.1,1.1,5.6c-2,3-11.6,1.7-13.9-2.3c-0.4-0.6-0.7-1.5-1.6-2
					c-1.9-1-3.3,1-4,0.1c-0.4-0.5-1-2-0.4-2.6c1.7-1.8,2.7-0.4,3.9-1.8c0.9-1.1,1.2-1.9,0.7-4C446.4,264,443.4,264.9,443.4,263.3
					L443.4,263.3z"/>
				<path fill="none" stroke="#231F20" stroke-width="0.3581" stroke-miterlimit="10" d="M443.4,263.3c0-1.3,0.2-5.2,1.3-5.6
					c2.5-0.9,6.6,2.6,7.7,3.3c2.7,1.5,6.2,4.8,5.6,7.6c-0.4,1.8-2,2.3-1.7,3.4c0.4,1.3,3.1,0.6,4.9,2.3c1.4,1.4,2.1,4.1,1.1,5.6
					c-2,3-11.6,1.7-13.9-2.3c-0.4-0.6-0.7-1.5-1.6-2c-1.9-1-3.3,1-4,0.1c-0.4-0.5-1-2-0.4-2.6c1.7-1.8,2.7-0.4,3.9-1.8
					c0.9-1.1,1.2-1.9,0.7-4C446.4,264,443.4,264.9,443.4,263.3L443.4,263.3z"/>
				<path fill="#FCEE23" d="M411.8,250.6c1.4-1.7-1-2.3,0.4-4.4c1.3-2,6.7-1.5,8.3-1.5c0.7,0,6.6,0.1,8,3.4c0.9,2-0.1,4.2,0.6,4.5
					c0.8,0.3,1.6-1.8,3.3-1.9c1.8-0.1,3.4,2.2,4,3.8c0.7,1.7,1.2,4.8-0.6,6.2c-0.8,0.6-2,0.9-3,0.6c-2.3-0.6-1.9-3.6-4.3-5.1
					c-2.7-1.6-8.5-1.3-11.6,0.4c-2.8,1.6-1.3,5.8-3.6,6.7c-1,0.4-2.1,0.1-2.6-0.1c-2.4-0.7-3.3-2.8-3.4-3.1c-0.7-1.7-0.7-4,0.6-5.3
					C409.8,253.1,410.4,252.3,411.8,250.6L411.8,250.6z"/>
				<path fill="none" stroke="#231F20" stroke-width="0.3581" stroke-miterlimit="10" d="M411.8,250.6c1.4-1.7-1-2.3,0.4-4.4
					c1.3-2,6.7-1.5,8.3-1.5c0.7,0,6.6,0.1,8,3.4c0.9,2-0.1,4.2,0.6,4.5c0.8,0.3,1.6-1.8,3.3-1.9c1.8-0.1,3.4,2.2,4,3.8
					c0.7,1.7,1.2,4.8-0.6,6.2c-0.8,0.6-2,0.9-3,0.6c-2.3-0.6-1.9-3.6-4.3-5.1c-2.7-1.6-8.5-1.3-11.6,0.4c-2.8,1.6-1.3,5.8-3.6,6.7
					c-1,0.4-2.1,0.1-2.6-0.1c-2.4-0.7-3.3-2.8-3.4-3.1c-0.7-1.7-0.7-4,0.6-5.3C409.8,253.1,410.4,252.3,411.8,250.6L411.8,250.6z"/>
				<path fill="#FCEE23" d="M347.3,268.4c-0.8-1.8,0.1-4.5,1.6-5.7c2.2-1.8,4.7,0.5,7.2-1.2c2.5-1.7,1.2-4.9,4.2-6.9
					c1.5-1.1,3.8-1.6,4.9-0.7c1.1,0.9,0.1,2.6,1.2,3.9c1.4,1.6,3.9-0.1,5.7,1.4c1.1,1,1.2,2.6,1.4,5.3c0.1,1.9,0.2,2.9-0.4,3.8
					c-1.2,1.9-4.2,2-6.1,2C354.7,270.4,348.4,270.4,347.3,268.4L347.3,268.4z"/>
				<g>
					<g>
						<g>
							<defs>
								
									<rect id="SVGID_5_" x="321.8" y="250.7" transform="matrix(0.1063 -0.9943 0.9943 0.1063 49.3338 678.108)" width="160.1" height="121.8"/>
							</defs>
							<clipPath id="SVGID_6_">
								<use xlink:href="#SVGID_5_"  overflow="visible"/>
							</clipPath>
							<path clip-path="url(#SVGID_6_)" fill="none" stroke="#231F20" stroke-width="0.3581" stroke-miterlimit="10" d="
								M347.3,268.4c-0.8-1.8,0.1-4.5,1.6-5.7c2.2-1.8,4.7,0.5,7.2-1.2c2.5-1.7,1.2-4.9,4.2-6.9c1.5-1.1,3.8-1.6,4.9-0.7
								s0.1,2.6,1.2,3.9c1.4,1.6,3.9-0.1,5.7,1.4c1.1,1,1.2,2.6,1.4,5.3c0.1,1.9,0.2,2.9-0.4,3.8c-1.2,1.9-4.2,2-6.1,2
								C354.7,270.4,348.4,270.4,347.3,268.4L347.3,268.4z"/>
						</g>
					</g>
				</g>
				<path fill="#EC2227" d="M346.7,269.2l-1.9,39.5c0,0-3.2,53.1-5,75.2L446,395.3c4.3-20.2,10.8-59.8,10.8-59.8l8.1-53.6
					c0,0-10.5-2.4-14-2.5c-4.1-0.2-12.2,1.1-16.4,0.4c-4.4-0.7-11.9-3.6-17.2-4.2c-5.1-0.6-15.6,1.3-20.6,0.4
					c-4.2-0.8-12.3-4.8-16.5-5.1c-6-0.4-18.1,1.2-24,0.6C353.9,271.3,346.7,269.2,346.7,269.2L346.7,269.2z"/>
				<g>
					<g>
						<g>
							<defs>
								
									<rect id="SVGID_7_" x="321.8" y="250.7" transform="matrix(0.1063 -0.9943 0.9943 0.1063 49.3338 678.108)" width="160.1" height="121.8"/>
							</defs>
							<clipPath id="SVGID_8_">
								<use xlink:href="#SVGID_7_"  overflow="visible"/>
							</clipPath>
							<path clip-path="url(#SVGID_8_)" fill="none" stroke="#EC2227" stroke-width="2.8649" stroke-miterlimit="10" d="
								M346.7,269.2l-1.9,39.5c0,0-3.2,53.1-5,75.2L446,395.3c4.3-20.2,10.8-59.8,10.8-59.8l8.1-53.6c0,0-10.5-2.4-14-2.5
								c-4.1-0.2-12.2,1.1-16.4,0.4c-4.4-0.7-11.9-3.6-17.2-4.2c-5.1-0.6-15.6,1.3-20.6,0.4c-4.2-0.8-12.3-4.8-16.5-5.1
								c-6-0.4-18.1,1.2-24,0.6C353.9,271.3,346.7,269.2,346.7,269.2L346.7,269.2z"/>
						</g>
					</g>
				</g>
				<polygon fill="#FFFFFF" points="345.1,385.7 338.8,385 350.6,270.2 357.3,271.4 				"/>
				<g>
					<g>
						<g>
							<defs>
								
									<rect id="SVGID_9_" x="321.8" y="250.7" transform="matrix(0.1063 -0.9943 0.9943 0.1063 49.3338 678.108)" width="160.1" height="121.8"/>
							</defs>
							<clipPath id="SVGID_10_">
								<use xlink:href="#SVGID_9_"  overflow="visible"/>
							</clipPath>
							<polygon clip-path="url(#SVGID_10_)" fill="none" stroke="#FFFFFF" stroke-width="0.3581" stroke-miterlimit="10" points="
								345.1,385.7 338.8,385 350.6,270.2 357.3,271.4 							"/>
						</g>
					</g>
				</g>
				<polygon fill="#FFFFFF" points="357.3,387.1 351.1,386.3 363.3,271.4 369.8,271.2 				"/>
				<g>
					<g>
						<g>
							<defs>
								
									<rect id="SVGID_11_" x="321.8" y="250.7" transform="matrix(0.1063 -0.9943 0.9943 0.1063 49.3338 678.108)" width="160.1" height="121.8"/>
							</defs>
							<clipPath id="SVGID_12_">
								<use xlink:href="#SVGID_11_"  overflow="visible"/>
							</clipPath>
							<polygon clip-path="url(#SVGID_12_)" fill="none" stroke="#FFFFFF" stroke-width="0.3581" stroke-miterlimit="10" points="
								357.3,387.1 351.1,386.3 363.3,271.4 369.8,271.2 							"/>
						</g>
					</g>
				</g>
				<polygon fill="#FFFFFF" points="369.7,388.4 363.2,387.7 375.7,270.8 382.1,271.1 				"/>
				<g>
					<g>
						<g>
							<defs>
								
									<rect id="SVGID_13_" x="321.8" y="250.7" transform="matrix(0.1063 -0.9943 0.9943 0.1063 49.3338 678.108)" width="160.1" height="121.8"/>
							</defs>
							<clipPath id="SVGID_14_">
								<use xlink:href="#SVGID_13_"  overflow="visible"/>
							</clipPath>
							<polygon clip-path="url(#SVGID_14_)" fill="none" stroke="#FFFFFF" stroke-width="0.3581" stroke-miterlimit="10" points="
								369.7,388.4 363.2,387.7 375.7,270.8 382.1,271.1 							"/>
						</g>
					</g>
				</g>
				<polygon fill="#FFFFFF" points="381.8,389.6 375.4,389.1 387.8,273.1 394,275.3 				"/>
				<g>
					<g>
						<g>
							<defs>
								
									<rect id="SVGID_15_" x="321.8" y="250.7" transform="matrix(0.1063 -0.9943 0.9943 0.1063 49.3338 678.108)" width="160.1" height="121.8"/>
							</defs>
							<clipPath id="SVGID_16_">
								<use xlink:href="#SVGID_15_"  overflow="visible"/>
							</clipPath>
							<polygon clip-path="url(#SVGID_16_)" fill="none" stroke="#FFFFFF" stroke-width="0.3581" stroke-miterlimit="10" points="
								381.8,389.6 375.4,389.1 387.8,273.1 394,275.3 							"/>
						</g>
					</g>
				</g>
				<polygon fill="#FFFFFF" points="393.7,390.9 387.4,390.2 399.6,276.3 406.3,275.5 				"/>
				<g>
					<g>
						<g>
							<defs>
								
									<rect id="SVGID_17_" x="321.8" y="250.7" transform="matrix(0.1063 -0.9943 0.9943 0.1063 49.3338 678.108)" width="160.1" height="121.8"/>
							</defs>
							<clipPath id="SVGID_18_">
								<use xlink:href="#SVGID_17_"  overflow="visible"/>
							</clipPath>
							<polygon clip-path="url(#SVGID_18_)" fill="none" stroke="#FFFFFF" stroke-width="0.3581" stroke-miterlimit="10" points="
								393.7,390.9 387.4,390.2 399.6,276.3 406.3,275.5 							"/>
						</g>
					</g>
				</g>
				<polygon fill="#FFFFFF" points="406.1,392.2 399.8,391.6 411.9,275.7 418.5,275.8 				"/>
				<g>
					<g>
						<g>
							<defs>
								
									<rect id="SVGID_19_" x="321.8" y="250.7" transform="matrix(0.1063 -0.9943 0.9943 0.1063 49.3338 678.108)" width="160.1" height="121.8"/>
							</defs>
							<clipPath id="SVGID_20_">
								<use xlink:href="#SVGID_19_"  overflow="visible"/>
							</clipPath>
							<polygon clip-path="url(#SVGID_20_)" fill="none" stroke="#FFFFFF" stroke-width="0.3581" stroke-miterlimit="10" points="
								406.1,392.2 399.8,391.6 411.9,275.7 418.5,275.8 							"/>
						</g>
					</g>
				</g>
				<polygon fill="#FFFFFF" points="418.5,393.5 412.2,392.8 424.5,277.2 430.7,278.9 				"/>
				<g>
					<g>
						<g>
							<defs>
								
									<rect id="SVGID_21_" x="321.8" y="250.7" transform="matrix(0.1063 -0.9943 0.9943 0.1063 49.3338 678.108)" width="160.1" height="121.8"/>
							</defs>
							<clipPath id="SVGID_22_">
								<use xlink:href="#SVGID_21_"  overflow="visible"/>
							</clipPath>
							<polygon clip-path="url(#SVGID_22_)" fill="none" stroke="#FFFFFF" stroke-width="0.3581" stroke-miterlimit="10" points="
								418.5,393.5 412.2,392.8 424.5,277.2 430.7,278.9 							"/>
						</g>
					</g>
				</g>
				<polygon fill="#FFFFFF" points="430.9,394.8 424.6,394.1 436.8,280 443.2,279.8 				"/>
				<g>
					<g>
						<g>
							<defs>
								
									<rect id="SVGID_23_" x="321.8" y="250.7" transform="matrix(0.1063 -0.9943 0.9943 0.1063 49.3338 678.108)" width="160.1" height="121.8"/>
							</defs>
							<clipPath id="SVGID_24_">
								<use xlink:href="#SVGID_23_"  overflow="visible"/>
							</clipPath>
							<polygon clip-path="url(#SVGID_24_)" fill="none" stroke="#FFFFFF" stroke-width="0.3581" stroke-miterlimit="10" points="
								430.9,394.8 424.6,394.1 436.8,280 443.2,279.8 							"/>
						</g>
					</g>
				</g>
				<polygon fill="#FFFFFF" points="443.1,396.2 436.8,395.5 449.2,279.4 455.5,280.1 				"/>
				<g>
					<g>
						<g>
							<defs>
								
									<rect id="SVGID_25_" x="321.8" y="250.7" transform="matrix(0.1063 -0.9943 0.9943 0.1063 49.3338 678.108)" width="160.1" height="121.8"/>
							</defs>
							<clipPath id="SVGID_26_">
								<use xlink:href="#SVGID_25_"  overflow="visible"/>
							</clipPath>
							<polygon clip-path="url(#SVGID_26_)" fill="none" stroke="#FFFFFF" stroke-width="0.3581" stroke-miterlimit="10" points="
								443.1,396.2 436.8,395.5 449.2,279.4 455.5,280.1 							"/>
						</g>
					</g>
				</g>
				<polygon fill="#FFFFFF" points="457.2,337.9 450.7,374.5 460.6,281.1 464.9,281.9 				"/>
				<g>
					<g>
						<g>
							<defs>
								
									<rect id="SVGID_27_" x="321.8" y="250.7" transform="matrix(0.1063 -0.9943 0.9943 0.1063 49.3338 678.108)" width="160.1" height="121.8"/>
							</defs>
							<clipPath id="SVGID_28_">
								<use xlink:href="#SVGID_27_"  overflow="visible"/>
							</clipPath>
							<polygon clip-path="url(#SVGID_28_)" fill="none" stroke="#FFFFFF" stroke-width="0.3581" stroke-miterlimit="10" points="
								457.2,337.9 450.7,374.5 460.6,281.1 464.9,281.9 							"/>
						</g>
					</g>
				</g>
				
					<text transform="matrix(0.9943 0.1063 -0.1063 0.9943 362.8148 306.0291)" fill="#231F20" font-family="'Monaco'" font-size="19.5641">POPCORN</text>
				<g>
					<g>
						<g>
							<defs>
								
									<rect id="SVGID_29_" x="321.8" y="250.7" transform="matrix(0.1063 -0.9943 0.9943 0.1063 49.3338 678.108)" width="160.1" height="121.8"/>
							</defs>
							<clipPath id="SVGID_30_">
								<use xlink:href="#SVGID_29_"  overflow="visible"/>
							</clipPath>
							<g clip-path="url(#SVGID_30_)">
								
									<text transform="matrix(0.9943 0.1063 -0.1063 0.9943 362.8148 306.0296)" fill="none" stroke="#231F20" stroke-width="0.3563" stroke-miterlimit="10" font-family="'Monaco'" font-size="19.5641">POPCORN</text>
							</g>
						</g>
					</g>
				</g>
			</g>
		</g>
	</g>
</g>
</svg>
