<?xml version="1.0" encoding="utf-8"?>
<!-- Generator: Adobe Illustrator 18.1.0, SVG Export Plug-In . SVG Version: 6.00 Build 0)  -->
<!DOCTYPE svg PUBLIC "-//W3C//DTD SVG 1.1//EN" "http://www.w3.org/Graphics/SVG/1.1/DTD/svg11.dtd">
<svg version="1.1" id="Layer_1" xmlns="http://www.w3.org/2000/svg" xmlns:xlink="http://www.w3.org/1999/xlink" x="0px" y="0px"
	 viewBox="0 0 600 600" enable-background="new 0 0 600 600" xml:space="preserve">
<symbol  id="Blond_Hair_4" viewBox="-11.3 -7.7 22.6 15.3">
	<g>
		<path fill="#EC5A25" d="M-11.3,6.9c0,0,5.6,2.6,10.6-1.9c5-4.6,5.8-10.2,12-12.7C4.7-6.6,2.2,0.8-1,3.9
			C-6.1,8.8-10.8,6.9-11.3,6.9z"/>
	</g>
</symbol>
<g>
	<path fill="#00AEEF" stroke="#000000" stroke-width="3.3427" stroke-miterlimit="10" d="M385.6,458.8c6.6,6.4,13.8-9.7,29-16
		c15.2-6.3,19.4,2,32.3-3.2c18.6-7.4,12.9-25.5,34.4-39.5c3.7-2.4,14.9-6.6,37.2-14.8c18.5-6.8,21.2-7.2,22.3-10.3
		c3.8-10.9-25.9-21.6-56.9-58c-17.8-20.9-16.2-27-34-42.8c-11.5-10.2-21.6-16-42-27.8c-16.2-9.4-27.8-14.6-41.5-18
		c-8-2-23.9-2.1-23.9-2.1s7.6,6.6,23.5,17.3c23,15.4-1.7,16.7-9.6,36.4c-6,14.9-15.5,18.8-13.9,28.4c0.9,4.9,3.1,16.5,5.1,22.7
		c2.9,9,14.4,44.5,15.2,48.7c1.3,6,9.3,19.7,11.3,47.7c0.5,6.7,1.3,13.7,3.2,21.8C378.4,453.7,381.7,455,385.6,458.8z"/>
	<path fill="#EF4136" stroke="#F15A29" stroke-width="3.3427" stroke-miterlimit="10" d="M496.2,175.5c-0.2-3-26.7-1.1-44.2-19
		c-6.5-6.7-9.3-13.6-21-22.3c-5.3-4-10.9-7-10.4-8.4c1-2.3,18.4,5.3,21.1,1.3c2.7-4.1-11.8-15.8-27.2-35.3
		c-21.9-27.6-15.9-33.1-32.3-49.5c-19.1-19-41.8-25.9-53.5-29.6c0,0-27.2-9.6-46.9-6.7c-4.9,0.8-9.6,2.1-9.6,2.1s-3.3,1-6.5,2.1
		c-10.5,4.1-35,28.5-36.8,27.1c-1.1-0.8,10.1-14.3,19.7-22.8s22.7-12,22.1-13c-3.5-6.5-51.4,23.1-54.5,25.9
		c-3.4,3,9.5-28.1,8.8-27.7c-1.3,0.8-17.6,24.2-24.7,38.4c-6.8,13.5-6.4,12.4-14.2,25.7c-7.1,12.1-6.8,28-7.3,38
		c-0.5,8.8,0.2,16.7,0.7,20.6c0.7,5.9,1.7,10.4,2.1,12.3c1,4.1,2.8,11.7,6.9,20.1c2.5,5,5.2,9.4,6.8,11.6c0,0,0.8,1.2,1.6,2.3
		c9.4,13.1,20,21.4,20,21.4c4.1,3.3,15.3,13.7,30.6,16.9c10.4,2.2,31.3,5.1,31.8,5.2c0,0-1.3-11.9-0.8-6.6c0,0.1-52.5-4.5-60.6-29.4
		c-3.5-10.7,2.2-29.1-4.5-28.6c-4,0.3-6,3.8-12.2,1.3c-10-4.1-18-19.8-12.4-25.6c3.2-3.3,10.7-2.4,15.5,0.4
		c7.5,4.3,8.7,13.2,10.6,12.8c2.5-0.6-2.7-14.6,4.2-26.8c2.8-4.8,4.8-4.9,10.4-13.8c3.4-5.4,5.1-8.3,6.1-12.5
		c1.9-8.8-2-13.2,0.4-15.5c3.1-3,10.8,3.7,22.5,6.7c16.7,4.2,19.2-4.6,37.6-1.8c13,1.9,10.3,6.2,35,13.9c4.4,1.4,9.4,2.7,13.7,7.1
		c6.8,6.9,7.4,16.3,7.5,17.4c0.5,8.7-3.6,15.1-2.6,15.6c1.3,0.7,5.1-10.8,13.8-12.8c4.2-1,9.6,0.2,12.3,3.9
		c3.5,4.5,1.4,10.9,0.7,13.3c-3.1,9.7-9.8,9.2-13.5,18.4c-2.7,6.7,0.4,7.9-2.5,17.8c-2,7-5.2,12.1-7,14.8
		c-2.7,4.1-6.3,9.5-12.6,13.9c-4.7,3.3-10,4.7-20.7,7.6c0,0-4.9-0.6-19.6,2.8c0.4-3.7-0.4,9.3,1.4,12.4c2.6,4.8,15.2,0.5,28.8-0.3
		c8.8-0.5,6.2,1.2,50.3,9.7c0,0,17.9,3.6,34.9,3.9h0.1c15.6,0.3,23.5,0.4,23.9-1.1c0.6-2.5-22.2-14.4-20.5-11.2
		c0.4,0.7,71.5-4.1,76.1-9.2c5.6-6.1-48-28.9-40.2-29.1C458.1,181.9,496.7,185.5,496.2,175.5z"/>
	<path fill="#F3D9CC" stroke="#F3D9CC" stroke-width="3.3427" stroke-miterlimit="10" d="M281.9,229.3c0,0-1.6-16.1-3.2-25.5
		c0,0-8.1,4.5-29.9-2.6c-2.6-0.9-11.5-2.1-22.1-12.2c-4.9-4.6-6.1-11-7.2-15.3c-2.4-8.9,0.2-9.8-0.1-20.9c0,0,2.2-0.7-3.7-5.3
		c-0.8-0.6-4.4-0.3-5.3,0.2c-1.9,1.1-5.5,2.4-9.4,1.4c-5.8-1.4-8.2-7.1-9.5-10.4c-1.1-2.5-4.1-9.8-0.7-13.6
		c2.6-2.8,7.6-2.4,10.8-1.4c9.9,3.1,12.1,15.4,15.2,14.8c2.6-0.6-3.5-6.4-0.8-20.8c0.8-4.1,1.3-5.8,6.9-12.8
		c4.1-5.1,8-11.7,11.2-17.2c2.6-4.4,0.6-18.4,3.8-19.3c6.4-1.7,8.4,5.4,21.3,9c16.2,4.5,19.7-4.7,38.1-1.8
		c9.4,1.4,5.9,3.5,35.2,14.7c7.1,2.7,9.6,3.7,12.2,6.7c9,11.1,2.2,28.7,3.5,30.4c1,1.3,6.1-9.7,16.6-10.5c3.6-0.3,9.1,0.8,11.1,4.1
		c5.1,8.1-5.9,15.1-13,28.9c-5.5,10.5-5.4,23.9-9.5,32.6c-3.4,7-7.9,12.7-19.8,17.5c-14.2,5.7-27.6,7.4-33.7,4.6l0,0
		c-4.8,9.2,0,18,0,18c0.1,1.1,0.2,2.8,0.3,5c-1.3,1.1-3.5,2.6-6.7,3.7c-0.9,0.3-1.9,0.5-3.2,0.6C285.6,232,281.9,229.3,281.9,229.3z
		"/>
	
		<use xlink:href="#Blond_Hair_4"  width="22.6" height="15.3" x="-11.3" y="-7.7" transform="matrix(5.6779 -0.4323 -0.2197 -2.8854 425.4958 192.0375)" overflow="visible"/>
	
		<use xlink:href="#Blond_Hair_4"  width="22.6" height="15.3" x="-11.3" y="-7.7" transform="matrix(3.8132 -0.2903 -0.1943 -2.5527 388.0823 213.9199)" overflow="visible" enable-background="new    "/>
	<path fill="#FFF200" stroke="#000000" stroke-width="3.3427" stroke-miterlimit="10" d="M311,224.9c3.6-3.1,9-2.3,17.3-1.1
		c4.1,0.6,10.1,1.1,16.8,1.9c11.2,1.5,17.7,3.7,28.1-1c11.6-5.2,27.8-17.4,38.2-24.3c0.2-0.1,10.1-21.1,17.5-27.9
		c3-2.8,5.8,6.9,9.9,9.5c3.4,2,13.5,5.3,14.9,6.8c0,0-1.5,1.1-3.7,3.5c-3.2,3.7-10.1,15.8-13.8,19.6c-3.1,3.1-11.3,14.2-13.1,16.9
		c-3.6,5.1-12.1,8.8-17.8,11.9c-4.6,2.4-17.5,8.7-24.8,11.8c-4.3,1.8-20.5,22.2-21.9,23.7c-1.9,2.1-2.8,6.8-7.1,16.7
		c-2.8,6.2-3.8,6.7-5.2,11.7c-1.4,4.5-1.4,17.8,1.5,26.4c0,0,1.9,0.7,2.9,9l1.7,5.4c-0.7,2-7.3,0.1-17.3,1.1c-10,1-11.2,3-16.1,2
		c-5.6-1.1-6.1-3.4-12.6-5.4c-5.4-1.6-12.2-1-14-0.4c-5.3,1.7-6,3.4-12.1,5.8c-1.7,0.7-0.8,0-5.7,1c-8.2,1.6-13.3,2-18.3,1.6
		c-4.5-0.4-5.2-1-5.5-1.4c-2.5-2.8,0-7.7,1.7-17.4c0.5-3.1,2.1-10.3-0.7-18.9c-1.1-3.4-4-6.4-8.9-14.3c-5.9-9.5-5.2-9.7-7.1-14.8
		c-1.1-2.6-1.3-2.5-9.7-10.1c-8.4-7.4-7.8-6.4-12.2-10.9c-4-4-12.7-14-19.3-13.5c-3.3,0.2-38.6-7.3-43.6-12.3
		c-2.8-2.7-22.2-29.3-23-30.5c-4.3-6.3,1-11.4,2.4-12.6c5.5-5,6.8-4.4,10.7-8.9c4.2-5,5.6-11.1,8-5.8c1.2,2.5,17.1,32.4,21.8,34.4
		c8.5,3.6,47.8,15.1,52.5,16.3c10.2,2.6,15,4.5,24.3,1.8c3.7-1.1,7.3-3.1,15.4-5.2c9.6-2.6,11.4-1.9,12.3-1.3
		c3.6,2.4,1.1,7.2,5,11.7c4,4.4,10.8,4.1,13.2,4.1c2.6-0.1,7.9-0.3,11.7-4C309.9,233.2,307,228.3,311,224.9z"/>
	<path fill="#F7941E" stroke="#000000" stroke-width="3.3427" stroke-miterlimit="10" d="M351,346.2c1.3,4,2.5,7.8,3.9,11.8
		l-35.1,1.6l-4.4-12.8L351,346.2z"/>
	<polygon fill="#F7941E" stroke="#000000" stroke-width="3.3427" stroke-miterlimit="10" points="275.8,349.4 276.5,363.8 
		244.6,363.2 247.8,350.1 	"/>
	<path fill="#ED1C24" stroke="#000000" stroke-width="3.3427" stroke-miterlimit="10" d="M314.3,349c0.5,0.8,4.5,7.4,1.7,14
		c-3.6,8.6-15.1,9.4-17.5,9.5c-2.6,0.2-15.2,0.6-20.4-8.8c-0.2-0.4-4.1-7.6-0.7-14.6c4.8-9.7,19.1-8.7,20.7-8.6
		C300.7,340.8,309.7,341.6,314.3,349z"/>
	<path fill="#FFFFFF" stroke="#000000" stroke-width="3.3427" stroke-miterlimit="10" d="M305.7,351.6c2.2,3,2,7.4-0.1,10.3
		c-3.4,4.6-11,4.1-15.1,0.8c-2.3-1.8-4.9-5.6-3.7-9.1c1.3-3.4,5.5-4.2,7.3-4.7C295.9,348.5,302.5,347.2,305.7,351.6z"/>
	<path fill="#FFF200" stroke="#000000" stroke-width="3.3427" stroke-miterlimit="10" d="M354.9,360.1c0,0,3.7,9,7.1,19.2
		c0.6,1.7,3,9.4,4.4,13.9c9.3,27.4,8.6,55.4,11.8,58.1c4.2,3.5,4.8,6.4,6.2,11.5c1.6,6.4,1.8,9.8,2.3,15.6c0.3,3,1.7,5,1.4,6.9
		c-0.4,2.8-4.8,4.2-7.9,5.2c-1.6,0.6-8.9,2-14.7,1.9c-6.2-0.1-13.7-2.6-13.7-2.6l-0.1-2.1c0,0-1-7.3-2.4-10.8
		c-4.3-10.6-9.6-17.6-17.1-25.3c-22.9-24-24.9-37.2-29.8-38.8c0,0-8.3,13.8-31.2,44.4c-6.9,9.3-12.5,15.6-12.3,25
		c0.1,5.5,2.2,10.7-1,14.1c-0.7,0.8-2,1.8-10.1,2.7c-14.8,1.5-19.3-0.9-20.6-1.7c-1.5-0.9-4.3-2.6-4.5-5.2c-0.3-2.4-0.7-4.4-0.4-7.5
		c0.9-7.5,0.3-9.5,3.9-16.3c1.5-3,2.6-7,4.1-10.6c3.1-7.6-1.6-28.5,1.7-49c1.9-11.2-0.5-20.1,2.9-23.7c6-6.4,9.6-19.7,9.6-19.7
		s28.7-2.6,31.8-0.7c8.3,5.3,7.2,8.5,22.1,7.8c12.8-0.6,17.5-9.5,20.9-10.7C330.8,358.1,354.9,360.1,354.9,360.1z"/>
	<path fill="#F7941E" stroke="#000000" stroke-width="3.3427" stroke-miterlimit="10" d="M392.8,496.9c-0.4-5.1-0.2-9.5-2.7-10.7
		c-1.4-0.6-2.6,0.1-5.9,1.4c-3.9,1.4-7.8,3-11.8,3.3c-6.5,0.5-18.5-0.3-19.5,1c-3.4,4.3,4.6,16,10.4,24.4
		c8.4,12.2,10.8,12.2,12.2,18.3c1.4,5.6-0.4,6.8,1,19.5c1,9.1,2.1,11.7,2.8,12.8c1.2,2.1,2.9,4.6,11.4,10.8
		c8.7,6.4,13,9.5,16.8,10.6c1.1,0.3,13.6,3.4,22-3.8c1.4-1.2,4-3.3,4.5-6.8c0.3-1.4,0.7-5.4-6.7-13.8c-7.5-8.5-12.1-8.9-21.5-18.4
		c-3.7-3.8-5.5-5.6-6.9-8.3c-3.2-6.2-1.3-9.2-2.7-21.5C395.2,504.7,393.6,506.5,392.8,496.9z"/>
	<path fill="#F7941E" stroke="#000000" stroke-width="3.3427" stroke-miterlimit="10" d="M253.8,512.2c2.5-5.5,6.9-14.9,4.1-17.6
		c-1.4-1.3-3.5,0.2-10.2,1.5c-7.3,1.5-15.1,3.1-20.6-0.7c-3.5-2.4-3.7-5.4-5.1-5.2c-4.1,0.5-4.5,23.1-4.6,27.9
		c-0.4,19.7,2.2,20.7-0.3,27.6c-1.8,5-3.5,5.2-19.5,23.1c-11.5,12.8-14.1,16.6-13.1,20.6c1.4,5.9,9.4,8.6,11.3,9.2
		c9.4,3.2,17.9-1.2,19.4-2c4.9-2.7,4.2-4.4,14.5-14.3c7.5-7.1,8.2-6.5,9.4-9.1c2.2-5.1-0.2-8.5-0.5-21.6c-0.1-4.2-0.2-6.3,0.1-8.7
		C240,531.7,246.5,528.1,253.8,512.2z"/>
	<path fill="#00AEEF" stroke="#000000" stroke-width="3.3427" stroke-miterlimit="10" d="M200.2,251.7c0,0,0.3,0.4-8,6.3
		c-7,5-21.3,17.3-33.4,37.3c-11.4,19-9.3,26.5-23.7,47.2c-11.1,15.9-18.8,20.5-21.7,22.2c-11.8,6.6-25,7.8-31.5,8
		c-13.9,0.4-18.9-3.3-21.7,0c-4.8,5.7,4.1,25,18,36.5c7,5.9,17.1,10.2,37.2,18.8c10.6,4.5,9.5,3.7,12.7,5.3
		c18.7,10.2,17.2,22.3,31.2,31c12.2,7.6,13.9,9.3,38.3,7.9c14.3-0.8,23.3,8.9,25.7,5.2c0.5-0.8,1.3-0.9,3.2-5.4
		c2.4-5.5,3.7-9.4,6-15c2-5-5-22.6-0.4-46.5c2.1-10.7,4.8-21.8,8.3-30.6c5.3-13.4,1.3-3.5,5.3-13.4c3.1-7.5,6.8-32.6,8.3-38.2
		c3.6-13.3-15.4-38.7-15.4-45.3c0-2-14.7-14-25.2-23.8C209.4,255.2,201.8,252.5,200.2,251.7z"/>
	<path fill="#00AEEF" stroke="#000000" stroke-width="3.3427" stroke-miterlimit="10" d="M262.3,474.5c1.4,1.4,25.8-10.2,42-10.1
		c24.2,0.2,41.5,11.1,43.5,8.2c2.2-3.2-9.4-9.8-23.2-28.2c-6.5-8.6-19.3-31.4-21.9-31.3c-2.3,0.1-12.2,18.2-22.6,32.1
		C269.7,459.1,261.3,473.4,262.3,474.5z"/>
	<path fill="none" stroke="#C49A6C" stroke-width="3.3427" stroke-miterlimit="10" d="M207.6,139.7c0.5-0.8-1.4-3.4-4-4.5
		c-2.9-1.3-6.4-0.6-6.6,0.3C196.7,137.1,206.6,141.1,207.6,139.7z"/>
	<path fill="none" stroke="#C49A6C" stroke-width="3.3427" stroke-miterlimit="10" d="M354.8,134.5c-0.4-0.8,2.8-4,6.7-5.3
		c3.3-1.2,7.4-1.2,7.6-0.4C369.4,130.4,355.6,135.9,354.8,134.5z"/>
	<g>
		<path fill="#FFFFFF" stroke="#000000" stroke-width="3.3427" stroke-miterlimit="10" d="M333.4,138.8c-2.9,1.9-6-2.7-14-2.3
			c-7.4,0.4-10.3,4.5-12.7,2.9c-3.1-2.1-0.8-10.3,2-19.9c2.2-7.6,4.2-11,7.3-13.2c1.3-1,3.8-2.7,6.5-2.3c1.3,0.2,4.3,1.2,8.1,10.1
			C331.2,115.8,339,135.2,333.4,138.8z"/>
		<path fill="#006838" stroke="#000000" stroke-width="3.3427" stroke-miterlimit="10" d="M328.8,133.8c4.1-6,1.2-12.7,0.7-13.9
			c-0.2-0.5-4.1-8.9-10.3-8.4c-5.7,0.5-8.4,8.2-8.8,9.4c-1.9,5.7,2.3,17,9.8,16C325.2,136.2,325.6,138.4,328.8,133.8z"/>
		<path fill="#2BB673" stroke="#000000" stroke-width="3.3427" stroke-miterlimit="10" d="M319.9,136.4c3.5-0.5,4.7-1.1,4.6-5.1
			c0-1.8-1.3-6.7-4.7-6.5c-3.4,0.2-4.5,1.4-4.5,5.9C315.3,133.9,316.5,136.9,319.9,136.4z"/>
	</g>
	<path fill="none" stroke="#000000" stroke-width="3.3427" stroke-miterlimit="10" d="M273.4,93.4c-5.1-1.4-15.1,0.8-22.2,9.7"/>
	<path fill="none" stroke="#000000" stroke-width="3.3427" stroke-miterlimit="10" d="M331.5,99.4c-0.2-4.8-10.6-8.2-23.2-7.6"/>
	<line fill="none" stroke="#000000" stroke-width="3.3427" stroke-miterlimit="10" x1="261.6" y1="101.6" x2="261.6" y2="101.6"/>
	<g>
		<path fill="none" stroke="#C49A6C" stroke-width="3.3427" stroke-miterlimit="10" d="M297.7,157.2c-0.6-0.4-4.1-3.1-8.5-2.1
			c-3.9,0.9-7.8,4.4-7.4,8.7c0.3,3.2,2.8,5.6,5.2,6.7c3.1,1.4,6.8,0.7,9.5-1.6"/>
	</g>
	<path fill="none" stroke="#BE1E2D" stroke-width="3.3427" stroke-miterlimit="10" d="M339.2,174.1c-1.5-2.1-5.7-4.1-5.7-4.1
		s-3.2,4.7-5.5,8c-7.5,10.7-18.9,14.2-23,15.2c-6.3,1.5-11.3,1.3-16.1,1c-3.8-0.2-9.6,0-16.3-3.1c-3.6-1.6-7.2-3.3-12.6-6.7
		c-5.9-3.7-6.7-5.1-6.7-5.1c-4-3.6-5.1-4.3-5.1-4.3s-1.9,2.4-2.5,4.1"/>
	<g>
		<path fill="#FFFFFF" stroke="#000000" stroke-width="3.3427" stroke-miterlimit="10" d="M278.6,141.4c-2.9,1.9-6-2.7-14-2.3
			c-7.4,0.4-10.3,4.5-12.7,2.9c-3.1-2.1-0.8-10.3,2-19.9c2.2-7.6,4.2-11,7.3-13.2c1.3-1,3.8-2.7,6.5-2.3c1.3,0.2,4.3,1.2,8.1,10.1
			C276.5,118.4,284.3,137.8,278.6,141.4z"/>
		<path fill="#006838" stroke="#000000" stroke-width="3.3427" stroke-miterlimit="10" d="M274,136.4c4.1-6,1.2-12.7,0.7-13.9
			c-0.2-0.5-4.1-8.9-10.3-8.4c-5.7,0.5-8.4,8.2-8.8,9.4c-1.9,5.7,2.3,17,9.8,16C270.5,138.8,270.9,141,274,136.4z"/>
		<path fill="#2BB673" stroke="#000000" stroke-width="3.3427" stroke-miterlimit="10" d="M265.2,139.1c3.5-0.5,4.7-1.1,4.6-5.1
			c0-1.8-1.3-6.7-4.7-6.5c-3.4,0.2-4.5,1.4-4.5,5.9C260.6,136.5,261.8,139.5,265.2,139.1z"/>
	</g>
	
		<use xlink:href="#Blond_Hair_4"  width="22.6" height="15.3" x="-11.3" y="-7.7" transform="matrix(-2.2405 0.1074 -0.1834 -3.8275 211.7553 90.0332)" overflow="visible" enable-background="new    "/>
	
		<use xlink:href="#Blond_Hair_4"  width="22.6" height="15.3" x="-11.3" y="-7.7" transform="matrix(-2.2405 0.1074 -0.1834 -3.8275 203.4226 75.686)" overflow="visible" enable-background="new    "/>
	
		<use xlink:href="#Blond_Hair_4"  width="22.6" height="15.3" x="-11.3" y="-7.7" transform="matrix(7.3448 -1.0617 -0.4991 -3.453 319.3087 73.2398)" overflow="visible" enable-background="new    "/>
	
		<use xlink:href="#Blond_Hair_4"  width="22.6" height="15.3" x="-11.3" y="-7.7" transform="matrix(5.9357 -2.025 -1.1236 -3.2935 309.1876 49.5482)" overflow="visible" enable-background="new    "/>
	
		<use xlink:href="#Blond_Hair_4"  width="22.6" height="15.3" x="-11.3" y="-7.7" transform="matrix(4.3565 -2.564 -1.766 -3.0007 294.5144 32.4618)" overflow="visible" enable-background="new    "/>
	
		<use xlink:href="#Blond_Hair_4"  width="22.6" height="15.3" x="-11.3" y="-7.7" transform="matrix(3.6412 0.2508 0.1283 -1.8636 392.918 118.7064)" overflow="visible" enable-background="new    "/>
	
		<use xlink:href="#Blond_Hair_4"  width="22.6" height="15.3" x="-11.3" y="-7.7" transform="matrix(5.3656 -0.4085 -0.1555 -2.0422 426.7288 165.7039)" overflow="visible" enable-background="new    "/>
	<g>
		<path fill="#F7941E" stroke="#000000" stroke-width="3.3427" stroke-miterlimit="10" d="M122.8,200.2c-13-7.9-7-50.2-28-52.9
			c-11.7-1.4-13.7-4.4-13.6-5c0.1-0.5,13.7,0.6,13.5-3.9c-0.2-4.1-14.7-4.3-14.7-3.8c-0.1,0.6,14.5-0.6,14.4-4.7
			c-0.1-3.6-15.8-1.6-15.8-1.7c0-0.1,15.4-3,15.3-4.7c-0.2-2.9-15.9-2.6-15.9-2.8s15,0.3,15.4-1.6c0.7-3.7-16.2-7.2-15.6-7.1
			c0.3,0,10.8,4.6,13.1,1.7c2.2-2.7-3-9.6-2.1-13.6c0.5-2.2,5.4-3.5,6.8-1.1c2,3.3,3.8,8.1,3.9,10.4c0.2,5.1,1.4,10.5,16.9,30.6
			c26.7,34.8,39,41.3,36.4,50C149.8,199.1,131.8,205.7,122.8,200.2z"/>
		<path fill="none" stroke="#000000" stroke-width="3.3427" stroke-miterlimit="10" d="M77.6,111.9c0,3.1,0.1,6.1,0.2,8.9
			c0.1,2.8,0.3,5.4,0.4,7.7c0.2,2.4,0.4,4.6,0.7,6.5c0.6,4.5,1.4,7.3,2.3,7.3"/>
		<g>
			<g>
				<path d="M78.4,114.5c0,1.2-0.4,3.4,0.4,4.3c0.7,0.9,1.4,0.5,2.2,0.4c1.5-0.1,3,0.8,4.6,0.7c1.7,0,3.4-0.4,4.9-1
					c0.8-0.3,0.8-1.3,0-1.5c-1.9-0.7-3.7-1.5-5.6-2.2c-1.4-0.6-3.2-1.5-4.6-1.4c-0.4,0-0.7,0.2-0.8,0.6c-0.4,1.3-0.6,2.9,0.9,3.3
					c0.6,0.2,1.3,0,1.9,0.2c0.6,0.2,1.2,0.5,1.7,0.7c1.1,0.4,2,0.7,3.1,0.5c0.9-0.1,1.1-1.3,0.2-1.5c-2.1-0.8-4.1-1.7-6.4-2.1
					c-1-0.2-1.4,1.4-0.4,1.5c2.2,0.3,4.2,1.3,6.4,2.1c0.1-0.5,0.1-1.1,0.2-1.5c-1.6,0.2-2.9-0.7-4.4-1.2c-0.3-0.1-1.1-0.4-1.4-0.3
					c-0.7-0.2-0.8,0-0.4,0.4c0-0.6,0.1-1.1,0.2-1.6c-0.3,0.2-0.5,0.4-0.8,0.6c1.5-0.2,3.9,1.2,5.2,1.7c1.5,0.7,3,1.3,4.5,1.8
					c0-0.5,0-1.1,0-1.5c-2.7,0.9-5,1.1-7.7,0.3c-0.7-0.2-1.3-0.2-1.9-0.2c-0.9-0.1-0.3,0.4-0.4-0.4c-0.1-0.9-0.1-1.7,0-2.6
					C80,113.5,78.5,113.6,78.4,114.5L78.4,114.5z"/>
			</g>
		</g>
		<g>
			<g>
				<path d="M78.6,122.8c0.1,1.4,0.2,2.8,0.3,4.1c0.1,0.8,1.1,1.2,1.4,0.4c0.7-1.4,3.8-1.4,5-1.6c1.6-0.4,3.2-0.9,4.7-1.3
					c0.6-0.2,0.8-0.9,0.4-1.4c-1.4-1.6-3.7-1.4-5.6-1.3c-1.3,0-4.9-0.8-5.4,1c-0.3,1.1,0.4,2.4,1.4,2.4c1.3,0.1,2.6-0.3,3.9-0.3
					c1.4,0.1,2.6,0,4-0.3c1-0.3,0.6-1.8-0.4-1.5c-1.5,0.4-3,0.2-4.5,0.2c-0.5,0-1,0-1.4,0.1c-0.2,0-1.7,0.1-1.3,0.2
					c2.3,0.5,6.6-1.4,8.4,0.8c0.1-0.5,0.2-0.9,0.4-1.4c-2.4,0.7-4.7,1.4-7.2,1.7c-1.5,0.2-2.8,0.5-3.6,1.9c0.5,0.1,1,0.3,1.4,0.4
					c-0.1-1.4-0.2-2.8-0.3-4.1C80.1,121.8,78.5,121.8,78.6,122.8L78.6,122.8z"/>
			</g>
		</g>
		<g>
			<g>
				<path d="M83.5,124.1c0.7,0,2-0.3,2.7,0c0.4,0.2,0.7,0.6,1.1,0.7c0.6,0.2,1.4,0.1,1.9,0.1c0.8,0,1.7,0.1,2.5-0.2
					c0.4-0.1,0.6-0.4,0.6-0.8v-0.1c0-0.3-0.2-0.6-0.4-0.7c0,0-0.1,0-0.1-0.1c-0.9-0.6-1.6,0.9-0.8,1.4c0,0,0.1,0,0.1,0.1
					c-0.1-0.2-0.3-0.5-0.4-0.7v0.1c0.2-0.3,0.4-0.5,0.6-0.8c-0.7,0.2-1.6,0.2-2.3,0.1c-0.5,0.1-1,0-1.4-0.3
					c-0.2-0.1-0.3-0.2-0.5-0.4c-1.1-0.4-2.3-0.2-3.5-0.2C82.5,122.4,82.5,124.1,83.5,124.1L83.5,124.1z"/>
			</g>
		</g>
		<g>
			<g>
				<path d="M79.9,126c0.4,0,0.8,0,1.2,0c1.1,0,1.1-1.6,0-1.6c-0.4,0-0.8,0-1.2,0C78.9,124.4,78.9,126,79.9,126L79.9,126z"/>
			</g>
		</g>
		<g>
			<g>
				<path d="M79.6,130.8c4.3,0,8.8,0,13.1,0c-0.1-0.5-0.1-1.1-0.2-1.5c-2.7,0.8-5.4,1.5-8.1,2.3c-0.7,0.2-1.4,0.3-1.9,0.6
					c-0.3,0-0.6,0.2-0.8,0.3c-0.3,0.3-0.4,0.3-0.4-0.2c-1.4-0.9,2-0.5,2.6-0.5c1.4,0,2.6-0.1,4-0.3c0.2,0,1.9-0.2,1.9-0.2
					c0-0.2-1.6-0.2-1.8-0.2c-0.9,0.1-1.6,0.4-2.4,0.7c-0.4,0.2-0.9,0.5-1.4,0.6c-0.5,0.4-1,0.3-1.4-0.2c-0.9-0.1-1.2-0.3-0.7-0.7
					c0.1,0.5,0.1,1,0.2,1.4c0.2-0.1,0.4-0.2,0.6-0.3c1.1-0.1,1.1-1.6,0-1.6c-0.7,0-0.9,0-1.4,0.5c-0.5,0.4-0.6,1.4,0.2,1.4
					c1.4,0.2,2.4-1.4,1.1-2.4c-1.2-1-2.3-0.1-2.5,1.2c-0.3,2.6,2.2,2.9,4.1,2.3c0.8-0.3,1.5-0.8,2.4-1c1-0.3,1.8-0.2,2.8-0.4
					c0.8-0.1,1.7-0.4,2.1-1.2c1.1-2-1.7-1.9-2.9-1.8c-2.3,0.2-4.5,0.4-6.9,0.3c-0.9,0-1.7-0.3-2.2,0.6c-0.6,1,0.2,3.2,1.3,3.5
					c1.4,0.4,4.2-1.1,5.4-1.4c2.2-0.7,4.4-1.3,6.7-1.9c0.9-0.3,0.7-1.5-0.2-1.5c-4.3,0-8.8,0-13.1,0
					C78.5,129.2,78.5,130.8,79.6,130.8L79.6,130.8z"/>
			</g>
		</g>
		<g>
			<g>
				<path d="M80.1,137.5c2.5-0.1,5-0.2,7.5,0.1c1.2,0.1,2.6,0.2,3.8,0.6c0.6,0.2,0.6,0.1,0.1-0.2c-0.7,0.3-1.4,0.6-2.1,0.9
					c-1.1,0.4-2.1,0.7-3.3,0.8c-0.2,0-5.1,0.9-4.2-1c0.3-0.5,3.8-0.7,4.3-0.8c0.7-0.1,4.5-0.1,1.7,0.6c-0.9,0.2-1.7,0.3-2.6,0.5
					c-1.3,0.2-3.5,0.5-1-0.1c0.9-0.2,1.8-0.4,2.8-0.5c0.8,0.2,1.4,0.1,1.8-0.4c-0.1,0-0.1,0-0.2,0c-1.2,0.1-2.4,0.4-3.5,0.7
					c-0.6,0.2-1.2,0.3-1.7,0.5c0.1,0.7,0.5,0.8,1.1,0.3c1,0,2.1-0.5,3.1-0.6c1.1-0.1,0.6-1.6-0.4-1.5c-1.5,0.2-7,0.8-4.9,3.5
					c0.2,0.2,0.6,0.3,0.8,0.2c2.2-0.8,4.4-1,6.7-1.5c0.7-0.2,1.2-0.3,1.4-1.1c0.4-2.2-3.3-1.8-4.4-1.6c-1.4,0.2-6.4,0.1-5.9,2.7
					c0.6,2.6,5.7,0.9,7,0.6c1.4-0.3,4.1-1.4,2.5-3.1c-0.8-0.9-2.3-0.9-3.4-0.8c-1.7,0.2-3.5,0.5-5.2,0.6c-2.1,0.1-2.3,2.9-0.9,4.2
					c1.5,1.4,6.2,0.1,7.9-0.4c1-0.3,6-1.6,4-3.6c-1-1-3.6-0.9-4.9-1c-2.6-0.3-5.3-0.3-7.9-0.2C79.2,135.9,79.2,137.6,80.1,137.5
					L80.1,137.5z"/>
			</g>
		</g>
	</g>
	<path fill="#F7941E" stroke="#000000" stroke-width="3.3427" stroke-miterlimit="10" d="M309.7,223.1c0-0.2-2.3-0.4-3.8-0.5
		c-0.6,0-3.3-0.2-3.3-0.2s0.2,2.4-0.7,5.2c-1.2,3.9-6.3,5.7-8.1,6.1c-1.9,0.4-9.3,0.7-12-2.4c-2-2.3-2-5-2.1-6.6l-6.5,0.6
		c0,0,1.5,7.1,4.5,10.2c3.7,3.9,7.8,5.2,10.8,5.4c2.8,0.2,10.2,0.8,15.1-3.6C308.3,233.4,309.5,224.7,309.7,223.1z"/>
	<g>
		<path fill="#F7941E" stroke="#000000" stroke-width="3.3427" stroke-miterlimit="10" d="M450.8,194.6c12.7-8.4,5.2-50.4,26-53.9
			c11.7-1.9,13.6-4.9,13.4-5.5c-0.1-0.5-13.7,1.1-13.6-3.4c0.1-4.1,14.5-4.8,14.6-4.2c0.1,0.6-14.5-0.1-14.5-4.1
			c0-3.6,15.7-2.2,15.8-2.3c0-0.1-15.5-2.4-15.4-4.1c0.1-2.9,15.8-3.2,15.8-3.4c0-0.2-15,0.9-15.4-1.2c-0.8-3.6,15.9-7.8,15.3-7.7
			c-0.3,0-10.6,5-13,2.2c-2.3-2.6,2.6-9.7,1.6-13.6c-0.6-2.2-5.5-3.3-6.9-0.9c-1.9,3.3-3.5,8.2-3.5,10.5c0,5.1-1.1,10.5-15.7,31.2
			c-25.5,35.8-37.4,42.6-34.5,51.2C423.8,194.5,441.9,200.4,450.8,194.6z"/>
		<path fill="none" stroke="#000000" stroke-width="3.3427" stroke-miterlimit="10" d="M492.8,104.9c0.1,3.2,0.2,3.8,0.2,6.7
			c0,2.9,0.1,8.9,0,11.4c-0.1,2.5-0.4,1.4-0.6,3.5c-0.5,4.7-1.2,7.6-2.1,7.7"/>
		<g>
			<g>
				<path d="M490.7,107.7c0,0.6-0.1,1.3,0.1,1.7c-0.3,0.8-0.1,1.1,0.5,0.8c0.7,0,0.8-0.1,0.1-0.2c-1.1-0.3-2.1,0-3.1,0.3
					c-3.1,0.8-5.7,0.8-8.9,0c0,1.1,0,2,0,3.1c1.9-0.6,3.9-1.4,5.8-2.1c1.5-0.6,4.1-1.9,5.8-1.8c-0.5-0.4-1.1-0.8-1.5-1.2
					c0.2,0.5,0.3,1.2,0.2,1.6c0.3-0.5,0.5-1,0.8-1.4c-0.2,0.1-2.3,0.3-3,0.5c-1.5,0.5-2.9,1.2-4.5,1.2c0,1.1,0,2.1,0,3.2
					c0.3,0,1.3,1.4,1.8,1.6c0.7,0.4,1.4,0.5,2.2,0.2c1.9-0.7,2.3-3.8,4.1-4.3c1.9-0.6,1.2-3.7-0.9-3.1c-1.5,0.5-3.2,2.3-3.8,3.8
					c-0.1,0.2-0.3,0.4-0.4,0.5c0.6,0.2,0.7,0.2,0.3-0.1c-0.4-0.3-0.7-0.7-1-1c-0.7-0.6-1.4-1-2.2-0.9c-2,0.1-2,3.1,0,3.2
					c1.5,0.1,2.9-0.3,4.2-0.8c1.4-0.5,2.7-0.5,4.1-0.9c1.9-0.6,2-2.5,1.4-4.2c-0.3-0.7-0.8-1.2-1.5-1.2c-1.8-0.1-4,1-5.7,1.6
					c-2.2,0.9-4.4,1.7-6.7,2.5c-1.4,0.5-1.6,2.7,0,3.1c1.8,0.4,3.8,0.8,5.7,0.8c2.3,0,4.4-1,6.7-1c3.4,0,3.1-2.6,2.9-5.6
					C493.8,105.6,490.6,105.6,490.7,107.7L490.7,107.7z"/>
			</g>
		</g>
		<g>
			<g>
				<path d="M490.8,114.5c-0.1,1.5-0.1,3-0.2,4.5c1-0.3,2-0.6,3-0.8c-1.1-1.7-2.7-2.1-4.6-2.3c-3.1-0.3-6-0.9-9-1.5
					c0.2,0.9,0.5,1.8,0.7,2.7c1.2-1.3,3.4-0.9,4.9-0.9c1.1,0,4.3-0.5,4.8-0.1c-0.3-0.5-0.5-1-0.8-1.4c0,1.5,0.1,3.2-0.1,4.7
					c1.1-0.1,2.1-0.3,3.2-0.4c-0.1-0.6,0-2.5-0.5-3.6c-0.2-0.5-0.9-0.8-1.4-0.8c-1.4,0-2.8-0.2-4.2-0.2c-1.6,0.1-3.3,0.3-5,0
					c-2-0.4-2.9,2.7-0.9,3.1c1.6,0.3,3.3,0.3,5,0.2c1.7-0.1,3.4,0.1,5.1,0.1c-0.5-0.3-1-0.5-1.4-0.8c0,0.1,0,2,0.1,2.8
					c0.4,1.9,3,1.3,3.2-0.4c0.2-1.8,0.8-5.7-1.4-6.5c-1-0.4-2.3-0.1-3.3,0c-1.4,0-3,0-4.4,0.1c-1.9,0.1-3.9,0.3-5.2,1.8
					c-0.8,0.9-0.5,2.4,0.7,2.7c1.9,0.5,3.9,0.9,5.9,1.2c1.3,0.2,5.1,0.1,5.8,1.2c0.9,1.4,2.9,0.8,3-0.8c0.1-1.5,0.1-3,0.2-4.5
					C494.1,112.4,490.8,112.4,490.8,114.5L490.8,114.5z"/>
			</g>
		</g>
		<g>
			<g>
				<path d="M488.3,114.2c-1.2,0-2.4-0.1-3.5,0.3c-0.2,0.1-0.3,0.2-0.4,0.4c-0.5,0.3-1,0.4-1.4,0.3c-0.7,0.1-1.7,0.1-2.3,0
					c0.2,0.2,0.4,0.4,0.6,0.6v-0.1c-0.1,0.3-0.3,0.6-0.4,0.9c0,0,0.1,0,0.1-0.1c0.9-0.6,0-1.9-0.8-1.4c0,0-0.1,0-0.1,0.1
					c-0.3,0.2-0.4,0.5-0.4,0.9v0.1c0,0.3,0.3,0.5,0.6,0.6c1.2,0.3,3.1,0.3,4.2,0c0.5-0.1,0.8-0.6,1.2-0.7c0.8-0.3,1.9-0.1,2.8-0.1
					C489.4,115.9,489.4,114.2,488.3,114.2L488.3,114.2z"/>
			</g>
		</g>
		<g>
			<g>
				<path d="M492,116.1c-0.4,0-0.8,0-1.2,0c-1.1,0-1.1,1.6,0,1.6c0.4,0,0.8,0,1.2,0C493,117.6,493,116.1,492,116.1L492,116.1z"/>
			</g>
		</g>
		<g>
			<g>
				<path d="M492.6,120.1c-4.8,0.2-9.6,0.4-14.4,0.5c-1.7,0.1-2.2,2.7-0.4,3.2c2.4,0.6,4.9,1.1,7.3,1.6c2,0.5,4.1,1.3,6.3,1.3
					c0.6,0,1.2-0.3,1.4-0.8c0.8-1.4,1.4-3.8-0.3-4.6c-1.1-0.6-2.8-0.1-4,0c-2,0.1-4-0.1-6-0.1c-1.5,0-4.2-0.2-4.1,2.2
					c0.3,2.8,4,2.2,5.8,2.5c2.3,0.4,5.3,2.4,7.4,0.6c1.3-1,1.6-3.5,0.4-4.6c-3.3-2.9-6.4,4.6-1.4,3.8c1.4-0.3,1.4-2.2,0.4-2.9
					c-0.7-0.5-1.1-0.6-1.9-0.6c-2,0-2,3.2,0,3.2c0.1,0,0.2,0.1,0.3,0.1c0.1-1,0.3-1.9,0.4-2.9c0.4,0.2,0.8,0.4,1.2,0.6
					c-0.1,0.5-0.3,1.1-0.4,1.5c-0.2,0.2-4.4-1.7-5.3-1.9c-0.6-0.1-1.3-0.3-1.7-0.3c-0.3,0-0.6,0-0.9,0c-1.6,1.4-1.8,1.9-0.7,1.8
					c1.1,0.6,3.7,0.2,4.8,0.2c1,0,4.1-0.4,4.2-0.3c-0.3-0.5-0.5-1-0.8-1.4c0,0.5-0.1,1-0.3,1.4c0.5-0.3,1-0.5,1.4-0.8
					c-2.1,0-4.4-1-6.5-1.4c-2.1-0.5-4.1-1-6.3-1.4c-0.1,1.1-0.3,2.1-0.4,3.2c4.8-0.2,9.6-0.4,14.4-0.5
					C494.6,123.2,494.6,120,492.6,120.1L492.6,120.1z"/>
			</g>
		</g>
		<g>
			<g>
				<path d="M491.9,126.4c-4.1-0.1-9.8-0.2-13.6,1.9c-2.6,1.4-0.9,4,1,5.1c3,1.7,7.1,3.2,10.6,2.6c3-0.5,3.1-4.6,2.3-6.9
					c-0.2-0.5-0.6-1.1-1.2-1.2c-2.4-0.4-3.4,2-4,4c-0.1,0.3-0.3,0.7-0.4,1c0.9,0.1,1.1-0.1,0.5-0.5c-0.1-0.5-1-1.3-1.4-1.7
					c-0.6-0.9-1.3-1.8-2.1-2.4c-1.8-1.4-4.4-0.1-4.3,2.3c0.2,3.6,5.8,4,8.3,4.4c2.7,0.5,4.8-1.4,3.8-4.1c-0.3-0.8-0.8-2.1-1.4-2.8
					c-0.9-1-1.4-0.7-2.4-0.5c-1.9,0.4-3.7,0.2-5.6,0.5c-1.4,0.2-2.7,0.9-2.9,2.5c-0.1,1.2,0.3,2,1.4,2.5c1,0.5,2.2,0.4,3.3,0.7
					c1.4,0.4,2.9,0.9,4.2,1.5c0.9,0.4,1.6,0.2,2.2-0.6c2.6-3.7-3.8-5.1-6-5.5c-2-0.3-2.9,2.8-0.9,3.1c0.5,0.1,3.8,1.3,4.1,0.8
					c0.8-0.2,1.4-0.4,2.2-0.6c-1.4-0.6-2.7-1.2-4.1-1.6c-1.4-0.4-2.9-0.4-4.2-0.9c0.4,0.4,0.8,0.8,1.2,1.2c-0.6,0.3-0.5,0.4,0.3,0.2
					c0.5-0.1,1-0.1,1.4-0.1c0.8,0,1.5,0.1,2.4,0c0.7-0.1,1.4-0.2,2-0.5c0.9-0.4,1.1,0-0.2-0.3c-0.4-0.4-0.8-0.8-1.2-1.2
					c0.3,0.8,0.9,1.4,1.2,2.2c0.3,0.8,0.3,0.5-0.6,0.2c-0.8-0.3-1.6-0.4-2.5-0.5c-0.3-0.1-3.4-0.7-3.4-0.4c0,0.1,0.8,0.9,1,1.1
					c0.7,0.9,1.3,1.8,2,2.6c1.1,1.2,2.5,2.1,3.9,1c0.7-0.5,1-1.4,1.3-2.1c0.2-0.5,0.4-1,0.6-1.4c0.1-0.3,0.2-0.5,0.3-0.8
					c0.4-0.6,0.2-0.6-0.7-0.2c-0.4-0.4-0.8-0.8-1.2-1.2c0.2,0.7,0.3,2.8,0,3c-0.1,0.1-1.9-0.2-2.3-0.3c-2.2-0.3-3.9-1.4-5.9-2
					c-0.8-0.7-1-0.7-0.6-0.1c0.1,0.6,0.5,0.7,1.2,0.1c1,0,1.9-0.5,2.8-0.7c2.5-0.5,5.1-0.4,7.6-0.4
					C493.9,129.6,493.9,126.4,491.9,126.4L491.9,126.4z"/>
			</g>
		</g>
	</g>
	<g>
		
			<ellipse fill="#39B54A" stroke="#39B54A" stroke-width="3.3427" stroke-miterlimit="10" cx="297" cy="288.1" rx="37.8" ry="36.6"/>
		<polygon fill="#39B54A" stroke="#000000" stroke-width="3.3427" stroke-miterlimit="10" points="318.1,315.9 297,305.3 
			275.9,316.2 279.8,293.5 262.6,277.6 286.2,274.1 296.5,253.3 307.2,273.9 330.7,277 313.8,293.2 		"/>
	</g>
</g>
</svg>
