<?xml version="1.0" encoding="utf-8"?>
<!-- Generator: Adobe Illustrator 18.1.0, SVG Export Plug-In . SVG Version: 6.00 Build 0)  -->
<!DOCTYPE svg PUBLIC "-//W3C//DTD SVG 1.1//EN" "http://www.w3.org/Graphics/SVG/1.1/DTD/svg11.dtd">
<svg version="1.1" id="Layer_1" xmlns="http://www.w3.org/2000/svg" xmlns:xlink="http://www.w3.org/1999/xlink" x="0px" y="0px"
	 viewBox="0 0 600 600" enable-background="new 0 0 600 600" xml:space="preserve">
<symbol  id="Blond_Hair_4" viewBox="-11.3 -7.7 22.6 15.3">
	<g>
		<path fill="#EC5A25" d="M-11.3,6.9c0,0,5.6,2.6,10.6-1.9c5-4.6,5.8-10.2,12-12.7C4.7-6.6,2.2,0.8-1,3.9
			C-6.1,8.8-10.8,6.9-11.3,6.9z"/>
	</g>
</symbol>
<g>
	<path fill="#EF4136" stroke="#F15A29" stroke-width="3.3427" stroke-miterlimit="10" d="M496.2,175.5c-0.2-3-26.7-1.1-44.2-19
		c-6.5-6.7-9.3-13.6-21-22.3c-5.3-4-10.9-7-10.4-8.4c1-2.3,18.4,5.3,21.1,1.3c2.7-4.1-11.8-15.8-27.2-35.3
		c-21.9-27.6-15.9-33.1-32.3-49.5c-19.1-19-41.8-25.9-53.5-29.6c0,0-27.2-9.6-46.9-6.7c-4.9,0.8-9.6,2.1-9.6,2.1s-3.3,1-6.5,2.1
		c-10.5,4.1-35,28.5-36.8,27.1c-1.1-0.8,10.1-14.3,19.7-22.8s22.7-12,22.1-13c-3.5-6.5-51.4,23.1-54.5,25.9
		c-3.4,3,9.5-28.1,8.8-27.7c-1.3,0.8-17.6,24.2-24.7,38.4c-6.8,13.5-6.4,12.4-14.2,25.7c-7.1,12.1-6.8,28-7.3,38
		c-0.5,8.8,0.2,16.7,0.7,20.6c0.7,5.9,1.7,10.4,2.1,12.3c1,4.1,2.8,11.7,6.9,20.1c2.5,5,5.2,9.4,6.8,11.6c0,0,0.8,1.2,1.6,2.3
		c9.4,13.1,20,21.4,20,21.4c4.1,3.3,15.3,13.7,30.6,16.9c10.4,2.2,31.3,5.1,31.8,5.2c0,0-1.3-11.9-0.8-6.6c0,0.1-52.5-4.5-60.6-29.4
		c-3.5-10.7,2.2-29.1-4.5-28.6c-4,0.3-6,3.8-12.2,1.3c-10-4.1-18-19.8-12.4-25.6c3.2-3.3,10.7-2.4,15.5,0.4
		c7.5,4.3,8.7,13.2,10.6,12.8c2.5-0.6-2.7-14.6,4.2-26.8c2.8-4.8,4.8-4.9,10.4-13.8c3.4-5.4,5.1-8.3,6.1-12.5
		c1.9-8.8-2-13.2,0.4-15.5c3.1-3,10.8,3.7,22.5,6.7c16.7,4.2,19.2-4.6,37.6-1.8c13,1.9,10.3,6.2,35,13.9c4.4,1.4,9.4,2.7,13.7,7.1
		c6.8,6.9,7.4,16.3,7.5,17.4c0.5,8.7-3.6,15.1-2.6,15.6c1.3,0.7,5.1-10.8,13.8-12.8c4.2-1,9.6,0.2,12.3,3.9
		c3.5,4.5,1.4,10.9,0.7,13.3c-3.1,9.7-9.8,9.2-13.5,18.4c-2.7,6.7,0.4,7.9-2.5,17.8c-2,7-5.2,12.1-7,14.8
		c-2.7,4.1-6.3,9.5-12.6,13.9c-4.7,3.3-10,4.7-20.7,7.6c0,0-4.9-0.6-19.6,2.8c0.4-3.7-0.4,9.3,1.4,12.4c2.6,4.8,15.2,0.5,28.8-0.3
		c8.8-0.5,6.2,1.2,50.3,9.7c0,0,17.9,3.6,34.9,3.9h0.1c15.6,0.3,23.5,0.4,23.9-1.1c0.6-2.5-22.2-14.4-20.5-11.2
		c0.4,0.7,71.5-4.1,76.1-9.2c5.6-6.1-48-28.9-40.2-29.1C458.1,181.9,496.7,185.5,496.2,175.5z"/>
	<path fill="#F3D9CC" stroke="#F3D9CC" stroke-width="3.3427" stroke-miterlimit="10" d="M281.9,229.3c0,0-1.6-16.1-3.2-25.5
		c0,0-8.1,4.5-29.9-2.6c-2.6-0.9-11.5-2.1-22.1-12.2c-4.9-4.6-6.1-11-7.2-15.3c-2.4-8.9,0.2-9.8-0.1-20.9c0,0,2.2-0.7-3.7-5.3
		c-0.8-0.6-4.4-0.3-5.3,0.2c-1.9,1.1-5.5,2.4-9.4,1.4c-5.8-1.4-8.2-7.1-9.5-10.4c-1.1-2.5-4.1-9.8-0.7-13.6
		c2.6-2.8,7.6-2.4,10.8-1.4c9.9,3.1,12.1,15.4,15.2,14.8c2.6-0.6-3.5-6.4-0.8-20.8c0.8-4.1,1.3-5.8,6.9-12.8
		c4.1-5.1,8-11.7,11.2-17.2c2.6-4.4,0.6-18.4,3.8-19.3c6.4-1.7,8.4,5.4,21.3,9c16.2,4.5,19.7-4.7,38.1-1.8
		c9.4,1.4,5.9,3.5,35.2,14.7c7.1,2.7,9.6,3.7,12.2,6.7c9,11.1,2.2,28.7,3.5,30.4c1,1.3,6.1-9.7,16.6-10.5c3.6-0.3,9.1,0.8,11.1,4.1
		c5.1,8.1-5.9,15.1-13,28.9c-5.5,10.5-5.4,23.9-9.5,32.6c-3.4,7-7.9,12.7-19.8,17.5c-14.2,5.7-27.6,7.4-33.7,4.6l0,0
		c-4.8,9.2,0,18,0,18c0.1,1.1,0.2,2.8,0.3,5c-1.3,1.1-3.5,2.6-6.7,3.7c-0.9,0.3-1.9,0.5-3.2,0.6C285.6,232,281.9,229.3,281.9,229.3z
		"/>
	<path fill="#FFF200" stroke="#000000" stroke-width="3.3427" stroke-miterlimit="10" d="M311.7,222c3.6-3.1,9-2.2,17.3-0.9
		c4.1,0.7,9.4,1.5,15.9,4.6c9.9,4.6,14.9,10.2,24.1,16.7c12.8,9.1,22.8,19.9,35.5,28.6c0.2,0.1,10.6,5,22.3,13.6
		c3.3,2.4,6.8,5.2,8.1,9.9c1.4,5.1-0.1,11.7-3.2,12.6c-2,0.7-3.2-1.6-9.5-4.9c-4.2-2.2-7.8-4.1-12.1-3.8c-4.3,0.4-4.6,2.8-8,3.1
		c-6.3,0.6-14.9-8.4-19.7-11.3c-4.4-2.7-10.1-5.1-17.2-11.3c-3.5-3.1-4.7-5.5-6.8-5.1c-3.2,0.6-2.1,7.4-7.3,16.6
		c-3.4,5.9-3.9,6.6-5.4,11.7c-1.4,4.4-1.6,17.8,1.3,26.4c0,0,1.8,0.7,2.8,9l1.6,5.4c-0.7,2-7.3,0-17.3,0.9
		c-10,0.9-11.2,2.8-16.2,1.8c-5.6-1.1-6-3.4-12.5-5.5c-5.4-1.7-12.2-1.1-14-0.5c-5.3,1.6-6,3.3-12.2,5.7c-1.7,0.7-0.8-0.1-5.7,0.9
		c-8.2,1.5-13.3,1.8-18.3,1.4c-4.5-0.4-5.2-1.1-5.5-1.4c-2.5-2.8,0.1-7.7,1.9-17.4c0.6-3.1,2.2-10.3-0.4-18.9
		c-1.1-3.4-3.9-6.4-8.7-14.4c-5.7-9.5-5.1-9.7-6.9-14.8c-1-2.6-1.2-2.5-9.6-10.2c-8.3-7.5-7.7-6.5-12.2-11.1
		c-4-4.1-14.9-14.7-17.3-18.4c-1.7-2.7-26.5-38.6-31.5-43.6c-2.7-2.8-19.4-29.2-20.2-30.4c-4.3-6.3,13.1-2.4,11.1-2.4
		c-9.3-0.1,2.5-4.1,10.2-6.8c6.3-2.1,1.5-16.1,4-10.9c3.4,7.4,11.7,20.4,19.3,30.8c6.5,8.8,5,5.5,13.6,17.8
		c7.6,11,18.1,21,21.7,24.2c9.7,8.8,14.7,13,23.3,8.9c3.5-1.6,7.3-3,15.4-5.1c9.6-2.5,11.4-1.8,12.4-1.2c3.6,2.4,1,7.2,4.9,11.7
		s10.7,4.2,13.2,4.2c2.6-0.1,7.9-0.2,11.8-3.9C310.5,230.4,307.7,225.5,311.7,222z"/>
	<polygon fill="#F7941E" stroke="#000000" stroke-width="3.3427" stroke-miterlimit="10" points="309.3,255.6 330.8,275.7 
		311.7,306.4 270.1,308.4 248.2,280.2 268.2,257.6 	"/>
	<polygon fill="#27AAE1" stroke="#000000" stroke-width="3.3427" stroke-miterlimit="10" points="315.7,276.4 303.6,296 279,297.1 
		263.3,278.9 269.9,269.4 307.2,267.6 	"/>
	<path fill="#F7941E" stroke="#000000" stroke-width="3.3427" stroke-miterlimit="10" d="M428.8,308.4c1.1,3.5-3,10.1-10.5,18.3
		c-16.3,17.8-18.7,15.7-25.4,25.1c-6.5,9.1-7.4,15.7-16.8,23.1c-4.1,3.2-6.8,4.3-9.5,3.7c-5.3-1.3-7.5-9.1-8.8-13.7
		c-1.4-5.3-3.3-11.8,0.3-16.8c2.7-3.9,7.2-5,10.5-5.9c7.2-1.9,9.3,0.7,12.9-0.6c11-3.9,4.6-31.8,17.6-38.8c5.4-2.9,11.4-2.7,14.5-2
		C416.8,301.4,427.3,303.3,428.8,308.4z"/>
	<path fill="#F7941E" stroke="#000000" stroke-width="3.3427" stroke-miterlimit="10" d="M169.7,152.5c4.1-12.4-26.3-19.9-27.1-34.6
		c-0.4-7.5,6-10,4.3-18.7c-1.6-8.6-9.3-13.1-10.1-13.6c-6.9-4-17.7-4.7-22,0.8c-2.7,3.4-2,8.1-1.4,11.8c1.6,9.8,6.4,12.8,11.7,22.5
		c2.3,4.2,1.1,3,11.6,32.4c3.4,9.4,4.9,13.6,9,14.9c5.9,1.9,14.1-1,16-2.4C163.8,163.7,167.8,158.1,169.7,152.5z"/>
	<path fill="#F7941E" stroke="#000000" stroke-width="3.3427" stroke-miterlimit="10" d="M351,346.2c1.3,4,2.5,7.8,3.9,11.8
		l-35.1,1.6l-4.4-12.8L351,346.2z"/>
	<polygon fill="#F7941E" stroke="#000000" stroke-width="3.3427" stroke-miterlimit="10" points="275.8,349.4 276.5,363.8 
		244.6,363.2 247.8,350.1 	"/>
	<path fill="#ED1C24" stroke="#000000" stroke-width="3.3427" stroke-miterlimit="10" d="M314.3,349c0.5,0.8,4.5,7.4,1.7,14
		c-3.6,8.6-15.1,9.4-17.5,9.5c-2.6,0.2-15.2,0.6-20.4-8.8c-0.2-0.4-4.1-7.6-0.7-14.6c4.8-9.7,19.1-8.7,20.7-8.6
		C300.7,340.8,309.7,341.6,314.3,349z"/>
	<path fill="#FFFFFF" stroke="#000000" stroke-width="3.3427" stroke-miterlimit="10" d="M305.7,351.6c2.2,3,2,7.4-0.1,10.3
		c-3.4,4.6-11,4.1-15.1,0.8c-2.3-1.8-4.9-5.6-3.7-9.1c1.3-3.4,5.5-4.2,7.3-4.7C295.9,348.5,302.5,347.2,305.7,351.6z"/>
	<path fill="#FFF200" stroke="#000000" stroke-width="3.3427" stroke-miterlimit="10" d="M354.9,360.1c0,0,3.7,9,7.1,19.2
		c0.6,1.7,3,9.4,4.4,13.9c9.3,27.4,8.6,55.4,11.8,58.1c4.2,3.5,4.8,6.4,6.2,11.5c1.6,6.4,1.8,9.8,2.3,15.6c0.3,3,1.7,5,1.4,6.9
		c-0.4,2.8-4.8,4.2-7.9,5.2c-1.6,0.6-8.9,2-14.7,1.9c-6.2-0.1-13.7-2.6-13.7-2.6l-0.1-2.1c0,0-1-7.3-2.4-10.8
		c-4.3-10.6-9.6-17.6-17.1-25.3c-22.9-24-24.9-37.2-29.8-38.8c0,0-8.3,13.8-31.2,44.4c-6.9,9.3-12.5,15.6-12.3,25
		c0.1,5.5,2.2,10.7-1,14.1c-0.7,0.8-2,1.8-10.1,2.7c-14.8,1.5-19.3-0.9-20.6-1.7c-1.5-0.9-4.3-2.6-4.5-5.2c-0.3-2.4-0.7-4.4-0.4-7.5
		c0.9-7.5,0.3-9.5,3.9-16.3c1.5-3,2.6-7,4.1-10.6c3.1-7.6-1.6-28.5,1.7-49c1.9-11.2-0.5-20.1,2.9-23.7c6-6.4,9.6-19.7,9.6-19.7
		s28.7-2.6,31.8-0.7c8.3,5.3,7.2,8.5,22.1,7.8c12.8-0.6,17.5-9.5,20.9-10.7C330.8,358.1,354.9,360.1,354.9,360.1z"/>
	<path fill="#F7941E" stroke="#000000" stroke-width="3.3427" stroke-miterlimit="10" d="M392.8,496.9c-0.4-5.1-0.2-9.5-2.7-10.7
		c-1.4-0.6-2.6,0.1-5.9,1.4c-3.9,1.4-7.8,3-11.8,3.3c-6.5,0.5-18.5-0.3-19.5,1c-3.4,4.3,4.6,16,10.4,24.4
		c8.4,12.2,10.8,12.2,12.2,18.3c1.4,5.6-0.4,6.8,1,19.5c1,9.1,2.1,11.7,2.8,12.8c1.2,2.1,2.9,4.6,11.4,10.8
		c8.7,6.4,13,9.5,16.8,10.6c1.1,0.3,13.6,3.4,22-3.8c1.4-1.2,4-3.3,4.5-6.8c0.3-1.4,0.7-5.4-6.7-13.8c-7.5-8.5-12.1-8.9-21.5-18.4
		c-3.7-3.8-5.5-5.6-6.9-8.3c-3.2-6.2-1.3-9.2-2.7-21.5C395.2,504.7,393.6,506.5,392.8,496.9z"/>
	<path fill="#F7941E" stroke="#000000" stroke-width="3.3427" stroke-miterlimit="10" d="M253.8,512.2c2.5-5.5,6.9-14.9,4.1-17.6
		c-1.4-1.3-3.5,0.2-10.2,1.5c-7.3,1.5-15.1,3.1-20.6-0.7c-3.5-2.4-3.7-5.4-5.1-5.2c-4.1,0.5-4.5,23.1-4.6,27.9
		c-0.4,19.7,2.2,20.7-0.3,27.6c-1.8,5-3.5,5.2-19.5,23.1c-11.5,12.8-14.1,16.6-13.1,20.6c1.4,5.9,9.4,8.6,11.3,9.2
		c9.4,3.2,17.9-1.2,19.4-2c4.9-2.7,4.2-4.4,14.5-14.3c7.5-7.1,8.2-6.5,9.4-9.1c2.2-5.1-0.2-8.5-0.5-21.6c-0.1-4.2-0.2-6.3,0.1-8.7
		C240,531.7,246.5,528.1,253.8,512.2z"/>
	<path fill="#00AEEF" stroke="#000000" stroke-width="3.3427" stroke-miterlimit="10" d="M203.2,248.7c0,0-2.6,3.3-11,9.2
		c-7,5-21.3,17.3-33.4,37.3c-11.4,19-9.3,26.5-23.7,47.2c-11.1,15.9-18.8,20.5-21.7,22.2c-11.8,6.6-25,7.8-31.5,8
		c-13.9,0.4-18.9-3.3-21.7,0c-4.8,5.7,4.1,25,18,36.5c7,5.9,17.1,10.2,37.2,18.8c10.6,4.5,9.5,3.7,12.7,5.3
		c18.7,10.2,17.2,22.3,31.2,31c12.2,7.6,13.9,9.3,38.3,7.9c14.3-0.8,23.3,8.9,25.7,5.2c0.5-0.8,1.3-0.9,3.2-5.4
		c2.4-5.5,3.7-9.4,6-15c2-5-5-22.6-0.4-46.5c2.1-10.7,4.8-21.8,8.3-30.6c5.3-13.4,1.3-3.5,5.3-13.4c3.1-7.5,6.8-32.6,8.3-38.2
		c3.6-13.3-15.4-38.7-15.4-45.3c0-2-14.7-14-25.2-23.8C209.4,255.2,204.6,250.1,203.2,248.7z"/>
	<path fill="#00AEEF" stroke="#000000" stroke-width="3.3427" stroke-miterlimit="10" d="M262.3,474.5c1.4,1.4,25.8-10.2,42-10.1
		c24.2,0.2,41.5,11.1,43.5,8.2c2.2-3.2-9.4-9.8-23.2-28.2c-6.5-8.6-19.3-31.4-21.9-31.3c-2.3,0.1-12.2,18.2-22.6,32.1
		C269.7,459.1,261.3,473.4,262.3,474.5z"/>
	<path fill="#00AEEF" stroke="#000000" stroke-width="3.3427" stroke-miterlimit="10" d="M385.6,458.8c6.6,6.4,13.8-9.7,29-16
		c15.2-6.3,19.4,2,32.3-3.2c18.6-7.4,12.9-25.5,34.4-39.5c3.7-2.4,14.9-6.6,37.2-14.8c18.5-6.8,21.2-7.2,22.3-10.3
		c3.8-10.9-25.9-21.6-56.9-58c-17.8-20.9-16.2-27-34-42.8c-11.5-10.2-21.6-16-42-27.8c-16.2-9.4-27.8-14.6-41.5-18
		c-8-2-23.9-2.1-23.9-2.1s7.6,6.6,23.5,17.3c23,15.4,19.2,15.9,37,27.5c19.8,12.8,29.4,15.5,31,25.1c0.9,4.9-1,8.9-3.7,14.8
		c-4.4,9.7-9.2,12.2-22.6,26.5c-10.9,11.8-16.4,17.6-19.5,22.6c-4.1,6.7-6.3,12.2-12.8,15.8c-6.7,3.7-13.7-0.4-12.8,3.9
		c1.3,6,9.3,19.7,11.3,47.7c0.5,6.7,1.3,13.7,3.2,21.8C378.4,453.7,381.7,455,385.6,458.8z"/>
	<g>
		<path fill="#00AEEF" stroke="#000000" stroke-width="3.3427" stroke-miterlimit="10" d="M356.1,274.8c5.5-4.4,6.1,3.2,21.5,12.6
			c11.4,7,19.8,8.5,19.9,12.2c0,2.5,0,2.5-2.8,7.3c-5.2,9.2-2,24.9-10.1,32.7c-5.6,5.3-15-1.4-22.6,4.9c-6.8,5.7-7.4,13.8-9.7,13.6
			c-2-0.2-2.8-7-3.7-12.7c-1.4-8.6-5-14.5-6.3-19.6c-2.2-8.7-2-15.8-1.6-18.8c0.4-2.6,4.1-7.5,6.3-15.1
			C348.9,285.3,353.9,276.7,356.1,274.8z"/>
	</g>
	<path fill="#F7941E" stroke="#000000" stroke-width="3.3427" stroke-miterlimit="10" d="M307.3,222.6c-0.2-0.2,0,0.9-2.7-0.3
		c-2.2-1.1-1.9-0.8-1.9-0.8s0.2,3.4-0.6,6.1c-1.2,3.9-6.3,5.7-8.1,6.1c-1.9,0.4-9.4,0.9-12-2.4c-2-2.6-2.2-8.7-2.2-8.7l-6.8,0.3
		c0,0,1.9,9.4,4.9,12.4c3.7,3.9,7.8,4.1,10.8,4.3c2.8,0.2,9.2,0.6,14.1-3.8C307.3,232,309,224.4,307.3,222.6z"/>
	<path fill="none" stroke="#C49A6C" stroke-width="3.3427" stroke-miterlimit="10" d="M207.6,139.7c0.5-0.8-1.4-3.4-4-4.5
		c-2.9-1.3-6.4-0.6-6.6,0.3C196.7,137.1,206.6,141.1,207.6,139.7z"/>
	<path fill="none" stroke="#C49A6C" stroke-width="3.3427" stroke-miterlimit="10" d="M354.8,134.5c-0.4-0.8,2.8-4,6.7-5.3
		c3.3-1.2,7.4-1.2,7.6-0.4C369.4,130.4,355.6,135.9,354.8,134.5z"/>
	<g>
		<path fill="#FFFFFF" stroke="#000000" stroke-width="3.3427" stroke-miterlimit="10" d="M333.4,138.8c-2.9,1.9-6-2.7-14-2.3
			c-7.4,0.4-10.3,4.5-12.7,2.9c-3.1-2.1-0.8-10.3,2-19.9c2.2-7.6,4.2-11,7.3-13.2c1.3-1,3.8-2.7,6.5-2.3c1.3,0.2,4.3,1.2,8.1,10.1
			C331.2,115.8,339,135.2,333.4,138.8z"/>
		<path fill="#006838" stroke="#000000" stroke-width="3.3427" stroke-miterlimit="10" d="M328.8,133.8c4.1-6,1.2-12.7,0.7-13.9
			c-0.2-0.5-4.1-8.9-10.3-8.4c-5.7,0.5-8.4,8.2-8.8,9.4c-1.9,5.7,2.3,17,9.8,16C325.2,136.2,325.6,138.4,328.8,133.8z"/>
		<path fill="#2BB673" stroke="#000000" stroke-width="3.3427" stroke-miterlimit="10" d="M319.9,136.4c3.5-0.5,4.7-1.1,4.6-5.1
			c0-1.8-1.3-6.7-4.7-6.5c-3.4,0.2-4.5,1.4-4.5,5.9C315.3,133.9,316.5,136.9,319.9,136.4z"/>
	</g>
	<path fill="none" stroke="#000000" stroke-width="3.3427" stroke-miterlimit="10" d="M273.4,93.4c-5.1-1.4-15.1,0.8-22.2,9.7"/>
	<path fill="none" stroke="#000000" stroke-width="3.3427" stroke-miterlimit="10" d="M331.5,99.4c-0.2-4.8-10.6-8.2-23.2-7.6"/>
	<line fill="none" stroke="#000000" stroke-width="3.3427" stroke-miterlimit="10" x1="261.6" y1="101.6" x2="261.6" y2="101.6"/>
	<g>
		<path fill="none" stroke="#C49A6C" stroke-width="3.3427" stroke-miterlimit="10" d="M297.7,157.2c-0.6-0.4-4.1-3.1-8.5-2.1
			c-3.9,0.9-7.8,4.4-7.4,8.7c0.3,3.2,2.8,5.6,5.2,6.7c3.1,1.4,6.8,0.7,9.5-1.6"/>
	</g>
	<path fill="none" stroke="#BE1E2D" stroke-width="3.3427" stroke-miterlimit="10" d="M339.2,174.1c-1.5-2.1-5.7-4.1-5.7-4.1
		s-3.2,4.7-5.5,8c-7.5,10.7-18.9,14.2-23,15.2c-6.3,1.5-11.3,1.3-16.1,1c-3.8-0.2-9.6,0-16.3-3.1c-3.6-1.6-7.2-3.3-12.6-6.7
		c-5.9-3.7-6.7-5.1-6.7-5.1c-4-3.6-5.1-4.3-5.1-4.3s-1.9,2.4-2.5,4.1"/>
	<g>
		<path fill="#FFFFFF" stroke="#000000" stroke-width="3.3427" stroke-miterlimit="10" d="M278.6,141.4c-2.9,1.9-6-2.7-14-2.3
			c-7.4,0.4-10.3,4.5-12.7,2.9c-3.1-2.1-0.8-10.3,2-19.9c2.2-7.6,4.2-11,7.3-13.2c1.3-1,3.8-2.7,6.5-2.3c1.3,0.2,4.3,1.2,8.1,10.1
			C276.5,118.4,284.3,137.8,278.6,141.4z"/>
		<path fill="#006838" stroke="#000000" stroke-width="3.3427" stroke-miterlimit="10" d="M274,136.4c4.1-6,1.2-12.7,0.7-13.9
			c-0.2-0.5-4.1-8.9-10.3-8.4c-5.7,0.5-8.4,8.2-8.8,9.4c-1.9,5.7,2.3,17,9.8,16C270.5,138.8,270.9,141,274,136.4z"/>
		<path fill="#2BB673" stroke="#000000" stroke-width="3.3427" stroke-miterlimit="10" d="M265.2,139.1c3.5-0.5,4.7-1.1,4.6-5.1
			c0-1.8-1.3-6.7-4.7-6.5c-3.4,0.2-4.5,1.4-4.5,5.9C260.6,136.5,261.8,139.5,265.2,139.1z"/>
	</g>
	
		<use xlink:href="#Blond_Hair_4"  width="22.6" height="15.3" x="-11.3" y="-7.7" transform="matrix(-2.2405 0.1074 -0.1834 -3.8275 211.7553 90.0332)" overflow="visible"/>
	
		<use xlink:href="#Blond_Hair_4"  width="22.6" height="15.3" x="-11.3" y="-7.7" transform="matrix(-2.2405 0.1074 -0.1834 -3.8275 203.4226 75.686)" overflow="visible" enable-background="new    "/>
	
		<use xlink:href="#Blond_Hair_4"  width="22.6" height="15.3" x="-11.3" y="-7.7" transform="matrix(7.3448 -1.0617 -0.4991 -3.453 319.3087 73.2398)" overflow="visible" enable-background="new    "/>
	
		<use xlink:href="#Blond_Hair_4"  width="22.6" height="15.3" x="-11.3" y="-7.7" transform="matrix(5.9357 -2.025 -1.1236 -3.2935 309.1876 49.5482)" overflow="visible" enable-background="new    "/>
	
		<use xlink:href="#Blond_Hair_4"  width="22.6" height="15.3" x="-11.3" y="-7.7" transform="matrix(4.3565 -2.564 -1.766 -3.0007 294.5144 32.4618)" overflow="visible" enable-background="new    "/>
	
		<use xlink:href="#Blond_Hair_4"  width="22.6" height="15.3" x="-11.3" y="-7.7" transform="matrix(3.6412 0.2508 0.1283 -1.8636 392.918 118.7064)" overflow="visible" enable-background="new    "/>
	
		<use xlink:href="#Blond_Hair_4"  width="22.6" height="15.3" x="-11.3" y="-7.7" transform="matrix(5.3656 -0.4085 -0.1555 -2.0422 426.7288 165.7039)" overflow="visible" enable-background="new    "/>
	
		<use xlink:href="#Blond_Hair_4"  width="22.6" height="15.3" x="-11.3" y="-7.7" transform="matrix(3.8132 -0.2903 -0.1943 -2.5527 388.0823 213.9199)" overflow="visible" enable-background="new    "/>
	
		<use xlink:href="#Blond_Hair_4"  width="22.6" height="15.3" x="-11.3" y="-7.7" transform="matrix(5.6779 -0.4323 -0.2197 -2.8854 425.4958 192.0375)" overflow="visible" enable-background="new    "/>
</g>
</svg>
