<?xml version="1.0" encoding="utf-8"?>
<!-- Generator: Adobe Illustrator 18.1.0, SVG Export Plug-In . SVG Version: 6.00 Build 0)  -->
<!DOCTYPE svg PUBLIC "-//W3C//DTD SVG 1.1//EN" "http://www.w3.org/Graphics/SVG/1.1/DTD/svg11.dtd">
<svg version="1.1" id="Layer_1" xmlns="http://www.w3.org/2000/svg" xmlns:xlink="http://www.w3.org/1999/xlink" x="0px" y="0px"
	 viewBox="0 0 151.2 187.7" enable-background="new 0 0 151.2 187.7" xml:space="preserve">
<path stroke="#000000" stroke-miterlimit="10" d="M11.2,59.3c0-0.9,8.3-0.7,13.5-6.6c1.9-2.2,2.7-4.4,6.2-7.3
	c1.6-1.3,3.3-2.4,3.1-2.8c-0.3-0.7-5.7,1.9-6.6,0.7c-0.9-1.2,3.4-5.1,8-11.4c6.4-8.9,4.5-10.6,9.3-15.9C50.4,9.8,57.3,7.3,61,6
	c0,0,8.3-3.4,14.5-2.8c1.5,0.2,3,0.5,3,0.5c0,0,1,0.2,2,0.6c3.3,1.1,11.3,8.3,11.9,7.9C92.7,12,89,8,85.9,5.5
	c-3.1-2.5-7.2-3.4-7.1-3.7c1-2.1,16.4,6.4,17.4,7.3c1.1,0.9-3.4-8.6-3.2-8.5c0.4,0.2,5.8,7.3,8.3,11.6c2.3,4.1,2.2,3.8,4.8,7.8
	c2.4,3.6,2.5,8.6,2.8,11.7c0.3,2.7,0.2,5.2,0.1,6.4c-0.1,1.9-0.4,3.3-0.5,3.9c-0.2,1.3-0.7,3.7-1.9,6.4c-0.7,1.6-1.5,3-1.9,3.7
	c0,0-0.2,0.4-0.5,0.8c-2.7,4.2-5.9,7-5.9,7c-1.3,1.1-4.6,4.5-9.3,5.7c-3.2,0.8-9.7,2.1-9.8,2.1c0,0,0.2-3.7,0.1-2
	c0,0,16.3-2.2,18.4-10.1c0.9-3.4-1.1-9,1-9c1.2,0,1.9,1.1,3.8,0.2c3.1-1.4,5.3-6.4,3.5-8.1c-1-1-3.4-0.6-4.8,0.3
	c-2.3,1.5-2.5,4.2-3.1,4.1c-0.8-0.1,0.6-4.6-1.7-8.3c-0.9-1.5-1.6-1.5-3.5-4.1c-1.1-1.6-1.7-2.5-2.1-3.8c-0.7-2.7,0.4-4.2-0.3-4.8
	c-1-0.9-3.3,1.3-6.9,2.4c-5.1,1.6-6.1-1.1-11.8,0c-4,0.8-3.1,2.1-10.7,4.8c-1.4,0.5-2.9,1-4.1,2.4c-2,2.3-2.1,5.2-2.1,5.5
	c0,2.7,1.3,4.7,1,4.8c-0.4,0.2-1.7-3.3-4.5-3.8c-1.3-0.2-3,0.2-3.8,1.4c-1,1.5-0.3,3.4,0,4.1c1.1,3,3.2,2.7,4.5,5.5
	c0.9,2,0,2.5,1,5.5c0.7,2.2,1.8,3.7,2.4,4.5c0.9,1.2,2.1,2.9,4.1,4.1c1.5,1,3.2,1.3,6.6,2.1c0,0,1.5-0.2,6.1,0.6
	c-0.2-1.1,0.2,2.9-0.3,3.9c-0.7,1.5-4.7,0.4-9,0.3c-2.8,0-1.9,0.4-15.6,3.8c0,0-5.5,1.4-10.8,1.7c0,0,0,0,0,0
	c-4.9,0.3-7.3,0.5-7.5,0c-0.2-0.8,6.7-4.8,6.2-3.8c-0.1,0.2-22.3-0.2-23.9-1.7C10,68.5,26.4,60.6,24,60.6
	C23.1,60.7,11.2,62.4,11.2,59.3z"/>
<path fill="#E8B68A" stroke="#E8B68A" stroke-miterlimit="10" d="M78.7,72.8c0,0,0.3-5,0.6-8c0,0,2.6,1.3,9.3-1.3
	c0.8-0.3,3.5-0.8,6.7-4.1c1.5-1.5,1.7-3.5,2-4.9c0.6-2.8-0.2-3.1-0.3-6.5c0,0-0.7-0.2,1.1-1.7c0.2-0.2,1.4-0.2,1.7,0
	c0.6,0.3,1.7,0.7,2.9,0.3c1.8-0.5,2.4-2.4,2.8-3.4c0.3-0.8,1.1-3.1,0-4.2c-0.8-0.8-2.4-0.6-3.4-0.3c-3.1,1.1-3.5,5-4.5,4.8
	c-0.8-0.1,1-2-0.1-6.5c-0.3-1.3-0.5-1.8-2.4-3.9c-1.4-1.5-2.7-3.5-3.7-5.2c-0.9-1.3-0.4-5.7-1.5-6c-2-0.4-2.5,1.8-6.5,3.1
	c-5,1.7-6.2-1.2-11.9,0c-2.9,0.6-1.8,1.2-10.8,5.1c-2.2,1-3,1.3-3.7,2.3c-2.6,3.6-0.3,9-0.6,9.5c-0.3,0.4-2-3-5.3-3
	c-1.1,0-2.8,0.4-3.4,1.4c-1.5,2.6,2.1,4.6,4.5,8.8c1.9,3.2,2.1,7.4,3.5,10c1.1,2.2,2.6,3.8,6.4,5.2c4.5,1.6,8.7,1.9,10.5,0.9
	c0,0,0,0,0,0C74.4,68.1,73,71,73,71c0,0.3,0,0.9,0,1.6c0.4,0.3,1.1,0.8,2.1,1c0.3,0.1,0.6,0.1,1,0.1C77.6,73.7,78.7,72.8,78.7,72.8z
	"/>
<path fill="#9E1F63" stroke="#000000" stroke-miterlimit="10" d="M70.1,71.5c-1.2-0.9-2.8-0.5-5.4,0c-1.2,0.3-2.9,0.6-4.9,1.7
	c-3,1.6-4.5,3.4-7.3,5.6c-3.9,3-6.8,6.5-10.6,9.4c-0.1,0-3.2,1.7-6.7,4.6c-1,0.8-2,1.7-2.4,3.2c-0.4,1.6,0.2,3.6,1.2,3.9
	c0.6,0.2,1-0.6,2.9-1.7c1.3-0.8,2.4-1.4,3.7-1.3c1.4,0.1,1.5,0.8,2.5,0.8c1.9,0.1,4.3-3.3,5.8-4.3c1.3-0.9,3.2-1.3,5.3-3.3
	c1-1,1.4-1.8,2-1.7c1,0.1,0.8,2.3,2.5,5.1c1.1,1.8,1.3,2,1.8,3.6c0.5,1.4,0.8,5.5,0,8.3c0,0-0.6,0.2-0.7,2.8l-0.4,1.7
	c0.3,0.6,2.3-0.1,5.4,0c3.1,0.1,3.5,0.7,5.1,0.3c1.7-0.4,1.8-1.2,3.8-1.9c1.7-0.6,3.8-0.5,4.3-0.4c1.7,0.4,1.9,0.9,3.9,1.6
	c0.6,0.2,0.3,0,1.8,0.2c2.6,0.4,4.2,0.4,5.7,0.2c1.4-0.2,1.6-0.4,1.7-0.5c0.7-0.9-0.7-2.4-1.3-5.4c-0.2-0.9-0.8-3.5,0-6.2
	c0.5-1.7,1-1.6,2.2-4.2c1.6-3.5,2.2-4.2,2.2-5.1c-0.1-1.3,0.4,0.7,3.3-1.5c2.8-2.1,2.8-2.1,4.1-3.6c1.2-1.3,3.9-6.3,4.6-7.5
	c0.5-0.9,7.7-12.4,9.2-14.1c0.8-0.9,5.6-9.4,5.8-9.8c1.2-2-4.1-0.5-3.5-0.6c2.9-0.2-0.9-1.3-3.3-2c-2-0.6-1-5.3-1.7-3.7
	c-0.9,2.4-3,6.8-5.2,10.2c-1.9,2.8-1.5,1.8-4,5.8c-2.2,3.5-5.3,6.8-6.4,7.9c-2.9,2.9-4.4,4.3-7.1,3.1c-1.1-0.5-2.3-0.8-4.9-1.3
	c-3.1-0.6-3.6-0.4-3.9-0.2c-1.1,0.8-0.2,2.3-1.3,3.7c-1.2,1.4-3.3,1.5-4,1.5c-0.8,0-2.5,0.1-3.7-1C70.7,74.1,71.5,72.5,70.1,71.5z"
	/>
<polygon fill="#27AAE1" stroke="#000000" stroke-miterlimit="10" points="70.6,81.4 64.2,88 70.6,97.3 83.6,97.3 90,88.2 83.4,81.4 
	"/>
<polygon stroke="#000000" stroke-miterlimit="10" points="68.9,88 73,93.9 80.6,93.9 85.3,88 83.1,85.1 71.4,85.1 "/>
<path stroke="#000000" stroke-miterlimit="10" d="M34.2,99.6c-0.3,1.1,1.1,3.1,3.5,5.6c5.3,5.3,6.1,4.6,8.3,7.4
	c2.2,2.7,2.6,4.8,5.6,6.9c1.3,0.9,2.2,1.2,3,1c1.6-0.5,2.2-2.9,2.5-4.4c0.4-1.7,0.8-3.7-0.3-5.2c-0.9-1.2-2.3-1.5-3.4-1.7
	c-2.3-0.5-2.9,0.3-4,0c-3.5-1-1.9-9.8-6.1-11.8c-1.7-0.8-3.6-0.7-4.5-0.4C37.8,97.3,34.6,98.1,34.2,99.6z"/>
<path stroke="#000000" stroke-miterlimit="10" d="M112.5,47.2c-1.5-3.8,7.9-6.6,7.9-11.2c0-2.3-2-3-1.6-5.8c0.4-2.7,2.7-4.2,2.9-4.4
	c2.1-1.3,5.4-1.7,6.9-0.1c0.9,1,0.7,2.5,0.6,3.6c-0.4,3.1-1.8,4.1-3.3,7.2c-0.7,1.4-0.3,0.9-3.1,10.3c-0.9,3-1.3,4.3-2.6,4.8
	c-1.8,0.7-4.4-0.1-5-0.5C114.6,50.6,113.2,49,112.5,47.2z"/>
<path stroke="#000000" stroke-miterlimit="10" d="M59,110.3c-0.3,1.2-0.7,2.5-1,3.7h11l1.2-4L59,110.3z"/>
<polygon stroke="#000000" stroke-miterlimit="10" points="82.4,110.2 82.4,114.7 92.4,114 91.2,109.9 "/>
<path fill="#00AEEF" stroke="#000000" stroke-miterlimit="10" d="M70.4,110.6c-0.1,0.3-1.3,2.4-0.3,4.4c1.2,2.6,4.9,2.7,5.6,2.7
	c0.8,0,4.7,0,6.2-3c0.1-0.1,1.2-2.4,0-4.6c-1.6-3-6.1-2.4-6.6-2.4C74.5,107.9,71.8,108.2,70.4,110.6z"/>
<path fill="#FFFFFF" stroke="#000000" stroke-miterlimit="10" d="M73.1,111.3c-0.6,1-0.5,2.3,0.2,3.2c1.1,1.4,3.5,1.1,4.7,0
	c0.7-0.6,1.4-1.8,1-2.9c-0.4-1-1.8-1.3-2.4-1.3C76.2,110.2,74.1,109.8,73.1,111.3z"/>
<path fill="#9E1F63" stroke="#000000" stroke-miterlimit="10" d="M58,114.7c0,0-1,2.8-1.9,6.1c-0.2,0.5-0.8,3-1.2,4.4
	c-2.5,8.7-1.9,17.4-2.8,18.3c-1.3,1.2-1.4,2-1.8,3.7c-0.4,2-0.4,3.1-0.5,4.9c0,0.9-0.5,1.6-0.3,2.2c0.2,0.9,1.6,1.3,2.5,1.5
	c0.5,0.2,2.8,0.5,4.6,0.4c1.9-0.1,4.2-1,4.2-1v-0.7c0,0,0.2-2.3,0.6-3.4c1.2-3.4,2.8-5.6,4.9-8.1c6.8-7.8,7.2-12,8.7-12.5
	c0,0,2.8,4.2,10.4,13.4c2.3,2.8,4.1,4.7,4.2,7.6c0,1.7-0.5,3.4,0.5,4.4c0.2,0.2,0.6,0.5,3.2,0.7c4.6,0.3,6-0.6,6.4-0.8
	c0.5-0.3,1.3-0.9,1.3-1.7c0-0.8,0.2-1.4,0-2.3c-0.4-2.3-0.2-2.9-1.4-5c-0.5-0.9-0.9-2.1-1.4-3.2c-1.1-2.3,0.1-8.9-1.3-15.2
	c-0.8-3.5-0.1-6.3-1.3-7.4c-1.9-1.9-3.3-6-3.3-6s-9-0.4-9.9,0.3c-2.5,1.8-2.1,2.8-6.8,2.8c-4,0-5.6-2.7-6.7-3
	C65.4,113.7,58,114.7,58,114.7z"/>
<path stroke="#000000" stroke-miterlimit="10" d="M48.2,157.9c0-1.6-0.1-3,0.7-3.4c0.4-0.2,0.8,0,1.9,0.3c1.2,0.4,2.5,0.8,3.7,0.8
	c2,0.1,5.8-0.4,6.1,0c1.1,1.3-1.2,5.1-2.9,7.8c-2.4,3.9-3.2,4-3.5,5.9c-0.3,1.8,0.2,2.1,0,6.1c-0.2,2.9-0.5,3.7-0.7,4
	c-0.3,0.7-0.8,1.5-3.4,3.5c-2.6,2.1-3.9,3.2-5.1,3.5c-0.3,0.1-4.2,1.3-6.9-0.8c-0.5-0.3-1.3-1-1.5-2c-0.1-0.4-0.3-1.7,1.9-4.4
	c2.2-2.8,3.6-2.9,6.4-6.1c1.1-1.2,1.6-1.8,2-2.7c0.9-2,0.2-2.9,0.5-6.7C47.6,160.3,48.1,160.9,48.2,157.9z"/>
<path stroke="#000000" stroke-miterlimit="10" d="M91.7,160.6c-0.9-1.7-2.4-4.6-1.5-5.4c0.4-0.4,1.1,0,3.2,0.3
	c2.3,0.4,4.8,0.7,6.4-0.5c1.1-0.8,1.1-1.7,1.5-1.7c1.3,0.1,1.8,7.1,1.9,8.6c0.4,6.1-0.4,6.5,0.5,8.6c0.6,1.5,1.2,1.6,6.4,6.9
	c3.8,3.8,4.6,5,4.4,6.2c-0.3,1.9-2.8,2.8-3.4,3c-2.9,1.1-5.6-0.1-6.1-0.3c-1.6-0.8-1.4-1.3-4.7-4.2c-2.4-2.1-2.6-1.9-3-2.7
	c-0.8-1.6-0.1-2.6-0.2-6.7c0-1.3,0-2-0.2-2.7C96.3,166.4,94.2,165.4,91.7,160.6z"/>
<path fill="#BCBEC0" stroke="#000000" stroke-miterlimit="10" d="M104.7,78.4c0,0,0,0,2.7,1.7c2.3,1.4,6.9,5,11,11.1
	c3.8,5.7,3.3,8.1,8.1,14.3c3.7,4.8,6.2,6.1,7.1,6.6c3.8,1.9,7.9,2.1,10,2c4.3-0.1,5.9-1.3,6.7-0.3c1.6,1.7-0.9,7.8-5.1,11.6
	c-2.1,1.9-5.2,3.4-11.3,6.4c-3.2,1.6-2.9,1.3-3.9,1.9c-5.7,3.5-5,7.2-9.3,10.1c-3.7,2.5-4.2,3.1-11.8,3c-4.5,0-7.4,2.7-8.3,1.8
	c-0.8-0.8,0.3,1.1-0.7-1.4c-0.6-1.8-1.3-2.9-2.1-4.6c-0.7-1.5,1.2-7.1-0.6-14.5c-0.8-3.3-1.8-6.7-3-9.4c-1.9-4.1-0.5-1-1.9-4.1
	c-1.1-2.3-2.2-10.2-3.2-11.8C86.9,99,93.8,91,94.6,88.5c0.3-1,4.8-1.7,7.8-6.5C103.4,80.2,104.3,78.8,104.7,78.4z"/>
<path fill="#BCBEC0" stroke="#000000" stroke-miterlimit="10" d="M88.5,148.9c-0.4,0.4-8.2-2.8-13.2-2.5c-7.5,0.4-12.8,4.1-13.4,3.2
	c-0.7-1,2.8-3.2,6.8-9.1c1.9-2.8,5.5-10.1,6.4-10.1c0.7,0,4.1,5.5,7.5,9.7C86,144.3,88.8,148.6,88.5,148.9z"/>
<path fill="#BCBEC0" stroke="#000000" stroke-miterlimit="10" d="M50.2,146.4c-2,2.1-4.4-2.8-9.3-4.6c-4.8-1.7-6,0.9-10.1-0.5
	c-5.9-2-4.4-7.7-11.3-11.8c-1.2-0.7-4.7-1.8-11.8-4c-5.9-1.9-6.7-1.9-7.1-2.9c-1.3-3.3,7.8-7.1,16.9-18.9c5.2-6.8,4.7-8.7,10-13.8
	c3.4-3.3,6.5-5.3,12.7-9.3c4.9-3.2,8.4-5,12.7-6.2c2.5-0.7,7.4-1,7.4-1s-2.3,2.2-7.1,5.7c-6.9,5.2-5.8,5.2-11.1,9.1
	c-6,4.3-8.9,5.3-9.3,8.3c-0.2,1.5,0.4,2.8,1.3,4.6c1.5,3,3,3.7,7.4,7.9c3.6,3.5,5.4,5.2,6.4,6.7c1.4,2,2.1,3.7,4.2,4.7
	c2.1,1,4.3-0.3,4,1c-0.3,1.9-2.6,6.3-2.8,15c0,2.1-0.2,4.3-0.7,6.8C52.4,144.8,51.4,145.2,50.2,146.4z"/>
<g>
	<path fill="#BCBEC0" stroke="#000000" stroke-miterlimit="10" d="M57.7,88.5c-1.8-1.3-3.2,0.7-7.9,3.9c-3.5,2.4-6,2.9-6,4.1
		c0,0.8,0,0.8,1,2.3c1.8,2.8,1,7.7,3.7,10c1.8,1.6,4.7-0.7,7.1,1.2c2.2,1.7,2.5,4.2,3.2,4.1c0.6-0.1,0.8-2.2,0.9-4
		c0.3-2.7,1.3-4.6,1.7-6.2c0.5-2.7,0.4-5,0.2-5.9c-0.2-0.8-1.4-2.3-2.2-4.6C58.7,91.3,58.4,89,57.7,88.5z"/>
</g>
<path stroke="#000000" stroke-miterlimit="10" d="M70.7,71.1c0-0.1,0,0.3,0.8-0.1c0.7-0.4,0.6-0.3,0.6-0.3s0,1,0.3,1.9
	c0.4,1.2,2,1.7,2.6,1.8c0.6,0.1,2.9,0.1,3.7-0.9c0.6-0.8,0.6-2.7,0.6-2.7h2.1c0,0-0.3,3.6-1.1,4.6c-1.1,1.3-2.5,1.9-3.5,2
	c-0.9,0.1-3.1,0.3-4.6-1C70.7,75.2,70.2,71.7,70.7,71.1z"/>
<path fill="none" stroke="#C49A6C" stroke-miterlimit="10" d="M100.6,43.8c-0.2-0.2,0.4-1.1,1.2-1.5c0.9-0.4,2-0.3,2.1,0
	C103.9,42.8,100.9,44.2,100.6,43.8z"/>
<path fill="none" stroke="#C49A6C" stroke-miterlimit="10" d="M54.6,44.4c0.1-0.2-0.9-1.2-2.2-1.5c-1-0.3-2.3-0.3-2.4,0
	C50,43.3,54.4,44.8,54.6,44.4z"/>
<line fill="none" stroke="#000000" stroke-miterlimit="10" x1="83.2" y1="32.7" x2="83.2" y2="32.7"/>
<path fill="none" stroke="#000000" stroke-miterlimit="10" d="M80.1,33.6c2.1-1.1,6.8-1.2,10.8,2.1"/>
<g>
	<path fill="none" stroke="#C49A6C" stroke-miterlimit="10" d="M76.7,50.4c-0.2-0.1-1.4-0.8-2.7-0.4c-1.2,0.4-2.3,1.6-2.1,2.9
		c0.2,1,1,1.7,1.8,1.9c1,0.3,2.1,0,2.9-0.8"/>
</g>
<path fill="none" stroke="#BE1E2D" stroke-miterlimit="10" d="M61.1,56.5c0.4-0.7,1.7-1.3,1.7-1.3s1.1,1.4,1.8,2.4
	c2.5,3.2,6.1,4.1,7.4,4.4c2,0.4,3.5,0.2,5,0.1c1.2-0.1,3-0.2,5-1.2c1.1-0.6,2.2-1.1,3.8-2.3c1.8-1.2,2-1.7,2-1.7
	c1.2-1.2,1.5-1.4,1.5-1.4s0.6,0.7,0.8,1.2"/>
<g>
	<path fill="#FFFFFF" stroke="#000000" stroke-miterlimit="10" d="M80.7,42c0-0.1-0.1-0.2,0.2-0.6c0.1-0.3,0.3-0.8,0.7-1.2
		c0.1-0.1,0.9-1.2,2.3-1.6c1.3-0.4,2.5-0.2,4,0.4c1.3,0.5,0.4,0.2,2.5,1.1c1.1,0.5,2.6,0.9,2.5,1.1c0,0.3-1,0.5-2.7,0.8
		c-2.4,0.4-2.7,0.5-3.9,0.6c-0.6,0.1-2-0.1-3.3-0.1C83,42.5,80.8,42.3,80.7,42z"/>
	<path fill="#3C2415" stroke="#000000" stroke-miterlimit="10" d="M83.6,40.2c0.2-0.8,1.3-1.1,1.5-1.2c0.2,0,1.8-0.5,2.6,0.6
		c0.4,0.6,0.5,1.5,0.2,2.1C87,43,84.5,42.3,84,41.6c-0.1-0.2-0.2-0.4-0.2-0.4C83.6,40.9,83.5,40.5,83.6,40.2z"/>
	<path fill="#594A42" stroke="#000000" stroke-miterlimit="10" d="M85.1,41c0.3-0.3,0.8-0.3,1.1-0.3c0.2,0,1.2,0.6,1.2,0.7
		c-0.1,0.5-0.6,0.9-1,1c-0.5,0.2-1.3,0.1-1.6-0.4C84.5,41.5,84.7,41.3,85.1,41z"/>
</g>
<g>
	<path fill="#FFFFFF" stroke="#000000" stroke-miterlimit="10" d="M71,41.6c0-0.1,0-0.3-0.2-0.6c-0.1-0.3-0.4-0.7-0.8-1.1
		c-0.1-0.1-1-1.1-2.4-1.4c-1.4-0.3-2.5,0-3.9,0.7c-1.2,0.6-0.4,0.2-2.4,1.3c-1.1,0.6-2.5,1.1-2.4,1.3c0.1,0.3,1.1,0.4,2.7,0.6
		c2.4,0.2,2.8,0.2,3.9,0.3c0.6,0,2-0.2,3.3-0.4C68.8,42.2,70.9,41.9,71,41.6z"/>
	<path fill="#3C2415" stroke="#000000" stroke-miterlimit="10" d="M68,40c-0.3-0.8-1.4-1-1.6-1c-0.2,0-1.8-0.3-2.5,0.8
		c-0.4,0.6-0.4,1.5,0,2.1c0.9,1.2,3.3,0.3,3.8-0.4c0.1-0.2,0.2-0.4,0.2-0.4C68.1,40.8,68.1,40.3,68,40z"/>
	<path fill="#594A42" stroke="#000000" stroke-miterlimit="10" d="M66.6,40.9c-0.4-0.3-0.9-0.2-1.1-0.2c-0.2,0.1-1.2,0.7-1.1,0.8
		c0.2,0.5,0.7,0.8,1.1,0.9c0.5,0.1,1.3,0,1.6-0.5C67.2,41.4,66.9,41.2,66.6,40.9z"/>
</g>
<path fill="none" stroke="#000000" stroke-miterlimit="10" d="M59.9,34.3c1.8-1.6,6.4-2.7,11.1-0.3"/>
</svg>
