<?xml version="1.0" encoding="utf-8"?>
<!-- Generator: Adobe Illustrator 18.1.0, SVG Export Plug-In . SVG Version: 6.00 Build 0)  -->
<!DOCTYPE svg PUBLIC "-//W3C//DTD SVG 1.1//EN" "http://www.w3.org/Graphics/SVG/1.1/DTD/svg11.dtd">
<svg version="1.1" id="Layer_1" xmlns="http://www.w3.org/2000/svg" xmlns:xlink="http://www.w3.org/1999/xlink" x="0px" y="0px" viewBox="0 0 200 200" enable-background="new 0 0 200 200" xml:space="preserve">
<path stroke="#000000" stroke-miterlimit="10" d="M31.4,63.2c0-1,8.8-0.7,14.4-7c2-2.3,2.9-4.7,6.6-7.8c1.7-1.4,3.5-2.6,3.3-3
	c-0.3-0.7-6.1,2-7,0.7s3.6-5.4,8.5-12.1C64,24.5,62,22.7,67.1,17c6.1-6.6,13.4-9.3,17.4-10.7c0,0,8.8-3.6,15.5-3
	c1.6,0.2,3.2,0.5,3.2,0.5s1.1,0.2,2.1,0.6c3.5,1.2,12,8.8,12.7,8.4c0.3-0.2-3.6-4.5-6.9-7.1c-3.3-2.7-7.7-3.6-7.6-3.9
	c1.1-2.2,17.5,6.8,18.5,7.8c1.2,1-3.6-9.2-3.4-9.1c0.4,0.2,6.2,7.8,8.8,12.4c2.5,4.4,2.3,4,5.1,8.3c2.6,3.8,2.7,9.2,3,12.5
	c0.3,2.9,0.2,5.5,0.1,6.8c-0.1,2-0.4,3.5-0.5,4.2c-0.2,1.4-0.7,3.9-2,6.8c-0.7,1.7-1.6,3.2-2,3.9c0,0-0.2,0.4-0.5,0.9
	c-2.9,4.5-6.3,7.5-6.3,7.5c-1.4,1.2-4.9,4.8-9.9,6.1c-3.4,0.9-10.3,2.2-10.4,2.2c0,0,0.2-3.9,0.1-2.1c0,0,17.4-2.3,19.6-10.8
	c1-3.6-1.2-9.6,1.1-9.6c1.3,0,2,1.2,4,0.2c3.3-1.5,5.6-6.8,3.7-8.6c-1.1-1.1-3.6-0.6-5.1,0.3c-2.5,1.6-2.7,4.5-3.3,4.4
	c-0.9-0.1,0.6-4.9-1.8-8.8c-1-1.6-1.7-1.6-3.7-4.4c-1.2-1.7-1.8-2.7-2.2-4c-0.7-2.9,0.4-4.5-0.3-5.1c-1.1-1-3.5,1.4-7.4,2.6
	c-5.4,1.7-6.5-1.2-12.6,0c-4.3,0.9-3.3,2.2-11.4,5.1c-1.5,0.5-3.1,1.1-4.4,2.6c-2.1,2.5-2.2,5.5-2.2,5.9c0,2.9,1.4,5,1.1,5.1
	c-0.4,0.2-1.8-3.5-4.8-4c-1.4-0.2-3.2,0.2-4,1.5c-1.1,1.6-0.3,3.6,0,4.4c1.2,3.2,3.4,2.9,4.8,5.9c1,2.1,0,2.7,1.1,5.9
	c0.7,2.3,1.9,3.9,2.6,4.8c1,1.3,2.2,3.1,4.4,4.4c1.6,1.1,3.4,1.4,7,2.2c0,0,1.6-0.2,6.5,0.6c-0.2-1.2,0.2,3.1-0.3,4.2
	c-0.7,1.6-5,0.4-9.6,0.3c-3,0-2,0.4-16.6,4c0,0-5.9,1.5-11.5,1.8l0,0c-5.2,0.3-7.8,0.5-8,0c-0.2-0.9,7.1-5.1,6.6-4
	c-0.1,0.2-23.8-0.2-25.5-1.8C30.1,73,47.6,64.6,45,64.6C44.1,64.7,31.4,66.5,31.4,63.2z"/>
<path fill="#E8B68A" stroke="#E8B68A" stroke-miterlimit="10" d="M103.3,77.6c0,0,0.3-5.3,0.6-8.5c0,0,2.8,1.4,9.9-1.4
	c0.9-0.3,3.7-0.9,7.1-4.4c1.6-1.6,1.8-3.7,2.1-5.2c0.6-3-0.2-3.3-0.3-6.9c0,0-0.7-0.2,1.2-1.8c0.2-0.2,1.5-0.2,1.8,0
	c0.6,0.3,1.8,0.7,3.1,0.3c1.9-0.5,2.6-2.6,3-3.6c0.3-0.9,1.2-3.3,0-4.5c-0.9-0.9-2.6-0.6-3.6-0.3c-3.3,1.2-3.7,5.3-4.8,5.1
	c-0.9-0.1,1.1-2.1-0.1-6.9c-0.3-1.4-0.5-1.9-2.6-4.2c-1.5-1.6-2.9-3.7-3.9-5.5c-1-1.4-0.4-6.1-1.6-6.4c-2.1-0.4-2.7,1.9-6.9,3.3
	c-5.3,1.8-6.6-1.3-12.7,0c-3.1,0.6-1.9,1.3-11.5,5.4c-2.3,1.1-3.2,1.4-3.9,2.5c-2.8,3.8-0.3,9.6-0.6,10.1c-0.3,0.4-2.1-3.2-5.6-3.2
	c-1.2,0-3,0.4-3.6,1.5c-1.6,2.8,2.2,4.9,4.8,9.4c2,3.4,2.2,7.9,3.7,10.7c1.2,2.3,2.8,4,6.8,5.5c4.8,1.7,9.3,2,11.2,1l0,0
	c1.9,3.1,0.4,6.2,0.4,6.2c0,0.3,0,1,0,1.7c0.4,0.3,1.2,0.9,2.2,1.1c0.3,0.1,0.6,0.1,1.1,0.1C102.1,78.5,103.3,77.6,103.3,77.6z"/>
<path fill="#9E1F63" stroke="#000000" stroke-miterlimit="10" d="M94.1,76.2c-1.3-1-3-0.5-5.8,0c-1.3,0.3-3.1,0.6-5.2,1.8
	c-3.2,1.7-4.8,3.6-7.8,6c-4.2,3.2-7.2,6.9-11.3,10c-0.1,0-3.4,1.8-7.1,4.9c-1.1,0.9-2.1,1.8-2.6,3.4c-0.4,1.7,0.2,3.8,1.3,4.2
	c0.6,0.2,1.1-0.6,3.1-1.8c1.4-0.9,2.6-1.5,3.9-1.4c1.5,0.1,1.6,0.9,2.7,0.9c2,0.1,4.6-3.5,6.2-4.6c1.4-1,3.4-1.4,5.6-3.5
	c1.1-1.1,1.5-1.9,2.1-1.8c1.1,0.1,0.9,2.5,2.7,5.4c1.2,1.9,1.4,2.1,1.9,3.8c0.5,1.5,0.9,5.9,0,8.8c0,0-0.6,0.2-0.7,3l-0.4,1.8
	c0.3,0.6,2.5-0.1,5.8,0c3.3,0.1,3.7,0.7,5.4,0.3c1.8-0.4,1.9-1.3,4-2c1.8-0.6,4-0.5,4.6-0.4c1.8,0.4,2,1,4.2,1.7
	c0.6,0.2,0.3,0,1.9,0.2c2.8,0.4,4.5,0.4,6.1,0.2c1.5-0.2,1.7-0.4,1.8-0.5c0.7-1-0.7-2.6-1.4-5.8c-0.2-1-0.9-3.7,0-6.6
	c0.5-1.8,1.1-1.7,2.3-4.5c1.7-3.7,2.3-4.5,2.3-5.4c-0.1-1.4,0.4,0.7,3.5-1.6c3-2.2,3-2.2,4.4-3.8c1.3-1.4,4.2-6.7,4.9-8
	c0.5-1,8.2-13.2,9.8-15c0.9-1,6-10,6.2-10.4c1.3-2.1-4.4-0.5-3.7-0.6c3.1-0.2-1-1.4-3.5-2.1c-2.1-0.6-1.1-5.6-1.8-3.9
	c-1,2.6-3.2,7.2-5.5,10.9c-2,3-1.6,1.9-4.3,6.2c-2.3,3.7-5.6,7.2-6.8,8.4c-3.1,3.1-4.7,4.6-7.6,3.3c-1.2-0.5-2.5-0.9-5.2-1.4
	c-3.3-0.6-3.8-0.4-4.2-0.2c-1.2,0.9-0.2,2.5-1.4,3.9c-1.3,1.5-3.5,1.6-4.3,1.6c-0.9,0-2.7,0.1-3.9-1.1C94.8,79,95.6,77.3,94.1,76.2z
	"/>
<polygon fill="#27AAE1" stroke="#000000" stroke-miterlimit="10" points="94.7,86.7 87.9,93.8 94.7,103.7 108.5,103.7 115.3,94 
	108.3,86.7 "/>
<polygon stroke="#000000" stroke-miterlimit="10" points="92.9,93.8 97.2,100.1 105.3,100.1 110.3,93.8 108,90.7 95.5,90.7 "/>
<path stroke="#000000" stroke-miterlimit="10" d="M55.9,106.1c-0.3,1.2,1.2,3.3,3.7,6c5.6,5.6,6.5,4.9,8.8,7.9
	c2.3,2.9,2.8,5.1,6,7.4c1.4,1,2.3,1.3,3.2,1.1c1.7-0.5,2.3-3.1,2.7-4.7c0.4-1.8,0.9-3.9-0.3-5.5c-1-1.3-2.5-1.6-3.6-1.8
	c-2.5-0.5-3.1,0.3-4.3,0c-3.7-1.1-2-10.4-6.5-12.6c-1.8-0.9-3.8-0.7-4.8-0.4C59.7,103.7,56.3,104.5,55.9,106.1z"/>
<path stroke="#000000" stroke-miterlimit="10" d="M139.3,50.3c-1.6-4,8.4-7,8.4-11.9c0-2.5-2.1-3.2-1.7-6.2c0.4-2.9,2.9-4.5,3.1-4.7
	c2.2-1.4,5.8-1.8,7.4-0.1c1,1.1,0.7,2.7,0.6,3.8c-0.4,3.3-1.9,4.4-3.5,7.7c-0.7,1.5-0.3,1-3.3,11c-1,3.2-1.4,4.6-2.8,5.1
	c-1.9,0.7-4.7-0.1-5.3-0.5C141.6,53.9,140.1,52.2,139.3,50.3z"/>
<path stroke="#000000" stroke-miterlimit="10" d="M82.3,117.5c-0.3,1.3-0.7,2.7-1.1,3.9H93l1.3-4.3L82.3,117.5z"/>
<polygon stroke="#000000" stroke-miterlimit="10" points="107.2,117.4 107.2,122.2 117.9,121.5 116.6,117.1 "/>
<path fill="#00AEEF" stroke="#000000" stroke-miterlimit="10" d="M94.5,117.8c-0.1,0.3-1.4,2.6-0.3,4.7c1.3,2.8,5.2,2.9,6,2.9
	c0.9,0,5,0,6.6-3.2c0.1-0.1,1.3-2.6,0-4.9c-1.7-3.2-6.5-2.6-7-2.6C98.8,115,96,115.3,94.5,117.8z"/>
<path fill="#FFFFFF" stroke="#000000" stroke-miterlimit="10" d="M97.3,118.6c-0.6,1.1-0.5,2.5,0.2,3.4c1.2,1.5,3.7,1.2,5,0
	c0.7-0.6,1.5-1.9,1.1-3.1c-0.4-1.1-1.9-1.4-2.6-1.4C100.6,117.4,98.4,117,97.3,118.6z"/>
<path fill="#9E1F63" stroke="#000000" stroke-miterlimit="10" d="M81.2,122.2c0,0-1.1,3-2,6.5c-0.2,0.5-0.9,3.2-1.3,4.7
	c-2.7,9.3-2,18.5-3,19.5c-1.4,1.3-1.5,2.1-1.9,3.9c-0.4,2.1-0.4,3.3-0.5,5.2c0,1-0.5,1.7-0.3,2.3c0.2,1,1.7,1.4,2.7,1.6
	c0.5,0.2,3,0.5,4.9,0.4c2-0.1,4.5-1.1,4.5-1.1v-0.7c0,0,0.2-2.5,0.6-3.6c1.3-3.6,3-6,5.2-8.6c7.2-8.3,7.7-12.8,9.3-13.3
	c0,0,3,4.5,11.1,14.3c2.5,3,4.4,5,4.5,8.1c0,1.8-0.5,3.6,0.5,4.7c0.2,0.2,0.6,0.5,3.4,0.7c4.9,0.3,6.4-0.6,6.8-0.9
	c0.5-0.3,1.4-1,1.4-1.8s0.2-1.5,0-2.5c-0.4-2.5-0.2-3.1-1.5-5.3c-0.5-1-1-2.2-1.5-3.4c-1.2-2.5,0.1-9.5-1.4-16.2
	c-0.9-3.7-0.1-6.7-1.4-7.9c-2-2-3.5-6.4-3.5-6.4s-9.6-0.4-10.5,0.3c-2.7,1.9-2.2,3-7.2,3c-4.3,0-6-2.9-7.1-3.2
	C89.1,121.2,81.2,122.2,81.2,122.2z"/>
<path stroke="#000000" stroke-miterlimit="10" d="M70.8,168.2c0-1.7-0.1-3.2,0.7-3.6c0.4-0.2,0.9,0,2,0.3c1.3,0.4,2.7,0.9,3.9,0.9
	c2.1,0.1,6.2-0.4,6.5,0c1.2,1.4-1.3,5.4-3.1,8.3c-2.6,4.2-3.4,4.3-3.7,6.3c-0.3,1.9,0.2,2.2,0,6.5c-0.2,3.1-0.5,3.9-0.7,4.3
	c-0.3,0.7-0.9,1.6-3.6,3.7c-2.8,2.2-4.2,3.4-5.4,3.7c-0.3,0.1-4.5,1.4-7.4-0.9c-0.5-0.3-1.4-1.1-1.6-2.1c-0.1-0.4-0.3-1.8,2-4.7
	c2.3-3,3.8-3.1,6.8-6.5c1.2-1.3,1.7-1.9,2.1-2.9c1-2.1,0.2-3.1,0.5-7.1C70.2,170.8,70.7,171.4,70.8,168.2z"/>
<path stroke="#000000" stroke-miterlimit="10" d="M117.2,171.1c-1-1.8-2.6-4.9-1.6-5.8c0.4-0.4,1.2,0,3.4,0.3
	c2.5,0.4,5.1,0.7,6.8-0.5c1.2-0.9,1.2-1.8,1.6-1.8c1.4,0.1,1.9,7.6,2,9.2c0.4,6.5-0.4,6.9,0.5,9.2c0.6,1.6,1.3,1.7,6.8,7.4
	c4,4,4.9,5.3,4.7,6.6c-0.3,2-3,3-3.6,3.2c-3.1,1.2-6-0.1-6.5-0.3c-1.7-0.9-1.5-1.4-5-4.5c-2.6-2.2-2.8-2-3.2-2.9
	c-0.9-1.7-0.1-2.8-0.2-7.1c0-1.4,0-2.1-0.2-2.9C122.1,177.3,119.8,176.2,117.2,171.1z"/>
<path fill="#BCBEC0" stroke="#000000" stroke-miterlimit="10" d="M131,83.5c0,0,0,0,2.9,1.8c2.5,1.5,7.4,5.3,11.7,11.8
	c4,6.1,3.5,8.6,8.6,15.2c3.9,5.1,6.6,6.5,7.6,7c4,2,8.4,2.2,10.7,2.1c4.6-0.1,6.3-1.4,7.1-0.3c1.7,1.8-1,8.3-5.4,12.4
	c-2.2,2-5.5,3.6-12,6.8c-3.4,1.7-3.1,1.4-4.2,2c-6.1,3.7-5.3,7.7-9.9,10.8c-3.9,2.7-4.5,3.3-12.6,3.2c-4.8,0-7.9,2.9-8.8,1.9
	c-0.9-0.9,0.3,1.2-0.7-1.5c-0.6-1.9-1.4-3.1-2.2-4.9c-0.7-1.6,1.3-7.6-0.6-15.5c-0.9-3.5-1.9-7.1-3.2-10c-2-4.4-0.5-1.1-2-4.4
	c-1.2-2.5-2.3-10.9-3.4-12.6c-2.3-4,5-12.6,5.9-15.2c0.3-1.1,5.1-1.8,8.3-6.9C129.6,85.5,130.6,84,131,83.5z"/>
<path fill="#BCBEC0" stroke="#000000" stroke-miterlimit="10" d="M113.7,158.7c-0.4,0.4-8.7-3-14.1-2.7c-8,0.4-13.6,4.4-14.3,3.4
	c-0.7-1.1,3-3.4,7.2-9.7c2-3,5.9-10.8,6.8-10.8c0.7,0,4.4,5.9,8,10.3C111.1,153.8,114.1,158.3,113.7,158.7z"/>
<path fill="#BCBEC0" stroke="#000000" stroke-miterlimit="10" d="M72.9,156c-2.1,2.2-4.7-3-9.9-4.9c-5.1-1.8-6.4,1-10.8-0.5
	c-6.3-2.1-4.7-8.2-12-12.6c-1.3-0.7-5-1.9-12.6-4.3c-6.3-2-7.1-2-7.6-3.1c-1.4-3.5,8.3-7.6,18-20.1c5.5-7.2,5-9.3,10.7-14.7
	c3.6-3.5,6.9-5.6,13.5-9.9c5.2-3.4,9-5.3,13.5-6.6c2.7-0.7,7.9-1.1,7.9-1.1s-2.5,2.3-7.6,6.1c-7.4,5.5-6.2,5.5-11.8,9.7
	c-6.4,4.6-9.5,5.6-9.9,8.8c-0.2,1.6,0.4,3,1.4,4.9c1.6,3.2,3.2,3.9,7.9,8.4c3.8,3.7,5.8,5.5,6.8,7.1c1.5,2.1,2.2,3.9,4.5,5
	c2.2,1.1,4.6-0.3,4.3,1.1c-0.3,2-2.8,6.7-3,16c0,2.2-0.2,4.6-0.7,7.2C75.3,154.3,74.2,154.7,72.9,156z"/>
<g>
	<path fill="#BCBEC0" stroke="#000000" stroke-miterlimit="10" d="M80.9,94.3c-1.9-1.4-3.4,0.7-8.4,4.2c-3.7,2.6-6.4,3.1-6.4,4.4
		c0,0.9,0,0.9,1.1,2.5c1.9,3,1.1,8.2,3.9,10.7c1.9,1.7,5-0.7,7.6,1.3c2.3,1.8,2.7,4.5,3.4,4.4c0.6-0.1,0.9-2.3,1-4.3
		c0.3-2.9,1.4-4.9,1.8-6.6c0.5-2.9,0.4-5.3,0.2-6.3c-0.2-0.9-1.5-2.5-2.3-4.9C82,97.3,81.7,94.8,80.9,94.3z"/>
</g>
<path stroke="#000000" stroke-miterlimit="10" d="M94.8,75.8c0-0.1,0,0.3,0.9-0.1c0.7-0.4,0.6-0.3,0.6-0.3s0,1.1,0.3,2
	c0.4,1.3,2.1,1.8,2.8,1.9c0.6,0.1,3.1,0.1,3.9-1c0.6-0.9,0.6-2.9,0.6-2.9h2.2c0,0-0.3,3.8-1.2,4.9c-1.2,1.4-2.7,2-3.7,2.1
	c-1,0.1-3.3,0.3-4.9-1.1C94.8,80.1,94.2,76.4,94.8,75.8z"/>
<path fill="none" stroke="#C49A6C" stroke-miterlimit="10" d="M126.6,46.7c-0.2-0.2,0.4-1.2,1.3-1.6c1-0.4,2.1-0.3,2.2,0
	C130.2,45.6,127,47.1,126.6,46.7z"/>
<path fill="none" stroke="#C49A6C" stroke-miterlimit="10" d="M77.6,47.3c0.1-0.2-1-1.3-2.3-1.6c-1.1-0.3-2.5-0.3-2.6,0
	C72.7,46.1,77.4,47.7,77.6,47.3z"/>
<line fill="none" stroke="#000000" stroke-miterlimit="10" x1="108.1" y1="34.8" x2="108.1" y2="34.8"/>
<path fill="none" stroke="#000000" stroke-miterlimit="10" d="M104.8,35.8c2.2-1.2,7.2-1.3,11.5,2.2"/>
<g>
	<path fill="none" stroke="#C49A6C" stroke-miterlimit="10" d="M101.2,53.7c-0.2-0.1-1.5-0.9-2.9-0.4c-1.3,0.4-2.5,1.7-2.2,3.1
		c0.2,1.1,1.1,1.8,1.9,2c1.1,0.3,2.2,0,3.1-0.9"/>
</g>
<path fill="none" stroke="#BE1E2D" stroke-miterlimit="10" d="M84.5,60.2c0.4-0.7,1.8-1.4,1.8-1.4s1.2,1.5,1.9,2.6
	c2.7,3.4,6.5,4.4,7.9,4.7c2.1,0.4,3.7,0.2,5.3,0.1c1.3-0.1,3.2-0.2,5.3-1.3c1.2-0.6,2.3-1.2,4-2.5c1.9-1.3,2.1-1.8,2.1-1.8
	c1.3-1.3,1.6-1.5,1.6-1.5s0.6,0.7,0.9,1.3"/>
<g>
	<path fill="#FFFFFF" stroke="#000000" stroke-miterlimit="10" d="M105.4,44.8c0-0.1-0.1-0.2,0.2-0.6c0.1-0.3,0.3-0.9,0.7-1.3
		c0.1-0.1,1-1.3,2.5-1.7c1.4-0.4,2.7-0.2,4.3,0.4c1.4,0.5,0.4,0.2,2.7,1.2c1.2,0.5,2.8,1,2.7,1.2c0,0.3-1.1,0.5-2.9,0.9
		c-2.6,0.4-2.9,0.5-4.2,0.6c-0.6,0.1-2.1-0.1-3.5-0.1C107.9,45.3,105.5,45.1,105.4,44.8z"/>
	<path fill="#3C2415" stroke="#000000" stroke-miterlimit="10" d="M108.5,42.8c0.2-0.9,1.4-1.2,1.6-1.3c0.2,0,1.9-0.5,2.8,0.6
		c0.4,0.6,0.5,1.6,0.2,2.2c-1,1.4-3.6,0.6-4.2-0.1c-0.1-0.2-0.2-0.4-0.2-0.4C108.5,43.6,108.4,43.2,108.5,42.8z"/>
	<path fill="#594A42" stroke="#000000" stroke-miterlimit="10" d="M110.1,43.7c0.3-0.3,0.9-0.3,1.2-0.3c0.2,0,1.3,0.6,1.3,0.7
		c-0.1,0.5-0.6,1-1.1,1.1c-0.5,0.2-1.4,0.1-1.7-0.4C109.5,44.2,109.7,44,110.1,43.7z"/>
</g>
<g>
	<path fill="#FFFFFF" stroke="#000000" stroke-miterlimit="10" d="M95.1,44.3c0-0.1,0-0.3-0.2-0.6c-0.1-0.3-0.4-0.7-0.9-1.2
		c-0.1-0.1-1.1-1.2-2.6-1.5c-1.5-0.3-2.7,0-4.2,0.7c-1.3,0.6-0.4,0.2-2.6,1.4c-1.2,0.6-2.7,1.2-2.6,1.4c0.1,0.3,1.2,0.4,2.9,0.6
		c2.6,0.2,3,0.2,4.2,0.3c0.6,0,2.1-0.2,3.5-0.4C92.8,45,95,44.6,95.1,44.3z"/>
	<path fill="#3C2415" stroke="#000000" stroke-miterlimit="10" d="M91.9,42.6c-0.3-0.9-1.5-1.1-1.7-1.1s-1.9-0.3-2.7,0.9
		c-0.4,0.6-0.4,1.6,0,2.2c1,1.3,3.5,0.3,4-0.4c0.1-0.2,0.2-0.4,0.2-0.4C92,43.5,92,42.9,91.9,42.6z"/>
	<path fill="#594A42" stroke="#000000" stroke-miterlimit="10" d="M90.4,43.6c-0.4-0.3-1-0.2-1.2-0.2c-0.2,0.1-1.3,0.7-1.2,0.9
		c0.2,0.5,0.7,0.9,1.2,1c0.5,0.1,1.4,0,1.7-0.5C91,44.1,90.7,43.9,90.4,43.6z"/>
</g>
<path fill="none" stroke="#000000" stroke-miterlimit="10" d="M83.3,36.5c1.9-1.7,6.8-2.9,11.8-0.3"/>
</svg>
