<?xml version="1.0" encoding="utf-8"?>
<!-- Generator: Adobe Illustrator 18.1.0, SVG Export Plug-In . SVG Version: 6.00 Build 0)  -->
<!DOCTYPE svg PUBLIC "-//W3C//DTD SVG 1.1//EN" "http://www.w3.org/Graphics/SVG/1.1/DTD/svg11.dtd">
<svg version="1.1" id="Layer_1" xmlns="http://www.w3.org/2000/svg" xmlns:xlink="http://www.w3.org/1999/xlink" x="0px" y="0px"
	 viewBox="0 0 170.9 204.8" enable-background="new 0 0 170.9 204.8" xml:space="preserve">
<path fill="#27AAE1" stroke="#000000" stroke-miterlimit="10" d="M158.4,204.3H12.5c-6.6,0-12-5.4-12-12V12.5c0-6.6,5.4-12,12-12
	h145.9c6.6,0,12,5.4,12,12v179.8C170.4,198.9,165,204.3,158.4,204.3z"/>
<path stroke="#000000" stroke-miterlimit="10" d="M21.4,66.2c0-0.9,8.3-0.7,13.5-6.6c1.9-2.2,2.7-4.4,6.2-7.3
	c1.6-1.3,3.3-2.4,3.1-2.8c-0.3-0.7-5.7,1.9-6.6,0.7c-0.9-1.2,3.4-5.1,8-11.4C52,29.9,50.1,28.3,55,23c5.7-6.2,12.6-8.7,16.2-10
	c0,0,8.3-3.4,14.5-2.8c1.5,0.2,3,0.5,3,0.5c0,0,1,0.2,2,0.6c3.3,1.1,11.3,8.3,11.9,7.9c0.3-0.3-3.4-4.3-6.5-6.8
	C93.1,9.8,89,9,89.1,8.6c1-2.1,16.4,6.4,17.4,7.3c1.1,0.9-3.4-8.6-3.2-8.5c0.4,0.2,5.8,7.3,8.3,11.6c2.3,4.1,2.2,3.8,4.8,7.8
	c2.4,3.6,2.5,8.6,2.8,11.7c0.3,2.7,0.2,5.2,0.1,6.4c-0.1,1.9-0.4,3.3-0.5,3.9c-0.2,1.3-0.7,3.7-1.9,6.4c-0.7,1.6-1.5,3-1.9,3.7
	c0,0-0.2,0.4-0.5,0.8c-2.7,4.2-5.9,7-5.9,7c-1.3,1.1-4.6,4.5-9.3,5.7c-3.2,0.8-9.7,2.1-9.8,2.1c0,0,0.2-3.7,0.1-2
	c0,0,16.3-2.2,18.4-10.1c0.9-3.4-1.1-9,1-9c1.2,0,1.9,1.1,3.8,0.2c3.1-1.4,5.3-6.4,3.5-8.1c-1-1-3.4-0.6-4.8,0.3
	c-2.3,1.5-2.5,4.2-3.1,4.1c-0.8-0.1,0.6-4.6-1.7-8.3c-0.9-1.5-1.6-1.5-3.5-4.1c-1.1-1.6-1.7-2.5-2.1-3.8c-0.7-2.7,0.4-4.2-0.3-4.8
	c-1-0.9-3.3,1.3-6.9,2.4c-5.1,1.6-6.1-1.1-11.8,0c-4,0.8-3.1,2.1-10.7,4.8c-1.4,0.5-2.9,1-4.1,2.4c-2,2.3-2.1,5.2-2.1,5.5
	c0,2.7,1.3,4.7,1,4.8c-0.4,0.2-1.7-3.3-4.5-3.8c-1.3-0.2-3,0.2-3.8,1.4c-1,1.5-0.3,3.4,0,4.1c1.1,3,3.2,2.7,4.5,5.5
	c0.9,2,0,2.5,1,5.5c0.7,2.2,1.8,3.7,2.4,4.5c0.9,1.2,2.1,2.9,4.1,4.1c1.5,1,3.2,1.3,6.6,2.1c0,0,1.5-0.2,6.1,0.6
	c-0.2-1.1,0.2,2.9-0.3,3.9c-0.7,1.5-4.7,0.4-9,0.3c-2.8,0-1.9,0.4-15.6,3.8c0,0-5.5,1.4-10.8,1.7c0,0,0,0,0,0
	c-4.9,0.3-7.3,0.5-7.5,0c-0.2-0.8,6.7-4.8,6.2-3.8c-0.1,0.2-22.3-0.2-23.9-1.7c-1.8-1.8,14.5-9.7,12.1-9.7
	C33.4,67.6,21.4,69.3,21.4,66.2z"/>
<path fill="#E8B68A" stroke="#E8B68A" stroke-miterlimit="10" d="M89,79.7c0,0,0.3-5,0.6-8c0,0,2.6,1.3,9.3-1.3
	c0.8-0.3,3.5-0.8,6.7-4.1c1.5-1.5,1.7-3.5,2-4.9c0.6-2.8-0.2-3.1-0.3-6.5c0,0-0.7-0.2,1.1-1.7c0.2-0.2,1.4-0.2,1.7,0
	c0.6,0.3,1.7,0.7,2.9,0.3c1.8-0.5,2.4-2.4,2.8-3.4c0.3-0.8,1.1-3.1,0-4.2c-0.8-0.8-2.4-0.6-3.4-0.3c-3.1,1.1-3.5,5-4.5,4.8
	c-0.8-0.1,1-2-0.1-6.5c-0.3-1.3-0.5-1.8-2.4-3.9c-1.4-1.5-2.7-3.5-3.7-5.2c-0.9-1.3-0.4-5.7-1.5-6c-2-0.4-2.5,1.8-6.5,3.1
	c-5,1.7-6.2-1.2-11.9,0c-2.9,0.6-1.8,1.2-10.8,5.1c-2.2,1-3,1.3-3.7,2.3c-2.6,3.6-0.3,9-0.6,9.5c-0.3,0.4-2-3-5.3-3
	c-1.1,0-2.8,0.4-3.4,1.4c-1.5,2.6,2.1,4.6,4.5,8.8c1.9,3.2,2.1,7.4,3.5,10c1.1,2.2,2.6,3.8,6.4,5.2c4.5,1.6,8.7,1.9,10.5,0.9
	c0,0,0,0,0,0c1.7,2.8,0.3,5.6,0.3,5.6c0,0.3,0,0.9,0,1.6c0.4,0.3,1.1,0.8,2.1,1c0.3,0.1,0.6,0.1,1,0.1C87.9,80.6,89,79.7,89,79.7z"
	/>
<path fill="#9E1F63" stroke="#000000" stroke-miterlimit="10" d="M80.5,78.2c-1.2-0.9-2.8-0.5-5.4,0c-1.2,0.3-2.9,0.6-4.9,1.7
	c-3,1.6-4.5,3.4-7.3,5.6c-3.9,3-6.8,6.5-10.6,9.4c-0.1,0-3.2,1.7-6.7,4.6c-1,0.8-2,1.7-2.4,3.2c-0.4,1.6,0.2,3.6,1.2,3.9
	c0.6,0.2,1-0.6,2.9-1.7c1.3-0.8,2.4-1.4,3.7-1.3c1.4,0.1,1.5,0.8,2.5,0.8c1.9,0.1,4.3-3.3,5.8-4.3c1.3-0.9,3.2-1.3,5.3-3.3
	c1-1,1.4-1.8,2-1.7c1,0.1,0.8,2.3,2.5,5.1c1.1,1.8,1.3,2,1.8,3.6c0.5,1.4,0.8,5.5,0,8.3c0,0-0.6,0.2-0.7,2.8l-0.4,1.7
	c0.3,0.6,2.3-0.1,5.4,0c3.1,0.1,3.5,0.7,5.1,0.3c1.7-0.4,1.8-1.2,3.8-1.9c1.7-0.6,3.8-0.5,4.3-0.4c1.7,0.4,1.9,0.9,3.9,1.6
	c0.6,0.2,0.3,0,1.8,0.2c2.6,0.4,4.2,0.4,5.7,0.2c1.4-0.2,1.6-0.4,1.7-0.5c0.7-0.9-0.7-2.4-1.3-5.4c-0.2-0.9-0.8-3.5,0-6.2
	c0.5-1.7,1-1.6,2.2-4.2c1.6-3.5,1.2-4.6,2.2-5.1c1.2-0.5,3.3,1.1,7.4,4.4c3.4,2.6,4.3,3.7,6.2,3.9c1.1,0.1,1.9-0.1,3.4,0.3
	c0.7,0.2,2.2,0.7,3.2,2c0.8,1,0.8,1.7,1.2,1.7c0.7,0,1.3-1.6,1.5-2.9c0.1-0.4,0.2-1.5-0.2-2.7c-0.6-2-2.2-3-3.7-4
	c0,0-0.5-0.4-7.6-5.6c-3-2.2-2.4-2-6.1-4.7c-3.8-2.8-4.1-2.8-5.6-4.2c-2.2-2.1-2.3-2.9-4-3.9c-1.1-0.6-2.3-0.8-4.9-1.3
	c-3.1-0.6-3.6-0.4-3.9-0.2c-1.1,0.8-0.2,2.3-1.3,3.7c-1.2,1.4-3.3,1.5-4,1.5c-0.8,0-2.5,0.1-3.7-1C81,80.8,81.8,79.2,80.5,78.2z"/>
<polygon fill="#27AAE1" stroke="#000000" stroke-miterlimit="10" points="80.9,88.3 74.4,94.9 80.9,104.2 93.8,104.2 100.3,95.1 
	93.7,88.3 "/>
<polygon stroke="#000000" stroke-miterlimit="10" points="79.2,94.9 83.2,100.8 90.9,100.8 95.5,94.9 93.3,92 81.7,92 "/>
<path stroke="#000000" stroke-miterlimit="10" d="M44.4,106.5c-0.3,1.1,1.1,3.1,3.5,5.6c5.3,5.3,6.1,4.6,8.3,7.4
	c2.2,2.7,2.6,4.8,5.6,6.9c1.3,0.9,2.2,1.2,3,1c1.6-0.5,2.2-2.9,2.5-4.4c0.4-1.7,0.8-3.7-0.3-5.2c-0.9-1.2-2.3-1.5-3.4-1.7
	c-2.3-0.5-2.9,0.3-4,0c-3.5-1-1.9-9.8-6.1-11.8c-1.7-0.8-3.6-0.7-4.5-0.4C48,104.2,44.8,104.9,44.4,106.5z"/>
<path stroke="#000000" stroke-miterlimit="10" d="M118.8,103.7c-4.1,0.3-2.5,10-6.7,12c-2.1,1-3.6-0.5-5.9,1
	c-2.3,1.5-2.7,4.3-2.7,4.6c-0.3,2.5,0.8,5.7,2.9,6.2c1.3,0.4,2.6-0.4,3.5-1c2.6-1.7,2.9-3.4,5.1-6.1c0.9-1.2,0.7-0.7,7.9-7.3
	c2.3-2.1,3.3-3.1,3.2-4.4c-0.1-1.9-2-3.9-2.6-4.3C122.7,104,120.6,103.5,118.8,103.7z"/>
<path stroke="#000000" stroke-miterlimit="10" d="M69.2,117.2c-0.3,1.2-0.7,2.5-1,3.7h11l1.2-4L69.2,117.2z"/>
<polygon stroke="#000000" stroke-miterlimit="10" points="92.7,117 92.7,121.6 102.6,120.9 101.4,116.8 "/>
<path fill="#00AEEF" stroke="#000000" stroke-miterlimit="10" d="M80.7,117.5c-0.1,0.3-1.3,2.4-0.3,4.4c1.2,2.6,4.9,2.7,5.6,2.7
	c0.8,0,4.7,0,6.2-3c0.1-0.1,1.2-2.4,0-4.6c-1.6-3-6.1-2.4-6.6-2.4C84.8,114.7,82,115.1,80.7,117.5z"/>
<path fill="#FFFFFF" stroke="#000000" stroke-miterlimit="10" d="M83.4,118.2c-0.6,1-0.5,2.3,0.2,3.2c1.1,1.4,3.5,1.1,4.7,0
	c0.7-0.6,1.4-1.8,1-2.9c-0.4-1-1.8-1.3-2.4-1.3C86.4,117.1,84.3,116.7,83.4,118.2z"/>
<path fill="#9E1F63" stroke="#000000" stroke-miterlimit="10" d="M68.2,121.6c0,0-1,2.8-1.9,6.1c-0.2,0.5-0.8,3-1.2,4.4
	c-2.5,8.7-1.9,17.4-2.8,18.3c-1.3,1.2-1.4,2-1.8,3.7c-0.4,2-0.4,3.1-0.5,4.9c0,0.9-0.5,1.6-0.3,2.2c0.2,0.9,1.6,1.3,2.5,1.5
	c0.5,0.2,2.8,0.5,4.6,0.4c1.9-0.1,4.2-1,4.2-1v-0.7c0,0,0.2-2.3,0.6-3.4c1.2-3.4,2.8-5.6,4.9-8.1c6.8-7.8,7.2-12,8.7-12.5
	c0,0,2.8,4.2,10.4,13.4c2.3,2.8,4.1,4.7,4.2,7.6c0,1.7-0.5,3.4,0.5,4.4c0.2,0.2,0.6,0.5,3.2,0.7c4.6,0.3,6-0.6,6.4-0.8
	c0.5-0.3,1.3-0.9,1.3-1.7c0-0.8,0.2-1.4,0-2.3c-0.4-2.3-0.2-2.9-1.4-5c-0.5-0.9-0.9-2.1-1.4-3.2c-1.1-2.3,0.1-8.9-1.3-15.2
	c-0.8-3.5-0.1-6.3-1.3-7.4c-1.9-1.9-3.3-6-3.3-6s-9-0.4-9.9,0.3c-2.5,1.8-2.1,2.8-6.8,2.8c-4,0-5.6-2.7-6.7-3
	C75.7,120.6,68.2,121.6,68.2,121.6z"/>
<path stroke="#000000" stroke-miterlimit="10" d="M58.4,164.7c0-1.6-0.1-3,0.7-3.4c0.4-0.2,0.8,0,1.9,0.3c1.2,0.4,2.5,0.8,3.7,0.8
	c2,0.1,5.8-0.4,6.1,0c1.1,1.3-1.2,5.1-2.9,7.8c-2.4,3.9-3.2,4-3.5,5.9c-0.3,1.8,0.2,2.1,0,6.1c-0.2,2.9-0.5,3.7-0.7,4
	c-0.3,0.7-0.8,1.5-3.4,3.5c-2.6,2.1-3.9,3.2-5.1,3.5c-0.3,0.1-4.2,1.3-6.9-0.8c-0.5-0.3-1.3-1-1.5-2c-0.1-0.4-0.3-1.7,1.9-4.4
	c2.2-2.8,3.6-2.9,6.4-6.1c1.1-1.2,1.6-1.8,2-2.7c0.9-2,0.2-2.9,0.5-6.7C57.8,167.2,58.3,167.8,58.4,164.7z"/>
<path stroke="#000000" stroke-miterlimit="10" d="M101.9,167.4c-0.9-1.7-2.4-4.6-1.5-5.4c0.4-0.4,1.1,0,3.2,0.3
	c2.3,0.4,4.8,0.7,6.4-0.5c1.1-0.8,1.1-1.7,1.5-1.7c1.3,0.1,1.8,7.1,1.9,8.6c0.4,6.1-0.4,6.5,0.5,8.6c0.6,1.5,1.2,1.6,6.4,6.9
	c3.8,3.8,4.6,5,4.4,6.2c-0.3,1.9-2.8,2.8-3.4,3c-2.9,1.1-5.6-0.1-6.1-0.3c-1.6-0.8-1.4-1.3-4.7-4.2c-2.4-2.1-2.6-1.9-3-2.7
	c-0.8-1.6-0.1-2.6-0.2-6.7c0-1.3,0-2-0.2-2.7C106.6,173.3,104.5,172.3,101.9,167.4z"/>
<path fill="#BCBEC0" stroke="#000000" stroke-miterlimit="10" d="M102.2,80.4c0,0,8.8,1.8,15.5,6.6c2.2,1.6,6.9,5,11,11.1
	c3.8,5.7,3.3,8.1,8.1,14.3c3.7,4.8,6.2,6.1,7.1,6.6c3.8,1.9,7.9,2.1,10,2c4.3-0.1,5.9-1.3,6.7-0.3c1.6,1.7-0.9,7.8-5.1,11.6
	c-2.1,1.9-5.2,3.4-11.3,6.4c-3.2,1.6-2.9,1.3-3.9,1.9c-5.7,3.5-5,7.2-9.3,10.1c-3.7,2.5-4.2,3.1-11.8,3c-4.5,0-7.4,2.7-8.3,1.8
	c-0.8-0.8,0.3,1.1-0.7-1.4c-0.6-1.8-1.3-2.9-2.1-4.6c-0.7-1.5,1.2-7.1-0.6-14.5c-0.8-3.3-1-7-1-7s1.8-0.5,3.7-1.4
	c2.5-1.2,3.2-3.4,4.7-5.9c3.9-6.4,7.7-5.2,11.3-11.6c1.2-2.2,2.3-4.1,1.9-6.4c-0.4-2.1-1.8-3.4-7.4-7.8c-3.9-3-5.6-4.6-8.1-6.1
	C107.4,85.9,101.8,80.8,102.2,80.4z"/>
<g>
	<path fill="#27AAE1" stroke="#000000" stroke-miterlimit="10" d="M104.3,95.4c1.8-1.3,3.2,0.8,7.8,4c3.4,2.4,6,3.1,5.9,4.2
		c0,0.8-0.9,0.5-1.5,2.1c-1.1,3.1-1,7.2-3.7,9.4c-1.9,1.5-4.4-0.4-6.9,1.4c-2.2,1.6-2.5,4.3-3.2,4.2c-0.6-0.1-0.7-2.2-0.8-4
		c-0.2-2.7-1.2-4.6-1.5-6.2c-0.5-2.7-0.3-5-0.1-5.9c0.2-0.8,1.4-2.2,2.3-4.6C103.2,98.2,103.6,95.9,104.3,95.4z"/>
</g>
<path fill="#BCBEC0" stroke="#000000" stroke-miterlimit="10" d="M98.7,155.8c-0.4,0.4-8.2-2.8-13.2-2.5c-7.5,0.4-12.8,4.1-13.4,3.2
	c-0.7-1,2.8-3.2,6.8-9.1c1.9-2.8,5.5-10.1,6.4-10.1c0.7,0,4.1,5.5,7.5,9.7C96.2,151.2,99.1,155.5,98.7,155.8z"/>
<path fill="#BCBEC0" stroke="#000000" stroke-miterlimit="10" d="M60.1,152.8c-2,2.1-4.4-2.8-9.3-4.6c-4.8-1.7-6,0.9-10.1-0.5
	c-5.9-2-4.4-7.7-11.3-11.8c-1.2-0.7-4.7-1.8-11.8-4c-5.9-1.9-6.7-1.9-7.1-2.9c-1.3-3.3,7.8-7.1,16.9-18.9c5.2-6.8,4.7-8.7,10-13.8
	c3.4-3.3,6.5-5.3,12.7-9.3c4.9-3.2,8.4-5,12.7-6.2c2.5-0.7,7.4-1,7.4-1s-2.3,2.2-7.1,5.7c-6.9,5.2-5.8,5.2-11.1,9.1
	c-6,4.3-8.9,5.3-9.3,8.3c-0.2,1.5,0.4,2.8,1.3,4.6c1.5,3,3,3.7,7.4,7.9c3.6,3.5,5.4,5.2,6.4,6.7c1.4,2,2.1,3.7,4.2,4.7
	c2.1,1,4.3-0.3,4,1c-0.3,1.9-2.6,6.3-2.8,15c0,2.1-0.2,4.3-0.7,6.8C62.3,151.1,61.3,151.5,60.1,152.8z"/>
<g>
	<path fill="#BCBEC0" stroke="#000000" stroke-miterlimit="10" d="M104.3,95.4c1.8-1.3,3.2,0.8,7.8,4c3.4,2.4,6,3.1,5.9,4.2
		c0,0.8-0.9,0.5-1.5,2.1c-1.1,3.1-1,7.2-3.7,9.4c-1.9,1.5-4.4-0.4-6.9,1.4c-2.2,1.6-2.5,4.3-3.2,4.2c-0.6-0.1-0.7-2.2-0.8-4
		c-0.2-2.7-1.2-4.6-1.5-6.2c-0.5-2.7-0.3-5-0.1-5.9c0.2-0.8,1.4-2.2,2.3-4.6C103.2,98.2,103.6,95.9,104.3,95.4z"/>
</g>
<g>
	<path fill="#BCBEC0" stroke="#000000" stroke-miterlimit="10" d="M67.9,95.4c-1.8-1.3-3.2,0.7-7.9,3.9c-3.5,2.4-6,2.9-6,4.1
		c0,0.8,0,0.8,1,2.3c1.8,2.8,1,7.7,3.7,10c1.8,1.6,4.7-0.7,7.1,1.2c2.2,1.7,2.5,4.2,3.2,4.1c0.6-0.1,0.8-2.2,0.9-4
		c0.3-2.7,1.3-4.6,1.7-6.2c0.5-2.7,0.4-5,0.2-5.9c-0.2-0.8-1.4-2.3-2.2-4.6C69,98.2,68.6,95.9,67.9,95.4z"/>
</g>
<path stroke="#000000" stroke-miterlimit="10" d="M81,78c0-0.1,0,0.3,0.8-0.1c0.7-0.4,0.6-0.3,0.6-0.3s0,1,0.3,1.9
	c0.4,1.2,2,1.7,2.6,1.8c0.6,0.1,2.9,0.1,3.7-0.9c0.6-0.8,0.6-2.7,0.6-2.7h2.1c0,0-0.5,2.9-1.3,3.9c-1.1,1.3-2.4,1.4-3.3,1.5
	c-0.9,0.1-2.8,0.3-4.4-1C81.1,81,80.5,78.6,81,78z"/>
<path fill="none" stroke="#C49A6C" stroke-miterlimit="10" d="M110.8,50.7c-0.2-0.2,0.4-1.1,1.2-1.5c0.9-0.4,2-0.3,2.1,0
	C114.2,49.7,111.1,51.1,110.8,50.7z"/>
<path fill="none" stroke="#C49A6C" stroke-miterlimit="10" d="M64.9,51.3c0.1-0.2-0.9-1.2-2.2-1.5c-1-0.3-2.3-0.3-2.4,0
	C60.3,50.2,64.6,51.7,64.9,51.3z"/>
<path fill="none" stroke="#000000" stroke-miterlimit="10" d="M90.4,40.5c2.1-1.1,6.8-1.2,10.8,2.1"/>
<line fill="none" stroke="#000000" stroke-miterlimit="10" x1="93.4" y1="39.6" x2="93.4" y2="39.6"/>
<g>
	<path fill="none" stroke="#C49A6C" stroke-miterlimit="10" d="M86.9,57.3c-0.2-0.1-1.4-0.8-2.7-0.4c-1.2,0.4-2.3,1.6-2.1,2.9
		c0.2,1,1,1.7,1.8,1.9c1,0.3,2.1,0,2.9-0.8"/>
</g>
<path fill="none" stroke="#BE1E2D" stroke-miterlimit="10" d="M71.3,63.4C71.7,62.7,73,62,73,62s1.1,1.4,1.8,2.4
	c2.5,3.2,6.1,4.1,7.4,4.4c2,0.4,3.5,0.2,5,0.1c1.2-0.1,3-0.2,5-1.2c1.1-0.6,2.2-1.1,3.8-2.3c1.8-1.2,2-1.7,2-1.7
	c1.2-1.2,1.5-1.4,1.5-1.4s0.6,0.7,0.8,1.2"/>
<g>
	<path fill="#FFFFFF" stroke="#000000" stroke-miterlimit="10" d="M90.9,48.9c0-0.1-0.1-0.2,0.2-0.6c0.1-0.3,0.3-0.8,0.7-1.2
		c0.1-0.1,0.9-1.2,2.3-1.6c1.3-0.4,2.5-0.2,4,0.4c1.3,0.5,0.4,0.2,2.5,1.1c1.1,0.5,2.6,0.9,2.5,1.1c0,0.3-1,0.5-2.7,0.8
		c-2.4,0.4-2.7,0.5-3.9,0.6c-0.6,0.1-2-0.1-3.3-0.1C93.2,49.4,91.1,49.2,90.9,48.9z"/>
	<path fill="#3C2415" stroke="#000000" stroke-miterlimit="10" d="M93.8,47.1c0.2-0.8,1.3-1.1,1.5-1.2c0.2,0,1.8-0.5,2.6,0.6
		c0.4,0.6,0.5,1.5,0.2,2.1c-0.8,1.2-3.3,0.6-3.8-0.1c-0.1-0.2-0.2-0.4-0.2-0.4C93.8,47.8,93.8,47.4,93.8,47.1z"/>
	<path fill="#594A42" stroke="#000000" stroke-miterlimit="10" d="M95.3,47.9c0.3-0.3,0.8-0.3,1.1-0.3c0.2,0,1.2,0.6,1.2,0.7
		c-0.1,0.5-0.6,0.9-1,1c-0.5,0.2-1.3,0.1-1.6-0.4C94.7,48.4,95,48.2,95.3,47.9z"/>
</g>
<path fill="#FFFFFF" stroke="#000000" stroke-miterlimit="10" d="M127.5,52"/>
<g>
	<path fill="#FFFFFF" stroke="#000000" stroke-miterlimit="10" d="M81.3,48.5c0-0.1,0-0.3-0.2-0.6c-0.1-0.3-0.4-0.7-0.8-1.1
		c-0.1-0.1-1-1.1-2.4-1.4c-1.4-0.3-2.5,0-3.9,0.7c-1.2,0.6-0.4,0.2-2.4,1.3C70.4,48,69,48.5,69,48.7c0.1,0.3,1.1,0.4,2.7,0.6
		c2.4,0.2,2.8,0.2,3.9,0.3c0.6,0,2-0.2,3.3-0.4C79.1,49.1,81.2,48.8,81.3,48.5z"/>
	<path fill="#3C2415" stroke="#000000" stroke-miterlimit="10" d="M78.2,46.9c-0.3-0.8-1.4-1-1.6-1c-0.2,0-1.8-0.3-2.5,0.8
		c-0.4,0.6-0.4,1.5,0,2.1c0.9,1.2,3.3,0.3,3.8-0.4c0.1-0.2,0.2-0.4,0.2-0.4C78.3,47.7,78.3,47.2,78.2,46.9z"/>
	<path fill="#594A42" stroke="#000000" stroke-miterlimit="10" d="M76.8,47.8c-0.4-0.3-0.9-0.2-1.1-0.2c-0.2,0.1-1.2,0.7-1.1,0.8
		c0.2,0.5,0.7,0.8,1.1,0.9c0.5,0.1,1.3,0,1.6-0.5C77.5,48.3,77.2,48.1,76.8,47.8z"/>
</g>
<path fill="none" stroke="#000000" stroke-miterlimit="10" d="M70.1,41.2c1.8-1.6,6.4-2.7,11.1-0.3"/>
</svg>
