<?xml version="1.0" encoding="utf-8"?>
<!-- Generator: Adobe Illustrator 18.1.0, SVG Export Plug-In . SVG Version: 6.00 Build 0)  -->
<!DOCTYPE svg PUBLIC "-//W3C//DTD SVG 1.1//EN" "http://www.w3.org/Graphics/SVG/1.1/DTD/svg11.dtd">
<svg version="1.1" id="Layer_1" xmlns="http://www.w3.org/2000/svg" xmlns:xlink="http://www.w3.org/1999/xlink" x="0px" y="0px"
	 viewBox="0 0 151.4 189.1" enable-background="new 0 0 151.4 189.1" xml:space="preserve">
<g>
	<path stroke="#000000" stroke-miterlimit="10" d="M137.1,57.7c0-0.9-8.3-0.6-13.6-6.3c-2-2.1-2.8-4.3-6.4-7.1
		c-1.6-1.3-3.3-2.3-3.2-2.7c0.3-0.7,5.7,1.8,6.6,0.6c0.9-1.2-3.5-5-8.2-11.3c-6.6-8.8-4.7-10.5-9.6-15.7C96.9,9,90,6.6,86.3,5.4
		c0,0-8.4-3.2-14.6-2.5c-1.5,0.2-3,0.6-3,0.6s-1,0.3-2,0.6c-3.3,1.2-11.2,8.6-11.7,8.1c-0.3-0.2,3.3-4.3,6.3-6.9
		c3-2.6,7.2-3.5,7-3.9c-1-2-16.2,6.8-17.2,7.6c-1.1,0.9,3.2-8.7,3-8.5c-0.4,0.2-5.7,7.4-8,11.8c-2.2,4.2-2.1,3.8-4.7,7.9
		c-2.3,3.7-2.4,8.7-2.6,11.8c-0.2,2.7-0.1,5.2,0,6.5c0.2,1.9,0.4,3.3,0.6,3.9c0.3,1.3,0.8,3.6,2,6.3c0.7,1.6,1.5,3,2,3.7
		c0,0,0.2,0.4,0.5,0.8c2.8,4.2,6,6.8,6,6.8c1.3,1,4.7,4.4,9.4,5.5c3.2,0.8,9.7,1.9,9.9,1.9c0,0-0.3-3.7-0.2-2c0,0-16.3-1.9-18.6-9.7
		c-1-3.4,1-9.1-1.1-9c-1.2,0-1.9,1.1-3.8,0.3c-3.1-1.3-5.4-6.3-3.6-8.1c1-1,3.3-0.7,4.8,0.3c2.3,1.4,2.6,4.2,3.2,4.1
		c0.8-0.1-0.7-4.6,1.6-8.3c0.9-1.5,1.6-1.5,3.4-4.2c1.1-1.6,1.7-2.5,2-3.8c0.7-2.7-0.5-4.2,0.3-4.8c1-0.9,3.3,1.2,7,2.3
		c5.2,1.5,6-1.3,11.8-0.2c4,0.7,3.2,2,10.8,4.6c1.4,0.5,2.9,0.9,4.2,2.3c2.1,2.2,2.2,5.2,2.2,5.5c0.1,2.7-1.3,4.7-0.9,4.9
		c0.4,0.2,1.7-3.3,4.4-3.9c1.3-0.3,3,0.2,3.8,1.3c1,1.4,0.3,3.4,0.1,4.1c-1.1,3-3.1,2.8-4.4,5.6c-0.9,2.1,0.1,2.5-0.9,5.5
		c-0.7,2.2-1.7,3.7-2.3,4.5c-0.9,1.2-2,2.9-4.1,4.2c-1.5,1-3.2,1.4-6.5,2.2c0,0-1.5-0.2-6.1,0.7c0.2-1.1-0.2,2.9,0.3,3.9
		c0.8,1.5,4.7,0.3,9,0.2c2.7-0.1,1.9,0.4,15.6,3.5c0,0,5.6,1.3,10.9,1.5c0,0,0,0,0,0c4.9,0.2,7.3,0.3,7.5-0.1
		c0.2-0.8-6.8-4.7-6.3-3.7c0.1,0.2,22.3-0.7,23.8-2.2c1.8-1.9-14.7-9.4-12.3-9.4C125.2,59.3,137.2,60.8,137.1,57.7z"/>
	<path fill="#E8B68A" stroke="#E8B68A" stroke-miterlimit="10" d="M69.8,72.5c0,0-0.4-5-0.8-8c0,0-2.6,1.3-9.3-1.1
		c-0.8-0.3-3.5-0.8-6.8-4c-1.5-1.5-1.8-3.5-2.1-4.8c-0.7-2.8,0.1-3.1,0.2-6.5c0,0,0.7-0.2-1.1-1.7c-0.2-0.2-1.4-0.1-1.7,0
		c-0.6,0.3-1.7,0.7-2.9,0.4c-1.8-0.5-2.5-2.3-2.9-3.3c-0.3-0.8-1.2-3.1-0.1-4.2c0.8-0.8,2.4-0.7,3.4-0.3c3.1,1.1,3.6,4.9,4.6,4.7
		c0.8-0.1-1-2-0.1-6.5c0.3-1.3,0.5-1.8,2.3-3.9c1.3-1.6,2.6-3.6,3.6-5.2c0.9-1.3,0.3-5.7,1.4-6c2-0.5,2.6,1.7,6.6,3
		c5,1.6,6.2-1.3,11.9-0.2c2.9,0.5,1.8,1.1,10.9,4.9c2.2,0.9,3,1.2,3.7,2.2c2.7,3.5,0.4,9,0.8,9.5c0.3,0.4,2-3,5.3-3.1
		c1.1,0,2.8,0.3,3.4,1.4c1.5,2.6-2,4.7-4.3,8.9c-1.8,3.2-1.9,7.4-3.3,10.1c-1.1,2.2-2.6,3.9-6.3,5.3c-4.5,1.7-8.7,2.1-10.5,1.1
		c0,0,0,0,0,0c-1.6,2.8-0.2,5.6-0.2,5.6c0,0.3,0,0.9,0.1,1.6c-0.4,0.3-1.1,0.8-2.1,1.1c-0.3,0.1-0.6,0.1-1,0.1
		C70.9,73.4,69.8,72.5,69.8,72.5z"/>
	<path fill="none" stroke="#C49A6C" stroke-miterlimit="10" d="M47.4,43.9c0.2-0.2-0.4-1.1-1.2-1.4c-0.9-0.4-2-0.2-2.1,0
		C44.1,43,47.1,44.4,47.4,43.9z"/>
	<path fill="none" stroke="#C49A6C" stroke-miterlimit="10" d="M93.4,43.6c-0.1-0.2,0.9-1.2,2.1-1.6c1-0.3,2.3-0.3,2.4,0
		C98,42.5,93.6,44.1,93.4,43.6z"/>
	<line fill="none" stroke="#000000" stroke-miterlimit="10" x1="64.6" y1="32.5" x2="64.6" y2="32.5"/>
	<path fill="none" stroke="#000000" stroke-miterlimit="10" d="M67.7,33.4c-2.1-1.1-6.8-1.1-10.8,2.3"/>
	<g>
		<path fill="none" stroke="#C49A6C" stroke-miterlimit="10" d="M71.4,50.1c0.2-0.1,1.3-0.9,2.7-0.4c1.2,0.4,2.3,1.6,2.1,2.9
			c-0.2,1-1,1.7-1.8,1.9c-1,0.3-2.1,0.1-2.9-0.7"/>
	</g>
	<path fill="none" stroke="#BE1E2D" stroke-miterlimit="10" d="M87.2,55.9c-0.4-0.7-1.7-1.3-1.7-1.3s-1,1.4-1.8,2.4
		c-2.4,3.3-6,4.3-7.3,4.5c-2,0.4-3.5,0.3-5,0.2c-1.2-0.1-3-0.1-5-1.1c-1.1-0.5-2.2-1.1-3.9-2.2c-1.8-1.2-2-1.7-2-1.7
		c-1.2-1.1-1.6-1.4-1.6-1.4s-0.6,0.7-0.8,1.2"/>
	<g>
		<path fill="#FFFFFF" stroke="#000000" stroke-miterlimit="10" d="M67.3,41.8c0-0.1,0-0.2-0.2-0.6c-0.1-0.3-0.3-0.7-0.7-1.2
			c-0.1-0.1-1-1.2-2.3-1.6c-1.4-0.4-2.5-0.1-4,0.5c-1.3,0.5-0.4,0.2-2.5,1.1c-1.1,0.5-2.6,1-2.5,1.2c0,0.3,1,0.5,2.7,0.7
			c2.4,0.4,2.7,0.4,3.9,0.5c0.6,0,2-0.1,3.3-0.2C65,42.3,67.1,42.1,67.3,41.8z"/>
		<path fill="#3C2415" stroke="#000000" stroke-miterlimit="10" d="M64.3,40c-0.2-0.8-1.3-1.1-1.5-1.1c-0.2,0-1.8-0.4-2.6,0.7
			c-0.4,0.6-0.5,1.5-0.1,2.1c0.8,1.2,3.3,0.5,3.8-0.2c0.1-0.2,0.2-0.4,0.2-0.4C64.4,40.7,64.4,40.3,64.3,40z"/>
		<path fill="#594A42" stroke="#000000" stroke-miterlimit="10" d="M62.9,40.8c-0.3-0.3-0.9-0.3-1.1-0.3c-0.2,0.1-1.2,0.6-1.2,0.7
			c0.1,0.5,0.6,0.9,1,1c0.5,0.1,1.3,0.1,1.6-0.4C63.5,41.3,63.2,41.1,62.9,40.8z"/>
	</g>
	<g>
		<path fill="#FFFFFF" stroke="#000000" stroke-miterlimit="10" d="M76.9,41.2c0-0.1,0-0.3,0.2-0.6c0.1-0.3,0.4-0.7,0.8-1.2
			c0.1-0.1,1-1.1,2.4-1.4c1.4-0.3,2.5,0,3.9,0.6c1.2,0.6,0.4,0.2,2.5,1.2c1.1,0.6,2.5,1.1,2.5,1.3c0,0.3-1.1,0.4-2.7,0.6
			c-2.4,0.3-2.8,0.3-3.9,0.3c-0.6,0-2-0.2-3.3-0.3C79.2,41.8,77,41.5,76.9,41.2z"/>
		<path fill="#3C2415" stroke="#000000" stroke-miterlimit="10" d="M79.9,39.6c0.2-0.8,1.4-1,1.5-1.1c0.2,0,1.8-0.3,2.5,0.8
			c0.4,0.6,0.4,1.5,0,2.1c-0.9,1.2-3.3,0.4-3.8-0.3c-0.1-0.2-0.2-0.4-0.2-0.4C79.9,40.3,79.8,39.9,79.9,39.6z"/>
		<path fill="#594A42" stroke="#000000" stroke-miterlimit="10" d="M81.4,40.4c0.4-0.3,0.9-0.3,1.1-0.2c0.2,0.1,1.2,0.6,1.1,0.7
			c-0.2,0.5-0.7,0.8-1.1,0.9c-0.5,0.1-1.3,0-1.6-0.5C80.7,40.9,81,40.7,81.4,40.4z"/>
	</g>
	<path fill="none" stroke="#000000" stroke-miterlimit="10" d="M87.9,33.6c-1.9-1.6-6.4-2.6-11.1-0.1"/>
</g>
<path fill="#9E1F63" stroke="#000000" stroke-miterlimit="10" d="M78.6,71c1.1-1,2.8-0.7,5.4-0.3c1.3,0.2,2.9,0.5,5,1.4
	c3.1,1.4,4.7,3.2,7.5,5.2c4,2.8,7.2,6.1,11.1,8.9c0.1,0,3.3,1.5,7,4.2c1,0.7,2.1,1.6,2.5,3.1c0.4,1.6,0,3.6-1,3.9
	c-0.6,0.2-1-0.5-3-1.5c-1.3-0.7-2.5-1.3-3.8-1.1c-1.4,0.1-1.4,0.9-2.5,1c-1.9,0.2-4.5-3-6-4c-1.4-0.8-3.3-1.1-5.5-3
	c-1.1-0.9-1.5-1.7-2.1-1.6c-1,0.2-0.6,2.3-2.3,5.2c-1,1.8-1.2,2.1-1.6,3.6c-0.4,1.4-0.5,5.6,0.4,8.2c0,0,0.6,0.2,0.9,2.8l0.5,1.7
	c-0.2,0.6-2.3,0-5.4,0.3c-3.1,0.3-3.5,0.9-5,0.6c-1.7-0.3-1.9-1.1-3.9-1.7c-1.7-0.5-3.8-0.3-4.4-0.1c-1.7,0.5-1.9,1-3.8,1.8
	c-0.6,0.2-0.3,0-1.8,0.3c-2.6,0.5-4.2,0.6-5.7,0.5c-1.4-0.1-1.6-0.3-1.7-0.4c-0.8-0.9,0.5-2.5,1.1-5.5c0.2-1,0.6-3.6-0.3-6.2
	c-0.6-1.7-1.1-1.5-2.4-4.1c-1.8-3.4-2.5-4-2.5-4.9c0-1.3-0.4,0.7-3.4-1.3c-2.9-1.9-2.9-1.9-4.3-3.4c-1.2-1.2-4.2-6.1-5-7.3
	c-0.6-0.9-8.4-12-9.9-13.5c-0.9-0.9-6.1-9.1-6.3-9.4c-1.4-2,4.1-0.8,3.5-0.8c-2.9,0,0.8-1.3,3.2-2.1c1.9-0.7,0.7-5.4,1.5-3.7
	c1.1,2.3,3.4,6.7,5.8,9.9c2,2.7,1.6,1.7,4.3,5.5c2.4,3.4,5.7,6.5,6.8,7.5c3,2.7,4.6,4,7.3,2.7c1.1-0.5,2.3-1,4.8-1.6
	c3-0.8,3.5-0.6,3.9-0.4c1.1,0.8,0.3,2.3,1.5,3.6c1.2,1.4,3.4,1.3,4.1,1.3c0.8,0,2.5-0.1,3.7-1.2C78.2,73.6,77.3,72.1,78.6,71z"/>
<polygon fill="#27AAE1" stroke="#000000" stroke-miterlimit="10" points="78.7,80.9 85.4,87.2 79.5,96.8 66.5,97.5 59.6,88.7 
	65.9,81.6 "/>
<polygon stroke="#000000" stroke-miterlimit="10" points="80.7,87.4 77,93.5 69.3,94 64.4,88.3 66.4,85.3 78,84.7 "/>
<path fill="#27AAE1" stroke="#000000" stroke-miterlimit="10" d="M116,97.2c0.3,1.1-0.9,3.2-3.2,5.8c-5.1,5.6-5.8,4.9-7.9,7.9
	c-2,2.8-2.3,4.9-5.2,7.2c-1.2,1-2.1,1.4-3,1.2c-1.7-0.4-2.4-2.8-2.8-4.2c-0.5-1.6-1-3.7,0.1-5.2c0.8-1.2,2.2-1.6,3.3-1.9
	c2.3-0.6,2.9,0.2,4-0.2c3.4-1.2,1.4-9.9,5.4-12.1c1.7-0.9,3.5-0.9,4.5-0.7C112.3,95,115.5,95.6,116,97.2z"/>
<path stroke="#000000" stroke-miterlimit="10" d="M91.8,109.1c0.4,1.2,0.8,2.4,1.2,3.7l-11,0.6l-1.4-4L91.8,109.1z"/>
<polygon stroke="#000000" stroke-miterlimit="10" points="68.4,110.3 68.7,114.8 58.7,114.6 59.7,110.5 "/>
<path fill="#00AEEF" stroke="#000000" stroke-miterlimit="10" d="M80.4,110.1c0.2,0.2,1.4,2.3,0.6,4.4c-1.1,2.7-4.7,2.9-5.4,3
	c-0.8,0.1-4.7,0.2-6.4-2.7c-0.1-0.1-1.3-2.4-0.2-4.5c1.5-3.1,5.9-2.8,6.4-2.7C76.2,107.5,78.9,107.8,80.4,110.1z"/>
<path fill="#FFFFFF" stroke="#000000" stroke-miterlimit="10" d="M77.8,110.9c0.7,0.9,0.7,2.3,0,3.2c-1,1.4-3.4,1.3-4.7,0.3
	c-0.7-0.6-1.5-1.7-1.2-2.8c0.4-1.1,1.7-1.3,2.3-1.5C74.7,110,76.7,109.5,77.8,110.9z"/>
<path fill="#9E1F63" stroke="#000000" stroke-miterlimit="10" d="M93.1,113.4c0,0,1.2,2.8,2.3,6c0.2,0.5,0.9,2.9,1.4,4.3
	c2.9,8.5,2.8,17.3,3.8,18.1c1.3,1.1,1.5,2,2,3.6c0.5,2,0.6,3.1,0.8,4.9c0.1,0.9,0.6,1.6,0.5,2.2c-0.1,0.9-1.5,1.3-2.4,1.7
	c-0.5,0.2-2.8,0.6-4.6,0.6c-1.9,0-4.3-0.8-4.3-0.8l0-0.7c0,0-0.3-2.3-0.8-3.4c-1.4-3.3-3.1-5.5-5.4-7.8c-7.2-7.4-7.8-11.6-9.4-12
	c0,0-2.5,4.3-9.6,13.9c-2.1,2.9-3.9,4.9-3.8,7.8c0,1.7,0.7,3.3-0.3,4.4c-0.2,0.2-0.6,0.6-3.2,0.8c-4.6,0.5-6-0.2-6.4-0.5
	c-0.5-0.3-1.4-0.8-1.4-1.6c-0.1-0.8-0.2-1.4-0.1-2.3c0.3-2.3,0.1-3,1.2-5.1c0.5-0.9,0.8-2.2,1.2-3.3c0.9-2.4-0.6-8.9,0.5-15.3
	c0.6-3.5-0.2-6.3,0.9-7.4c1.8-2,3-6.2,3-6.2s9-0.9,9.9-0.3c2.6,1.6,2.3,2.6,6.9,2.4c4-0.2,5.4-3,6.5-3.4
	C85.6,112.9,93.1,113.4,93.1,113.4z"/>
<path stroke="#000000" stroke-miterlimit="10" d="M105.2,156c-0.1-1.6-0.1-3-0.9-3.3c-0.4-0.2-0.8,0-1.8,0.4c-1.2,0.5-2.4,0.9-3.7,1
	c-2,0.2-5.8,0-6.1,0.3c-1,1.3,1.5,5,3.3,7.6c2.6,3.8,3.4,3.8,3.9,5.7c0.4,1.7-0.1,2.1,0.3,6.1c0.3,2.8,0.7,3.6,0.9,4
	c0.4,0.7,0.9,1.4,3.6,3.4c2.7,2,4.1,3,5.2,3.3c0.3,0.1,4.2,1,6.9-1.2c0.4-0.4,1.2-1,1.4-2.1c0.1-0.4,0.2-1.7-2.1-4.3
	c-2.4-2.6-3.8-2.7-6.7-5.7c-1.2-1.2-1.7-1.7-2.2-2.6c-1-1.9-0.4-2.9-0.9-6.7C106,158.5,105.5,159,105.2,156z"/>
<path stroke="#000000" stroke-miterlimit="10" d="M61.9,161.1c0.8-1.7,2.1-4.7,1.2-5.5c-0.5-0.4-1.1,0.1-3.2,0.5
	c-2.3,0.5-4.7,1-6.4-0.2c-1.1-0.7-1.1-1.7-1.6-1.6c-1.3,0.2-1.4,7.2-1.4,8.7c-0.1,6.1,0.7,6.5,0,8.6c-0.6,1.6-1.1,1.6-6,7.3
	c-3.5,4-4.4,5.2-4,6.5c0.4,1.8,2.9,2.6,3.5,2.8c2.9,1,5.6-0.4,6-0.7c1.5-0.8,1.3-1.4,4.5-4.5c2.3-2.2,2.5-2,2.9-2.9
	c0.7-1.6-0.1-2.6-0.2-6.7c0-1.3-0.1-2,0-2.7C57.6,167.2,59.6,166.1,61.9,161.1z"/>
<path fill="#BCBEC0" stroke="#000000" stroke-miterlimit="10" d="M44.4,79.7c0,0,0,0-2.6,1.9c-2.2,1.6-6.6,5.4-10.3,11.7
	c-3.5,5.9-2.8,8.3-7.3,14.8c-3.4,5-5.8,6.4-6.7,7c-3.6,2.1-7.8,2.5-9.8,2.6c-4.3,0.2-5.9-1-6.8,0c-1.5,1.8,1.3,7.8,5.7,11.3
	c2.2,1.8,5.4,3.1,11.6,5.8c3.3,1.4,3,1.1,4,1.6c5.8,3.2,5.4,6.9,9.8,9.6c3.8,2.3,4.3,2.9,12,2.4c4.5-0.3,7.5,2.3,8.4,1.3
	c0.7-0.8-0.2,1.1,0.6-1.4c0.5-1.8,1.1-2.9,1.8-4.7c0.6-1.6-1.6-7-0.2-14.5c0.6-3.3,1.5-6.8,2.5-9.6c1.6-4.2,0.4-1.1,1.6-4.2
	c0.9-2.4,1.7-10.3,2.5-11.9c2.1-4-5.2-11.6-6.1-14.1c-0.4-1-4.9-1.4-8.1-6.1C45.8,81.5,44.9,80.2,44.4,79.7z"/>
<path fill="#BCBEC0" stroke="#000000" stroke-miterlimit="10" d="M64.5,149.3c0.4,0.4,8-3.2,13.1-3.2c7.5,0,13,3.4,13.6,2.5
	c0.7-1-2.9-3.1-7.3-8.7c-2-2.7-6.1-9.8-6.9-9.7c-0.7,0-3.8,5.7-7,10.1C66.7,144.5,64.1,149,64.5,149.3z"/>
<path fill="#BCBEC0" stroke="#000000" stroke-miterlimit="10" d="M102.5,144.8c2.1,2,4.3-3.1,9-5.1c4.7-2,6,0.6,10.1-1.1
	c5.8-2.4,4-8,10.6-12.4c1.1-0.8,4.6-2.1,11.6-4.7c5.8-2.2,6.6-2.3,6.9-3.2c1.1-3.4-8.1-6.7-17.9-18c-5.6-6.5-5.1-8.4-10.7-13.3
	c-3.6-3.2-6.8-5-13.1-8.6c-5.1-2.9-8.7-4.5-13-5.5c-2.5-0.6-7.5-0.6-7.5-0.6s2.4,2,7.4,5.3c7.2,4.8,6,4.9,11.6,8.5
	c6.2,4,9.2,4.8,9.7,7.8c0.3,1.5-0.3,2.8-1.1,4.6c-1.4,3.1-2.8,3.8-7,8.3c-3.4,3.7-5.1,5.5-6,7.1c-1.3,2.1-1.9,3.8-4,4.9
	c-2.1,1.2-4.3-0.1-4,1.2c0.4,1.9,2.9,6.1,3.6,14.9c0.2,2.1,0.4,4.3,1,6.8C100.3,143.2,101.3,143.6,102.5,144.8z"/>
<g>
	<path fill="#BCBEC0" stroke="#000000" stroke-miterlimit="10" d="M92,87.3c1.7-1.4,3.2,0.5,8.1,3.4c3.6,2.2,6.2,2.6,6.2,3.7
		c0,0.8,0,0.8-0.8,2.3c-1.6,2.9-0.6,7.8-3.1,10.2c-1.7,1.7-4.7-0.4-7,1.6c-2.1,1.8-2.3,4.3-3,4.2c-0.6-0.1-0.9-2.2-1.2-4
		c-0.4-2.7-1.6-4.5-2-6.1c-0.7-2.7-0.7-4.9-0.5-5.9c0.1-0.8,1.3-2.4,1.9-4.7C91.1,90.1,91.3,87.9,92,87.3z"/>
</g>
<path stroke="#000000" stroke-miterlimit="10" d="M78,70.7c-0.1-0.1,0,0.3-0.8-0.1c-0.7-0.3-0.6-0.2-0.6-0.2s0.1,1-0.2,1.9
	c-0.4,1.2-1.9,1.8-2.5,1.9c-0.6,0.1-2.9,0.3-3.7-0.7c-0.6-0.8-0.7-2.7-0.7-2.7l-2.1,0.1c0,0,0.5,3.6,1.4,4.5
	c1.2,1.2,2.6,1.8,3.6,1.8c0.9,0,3.1,0.2,4.6-1.2C78.2,74.8,78.5,71.2,78,70.7z"/>
<path fill="#27AAE1" stroke="#000000" stroke-miterlimit="10" d="M26.4,54.5C22.3,52,24.2,38.8,17.7,38c-3.6-0.5-4.3-1.4-4.3-1.6
	c0-0.1,4.3,0.2,4.2-1.2c-0.1-1.3-4.6-1.3-4.6-1.2c0,0.2,4.5-0.2,4.5-1.5c0-1.1-4.9-0.5-4.9-0.6c0,0,4.8-0.9,4.8-1.5
	c0-0.9-5-0.8-5-0.9c0-0.1,4.7,0.1,4.8-0.5c0.2-1.1-5-2.2-4.9-2.2c0.1,0,3.4,1.4,4.1,0.5c0.7-0.8-0.9-3-0.7-4.2
	c0.1-0.7,1.7-1.1,2.1-0.3c0.6,1,1.2,2.5,1.2,3.2c0,1.6,0.4,3.3,5.3,9.5c8.3,10.9,12.2,12.9,11.4,15.6C34.8,54.1,29.2,56.2,26.4,54.5
	z"/>
<path fill="none" stroke="#000000" stroke-miterlimit="10" d="M12.3,26.9c0,1,0,1.9,0,2.8c0,0.9,0.1,1.7,0.1,2.4
	c0.1,0.8,0.1,1.4,0.2,2c0.2,1.4,0.4,2.3,0.7,2.3"/>
<g>
	<g>
		<path d="M12.6,27.7c0,0.3-0.1,1,0.1,1.4c0.2,0.3,0.4,0.1,0.7,0.1c0.5,0,0.9,0.2,1.4,0.2c0.5,0,1-0.1,1.5-0.3
			c0.2-0.1,0.2-0.4,0-0.5c-0.6-0.2-1.2-0.5-1.7-0.7c-0.4-0.2-1-0.5-1.4-0.4c-0.1,0-0.2,0.1-0.2,0.2c-0.1,0.4-0.2,0.9,0.3,1
			c0.2,0.1,0.4,0,0.6,0.1c0.2,0,0.4,0.1,0.5,0.2c0.3,0.1,0.6,0.2,1,0.2c0.3,0,0.3-0.4,0.1-0.5c-0.6-0.3-1.3-0.6-2-0.7
			c-0.3,0-0.5,0.4-0.1,0.5c0.7,0.1,1.3,0.4,2,0.7c0-0.2,0-0.3,0.1-0.5c-0.5,0.1-0.9-0.2-1.4-0.4c-0.1,0-0.3-0.1-0.4-0.1
			c-0.2-0.1-0.2,0-0.1,0.1c0-0.2,0-0.3,0-0.5c-0.1,0.1-0.2,0.1-0.2,0.2c0.5,0,1.2,0.4,1.6,0.5c0.5,0.2,0.9,0.4,1.4,0.6
			c0-0.2,0-0.3,0-0.5c-0.8,0.3-1.6,0.3-2.4,0.1c-0.2-0.1-0.4,0-0.6-0.1c-0.3,0-0.1,0.1-0.1-0.1c0-0.3,0-0.6,0-0.8
			C13.1,27.4,12.6,27.4,12.6,27.7L12.6,27.7z"/>
	</g>
</g>
<g>
	<g>
		<path d="M12.6,30.3c0,0.4,0.1,0.9,0.1,1.3c0,0.2,0.3,0.4,0.5,0.1c0.2-0.4,1.2-0.4,1.6-0.5c0.5-0.1,1-0.3,1.5-0.4
			c0.2-0.1,0.2-0.3,0.1-0.4c-0.4-0.5-1.1-0.4-1.7-0.4c-0.4,0-1.5-0.2-1.7,0.3c-0.1,0.3,0.1,0.7,0.5,0.8c0.4,0,0.8-0.1,1.2-0.1
			c0.4,0,0.8,0,1.2-0.1c0.3-0.1,0.2-0.6-0.1-0.5c-0.5,0.1-0.9,0.1-1.4,0.1c-0.2,0-0.3,0-0.5,0c-0.1,0-0.5,0-0.4,0.1
			c0.7,0.1,2-0.4,2.6,0.2c0-0.1,0.1-0.3,0.1-0.4c-0.7,0.2-1.5,0.4-2.2,0.5C13.4,31,13,31,12.7,31.5c0.2,0,0.3,0.1,0.5,0.1
			c0-0.4-0.1-0.9-0.1-1.3C13.1,30,12.6,30,12.6,30.3L12.6,30.3z"/>
	</g>
</g>
<g>
	<g>
		<path d="M14.1,30.7c0.2,0,0.6-0.1,0.8,0c0.1,0,0.2,0.2,0.3,0.2c0.2,0.1,0.4,0,0.6,0c0.2,0,0.5,0,0.8-0.1c0.1,0,0.2-0.1,0.2-0.2
			c0,0,0,0,0,0c0-0.1-0.1-0.2-0.1-0.2c0,0,0,0,0,0c-0.3-0.2-0.5,0.3-0.3,0.4c0,0,0,0,0,0c0-0.1-0.1-0.1-0.1-0.2c0,0,0,0,0,0
			c0.1-0.1,0.1-0.2,0.2-0.2c-0.2,0.1-0.5,0.1-0.7,0c-0.2,0-0.3,0-0.5-0.1c0,0-0.1-0.1-0.1-0.1c-0.3-0.1-0.7,0-1.1,0
			C13.8,30.2,13.8,30.7,14.1,30.7L14.1,30.7z"/>
	</g>
</g>
<g>
	<g>
		<path d="M13,31.3c0.1,0,0.2,0,0.3,0c0.3,0,0.3-0.5,0-0.5c-0.1,0-0.2,0-0.3,0C12.7,30.8,12.7,31.3,13,31.3L13,31.3z"/>
	</g>
</g>
<g>
	<g>
		<path d="M12.9,32.8c1.4,0,2.7,0,4.1,0c0-0.2,0-0.3-0.1-0.5c-0.8,0.2-1.7,0.5-2.5,0.7c-0.2,0.1-0.4,0.1-0.6,0.2
			c-0.1,0-0.2,0-0.3,0.1c-0.1,0.1-0.1,0.1-0.1-0.1c-0.4-0.3,0.6-0.1,0.8-0.1c0.4,0,0.8,0,1.2-0.1c0,0,0.6,0,0.6-0.1
			c0-0.1-0.5-0.1-0.6-0.1c-0.3,0-0.5,0.1-0.8,0.2c-0.1,0.1-0.3,0.2-0.4,0.2c-0.2,0.1-0.3,0.1-0.5-0.1c-0.3,0-0.4-0.1-0.2-0.2
			c0,0.2,0,0.3,0.1,0.5c0.1,0,0.1-0.1,0.2-0.1c0.3,0,0.3-0.5,0-0.5c-0.2,0-0.3,0-0.4,0.1c-0.1,0.1-0.2,0.4,0.1,0.5
			c0.5,0.1,0.8-0.4,0.3-0.7c-0.4-0.3-0.7,0-0.8,0.4c-0.1,0.8,0.7,0.9,1.3,0.7c0.3-0.1,0.5-0.2,0.7-0.3c0.3-0.1,0.6-0.1,0.9-0.1
			c0.2,0,0.5-0.1,0.7-0.3c0.3-0.6-0.5-0.6-0.9-0.6c-0.7,0-1.4,0.1-2.2,0.1C13.4,32.6,13.1,32.5,12.9,32.8c-0.2,0.2,0.1,0.9,0.4,1
			c0.4,0.1,1.3-0.3,1.7-0.4c0.7-0.2,1.4-0.4,2.1-0.6c0.3-0.1,0.2-0.5-0.1-0.5c-1.4,0-2.7,0-4.1,0C12.6,32.3,12.6,32.8,12.9,32.8
			L12.9,32.8z"/>
	</g>
</g>
<g>
	<g>
		<path d="M13.1,34.9c0.8,0,1.6,0,2.3,0c0.4,0,0.8,0.1,1.2,0.2c0.2,0.1,0.2,0,0-0.1c-0.2,0.1-0.4,0.2-0.7,0.3
			c-0.3,0.1-0.7,0.2-1,0.3c-0.1,0-1.6,0.3-1.3-0.3c0.1-0.2,1.2-0.2,1.4-0.2c0.2,0,1.4,0,0.5,0.2c-0.3,0.1-0.5,0.1-0.8,0.1
			c-0.4,0.1-1.1,0.2-0.3,0c0.3-0.1,0.6-0.1,0.9-0.2c0.2,0.1,0.4,0,0.6-0.1c0,0,0,0-0.1,0c-0.4,0-0.7,0.1-1.1,0.2
			c-0.2,0-0.4,0.1-0.5,0.2c0,0.2,0.2,0.2,0.3,0.1c0.3,0,0.7-0.2,1-0.2c0.3,0,0.2-0.5-0.1-0.5c-0.5,0.1-2.2,0.2-1.5,1.1
			C13.9,36,14,36,14.1,36c0.7-0.2,1.4-0.3,2.1-0.5c0.2-0.1,0.4-0.1,0.4-0.3c0.1-0.7-1-0.6-1.4-0.5c-0.4,0.1-2,0-1.8,0.8
			c0.2,0.8,1.8,0.3,2.2,0.2c0.4-0.1,1.3-0.4,0.8-1c-0.2-0.3-0.7-0.3-1.1-0.3c-0.6,0-1.1,0.2-1.6,0.2c-0.7,0-0.7,0.9-0.3,1.3
			c0.5,0.5,1.9,0,2.5-0.1c0.3-0.1,1.9-0.5,1.2-1.1c-0.3-0.3-1.1-0.3-1.5-0.3c-0.8-0.1-1.7-0.1-2.5,0C12.8,34.4,12.8,34.9,13.1,34.9
			L13.1,34.9z"/>
	</g>
</g>
<g>
	
		<rect x="14.5" y="19.8" transform="matrix(0.99 0.1409 -0.1409 0.99 4.6626 -2.6308)" fill="#808285" stroke="#000000" stroke-miterlimit="10" width="12.9" height="23.6"/>
	
		<rect x="16.6" y="24.2" transform="matrix(0.99 0.1409 -0.1409 0.99 4.7054 -2.6215)" stroke="#000000" stroke-miterlimit="10" width="8.5" height="15.5"/>
</g>
</svg>
