<?xml version="1.0" encoding="utf-8"?>
<!-- Generator: Adobe Illustrator 18.1.0, SVG Export Plug-In . SVG Version: 6.00 Build 0)  -->
<!DOCTYPE svg PUBLIC "-//W3C//DTD SVG 1.1//EN" "http://www.w3.org/Graphics/SVG/1.1/DTD/svg11.dtd">
<svg version="1.1" id="Layer_1" xmlns="http://www.w3.org/2000/svg" xmlns:xlink="http://www.w3.org/1999/xlink" x="0px" y="0px"
	 viewBox="0 0 151.4 189.1" enable-background="new 0 0 151.4 189.1" xml:space="preserve">
<g>
	<path stroke="#000000" stroke-miterlimit="10" d="M140.1,57.7c0-0.9-8.3-0.6-13.6-6.3c-2-2.1-2.8-4.3-6.4-7.1
		c-1.6-1.3-3.3-2.3-3.2-2.7c0.3-0.7,5.7,1.8,6.6,0.6c0.9-1.2-3.5-5-8.2-11.3c-6.6-8.8-4.7-10.5-9.6-15.7C99.9,9,93,6.6,89.3,5.4
		c0,0-8.4-3.2-14.6-2.5c-1.5,0.2-3,0.6-3,0.6s-1,0.3-2,0.6c-3.3,1.2-11.2,8.6-11.7,8.1c-0.3-0.2,3.3-4.3,6.3-6.9
		c3-2.6,7.2-3.5,7-3.9c-1-2-16.2,6.8-17.2,7.6c-1.1,0.9,3.2-8.7,3-8.5c-0.4,0.2-5.7,7.4-8,11.8c-2.2,4.2-2.1,3.8-4.7,7.9
		c-2.3,3.7-2.4,8.7-2.6,11.8c-0.2,2.7-0.1,5.2,0,6.5c0.2,1.9,0.4,3.3,0.6,3.9c0.3,1.3,0.8,3.6,2,6.3c0.7,1.6,1.5,3,2,3.7
		c0,0,0.2,0.4,0.5,0.8c2.8,4.2,6,6.8,6,6.8c1.3,1,4.7,4.4,9.4,5.5c3.2,0.8,9.7,1.9,9.9,1.9c0,0-0.3-3.7-0.2-2c0,0-16.3-1.9-18.6-9.7
		c-1-3.4,1-9.1-1.1-9c-1.2,0-1.9,1.1-3.8,0.3c-3.1-1.3-5.4-6.3-3.6-8.1c1-1,3.3-0.7,4.8,0.3c2.3,1.4,2.6,4.2,3.2,4.1
		c0.8-0.1-0.7-4.6,1.6-8.3c0.9-1.5,1.6-1.5,3.4-4.2c1.1-1.6,1.7-2.5,2-3.8c0.7-2.7-0.5-4.2,0.3-4.8c1-0.9,3.3,1.2,7,2.3
		c5.2,1.5,6-1.3,11.8-0.2c4,0.7,3.2,2,10.8,4.6c1.4,0.5,2.9,0.9,4.2,2.3c2.1,2.2,2.2,5.2,2.2,5.5c0.1,2.7-1.3,4.7-0.9,4.9
		c0.4,0.2,1.7-3.3,4.4-3.9c1.3-0.3,3,0.2,3.8,1.3c1,1.4,0.3,3.4,0.1,4.1c-1.1,3-3.1,2.8-4.4,5.6c-0.9,2.1,0.1,2.5-0.9,5.5
		c-0.7,2.2-1.7,3.7-2.3,4.5c-0.9,1.2-2,2.9-4.1,4.2c-1.5,1-3.2,1.4-6.5,2.2c0,0-1.5-0.2-6.1,0.7c0.2-1.1-0.2,2.9,0.3,3.9
		c0.8,1.5,4.7,0.3,9,0.2c2.7-0.1,1.9,0.4,15.6,3.5c0,0,5.6,1.3,10.9,1.5c0,0,0,0,0,0c4.9,0.2,7.3,0.3,7.5-0.1
		c0.2-0.8-6.8-4.7-6.3-3.7c0.1,0.2,22.3-0.7,23.8-2.2c1.8-1.9-14.7-9.4-12.3-9.4C128.2,59.3,140.2,60.8,140.1,57.7z"/>
	<path fill="#E8B68A" stroke="#E8B68A" stroke-miterlimit="10" d="M72.8,72.5c0,0-0.4-5-0.8-8c0,0-2.6,1.3-9.3-1.1
		c-0.8-0.3-3.5-0.8-6.8-4c-1.5-1.5-1.8-3.5-2.1-4.8c-0.7-2.8,0.1-3.1,0.2-6.5c0,0,0.7-0.2-1.1-1.7c-0.2-0.2-1.4-0.1-1.7,0
		c-0.6,0.3-1.7,0.7-2.9,0.4c-1.8-0.5-2.5-2.3-2.9-3.3c-0.3-0.8-1.2-3.1-0.1-4.2c0.8-0.8,2.4-0.7,3.4-0.3c3.1,1.1,3.6,4.9,4.6,4.7
		c0.8-0.1-1-2-0.1-6.5c0.3-1.3,0.5-1.8,2.3-3.9c1.3-1.6,2.6-3.6,3.6-5.2c0.9-1.3,0.3-5.7,1.4-6c2-0.5,2.6,1.7,6.6,3
		c5,1.6,6.2-1.3,11.9-0.2c2.9,0.5,1.8,1.1,10.9,4.9c2.2,0.9,3,1.2,3.7,2.2c2.7,3.5,0.4,9,0.8,9.5c0.3,0.4,2-3,5.3-3.1
		c1.1,0,2.8,0.3,3.4,1.4c1.5,2.6-2,4.7-4.3,8.9c-1.8,3.2-1.9,7.4-3.3,10.1c-1.1,2.2-2.6,3.9-6.3,5.3c-4.5,1.7-8.7,2.1-10.5,1.1
		c0,0,0,0,0,0c-1.6,2.8-0.2,5.6-0.2,5.6c0,0.3,0,0.9,0.1,1.6c-0.4,0.3-1.1,0.8-2.1,1.1c-0.3,0.1-0.6,0.1-1,0.1
		C73.9,73.4,72.8,72.5,72.8,72.5z"/>
	<path fill="none" stroke="#C49A6C" stroke-miterlimit="10" d="M50.4,43.9c0.2-0.2-0.4-1.1-1.2-1.4c-0.9-0.4-2-0.2-2.1,0
		C47.1,43,50.1,44.4,50.4,43.9z"/>
	<path fill="none" stroke="#C49A6C" stroke-miterlimit="10" d="M96.4,43.6c-0.1-0.2,0.9-1.2,2.1-1.6c1-0.3,2.3-0.3,2.4,0
		C101,42.5,96.6,44.1,96.4,43.6z"/>
	<line fill="none" stroke="#000000" stroke-miterlimit="10" x1="67.6" y1="32.5" x2="67.6" y2="32.5"/>
	<path fill="none" stroke="#000000" stroke-miterlimit="10" d="M70.7,33.4c-2.1-1.1-6.8-1.1-10.8,2.3"/>
	<g>
		<path fill="none" stroke="#C49A6C" stroke-miterlimit="10" d="M74.4,50.1c0.2-0.1,1.3-0.9,2.7-0.4c1.2,0.4,2.3,1.6,2.1,2.9
			c-0.2,1-1,1.7-1.8,1.9c-1,0.3-2.1,0.1-2.9-0.7"/>
	</g>
	<path fill="none" stroke="#BE1E2D" stroke-miterlimit="10" d="M90.2,55.9c-0.4-0.7-1.7-1.3-1.7-1.3s-1,1.4-1.8,2.4
		c-2.4,3.3-6,4.3-7.3,4.5c-2,0.4-3.5,0.3-5,0.2c-1.2-0.1-3-0.1-5-1.1c-1.1-0.5-2.2-1.1-3.9-2.2c-1.8-1.2-2-1.7-2-1.7
		c-1.2-1.1-1.6-1.4-1.6-1.4s-0.6,0.7-0.8,1.2"/>
	<g>
		<path fill="#FFFFFF" stroke="#000000" stroke-miterlimit="10" d="M70.3,41.8c0-0.1,0-0.2-0.2-0.6c-0.1-0.3-0.3-0.7-0.7-1.2
			c-0.1-0.1-1-1.2-2.3-1.6c-1.4-0.4-2.5-0.1-4,0.5c-1.3,0.5-0.4,0.2-2.5,1.1c-1.1,0.5-2.6,1-2.5,1.2c0,0.3,1,0.5,2.7,0.7
			c2.4,0.4,2.7,0.4,3.9,0.5c0.6,0,2-0.1,3.3-0.2C68,42.3,70.1,42.1,70.3,41.8z"/>
		<path fill="#3C2415" stroke="#000000" stroke-miterlimit="10" d="M67.3,40c-0.2-0.8-1.3-1.1-1.5-1.1c-0.2,0-1.8-0.4-2.6,0.7
			c-0.4,0.6-0.5,1.5-0.1,2.1c0.8,1.2,3.3,0.5,3.8-0.2c0.1-0.2,0.2-0.4,0.2-0.4C67.4,40.7,67.4,40.3,67.3,40z"/>
		<path fill="#594A42" stroke="#000000" stroke-miterlimit="10" d="M65.9,40.8c-0.3-0.3-0.9-0.3-1.1-0.3c-0.2,0.1-1.2,0.6-1.2,0.7
			c0.1,0.5,0.6,0.9,1,1c0.5,0.1,1.3,0.1,1.6-0.4C66.5,41.3,66.2,41.1,65.9,40.8z"/>
	</g>
	<g>
		<path fill="#FFFFFF" stroke="#000000" stroke-miterlimit="10" d="M79.9,41.2c0-0.1,0-0.3,0.2-0.6c0.1-0.3,0.4-0.7,0.8-1.2
			c0.1-0.1,1-1.1,2.4-1.4c1.4-0.3,2.5,0,3.9,0.6c1.2,0.6,0.4,0.2,2.5,1.2c1.1,0.6,2.5,1.1,2.5,1.3c0,0.3-1.1,0.4-2.7,0.6
			c-2.4,0.3-2.8,0.3-3.9,0.3c-0.6,0-2-0.2-3.3-0.3C82.2,41.8,80,41.5,79.9,41.2z"/>
		<path fill="#3C2415" stroke="#000000" stroke-miterlimit="10" d="M82.9,39.6c0.2-0.8,1.4-1,1.5-1.1c0.2,0,1.8-0.3,2.5,0.8
			c0.4,0.6,0.4,1.5,0,2.1c-0.9,1.2-3.3,0.4-3.8-0.3c-0.1-0.2-0.2-0.4-0.2-0.4C82.9,40.3,82.8,39.9,82.9,39.6z"/>
		<path fill="#594A42" stroke="#000000" stroke-miterlimit="10" d="M84.4,40.4c0.4-0.3,0.9-0.3,1.1-0.2c0.2,0.1,1.2,0.6,1.1,0.7
			c-0.2,0.5-0.7,0.8-1.1,0.9c-0.5,0.1-1.3,0-1.6-0.5C83.7,40.9,84,40.7,84.4,40.4z"/>
	</g>
	<path fill="none" stroke="#000000" stroke-miterlimit="10" d="M90.9,33.6c-1.9-1.6-6.4-2.6-11.1-0.1"/>
</g>
<path fill="#BCBEC0" stroke="#000000" stroke-miterlimit="10" d="M102.5,144.8c2.1,2,4.3-3.1,9-5.1c4.7-2,6,0.6,10.1-1.1
	c5.8-2.4,4-8,10.6-12.4c1.1-0.8,4.6-2.1,11.6-4.7c5.8-2.2,6.6-2.3,6.9-3.2c1.1-3.4-8.1-6.7-17.9-18c-5.6-6.5-5.1-8.4-10.7-13.3
	c-3.6-3.2-6.8-5-13.1-8.6c-5.1-2.9-8.7-4.5-13-5.5c-2.5-0.6-7.5-0.6-7.5-0.6s2.4,2,7.4,5.3c7.2,4.8,3.8,4.6,0.3,10.3
	c-2.9,4.6-6,9.2-5.5,12.2c0.3,1.5,0.1,7.2,1,9c1.2,2.5,0,1.3,1.9,6c1.9,4.6,1.2,3.7,1.5,5c0.4,1.9,2.9,6.1,3.6,14.9
	c0.2,2.1,0.4,4.3,1,6.8C100.3,143.2,101.3,143.6,102.5,144.8z"/>
<path fill="#9E1F63" stroke="#000000" stroke-miterlimit="10" d="M81.7,71.9c1.2-0.9,2.8-0.5,5.4,0.1c1.2,0.3,3.1,0.6,5.2,1
	c3.4,0.7,5.4,1.6,8.7,0.3c3.7-1.4,9-4.8,12.4-6.7c0.1,0,3.6-6.3,6.1-8.3c1-0.8,1.6,2.3,2.9,3.2c1,0.7,4.1,2,4.5,2.5
	c0,0-0.5,0.3-1.2,1c-1.1,1.1-3.5,4.7-4.7,5.8c-1,0.9-3.8,4.1-4.5,5c-1.2,1.5-4,2.5-5.8,3.3c-1.5,0.6-5.6,2.3-8,3.1
	c-1.4,0.5-6.9,6.4-7.4,6.9c-0.7,0.6-1,2-2.6,5c-1,1.9-1.3,2-1.9,3.5c-0.5,1.4-0.8,5.5-0.1,8.3c0,0,0.6,0.2,0.7,2.9l0.4,1.7
	c-0.3,0.6-2.3-0.1-5.4-0.1c-3.2,0.1-3.5,0.7-5.1,0.3c-1.7-0.5-1.8-1.2-3.8-2c-1.7-0.6-3.8-0.6-4.3-0.4c-1.7,0.4-1.9,0.9-3.9,1.5
	c-0.6,0.2-0.3,0-1.8,0.2c-2.6,0.3-4.2,0.3-5.7,0.1c-1.4-0.2-1.6-0.4-1.7-0.5c-0.7-0.9,0.2-2.4,0.9-5.4c0.2-0.9,0.9-3.2,0.2-5.9
	c-0.3-1.1-1.1-2.1-2.4-4.6c-1.6-3.1-1.4-3.1-1.9-4.7c-0.3-0.8-0.3-0.8-2.8-3.4c-2.4-2.5-2.3-2.2-3.6-3.7c-1.1-1.3-3.6-4.6-5.7-4.6
	c-1,0-11.8-3.2-13.3-4.8c-0.8-0.9-6.2-9.6-6.4-10c-1.2-2,0.6-3.5,1-3.9c1.8-1.4,2.2-1.2,3.5-2.5c1.4-1.5,2-3.3,2.6-1.6
	c0.3,0.8,4.6,10.5,6,11.2c2.6,1.3,14.5,5.8,15.9,6.3c3.1,1.1,4.6,1.8,7.5,1.1c1.2-0.3,2.3-0.8,4.9-1.3c3.1-0.6,3.6-0.3,3.9-0.1
	c1.1,0.8,0.2,2.3,1.3,3.7c1.1,1.5,3.3,1.5,4,1.6c0.8,0,2.5,0.1,3.7-1C81.2,74.5,80.4,72.9,81.7,71.9z"/>
<polygon fill="#27AAE1" stroke="#000000" stroke-miterlimit="10" points="81.7,80.9 88.4,87.2 82.5,96.8 69.5,97.5 62.6,88.7 
	68.9,81.6 "/>
<polygon stroke="#000000" stroke-miterlimit="10" points="83.7,87.4 80,93.5 72.3,94 67.4,88.3 69.4,85.3 81,84.7 "/>
<path stroke="#000000" stroke-miterlimit="10" d="M91.8,109.1c0.4,1.2,0.8,2.4,1.2,3.7l-11,0.6l-1.4-4L91.8,109.1z"/>
<polygon stroke="#000000" stroke-miterlimit="10" points="68.4,110.3 68.7,114.8 58.7,114.6 59.7,110.5 "/>
<path fill="#00AEEF" stroke="#000000" stroke-miterlimit="10" d="M80.4,110.1c0.2,0.2,1.4,2.3,0.6,4.4c-1.1,2.7-4.7,2.9-5.4,3
	c-0.8,0.1-4.7,0.2-6.4-2.7c-0.1-0.1-1.3-2.4-0.2-4.5c1.5-3.1,5.9-2.8,6.4-2.7C76.2,107.5,78.9,107.8,80.4,110.1z"/>
<path fill="#FFFFFF" stroke="#000000" stroke-miterlimit="10" d="M77.8,110.9c0.7,0.9,0.7,2.3,0,3.2c-1,1.4-3.4,1.3-4.7,0.3
	c-0.7-0.6-1.5-1.7-1.2-2.8c0.4-1.1,1.7-1.3,2.3-1.5C74.7,110,76.7,109.5,77.8,110.9z"/>
<path fill="#9E1F63" stroke="#000000" stroke-miterlimit="10" d="M93.1,113.4c0,0,1.2,2.8,2.3,6c0.2,0.5,0.9,2.9,1.4,4.3
	c2.9,8.5,2.8,17.3,3.8,18.1c1.3,1.1,1.5,2,2,3.6c0.5,2,0.6,3.1,0.8,4.9c0.1,0.9,0.6,1.6,0.5,2.2c-0.1,0.9-1.5,1.3-2.4,1.7
	c-0.5,0.2-2.8,0.6-4.6,0.6c-1.9,0-4.3-0.8-4.3-0.8l0-0.7c0,0-0.3-2.3-0.8-3.4c-1.4-3.3-3.1-5.5-5.4-7.8c-7.2-7.4-7.8-11.6-9.4-12
	c0,0-2.5,4.3-9.6,13.9c-2.1,2.9-3.9,4.9-3.8,7.8c0,1.7,0.7,3.3-0.3,4.4c-0.2,0.2-0.6,0.6-3.2,0.8c-4.6,0.5-6-0.2-6.4-0.5
	c-0.5-0.3-1.4-0.8-1.4-1.6c-0.1-0.8-0.2-1.4-0.1-2.3c0.3-2.3,0.1-3,1.2-5.1c0.5-0.9,0.8-2.2,1.2-3.3c0.9-2.4-0.6-8.9,0.5-15.3
	c0.6-3.5-0.2-6.3,0.9-7.4c1.8-2,3-6.2,3-6.2s9-0.9,9.9-0.3c2.6,1.6,2.3,2.6,6.9,2.4c4-0.2,5.4-3,6.5-3.4
	C85.6,112.9,93.1,113.4,93.1,113.4z"/>
<path stroke="#000000" stroke-miterlimit="10" d="M105.2,156c-0.1-1.6-0.1-3-0.9-3.3c-0.4-0.2-0.8,0-1.8,0.4c-1.2,0.5-2.4,0.9-3.7,1
	c-2,0.2-5.8,0-6.1,0.3c-1,1.3,1.5,5,3.3,7.6c2.6,3.8,3.4,3.8,3.9,5.7c0.4,1.7-0.1,2.1,0.3,6.1c0.3,2.8,0.7,3.6,0.9,4
	c0.4,0.7,0.9,1.4,3.6,3.4c2.7,2,4.1,3,5.2,3.3c0.3,0.1,4.2,1,6.9-1.2c0.4-0.4,1.2-1,1.4-2.1c0.1-0.4,0.2-1.7-2.1-4.3
	c-2.4-2.6-3.8-2.7-6.7-5.7c-1.2-1.2-1.7-1.7-2.2-2.6c-1-1.9-0.4-2.9-0.9-6.7C106,158.5,105.5,159,105.2,156z"/>
<path stroke="#000000" stroke-miterlimit="10" d="M61.9,161.1c0.8-1.7,2.1-4.7,1.2-5.5c-0.5-0.4-1.1,0.1-3.2,0.5
	c-2.3,0.5-4.7,1-6.4-0.2c-1.1-0.7-1.1-1.7-1.6-1.6c-1.3,0.2-1.4,7.2-1.4,8.7c-0.1,6.1,0.7,6.5,0,8.6c-0.6,1.6-1.1,1.6-6,7.3
	c-3.5,4-4.4,5.2-4,6.5c0.4,1.8,2.9,2.6,3.5,2.8c2.9,1,5.6-0.4,6-0.7c1.5-0.8,1.3-1.4,4.5-4.5c2.3-2.2,2.5-2,2.9-2.9
	c0.7-1.6-0.1-2.6-0.2-6.7c0-1.3-0.1-2,0-2.7C57.6,167.2,59.6,166.1,61.9,161.1z"/>
<path fill="#BCBEC0" stroke="#000000" stroke-miterlimit="10" d="M64.5,149.3c0.4,0.4,8-3.2,13.1-3.2c7.5,0,13,3.4,13.6,2.5
	c0.7-1-2.9-3.1-7.3-8.7c-2-2.7-6.1-9.8-6.9-9.7c-0.7,0-3.8,5.7-7,10.1C66.7,144.5,64.1,149,64.5,149.3z"/>
<path stroke="#000000" stroke-miterlimit="10" d="M81,70.7c-0.1-0.1,0,0.3-0.8-0.1c-0.7-0.3-0.6-0.2-0.6-0.2s0.1,1-0.2,1.9
	c-0.4,1.2-1.9,1.8-2.5,1.9c-0.6,0.1-2.9,0.3-3.7-0.7c-0.6-0.8-0.7-2.7-0.7-2.7l-2.1,0.1c0,0,0.5,3.6,1.4,4.5
	c1.2,1.2,2.6,1.8,3.6,1.8c0.9,0,3.1,0.2,4.6-1.2C81.2,74.8,81.5,71.2,81,70.7z"/>
<path fill="#BCBEC0" stroke="#000000" stroke-miterlimit="10" d="M46,77.9c0,0-1.5,1.8-4.1,3.6c-2.2,1.6-6.6,5.4-10.3,11.7
	c-3.5,5.9-2.8,8.3-7.3,14.8c-3.4,5-5.8,6.4-6.7,7c-3.6,2.1-7.8,2.5-9.8,2.6c-4.3,0.2-5.9-1-6.8,0c-1.5,1.8,1.3,7.8,5.7,11.3
	c2.2,1.8,5.4,3.1,11.6,5.8c3.3,1.4,3,1.1,4,1.6c5.8,3.2,5.4,6.9,9.8,9.6c3.8,2.3,4.3,2.9,12,2.4c4.5-0.3,7.5,2.3,8.4,1.3
	c0.7-0.8-0.2,1.1,0.6-1.4c0.5-1.8,1.1-2.9,1.8-4.7c0.6-1.6-1.6-7-0.2-14.5c0.6-3.3,1.5-6.8,2.5-9.6c1.6-4.2,0.4-1.1,1.6-4.2
	c0.9-2.4,1.7-10.3,2.5-11.9c2.1-4-3.6-12.7-4.5-15.2c-0.4-1-3.5-2.7-7.2-6.7C48.2,79.9,46.4,78.4,46,77.9z"/>
<g>
	<path fill="#27AAE1" stroke="#000000" stroke-miterlimit="10" d="M24.6,60.6c-4.1-2.5-2.2-15.7-8.7-16.5c-3.6-0.5-4.3-1.4-4.3-1.6
		c0-0.1,4.3,0.2,4.2-1.2c-0.1-1.3-4.6-1.3-4.6-1.2c0,0.2,4.5-0.2,4.5-1.5c0-1.1-4.9-0.5-4.9-0.6c0,0,4.8-0.9,4.8-1.5
		c0-0.9-5-0.8-5-0.9c0-0.1,4.7,0.1,4.8-0.5c0.2-1.1-5-2.2-4.9-2.2c0.1,0,3.4,1.4,4.1,0.5c0.7-0.8-0.9-3-0.7-4.2
		c0.1-0.7,1.7-1.1,2.1-0.3c0.6,1,1.2,2.5,1.2,3.2c0,1.6,0.4,3.3,5.3,9.5c8.3,10.9,12.2,12.9,11.4,15.6C33,60.3,27.4,62.3,24.6,60.6z
		"/>
	<path fill="none" stroke="#000000" stroke-miterlimit="10" d="M10.5,33.1c0,1,0,1.2,0,2.1c0,0.9,0.1,2.8,0.1,3.5
		c0.1,0.8,0.1,0.5,0.2,1.1c0.2,1.5,0.5,2.4,0.7,2.4"/>
	<g>
		<g>
			<path d="M10.2,34c0,0.9-0.1,1.7,0.9,1.8c0.7,0,1.3,0.2,2,0.2c0.7,0,1.3-0.1,2-0.3c0.5-0.1,0.5-0.8,0-1c-0.7-0.2-1.4-0.5-2.1-0.7
				c-0.5-0.2-1.2-0.5-1.8-0.4c-0.2,0-0.4,0.1-0.5,0.4c-0.2,0.5-0.2,1.2,0.4,1.3c0.4,0.1,0.8,0.1,1.3,0.2c0.5,0.1,0.9,0.2,1.3,0.2
				c0.6-0.1,0.7-1,0-1c-0.3,0-0.4,0.1-0.6,0.2c-0.1,0.1-0.2,0.2-0.3,0.3c-0.2,0.2,0.1,0.2-0.1,0c-0.4-0.4-0.6-1-1.2-1.2
				c-0.6-0.2-0.9,0.8-0.3,1c0.5,0.1,0.7,1.1,1.3,1.3c0.2,0.1,0.5,0,0.7-0.1c0.1-0.1,0.5-0.5,0.6-0.5c0-0.3,0-0.7,0-1
				c-0.6,0-1-0.2-1.6-0.3c-0.2-0.1-0.4-0.1-0.6-0.1c-0.1,0-0.2,0-0.2,0c0.2,0.2,0.3,0.2,0.3-0.1c-0.2,0.1-0.3,0.2-0.5,0.4
				c0.5,0,1.3,0.3,1.8,0.5c0.6,0.2,1.2,0.4,1.8,0.6c0-0.3,0-0.6,0-1c-1,0.3-1.9,0.3-2.9,0.1c-0.3-0.1-0.6-0.1-0.8,0
				c-0.2,0-0.2,0,0,0.1c0.2,0.1,0.2,0,0.2-0.1c0.1-0.1,0-0.6,0-0.7C11.2,33.4,10.2,33.4,10.2,34L10.2,34z"/>
		</g>
	</g>
	<g>
		<g>
			<path d="M10.2,36.1c0,0.5,0.1,0.9,0.1,1.4c0,0.5,0.7,0.7,0.9,0.3c0.2-0.4,1.4-0.4,1.8-0.4c0.6-0.1,1.2-0.3,1.8-0.4
				c0.4-0.1,0.5-0.6,0.2-0.8c-0.4-0.4-1-0.5-1.5-0.5c-0.4,0-0.9,0-1.3,0c-0.4,0-0.8-0.1-1.2,0c-0.7,0.2-0.5,1.5-0.4,2
				c0.1,0.5,0.9,0.7,1,0.1c0-0.2,0-0.3,0-0.5c0-0.2,0.1-0.7,0-0.4c-0.1,0.1-0.3,0.2-0.4,0.2c0.5,0,1-0.1,1.6-0.1c0.5,0,1,0,1.6-0.1
				c0.6-0.1,0.4-1.1-0.3-1c-0.5,0.1-1,0.1-1.5,0.1c-0.4,0-0.9,0.1-1.3,0.1c-0.2,0-0.4,0.1-0.4,0.2c-0.1,0.3-0.1,0.9-0.1,1.1
				c0.3,0,0.7,0.1,1,0.1c0-0.2,0.1-1.3-0.1-1.4c-0.1,0.1-0.2,0.2-0.3,0.3c0.2,0,0.4,0,0.6,0c0.3,0,0.6,0,0.9,0
				c0.5,0,1.2-0.1,1.6,0.2c0.1-0.3,0.1-0.6,0.2-0.8c-0.9,0.2-1.8,0.5-2.8,0.6c-0.6,0.1-1.1,0.2-1.4,0.8c0.3,0.1,0.6,0.2,0.9,0.3
				c0-0.5-0.1-0.9-0.1-1.4C11.2,35.5,10.2,35.5,10.2,36.1L10.2,36.1z"/>
		</g>
	</g>
	<g>
		<g>
			<path d="M12,36.5c0.2,0,0.6-0.1,0.8,0c0.1,0,0.2,0.2,0.3,0.2c0.2,0.1,0.4,0,0.6,0c0.2,0,0.5,0,0.8-0.1c0.1,0,0.2-0.1,0.2-0.2
				c0,0,0,0,0,0c0-0.1-0.1-0.2-0.1-0.2c0,0,0,0,0,0c-0.3-0.2-0.5,0.3-0.3,0.4c0,0,0,0,0,0c0-0.1-0.1-0.1-0.1-0.2c0,0,0,0,0,0
				c0.1-0.1,0.1-0.2,0.2-0.2c-0.2,0.1-0.5,0.1-0.7,0c-0.2,0-0.3,0-0.5-0.1c0,0-0.1-0.1-0.1-0.1c-0.3-0.1-0.7,0-1.1,0
				C11.7,36,11.7,36.5,12,36.5L12,36.5z"/>
		</g>
	</g>
	<g>
		<g>
			<path d="M10.9,37.1c0.1,0,0.2,0,0.3,0c0.3,0,0.3-0.5,0-0.5c-0.1,0-0.2,0-0.3,0C10.6,36.6,10.6,37.1,10.9,37.1L10.9,37.1z"/>
		</g>
	</g>
	<g>
		<g>
			<path d="M10.8,38.9c1.5,0,3,0,4.5,0c0-0.3-0.1-0.7-0.1-1c-0.6,0.2-1.3,0.3-1.9,0.5c-0.6,0.2-1.4,0.5-2,0.5
				c0.1,0.1,0.3,0.2,0.4,0.2c0-0.3-0.1-0.4-0.3-0.1c-0.3,0.1-0.2,0.2,0.2,0.2c0.2,0,0.5,0,0.7,0c0.3,0,0.7,0,1,0
				c0.2,0,0.7,0,0.8-0.1c0.2,0,0.2-0.1,0-0.3c-0.1-0.3-0.2-0.4-0.5-0.3c-0.2,0-0.4,0.1-0.5,0.1c-0.2,0.1-0.4,0.2-0.7,0.2
				c-0.1,0-1.2,0.2-1,0.4c0-0.2-0.1-0.3-0.1-0.5c0.1-0.1,0.2-0.1,0.2-0.2c0.1,0.3,0.2,0.6,0.3,0.9c0,0,0.1,0,0.1,0c0.6,0,0.6-1,0-1
				c-0.3,0-0.4,0-0.6,0.2c-0.4,0.3-0.2,0.9,0.3,0.9c1.4,0.2,0.4-2.2-0.6-1.1c-0.3,0.4-0.2,1.1,0.2,1.4c0.7,0.6,1.7-0.1,2.4-0.3
				c0.6-0.1,1.7,0,1.7-0.8c0.1-0.7-0.8-0.7-1.3-0.7c-0.6,0-1.2,0.1-1.9,0.1c-0.4,0-0.9-0.1-1.2,0c-0.5,0.3-0.3,1-0.1,1.4
				c0.1,0.1,0.3,0.3,0.4,0.2c0.6,0,1.3-0.3,1.9-0.5c0.8-0.2,1.5-0.4,2.3-0.6c0.5-0.1,0.4-1-0.1-1c-1.5,0-3,0-4.5,0
				C10.1,37.9,10.1,38.9,10.8,38.9L10.8,38.9z"/>
		</g>
	</g>
	<g>
		<g>
			<path d="M11.1,40.8c0.6,0,1.3-0.1,1.9,0c0.4,0,0.7,0.1,1.1,0.2c0.2,0,0.4,0.1,0.6,0.1c-0.1-0.1-0.1-0.1-0.2,0
				c-0.5,0.3-1,0.5-1.6,0.6c-0.1,0-0.8,0.1-0.8,0.1c0,0.2-0.1,0.1-0.1-0.4c0-0.2,0-0.4,0-0.6c-0.1,0.1-0.2,0.2-0.3,0.3
				c-0.4,0.1-0.2-0.2-0.1,0.2c0,0.1,0.1,0.3,0.2,0.4c0.1,0.2,0.2,0.5,0.4,0.7c0.4,0.4,0.9,0.1,1.2-0.2c0.2-0.2,0.4-0.5,0.5-0.8
				c0.1-0.1,0.3-0.3,0.3-0.4c0,0,0.1-0.1,0.1-0.1c-0.3,0-0.5,0-0.8,0.1c-0.3,0.1-0.7,0.1-1,0.2c-0.1,0-0.2,0.1-0.3,0.1
				c0,0.1,0,0.1,0,0c0-0.2,0.3-0.6,0.4-0.8c-0.1,0.1-0.2,0.2-0.3,0.3c-0.3,0.1-0.4-0.1-0.1,0.1c0.2,0.1,0.4,0.1,0.6,0.1
				c0.2,0,0.5,0,0.7,0c0.1,0,0.2,0,0.2,0c0.4,0.1,0.5,0.1,0.3-0.1c0.1-0.1,0.2-0.2,0.3-0.3c-0.4,0.2-0.9,0.2-1.3,0.3
				c-0.4,0.1-0.9,0.3-1.3,0.5c0.2,0,0.4,0.1,0.6,0.1c0.2,0.2,1-0.2,1.3-0.2c0.6-0.1,0.4-1.1-0.3-1c-0.8,0.2-2.7,0.7-1.8,1.9
				c0.1,0.2,0.4,0.2,0.6,0.1c0.7-0.4,1.5-0.5,2.2-0.7c0.3-0.1,0.5-0.3,0.6-0.7c0-1.3-1.7-0.7-2.5-0.9c-0.3-0.1-0.6-0.3-0.9,0
				c-0.2,0.2-0.3,0.6-0.4,0.9c-0.3,0.8,0.1,1.5,1,1.4c0.8-0.1,2.7-0.4,2.7-1.5c0-0.8-0.8-1.1-1.4-0.7c-0.3,0.2-0.4,0.5-0.6,0.8
				c-0.1,0.1-0.4,0.4-0.4,0.6c-0.2,0.1-0.1,0.2,0.2,0.2c0-0.1-0.1-0.2-0.1-0.3c-0.1-0.6-0.6-1.4-1.3-1.2c-0.2,0-0.3,0.2-0.3,0.3
				c-0.2,0.7-0.1,2,0.8,2.2c1.1,0.1,2.4-0.3,3.3-0.9c0.6-0.4,1.1-1.2,0.3-1.6c-1.2-0.6-3-0.5-4.2-0.4C10.4,39.9,10.4,40.9,11.1,40.8
				L11.1,40.8z"/>
		</g>
	</g>
</g>
<g>
	<path fill="#27AAE1" stroke="#000000" stroke-miterlimit="10" d="M128,63.4c4-2.6,1.6-15.7,8.1-16.8c3.6-0.6,4.2-1.5,4.2-1.7
		c0-0.1-4.3,0.3-4.3-1c0-1.3,4.5-1.5,4.5-1.3c0,0.2-4.5,0-4.5-1.3c0-1.1,4.9-0.7,4.9-0.7c0,0-4.8-0.7-4.8-1.3c0-0.9,4.9-1,4.9-1.1
		c0-0.1-4.7,0.3-4.8-0.3c-0.2-1.1,5-2.4,4.8-2.4c-0.1,0-3.3,1.6-4.1,0.7c-0.7-0.8,0.8-3,0.5-4.3c-0.2-0.7-1.7-1-2.2-0.3
		c-0.6,1-1.1,2.6-1.1,3.3c0,1.6-0.3,3.3-4.9,9.7c-7.9,11.2-11.7,13.3-10.8,16C119.6,63.4,125.2,65.2,128,63.4z"/>
	<path fill="none" stroke="#000000" stroke-miterlimit="10" d="M141.1,35.4c0,1,0.1,1.2,0.1,2.1c0,0.9,0,2.8,0,3.5
		c0,0.8-0.1,0.5-0.2,1.1c-0.1,1.5-0.4,2.4-0.6,2.4"/>
	<g>
		<g>
			<path d="M140.5,36.3c0,0.2,0,0.4,0,0.5c-0.1,0.3,0,0.3,0.2,0.3c0.2,0,0.2,0,0,0c-0.3-0.1-0.7,0-1,0.1c-1,0.3-1.8,0.2-2.8,0
				c0,0.3,0,0.6,0,1c0.6-0.2,1.2-0.4,1.8-0.7c0.5-0.2,1.3-0.6,1.8-0.6c-0.2-0.1-0.3-0.2-0.5-0.4c0.1,0.1,0.1,0.4,0.1,0.5
				c0.1-0.1,0.2-0.3,0.2-0.4c-0.1,0-0.7,0.1-0.9,0.2c-0.5,0.2-0.9,0.4-1.4,0.3c0,0.3,0,0.7,0,1c0.1,0,0.4,0.4,0.6,0.5
				c0.2,0.1,0.4,0.2,0.7,0.1c0.6-0.2,0.7-1.2,1.2-1.3c0.6-0.2,0.4-1.2-0.3-1c-0.5,0.1-1,0.7-1.2,1.2c0,0.1-0.1,0.1-0.1,0.2
				c0.2,0.1,0.2,0.1,0.1,0c-0.1-0.1-0.2-0.2-0.3-0.3c-0.2-0.2-0.4-0.3-0.7-0.3c-0.6,0-0.6,1,0,1c0.5,0,0.9-0.1,1.3-0.3
				c0.4-0.2,0.8-0.2,1.3-0.3c0.6-0.2,0.6-0.8,0.4-1.3c-0.1-0.2-0.2-0.4-0.5-0.4c-0.6,0-1.2,0.3-1.8,0.5c-0.7,0.3-1.4,0.5-2.1,0.8
				c-0.4,0.1-0.5,0.9,0,1c0.6,0.1,1.2,0.2,1.8,0.2c0.7,0,1.4-0.3,2.1-0.3c1,0,1-0.8,0.9-1.7C141.4,35.7,140.4,35.7,140.5,36.3
				L140.5,36.3z"/>
		</g>
	</g>
	<g>
		<g>
			<path d="M140.5,38.4c0,0.5,0,0.9-0.1,1.4c0.3-0.1,0.6-0.2,0.9-0.3c-0.3-0.5-0.8-0.7-1.4-0.7c-1-0.1-1.9-0.3-2.8-0.5
				c0.1,0.3,0.1,0.6,0.2,0.8c0.4-0.4,1.1-0.3,1.5-0.3c0.3,0,1.3-0.1,1.5,0c-0.1-0.1-0.2-0.3-0.2-0.4c0,0.5,0,1,0,1.5
				c0.3,0,0.7-0.1,1-0.1c0-0.2,0-0.8-0.1-1.1C140.9,38.6,140.7,38.5,140.5,38.4c-0.4,0.1-0.8,0-1.3,0c-0.5,0-1,0.1-1.5,0
				c-0.6-0.1-0.9,0.8-0.3,1c0.5,0.1,1,0.1,1.6,0.1c0.5,0,1.1,0,1.6,0c-0.1-0.1-0.3-0.2-0.4-0.2c0,0,0,0.6,0,0.9
				c0.1,0.6,0.9,0.4,1-0.1c0.1-0.6,0.3-1.8-0.4-2c-0.3-0.1-0.7,0-1,0c-0.5,0-0.9,0-1.4,0c-0.6,0-1.2,0.1-1.6,0.6
				c-0.2,0.3-0.2,0.7,0.2,0.8c0.6,0.1,1.2,0.3,1.8,0.4c0.4,0.1,1.6,0,1.8,0.4c0.3,0.4,0.9,0.2,0.9-0.3c0-0.5,0-0.9,0.1-1.4
				C141.5,37.8,140.5,37.8,140.5,38.4L140.5,38.4z"/>
		</g>
	</g>
	<g>
		<g>
			<path d="M139.7,38.4c-0.3,0-0.8,0-1.1,0.1c0,0-0.1,0.1-0.1,0.1c-0.1,0.1-0.3,0.1-0.4,0.1c-0.2,0-0.5,0-0.7,0
				c0.1,0.1,0.1,0.1,0.2,0.2c0,0,0,0,0,0c0,0.1-0.1,0.2-0.1,0.3c0,0,0,0,0,0c0.3-0.2,0-0.6-0.3-0.4c0,0,0,0,0,0
				c-0.1,0.1-0.1,0.2-0.1,0.3c0,0,0,0,0,0c0,0.1,0.1,0.2,0.2,0.2c0.4,0.1,1,0.1,1.3,0c0.2,0,0.2-0.2,0.4-0.2c0.2-0.1,0.6,0,0.9,0
				C140,38.9,140,38.4,139.7,38.4L139.7,38.4z"/>
		</g>
	</g>
	<g>
		<g>
			<path d="M140.9,38.9c-0.1,0-0.2,0-0.3,0c-0.3,0-0.3,0.5,0,0.5c0.1,0,0.2,0,0.3,0C141.2,39.4,141.2,38.9,140.9,38.9L140.9,38.9z"
				/>
		</g>
	</g>
	<g>
		<g>
			<path d="M141,40.2c-1.5,0.1-3,0.1-4.5,0.2c-0.5,0-0.7,0.9-0.1,1c0.8,0.2,1.5,0.3,2.3,0.5c0.6,0.1,1.3,0.4,1.9,0.4
				c0.2,0,0.3-0.1,0.4-0.2c0.2-0.4,0.4-1.2-0.1-1.5c-0.3-0.2-0.9,0-1.2,0c-0.6,0-1.2,0-1.9,0c-0.5,0-1.3-0.1-1.3,0.7
				c0.1,0.9,1.2,0.7,1.8,0.8c0.7,0.1,1.6,0.7,2.3,0.2c0.4-0.3,0.5-1.1,0.1-1.4c-1-0.9-2,1.5-0.4,1.2c0.5-0.1,0.5-0.7,0.1-0.9
				c-0.2-0.1-0.3-0.2-0.6-0.2c-0.6,0-0.6,1,0,1c0,0,0.1,0,0.1,0c0-0.3,0.1-0.6,0.1-0.9c0.1,0.1,0.2,0.1,0.4,0.2
				c0,0.2-0.1,0.3-0.1,0.5c0,0.1-1.4-0.5-1.7-0.6c-0.2,0-0.4-0.1-0.6-0.1c-0.1,0-0.2,0-0.3,0c-0.5,0.4-0.6,0.6-0.2,0.6
				c0.3,0.2,1.1,0.1,1.5,0.1c0.3,0,1.3-0.1,1.3-0.1c-0.1-0.1-0.2-0.3-0.2-0.4c0,0.2,0,0.3-0.1,0.5c0.1-0.1,0.3-0.2,0.4-0.2
				c-0.7,0-1.4-0.3-2-0.4c-0.7-0.1-1.3-0.3-2-0.4c0,0.3-0.1,0.7-0.1,1c1.5-0.1,3-0.1,4.5-0.2C141.7,41.2,141.7,40.2,141,40.2
				L141,40.2z"/>
		</g>
	</g>
	<g>
		<g>
			<path d="M140.8,42.2c-1.3,0-3.1-0.1-4.2,0.6c-0.8,0.5-0.3,1.2,0.3,1.6c0.9,0.5,2.2,1,3.3,0.8c0.9-0.2,1-1.4,0.7-2.2
				c-0.1-0.2-0.2-0.3-0.3-0.3c-0.7-0.1-1.1,0.6-1.2,1.2c0,0.1-0.1,0.2-0.1,0.3c0.3,0,0.3,0,0.1-0.1c0-0.2-0.3-0.4-0.4-0.5
				c-0.2-0.3-0.4-0.6-0.7-0.8c-0.6-0.4-1.4,0-1.4,0.7c0.1,1.1,1.8,1.2,2.6,1.4c0.8,0.1,1.5-0.4,1.2-1.3c-0.1-0.3-0.2-0.7-0.4-0.9
				c-0.3-0.3-0.4-0.2-0.8-0.2c-0.6,0.1-1.1,0-1.7,0.1c-0.4,0.1-0.9,0.3-0.9,0.8c0,0.4,0.1,0.6,0.4,0.8c0.3,0.2,0.7,0.1,1,0.2
				c0.5,0.1,0.9,0.3,1.3,0.5c0.3,0.1,0.5,0.1,0.7-0.2c0.8-1.1-1.2-1.6-1.9-1.7c-0.6-0.1-0.9,0.9-0.3,1c0.1,0,1.2,0.4,1.3,0.3
				c0.2-0.1,0.5-0.1,0.7-0.2c-0.4-0.2-0.8-0.4-1.3-0.5c-0.4-0.1-0.9-0.1-1.3-0.3c0.1,0.1,0.2,0.2,0.3,0.3c-0.2,0.1-0.2,0.1,0.1,0.1
				c0.1,0,0.3,0,0.4,0c0.3,0,0.5,0,0.7,0c0.2,0,0.4-0.1,0.6-0.2c0.3-0.1,0.3,0-0.1-0.1c-0.1-0.1-0.2-0.2-0.3-0.3
				c0.1,0.2,0.3,0.5,0.3,0.7c0.1,0.2,0.1,0.2-0.2,0c-0.2-0.1-0.5-0.1-0.8-0.2c-0.1,0-1-0.2-1-0.1c0,0,0.2,0.3,0.3,0.3
				c0.2,0.3,0.4,0.6,0.6,0.8c0.3,0.4,0.8,0.7,1.2,0.3c0.2-0.2,0.3-0.4,0.4-0.6c0.1-0.1,0.1-0.3,0.2-0.4c0-0.1,0.1-0.2,0.1-0.2
				c0.1-0.2,0.1-0.2-0.2-0.1c-0.1-0.1-0.2-0.2-0.3-0.3c0.1,0.2,0.1,0.9,0,0.9c0,0-0.6-0.1-0.7-0.1c-0.7-0.1-1.2-0.4-1.8-0.6
				c-0.2-0.2-0.3-0.2-0.2,0c0,0.2,0.1,0.2,0.3,0c0.3,0,0.6-0.2,0.9-0.2c0.8-0.1,1.6-0.1,2.4-0.1C141.5,43.2,141.5,42.2,140.8,42.2
				L140.8,42.2z"/>
		</g>
	</g>
</g>
</svg>
