<?xml version="1.0" encoding="utf-8"?>
<!-- Generator: Adobe Illustrator 18.1.0, SVG Export Plug-In . SVG Version: 6.00 Build 0)  -->
<!DOCTYPE svg PUBLIC "-//W3C//DTD SVG 1.1//EN" "http://www.w3.org/Graphics/SVG/1.1/DTD/svg11.dtd">
<svg version="1.1" id="Layer_1" xmlns="http://www.w3.org/2000/svg" xmlns:xlink="http://www.w3.org/1999/xlink" x="0px" y="0px"
	 viewBox="0 0 600 600" enable-background="new 0 0 600 600" xml:space="preserve">
<path stroke="#000000" stroke-width="3" stroke-miterlimit="10" d="M94.8,189.6c0-2.9,26.5-2.2,43.2-21.1c6.1-7,8.6-14.1,19.8-23.3
	c5.1-4.2,10.5-7.7,9.9-9c-1-2.2-18.2,6.1-21.1,2.2c-2.9-3.8,10.9-16.3,25.6-36.4c20.5-28.4,14.4-33.9,29.7-50.8
	c18.2-19.8,40.3-27.8,51.8-32c0,0,26.5-10.9,46.4-9c4.8,0.6,9.6,1.6,9.6,1.6s3.2,0.6,6.4,1.9c10.5,3.5,36.1,26.5,38,25.3
	c1-1-10.9-13.7-20.8-21.7s-23-10.9-22.7-11.8c3.2-6.7,52.4,20.5,55.6,23.3c3.5,2.9-10.9-27.5-10.2-27.2c1.3,0.6,18.5,23.3,26.5,37.1
	c7.4,13.1,7,12.1,15.3,24.9c7.7,11.5,8,27.5,9,37.4c1,8.6,0.6,16.6,0.3,20.5c-0.3,6.1-1.3,10.5-1.6,12.5c-0.6,4.2-2.2,11.8-6.1,20.5
	c-2.2,5.1-4.8,9.6-6.1,11.8c0,0-0.6,1.3-1.6,2.6c-8.6,13.4-18.9,22.4-18.9,22.4c-4.2,3.5-14.7,14.4-29.7,18.2
	c-10.2,2.6-31,6.7-31.3,6.7c0,0,0.6-11.8,0.3-6.4c0,0,52.1-7,58.8-32.3c2.9-10.9-3.5-28.8,3.2-28.8c3.8,0,6.1,3.5,12.1,0.6
	c9.9-4.5,16.9-20.5,11.2-25.9c-3.2-3.2-10.9-1.9-15.3,1c-7.4,4.8-8,13.4-9.9,13.1c-2.6-0.3,1.9-14.7-5.4-26.5
	c-2.9-4.8-5.1-4.8-11.2-13.1c-3.5-5.1-5.4-8-6.7-12.1c-2.2-8.6,1.3-13.4-1-15.3c-3.2-2.9-10.5,4.2-22.1,7.7
	c-16.3,5.1-19.5-3.5-37.7,0c-12.8,2.6-9.9,6.7-34.2,15.3c-4.5,1.6-9.3,3.2-13.1,7.7c-6.4,7.4-6.7,16.6-6.7,17.6
	c0,8.6,4.2,15,3.2,15.3c-1.3,0.6-5.4-10.5-14.4-12.1c-4.2-0.6-9.6,0.6-12.1,4.5c-3.2,4.8-1,10.9,0,13.1c3.5,9.6,10.2,8.6,14.4,17.6
	c2.9,6.4,0,8,3.2,17.6c2.2,7,5.8,11.8,7.7,14.4c2.9,3.8,6.7,9.3,13.1,13.1c4.8,3.2,10.2,4.2,21.1,6.7c0,0,4.8-0.6,19.5,1.9
	c-0.6-3.5,0.6,9.3-1,12.5c-2.2,4.8-15,1.3-28.8,1c-9,0-6.1,1.3-49.9,12.1c0,0-17.6,4.5-34.5,5.4l0,0c-15.7,1-23.3,1.6-24,0
	c-0.6-2.6,21.4-15.3,19.8-12.1c-0.3,0.6-71.3-0.6-76.4-5.4c-5.8-5.8,46.4-31,38.7-31C132.8,194,94.8,199.5,94.8,189.6z"/>
<path fill="#E8B68A" stroke="#E8B68A" stroke-width="3" stroke-miterlimit="10" d="M310.5,232.7c0,0,1-16,1.9-25.6
	c0,0,8.3,4.2,29.7-4.2c2.6-1,11.2-2.6,21.4-13.1c4.8-4.8,5.4-11.2,6.4-15.7c1.9-9-0.6-9.9-1-20.8c0,0-2.2-0.6,3.5-5.4
	c0.6-0.6,4.5-0.6,5.4,0c1.9,1,5.4,2.2,9.3,1c5.8-1.6,7.7-7.7,9-10.9c1-2.6,3.5-9.9,0-13.4c-2.6-2.6-7.7-1.9-10.9-1
	c-9.9,3.5-11.2,16-14.4,15.3c-2.6-0.3,3.2-6.4-0.3-20.8c-1-4.2-1.6-5.8-7.7-12.5c-4.5-4.8-8.6-11.2-11.8-16.6
	c-2.9-4.2-1.3-18.2-4.8-19.2c-6.4-1.3-8,5.8-20.8,9.9c-16,5.4-19.8-3.8-38,0c-9.3,1.9-5.8,3.8-34.5,16.3c-7,3.2-9.6,4.2-11.8,7.4
	c-8.3,11.5-1,28.8-1.9,30.4c-1,1.3-6.4-9.6-16.9-9.6c-3.5,0-9,1.3-10.9,4.5c-4.8,8.3,6.7,14.7,14.4,28.1c6.1,10.2,6.7,23.7,11.2,32
	c3.5,7,8.3,12.1,20.5,16.6c14.4,5.1,27.8,6.1,33.6,2.9l0,0c5.4,9,1,17.9,1,17.9c0,1,0,2.9,0,5.1c1.3,1,3.5,2.6,6.7,3.2
	c1,0.3,1.9,0.3,3.2,0.3C307,235.6,310.5,232.7,310.5,232.7z"/>
<path fill="#9E1F63" stroke="#000000" stroke-width="3" stroke-miterlimit="10" d="M283.4,227.9c-3.8-2.9-9-1.6-17.3,0
	c-3.8,1-9.3,1.9-15.7,5.4c-9.6,5.1-14.4,10.9-23.3,17.9c-12.5,9.6-21.7,20.8-33.9,30c-0.3,0-10.2,5.4-21.4,14.7
	c-3.2,2.6-6.4,5.4-7.7,10.2c-1.3,5.1,0.6,11.5,3.8,12.5c1.9,0.6,3.2-1.9,9.3-5.4c4.2-2.6,7.7-4.5,11.8-4.2c4.5,0.3,4.8,2.6,8,2.6
	c6.1,0.3,13.7-10.5,18.5-13.7c4.2-2.9,10.2-4.2,16.9-10.5c3.2-3.2,4.5-5.8,6.4-5.4c3.2,0.3,2.6,7.4,8,16.3c3.5,5.8,4.2,6.4,5.8,11.5
	c1.6,4.5,2.6,17.6,0,26.5c0,0-1.9,0.6-2.2,9l-1.3,5.4c1,1.9,7.4-0.3,17.3,0c9.9,0.3,11.2,2.2,16.3,1c5.4-1.3,5.8-3.8,12.1-6.1
	c5.4-1.9,12.1-1.6,13.7-1.3c5.4,1.3,6.1,2.9,12.5,5.1c1.9,0.6,1,0,5.8,0.6c8.3,1.3,13.4,1.3,18.2,0.6c4.5-0.6,5.1-1.3,5.4-1.6
	c2.2-2.9-2.2-7.7-4.2-17.3c-0.6-2.9-2.6-11.2,0-19.8c1.6-5.4,3.2-5.1,7-13.4c5.1-11.2,3.8-14.7,7-16.3c3.8-1.6,10.5,3.5,23.7,14.1
	c10.9,8.3,13.7,11.8,19.8,12.5c3.5,0.3,6.1-0.3,10.9,1c2.2,0.6,7,2.2,10.2,6.4c2.6,3.2,2.6,5.4,3.8,5.4c2.2,0,4.2-5.1,4.8-9.3
	c0.3-1.3,0.6-4.8-0.6-8.6c-1.9-6.4-7-9.6-11.8-12.8c0,0-1.6-1.3-24.3-17.9c-9.6-7-7.7-6.4-19.5-15c-12.1-9-13.1-9-17.9-13.4
	c-7-6.7-7.4-9.3-12.8-12.5c-3.5-1.9-7.4-2.6-15.7-4.2c-9.9-1.9-11.5-1.3-12.5-0.6c-3.5,2.6-0.6,7.4-4.2,11.8
	c-3.8,4.5-10.5,4.8-12.8,4.8c-2.6,0-8,0.3-11.8-3.2C285.3,236.2,287.9,231.1,283.4,227.9z"/>
<polygon fill="#27AAE1" stroke="#000000" stroke-width="3" stroke-miterlimit="10" points="284.7,260.2 264.2,281.3 284.7,311 
	326.2,311 346.7,281.9 325.6,260.2 "/>
<polygon stroke="#000000" stroke-width="3" stroke-miterlimit="10" points="279.2,281.3 292,300.2 316.6,300.2 331.6,281.3 
	324.6,272 287.2,272 "/>
<path stroke="#000000" stroke-width="3" stroke-miterlimit="10" d="M168,318.4c-1,3.5,3.5,9.9,11.2,17.9
	c16.9,16.9,19.5,14.7,26.5,23.7c7,8.6,8.3,15.3,17.9,22.1c4.2,2.9,7,3.8,9.6,3.2c5.1-1.6,7-9.3,8-14.1c1.3-5.4,2.6-11.8-1-16.6
	c-2.9-3.8-7.4-4.8-10.9-5.4c-7.4-1.6-9.3,1-12.8,0c-11.2-3.2-6.1-31.3-19.5-37.7c-5.4-2.6-11.5-2.2-14.4-1.3
	C179.8,311,169.6,313.6,168,318.4z"/>
<path stroke="#000000" stroke-width="3" stroke-miterlimit="10" d="M405.8,309.4c-13.1,1-8,32-21.4,38.4c-6.7,3.2-11.5-1.6-18.9,3.2
	c-7.4,4.8-8.6,13.7-8.6,14.7c-1,8,2.6,18.2,9.3,19.8c4.2,1.3,8.3-1.3,11.2-3.2c8.3-5.4,9.3-10.9,16.3-19.5
	c2.9-3.8,2.2-2.2,25.3-23.3c7.4-6.7,10.5-9.9,10.2-14.1c-0.3-6.1-6.4-12.5-8.3-13.7C418.3,310.4,411.6,308.8,405.8,309.4z"/>
<path stroke="#000000" stroke-width="3" stroke-miterlimit="10" d="M247.3,352.6c-1,3.8-2.2,8-3.2,11.8h35.2l3.8-12.8L247.3,352.6z"
	/>
<polygon stroke="#000000" stroke-width="3" stroke-miterlimit="10" points="322.4,352.3 322.4,366.6 354,364.4 350.5,351.3 "/>
<path fill="#00AEEF" stroke="#000000" stroke-width="3" stroke-miterlimit="10" d="M284,353.5c-0.3,1-4.2,7.7-1,14.1
	c3.8,8.3,15.7,8.6,17.9,8.6c2.6,0,15,0,19.8-9.6c0.3-0.3,3.8-7.7,0-14.7c-5.1-9.6-19.5-7.7-21.1-7.7
	C297.1,344.9,288.5,345.9,284,353.5z"/>
<path fill="#FFFFFF" stroke="#000000" stroke-width="3" stroke-miterlimit="10" d="M292.6,355.8c-1.9,3.2-1.6,7.4,0.6,10.2
	c3.5,4.5,11.2,3.5,15,0c2.2-1.9,4.5-5.8,3.2-9.3c-1.3-3.2-5.8-4.2-7.7-4.2C302.2,352.3,295.8,351,292.6,355.8z"/>
<path fill="#9E1F63" stroke="#000000" stroke-width="3" stroke-miterlimit="10" d="M244.1,366.6c0,0-3.2,9-6.1,19.5
	c-0.6,1.6-2.6,9.6-3.8,14.1c-8,27.8-6.1,55.6-9,58.5c-4.2,3.8-4.5,6.4-5.8,11.8c-1.3,6.4-1.3,9.9-1.6,15.7c0,2.9-1.6,5.1-1,7
	c0.6,2.9,5.1,4.2,8,4.8c1.6,0.6,9,1.6,14.7,1.3c6.1-0.3,13.4-3.2,13.4-3.2v-2.2c0,0,0.6-7.4,1.9-10.9c3.8-10.9,9-17.9,15.7-25.9
	c21.7-24.9,23-38.4,27.8-40c0,0,9,13.4,33.2,42.8c7.4,9,13.1,15,13.4,24.3c0,5.4-1.6,10.9,1.6,14.1c0.6,0.6,1.9,1.6,10.2,2.2
	c14.7,1,19.2-1.9,20.5-2.6c1.6-1,4.2-2.9,4.2-5.4s0.6-4.5,0-7.4c-1.3-7.4-0.6-9.3-4.5-16c-1.6-2.9-2.9-6.7-4.5-10.2
	c-3.5-7.4,0.3-28.4-4.2-48.6c-2.6-11.2-0.3-20.1-4.2-23.7c-6.1-6.1-10.5-19.2-10.5-19.2s-28.8-1.3-31.6,1c-8,5.8-6.7,9-21.7,9
	c-12.8,0-17.9-8.6-21.4-9.6C268,363.5,244.1,366.6,244.1,366.6z"/>
<path stroke="#000000" stroke-width="3" stroke-miterlimit="10" d="M212.7,504.7c0-5.1-0.3-9.6,2.2-10.9c1.3-0.6,2.6,0,6.1,1
	c3.8,1.3,8,2.6,11.8,2.6c6.4,0.3,18.5-1.3,19.5,0c3.5,4.2-3.8,16.3-9.3,24.9c-7.7,12.5-10.2,12.8-11.2,18.9c-1,5.8,0.6,6.7,0,19.5
	c-0.6,9.3-1.6,11.8-2.2,12.8c-1,2.2-2.6,4.8-10.9,11.2c-8.3,6.7-12.5,10.2-16.3,11.2c-1,0.3-13.4,4.2-22.1-2.6
	c-1.6-1-4.2-3.2-4.8-6.4c-0.3-1.3-1-5.4,6.1-14.1c7-9,11.5-9.3,20.5-19.5c3.5-3.8,5.1-5.8,6.4-8.6c2.9-6.4,0.6-9.3,1.6-21.4
	C210.8,512.4,212.7,514.3,212.7,504.7z"/>
<path stroke="#000000" stroke-width="3" stroke-miterlimit="10" d="M352.1,513.4c-2.9-5.4-7.7-14.7-4.8-17.3c1.3-1.3,3.5,0,10.2,1
	c7.4,1.3,15.3,2.2,20.5-1.6c3.5-2.6,3.5-5.4,4.8-5.4c4.2,0.3,5.8,22.7,6.1,27.5c1.3,19.5-1.3,20.8,1.6,27.5
	c1.9,4.8,3.8,5.1,20.5,22.1c12.1,12.1,14.7,16,14.1,19.8c-1,6.1-9,9-10.9,9.6c-9.3,3.5-17.9-0.3-19.5-1c-5.1-2.6-4.5-4.2-15-13.4
	c-7.7-6.7-8.3-6.1-9.6-8.6c-2.6-5.1-0.3-8.3-0.6-21.4c0-4.2,0-6.4-0.6-8.6C366.8,531.9,360.1,528.7,352.1,513.4z"/>
<path fill="#BCBEC0" stroke="#000000" stroke-width="3" stroke-miterlimit="10" d="M352.7,234.9c0,0,28.1,5.8,49.5,21.1
	c7,5.1,22.1,16,35.2,35.5c12.1,18.2,10.5,25.9,25.9,45.7c11.8,15.3,19.8,19.5,22.7,21.1c12.1,6.1,25.3,6.7,32,6.4
	c13.7-0.3,18.9-4.2,21.4-1c5.1,5.4-2.9,24.9-16.3,37.1c-6.7,6.1-16.6,10.9-36.1,20.5c-10.2,5.1-9.3,4.2-12.5,6.1
	c-18.2,11.2-16,23-29.7,32.3c-11.8,8-13.4,9.9-37.7,9.6c-14.4,0-23.7,8.6-26.5,5.8c-2.6-2.6,1,3.5-2.2-4.5
	c-1.9-5.8-4.2-9.3-6.7-14.7c-2.2-4.8,3.8-22.7-1.9-46.4c-2.6-10.5-3.2-22.4-3.2-22.4s5.8-1.6,11.8-4.5c8-3.8,10.2-10.9,15-18.9
	c12.5-20.5,24.6-16.6,36.1-37.1c3.8-7,7.4-13.1,6.1-20.5c-1.3-6.7-5.8-10.9-23.7-24.9c-12.5-9.6-17.9-14.7-25.9-19.5
	C369.4,252.5,351.5,236.2,352.7,234.9z"/>
<g>
	<path fill="#27AAE1" stroke="#000000" stroke-width="3" stroke-miterlimit="10" d="M359.5,282.9c5.8-4.2,10.2,2.6,24.9,12.8
		c10.9,7.7,19.2,9.9,18.9,13.4c0,2.6-2.9,1.6-4.8,6.7c-3.5,9.9-3.2,23-11.8,30c-6.1,4.8-14.1-1.3-22.1,4.5c-7,5.1-8,13.7-10.2,13.4
		c-1.9-0.3-2.2-7-2.6-12.8c-0.6-8.6-3.8-14.7-4.8-19.8c-1.6-8.6-1-16-0.3-18.9c0.6-2.6,4.5-7,7.4-14.7
		C355.9,291.8,357.2,284.5,359.5,282.9z"/>
</g>
<path fill="#BCBEC0" stroke="#000000" stroke-width="3" stroke-miterlimit="10" d="M341.9,476c-1.3,1.3-26.2-9-42.2-8
	c-24,1.3-40.9,13.1-42.8,10.2c-2.2-3.2,9-10.2,21.7-29.1c6.1-9,17.6-32.3,20.5-32.3c2.2,0,13.1,17.6,24,31
	C333.9,461.3,342.8,475,341.9,476z"/>
<path fill="#BCBEC0" stroke="#000000" stroke-width="3" stroke-miterlimit="10" d="M218.2,466.4c-6.4,6.7-14.1-9-29.7-14.7
	c-15.3-5.4-19.2,2.9-32.3-1.6c-18.9-6.4-14.1-24.6-36.1-37.7c-3.8-2.2-15-5.8-37.7-12.8c-18.9-6.1-21.4-6.1-22.7-9.3
	c-4.2-10.5,24.9-22.7,54-60.4c16.6-21.7,15-27.8,32-44.1c10.9-10.9,20.8-17.3,40.3-29.7c15.7-10.2,26.9-16,40.6-19.8
	c8-2.2,23.7-3.2,23.7-3.2s-7.4,7-22.7,18.2c-22.1,16.6-18.5,16.6-35.5,29.1c-19.2,13.7-28.4,16.9-29.7,26.5c-0.6,4.8,1.3,9,4.2,14.7
	c4.8,9.6,9.6,11.8,23.7,25.3c11.5,11.2,17.3,16.6,20.5,21.4c4.5,6.4,6.7,11.8,13.4,15c6.7,3.2,13.7-1,12.8,3.2
	c-1,6.1-8.3,20.1-9,47.9c0,6.7-0.6,13.7-2.2,21.7C225.2,460.9,222,462.2,218.2,466.4z"/>
<g>
	<path fill="#BCBEC0" stroke="#000000" stroke-width="3" stroke-miterlimit="10" d="M359.5,282.9c5.8-4.2,10.2,2.6,24.9,12.8
		c10.9,7.7,19.2,9.9,18.9,13.4c0,2.6-2.9,1.6-4.8,6.7c-3.5,9.9-3.2,23-11.8,30c-6.1,4.8-14.1-1.3-22.1,4.5c-7,5.1-8,13.7-10.2,13.4
		c-1.9-0.3-2.2-7-2.6-12.8c-0.6-8.6-3.8-14.7-4.8-19.8c-1.6-8.6-1-16-0.3-18.9c0.6-2.6,4.5-7,7.4-14.7
		C355.9,291.8,357.2,284.5,359.5,282.9z"/>
</g>
<g>
	<path fill="#BCBEC0" stroke="#000000" stroke-width="3" stroke-miterlimit="10" d="M243.1,282.9c-5.8-4.2-10.2,2.2-25.3,12.5
		c-11.2,7.7-19.2,9.3-19.2,13.1c0,2.6,0,2.6,3.2,7.4c5.8,9,3.2,24.6,11.8,32c5.8,5.1,15-2.2,22.7,3.8c7,5.4,8,13.4,10.2,13.1
		c1.9-0.3,2.6-7,2.9-12.8c1-8.6,4.2-14.7,5.4-19.8c1.6-8.6,1.3-16,0.6-18.9c-0.6-2.6-4.5-7.4-7-14.7
		C246.6,291.8,245.7,284.5,243.1,282.9z"/>
</g>
<path stroke="#000000" stroke-width="3" stroke-miterlimit="10" d="M285,227.3c0-0.3,0,1,2.6-0.3c2.2-1.3,1.9-1,1.9-1s0,3.2,1,6.1
	c1.3,3.8,6.4,5.4,8.3,5.8c1.9,0.3,9.3,0.3,11.8-2.9c1.9-2.6,1.9-8.6,1.9-8.6h6.7c0,0-1.6,9.3-4.2,12.5c-3.5,4.2-7.7,4.5-10.5,4.8
	c-2.9,0.3-9,1-14.1-3.2C285.3,236.9,283.4,229.2,285,227.3z"/>
<path fill="none" stroke="#C49A6C" stroke-width="3" stroke-miterlimit="10" d="M380.6,140c-0.6-0.6,1.3-3.5,3.8-4.8
	c2.9-1.3,6.4-1,6.7,0C391.1,136.8,381.5,141.3,380.6,140z"/>
<path fill="none" stroke="#C49A6C" stroke-width="3" stroke-miterlimit="10" d="M233.5,141.9c0.3-0.6-2.9-3.8-7-4.8
	c-3.2-1-7.4-1-7.7,0C218.8,138.4,232.9,143.2,233.5,141.9z"/>
<path fill="none" stroke="#000000" stroke-width="3" stroke-miterlimit="10" d="M315,107.4c6.7-3.5,21.7-3.8,34.5,6.7"/>
<line fill="none" stroke="#000000" stroke-width="3" stroke-miterlimit="10" x1="324.6" y1="104.5" x2="324.6" y2="104.5"/>
<g>
	<path fill="none" stroke="#C49A6C" stroke-width="3" stroke-miterlimit="10" d="M304.2,161.1c-0.6-0.3-4.5-2.6-8.6-1.3
		c-3.8,1.3-7.4,5.1-6.7,9.3c0.6,3.2,3.2,5.4,5.8,6.1c3.2,1,6.7,0,9.3-2.6"/>
</g>
<path fill="none" stroke="#BE1E2D" stroke-width="3" stroke-miterlimit="10" d="M254,180.6c1.3-2.2,5.4-4.2,5.4-4.2s3.5,4.5,5.8,7.7
	c8,10.2,19.5,13.1,23.7,14.1c6.4,1.3,11.2,0.6,16,0.3c3.8-0.3,9.6-0.6,16-3.8c3.5-1.9,7-3.5,12.1-7.4c5.8-3.8,6.4-5.4,6.4-5.4
	c3.8-3.8,4.8-4.5,4.8-4.5s1.9,2.2,2.6,3.8"/>
<g>
	<path fill="#FFFFFF" stroke="#000000" stroke-width="3" stroke-miterlimit="10" d="M316.9,134.3c0-0.3-0.3-0.6,0.6-1.9
		c0.3-1,1-2.6,2.2-3.8c0.3-0.3,2.9-3.8,7.4-5.1c4.2-1.3,8-0.6,12.8,1.3c4.2,1.6,1.3,0.6,8,3.5c3.5,1.6,8.3,2.9,8,3.5
		c0,1-3.2,1.6-8.6,2.6c-7.7,1.3-8.6,1.6-12.5,1.9c-1.9,0.3-6.4-0.3-10.5-0.3C324,135.9,317.3,135.2,316.9,134.3z"/>
	<path fill="#3C2415" stroke="#000000" stroke-width="3" stroke-miterlimit="10" d="M326.2,128.5c0.6-2.6,4.2-3.5,4.8-3.8
		c0.6,0,5.8-1.6,8.3,1.9c1.3,1.9,1.6,4.8,0.6,6.7c-2.6,3.8-10.5,1.9-12.1-0.3c-0.3-0.6-0.6-1.3-0.6-1.3
		C325.9,130.7,325.9,129.5,326.2,128.5z"/>
	<path fill="#594A42" stroke="#000000" stroke-width="3" stroke-miterlimit="10" d="M331,131.1c1-1,2.6-1,3.5-1
		c0.6,0,3.8,1.9,3.8,2.2c-0.3,1.6-1.9,2.9-3.2,3.2c-1.6,0.6-4.2,0.3-5.1-1.3C329.1,132.7,329.7,132,331,131.1z"/>
</g>
<path fill="#FFFFFF" stroke="#000000" stroke-width="3" stroke-miterlimit="10" d="M433.9,144.2"/>
<g>
	<path fill="#FFFFFF" stroke="#000000" stroke-width="3" stroke-miterlimit="10" d="M285.9,133c0-0.3,0-1-0.6-1.9
		c-0.3-1-1.3-2.2-2.6-3.5c-0.3-0.3-3.2-3.5-7.7-4.5c-4.5-1-8,0-12.5,2.2c-3.8,1.9-1.3,0.6-7.7,4.2c-3.5,1.9-8,3.5-7.7,4.2
		c0.3,1,3.5,1.3,8.6,1.9c7.7,0.6,9,0.6,12.5,1c1.9,0,6.4-0.6,10.5-1.3C278.9,134.9,285.6,133.9,285.9,133z"/>
	<path fill="#3C2415" stroke="#000000" stroke-width="3" stroke-miterlimit="10" d="M276.3,127.9c-1-2.6-4.5-3.2-5.1-3.2
		s-5.8-1-8,2.6c-1.3,1.9-1.3,4.8,0,6.7c2.9,3.8,10.5,1,12.1-1.3c0.3-0.6,0.6-1.3,0.6-1.3C276.7,130.4,276.7,128.8,276.3,127.9z"/>
	<path fill="#594A42" stroke="#000000" stroke-width="3" stroke-miterlimit="10" d="M271.9,130.7c-1.3-1-2.9-0.6-3.5-0.6
		c-0.6,0.3-3.8,2.2-3.5,2.6c0.6,1.6,2.2,2.6,3.5,2.9c1.6,0.3,4.2,0,5.1-1.6C273.8,132.3,272.8,131.7,271.9,130.7z"/>
</g>
<path fill="none" stroke="#000000" stroke-width="3" stroke-miterlimit="10" d="M250.5,109.6c5.8-5.1,20.5-8.6,35.5-1"/>
<g>
	
		<image overflow="visible" opacity="0.75" enable-background="new    " width="771" height="913" xlink:href="../boy1/44CDFADD9178A04.png"  transform="matrix(0.237 0 0 0.237 322.5681 218.316)">
	</image>
	<g>
		<g>
			<path fill="#FFDE11" d="M407.5,273.2c0.4-2.2,3.4-5,4.9-5.4c1.8-0.5,2.4,0.3,2.6,0.1c0.4-0.4,0.1-0.1,0.1-1.8
				c-0.1-2.5,3.6-5,6.7-5.9c4-1.1,10-0.4,11.7,3.4c1,2.2,0,4.5-0.2,5.1c-1.4,3.1-4.9,4.4-7.5,4.4c-3.3,0-4-1.9-6.8-1.8
				c-3.1,0.2-8.5,1.9-9.6,4.2c-0.4,0.9,0,1.8-0.3,1.9C408.5,277.5,407.1,275.4,407.5,273.2L407.5,273.2z"/>
			<path fill="none" stroke="#231F20" stroke-width="0.3562" stroke-miterlimit="10" d="M407.5,273.2c0.4-2.2,3.4-5,4.9-5.4
				c1.8-0.5,2.4,0.3,2.6,0.1c0.4-0.4,0.1-0.1,0.1-1.8c-0.1-2.5,3.6-5,6.7-5.9c4-1.1,10-0.4,11.7,3.4c1,2.2,0,4.5-0.2,5.1
				c-1.4,3.1-4.9,4.4-7.5,4.4c-3.3,0-4-1.9-6.8-1.8c-3.1,0.2-8.5,1.9-9.6,4.2c-0.4,0.9,0,1.8-0.3,1.9
				C408.5,277.5,407.1,275.4,407.5,273.2L407.5,273.2z"/>
			<path fill="#FFDE11" d="M403.6,259.6c-1.8,1.5-1.7,4.7,0.3,6.1c1.7,1.2,4.3,0.8,5.5-0.9c1-1.5,0.7-3.4-0.4-4.7
				C407.6,258.5,405.1,258.3,403.6,259.6L403.6,259.6z"/>
			<path fill="none" stroke="#231F20" stroke-width="0.3562" stroke-miterlimit="10" d="M403.6,259.6c-1.8,1.5-1.7,4.7,0.3,6.1
				c1.7,1.2,4.3,0.8,5.5-0.9c1-1.5,0.7-3.4-0.4-4.7C407.6,258.5,405.1,258.3,403.6,259.6L403.6,259.6z"/>
			<path fill="#FFDE11" d="M373.4,274.6c-1.3-3,1.9-7.4,1.9-7.4c0.3-0.7,0.6-1.1,0.8-1.3c1.5-1.8,3.7-2.3,4.8-2.5
				c3.1-0.6,7-0.9,8.6-0.3c2.4,0.8,3.3,2.7,3.8,4.5c0.5,1.8-1.1,3.3-0.4,4.1c0.7,0.8,2.4-0.6,4.6,0.2c1.6,0.5,3.1,2,3.3,3.7
				c0.2,1.2-0.3,2.2-0.6,2.6C397.4,282.7,376,280.4,373.4,274.6L373.4,274.6z"/>
			<path fill="none" stroke="#231F20" stroke-width="0.3562" stroke-miterlimit="10" d="M373.4,274.6c-1.3-3,1.9-7.4,1.9-7.4
				c0.3-0.7,0.6-1.1,0.8-1.3c1.5-1.8,3.7-2.3,4.8-2.5c3.1-0.6,7-0.9,8.6-0.3c2.4,0.8,3.3,2.7,3.8,4.5c0.5,1.8-1.1,3.3-0.4,4.1
				c0.7,0.8,2.4-0.6,4.6,0.2c1.6,0.5,3.1,2,3.3,3.7c0.2,1.2-0.3,2.2-0.6,2.6C397.4,282.7,376,280.4,373.4,274.6L373.4,274.6z"/>
			<path fill="#FCEE23" d="M379.4,260.4c2.9-0.9,4.8,1.8,6.5,0.8c1.6-1,0.2-3.5,1.9-5.6c1.9-2.3,6.1-2.1,8.4-1.4
				c0.3,0.1,5.7,1.7,6.9,6.4c0.2,0.8,1.5,3.1,0.4,4.6c-1.4,1.9-4,1.1-5.2,3.1c-0.8,1.3-0.8,2.1-1.9,3.3c-0.1,0.1-1.8,0-2.5,0.4
				c-2,1.2,0.2-2.8-1.3-6c-1.6-3.4-7.8-2.2-8.2-2.2c-4.8,0.7-7.6,4.3-8.6,3.3c-0.4-0.4-0.3-1.1-0.1-2
				C375.8,263.1,377.3,261,379.4,260.4L379.4,260.4z"/>
			<path fill="none" stroke="#231F20" stroke-width="0.3562" stroke-miterlimit="10" d="M379.4,260.4c2.9-0.9,4.8,1.8,6.5,0.8
				c1.6-1,0.2-3.5,1.9-5.6c1.9-2.3,6.1-2.1,8.4-1.4c0.3,0.1,5.7,1.7,6.9,6.4c0.2,0.8,1.5,3.1,0.4,4.6c-1.4,1.9-4,1.1-5.2,3.1
				c-0.8,1.3-0.8,2.1-1.9,3.3c-0.1,0.1-1.8,0-2.5,0.4c-2,1.2,0.2-2.8-1.3-6c-1.6-3.4-7.8-2.2-8.2-2.2c-4.8,0.7-7.6,4.3-8.6,3.3
				c-0.4-0.4-0.3-1.1-0.1-2C375.8,263.1,377.3,261,379.4,260.4L379.4,260.4z"/>
			<path fill="#FFDE11" d="M373.8,263.3c-1.3-1.1-3.1,0.5-4.9-0.5c-1.5-0.9-2.2-3-1.9-4.8c0.4-2.6,2.8-4.8,5.4-4.6
				c2.1,0.2,3.4,1.9,3.6,2.2c0-0.9,0.1-2.6,1.3-4.2c0,0,0.4-0.5,0.8-0.9c1.6-1.6,4.6-2.4,7.4-2c2.4,0.4,6.6,2.1,7.1,5.4
				c0.5,3.6-3.6,7.2-7.2,7.5c-3,0.4-4.3-1.8-6.5-0.9c-3,1.3-3.4,6.9-4.1,6.7C374.4,267.4,375.2,264.5,373.8,263.3L373.8,263.3z"/>
			<path fill="none" stroke="#231F20" stroke-width="0.3562" stroke-miterlimit="10" d="M373.8,263.3c-1.3-1.1-3.1,0.5-4.9-0.5
				c-1.5-0.9-2.2-3-1.9-4.8c0.4-2.6,2.8-4.8,5.4-4.6c2.1,0.2,3.4,1.9,3.6,2.2c0-0.9,0.1-2.6,1.3-4.2c0,0,0.4-0.5,0.8-0.9
				c1.6-1.6,4.6-2.4,7.4-2c2.4,0.4,6.6,2.1,7.1,5.4c0.5,3.6-3.6,7.2-7.2,7.5c-3,0.4-4.3-1.8-6.5-0.9c-3,1.3-3.4,6.9-4.1,6.7
				C374.4,267.4,375.2,264.5,373.8,263.3L373.8,263.3z"/>
			<path fill="#FCEE23" d="M381.2,245.2c2.5-1,4.6,1.4,6.2,0.3c1.5-1,0.3-3.3,1.9-5.1c2-2.2,6.2-1.3,7-1.1c4.1,0.9,7.6,4.1,7.2,5.5
				c-0.6,1.7-6.8-0.7-9.9,2.8c-1.3,1.5-1,2.7-2.3,3.2c-2.2,0.9-4.1-2.4-7.6-2.2c-3.1,0.1-4.7,2.6-5.4,2.1
				C377.4,249.9,378.7,246.2,381.2,245.2L381.2,245.2z"/>
			<path fill="none" stroke="#231F20" stroke-width="0.3562" stroke-miterlimit="10" d="M381.2,245.2c2.5-1,4.6,1.4,6.2,0.3
				c1.5-1,0.3-3.3,1.9-5.1c2-2.2,6.2-1.3,7-1.1c4.1,0.9,7.6,4.1,7.2,5.5c-0.6,1.7-6.8-0.7-9.9,2.8c-1.3,1.5-1,2.7-2.3,3.2
				c-2.2,0.9-4.1-2.4-7.6-2.2c-3.1,0.1-4.7,2.6-5.4,2.1C377.4,249.9,378.7,246.2,381.2,245.2L381.2,245.2z"/>
			<path fill="#FFDE11" d="M392.2,253.6c1.6,1.6,3.6,0.2,6.1,1.9c1.9,1.3,1.4,2.5,3.3,3.7c2.3,1.4,4.9,1,5.7,0.9
				c1.1-0.2,3.8-0.6,5.3-2.9c0.8-1.3,1.5-4.3,0.6-5.2c-1.1-1-3.1,1.4-4.8,0.4c-2-1.2-0.6-4.6-3.2-7c-0.9-0.8-1.8-1.1-2.6-1.3
				c-4.1-1.2-9.9,0.5-11.2,4.5C390.8,250.1,390.9,252.3,392.2,253.6L392.2,253.6z"/>
			<path fill="none" stroke="#231F20" stroke-width="0.3562" stroke-miterlimit="10" d="M392.2,253.6c1.6,1.6,3.6,0.2,6.1,1.9
				c1.9,1.3,1.4,2.5,3.3,3.7c2.3,1.4,4.9,1,5.7,0.9c1.1-0.2,3.8-0.6,5.3-2.9c0.8-1.3,1.5-4.3,0.6-5.2c-1.1-1-3.1,1.4-4.8,0.4
				c-2-1.2-0.6-4.6-3.2-7c-0.9-0.8-1.8-1.1-2.6-1.3c-4.1-1.2-9.9,0.5-11.2,4.5C390.8,250.1,390.9,252.3,392.2,253.6L392.2,253.6z"/>
			<g>
				<g>
					<defs>
						
							<rect id="SVGID_1_" x="323.7" y="255.4" transform="matrix(-0.1063 0.9943 -0.9943 -0.1063 760.4716 -51.485)" width="159.3" height="121.2"/>
					</defs>
					<clipPath id="SVGID_2_">
						<use xlink:href="#SVGID_1_"  overflow="visible"/>
					</clipPath>
					<path clip-path="url(#SVGID_2_)" fill="#F8ED34" d="M401.9,240.8c1.2-2.7,4.9-3.4,6.2-3.6c1.6-0.3,5.4-0.9,7.4,1.2
						c2.1,2.2,1,5.8,2.4,6.2c0.9,0.2,1.5-1.3,3.1-1.3c1.2,0,2.6,1,2.9,2.2s-0.6,2.5-1.5,3.2c-2.6,2.1-6.2-0.3-8.4,1.9
						c-0.7,0.7-0.6,1.2-1.5,1.8c-1.2,0.7-3.2,0.9-4.4-0.1c-2-1.5-0.4-4.1-2.5-6.2c-1.5-1.5-3.1-1.1-3.8-2.6
						C401.3,242.3,401.8,241.1,401.9,240.8L401.9,240.8z"/>
				</g>
				<g>
					<defs>
						
							<rect id="SVGID_3_" x="323.7" y="255.4" transform="matrix(-0.1063 0.9943 -0.9943 -0.1063 760.4716 -51.485)" width="159.3" height="121.2"/>
					</defs>
					<clipPath id="SVGID_4_">
						<use xlink:href="#SVGID_3_"  overflow="visible"/>
					</clipPath>
					<path clip-path="url(#SVGID_4_)" fill="none" stroke="#231F20" stroke-width="0.3562" stroke-miterlimit="10" d="M401.9,240.8
						c1.2-2.7,4.9-3.4,6.2-3.6c1.6-0.3,5.4-0.9,7.4,1.2c2.1,2.2,1,5.8,2.4,6.2c0.9,0.2,1.5-1.3,3.1-1.3c1.2,0,2.6,1,2.9,2.2
						s-0.6,2.5-1.5,3.2c-2.6,2.1-6.2-0.3-8.4,1.9c-0.7,0.7-0.6,1.2-1.5,1.8c-1.2,0.7-3.2,0.9-4.4-0.1c-2-1.5-0.4-4.1-2.5-6.2
						c-1.5-1.5-3.1-1.1-3.8-2.6C401.3,242.3,401.8,241.1,401.9,240.8L401.9,240.8z"/>
				</g>
			</g>
			<path fill="#F8ED34" d="M399.3,279.5c1.2,1.9,8.7,1.2,9.4-0.6c0-0.1,0.7,0.5,0.7,0.1c-0.2-2.2-1.7-3.1-1.9-4.4
				c-0.2-1.7,1.1-3.7,2.3-4.8c1.8-1.6,3.1-1.7,3.1-2.5c0-1.1-2.5-2-4.4-2.3c-2-0.3-3.5,0.2-5.5,0.8c-2.5,0.8-3.7,1.1-4.7,2.3
				c-0.9,1.1-1.8,3.2-1,4.4c0.9,1.5,2.6,0.9,3.5,2.4C401.6,276.5,398.4,278.1,399.3,279.5L399.3,279.5z"/>
			<path fill="none" stroke="#231F20" stroke-width="0.3562" stroke-miterlimit="10" d="M399.3,279.5c1.2,1.9,8.7,1.2,9.4-0.6
				c0-0.1,0.7,0.5,0.7,0.1c-0.2-2.2-1.7-3.1-1.9-4.4c-0.2-1.7,1.1-3.7,2.3-4.8c1.8-1.6,3.1-1.7,3.1-2.5c0-1.1-2.5-2-4.4-2.3
				c-2-0.3-3.5,0.2-5.5,0.8c-2.5,0.8-3.7,1.1-4.7,2.3c-0.9,1.1-1.8,3.2-1,4.4c0.9,1.5,2.6,0.9,3.5,2.4
				C401.6,276.5,398.4,278.1,399.3,279.5L399.3,279.5z"/>
			<path fill="#FCEE23" d="M411.1,273.8c1.6-1.1,3.1-1.6,5.5-2c2.1-0.4,3.1-0.2,4.5-0.3c0.7-0.1,5.5,0.3,6,4.3
				c0,0.3,0.9,2.7-0.3,3.8c-1.2,1.2-3.2-0.4-7.4-0.7c-5.4-0.4-8.9,1.8-9.9,0.2c-0.4-0.6,0.1-1.3-0.2-2
				C408.5,275.5,410.4,274.3,411.1,273.8L411.1,273.8z"/>
			<path fill="none" stroke="#231F20" stroke-width="0.3562" stroke-miterlimit="10" d="M411.1,273.8c1.6-1.1,3.1-1.6,5.5-2
				c2.1-0.4,3.1-0.2,4.5-0.3c0.7-0.1,5.5,0.3,6,4.3c0,0.3,0.9,2.7-0.3,3.8c-1.2,1.2-3.2-0.4-7.4-0.7c-5.4-0.4-8.9,1.8-9.9,0.2
				c-0.4-0.6,0.1-1.3-0.2-2C408.5,275.5,410.4,274.3,411.1,273.8L411.1,273.8z"/>
			<path fill="#FFDE11" d="M425,279.7c0-0.5,1.6-1.4,2.2-1.5c2.2-0.6,4,0.7,4.2,0.8c0.8,0.6,3.5,2.8,3.1,3.4
				C433.6,283.6,424.8,281,425,279.7L425,279.7z"/>
			<path fill="none" stroke="#231F20" stroke-width="0.3562" stroke-miterlimit="10" d="M425,279.7c0-0.5,1.6-1.4,2.2-1.5
				c2.2-0.6,4,0.7,4.2,0.8c0.8,0.6,3.5,2.8,3.1,3.4C433.6,283.6,424.8,281,425,279.7L425,279.7z"/>
			<path fill="#FFDE11" d="M433.5,269c0.9-0.1,3.6-0.4,6.6,1.1c1.3,0.7,3.5,1.8,4.3,4c1.1,2.9-1,5.7,0.1,6.5
				c0.7,0.5,1.5-0.6,3.4-0.5c1.8,0.1,3.8,1.2,3.7,1.9c-0.1,1.6-9.3,3.8-17.1,0.7c-1.6-0.6-3-4.5-6.4-4.5c-2.3,0-2.4-2.6-2.1-4.4
				C426.7,270.9,431,269.3,433.5,269L433.5,269z"/>
			<path fill="none" stroke="#231F20" stroke-width="0.3562" stroke-miterlimit="10" d="M433.5,269c0.9-0.1,3.6-0.4,6.6,1.1
				c1.3,0.7,3.5,1.8,4.3,4c1.1,2.9-1,5.7,0.1,6.5c0.7,0.5,1.5-0.6,3.4-0.5c1.8,0.1,3.8,1.2,3.7,1.9c-0.1,1.6-9.3,3.8-17.1,0.7
				c-1.6-0.6-3-4.5-6.4-4.5c-2.3,0-2.4-2.6-2.1-4.4C426.7,270.9,431,269.3,433.5,269L433.5,269z"/>
			<path fill="#FFDE11" d="M434.9,256.7c1-1.2,7.7,1,8.8,5c0.6,2.3-1.1,3.7-0.1,5.8c1.1,2.1,3.5,1.5,4.6,3.5c1.2,2.3-0.1,6.2-2.5,7
				c-1.1,0.4-2.1,0-2.5-0.2c-3.2-1.3-2.5-5.1-5.7-7.5c-2.8-2.2-6.2-0.3-6.5-1.4c-0.4-1.5,4.5-3,5.8-5.6
				C438.3,260.6,434.1,257.7,434.9,256.7L434.9,256.7z"/>
			<path fill="none" stroke="#231F20" stroke-width="0.3562" stroke-miterlimit="10" d="M434.9,256.7c1-1.2,7.7,1,8.8,5
				c0.6,2.3-1.1,3.7-0.1,5.8c1.1,2.1,3.5,1.5,4.6,3.5c1.2,2.3-0.1,6.2-2.5,7c-1.1,0.4-2.1,0-2.5-0.2c-3.2-1.3-2.5-5.1-5.7-7.5
				c-2.8-2.2-6.2-0.3-6.5-1.4c-0.4-1.5,4.5-3,5.8-5.6C438.3,260.6,434.1,257.7,434.9,256.7L434.9,256.7z"/>
			<path fill="#FFDE11" d="M421.2,249.2c-0.5-1.6,3.1-4.5,5.3-5.5c4.2-2,8.7,0.6,9.6,1.1c1.2,0.8,4.1,2.5,4.4,5.2
				c0.3,2.6-1.7,4.6-0.9,5.5c0.6,0.6,1.6-0.4,3.1,0c2.3,0.7,3.1,4.1,3.3,6c0.1,1.7-0.8,6.6-1.4,6.9c-2.5,1.5-1.4-7.1-4-9.8
				c-1.4-1.5-2.7,0-5.7-1.4c-1.8-0.8-3.1,0-4.4,0.1c-1.9,0.1-1.9,0.5-2.7,0.2c-1-0.4,0.3-3.4-1.2-5.7
				C425.3,249.8,421.7,250.7,421.2,249.2L421.2,249.2z"/>
			<path fill="none" stroke="#231F20" stroke-width="0.3562" stroke-miterlimit="10" d="M421.2,249.2c-0.5-1.6,3.1-4.5,5.3-5.5
				c4.2-2,8.7,0.6,9.6,1.1c1.2,0.8,4.1,2.5,4.4,5.2c0.3,2.6-1.7,4.6-0.9,5.5c0.6,0.6,1.6-0.4,3.1,0c2.3,0.7,3.1,4.1,3.3,6
				c0.1,1.7-0.8,6.6-1.4,6.9c-2.5,1.5-1.4-7.1-4-9.8c-1.4-1.5-2.7,0-5.7-1.4c-1.8-0.8-3.1,0-4.4,0.1c-1.9,0.1-1.9,0.5-2.7,0.2
				c-1-0.4,0.3-3.4-1.2-5.7C425.3,249.8,421.7,250.7,421.2,249.2L421.2,249.2z"/>
			<path fill="#FCEE23" d="M444.7,267.9c0-1.3,0.2-5.2,1.3-5.6c2.5-0.9,6.6,2.6,7.7,3.3c2.7,1.5,6.2,4.8,5.6,7.6
				c-0.4,1.8-2,2.3-1.7,3.4c0.4,1.3,3.1,0.6,4.9,2.3c1.4,1.4,2.1,4.1,1.1,5.6c-2,3-11.5,1.7-13.8-2.3c-0.4-0.6-0.7-1.5-1.6-2
				c-1.9-1-3.3,1-4,0.1c-0.4-0.5-1-2-0.4-2.6c1.7-1.8,2.7-0.4,3.9-1.8c0.9-1.1,1.2-1.9,0.7-4C447.6,268.6,444.7,269.5,444.7,267.9
				L444.7,267.9z"/>
			<path fill="none" stroke="#231F20" stroke-width="0.3562" stroke-miterlimit="10" d="M444.7,267.9c0-1.3,0.2-5.2,1.3-5.6
				c2.5-0.9,6.6,2.6,7.7,3.3c2.7,1.5,6.2,4.8,5.6,7.6c-0.4,1.8-2,2.3-1.7,3.4c0.4,1.3,3.1,0.6,4.9,2.3c1.4,1.4,2.1,4.1,1.1,5.6
				c-2,3-11.5,1.7-13.8-2.3c-0.4-0.6-0.7-1.5-1.6-2c-1.9-1-3.3,1-4,0.1c-0.4-0.5-1-2-0.4-2.6c1.7-1.8,2.7-0.4,3.9-1.8
				c0.9-1.1,1.2-1.9,0.7-4C447.6,268.6,444.7,269.5,444.7,267.9L444.7,267.9z"/>
			<path fill="#FCEE23" d="M413.2,255.3c1.4-1.7-1-2.3,0.4-4.4c1.3-2,6.7-1.5,8.3-1.5c0.7,0,6.6,0.1,8,3.4c0.9,2-0.1,4.2,0.6,4.5
				c0.8,0.3,1.6-1.8,3.3-1.9c1.8-0.1,3.4,2.2,4,3.8c0.7,1.7,1.2,4.8-0.6,6.2c-0.8,0.6-2,0.9-3,0.6c-2.3-0.6-1.9-3.6-4.3-5.1
				c-2.7-1.6-8.5-1.3-11.5,0.4c-2.8,1.6-1.3,5.8-3.6,6.7c-1,0.4-2.1,0.1-2.6-0.1c-2.4-0.7-3.3-2.8-3.4-3.1c-0.7-1.7-0.7-4,0.6-5.3
				C411.2,257.7,411.8,256.9,413.2,255.3L413.2,255.3z"/>
			<path fill="none" stroke="#231F20" stroke-width="0.3562" stroke-miterlimit="10" d="M413.2,255.3c1.4-1.7-1-2.3,0.4-4.4
				c1.3-2,6.7-1.5,8.3-1.5c0.7,0,6.6,0.1,8,3.4c0.9,2-0.1,4.2,0.6,4.5c0.8,0.3,1.6-1.8,3.3-1.9c1.8-0.1,3.4,2.2,4,3.8
				c0.7,1.7,1.2,4.8-0.6,6.2c-0.8,0.6-2,0.9-3,0.6c-2.3-0.6-1.9-3.6-4.3-5.1c-2.7-1.6-8.5-1.3-11.5,0.4c-2.8,1.6-1.3,5.8-3.6,6.7
				c-1,0.4-2.1,0.1-2.6-0.1c-2.4-0.7-3.3-2.8-3.4-3.1c-0.7-1.7-0.7-4,0.6-5.3C411.2,257.7,411.8,256.9,413.2,255.3L413.2,255.3z"/>
			<path fill="#FCEE23" d="M349.1,273c-0.8-1.8,0.1-4.5,1.6-5.7c2.2-1.8,4.7,0.5,7.2-1.2c2.5-1.7,1.2-4.9,4.2-6.9
				c1.5-1.1,3.8-1.6,4.9-0.7c1.1,0.9,0.1,2.6,1.2,3.9c1.4,1.6,3.9-0.1,5.7,1.4c1.1,1,1.2,2.6,1.4,5.3c0.1,1.9,0.2,2.9-0.4,3.8
				c-1.2,1.9-4.2,2-6.1,2C356.4,275.1,350.1,275.1,349.1,273L349.1,273z"/>
			<g>
				<g>
					<defs>
						
							<rect id="SVGID_5_" x="323.7" y="255.4" transform="matrix(-0.1063 0.9943 -0.9943 -0.1063 760.4716 -51.485)" width="159.3" height="121.2"/>
					</defs>
					<clipPath id="SVGID_6_">
						<use xlink:href="#SVGID_5_"  overflow="visible"/>
					</clipPath>
					<path clip-path="url(#SVGID_6_)" fill="none" stroke="#231F20" stroke-width="0.3562" stroke-miterlimit="10" d="M349.1,273
						c-0.8-1.8,0.1-4.5,1.6-5.7c2.2-1.8,4.7,0.5,7.2-1.2c2.5-1.7,1.2-4.9,4.2-6.9c1.5-1.1,3.8-1.6,4.9-0.7s0.1,2.6,1.2,3.9
						c1.4,1.6,3.9-0.1,5.7,1.4c1.1,1,1.2,2.6,1.4,5.3c0.1,1.9,0.2,2.9-0.4,3.8c-1.2,1.9-4.2,2-6.1,2
						C356.4,275.1,350.1,275.1,349.1,273L349.1,273z"/>
				</g>
			</g>
			<path fill="#EC2227" d="M348.5,273.9l-1.9,39.3c0,0-3.2,52.8-5,74.8l105.6,11.3c4.3-20.1,10.7-59.5,10.7-59.5l8.1-53.3
				c0,0-10.4-2.4-13.9-2.5c-4.1-0.2-12.1,1.1-16.3,0.4c-4.4-0.7-11.8-3.6-17.1-4.2c-5.1-0.6-15.5,1.3-20.5,0.4
				c-4.2-0.8-12.2-4.8-16.4-5.1c-6-0.4-18,1.2-23.9,0.6C355.6,275.9,348.5,273.9,348.5,273.9L348.5,273.9z"/>
			<g>
				<g>
					<defs>
						
							<rect id="SVGID_7_" x="323.7" y="255.4" transform="matrix(-0.1063 0.9943 -0.9943 -0.1063 760.4716 -51.485)" width="159.3" height="121.2"/>
					</defs>
					<clipPath id="SVGID_8_">
						<use xlink:href="#SVGID_7_"  overflow="visible"/>
					</clipPath>
					<path clip-path="url(#SVGID_8_)" fill="none" stroke="#EC2227" stroke-width="2.85" stroke-miterlimit="10" d="M348.5,273.9
						l-1.9,39.3c0,0-3.2,52.8-5,74.8l105.6,11.3c4.3-20.1,10.7-59.5,10.7-59.5l8.1-53.3c0,0-10.4-2.4-13.9-2.5
						c-4.1-0.2-12.1,1.1-16.3,0.4c-4.4-0.7-11.8-3.6-17.1-4.2c-5.1-0.6-15.5,1.3-20.5,0.4c-4.2-0.8-12.2-4.8-16.4-5.1
						c-6-0.4-18,1.2-23.9,0.6C355.6,275.9,348.5,273.9,348.5,273.9L348.5,273.9z"/>
				</g>
			</g>
			<polygon fill="#FFFFFF" points="346.9,389.7 340.6,389 352.3,274.9 359,276 			"/>
			<g>
				<g>
					<defs>
						
							<rect id="SVGID_9_" x="323.7" y="255.4" transform="matrix(-0.1063 0.9943 -0.9943 -0.1063 760.4716 -51.485)" width="159.3" height="121.2"/>
					</defs>
					<clipPath id="SVGID_10_">
						<use xlink:href="#SVGID_9_"  overflow="visible"/>
					</clipPath>
					<polygon clip-path="url(#SVGID_10_)" fill="none" stroke="#FFFFFF" stroke-width="0.3562" stroke-miterlimit="10" points="
						346.9,389.7 340.6,389 352.3,274.9 359,276 					"/>
				</g>
			</g>
			<polygon fill="#FFFFFF" points="359,391 352.8,390.3 365,276 371.4,275.8 			"/>
			<g>
				<g>
					<defs>
						
							<rect id="SVGID_11_" x="323.7" y="255.4" transform="matrix(-0.1063 0.9943 -0.9943 -0.1063 760.4716 -51.485)" width="159.3" height="121.2"/>
					</defs>
					<clipPath id="SVGID_12_">
						<use xlink:href="#SVGID_11_"  overflow="visible"/>
					</clipPath>
					<polygon clip-path="url(#SVGID_12_)" fill="none" stroke="#FFFFFF" stroke-width="0.3562" stroke-miterlimit="10" points="
						359,391 352.8,390.3 365,276 371.4,275.8 					"/>
				</g>
			</g>
			<polygon fill="#FFFFFF" points="371.3,392.3 364.9,391.6 377.3,275.5 383.7,275.7 			"/>
			<g>
				<g>
					<defs>
						
							<rect id="SVGID_13_" x="323.7" y="255.4" transform="matrix(-0.1063 0.9943 -0.9943 -0.1063 760.4716 -51.485)" width="159.3" height="121.2"/>
					</defs>
					<clipPath id="SVGID_14_">
						<use xlink:href="#SVGID_13_"  overflow="visible"/>
					</clipPath>
					<polygon clip-path="url(#SVGID_14_)" fill="none" stroke="#FFFFFF" stroke-width="0.3562" stroke-miterlimit="10" points="
						371.3,392.3 364.9,391.6 377.3,275.5 383.7,275.7 					"/>
				</g>
			</g>
			<polygon fill="#FFFFFF" points="383.4,393.6 377,393 389.3,277.6 395.5,279.8 			"/>
			<g>
				<g>
					<defs>
						
							<rect id="SVGID_15_" x="323.7" y="255.4" transform="matrix(-0.1063 0.9943 -0.9943 -0.1063 760.4716 -51.485)" width="159.3" height="121.2"/>
					</defs>
					<clipPath id="SVGID_16_">
						<use xlink:href="#SVGID_15_"  overflow="visible"/>
					</clipPath>
					<polygon clip-path="url(#SVGID_16_)" fill="none" stroke="#FFFFFF" stroke-width="0.3562" stroke-miterlimit="10" points="
						383.4,393.6 377,393 389.3,277.6 395.5,279.8 					"/>
				</g>
			</g>
			<polygon fill="#FFFFFF" points="395.2,394.9 388.9,394.2 401.1,280.8 407.7,280 			"/>
			<g>
				<g>
					<defs>
						
							<rect id="SVGID_17_" x="323.7" y="255.4" transform="matrix(-0.1063 0.9943 -0.9943 -0.1063 760.4716 -51.485)" width="159.3" height="121.2"/>
					</defs>
					<clipPath id="SVGID_18_">
						<use xlink:href="#SVGID_17_"  overflow="visible"/>
					</clipPath>
					<polygon clip-path="url(#SVGID_18_)" fill="none" stroke="#FFFFFF" stroke-width="0.3562" stroke-miterlimit="10" points="
						395.2,394.9 388.9,394.2 401.1,280.8 407.7,280 					"/>
				</g>
			</g>
			<polygon fill="#FFFFFF" points="407.5,396.2 401.3,395.6 413.3,280.2 419.9,280.3 			"/>
			<g>
				<g>
					<defs>
						
							<rect id="SVGID_19_" x="323.7" y="255.4" transform="matrix(-0.1063 0.9943 -0.9943 -0.1063 760.4716 -51.485)" width="159.3" height="121.2"/>
					</defs>
					<clipPath id="SVGID_20_">
						<use xlink:href="#SVGID_19_"  overflow="visible"/>
					</clipPath>
					<polygon clip-path="url(#SVGID_20_)" fill="none" stroke="#FFFFFF" stroke-width="0.3562" stroke-miterlimit="10" points="
						407.5,396.2 401.3,395.6 413.3,280.2 419.9,280.3 					"/>
				</g>
			</g>
			<polygon fill="#FFFFFF" points="419.9,397.4 413.6,396.8 425.9,281.7 432,283.4 			"/>
			<g>
				<g>
					<defs>
						
							<rect id="SVGID_21_" x="323.7" y="255.4" transform="matrix(-0.1063 0.9943 -0.9943 -0.1063 760.4716 -51.485)" width="159.3" height="121.2"/>
					</defs>
					<clipPath id="SVGID_22_">
						<use xlink:href="#SVGID_21_"  overflow="visible"/>
					</clipPath>
					<polygon clip-path="url(#SVGID_22_)" fill="none" stroke="#FFFFFF" stroke-width="0.3562" stroke-miterlimit="10" points="
						419.9,397.4 413.6,396.8 425.9,281.7 432,283.4 					"/>
				</g>
			</g>
			<polygon fill="#FFFFFF" points="432.2,398.7 426,398 438.1,284.5 444.5,284.3 			"/>
			<g>
				<g>
					<defs>
						
							<rect id="SVGID_23_" x="323.7" y="255.4" transform="matrix(-0.1063 0.9943 -0.9943 -0.1063 760.4716 -51.485)" width="159.3" height="121.2"/>
					</defs>
					<clipPath id="SVGID_24_">
						<use xlink:href="#SVGID_23_"  overflow="visible"/>
					</clipPath>
					<polygon clip-path="url(#SVGID_24_)" fill="none" stroke="#FFFFFF" stroke-width="0.3562" stroke-miterlimit="10" points="
						432.2,398.7 426,398 438.1,284.5 444.5,284.3 					"/>
				</g>
			</g>
			<polygon fill="#FFFFFF" points="444.4,400.1 438.1,399.4 450.4,283.9 456.7,284.6 			"/>
			<g>
				<g>
					<defs>
						
							<rect id="SVGID_25_" x="323.7" y="255.4" transform="matrix(-0.1063 0.9943 -0.9943 -0.1063 760.4716 -51.485)" width="159.3" height="121.2"/>
					</defs>
					<clipPath id="SVGID_26_">
						<use xlink:href="#SVGID_25_"  overflow="visible"/>
					</clipPath>
					<polygon clip-path="url(#SVGID_26_)" fill="none" stroke="#FFFFFF" stroke-width="0.3562" stroke-miterlimit="10" points="
						444.4,400.1 438.1,399.4 450.4,283.9 456.7,284.6 					"/>
				</g>
			</g>
			<polygon fill="#FFFFFF" points="458.4,342.1 451.9,378.6 461.8,285.6 466,286.4 			"/>
			<g>
				<g>
					<defs>
						
							<rect id="SVGID_27_" x="323.7" y="255.4" transform="matrix(-0.1063 0.9943 -0.9943 -0.1063 760.4716 -51.485)" width="159.3" height="121.2"/>
					</defs>
					<clipPath id="SVGID_28_">
						<use xlink:href="#SVGID_27_"  overflow="visible"/>
					</clipPath>
					<polygon clip-path="url(#SVGID_28_)" fill="none" stroke="#FFFFFF" stroke-width="0.3562" stroke-miterlimit="10" points="
						458.4,342.1 451.9,378.6 461.8,285.6 466,286.4 					"/>
				</g>
			</g>
			
				<text transform="matrix(0.9943 0.1063 -0.1063 0.9943 364.4886 310.4215)" fill="#231F20" font-family="'Monaco'" font-size="19.4632">POPCORN</text>
			<g>
				<g>
					<defs>
						
							<rect id="SVGID_29_" x="323.7" y="255.4" transform="matrix(-0.1063 0.9943 -0.9943 -0.1063 760.4716 -51.485)" width="159.3" height="121.2"/>
					</defs>
					<clipPath id="SVGID_30_">
						<use xlink:href="#SVGID_29_"  overflow="visible"/>
					</clipPath>
					<g clip-path="url(#SVGID_30_)">
						
							<text transform="matrix(0.9943 0.1063 -0.1063 0.9943 364.4885 310.422)" fill="none" stroke="#231F20" stroke-width="0.3563" stroke-miterlimit="10" font-family="'Monaco'" font-size="19.4632">POPCORN</text>
					</g>
				</g>
			</g>
		</g>
	</g>
</g>
</svg>
