<?xml version="1.0" encoding="utf-8"?>
<!-- Generator: Adobe Illustrator 18.1.0, SVG Export Plug-In . SVG Version: 6.00 Build 0)  -->
<!DOCTYPE svg PUBLIC "-//W3C//DTD SVG 1.1//EN" "http://www.w3.org/Graphics/SVG/1.1/DTD/svg11.dtd">
<svg version="1.1" id="Layer_1" xmlns="http://www.w3.org/2000/svg" xmlns:xlink="http://www.w3.org/1999/xlink" x="0px" y="0px"
	 viewBox="0 0 151.2 187.6" enable-background="new 0 0 151.2 187.6" xml:space="preserve">
<path stroke="#000000" stroke-miterlimit="10" d="M140.2,59.5c0-0.9-8.3-0.7-13.5-6.6c-1.9-2.2-2.7-4.4-6.2-7.3
	c-1.6-1.3-3.3-2.4-3.1-2.8c0.3-0.7,5.6,1.9,6.6,0.7c0.9-1.2-3.4-5.1-7.9-11.4c-6.4-8.9-4.4-10.6-9.3-15.9
	C101.2,10,94.2,7.5,90.6,6.1c0,0-8.3-3.4-14.5-2.8c-1.5,0.2-3,0.5-3,0.5s-1,0.2-2,0.6c-3.3,1.1-11.4,8.3-11.9,7.9
	C58.8,12,62.5,8,65.6,5.5c3.1-2.5,7.2-3.4,7.1-3.7c-1-2.1-16.4,6.4-17.4,7.2c-1.1,0.9,3.4-8.6,3.2-8.5c-0.4,0.2-5.9,7.3-8.3,11.6
	c-2.3,4.1-2.2,3.8-4.8,7.8c-2.4,3.6-2.5,8.6-2.9,11.7c-0.3,2.7-0.2,5.2-0.1,6.4c0.1,1.9,0.4,3.3,0.5,3.9c0.2,1.3,0.7,3.7,1.8,6.4
	c0.7,1.6,1.5,3,1.9,3.7c0,0,0.2,0.4,0.5,0.8c2.7,4.2,5.9,7,5.9,7c1.2,1.1,4.6,4.5,9.2,5.8c3.2,0.8,9.7,2.1,9.8,2.1
	c0,0-0.2-3.7-0.1-2c0,0-16.3-2.3-18.4-10.1c-0.9-3.4,1.2-9-0.9-9c-1.2,0-1.9,1.1-3.8,0.2c-3.1-1.4-5.3-6.4-3.5-8.1
	c1.1-1,3.4-0.6,4.8,0.4c2.3,1.5,2.5,4.3,3.1,4.2c0.8-0.1-0.6-4.6,1.8-8.3c0.9-1.5,1.6-1.5,3.5-4.1c1.1-1.6,1.7-2.5,2.1-3.8
	c0.7-2.7-0.4-4.2,0.4-4.8c1-0.9,3.3,1.3,6.9,2.4c5.1,1.6,6.1-1.1,11.8,0c4,0.8,3.1,2.1,10.7,4.9c1.4,0.5,2.9,1,4.1,2.4
	c2,2.3,2.1,5.2,2.1,5.5c0,2.7-1.4,4.7-1.1,4.8c0.4,0.2,1.8-3.3,4.5-3.8c1.3-0.2,3,0.2,3.8,1.4c1,1.5,0.3,3.4,0,4.1
	c-1.1,3-3.2,2.7-4.5,5.5c-0.9,2,0,2.5-1.1,5.5c-0.8,2.2-1.8,3.7-2.4,4.5c-0.9,1.2-2.1,2.9-4.2,4.1c-1.5,0.9-3.2,1.3-6.6,2.1
	c0,0-1.5-0.3-6.1,0.6C78.9,65,78.5,69,79,70c0.7,1.5,4.7,0.4,9,0.4c2.8,0,1.9,0.4,15.5,3.9c0,0,5.5,1.4,10.8,1.7c0,0,0,0,0,0
	c4.9,0.3,7.3,0.5,7.5,0c0.2-0.8-6.7-4.8-6.2-3.8c0.1,0.2,22.3-0.1,23.9-1.7c1.8-1.8-14.5-9.8-12.1-9.7
	C128.3,60.9,140.2,62.7,140.2,59.5z"/>
<path fill="#E8B68A" stroke="#E8B68A" stroke-miterlimit="10" d="M72.6,72.9c0,0-0.3-5-0.6-8c0,0-2.6,1.3-9.3-1.3
	c-0.8-0.3-3.5-0.9-6.7-4.1c-1.5-1.5-1.7-3.5-2-4.9c-0.6-2.8,0.2-3.1,0.3-6.5c0,0,0.7-0.2-1.1-1.7c-0.2-0.2-1.4-0.2-1.7,0
	c-0.6,0.3-1.7,0.7-2.9,0.3c-1.8-0.6-2.4-2.4-2.8-3.4c-0.3-0.8-1.1-3.1,0-4.2c0.8-0.8,2.4-0.6,3.4-0.3c3.1,1.1,3.5,5,4.5,4.8
	c0.8-0.1-1-2,0.1-6.5c0.3-1.3,0.5-1.8,2.4-3.9c1.4-1.5,2.7-3.5,3.8-5.2c0.9-1.3,0.5-5.7,1.5-5.9c2-0.4,2.5,1.8,6.5,3.1
	c5,1.7,6.2-1.2,11.9,0c2.9,0.6,1.8,1.2,10.7,5.1c2.2,1,3,1.3,3.7,2.3c2.6,3.6,0.2,9,0.6,9.5c0.3,0.4,2.1-2.9,5.3-3
	c1.1,0,2.8,0.4,3.4,1.4c1.5,2.6-2.1,4.6-4.5,8.8c-1.9,3.2-2.1,7.4-3.5,10c-1.2,2.1-2.7,3.8-6.4,5.1c-4.5,1.6-8.7,1.9-10.5,0.9
	c0,0,0,0,0,0C77,68.2,78.4,71,78.4,71c0,0.3,0,0.9,0,1.6c-0.4,0.3-1.1,0.8-2.1,1c-0.3,0.1-0.6,0.1-1,0.1
	C73.7,73.8,72.6,72.9,72.6,72.9z"/>
<path fill="#662D91" stroke="#000000" stroke-miterlimit="10" d="M81.2,71.6c1.2-0.9,2.8-0.5,5.4,0c1.2,0.3,2.9,0.6,4.9,1.7
	c3,1.6,4.5,3.4,7.2,5.6c3.9,3,6.8,6.5,10.6,9.5c0.1,0,3.2,1.7,6.7,4.6c1,0.8,2,1.7,2.4,3.2c0.4,1.6-0.2,3.6-1.2,3.9
	c-0.6,0.2-1-0.6-2.9-1.7c-1.3-0.8-2.4-1.4-3.7-1.4c-1.4,0.1-1.5,0.8-2.5,0.8c-1.9,0.1-4.3-3.3-5.8-4.3c-1.3-0.9-3.2-1.3-5.3-3.3
	c-1-1-1.4-1.8-2-1.7c-1,0.1-0.8,2.3-2.5,5.1c-1.1,1.8-1.3,2-1.9,3.5c-0.5,1.4-0.8,5.5,0,8.3c0,0,0.6,0.2,0.7,2.8l0.4,1.7
	c-0.3,0.6-2.3-0.1-5.4,0c-3.2,0.1-3.5,0.7-5.1,0.3c-1.7-0.4-1.8-1.2-3.8-1.9c-1.7-0.6-3.8-0.5-4.3-0.4c-1.7,0.4-1.9,0.9-3.9,1.6
	c-0.6,0.2-0.3,0-1.8,0.2c-2.6,0.3-4.2,0.4-5.7,0.2c-1.4-0.2-1.6-0.4-1.7-0.5c-0.7-0.9,0.7-2.4,1.4-5.4c0.2-0.9,0.8-3.5,0-6.2
	c-0.5-1.7-1-1.6-2.2-4.2c-1.6-3.5-2.2-4.2-2.2-5.1c0.1-1.3-0.4,0.7-3.3-1.5c-2.8-2.1-2.8-2.1-4.1-3.6c-1.2-1.3-3.9-6.3-4.5-7.5
	c-0.5-0.9-7.7-12.4-9.1-14.1c-0.8-0.9-5.6-9.4-5.8-9.8c-1.2-2,4.1-0.5,3.5-0.6c-2.9-0.2,0.9-1.2,3.3-1.9c2-0.6,1-5.3,1.7-3.7
	c0.9,2.4,3,6.9,5.2,10.2c1.9,2.8,1.5,1.8,3.9,5.8c2.2,3.6,5.3,6.8,6.4,7.9c2.9,2.9,4.4,4.3,7.1,3.2c1.1-0.5,2.3-0.8,4.9-1.3
	c3.1-0.6,3.6-0.4,3.9-0.2c1.1,0.8,0.2,2.3,1.3,3.7c1.2,1.4,3.3,1.5,4,1.5c0.8,0,2.5,0.1,3.7-1C80.7,74.1,79.9,72.6,81.2,71.6z"/>
<polygon fill="#27AAE1" stroke="#000000" stroke-miterlimit="10" points="80.7,81.5 87.1,88.1 80.7,97.4 67.7,97.3 61.3,88.2 
	67.9,81.5 "/>
<polygon fill="#FBB040" stroke="#000000" stroke-miterlimit="10" points="82.4,88.1 78.3,94 70.6,93.9 66,88 68.2,85.2 79.9,85.2 
	"/>
<path fill="#F7941E" stroke="#000000" stroke-miterlimit="10" d="M117.1,99.8c0.3,1.1-1.1,3.1-3.6,5.6c-5.4,5.3-6.1,4.6-8.3,7.4
	c-2.2,2.7-2.6,4.8-5.6,6.9c-1.3,0.9-2.2,1.2-3,1c-1.6-0.5-2.2-2.9-2.5-4.4c-0.4-1.7-0.8-3.7,0.4-5.2c0.9-1.2,2.3-1.5,3.4-1.7
	c2.3-0.5,2.9,0.4,4,0c3.5-1,1.9-9.8,6.1-11.8c1.7-0.8,3.6-0.7,4.5-0.4C113.5,97.5,116.7,98.2,117.1,99.8z"/>
<path fill="#F7941E" stroke="#000000" stroke-miterlimit="10" d="M92.3,110.4c0.3,1.2,0.7,2.5,1,3.7l-11,0l-1.2-4.1L92.3,110.4z"/>
<polygon fill="#F7941E" stroke="#000000" stroke-miterlimit="10" points="68.8,110.2 68.8,114.7 58.9,114 60,109.9 "/>
<path fill="#00AEEF" stroke="#000000" stroke-miterlimit="10" d="M80.8,110.7c0.1,0.3,1.3,2.4,0.3,4.4c-1.2,2.6-4.9,2.7-5.6,2.7
	c-0.8,0-4.7-0.1-6.2-3.1c-0.1-0.1-1.2-2.4,0-4.6c1.7-3,6.1-2.4,6.6-2.3C76.7,107.9,79.5,108.3,80.8,110.7z"/>
<path fill="#FFFFFF" stroke="#000000" stroke-miterlimit="10" d="M78.1,111.3c0.6,1,0.5,2.3-0.2,3.2c-1.1,1.4-3.5,1.1-4.7,0
	c-0.7-0.6-1.4-1.8-1-2.9c0.4-1,1.8-1.2,2.4-1.3C75.1,110.2,77.1,109.9,78.1,111.3z"/>
<path fill="#662D91" stroke="#000000" stroke-miterlimit="10" d="M93.3,114.8c0,0,1,2.9,1.9,6.1c0.2,0.5,0.8,3,1.2,4.4
	c2.4,8.7,1.8,17.4,2.7,18.3c1.3,1.2,1.4,2,1.7,3.7c0.4,2,0.4,3.1,0.5,4.9c0,0.9,0.5,1.6,0.3,2.2c-0.2,0.9-1.6,1.2-2.5,1.5
	c-0.5,0.1-2.8,0.5-4.6,0.4c-1.9-0.1-4.2-1-4.2-1l0-0.7c0,0-0.2-2.3-0.6-3.4c-1.2-3.4-2.7-5.6-4.9-8.1c-6.7-7.8-7.2-12-8.7-12.5
	c0,0-2.8,4.2-10.4,13.3c-2.3,2.8-4.2,4.7-4.2,7.6c-0.1,1.7,0.5,3.4-0.5,4.4c-0.2,0.2-0.6,0.5-3.2,0.7c-4.6,0.2-6-0.6-6.4-0.9
	c-0.5-0.3-1.3-0.9-1.3-1.7c0-0.8-0.2-1.4,0-2.3c0.4-2.3,0.2-2.9,1.5-5c0.5-0.9,0.9-2.1,1.4-3.2c1.1-2.3-0.1-8.9,1.3-15.2
	c0.8-3.5,0.2-6.3,1.3-7.4c1.9-1.9,3.3-6,3.3-6s9-0.4,9.9,0.3c2.5,1.8,2.1,2.8,6.8,2.8c4,0,5.6-2.7,6.7-3
	C85.8,113.8,93.3,114.8,93.3,114.8z"/>
<path fill="#F7941E" stroke="#000000" stroke-miterlimit="10" d="M102.9,158c0-1.6,0.1-3-0.7-3.4c-0.4-0.2-0.8,0-1.9,0.3
	c-1.2,0.4-2.5,0.8-3.7,0.8c-2,0.1-5.8-0.4-6.1,0c-1.1,1.3,1.2,5.1,2.8,7.8c2.4,4,3.2,4,3.5,5.9c0.3,1.8-0.2,2.1,0,6.1
	c0.1,2.9,0.5,3.7,0.7,4.1c0.3,0.7,0.8,1.5,3.4,3.6c2.6,2.1,3.9,3.2,5.1,3.6c0.3,0.1,4.2,1.3,6.9-0.8c0.5-0.3,1.3-1,1.5-2
	c0.1-0.4,0.3-1.7-1.8-4.4c-2.2-2.8-3.6-3-6.4-6.1c-1.1-1.2-1.6-1.8-2-2.7c-0.9-2-0.2-2.9-0.5-6.8C103.5,160.5,103,161,102.9,158z"/>
<path fill="#F7941E" stroke="#000000" stroke-miterlimit="10" d="M59.4,160.6c0.9-1.7,2.4-4.5,1.5-5.4c-0.4-0.4-1.1,0-3.2,0.3
	c-2.3,0.4-4.8,0.7-6.4-0.5c-1.1-0.8-1-1.7-1.5-1.7c-1.3,0.1-1.8,7.1-1.9,8.6c-0.4,6.1,0.4,6.5-0.5,8.6c-0.7,1.5-1.2,1.6-6.4,6.9
	c-3.8,3.8-4.6,4.9-4.4,6.2c0.3,1.9,2.8,2.8,3.4,3c2.9,1.1,5.6-0.1,6.1-0.3c1.6-0.8,1.4-1.3,4.7-4.2c2.4-2.1,2.7-1.9,3-2.7
	c0.8-1.6,0.1-2.6,0.2-6.7c0-1.3,0.1-2,0.2-2.7C54.7,166.4,56.8,165.4,59.4,160.6z"/>
<path fill="#FFDE17" stroke="#000000" stroke-miterlimit="10" d="M46.6,78.3c0,0,0,0-2.7,1.7c-2.3,1.4-6.9,5-11,11.1
	c-3.8,5.7-3.3,8.1-8.1,14.3c-3.7,4.8-6.2,6.1-7.1,6.6c-3.8,1.9-7.9,2-10,2c-4.3-0.1-5.8-1.3-6.7-0.4c-1.6,1.7,0.9,7.8,5,11.7
	c2.1,1.9,5.2,3.4,11.3,6.4c3.2,1.6,2.9,1.3,3.9,1.9c5.7,3.5,5,7.2,9.2,10.2c3.7,2.6,4.2,3.1,11.8,3.1c4.5,0,7.4,2.7,8.3,1.8
	c0.8-0.8-0.3,1.1,0.7-1.4c0.6-1.8,1.3-2.9,2.1-4.6c0.7-1.5-1.2-7.1,0.6-14.5c0.8-3.3,1.8-6.7,3.1-9.4c1.9-4.1,0.5-1,1.9-4.1
	c1.1-2.3,2.3-10.2,3.2-11.8c2.3-3.8-4.6-11.9-5.3-14.4c-0.3-1-4.8-1.7-7.7-6.6C47.9,80.1,47,78.8,46.6,78.3z"/>
<path fill="#FFDE17" stroke="#000000" stroke-miterlimit="10" d="M62.6,148.9c0.4,0.4,8.2-2.8,13.2-2.5c7.5,0.4,12.8,4.1,13.4,3.2
	c0.7-1-2.8-3.2-6.8-9.2c-1.9-2.8-5.5-10.1-6.3-10.1c-0.7,0-4.1,5.5-7.5,9.6C65.2,144.3,62.3,148.6,62.6,148.9z"/>
<path fill="#FFDE17" stroke="#000000" stroke-miterlimit="10" d="M100.9,146.6c1.9,2.1,4.4-2.8,9.3-4.5c4.9-1.7,6,0.9,10.1-0.5
	c5.9-2,4.4-7.7,11.3-11.8c1.2-0.7,4.7-1.8,11.8-4c5.9-1.8,6.7-1.9,7.1-2.8c1.3-3.3-7.7-7.2-16.8-19c-5.2-6.8-4.6-8.7-9.9-13.9
	c-3.4-3.4-6.5-5.3-12.6-9.3c-4.9-3.2-8.4-5-12.6-6.3c-2.4-0.8-7.4-1-7.4-1s2.3,2.2,7.1,5.8c6.9,5.2,5.7,5.3,11.1,9.1
	c6,4.3,8.9,5.3,9.3,8.3c0.2,1.5-0.4,2.8-1.4,4.6c-1.5,3-3,3.6-7.4,7.9c-3.6,3.5-5.4,5.2-6.4,6.7c-1.4,2-2.1,3.7-4.2,4.7
	c-2.1,1-4.3-0.4-4.1,1c0.3,1.9,2.6,6.3,2.7,15c0,2.1,0.2,4.3,0.6,6.8C98.7,144.9,99.7,145.3,100.9,146.6z"/>
<g>
	<path fill="#FFDE17" stroke="#000000" stroke-miterlimit="10" d="M93.6,88.6c1.8-1.3,3.2,0.7,7.8,3.9c3.4,2.4,6,3,6,4.1
		c0,0.8,0,0.8-1,2.3c-1.8,2.8-1,7.7-3.7,10c-1.8,1.6-4.7-0.7-7.1,1.2c-2.2,1.7-2.5,4.2-3.2,4.1c-0.6-0.1-0.7-2.2-0.9-4
		c-0.3-2.7-1.3-4.6-1.6-6.2c-0.5-2.7-0.4-5-0.2-5.9c0.2-0.8,1.4-2.3,2.2-4.6C92.6,91.4,92.9,89.1,93.6,88.6z"/>
</g>
<path fill="#F7941E" stroke="#000000" stroke-miterlimit="10" d="M80.6,71.2c0-0.1,0,0.3-0.8-0.1c-0.7-0.4-0.6-0.3-0.6-0.3
	s0,1-0.3,1.9c-0.4,1.2-2,1.7-2.6,1.7c-0.6,0.1-2.9,0.1-3.7-0.9c-0.6-0.8-0.5-2.7-0.5-2.7l-2.1,0c0,0,0.2,3.6,1.1,4.6
	c1.1,1.3,2.5,1.9,3.5,2c0.9,0.1,3.1,0.3,4.6-0.9C80.6,75.3,81.1,71.8,80.6,71.2z"/>
<path fill="none" stroke="#C49A6C" stroke-miterlimit="10" d="M50.9,43.8c0.2-0.2-0.4-1.1-1.2-1.5c-0.9-0.4-2-0.3-2.1,0
	C47.5,42.8,50.6,44.2,50.9,43.8z"/>
<path fill="none" stroke="#C49A6C" stroke-miterlimit="10" d="M96.8,44.5c-0.1-0.2,0.9-1.2,2.2-1.5c1-0.3,2.3-0.2,2.4,0
	C101.5,43.5,97.1,45,96.8,44.5z"/>
<g>
	<path fill="#FFFFFF" stroke="#000000" stroke-miterlimit="10" d="M90.1,45.5c-0.9,0.5-1.8-0.9-4.3-0.9c-2.3,0-3.3,1.3-4,0.7
		c-0.9-0.7-0.1-3.2,0.9-6.2c0.8-2.4,1.5-3.3,2.5-4c0.4-0.3,1.2-0.8,2.1-0.6c0.4,0.1,1.3,0.4,2.4,3.3C89.8,38.3,91.9,44.5,90.1,45.5z
		"/>
	<path fill="#603913" stroke="#000000" stroke-miterlimit="10" d="M88.7,43.9c1.4-1.8,0.6-4,0.4-4.3c-0.1-0.1-1.1-2.8-3.1-2.8
		c-1.8,0.1-2.7,2.4-2.9,2.8c-0.7,1.7,0.4,5.3,2.8,5.2C87.6,44.6,87.7,45.2,88.7,43.9z"/>
	<path fill="#726658" stroke="#000000" stroke-miterlimit="10" d="M85.9,44.6c1.1-0.1,1.5-0.2,1.5-1.5c0-0.6-0.3-2.1-1.4-2.1
		c-1.1,0-1.4,0.4-1.5,1.8C84.5,43.7,84.9,44.6,85.9,44.6z"/>
</g>
<path fill="none" stroke="#000000" stroke-miterlimit="10" d="M72.1,30.4c-1.6-0.5-4.7,0-7.1,2.7"/>
<path fill="none" stroke="#000000" stroke-miterlimit="10" d="M90.1,33.2c0-1.5-3.2-2.7-7.1-2.7"/>
<line fill="none" stroke="#000000" stroke-miterlimit="10" x1="68.3" y1="32.8" x2="68.3" y2="32.8"/>
<g>
	<path fill="none" stroke="#C49A6C" stroke-miterlimit="10" d="M79.5,50.4c-0.2-0.1-1.4-0.8-2.7-0.3c-1.2,0.4-2.2,1.7-2,3
		c0.2,1,1.1,1.6,1.9,1.9c1,0.3,2.1,0,2.9-0.9"/>
</g>
<path fill="none" stroke="#BE1E2D" stroke-miterlimit="10" d="M91.4,56.6c-0.4-0.7-1.7-1.4-1.7-1.4s-1.1,1.4-1.8,2.4
	c-2.5,3.2-6.1,4.1-7.4,4.4c-2,0.4-3.5,0.2-5,0.1c-1.2-0.1-3-0.2-5-1.2c-1.1-0.6-2.2-1.1-3.8-2.3c-1.8-1.2-2-1.7-2-1.7
	c-1.2-1.2-1.5-1.4-1.5-1.4s-0.6,0.7-0.8,1.2"/>
<g>
	<path fill="#FFFFFF" stroke="#000000" stroke-miterlimit="10" d="M73,45.5c-0.9,0.5-1.8-0.9-4.3-0.9c-2.3,0-3.3,1.3-4,0.7
		c-0.9-0.7-0.1-3.2,0.9-6.2c0.8-2.4,1.5-3.3,2.5-4c0.4-0.3,1.2-0.8,2.1-0.6c0.4,0.1,1.3,0.4,2.4,3.3C72.7,38.2,74.8,44.4,73,45.5z"
		/>
	<path fill="#603913" stroke="#000000" stroke-miterlimit="10" d="M71.6,43.8c1.4-1.8,0.6-4,0.4-4.3c-0.1-0.1-1.1-2.8-3.1-2.8
		c-1.8,0.1-2.7,2.4-2.9,2.8c-0.7,1.7,0.4,5.3,2.8,5.2C70.5,44.5,70.6,45.2,71.6,43.8z"/>
	<path fill="#726658" stroke="#000000" stroke-miterlimit="10" d="M68.8,44.5c1.1-0.1,1.5-0.2,1.5-1.5c0-0.6-0.3-2.1-1.4-2.1
		c-1.1,0-1.4,0.4-1.5,1.8C67.4,43.6,67.8,44.6,68.8,44.5z"/>
</g>
<path fill="#F7941E" stroke="#000000" stroke-miterlimit="10" d="M29.7,51.4c-4.1-2.5-2.2-15.7-8.7-16.5c-3.6-0.5-4.3-1.4-4.3-1.6
	c0-0.1,4.3,0.2,4.2-1.2c-0.1-1.3-4.6-1.3-4.6-1.2c0,0.2,4.5-0.2,4.5-1.5c0-1.1-4.9-0.5-4.9-0.6c0,0,4.8-0.9,4.8-1.5
	c0-0.9-5-0.8-5-0.9c0-0.1,4.7,0.1,4.8-0.5c0.2-1.1-5-2.2-4.9-2.2c0.1,0,3.4,1.4,4.1,0.5c0.7-0.8-0.9-3-0.7-4.2
	c0.1-0.7,1.7-1.1,2.1-0.3c0.6,1,1.2,2.5,1.2,3.2c0,1.6,0.4,3.3,5.3,9.5C35.9,43.5,39.8,45.5,39,48.2C38.1,51.1,32.5,53.2,29.7,51.4z
	"/>
<path fill="none" stroke="#000000" stroke-miterlimit="10" d="M15.6,23.9c0,1,0,1.9,0,2.8c0,0.9,0.1,1.7,0.1,2.4
	c0.1,0.8,0.1,1.4,0.2,2c0.2,1.4,0.4,2.3,0.7,2.3"/>
<g>
	<g>
		<path d="M15.8,24.7c0,0.3-0.1,1,0.1,1.4c0.2,0.3,0.4,0.1,0.7,0.1c0.5,0,0.9,0.2,1.4,0.2c0.5,0,1-0.1,1.5-0.3
			c0.2-0.1,0.2-0.4,0-0.5c-0.6-0.2-1.2-0.5-1.7-0.7c-0.4-0.2-1-0.5-1.4-0.4c-0.1,0-0.2,0.1-0.2,0.2c-0.1,0.4-0.2,0.9,0.3,1
			c0.2,0.1,0.4,0,0.6,0.1c0.2,0,0.4,0.1,0.5,0.2c0.3,0.1,0.6,0.2,1,0.2c0.3,0,0.3-0.4,0.1-0.5c-0.6-0.3-1.3-0.6-2-0.7
			c-0.3,0-0.5,0.4-0.1,0.5c0.7,0.1,1.3,0.4,2,0.7c0-0.2,0-0.3,0.1-0.5c-0.5,0.1-0.9-0.2-1.4-0.4c-0.1,0-0.3-0.1-0.4-0.1
			c-0.2-0.1-0.2,0-0.1,0.1c0-0.2,0-0.3,0-0.5c-0.1,0.1-0.2,0.1-0.2,0.2c0.5,0,1.2,0.4,1.6,0.5c0.5,0.2,0.9,0.4,1.4,0.6
			c0-0.2,0-0.3,0-0.5c-0.8,0.3-1.6,0.3-2.4,0.1c-0.2-0.1-0.4,0-0.6-0.1c-0.3,0-0.1,0.1-0.1-0.1c0-0.3,0-0.6,0-0.8
			C16.3,24.4,15.8,24.4,15.8,24.7L15.8,24.7z"/>
	</g>
</g>
<g>
	<g>
		<path d="M15.9,27.3c0,0.4,0.1,0.9,0.1,1.3c0,0.2,0.3,0.4,0.5,0.1c0.2-0.4,1.2-0.4,1.6-0.5c0.5-0.1,1-0.3,1.5-0.4
			c0.2-0.1,0.2-0.3,0.1-0.4c-0.4-0.5-1.1-0.4-1.7-0.4c-0.4,0-1.5-0.2-1.7,0.3c-0.1,0.3,0.1,0.7,0.5,0.8c0.4,0,0.8-0.1,1.2-0.1
			c0.4,0,0.8,0,1.2-0.1c0.3-0.1,0.2-0.6-0.1-0.5c-0.5,0.1-0.9,0.1-1.4,0.1c-0.2,0-0.3,0-0.5,0c-0.1,0-0.5,0-0.4,0.1
			c0.7,0.1,2-0.4,2.6,0.2c0-0.1,0.1-0.3,0.1-0.4c-0.7,0.2-1.5,0.4-2.2,0.5c-0.5,0.1-0.9,0.1-1.1,0.6c0.2,0,0.3,0.1,0.5,0.1
			c0-0.4-0.1-0.9-0.1-1.3C16.4,27,15.9,27,15.9,27.3L15.9,27.3z"/>
	</g>
</g>
<g>
	<g>
		<path d="M17.4,27.7c0.2,0,0.6-0.1,0.8,0c0.1,0,0.2,0.2,0.3,0.2c0.2,0.1,0.4,0,0.6,0c0.2,0,0.5,0,0.8-0.1c0.1,0,0.2-0.1,0.2-0.2
			c0,0,0,0,0,0c0-0.1-0.1-0.2-0.1-0.2c0,0,0,0,0,0c-0.3-0.2-0.5,0.3-0.3,0.4c0,0,0,0,0,0c0-0.1-0.1-0.1-0.1-0.2c0,0,0,0,0,0
			c0.1-0.1,0.1-0.2,0.2-0.2c-0.2,0.1-0.5,0.1-0.7,0c-0.2,0-0.3,0-0.5-0.1c0,0-0.1-0.1-0.1-0.1c-0.3-0.1-0.7,0-1.1,0
			C17.1,27.2,17.1,27.7,17.4,27.7L17.4,27.7z"/>
	</g>
</g>
<g>
	<g>
		<path d="M16.3,28.3c0.1,0,0.2,0,0.3,0c0.3,0,0.3-0.5,0-0.5c-0.1,0-0.2,0-0.3,0C16,27.8,16,28.3,16.3,28.3L16.3,28.3z"/>
	</g>
</g>
<g>
	<g>
		<path d="M16.2,29.8c1.4,0,2.7,0,4.1,0c0-0.2,0-0.3-0.1-0.5c-0.8,0.2-1.7,0.5-2.5,0.7c-0.2,0.1-0.4,0.1-0.6,0.2
			c-0.1,0-0.2,0-0.3,0.1c-0.1,0.1-0.1,0.1-0.1-0.1c-0.4-0.3,0.6-0.1,0.8-0.1c0.4,0,0.8,0,1.2-0.1c0,0,0.6,0,0.6-0.1
			c0-0.1-0.5-0.1-0.6-0.1c-0.3,0-0.5,0.1-0.8,0.2c-0.1,0.1-0.3,0.2-0.4,0.2c-0.2,0.1-0.3,0.1-0.5-0.1c-0.3,0-0.4-0.1-0.2-0.2
			c0,0.2,0,0.3,0.1,0.5c0.1,0,0.1-0.1,0.2-0.1c0.3,0,0.3-0.5,0-0.5c-0.2,0-0.3,0-0.4,0.1c-0.1,0.1-0.2,0.4,0.1,0.5
			c0.5,0.1,0.8-0.4,0.3-0.7c-0.4-0.3-0.7,0-0.8,0.4c-0.1,0.8,0.7,0.9,1.3,0.7c0.3-0.1,0.5-0.2,0.7-0.3c0.3-0.1,0.6-0.1,0.9-0.1
			c0.2,0,0.5-0.1,0.7-0.3c0.3-0.6-0.5-0.6-0.9-0.6c-0.7,0-1.4,0.1-2.2,0.1C16.6,29.6,16.3,29.5,16.2,29.8c-0.2,0.2,0.1,0.9,0.4,1
			c0.4,0.1,1.3-0.3,1.7-0.4c0.7-0.2,1.4-0.4,2.1-0.6c0.3-0.1,0.2-0.5-0.1-0.5c-1.4,0-2.7,0-4.1,0C15.9,29.3,15.9,29.8,16.2,29.8
			L16.2,29.8z"/>
	</g>
</g>
<g>
	<g>
		<path d="M16.4,31.9c0.8,0,1.6,0,2.3,0c0.4,0,0.8,0.1,1.2,0.2c0.2,0.1,0.2,0,0-0.1c-0.2,0.1-0.4,0.2-0.7,0.3
			c-0.3,0.1-0.7,0.2-1,0.3c-0.1,0-1.6,0.3-1.3-0.3c0.1-0.2,1.2-0.2,1.4-0.2c0.2,0,1.4,0,0.5,0.2c-0.3,0.1-0.5,0.1-0.8,0.1
			c-0.4,0.1-1.1,0.2-0.3,0c0.3-0.1,0.6-0.1,0.9-0.2c0.2,0.1,0.4,0,0.6-0.1c0,0,0,0-0.1,0c-0.4,0-0.7,0.1-1.1,0.2
			c-0.2,0-0.4,0.1-0.5,0.2c0,0.2,0.2,0.2,0.3,0.1c0.3,0,0.7-0.2,1-0.2c0.3,0,0.2-0.5-0.1-0.5c-0.5,0.1-2.2,0.2-1.5,1.1
			c0.1,0.1,0.2,0.1,0.2,0.1c0.7-0.2,1.4-0.3,2.1-0.5c0.2-0.1,0.4-0.1,0.4-0.3c0.1-0.7-1-0.6-1.4-0.5c-0.4,0.1-2,0-1.8,0.8
			c0.2,0.8,1.8,0.3,2.2,0.2c0.4-0.1,1.3-0.4,0.8-1c-0.2-0.3-0.7-0.3-1.1-0.3c-0.6,0-1.1,0.2-1.6,0.2c-0.7,0-0.7,0.9-0.3,1.3
			c0.5,0.5,1.9,0,2.5-0.1c0.3-0.1,1.9-0.5,1.2-1.1c-0.3-0.3-1.1-0.3-1.5-0.3c-0.8-0.1-1.7-0.1-2.5,0C16.1,31.4,16.1,31.9,16.4,31.9
			L16.4,31.9z"/>
	</g>
</g>
<g>
	
		<rect x="17.7" y="16.2" transform="matrix(0.99 0.1409 -0.1409 0.99 4.1912 -3.1184)" fill="#808285" stroke="#000000" stroke-miterlimit="10" width="12.9" height="23.6"/>
	
		<rect x="19.8" y="20.6" transform="matrix(0.99 0.1409 -0.1409 0.99 4.234 -3.1092)" stroke="#000000" stroke-miterlimit="10" width="8.5" height="15.5"/>
</g>
</svg>
