<?xml version="1.0" encoding="utf-8"?>
<!-- Generator: Adobe Illustrator 18.1.0, SVG Export Plug-In . SVG Version: 6.00 Build 0)  -->
<!DOCTYPE svg PUBLIC "-//W3C//DTD SVG 1.1//EN" "http://www.w3.org/Graphics/SVG/1.1/DTD/svg11.dtd">
<svg version="1.1" id="Layer_1" xmlns="http://www.w3.org/2000/svg" xmlns:xlink="http://www.w3.org/1999/xlink" x="0px" y="0px"
	 viewBox="0 0 600 600" enable-background="new 0 0 600 600" xml:space="preserve">
<g>
	<path stroke="#000000" stroke-width="3" stroke-miterlimit="10" d="M94.8,189.6c0-2.9,26.5-2.2,43.2-21.1c6.1-7,8.6-14.1,19.8-23.3
		c5.1-4.2,10.5-7.7,9.9-9c-1-2.2-18.2,6.1-21.1,2.2c-2.9-3.8,10.9-16.3,25.6-36.4c20.5-28.4,14.4-33.9,29.7-50.8
		c18.2-19.8,40.3-27.8,51.8-32c0,0,26.5-10.9,46.4-9c4.8,0.6,9.6,1.6,9.6,1.6s3.2,0.6,6.4,1.9c10.5,3.5,36.1,26.5,38,25.3
		c1-1-10.9-13.7-20.8-21.7s-23-10.9-22.7-11.8c3.2-6.7,52.4,20.5,55.6,23.3c3.5,2.9-10.9-27.5-10.2-27.2
		c1.3,0.6,18.5,23.3,26.5,37.1c7.4,13.1,7,12.1,15.3,24.9c7.7,11.5,8,27.5,9,37.4c1,8.6,0.6,16.6,0.3,20.5
		c-0.3,6.1-1.3,10.5-1.6,12.5c-0.6,4.2-2.2,11.8-6.1,20.5c-2.2,5.1-4.8,9.6-6.1,11.8c0,0-0.6,1.3-1.6,2.6
		c-8.6,13.4-18.9,22.4-18.9,22.4c-4.2,3.5-14.7,14.4-29.7,18.2c-10.2,2.6-31,6.7-31.3,6.7c0,0,0.6-11.8,0.3-6.4
		c0,0,52.1-7,58.8-32.3c2.9-10.9-3.5-28.8,3.2-28.8c3.8,0,6.1,3.5,12.1,0.6c9.9-4.5,16.9-20.5,11.2-25.9c-3.2-3.2-10.9-1.9-15.3,1
		c-7.4,4.8-8,13.4-9.9,13.1c-2.6-0.3,1.9-14.7-5.4-26.5c-2.9-4.8-5.1-4.8-11.2-13.1c-3.5-5.1-5.4-8-6.7-12.1
		c-2.2-8.6,1.3-13.4-1-15.3c-3.2-2.9-10.5,4.2-22.1,7.7c-16.3,5.1-19.5-3.5-37.7,0c-12.8,2.6-9.9,6.7-34.2,15.3
		c-4.5,1.6-9.3,3.2-13.1,7.7c-6.4,7.4-6.7,16.6-6.7,17.6c0,8.6,4.2,15,3.2,15.3c-1.3,0.6-5.4-10.5-14.4-12.1
		c-4.2-0.6-9.6,0.6-12.1,4.5c-3.2,4.8-1,10.9,0,13.1c3.5,9.6,10.2,8.6,14.4,17.6c2.9,6.4,0,8,3.2,17.6c2.2,7,5.8,11.8,7.7,14.4
		c2.9,3.8,6.7,9.3,13.1,13.1c4.8,3.2,10.2,4.2,21.1,6.7c0,0,4.8-0.6,19.5,1.9c-0.6-3.5,0.6,9.3-1,12.5c-2.2,4.8-15,1.3-28.8,1
		c-9,0-6.1,1.3-49.9,12.1c0,0-17.6,4.5-34.5,5.4l0,0c-15.7,1-23.3,1.6-24,0c-0.6-2.6,21.4-15.3,19.8-12.1
		c-0.3,0.6-71.3-0.6-76.4-5.4c-5.8-5.8,46.4-31,38.7-31C132.8,194,94.8,199.5,94.8,189.6z"/>
	<path fill="#E8B68A" stroke="#E8B68A" stroke-width="3" stroke-miterlimit="10" d="M310.5,232.7c0,0,1-16,1.9-25.6
		c0,0,8.3,4.2,29.7-4.2c2.6-1,11.2-2.6,21.4-13.1c4.8-4.8,5.4-11.2,6.4-15.7c1.9-9-0.6-9.9-1-20.8c0,0-2.2-0.6,3.5-5.4
		c0.6-0.6,4.5-0.6,5.4,0c1.9,1,5.4,2.2,9.3,1c5.8-1.6,7.7-7.7,9-10.9c1-2.6,3.5-9.9,0-13.4c-2.6-2.6-7.7-1.9-10.9-1
		c-9.9,3.5-11.2,16-14.4,15.3c-2.6-0.3,3.2-6.4-0.3-20.8c-1-4.2-1.6-5.8-7.7-12.5c-4.5-4.8-8.6-11.2-11.8-16.6
		c-2.9-4.2-1.3-18.2-4.8-19.2c-6.4-1.3-8,5.8-20.8,9.9c-16,5.4-19.8-3.8-38,0c-9.3,1.9-5.8,3.8-34.5,16.3c-7,3.2-9.6,4.2-11.8,7.4
		c-8.3,11.5-1,28.8-1.9,30.4c-1,1.3-6.4-9.6-16.9-9.6c-3.5,0-9,1.3-10.9,4.5c-4.8,8.3,6.7,14.7,14.4,28.1c6.1,10.2,6.7,23.7,11.2,32
		c3.5,7,8.3,12.1,20.5,16.6c14.4,5.1,27.8,6.1,33.6,2.9l0,0c5.4,9,1,17.9,1,17.9c0,1,0,2.9,0,5.1c1.3,1,3.5,2.6,6.7,3.2
		c1,0.3,1.9,0.3,3.2,0.3C307,235.6,310.5,232.7,310.5,232.7z"/>
	<path fill="#662D91" stroke="#000000" stroke-width="3" stroke-miterlimit="10" d="M283.4,227.9c-3.8-2.9-9-1.6-17.3,0
		c-3.8,1-9.3,1.9-15.7,5.4c-9.6,5.1-14.4,10.9-23.3,17.9c-12.5,9.6-21.7,20.8-33.9,30c-0.3,0-10.2,5.4-21.4,14.7
		c-3.2,2.6-6.4,5.4-7.7,10.2c-1.3,5.1,0.6,11.5,3.8,12.5c1.9,0.6,3.2-1.9,9.3-5.4c4.2-2.6,7.7-4.5,11.8-4.2c4.5,0.3,4.8,2.6,8,2.6
		c6.1,0.3,13.7-10.5,18.5-13.7c4.2-2.9,10.2-4.2,16.9-10.5c3.2-3.2,4.5-5.8,6.4-5.4c3.2,0.3,2.6,7.4,8,16.3
		c3.5,5.8,4.2,6.4,5.8,11.5c1.6,4.5,2.6,17.6,0,26.5c0,0-1.9,0.6-2.2,9l-1.3,5.4c1,1.9,7.4-0.3,17.3,0c9.9,0.3,11.2,2.2,16.3,1
		c5.4-1.3,5.8-3.8,12.1-6.1c5.4-1.9,12.1-1.6,13.7-1.3c5.4,1.3,6.1,2.9,12.5,5.1c1.9,0.6,1,0,5.8,0.6c8.3,1.3,13.4,1.3,18.2,0.6
		c4.5-0.6,5.1-1.3,5.4-1.6c2.2-2.9-2.2-7.7-4.2-17.3c-0.6-2.9-2.6-11.2,0-19.8c1.6-5.4,3.2-5.1,7-13.4c5.1-11.2,3.8-14.7,7-16.3
		c3.8-1.6,10.5,3.5,23.7,14.1c10.9,8.3,13.7,11.8,19.8,12.5c3.5,0.3,6.1-0.3,10.9,1c2.2,0.6,7,2.2,10.2,6.4c2.6,3.2,2.6,5.4,3.8,5.4
		c2.2,0,4.2-5.1,4.8-9.3c0.3-1.3,0.6-4.8-0.6-8.6c-1.9-6.4-7-9.6-11.8-12.8c0,0-1.6-1.3-24.3-17.9c-9.6-7-7.7-6.4-19.5-15
		c-12.1-9-13.1-9-17.9-13.4c-7-6.7-7.4-9.3-12.8-12.5c-3.5-1.9-7.4-2.6-15.7-4.2c-9.9-1.9-11.5-1.3-12.5-0.6
		c-3.5,2.6-0.6,7.4-4.2,11.8c-3.8,4.5-10.5,4.8-12.8,4.8c-2.6,0-8,0.3-11.8-3.2C285.3,236.2,287.9,231.1,283.4,227.9z"/>
	<polygon fill="#27AAE1" stroke="#000000" stroke-width="3" stroke-miterlimit="10" points="284.7,260.2 264.2,281.3 284.7,311 
		326.2,311 346.7,281.9 325.6,260.2 	"/>
	<polygon fill="#FBB040" stroke="#000000" stroke-width="3" stroke-miterlimit="10" points="279.2,281.3 292,300.2 316.6,300.2 
		331.6,281.3 324.6,272 287.2,272 	"/>
	<path fill="#F7941E" stroke="#000000" stroke-width="3" stroke-miterlimit="10" d="M168,318.4c-1,3.5,3.5,9.9,11.2,17.9
		c16.9,16.9,19.5,14.7,26.5,23.7c7,8.6,8.3,15.3,17.9,22.1c4.2,2.9,7,3.8,9.6,3.2c5.1-1.6,7-9.3,8-14.1c1.3-5.4,2.6-11.8-1-16.6
		c-2.9-3.8-7.4-4.8-10.9-5.4c-7.4-1.6-9.3,1-12.8,0c-11.2-3.2-6.1-31.3-19.5-37.7c-5.4-2.6-11.5-2.2-14.4-1.3
		C179.8,311,169.6,313.6,168,318.4z"/>
	<path fill="#F7941E" stroke="#000000" stroke-width="3" stroke-miterlimit="10" d="M405.8,309.4c-13.1,1-8,32-21.4,38.4
		c-6.7,3.2-11.5-1.6-18.9,3.2c-7.4,4.8-8.6,13.7-8.6,14.7c-1,8,2.6,18.2,9.3,19.8c4.2,1.3,8.3-1.3,11.2-3.2
		c8.3-5.4,9.3-10.9,16.3-19.5c2.9-3.8,2.2-2.2,25.3-23.3c7.4-6.7,10.5-9.9,10.2-14.1c-0.3-6.1-6.4-12.5-8.3-13.7
		C418.3,310.4,411.6,308.8,405.8,309.4z"/>
	<path fill="#F7941E" stroke="#000000" stroke-width="3" stroke-miterlimit="10" d="M247.3,352.6c-1,3.8-2.2,8-3.2,11.8h35.2
		l3.8-12.8L247.3,352.6z"/>
	<polygon fill="#F7941E" stroke="#000000" stroke-width="3" stroke-miterlimit="10" points="322.4,352.3 322.4,366.6 354,364.4 
		350.5,351.3 	"/>
	<path fill="#00AEEF" stroke="#000000" stroke-width="3" stroke-miterlimit="10" d="M284,353.5c-0.3,1-4.2,7.7-1,14.1
		c3.8,8.3,15.7,8.6,17.9,8.6c2.6,0,15,0,19.8-9.6c0.3-0.3,3.8-7.7,0-14.7c-5.1-9.6-19.5-7.7-21.1-7.7
		C297.1,344.9,288.5,345.9,284,353.5z"/>
	<path fill="#FFFFFF" stroke="#000000" stroke-width="3" stroke-miterlimit="10" d="M292.6,355.8c-1.9,3.2-1.6,7.4,0.6,10.2
		c3.5,4.5,11.2,3.5,15,0c2.2-1.9,4.5-5.8,3.2-9.3c-1.3-3.2-5.8-4.2-7.7-4.2C302.2,352.3,295.8,351,292.6,355.8z"/>
	<path fill="#662D91" stroke="#000000" stroke-width="3" stroke-miterlimit="10" d="M244.1,366.6c0,0-3.2,9-6.1,19.5
		c-0.6,1.6-2.6,9.6-3.8,14.1c-8,27.8-6.1,55.6-9,58.5c-4.2,3.8-4.5,6.4-5.8,11.8c-1.3,6.4-1.3,9.9-1.6,15.7c0,2.9-1.6,5.1-1,7
		c0.6,2.9,5.1,4.2,8,4.8c1.6,0.6,9,1.6,14.7,1.3c6.1-0.3,13.4-3.2,13.4-3.2v-2.2c0,0,0.6-7.4,1.9-10.9c3.8-10.9,9-17.9,15.7-25.9
		c21.7-24.9,23-38.4,27.8-40c0,0,9,13.4,33.2,42.8c7.4,9,13.1,15,13.4,24.3c0,5.4-1.6,10.9,1.6,14.1c0.6,0.6,1.9,1.6,10.2,2.2
		c14.7,1,19.2-1.9,20.5-2.6c1.6-1,4.2-2.9,4.2-5.4s0.6-4.5,0-7.4c-1.3-7.4-0.6-9.3-4.5-16c-1.6-2.9-2.9-6.7-4.5-10.2
		c-3.5-7.4,0.3-28.4-4.2-48.6c-2.6-11.2-0.3-20.1-4.2-23.7c-6.1-6.1-10.5-19.2-10.5-19.2s-28.8-1.3-31.6,1c-8,5.8-6.7,9-21.7,9
		c-12.8,0-17.9-8.6-21.4-9.6C268,363.5,244.1,366.6,244.1,366.6z"/>
	<path fill="#F7941E" stroke="#000000" stroke-width="3" stroke-miterlimit="10" d="M212.7,504.7c0-5.1-0.3-9.6,2.2-10.9
		c1.3-0.6,2.6,0,6.1,1c3.8,1.3,8,2.6,11.8,2.6c6.4,0.3,18.5-1.3,19.5,0c3.5,4.2-3.8,16.3-9.3,24.9c-7.7,12.5-10.2,12.8-11.2,18.9
		c-1,5.8,0.6,6.7,0,19.5c-0.6,9.3-1.6,11.8-2.2,12.8c-1,2.2-2.6,4.8-10.9,11.2c-8.3,6.7-12.5,10.2-16.3,11.2
		c-1,0.3-13.4,4.2-22.1-2.6c-1.6-1-4.2-3.2-4.8-6.4c-0.3-1.3-1-5.4,6.1-14.1c7-9,11.5-9.3,20.5-19.5c3.5-3.8,5.1-5.8,6.4-8.6
		c2.9-6.4,0.6-9.3,1.6-21.4C210.8,512.4,212.7,514.3,212.7,504.7z"/>
	<path fill="#F7941E" stroke="#000000" stroke-width="3" stroke-miterlimit="10" d="M352.1,513.4c-2.9-5.4-7.7-14.7-4.8-17.3
		c1.3-1.3,3.5,0,10.2,1c7.4,1.3,15.3,2.2,20.5-1.6c3.5-2.6,3.5-5.4,4.8-5.4c4.2,0.3,5.8,22.7,6.1,27.5c1.3,19.5-1.3,20.8,1.6,27.5
		c1.9,4.8,3.8,5.1,20.5,22.1c12.1,12.1,14.7,16,14.1,19.8c-1,6.1-9,9-10.9,9.6c-9.3,3.5-17.9-0.3-19.5-1c-5.1-2.6-4.5-4.2-15-13.4
		c-7.7-6.7-8.3-6.1-9.6-8.6c-2.6-5.1-0.3-8.3-0.6-21.4c0-4.2,0-6.4-0.6-8.6C366.8,531.9,360.1,528.7,352.1,513.4z"/>
	<path fill="#FFDE17" stroke="#000000" stroke-width="3" stroke-miterlimit="10" d="M352.7,234.9c0,0,28.1,5.8,49.5,21.1
		c7,5.1,22.1,16,35.2,35.5c12.1,18.2,10.5,25.9,25.9,45.7c11.8,15.3,19.8,19.5,22.7,21.1c12.1,6.1,25.3,6.7,32,6.4
		c13.7-0.3,18.9-4.2,21.4-1c5.1,5.4-2.9,24.9-16.3,37.1c-6.7,6.1-16.6,10.9-36.1,20.5c-10.2,5.1-9.3,4.2-12.5,6.1
		c-18.2,11.2-16,23-29.7,32.3c-11.8,8-13.4,9.9-37.7,9.6c-14.4,0-23.7,8.6-26.5,5.8c-2.6-2.6,1,3.5-2.2-4.5
		c-1.9-5.8-4.2-9.3-6.7-14.7c-2.2-4.8,3.8-22.7-1.9-46.4c-2.6-10.5-3.2-22.4-3.2-22.4s5.8-1.6,11.8-4.5c8-3.8,10.2-10.9,15-18.9
		c12.5-20.5,24.6-16.6,36.1-37.1c3.8-7,7.4-13.1,6.1-20.5c-1.3-6.7-5.8-10.9-23.7-24.9c-12.5-9.6-17.9-14.7-25.9-19.5
		C369.4,252.5,351.5,236.2,352.7,234.9z"/>
	<g>
		<path fill="#27AAE1" stroke="#000000" stroke-width="3" stroke-miterlimit="10" d="M359.5,282.9c5.8-4.2,10.2,2.6,24.9,12.8
			c10.9,7.7,19.2,9.9,18.9,13.4c0,2.6-2.9,1.6-4.8,6.7c-3.5,9.9-3.2,23-11.8,30c-6.1,4.8-14.1-1.3-22.1,4.5c-7,5.1-8,13.7-10.2,13.4
			c-1.9-0.3-2.2-7-2.6-12.8c-0.6-8.6-3.8-14.7-4.8-19.8c-1.6-8.6-1-16-0.3-18.9c0.6-2.6,4.5-7,7.4-14.7
			C355.9,291.8,357.2,284.5,359.5,282.9z"/>
	</g>
	<path fill="#FFDE17" stroke="#000000" stroke-width="3" stroke-miterlimit="10" d="M341.9,476c-1.3,1.3-26.2-9-42.2-8
		c-24,1.3-40.9,13.1-42.8,10.2c-2.2-3.2,9-10.2,21.7-29.1c6.1-9,17.6-32.3,20.5-32.3c2.2,0,13.1,17.6,24,31
		C333.9,461.3,342.8,475,341.9,476z"/>
	<path fill="#FFDE17" stroke="#000000" stroke-width="3" stroke-miterlimit="10" d="M218.2,466.4c-6.4,6.7-14.1-9-29.7-14.7
		c-15.3-5.4-19.2,2.9-32.3-1.6c-18.9-6.4-14.1-24.6-36.1-37.7c-3.8-2.2-15-5.8-37.7-12.8c-18.9-6.1-21.4-6.1-22.7-9.3
		c-4.2-10.5,24.9-22.7,54-60.4c16.6-21.7,15-27.8,32-44.1c10.9-10.9,20.8-17.3,40.3-29.7c15.7-10.2,26.9-16,40.6-19.8
		c8-2.2,23.7-3.2,23.7-3.2s-7.4,7-22.7,18.2c-22.1,16.6-18.5,16.6-35.5,29.1c-19.2,13.7-28.4,16.9-29.7,26.5
		c-0.6,4.8,1.3,9,4.2,14.7c4.8,9.6,9.6,11.8,23.7,25.3c11.5,11.2,17.3,16.6,20.5,21.4c4.5,6.4,6.7,11.8,13.4,15
		c6.7,3.2,13.7-1,12.8,3.2c-1,6.1-8.3,20.1-9,47.9c0,6.7-0.6,13.7-2.2,21.7C225.2,460.9,222,462.2,218.2,466.4z"/>
	<g>
		<path fill="#FFDE17" stroke="#000000" stroke-width="3" stroke-miterlimit="10" d="M359.5,282.9c5.8-4.2,10.2,2.6,24.9,12.8
			c10.9,7.7,19.2,9.9,18.9,13.4c0,2.6-2.9,1.6-4.8,6.7c-3.5,9.9-3.2,23-11.8,30c-6.1,4.8-14.1-1.3-22.1,4.5c-7,5.1-8,13.7-10.2,13.4
			c-1.9-0.3-2.2-7-2.6-12.8c-0.6-8.6-3.8-14.7-4.8-19.8c-1.6-8.6-1-16-0.3-18.9c0.6-2.6,4.5-7,7.4-14.7
			C355.9,291.8,357.2,284.5,359.5,282.9z"/>
	</g>
	<g>
		<path fill="#FFDE17" stroke="#000000" stroke-width="3" stroke-miterlimit="10" d="M243.1,282.9c-5.8-4.2-10.2,2.2-25.3,12.5
			c-11.2,7.7-19.2,9.3-19.2,13.1c0,2.6,0,2.6,3.2,7.4c5.8,9,3.2,24.6,11.8,32c5.8,5.1,15-2.2,22.7,3.8c7,5.4,8,13.4,10.2,13.1
			c1.9-0.3,2.6-7,2.9-12.8c1-8.6,4.2-14.7,5.4-19.8c1.6-8.6,1.3-16,0.6-18.9c-0.6-2.6-4.5-7.4-7-14.7
			C246.6,291.8,245.7,284.5,243.1,282.9z"/>
	</g>
	<path fill="#F7941E" stroke="#000000" stroke-width="3" stroke-miterlimit="10" d="M285,227.3c0-0.3,0,1,2.6-0.3
		c2.2-1.3,1.9-1,1.9-1s0,3.2,1,6.1c1.3,3.8,6.4,5.4,8.3,5.8c1.9,0.3,9.3,0.3,11.8-2.9c1.9-2.6,1.9-8.6,1.9-8.6h6.7
		c0,0-1.6,9.3-4.2,12.5c-3.5,4.2-7.7,4.5-10.5,4.8c-2.9,0.3-9,1-14.1-3.2C285.3,236.9,283.4,229.2,285,227.3z"/>
	<path fill="none" stroke="#C49A6C" stroke-width="3" stroke-miterlimit="10" d="M380.6,140c-0.6-0.6,1.3-3.5,3.8-4.8
		c2.9-1.3,6.4-1,6.7,0C391.1,136.8,381.5,141.3,380.6,140z"/>
	<path fill="none" stroke="#C49A6C" stroke-width="3" stroke-miterlimit="10" d="M233.5,141.9c0.3-0.6-2.9-3.8-7-4.8
		c-3.2-1-7.4-1-7.7,0C218.8,138.4,232.9,143.2,233.5,141.9z"/>
	<g>
		<path fill="#FFFFFF" stroke="#000000" stroke-width="3" stroke-miterlimit="10" d="M254.9,145.1c2.9,1.6,5.8-2.9,13.7-2.9
			c7.4,0,10.5,4.2,12.8,2.2c2.9-2.2,0.3-10.2-2.9-19.8c-2.6-7.7-4.8-10.5-8-12.8c-1.3-1-3.8-2.6-6.7-1.9c-1.3,0.3-4.2,1.3-7.7,10.5
			C256.2,122.1,249.2,141.9,254.9,145.1z"/>
		<path fill="#603913" stroke="#000000" stroke-width="3" stroke-miterlimit="10" d="M259.4,140c-4.5-5.8-1.9-12.8-1.3-13.7
			c0.3-0.3,3.8-9,9.9-9c5.8,0.3,8.6,7.7,9.3,9c2.2,5.4-1.6,16.9-9,16.3C262.9,142.2,262.6,144.2,259.4,140z"/>
		<path fill="#726658" stroke="#000000" stroke-width="3" stroke-miterlimit="10" d="M268.4,142.2c-3.5-0.3-4.8-1-4.8-4.8
			c0-1.9,1-6.7,4.5-6.7c3.5,0,4.5,1.3,4.8,5.8C272.8,139.4,271.9,142.6,268.4,142.2z"/>
	</g>
	<path fill="none" stroke="#000000" stroke-width="3" stroke-miterlimit="10" d="M312.5,97.2c5.1-1.6,15,0,22.7,8.6"/>
	<path fill="none" stroke="#000000" stroke-width="3" stroke-miterlimit="10" d="M254.9,105.8c0-4.8,10.2-8.6,22.7-8.6"/>
	<line fill="none" stroke="#000000" stroke-width="3" stroke-miterlimit="10" x1="324.6" y1="104.5" x2="324.6" y2="104.5"/>
	<g>
		<path fill="none" stroke="#C49A6C" stroke-width="3" stroke-miterlimit="10" d="M294.6,161.1c-0.6-0.3-4.5-2.6-8.6-1.3
			c-3.8,1.3-7.4,5.1-6.7,9.3c0.6,3.2,3.2,5.4,5.8,6.1c3.2,1,6.7,0,9.3-2.6"/>
	</g>
	<path fill="none" stroke="#BE1E2D" stroke-width="3" stroke-miterlimit="10" d="M250.8,180.6c1.3-2.2,5.4-4.2,5.4-4.2
		s3.5,4.5,5.8,7.7c8,10.2,19.5,13.1,23.7,14.1c6.4,1.3,11.2,0.6,16,0.3c3.8-0.3,9.6-0.6,16-3.8c3.5-1.9,7-3.5,12.1-7.4
		c5.8-3.8,6.4-5.4,6.4-5.4c3.8-3.8,4.8-4.5,4.8-4.5s1.9,2.2,2.6,3.8"/>
	<g>
		<path fill="#FFFFFF" stroke="#000000" stroke-width="3" stroke-miterlimit="10" d="M309.6,145.1c2.9,1.6,5.8-2.9,13.7-2.9
			c7.4,0,10.5,4.2,12.8,2.2c2.9-2.2,0.3-10.2-2.9-19.8c-2.6-7.7-4.8-10.5-8-12.8c-1.3-1-3.8-2.6-6.7-1.9c-1.3,0.3-4.2,1.3-7.7,10.5
			C310.9,122.1,303.8,141.9,309.6,145.1z"/>
		<path fill="#603913" stroke="#000000" stroke-width="3" stroke-miterlimit="10" d="M314.1,140c-4.5-5.8-1.9-12.8-1.3-13.7
			c0.3-0.3,3.8-9,9.9-9c5.8,0.3,8.6,7.7,9.3,9c2.2,5.4-1.6,16.9-9,16.3C317.6,142.2,317.3,144.2,314.1,140z"/>
		<path fill="#726658" stroke="#000000" stroke-width="3" stroke-miterlimit="10" d="M323,142.2c-3.5-0.3-4.8-1-4.8-4.8
			c0-1.9,1-6.7,4.5-6.7c3.5,0,4.5,1.3,4.8,5.8C327.5,139.4,326.5,142.6,323,142.2z"/>
	</g>
</g>
</svg>
