<?xml version="1.0" encoding="utf-8"?>
<!-- Generator: Adobe Illustrator 18.1.0, SVG Export Plug-In . SVG Version: 6.00 Build 0)  -->
<!DOCTYPE svg PUBLIC "-//W3C//DTD SVG 1.1//EN" "http://www.w3.org/Graphics/SVG/1.1/DTD/svg11.dtd">
<svg version="1.1" id="Layer_1" xmlns="http://www.w3.org/2000/svg" xmlns:xlink="http://www.w3.org/1999/xlink" x="0px" y="0px"
	 viewBox="0 0 600 600" enable-background="new 0 0 600 600" xml:space="preserve">
<g>
	<path fill="#BE1E2D" stroke="#000000" stroke-width="3.3354" stroke-miterlimit="10" d="M380.7,467.9c6.1,6.7,14.4-9,29.8-14.4
		c15.7-5.5,19.2,3.2,32.4-1.3c18.9-6.4,14.4-24.7,36.6-37.5c3.8-2.2,15.1-5.8,37.9-12.5c18.9-5.8,21.5-6.1,22.8-9
		c4.5-10.6-24.7-23.1-53.6-61.3c-16.7-21.8-14.8-27.9-31.4-44.6c-10.9-10.9-20.9-17.3-40.4-30.2c-15.7-10.3-26.9-16-40.4-20.5
		c-7.7-2.6-23.7-3.5-23.7-3.5c-13.5,1.3-1.3,144.4,9.6,154.9c4.2,3.8,7.7,19.6,10.3,47.5c0.6,6.7,0.3,13.8,1.9,21.8
		C373.6,462.2,376.8,463.8,380.7,467.9z"/>
	<path stroke="#000000" stroke-width="3.3354" stroke-miterlimit="10" d="M507.4,191.1c0-2.9-26.6-2.6-43-21.5
		c-6.1-7.1-8.3-14.1-19.9-23.4c-5.1-4.2-10.6-7.7-9.9-9c1-2.2,18,6.4,21.2,2.6c2.9-3.8-10.9-16.4-25-36.9
		c-20.2-28.9-14.1-34-29.5-51.3c-18.3-20.2-40.4-28.2-52-32.7c0,0-26.6-11.2-46.5-9.3c-4.8,0.3-9.6,1.6-9.6,1.6s-3.2,0.6-6.4,1.9
		c-10.6,3.5-36.6,26.3-38.2,25c-1.3-1,10.6-13.8,20.5-21.8c9.9-8,23.4-10.6,22.8-11.9c-3.2-6.7-52.6,20.2-55.8,22.8
		c-3.5,2.9,11.2-27.6,10.3-27.3c-1.3,1-18.9,23.4-26.9,37.2c-7.4,13.2-7.1,12.2-15.7,24.7c-7.7,11.5-8.3,27.6-9.6,37.5
		c-1,8.7-1,16.7-0.6,20.5c0.3,6.1,1.3,10.6,1.6,12.5c0.6,4.2,2.2,11.9,5.8,20.5c2.2,5.1,4.8,9.6,6.1,11.9c0,0,0.6,1.3,1.6,2.6
		c8.7,13.8,18.6,22.5,18.6,22.5c3.8,3.5,14.4,14.4,29.5,18.6c10.3,2.9,31.1,6.7,31.4,7.1c0,0-0.6-11.9-0.3-6.4
		c0,0-52.3-7.4-58.7-32.7c-2.9-10.9,3.8-28.9-2.9-28.9c-3.8,0-6.1,3.2-12.2,0.6c-9.9-4.5-17-20.9-10.9-26.3
		c3.5-3.2,10.9-1.9,15.4,1.3c7.4,4.8,8,13.8,9.9,13.5c2.6-0.3-1.9-14.8,5.8-26.6c2.9-4.8,5.1-4.5,11.2-13.2c3.5-5.1,5.5-8,6.7-12.2
		c2.2-8.7-1.3-13.5,1.3-15.4c3.2-2.9,10.6,4.2,22.1,8c16.4,5.1,19.6-3.5,37.9,0.3c12.8,2.6,9.9,6.7,34.3,15.7
		c4.5,1.6,9.3,3.2,13.2,8c6.4,7.4,6.4,16.7,6.4,17.6c0,8.7-4.5,15.1-3.5,15.4c1.3,0.6,5.8-10.6,14.4-12.2c4.2-0.6,9.6,0.6,12.2,4.5
		c3.2,4.8,0.6,10.9,0,13.2c-3.5,9.6-10.3,8.7-14.4,17.6c-2.9,6.4,0,8-3.5,17.6c-2.6,7.1-5.8,11.5-8,14.4c-2.9,3.8-6.7,9-13.5,13.2
		c-4.8,2.9-10.3,4.2-21.2,6.4c0,0-4.8-1-19.6,1.6c0.6-3.5-1,9.3,0.6,12.5c2.2,4.8,15.1,1.3,28.9,1.3c9,0,6.1,1.6,49.7,12.5
		c0,0,17.6,4.5,34.6,5.8l0,0c15.7,1.3,23.4,1.6,24.1,0.3c0.6-2.6-21.2-15.7-19.9-12.5c0.3,0.6,71.5,0,76.7-4.8
		c6.1-5.8-46.2-31.8-38.5-31.4C468.9,195.3,507.1,201,507.4,191.1z"/>
	<path fill="#F9ED32" stroke="#000000" stroke-width="3.3354" stroke-miterlimit="10" d="M320.7,228.3c3.8-2.9,9-1.6,17.3,0.3
		c3.8,1,9.9,1.9,16.7,3.2c10.9,2.2,17.3,5.1,27.9,1c11.9-4.5,28.9-15.4,39.8-21.5c0.3,0,11.5-20.2,19.6-26.6
		c3.2-2.6,5.1,7.4,9.3,10.3c3.2,2.2,13.2,6.4,14.4,8c0,0-1.6,1-3.8,3.2c-3.5,3.5-11.2,15.1-15.1,18.6c-3.2,2.9-12.2,13.2-14.4,16
		c-3.8,4.8-12.8,8-18.6,10.6c-4.8,1.9-18,7.4-25.7,9.9c-4.5,1.6-22.1,20.5-23.7,22.1c-2.2,1.9-3.2,6.4-8.3,16
		c-3.2,6.1-4.2,6.4-6.1,11.2c-1.6,4.5-2.6,17.6-0.3,26.6c0,0,1.9,0.6,2.2,9.3l1.3,5.5c-1,1.9-7.4-0.3-17.3-0.3
		c-10.3,0.3-11.2,2.2-16.4,1c-5.5-1.6-5.8-3.8-12.2-6.4c-5.5-1.9-12.2-1.9-13.8-1.3c-5.5,1.3-6.1,2.9-12.5,4.8c-1.9,0.6-1,0-5.8,0.6
		c-8.3,1-13.5,1-18.3,0.3c-4.5-0.6-5.1-1.3-5.5-1.6c-2.2-2.9,0.6-7.7,2.9-17.3c0.6-2.9,2.9-10.3,0.6-18.9c-1-3.5-3.5-6.7-7.7-14.8
		c-5.1-9.9-4.5-9.9-6.1-15.1c-1-2.6-1-2.6-9-10.9c-7.7-8-7.4-7.1-11.5-11.9c-3.5-4.2-11.5-14.8-18.3-14.8
		c-3.2,0-37.9-10.3-42.7-15.4c-2.6-2.9-19.9-30.8-20.5-32.1c-3.8-6.4,1.9-11.2,3.2-12.5c5.8-4.5,7.1-3.8,11.2-8
		c4.5-4.8,6.4-10.6,8.3-5.1c1,2.6,14.8,33.7,19.2,35.9c8.3,4.2,46.5,18.6,51,20.2c9.9,3.5,14.8,5.8,24.1,3.5c3.8-1,7.4-2.6,15.7-4.2
		c9.9-1.9,11.5-1,12.5-0.3c3.5,2.6,0.6,7.4,4.2,11.9c3.5,4.8,10.6,4.8,12.8,5.1c2.6,0,8,0.3,11.9-3.2
		C319.1,236.3,316.5,231.5,320.7,228.3z"/>
	<path fill="#593B2B" stroke="#593B2B" stroke-width="3.3354" stroke-miterlimit="10" d="M290.2,232.8c0,0-0.6-16-1.6-25.7
		c0,0-8.3,4.2-29.8-4.2c-2.6-1-11.2-2.9-21.5-13.5c-4.5-4.8-5.5-11.2-6.4-15.7c-1.9-9,0.6-9.9,1-20.9c0,0,2.2-0.6-3.5-5.5
		c-0.6-0.6-4.5-0.6-5.5,0c-1.9,1-5.5,2.2-9.3,1c-5.5-2.2-7.4-8-8.7-11.5c-1-2.6-3.5-9.9,0-13.5c2.9-2.6,7.7-1.9,10.9-1
		c9.6,3.5,11.2,16,14.4,15.7c2.6-0.3-3.2-6.4,0.3-20.9c1-4.2,1.6-5.8,7.7-12.5c4.5-4.8,8.7-11.2,12.2-16.4
		c2.9-4.2,1.6-18.3,4.8-18.9c6.4-1.3,8,5.8,20.9,10.3c16,5.5,19.9-3.5,38.2,0.3c9.3,1.9,5.8,3.8,34.3,16.7c7.1,3.2,9.6,4.2,11.9,7.4
		c8.3,11.5,0.6,28.9,1.6,30.5c1,1.3,6.7-9.3,17-9.6c3.5,0,9,1.3,10.9,4.5c4.5,8.3-6.7,14.8-14.8,28.2c-6.1,10.3-6.7,23.7-11.2,32.1
		c-3.8,6.7-8.7,12.2-20.9,16.4c-14.4,4.8-27.9,5.8-34,2.6l0,0c-5.5,9-1,18-1,18c0,1,0,2.9,0,5.1c-1.3,1-3.5,2.6-6.7,3.2
		c-1,0.3-1.9,0.3-3.2,0.3C293.7,235.7,290.2,232.8,290.2,232.8z"/>
	<path fill="#F7941E" stroke="#000000" stroke-width="3.3354" stroke-miterlimit="10" d="M352.5,353.4c1,3.8,2.2,8,3.2,11.9
		l-35.3-0.3l-3.5-13.2L352.5,353.4z"/>
	<polygon fill="#F7941E" stroke="#000000" stroke-width="3.3354" stroke-miterlimit="10" points="277.4,352.1 277.1,366.9 
		245.3,364.3 249.2,351.2 	"/>
	<path fill="#2E3192" stroke="#000000" stroke-width="3.3354" stroke-miterlimit="10" d="M315.6,354.1c0.3,1,4.2,7.7,1,14.1
		c-4.2,8.3-15.7,8.3-18,8.3c-2.6,0-15.1-0.3-19.9-9.9c-0.3-0.3-3.5-8,0-14.8c5.5-9.6,19.6-7.7,21.2-7.4
		C302.7,345.1,311.4,346.4,315.6,354.1z"/>
	<path fill="#BE1E2D" stroke="#000000" stroke-width="3.3354" stroke-miterlimit="10" d="M306.9,356.3c1.9,3.2,1.6,7.7-0.6,10.3
		c-3.5,4.5-11.2,3.5-15.1,0c-2.2-1.9-4.5-5.8-3.2-9.3c1.3-3.2,5.8-3.8,7.7-4.2C297.3,352.5,304,351.5,306.9,356.3z"/>
	<path fill="#F9ED32" stroke="#000000" stroke-width="3.3354" stroke-miterlimit="10" d="M355.7,367.5c0,0,3.2,9.3,6.1,19.6
		c0.3,1.6,2.6,9.6,3.5,14.1c7.7,27.9,5.5,55.8,8.3,58.7c3.8,3.8,4.5,6.7,5.5,11.9c1.3,6.4,1.3,9.9,1.6,15.7c0,2.9,1.6,5.1,1,7.1
		c-0.6,2.9-5.1,3.8-8,4.8c-1.6,0.3-9,1.6-14.8,1c-6.1-0.3-13.5-3.2-13.5-3.2v-2.2c0,0-0.6-7.4-1.9-10.9c-3.8-10.9-8.7-18-15.7-26.3
		c-21.5-25.3-22.8-38.5-27.6-40.4c0,0-9,13.2-33.7,42.7c-7.4,9-13.5,14.8-13.8,24.4c-0.3,5.5,1.6,10.9-1.6,14.1
		c-0.6,0.6-1.9,1.6-10.3,1.9c-14.8,0.6-19.2-1.9-20.5-2.9c-1.6-1-4.2-2.9-4.2-5.5c0-2.6-0.3-4.5,0-7.4c1.3-7.4,1-9.3,4.8-16
		c1.6-2.9,2.9-6.7,4.5-10.3c3.5-7.4,0-28.6,4.5-48.8c2.6-11.2,0.6-20.2,4.2-23.4c6.4-6.1,10.6-19.2,10.6-19.2s28.9-1,31.8,1.3
		c8,5.8,6.7,9,21.8,9c12.8,0,18-8.3,21.5-9.6C331.6,364,355.7,367.5,355.7,367.5z"/>
	<path stroke="#000000" stroke-width="3.3354" stroke-miterlimit="10" d="M385.8,506.4c0-5.1,0.3-9.6-1.9-10.9c-1.3-0.6-2.6,0-6.1,1
		c-3.8,1.3-8,2.6-11.9,2.6c-6.4,0-18.6-1.3-19.6-0.3c-3.5,4.2,3.8,16.4,9,25c7.7,12.8,9.9,12.8,11.2,18.9c1,5.8-0.6,6.7-0.3,19.6
		c0.3,9.3,1.6,11.9,1.9,13.2c1,2.2,2.6,4.8,10.6,11.5c8.3,6.7,12.5,10.3,16,11.5c1,0.3,13.5,4.2,22.1-2.6c1.6-1,4.2-3.2,4.8-6.4
		c0.3-1.3,1-5.5-5.8-14.1c-7.1-9-11.5-9.6-20.5-19.6c-3.5-3.8-5.1-5.8-6.4-8.7c-2.9-6.4-0.6-9.3-1.3-21.8
		C387.7,514.1,385.8,516.1,385.8,506.4z"/>
	<path stroke="#000000" stroke-width="3.3354" stroke-miterlimit="10" d="M245.9,513.8c2.9-5.5,7.7-14.4,5.1-17.3
		c-1.3-1.3-3.5,0-10.3,1c-7.4,1-15.4,2.2-20.5-1.9c-3.2-2.6-3.2-5.5-4.8-5.5c-4.2,0.3-5.8,22.8-6.1,27.6c-1.6,19.6,1,20.9-1.9,27.6
		c-2.2,4.8-3.8,5.1-20.9,22.1c-12.2,12.2-15.1,15.7-14.1,19.9c1,6.1,9,9,10.6,9.9c9.3,3.8,18-0.3,19.6-1c5.1-2.2,4.5-4.2,15.4-13.5
		c8-6.7,8.7-6.1,9.9-8.7c2.6-5.1,0.3-8.3,0.6-21.5c0-4.2,0.3-6.4,0.6-8.7C230.9,532.4,237.6,529.2,245.9,513.8z"/>
	<path fill="#BE1E2D" stroke="#000000" stroke-width="3.3354" stroke-miterlimit="10" d="M210.3,247.5c0,0-2.9,3.2-11.5,8.7
		c-7.4,4.5-22.1,16-35.6,35.3c-12.5,18.3-10.9,26-26.3,45.9c-11.9,15.1-19.9,19.6-22.8,20.9c-12.2,5.8-25.3,6.4-32.1,6.1
		c-13.8-0.3-18.6-4.5-21.5-1.3c-5.1,5.5,2.6,25,16,37.5c6.7,6.4,16.4,11.2,35.9,20.9c10.3,5.1,9.3,4.2,12.5,6.1
		c18,11.2,15.7,23.1,29.5,32.7c11.9,8.3,13.2,9.9,37.9,9.9c14.4,0,22.8,10.3,25.3,6.7c0.6-0.6,1.3-1,3.5-5.1
		c2.9-5.5,4.2-9.3,6.7-14.8c2.2-4.8-3.8-22.8,2.2-46.5c2.6-10.6,6.1-21.5,9.9-30.2c6.1-13.2,1.6-3.2,6.1-13.2
		c3.5-7.4,8.7-32.1,10.6-37.5c4.5-13.2-13.2-39.5-12.8-46.2c0-1.9-13.8-14.8-23.7-25.3C216.1,254.3,211.6,249.2,210.3,247.5z"/>
	<path fill="#BE1E2D" stroke="#000000" stroke-width="3.3354" stroke-miterlimit="10" d="M256.5,476.3c1.3,1.3,26.3-8.7,42.3-7.7
		c24.1,1.6,40.7,13.5,43,10.6s-8.7-10.3-21.5-29.5c-6.1-9-17.6-32.4-20.2-32.7c-2.2,0-13.2,17.6-24.4,30.8
		C264.9,461.5,255.6,475.3,256.5,476.3z"/>
	<path fill="none" stroke="#3C2415" stroke-width="3.3354" stroke-miterlimit="10" d="M220.9,138.8c0.6-0.6-1.3-3.5-3.8-4.8
		c-2.9-1.6-6.4-1-6.7,0C210.3,135.6,220,140.1,220.9,138.8z"/>
	<path fill="none" stroke="#3C2415" stroke-width="3.3354" stroke-miterlimit="10" d="M368.5,142c-0.3-0.6,3.2-3.8,7.1-4.8
		c3.2-1,7.4-0.6,7.7,0C383.2,138.8,369.1,143.6,368.5,142z"/>
	<g>
		<path fill="#FFFFFF" stroke="#000000" stroke-width="3.3354" stroke-miterlimit="10" d="M346.7,145.2c-2.9,1.6-5.8-2.9-13.8-3.2
			c-7.4,0-10.6,3.8-12.8,2.2c-2.9-2.2-0.3-10.3,3.2-19.9c2.6-7.4,4.8-10.6,8-12.8c1.3-1,3.8-2.6,6.7-1.9c1.3,0.3,4.2,1.3,7.4,10.6
			C346,122.1,352.8,142,346.7,145.2z"/>
		<path fill="#3C2415" stroke="#000000" stroke-width="3.3354" stroke-miterlimit="10" d="M342.5,139.8c4.5-5.8,1.9-12.8,1.6-13.8
			c-0.3-0.3-3.5-9-9.9-9c-5.8,0-9,7.7-9.3,9c-2.2,5.5,1.3,17,9,16.7C338.7,142,339,144.3,342.5,139.8z"/>
		<path fill="#603913" stroke="#000000" stroke-width="3.3354" stroke-miterlimit="10" d="M333.5,142c3.5-0.3,4.8-0.6,4.8-4.8
			c0-1.9-1-6.7-4.5-6.7c-3.5,0-4.5,1.3-4.8,5.8C329,139.1,330,142.3,333.5,142z"/>
	</g>
	<path fill="none" stroke="#000000" stroke-width="3.3354" stroke-miterlimit="10" d="M289.6,96.5c-5.1-1.6-15.1,0-22.8,8.7"/>
	<path fill="none" stroke="#000000" stroke-width="3.3354" stroke-miterlimit="10" d="M347,105.8c0-4.8-10.3-8.7-22.8-9"/>
	<line fill="none" stroke="#000000" stroke-width="3.3354" stroke-miterlimit="10" x1="277.1" y1="103.8" x2="277.1" y2="103.8"/>
	<g>
		<path fill="none" stroke="#3C2415" stroke-width="3.3354" stroke-miterlimit="10" d="M309.5,160.9c-0.6-0.3-4.5-2.6-8.7-1
			c-3.8,1.3-7.4,5.5-6.4,9.6c0.6,3.2,3.5,5.1,6.1,6.1c3.2,1,6.7,0,9.3-2.6"/>
	</g>
	<path fill="none" stroke="#BE1E2D" stroke-width="3.3354" stroke-miterlimit="10" d="M350.5,180.8c-1.3-2.2-5.5-4.5-5.5-4.5
		s-3.5,4.5-5.8,7.7c-8,10.3-19.9,13.2-23.7,13.8c-6.4,1.3-11.2,0.6-16,0c-3.8-0.3-9.6-0.6-16-3.8c-3.5-1.9-7.1-3.8-12.2-7.4
		c-5.8-3.8-6.4-5.5-6.4-5.5c-3.8-3.8-4.8-4.5-4.8-4.5s-1.9,2.2-2.6,3.8"/>
	<g>
		<path fill="#FFFFFF" stroke="#000000" stroke-width="3.3354" stroke-miterlimit="10" d="M291.8,144.6c-2.9,1.6-5.8-2.9-13.8-3.2
			c-7.4,0-10.6,3.8-12.8,2.2c-2.9-2.2-0.3-10.3,3.2-19.9c2.6-7.4,4.8-10.6,8-12.8c1.3-1,3.8-2.6,6.7-1.9c1.3,0.3,4.2,1.3,7.4,10.6
			C291.2,121.5,297.9,141.4,291.8,144.6z"/>
		<path fill="#3C2415" stroke="#000000" stroke-width="3.3354" stroke-miterlimit="10" d="M287.7,139.4c4.5-5.8,1.9-12.8,1.6-13.8
			c-0.3-0.3-3.5-9-9.9-9c-5.8,0-9,7.7-9.3,9c-2.2,5.5,1.3,17,9,16.7C284.1,141.7,284.1,143.9,287.7,139.4z"/>
		<path fill="#603913" stroke="#000000" stroke-width="3.3354" stroke-miterlimit="10" d="M278.7,141.7c3.5-0.3,4.8-0.6,4.8-4.8
			c0-1.9-1-6.7-4.5-6.7s-4.5,1.3-4.8,5.8C274.2,138.8,275.1,141.7,278.7,141.7z"/>
	</g>
	<path fill="#FFF200" stroke="#000000" stroke-width="3.3354" stroke-miterlimit="10" d="M317.2,227.3c-2.2-0.3-1.3,0-3.8-0.3
		c-2.6-0.3-1.9-1-1.9-1s0,3.2-1,6.1c-1.3,3.8-6.7,5.5-8.3,5.5c-1.9,0.3-10.6-1.6-11.9-3.2c-2.2-2.9-1.6-8.7-1.6-8.7h-6.7
		c0,0,1.3,9.3,4.2,12.8c3.5,4.2,7.7,4.5,10.6,4.8s9.9,1,16-1.9C316.2,240.2,319.7,227.7,317.2,227.3z"/>
	<g>
		<path fill="#F7941E" stroke="#000000" stroke-width="3.3354" stroke-miterlimit="10" d="M137.2,192.1c-13.2-8-7.1-50.4-27.9-52.9
			c-11.5-1.6-13.8-4.5-13.8-5.1c0-0.3,13.8,0.6,13.5-3.8c-0.3-4.2-14.8-4.2-14.8-3.8c0,0.6,14.4-0.6,14.4-4.8
			c0-3.5-15.7-1.6-15.7-1.9c0,0,15.4-2.9,15.4-4.8c0-2.9-16-2.6-16-2.9s15.1,0.3,15.4-1.6c0.6-3.5-16-7.1-15.7-7.1
			s10.9,4.5,13.2,1.6c2.2-2.6-2.9-9.6-2.2-13.5c0.3-2.2,5.5-3.5,6.7-1c1.9,3.2,3.8,8,3.8,10.3c0,5.1,1.3,10.6,17,30.5
			c26.6,35,39.1,41.4,36.6,50C164.1,191.1,146.2,197.5,137.2,192.1z"/>
		<path fill="none" stroke="#000000" stroke-width="3.3354" stroke-miterlimit="10" d="M92,103.8c0,3.2,0,6.1,0,9
			c0,2.9,0.3,5.5,0.3,7.7c0.3,2.6,0.3,4.5,0.6,6.4c0.6,4.5,1.3,7.4,2.2,7.4"/>
		<g>
			<g>
				<path d="M92.6,106.4c0,1-0.3,3.2,0.3,4.5c0.6,1,1.3,0.3,2.2,0.3c1.6,0,2.9,0.6,4.5,0.6c1.6,0,3.2-0.3,4.8-1
					c0.6-0.3,0.6-1.3,0-1.6c-1.9-0.6-3.8-1.6-5.5-2.2c-1.3-0.6-3.2-1.6-4.5-1.3c-0.3,0-0.6,0.3-0.6,0.6c-0.3,1.3-0.6,2.9,1,3.2
					c0.6,0.3,1.3,0,1.9,0.3c0.6,0,1.3,0.3,1.6,0.6c1,0.3,1.9,0.6,3.2,0.6c1,0,1-1.3,0.3-1.6c-1.9-1-4.2-1.9-6.4-2.2
					c-1,0-1.6,1.3-0.3,1.6c2.2,0.3,4.2,1.3,6.4,2.2c0-0.6,0-1,0.3-1.6c-1.6,0.3-2.9-0.6-4.5-1.3c-0.3,0-1-0.3-1.3-0.3
					c-0.6-0.3-0.6,0-0.3,0.3c0-0.6,0-1,0-1.6c-0.3,0.3-0.6,0.3-0.6,0.6c1.6,0,3.8,1.3,5.1,1.6c1.6,0.6,2.9,1.3,4.5,1.9
					c0-0.6,0-1,0-1.6c-2.6,1-5.1,1-7.7,0.3c-0.6-0.3-1.3,0-1.9-0.3c-1,0-0.3,0.3-0.3-0.3c0-1,0-1.9,0-2.6
					C94.2,105.4,92.6,105.4,92.6,106.4L92.6,106.4z"/>
			</g>
		</g>
		<g>
			<g>
				<path d="M92.9,114.7c0,1.3,0.3,2.9,0.3,4.2c0,0.6,1,1.3,1.6,0.3c0.6-1.3,3.8-1.3,5.1-1.6c1.6-0.3,3.2-1,4.8-1.3
					c0.6-0.3,0.6-1,0.3-1.3c-1.3-1.6-3.5-1.3-5.5-1.3c-1.3,0-4.8-0.6-5.5,1c-0.3,1,0.3,2.2,1.6,2.6c1.3,0,2.6-0.3,3.8-0.3
					c1.3,0,2.6,0,3.8-0.3c1-0.3,0.6-1.9-0.3-1.6c-1.6,0.3-2.9,0.3-4.5,0.3c-0.6,0-1,0-1.6,0c-0.3,0-1.6,0-1.3,0.3
					c2.2,0.3,6.4-1.3,8.3,0.6c0-0.3,0.3-1,0.3-1.3c-2.2,0.6-4.8,1.3-7.1,1.6c-1.6,0.3-2.9,0.3-3.5,1.9c0.6,0,1,0.3,1.6,0.3
					c0-1.3-0.3-2.9-0.3-4.2C94.5,113.5,92.9,113.5,92.9,114.7L92.9,114.7z"/>
			</g>
		</g>
		<g>
			<g>
				<path d="M97.7,116c0.6,0,1.9-0.3,2.6,0c0.3,0,0.6,0.6,1,0.6c0.6,0.3,1.3,0,1.9,0s1.6,0,2.6-0.3c0.3,0,0.6-0.3,0.6-0.6l0,0
					c0-0.3-0.3-0.6-0.3-0.6l0,0c-1-0.6-1.6,1-1,1.3l0,0c0-0.3-0.3-0.3-0.3-0.6l0,0c0.3-0.3,0.3-0.6,0.6-0.6c-0.6,0.3-1.6,0.3-2.2,0
					c-0.6,0-1,0-1.6-0.3l-0.3-0.3c-1-0.3-2.2,0-3.5,0C96.8,114.4,96.8,116,97.7,116L97.7,116z"/>
			</g>
		</g>
		<g>
			<g>
				<path d="M94.2,117.9c0.3,0,0.6,0,1,0c1,0,1-1.6,0-1.6c-0.3,0-0.6,0-1,0C93.2,116.3,93.2,117.9,94.2,117.9L94.2,117.9z"/>
			</g>
		</g>
		<g>
			<g>
				<path d="M93.9,122.8c4.5,0,8.7,0,13.2,0c0-0.6,0-1-0.3-1.6c-2.6,0.6-5.5,1.6-8,2.2c-0.6,0.3-1.3,0.3-1.9,0.6c-0.3,0-0.6,0-1,0.3
					c-0.3,0.3-0.3,0.3-0.3-0.3c-1.3-1,1.9-0.3,2.6-0.3c1.3,0,2.6,0,3.8-0.3c0,0,1.9,0,1.9-0.3c0-0.3-1.6-0.3-1.9-0.3
					c-1,0-1.6,0.3-2.6,0.6c-0.3,0.3-1,0.6-1.3,0.6c-0.6,0.3-1,0.3-1.6-0.3c-1,0-1.3-0.3-0.6-0.6c0,0.6,0,1,0.3,1.6
					c0.3,0,0.3-0.3,0.6-0.3c1,0,1-1.6,0-1.6c-0.6,0-1,0-1.3,0.3s-0.6,1.3,0.3,1.6c1.6,0.3,2.6-1.3,1-2.2c-1.3-1-2.2,0-2.6,1.3
					c-0.3,2.6,2.2,2.9,4.2,2.2c1-0.3,1.6-0.6,2.2-1c1-0.3,1.9-0.3,2.9-0.3c0.6,0,1.6-0.3,2.2-1c1-1.9-1.6-1.9-2.9-1.9
					c-2.2,0-4.5,0.3-7.1,0.3C95.2,121.8,94.2,121.8,93.9,122.8c-0.6,0.6,0.3,2.9,1.3,3.2c1.3,0.3,4.2-1,5.5-1.3
					c2.2-0.6,4.5-1.3,6.7-1.9c1-0.3,0.6-1.6-0.3-1.6c-4.5,0-8.7,0-13.2,0C92.6,121.2,92.6,122.8,93.9,122.8L93.9,122.8z"/>
			</g>
		</g>
		<g>
			<g>
				<path d="M94.5,129.5c2.6,0,5.1,0,7.4,0c1.3,0,2.6,0.3,3.8,0.6c0.6,0.3,0.6,0,0-0.3c-0.6,0.3-1.3,0.6-2.2,1c-1,0.3-2.2,0.6-3.2,1
					c-0.3,0-5.1,1-4.2-1c0.3-0.6,3.8-0.6,4.5-0.6c0.6,0,4.5,0,1.6,0.6c-1,0.3-1.6,0.3-2.6,0.3c-1.3,0.3-3.5,0.6-1,0
					c1-0.3,1.9-0.3,2.9-0.6c0.6,0.3,1.3,0,1.9-0.3c0,0,0,0-0.3,0c-1.3,0-2.2,0.3-3.5,0.6c-0.6,0-1.3,0.3-1.6,0.6
					c0,0.6,0.6,0.6,1,0.3c1,0,2.2-0.6,3.2-0.6s0.6-1.6-0.3-1.6c-1.6,0.3-7.1,0.6-4.8,3.5c0.3,0.3,0.6,0.3,0.6,0.3
					c2.2-0.6,4.5-1,6.7-1.6c0.6-0.3,1.3-0.3,1.3-1c0.3-2.2-3.2-1.9-4.5-1.6c-1.3,0.3-6.4,0-5.8,2.6c0.6,2.6,5.8,1,7.1,0.6
					c1.3-0.3,4.2-1.3,2.6-3.2c-0.6-1-2.2-1-3.5-1c-1.9,0-3.5,0.6-5.1,0.6c-2.2,0-2.2,2.9-1,4.2c1.6,1.6,6.1,0,8-0.3
					c1-0.3,6.1-1.6,3.8-3.5c-1-1-3.5-1-4.8-1c-2.6-0.3-5.5-0.3-8,0C93.2,127.9,93.2,129.5,94.5,129.5L94.5,129.5z"/>
			</g>
		</g>
	</g>
	<g>
		<path fill="#F7941E" stroke="#000000" stroke-width="3.3354" stroke-miterlimit="10" d="M465.1,204.9c12.8-8.3,5.1-50.4,26-53.9
			c11.5-1.9,13.5-4.8,13.5-5.5c0-0.3-13.8,1-13.8-3.2c0-4.2,14.4-4.8,14.4-4.2s-14.4,0-14.4-4.2c0-3.5,15.7-2.2,15.7-2.2
			s-15.4-2.2-15.4-4.2c0-2.9,15.7-3.2,15.7-3.5c0-0.3-15.1,1-15.4-1c-0.6-3.5,16-7.7,15.4-7.7c-0.3,0-10.6,5.1-13.2,2.2
			c-2.2-2.6,2.6-9.6,1.6-13.8c-0.6-2.2-5.5-3.2-7.1-1c-1.9,3.2-3.5,8.3-3.5,10.6c0,5.1-1,10.6-15.7,31.1
			c-25.3,35.9-37.5,42.7-34.6,51.3C438.1,204.9,456.1,211,465.1,204.9z"/>
		<path fill="none" stroke="#000000" stroke-width="3.3354" stroke-miterlimit="10" d="M507.1,115.4c0,3.2,0.3,3.8,0.3,6.7
			c0,2.9,0,9,0,11.2c0,2.6-0.3,1.6-0.6,3.5c-0.3,4.8-1.3,7.7-1.9,7.7"/>
		<g>
			<g>
				<path d="M505.2,117.9c0,0.6,0,1.3,0,1.6c-0.3,1,0,1,0.6,1c0.6,0,0.6,0,0,0c-1-0.3-2.2,0-3.2,0.3c-3.2,1-5.8,0.6-9,0
					c0,1,0,1.9,0,3.2c1.9-0.6,3.8-1.3,5.8-2.2c1.6-0.6,4.2-1.9,5.8-1.9c-0.6-0.3-1-0.6-1.6-1.3c0.3,0.3,0.3,1.3,0.3,1.6
					c0.3-0.3,0.6-1,0.6-1.3c-0.3,0-2.2,0.3-2.9,0.6c-1.6,0.6-2.9,1.3-4.5,1c0,1,0,2.2,0,3.2c0.3,0,1.3,1.3,1.9,1.6
					c0.6,0.3,1.3,0.6,2.2,0.3c1.9-0.6,2.2-3.8,3.8-4.2c1.9-0.6,1.3-3.8-1-3.2c-1.6,0.3-3.2,2.2-3.8,3.8c0,0.3-0.3,0.3-0.3,0.6
					c0.6,0.3,0.6,0.3,0.3,0c-0.3-0.3-0.6-0.6-1-1c-0.6-0.6-1.3-1-2.2-1c-1.9,0-1.9,3.2,0,3.2c1.6,0,2.9-0.3,4.2-1
					c1.3-0.6,2.6-0.6,4.2-1c1.9-0.6,1.9-2.6,1.3-4.2c-0.3-0.6-0.6-1.3-1.6-1.3c-1.9,0-3.8,1-5.8,1.6c-2.2,1-4.5,1.6-6.7,2.6
					c-1.3,0.3-1.6,2.9,0,3.2c1.9,0.3,3.8,0.6,5.8,0.6c2.2,0,4.5-1,6.7-1c3.2,0,3.2-2.6,2.9-5.5C508,116,504.8,116,505.2,117.9
					L505.2,117.9z"/>
			</g>
		</g>
		<g>
			<g>
				<path d="M505.2,125c0,1.6,0,2.9-0.3,4.5c1-0.3,1.9-0.6,2.9-1c-1-1.6-2.6-2.2-4.5-2.2c-3.2-0.3-6.1-1-9-1.6
					c0.3,1,0.3,1.9,0.6,2.6c1.3-1.3,3.5-1,4.8-1c1,0,4.2-0.3,4.8,0c-0.3-0.3-0.6-1-0.6-1.3c0,1.6,0,3.2,0,4.8c1,0,2.2-0.3,3.2-0.3
					c0-0.6,0-2.6-0.3-3.5C506.4,125.3,505.8,125,505.2,125c-1.3,0.3-2.6,0-4.2,0s-3.2,0.3-4.8,0c-1.9-0.3-2.9,2.6-1,3.2
					c1.6,0.3,3.2,0.3,5.1,0.3c1.6,0,3.5,0,5.1,0c-0.3-0.3-1-0.6-1.3-0.6c0,0,0,1.9,0,2.9c0.3,1.9,2.9,1.3,3.2-0.3
					c0.3-1.9,1-5.8-1.3-6.4c-1-0.3-2.2,0-3.2,0c-1.6,0-2.9,0-4.5,0c-1.9,0-3.8,0.3-5.1,1.9c-0.6,1-0.6,2.2,0.6,2.6
					c1.9,0.3,3.8,1,5.8,1.3c1.3,0.3,5.1,0,5.8,1.3c1,1.3,2.9,0.6,2.9-1s0-2.9,0.3-4.5C508.4,122.8,505.2,122.8,505.2,125L505.2,125z
					"/>
			</g>
		</g>
		<g>
			<g>
				<path d="M502.6,124.7c-1,0-2.6,0-3.5,0.3l-0.3,0.3c-0.3,0.3-1,0.3-1.3,0.3c-0.6,0-1.6,0-2.2,0c0.3,0.3,0.3,0.3,0.6,0.6l0,0
					c0,0.3-0.3,0.6-0.3,1l0,0c1-0.6,0-1.9-1-1.3l0,0c-0.3,0.3-0.3,0.6-0.3,1l0,0c0,0.3,0.3,0.6,0.6,0.6c1.3,0.3,3.2,0.3,4.2,0
					c0.6,0,0.6-0.6,1.3-0.6c0.6-0.3,1.9,0,2.9,0C503.5,126.3,503.5,124.7,502.6,124.7L502.6,124.7z"/>
			</g>
		</g>
		<g>
			<g>
				<path d="M506.4,126.6c-0.3,0-0.6,0-1,0c-1,0-1,1.6,0,1.6c0.3,0,0.6,0,1,0C507.4,127.9,507.4,126.3,506.4,126.6L506.4,126.6z"/>
			</g>
		</g>
		<g>
			<g>
				<path d="M506.8,130.5c-4.8,0.3-9.6,0.3-14.4,0.6c-1.6,0-2.2,2.9-0.3,3.2c2.6,0.6,4.8,1,7.4,1.6c1.9,0.3,4.2,1.3,6.1,1.3
					c0.6,0,1-0.3,1.3-0.6c0.6-1.3,1.3-3.8-0.3-4.8c-1-0.6-2.9,0-3.8,0c-1.9,0-3.8,0-6.1,0c-1.6,0-4.2-0.3-4.2,2.2
					c0.3,2.9,3.8,2.2,5.8,2.6c2.2,0.3,5.1,2.2,7.4,0.6c1.3-1,1.6-3.5,0.3-4.5c-3.2-2.9-6.4,4.8-1.3,3.8c1.6-0.3,1.6-2.2,0.3-2.9
					c-0.6-0.3-1-0.6-1.9-0.6c-1.9,0-1.9,3.2,0,3.2h0.3c0-1,0.3-1.9,0.3-2.9c0.3,0.3,0.6,0.3,1.3,0.6c0,0.6-0.3,1-0.3,1.6
					c0,0.3-4.5-1.6-5.5-1.9c-0.6,0-1.3-0.3-1.9-0.3c-0.3,0-0.6,0-1,0c-1.6,1.3-1.9,1.9-0.6,1.9c1,0.6,3.5,0.3,4.8,0.3
					c1,0,4.2-0.3,4.2-0.3c-0.3-0.3-0.6-1-0.6-1.3c0,0.6,0,1-0.3,1.6c0.3-0.3,1-0.6,1.3-0.6c-2.2,0-4.5-1-6.4-1.3
					c-2.2-0.3-4.2-1-6.4-1.3c0,1-0.3,2.2-0.3,3.2c4.8-0.3,9.6-0.3,14.4-0.6C509,133.7,509,130.5,506.8,130.5L506.8,130.5z"/>
			</g>
		</g>
		<g>
			<g>
				<path d="M506.1,136.9c-4.2,0-9.9-0.3-13.5,1.9c-2.6,1.6-1,3.8,1,5.1c2.9,1.6,7.1,3.2,10.6,2.6c2.9-0.6,3.2-4.5,2.2-7.1
					c-0.3-0.6-0.6-1-1-1c-2.2-0.3-3.5,1.9-3.8,3.8c0,0.3-0.3,0.6-0.3,1c1,0,1,0,0.3-0.3c0-0.6-1-1.3-1.3-1.6c-0.6-1-1.3-1.9-2.2-2.6
					c-1.9-1.3-4.5,0-4.5,2.2c0.3,3.5,5.8,3.8,8.3,4.5c2.6,0.3,4.8-1.3,3.8-4.2c-0.3-1-0.6-2.2-1.3-2.9c-1-1-1.3-0.6-2.6-0.6
					c-1.9,0.3-3.5,0-5.5,0.3c-1.3,0.3-2.9,1-2.9,2.6c0,1.3,0.3,1.9,1.3,2.6c1,0.6,2.2,0.3,3.2,0.6c1.6,0.3,2.9,1,4.2,1.6
					c1,0.3,1.6,0.3,2.2-0.6c2.6-3.5-3.8-5.1-6.1-5.5c-1.9-0.3-2.9,2.9-1,3.2c0.3,0,3.8,1.3,4.2,1c0.6-0.3,1.6-0.3,2.2-0.6
					c-1.3-0.6-2.6-1.3-4.2-1.6c-1.3-0.3-2.9-0.3-4.2-1c0.3,0.3,0.6,0.6,1,1c-0.6,0.3-0.6,0.3,0.3,0.3c0.3,0,1,0,1.3,0
					c1,0,1.6,0,2.2,0c0.6,0,1.3-0.3,1.9-0.6c1-0.3,1,0-0.3-0.3c-0.3-0.3-0.6-0.6-1-1c0.3,0.6,1,1.6,1,2.2c0.3,0.6,0.3,0.6-0.6,0
					c-0.6-0.3-1.6-0.3-2.6-0.6c-0.3,0-3.2-0.6-3.2-0.3c0,0,0.6,1,1,1c0.6,1,1.3,1.9,1.9,2.6c1,1.3,2.6,2.2,3.8,1
					c0.6-0.6,1-1.3,1.3-1.9c0.3-0.3,0.3-1,0.6-1.3c0-0.3,0.3-0.6,0.3-0.6c0.3-0.6,0.3-0.6-0.6-0.3c-0.3-0.3-0.6-0.6-1-1
					c0.3,0.6,0.3,2.9,0,2.9c0,0-1.9-0.3-2.2-0.3c-2.2-0.3-3.8-1.3-5.8-1.9c-0.6-0.6-1-0.6-0.6,0c0,0.6,0.3,0.6,1,0
					c1,0,1.9-0.6,2.9-0.6c2.6-0.3,5.1-0.3,7.7-0.3C508.4,140.1,508.4,136.9,506.1,136.9L506.1,136.9z"/>
			</g>
		</g>
	</g>
	<g>
		
			<ellipse fill="#39B54A" stroke="#39B54A" stroke-width="3.3354" stroke-miterlimit="10" cx="301.8" cy="297" rx="37.9" ry="36.6"/>
		<polygon fill="#39B54A" stroke="#000000" stroke-width="3.3354" stroke-miterlimit="10" points="322.9,324.9 301.8,314.3 
			280.9,325.2 284.8,302.4 267.4,286.4 290.9,283.2 301.4,262.3 312,282.8 335.8,286 318.8,302.1 		"/>
	</g>
</g>
</svg>
