<?xml version="1.0" encoding="utf-8"?>
<!-- Generator: Adobe Illustrator 18.1.0, SVG Export Plug-In . SVG Version: 6.00 Build 0)  -->
<!DOCTYPE svg PUBLIC "-//W3C//DTD SVG 1.1//EN" "http://www.w3.org/Graphics/SVG/1.1/DTD/svg11.dtd">
<svg version="1.1" id="Layer_1" xmlns="http://www.w3.org/2000/svg" xmlns:xlink="http://www.w3.org/1999/xlink" x="0px" y="0px"
	 viewBox="0 0 600 600" enable-background="new 0 0 600 600" xml:space="preserve">
<g>
	<path stroke="#000000" stroke-width="3.3403" stroke-miterlimit="10" d="M93.5,188.9c0-2.9,26.7-2.3,43.4-21.2
		c6.1-7.1,8.7-14.2,19.9-23.5c5.1-4.2,10.6-7.7,10-9c-1-2.3-18.3,6.1-21.2,2.3c-2.9-3.9,10.9-16.4,25.7-36.7
		c20.6-28.6,14.5-34.1,29.9-51.1c18.3-19.9,40.5-28,52.1-32.2c0,0,26.7-10.9,46.6-9c4.8,0.6,9.6,1.6,9.6,1.6s3.2,0.6,6.4,1.9
		c10.6,3.5,36.3,26.7,38.3,25.4c1-1-10.9-13.8-20.9-21.9c-10-8-23.2-10.9-22.8-11.9c3.2-6.8,52.7,20.6,56,23.5
		c3.5,2.9-10.9-27.7-10.3-27.3c1.3,0.6,18.7,23.5,26.7,37.3c7.4,13.2,7.1,12.2,15.4,25.1c7.7,11.6,8,27.7,9,37.6
		c1,8.7,0.6,16.7,0.3,20.6c-0.3,6.1-1.3,10.6-1.6,12.5c-0.6,4.2-2.3,11.9-6.1,20.6c-2.3,5.1-4.8,9.6-6.1,11.9c0,0-0.6,1.3-1.6,2.6
		c-8.7,13.5-19,22.5-19,22.5c-4.2,3.5-14.8,14.5-29.9,18.3c-10.3,2.6-31.2,6.8-31.5,6.8c0,0,0.6-11.9,0.3-6.4
		c0,0,52.4-7.1,59.2-32.5c2.9-10.9-3.5-28.9,3.2-28.9c3.9,0,6.1,3.5,12.2,0.6c10-4.5,17-20.6,11.3-26.1c-3.2-3.2-10.9-1.9-15.4,1
		c-7.4,4.8-8,13.5-10,13.2c-2.6-0.3,1.9-14.8-5.5-26.7c-2.9-4.8-5.1-4.8-11.3-13.2c-3.5-5.1-5.5-8-6.8-12.2
		c-2.3-8.7,1.3-13.5-1-15.4c-3.2-2.9-10.6,4.2-22.2,7.7c-16.4,5.1-19.6-3.5-38,0c-12.9,2.6-10,6.8-34.4,15.4
		c-4.5,1.6-9.3,3.2-13.2,7.7c-6.4,7.4-6.8,16.7-6.8,17.7c0,8.7,4.2,15.1,3.2,15.4c-1.3,0.6-5.5-10.6-14.5-12.2
		c-4.2-0.6-9.6,0.6-12.2,4.5c-3.2,4.8-1,10.9,0,13.2c3.5,9.6,10.3,8.7,14.5,17.7c2.9,6.4,0,8,3.2,17.7c2.3,7.1,5.8,11.9,7.7,14.5
		c2.9,3.9,6.8,9.3,13.2,13.2c4.8,3.2,10.3,4.2,21.2,6.8c0,0,4.8-0.6,19.6,1.9c-0.6-3.5,0.6,9.3-1,12.5c-2.3,4.8-15.1,1.3-28.9,1
		c-9,0-6.1,1.3-50.2,12.2c0,0-17.7,4.5-34.7,5.5l0,0c-15.8,1-23.5,1.6-24.1,0c-0.6-2.6,21.5-15.4,19.9-12.2
		c-0.3,0.6-71.7-0.6-76.9-5.5c-5.8-5.8,46.6-31.2,38.9-31.2C131.8,193.4,93.5,198.9,93.5,188.9z"/>
	<path fill="#583B2B" stroke="#583B2B" stroke-width="3.3403" stroke-miterlimit="10" d="M310.6,232.3c0,0,1-16.1,1.9-25.7
		c0,0,8.4,4.2,29.9-4.2c2.6-1,11.3-2.6,21.5-13.2c4.8-4.8,5.5-11.3,6.4-15.8c1.9-9-0.6-10-1-20.9c0,0-2.3-0.6,3.5-5.5
		c0.6-0.6,4.5-0.6,5.5,0c1.9,1,5.5,2.3,9.3,1c5.8-1.6,7.7-7.7,9-10.9c1-2.6,3.5-10,0-13.5c-2.6-2.6-7.7-1.9-10.9-1
		c-10,3.5-11.3,16.1-14.5,15.4c-2.6-0.3,3.2-6.4-0.3-20.9c-1-4.2-1.6-5.8-7.7-12.5c-4.5-4.8-8.7-11.3-11.9-16.7
		c-2.9-4.2-1.3-18.3-4.8-19.3c-6.4-1.3-8,5.8-20.9,10c-16.1,5.5-19.9-3.9-38.3,0c-9.3,1.9-5.8,3.9-34.7,16.4
		c-7.1,3.2-9.6,4.2-11.9,7.4c-8.4,11.6-1,28.9-1.9,30.6c-1,1.3-6.4-9.6-17-9.6c-3.5,0-9,1.3-10.9,4.5c-4.8,8.4,6.8,14.8,14.5,28.3
		c6.1,10.3,6.8,23.8,11.3,32.2c3.5,7.1,8.4,12.2,20.6,16.7c14.5,5.1,28,6.1,33.8,2.9l0,0c5.5,9,1,18,1,18c0,1,0,2.9,0,5.1
		c1.3,1,3.5,2.6,6.8,3.2c1,0.3,1.9,0.3,3.2,0.3C307.1,235.2,310.6,232.3,310.6,232.3z"/>
	<path fill="#F9ED32" stroke="#000000" stroke-width="3.3403" stroke-miterlimit="10" d="M283.3,227.5c-3.9-2.9-9-1.6-17.4,0
		c-3.9,1-9.3,1.9-15.8,5.5c-9.6,5.1-14.5,10.9-23.5,18c-12.5,9.6-21.9,20.9-34.1,30.2c-0.3,0-10.3,5.5-21.5,14.8
		c-3.2,2.6-6.4,5.5-7.7,10.3c-1.3,5.1,0.6,11.6,3.9,12.5c1.9,0.6,3.2-1.9,9.3-5.5c4.2-2.6,7.7-4.5,11.9-4.2c4.5,0.3,4.8,2.6,8,2.6
		c6.1,0.3,13.8-10.6,18.7-13.8c4.2-2.9,10.3-4.2,17-10.6c3.2-3.2,4.5-5.8,6.4-5.5c3.2,0.3,2.6,7.4,8,16.4c3.5,5.8,4.2,6.4,5.8,11.6
		c1.6,4.5,2.6,17.7,0,26.7c0,0-1.9,0.6-2.3,9l-1.3,5.5c1,1.9,7.4-0.3,17.4,0c10,0.3,11.3,2.3,16.4,1c5.5-1.3,5.8-3.9,12.2-6.1
		c5.5-1.9,12.2-1.6,13.8-1.3c5.5,1.3,6.1,2.9,12.5,5.1c1.9,0.6,1,0,5.8,0.6c8.4,1.3,13.5,1.3,18.3,0.6c4.5-0.6,5.1-1.3,5.5-1.6
		c2.3-2.9-2.3-7.7-4.2-17.4c-0.6-2.9-2.6-11.3,0-19.9c1.6-5.5,3.2-5.1,7.1-13.5c5.1-11.3,3.9-14.8,7.1-16.4
		c3.9-1.6,10.6,3.5,23.8,14.2c10.9,8.4,13.8,11.9,19.9,12.5c3.5,0.3,6.1-0.3,10.9,1c2.3,0.6,7.1,2.3,10.3,6.4
		c2.6,3.2,2.6,5.5,3.9,5.5c2.3,0,4.2-5.1,4.8-9.3c0.3-1.3,0.6-4.8-0.6-8.7c-1.9-6.4-7.1-9.6-11.9-12.9c0,0-1.6-1.3-24.4-18
		c-9.6-7.1-7.7-6.4-19.6-15.1c-12.2-9-13.2-9-18-13.5c-7.1-6.8-7.4-9.3-12.9-12.5c-3.5-1.9-7.4-2.6-15.8-4.2
		c-10-1.9-11.6-1.3-12.5-0.6c-3.5,2.6-0.6,7.4-4.2,11.9c-3.9,4.5-10.6,4.8-12.9,4.8c-2.6,0-8,0.3-11.9-3.2
		C285.2,235.8,287.8,230.7,283.3,227.5z"/>
	<polygon fill="#2E3192" stroke="#000000" stroke-width="3.3403" stroke-miterlimit="10" points="284.6,260 264,281.2 284.6,311.1 
		326.4,311.1 347,281.8 325.7,260 	"/>
	<polygon fill="#FFFFFF" stroke="#000000" stroke-width="3.3403" stroke-miterlimit="10" points="279.1,281.2 292,300.2 
		316.7,300.2 331.8,281.2 324.8,271.9 287.1,271.9 	"/>
	<path fill="#F7941E" stroke="#000000" stroke-width="3.3403" stroke-miterlimit="10" d="M167.2,318.5c-1,3.5,3.5,10,11.3,18
		c17,17,19.6,14.8,26.7,23.8c7.1,8.7,8.4,15.4,18,22.2c4.2,2.9,7.1,3.9,9.6,3.2c5.1-1.6,7.1-9.3,8-14.2c1.3-5.5,2.6-11.9-1-16.7
		c-2.9-3.9-7.4-4.8-10.9-5.5c-7.4-1.6-9.3,1-12.9,0c-11.3-3.2-6.1-31.5-19.6-38c-5.5-2.6-11.6-2.3-14.5-1.3
		C179.1,311.1,168.8,313.7,167.2,318.5z"/>
	<path fill="#F7941E" stroke="#000000" stroke-width="3.3403" stroke-miterlimit="10" d="M406.5,309.5c-13.2,1-8,32.2-21.5,38.6
		c-6.8,3.2-11.6-1.6-19,3.2c-7.4,4.8-8.7,13.8-8.7,14.8c-1,8,2.6,18.3,9.3,19.9c4.2,1.3,8.4-1.3,11.3-3.2
		c8.4-5.5,9.3-10.9,16.4-19.6c2.9-3.9,2.3-2.3,25.4-23.5c7.4-6.8,10.6-10,10.3-14.2c-0.3-6.1-6.4-12.5-8.4-13.8
		C419,310.5,412.2,308.8,406.5,309.5z"/>
	<path fill="#F7941E" stroke="#000000" stroke-width="3.3403" stroke-miterlimit="10" d="M246.9,352.9c-1,3.9-2.3,8-3.2,11.9h35.4
		l3.9-12.9L246.9,352.9z"/>
	<polygon fill="#F7941E" stroke="#000000" stroke-width="3.3403" stroke-miterlimit="10" points="322.5,352.6 322.5,367.1 
		354.4,364.8 350.8,351.6 	"/>
	<path fill="#2E3192" stroke="#000000" stroke-width="3.3403" stroke-miterlimit="10" d="M283.9,353.9c-0.3,1-4.2,7.7-1,14.2
		c3.9,8.4,15.8,8.7,18,8.7c2.6,0,15.1,0,19.9-9.6c0.3-0.3,3.9-7.7,0-14.8c-5.1-9.6-19.6-7.7-21.2-7.7
		C297.1,345.2,288.4,346.2,283.9,353.9z"/>
	<path fill="#BE1E2D" stroke="#000000" stroke-width="3.3403" stroke-miterlimit="10" d="M292.6,356.1c-1.9,3.2-1.6,7.4,0.6,10.3
		c3.5,4.5,11.3,3.5,15.1,0c2.3-1.9,4.5-5.8,3.2-9.3c-1.3-3.2-5.8-4.2-7.7-4.2C302.3,352.6,295.8,351.3,292.6,356.1z"/>
	<path fill="#F9ED32" stroke="#000000" stroke-width="3.3403" stroke-miterlimit="10" d="M243.7,367.1c0,0-3.2,9-6.1,19.6
		c-0.6,1.6-2.6,9.6-3.9,14.2c-8,28-6.1,56-9,58.9c-4.2,3.9-4.5,6.4-5.8,11.9c-1.3,6.4-1.3,10-1.6,15.8c0,2.9-1.6,5.1-1,7.1
		c0.6,2.9,5.1,4.2,8,4.8c1.6,0.6,9,1.6,14.8,1.3c6.1-0.3,13.5-3.2,13.5-3.2v-2.3c0,0,0.6-7.4,1.9-10.9c3.9-10.9,9-18,15.8-26.1
		c21.9-25.1,23.2-38.6,28-40.2c0,0,9,13.5,33.4,43.1c7.4,9,13.2,15.1,13.5,24.4c0,5.5-1.6,10.9,1.6,14.2c0.6,0.6,1.9,1.6,10.3,2.3
		c14.8,1,19.3-1.9,20.6-2.6c1.6-1,4.2-2.9,4.2-5.5c0-2.6,0.6-4.5,0-7.4c-1.3-7.4-0.6-9.3-4.5-16.1c-1.6-2.9-2.9-6.8-4.5-10.3
		c-3.5-7.4,0.3-28.6-4.2-48.9c-2.6-11.3-0.3-20.3-4.2-23.8C358.5,381.2,354,368,354,368s-28.9-1.3-31.8,1c-8,5.8-6.8,9-21.9,9
		c-12.9,0-18-8.7-21.5-9.6C267.8,363.8,243.7,367.1,243.7,367.1z"/>
	<path stroke="#000000" stroke-width="3.3403" stroke-miterlimit="10" d="M212.2,506c0-5.1-0.3-9.6,2.3-10.9c1.3-0.6,2.6,0,6.1,1
		c3.9,1.3,8,2.6,11.9,2.6c6.4,0.3,18.7-1.3,19.6,0c3.5,4.2-3.9,16.4-9.3,25.1c-7.7,12.5-10.3,12.9-11.3,19c-1,5.8,0.6,6.8,0,19.6
		c-0.6,9.3-1.6,11.9-2.3,12.9c-1,2.3-2.6,4.8-10.9,11.3c-8.4,6.8-12.5,10.3-16.4,11.3c-1,0.3-13.5,4.2-22.2-2.6
		c-1.6-1-4.2-3.2-4.8-6.4c-0.3-1.3-1-5.5,6.1-14.2c7.1-9,11.6-9.3,20.6-19.6c3.5-3.9,5.1-5.8,6.4-8.7c2.9-6.4,0.6-9.3,1.6-21.5
		C210.3,513.7,212.2,515.6,212.2,506z"/>
	<path stroke="#000000" stroke-width="3.3403" stroke-miterlimit="10" d="M352.4,514.7c-2.9-5.5-7.7-14.8-4.8-17.4
		c1.3-1.3,3.5,0,10.3,1c7.4,1.3,15.4,2.3,20.6-1.6c3.5-2.6,3.5-5.5,4.8-5.5c4.2,0.3,5.8,22.8,6.1,27.7c1.3,19.6-1.3,20.9,1.6,27.7
		c1.9,4.8,3.9,5.1,20.6,22.2c12.2,12.2,14.8,16.1,14.2,19.9c-1,6.1-9,9-10.9,9.6c-9.3,3.5-18-0.3-19.6-1c-5.1-2.6-4.5-4.2-15.1-13.5
		c-7.7-6.8-8.4-6.1-9.6-8.7c-2.6-5.1-0.3-8.4-0.6-21.5c0-4.2,0-6.4-0.6-8.7C367.2,533.3,360.5,530.1,352.4,514.7z"/>
	<path fill="#BE1E2D" stroke="#000000" stroke-width="3.3403" stroke-miterlimit="10" d="M353.1,234.6c0,0,28.3,5.8,49.9,21.2
		c7.1,5.1,22.2,16.1,35.4,35.7c12.2,18.3,10.6,26.1,26.1,46c11.9,15.4,19.9,19.6,22.8,21.2c12.2,6.1,25.4,6.8,32.2,6.4
		c13.8-0.3,19-4.2,21.5-1c5.1,5.5-2.9,25.1-16.4,37.3c-6.8,6.1-16.7,10.9-36.3,20.6c-10.3,5.1-9.3,4.2-12.5,6.1
		c-18.3,11.3-16.1,23.2-29.9,32.5c-11.9,8-13.5,10-38,9.6c-14.5,0-23.8,8.7-26.7,5.8c-2.6-2.6,1,3.5-2.3-4.5
		c-1.9-5.8-4.2-9.3-6.8-14.8c-2.3-4.8,3.9-22.8-1.9-46.6c-2.6-10.6-3.2-22.5-3.2-22.5s5.8-1.6,11.9-4.5c8-3.9,10.3-10.9,15.1-19
		c12.5-20.6,24.8-16.7,36.3-37.3c3.9-7.1,7.4-13.2,6.1-20.6c-1.3-6.8-5.8-10.9-23.8-25.1c-12.5-9.6-18-14.8-26.1-19.6
		C369.8,252.2,351.8,235.8,353.1,234.6z"/>
	<g>
		<path fill="#27AAE1" stroke="#000000" stroke-width="3.3403" stroke-miterlimit="10" d="M359.8,282.8c5.8-4.2,10.3,2.6,25.1,12.9
			c10.9,7.7,19.3,10,19,13.5c0,2.6-2.9,1.6-4.8,6.8c-3.5,10-3.2,23.2-11.9,30.2c-6.1,4.8-14.2-1.3-22.2,4.5
			c-7.1,5.1-8,13.8-10.3,13.5c-1.9-0.3-2.3-7.1-2.6-12.9c-0.6-8.7-3.9-14.8-4.8-19.9c-1.6-8.7-1-16.1-0.3-19
			c0.6-2.6,4.5-7.1,7.4-14.8C356.3,291.8,357.6,284.4,359.8,282.8z"/>
	</g>
	<path fill="#BE1E2D" stroke="#000000" stroke-width="3.3403" stroke-miterlimit="10" d="M342.1,477c-1.3,1.3-26.4-9-42.5-8
		c-24.1,1.3-41.2,13.2-43.1,10.3c-2.3-3.2,9-10.3,21.9-29.3c6.1-9,17.7-32.5,20.6-32.5c2.3,0,13.2,17.7,24.1,31.2
		C334.1,462.3,343.1,476.1,342.1,477z"/>
	<path fill="#BE1E2D" stroke="#000000" stroke-width="3.3403" stroke-miterlimit="10" d="M217.7,467.4c-6.4,6.8-14.2-9-29.9-14.8
		c-15.4-5.5-19.3,2.9-32.5-1.6c-19-6.4-14.2-24.8-36.3-38c-3.9-2.3-15.1-5.8-38-12.9c-19-6.1-21.5-6.1-22.8-9.3
		c-4.2-10.6,25.1-22.8,54.4-60.8c16.7-21.9,15.1-28,32.2-44.4c10.9-10.9,20.9-17.4,40.5-29.9c15.8-10.3,27-16.1,40.8-19.9
		c8-2.3,23.8-3.2,23.8-3.2s-7.4,7.1-22.8,18.3c-22.2,16.7-18.7,16.7-35.7,29.3c-19.3,13.8-28.6,17-29.9,26.7
		c-0.6,4.8,1.3,9,4.2,14.8c4.8,9.6,9.6,11.9,23.8,25.4c11.6,11.3,17.4,16.7,20.6,21.5c4.5,6.4,6.8,11.9,13.5,15.1
		c6.8,3.2,13.8-1,12.9,3.2c-1,6.1-8.4,20.3-9,48.2c0,6.8-0.6,13.8-2.3,21.9C224.7,461.9,221.5,463.2,217.7,467.4z"/>
	<g>
		<path fill="#BE1E2D" stroke="#000000" stroke-width="3.3403" stroke-miterlimit="10" d="M359.8,282.8c5.8-4.2,10.3,2.6,25.1,12.9
			c10.9,7.7,19.3,10,19,13.5c0,2.6-2.9,1.6-4.8,6.8c-3.5,10-3.2,23.2-11.9,30.2c-6.1,4.8-14.2-1.3-22.2,4.5
			c-7.1,5.1-8,13.8-10.3,13.5c-1.9-0.3-2.3-7.1-2.6-12.9c-0.6-8.7-3.9-14.8-4.8-19.9c-1.6-8.7-1-16.1-0.3-19
			c0.6-2.6,4.5-7.1,7.4-14.8C356.3,291.8,357.6,284.4,359.8,282.8z"/>
	</g>
	<g>
		<path fill="#BE1E2D" stroke="#000000" stroke-width="3.3403" stroke-miterlimit="10" d="M242.8,282.8c-5.8-4.2-10.3,2.3-25.4,12.5
			c-11.3,7.7-19.3,9.3-19.3,13.2c0,2.6,0,2.6,3.2,7.4c5.8,9,3.2,24.8,11.9,32.2c5.8,5.1,15.1-2.3,22.8,3.9c7.1,5.5,8,13.5,10.3,13.2
			c1.9-0.3,2.6-7.1,2.9-12.9c1-8.7,4.2-14.8,5.5-19.9c1.6-8.7,1.3-16.1,0.6-19c-0.6-2.6-4.5-7.4-7.1-14.8
			C246.3,291.8,245.3,284.4,242.8,282.8z"/>
	</g>
	<path stroke="#000000" stroke-width="3.3403" stroke-miterlimit="10" d="M284.9,226.8c0-0.3,0,1,2.6-0.3c2.3-1.3,1.9-1,1.9-1
		s0,3.2,1,6.1c1.3,3.9,6.4,5.5,8.4,5.8c1.9,0.3,9.3,0.3,11.9-2.9c1.9-2.6,1.9-8.7,1.9-8.7h6.8c0,0-1.6,9.3-4.2,12.5
		c-3.5,4.2-7.7,4.5-10.6,4.8s-9,1-14.2-3.2C285.2,236.5,283.3,228.8,284.9,226.8z"/>
	<path fill="none" stroke="#3C2415" stroke-width="3.3403" stroke-miterlimit="10" d="M381,139c-0.6-0.6,1.3-3.5,3.9-4.8
		c2.9-1.3,6.4-1,6.8,0C391.7,135.8,382,140.3,381,139z"/>
	<path fill="none" stroke="#3C2415" stroke-width="3.3403" stroke-miterlimit="10" d="M233.1,141c0.3-0.6-2.9-3.9-7.1-4.8
		c-3.2-1-7.4-1-7.7,0C218.3,137.4,232.5,142.2,233.1,141z"/>
	<g>
		<path fill="#FFFFFF" stroke="#000000" stroke-width="3.3403" stroke-miterlimit="10" d="M254.7,144.2c2.9,1.6,5.8-2.9,13.8-2.9
			c7.4,0,10.6,4.2,12.9,2.3c2.9-2.3,0.3-10.3-2.9-19.9c-2.6-7.7-4.8-10.6-8-12.9c-1.3-1-3.9-2.6-6.8-1.9c-1.3,0.3-4.2,1.3-7.7,10.6
			C255.9,121,248.9,141,254.7,144.2z"/>
		<path fill="#603913" stroke="#000000" stroke-width="3.3403" stroke-miterlimit="10" d="M259.2,139c-4.5-5.8-1.9-12.9-1.3-13.8
			c0.3-0.3,3.9-9,10-9c5.8,0.3,8.7,7.7,9.3,9c2.3,5.5-1.6,17-9,16.4C262.7,141.3,262.4,143.2,259.2,139z"/>
		<path fill="#726658" stroke="#000000" stroke-width="3.3403" stroke-miterlimit="10" d="M268.2,141.3c-3.5-0.3-4.8-1-4.8-4.8
			c0-1.9,1-6.8,4.5-6.8s4.5,1.3,4.8,5.8C272.7,138.4,271.7,141.6,268.2,141.3z"/>
	</g>
	<path fill="none" stroke="#000000" stroke-width="3.3403" stroke-miterlimit="10" d="M312.5,95.9c5.1-1.6,15.1,0,22.8,8.7"/>
	<path fill="none" stroke="#000000" stroke-width="3.3403" stroke-miterlimit="10" d="M254.7,104.6c0-4.8,10.3-8.7,22.8-8.7"/>
	<line fill="none" stroke="#000000" stroke-width="3.3403" stroke-miterlimit="10" x1="324.8" y1="103.3" x2="324.8" y2="103.3"/>
	<g>
		<path fill="none" stroke="#3C2415" stroke-width="3.3403" stroke-miterlimit="10" d="M294.5,160.3c-0.6-0.3-4.5-2.6-8.7-1.3
			c-3.9,1.3-7.4,5.1-6.8,9.3c0.6,3.2,3.2,5.5,5.8,6.1c3.2,1,6.8,0,9.3-2.6"/>
	</g>
	<path fill="none" stroke="#BE1E2D" stroke-width="3.3403" stroke-miterlimit="10" d="M250.5,179.9c1.3-2.3,5.5-4.2,5.5-4.2
		s3.5,4.5,5.8,7.7c8,10.3,19.6,13.2,23.8,14.2c6.4,1.3,11.3,0.6,16.1,0.3c3.9-0.3,9.6-0.6,16.1-3.9c3.5-1.9,7.1-3.5,12.2-7.4
		c5.8-3.9,6.4-5.5,6.4-5.5c3.9-3.9,4.8-4.5,4.8-4.5s1.9,2.3,2.6,3.9"/>
	<g>
		<path fill="#FFFFFF" stroke="#000000" stroke-width="3.3403" stroke-miterlimit="10" d="M309.6,144.2c2.9,1.6,5.8-2.9,13.8-2.9
			c7.4,0,10.6,4.2,12.9,2.3c2.9-2.3,0.3-10.3-2.9-19.9c-2.6-7.7-4.8-10.6-8-12.9c-1.3-1-3.9-2.6-6.8-1.9c-1.3,0.3-4.2,1.3-7.7,10.6
			C310.9,121,303.9,141,309.6,144.2z"/>
		<path fill="#603913" stroke="#000000" stroke-width="3.3403" stroke-miterlimit="10" d="M314.2,139c-4.5-5.8-1.9-12.9-1.3-13.8
			c0.3-0.3,3.9-9,10-9c5.8,0.3,8.7,7.7,9.3,9c2.3,5.5-1.6,17-9,16.4C317.7,141.3,317.4,143.2,314.2,139z"/>
		<path fill="#726658" stroke="#000000" stroke-width="3.3403" stroke-miterlimit="10" d="M323.2,141.3c-3.5-0.3-4.8-1-4.8-4.8
			c0-1.9,1-6.8,4.5-6.8s4.5,1.3,4.8,5.8C327.7,138.4,326.7,141.6,323.2,141.3z"/>
	</g>
</g>
</svg>
