<?xml version="1.0" encoding="utf-8"?>
<!-- Generator: Adobe Illustrator 18.1.0, SVG Export Plug-In . SVG Version: 6.00 Build 0)  -->
<!DOCTYPE svg PUBLIC "-//W3C//DTD SVG 1.1//EN" "http://www.w3.org/Graphics/SVG/1.1/DTD/svg11.dtd">
<svg version="1.1" id="Layer_1" xmlns="http://www.w3.org/2000/svg" xmlns:xlink="http://www.w3.org/1999/xlink" x="0px" y="0px"
	 viewBox="0 0 200 200" enable-background="new 0 0 200 200" xml:space="preserve">
<path stroke="#000000" stroke-miterlimit="10" d="M169.1,63.7c0-1-8.9-0.9-14.3-7.2c-2-2.4-2.8-4.7-6.6-7.8c-1.7-1.4-3.5-2.6-3.3-3
	c0.3-0.7,6,2.1,7.1,0.9c1-1.3-3.6-5.5-8.3-12.3c-6.7-9.6-4.7-11.3-9.8-17.1c-6.1-6.7-13.5-9.4-17.3-10.9c0,0-8.9-3.7-15.5-3.1
	c-1.6,0.1-3.2,0.5-3.2,0.5s-1.1,0.2-2.1,0.6c-3.5,1.2-12.2,8.8-12.7,8.3c-0.4-0.3,3.5-4.6,6.8-7.3s7.8-3.5,7.6-4
	c-1.1-2.2-17.5,6.7-18.6,7.6c-1.2,1,3.7-9.2,3.4-9.1c-0.4,0.3-6.3,7.8-9,12.4c-2.5,4.4-2.4,4.1-5.2,8.2c-2.6,3.8-2.8,9.2-3.2,12.5
	c-0.3,2.9-0.3,5.6-0.2,6.8c0.1,2,0.4,3.5,0.5,4.2c0.2,1.4,0.7,4,1.9,6.8c0.7,1.7,1.6,3.2,2,4c0,0,0.2,0.4,0.5,0.9
	c2.9,4.6,6.2,7.5,6.2,7.5c1.3,1.2,4.8,4.8,9.8,6.2c3.4,1,10.4,2.2,10.5,2.4c0,0-0.2-4-0.1-2.1c0,0-17.4-2.5-19.6-10.9
	c-1-3.6,1.3-9.6-1-9.6c-1.3,0-2,1.1-4.1,0.2c-3.3-1.5-5.7-7-3.6-8.8c1.2-1.1,3.6-0.6,5.1,0.4c2.5,1.6,2.7,4.6,3.3,4.5
	c0.9-0.1-0.6-4.9,1.9-8.9c1-1.6,1.7-1.5,3.7-4.4c1.2-1.7,1.8-2.7,2.2-4.1c0.7-2.9-0.4-4.5,0.4-5.1c1.1-1,3.5,1.4,7.4,2.7
	c5.5,1.7,6.5-1.2,12.6,0.1c4.3,0.9,3.3,2.2,11.4,5.2c1.5,0.5,3.1,1.1,4.4,2.7c2.1,2.5,2.1,5.6,2.1,5.9c0,2.9-1.5,5-1.2,5.1
	c0.4,0.2,1.9-3.5,4.8-4.1c1.4-0.2,3.2,0.2,4.1,1.5c1.1,1.6,0.2,3.6,0,4.4c-1.2,3.2-3.4,2.9-4.8,5.9c-1,2.1,0,2.7-1.2,5.9
	c-0.9,2.4-1.9,3.8-2.7,4.8c-1,1.3-2.2,3-4.5,4.4c-1.6,1-3.4,1.4-7.1,2.1c0,0-1.6-0.3-6.5,0.5c0.2-1.2-0.3,3.1,0.2,4.2
	c0.7,1.6,5,0.4,9.6,0.4c3,0,2,0.5,16.6,4.2c0,0,5.9,1.5,11.5,1.9l0,0c5.2,0.4,7.8,0.5,8,0.1c0.2-0.9-7.1-5.2-6.6-4.2
	c0.1,0.2,23.8,0,25.6-1.6c2-1.9-15.4-10.6-12.8-10.5C156.3,65.1,169,67,169.1,63.7z"/>
<path fill="#593B2B" stroke="#593B2B" stroke-miterlimit="10" d="M96.7,77.6c0,0-0.2-5.3-0.5-8.6c0,0-2.8,1.4-9.9-1.4
	c-0.9-0.3-3.7-1-7.2-4.5c-1.5-1.6-1.8-3.7-2.1-5.2c-0.6-3,0.2-3.3,0.3-7c0,0,0.7-0.2-1.2-1.8c-0.2-0.2-1.5-0.2-1.8,0
	c-0.6,0.3-1.8,0.7-3.1,0.3c-1.8-0.7-2.5-2.7-2.9-3.8c-0.3-0.9-1.2-3.3,0-4.5c1-0.9,2.6-0.6,3.6-0.3c3.2,1.2,3.7,5.3,4.8,5.2
	c0.9-0.1-1.1-2.1,0.1-7c0.3-1.4,0.5-1.9,2.6-4.2c1.5-1.6,2.9-3.7,4.1-5.5c1-1.4,0.5-6.1,1.6-6.3c2.1-0.4,2.7,1.9,7,3.4
	c5.3,1.8,6.6-1.2,12.7,0.1c3.1,0.6,1.9,1.3,11.4,5.6c2.4,1.1,3.2,1.4,4,2.5c2.8,3.8,0.2,9.6,0.5,10.2c0.3,0.4,2.2-3.1,5.7-3.2
	c1.2,0,3,0.4,3.6,1.5c1.5,2.8-2.2,4.9-4.9,9.4c-2,3.4-2.2,7.9-3.7,10.7c-1.3,2.2-2.9,4.1-7,5.5c-4.8,1.6-9.3,1.9-11.3,0.9l0,0
	c-1.8,3-0.3,6-0.3,6c0,0.3,0,1,0,1.7c-0.4,0.3-1.2,0.9-2.2,1.1c-0.3,0.1-0.6,0.1-1.1,0.1C97.9,78.6,96.7,77.6,96.7,77.6z"/>
<path fill="#F9ED32" stroke="#000000" stroke-miterlimit="10" d="M106.8,75.7c1.3-1,3-0.5,5.8,0c1.3,0.3,3.1,0.7,5.2,1.8
	c3.2,1.7,4.7,3.7,7.7,6c4.1,3.2,7.2,7.1,11.2,10.2c0.1,0,3.4,1.8,7.2,4.9c1.1,0.9,2.1,1.8,2.5,3.4c0.3,1.7-0.2,3.8-1.3,4.2
	c-0.6,0.2-1.1-0.6-3.1-1.8c-1.4-0.9-2.6-1.5-4-1.5c-1.5,0-1.6,0.9-2.7,0.9c-2,0.1-4.8-3.1-6.3-4.2c-1.4-1-3.3-1.9-5.6-4.1
	c-1.1-1.1-1.5-1.9-2.1-1.8c-1.1,0.1-0.9,2.5-2.8,5.3c-1.3,1.9-1.4,2.1-2,3.7c-0.5,1.5-0.9,5.9-0.1,8.9c0,0,0.6,0.2,0.7,3.1l0.4,1.8
	c-0.3,0.6-2.5-0.1-5.8,0c-3.4,0.1-3.7,0.7-5.5,0.3c-1.8-0.4-1.9-1.3-4.1-2c-1.8-0.6-4.1-0.6-4.6-0.4c-1.8,0.4-2,1-4.2,1.6
	c-0.6,0.2-0.3,0-1.9,0.2c-2.8,0.3-4.5,0.3-6.1,0.1c-1.5-0.2-1.7-0.4-1.8-0.5c-0.7-1,0.2-2.6,1-5.8c0.2-1,1-3.4,0.2-6.3
	c-0.3-1.2-1.2-2.2-2.6-4.9c-1.7-3.3-1.5-3.3-2-5c-0.3-0.9-0.3-0.9-3-3.5c-2.7-2.7-2.5-2.4-3.8-4c-1.3-1.4-4.7-5.1-5.5-6.4
	c-0.5-1-8.1-13.4-9.6-15.2c-0.9-1-5.9-10.2-6.1-10.5C51,52,56.6,53.6,56,53.5c-3.1-0.2,1-1.3,3.5-2c2.1-0.6,0.9-5.3,1.5-3.5
	c1,2.6,3.5,7.1,5.9,10.6c2,3.1,1.6,1.9,4.2,6.2c2.4,3.8,5.7,7.4,6.7,8.4c3.1,3.1,4.6,4.6,7.6,3.4c1.2-0.5,2.5-0.9,5.2-1.4
	c3.3-0.6,3.8-0.4,4.2-0.1c1.2,0.9,0.2,2.5,1.4,4c1.2,1.5,3.5,1.6,4.3,1.7c0.9,0,2.7,0.1,4-1.1C106.1,78.5,105.4,76.7,106.8,75.7z"/>
<polygon fill="#2E3192" stroke="#000000" stroke-miterlimit="10" points="105.3,86.8 112.1,94 105.2,103.8 91.3,103.7 84.5,93.9 
	91.6,86.7 "/>
<polygon fill="#FFFFFF" stroke="#000000" stroke-miterlimit="10" points="107.1,93.9 102.7,100.2 94.5,100.1 89.6,93.7 91.9,90.6 
	104.4,90.8 "/>
<path fill="#F7941E" stroke="#000000" stroke-miterlimit="10" d="M144.1,106.7c0.3,1.2-1.2,3.3-3.8,5.9c-5.8,5.7-6.5,4.9-8.9,7.8
	c-2.4,2.9-2.8,5.1-6,7.4c-1.4,1-2.4,1.3-3.2,1.1c-1.7-0.5-2.4-3.2-2.7-4.7c-0.4-1.8-0.9-4,0.4-5.6c1-1.3,2.5-1.5,3.6-1.8
	c2.5-0.5,3.1,0.4,4.3,0c3.7-1.1,2.1-10.5,6.6-12.6c1.8-0.9,3.8-0.6,4.8-0.4C140.3,104.1,143.7,105,144.1,106.7z"/>
<path fill="#F7941E" stroke="#000000" stroke-miterlimit="10" d="M117.5,117.8c0.3,1.3,0.7,2.7,1.1,4l-11.8-0.1l-1.2-4.4
	L117.5,117.8z"/>
<polygon fill="#F7941E" stroke="#000000" stroke-miterlimit="10" points="92.5,117.4 92.4,122.3 81.8,121.4 83.1,117.1 "/>
<path fill="#2E3192" stroke="#000000" stroke-miterlimit="10" d="M105.2,118c0.1,0.3,1.4,2.6,0.3,4.7c-1.4,2.8-5.2,2.8-6,2.8
	c-0.9,0-5-0.1-6.6-3.3c-0.1-0.1-1.2-2.7,0-4.9c1.8-3.2,6.5-2.6,7.1-2.5C100.9,115,103.8,115.5,105.2,118z"/>
<path fill="#BE1E2D" stroke="#000000" stroke-miterlimit="10" d="M102.3,118.8c0.6,1.1,0.5,2.6-0.2,3.4c-1.2,1.5-3.7,1.2-5,0
	c-0.7-0.6-1.5-1.9-1.1-3.1c0.4-1.1,1.9-1.3,2.6-1.4C99.1,117.5,101.3,117.2,102.3,118.8z"/>
<path fill="#F9ED32" stroke="#000000" stroke-miterlimit="10" d="M118.6,122.5c0,0,1.1,3.1,2,6.5c0.1,0.5,0.9,3.2,1.2,4.7
	c2.6,9.3,1.8,18.6,2.8,19.6c1.3,1.3,1.5,2.2,1.8,4c0.4,2.1,0.4,3.3,0.5,5.2c0,1,0.5,1.7,0.3,2.4c-0.2,1-1.7,1.3-2.7,1.6
	c-0.5,0.1-3,0.5-4.9,0.3c-2-0.1-4.5-1.1-4.5-1.1V165c0,0-0.2-2.5-0.6-3.6c-1.3-3.6-2.9-6-5.2-8.8c-7.2-8.4-7.6-12.8-9.2-13.5
	c0,0-3,4.4-11.2,14.2c-2.5,3-4.5,4.9-4.6,8.1c-0.1,1.8,0.5,3.6-0.5,4.7c-0.2,0.2-0.6,0.5-3.4,0.6c-4.9,0.2-6.4-0.6-6.8-1
	c-0.5-0.3-1.4-1-1.4-1.8s-0.1-1.5,0-2.5c0.4-2.5,0.3-3.1,1.6-5.3c0.5-1,1-2.2,1.5-3.4c1.2-2.5,0-9.5,1.5-16.3
	c0.9-3.7,0.2-6.7,1.4-7.8c2.1-2,3.5-6.4,3.5-6.4s9.6-0.3,10.6,0.4c2.7,1.9,2.2,3,7.3,3c4.3,0,6-2.8,7.2-3.2
	C110.5,121.3,118.6,122.5,118.6,122.5z"/>
<path stroke="#000000" stroke-miterlimit="10" d="M128.6,168.8c0-1.7,0.1-3.2-0.6-3.6c-0.4-0.2-0.9,0-2,0.3c-1.3,0.4-2.7,0.9-4,0.9
	c-2.1,0-6.2-0.4-6.5-0.1c-1.2,1.4,1.3,5.5,3,8.3c2.6,4.3,3.3,4.3,3.7,6.3c0.3,1.9-0.2,2.2-0.1,6.5c0.1,3.1,0.5,4,0.6,4.4
	c0.3,0.7,0.9,1.6,3.5,3.8c2.8,2.2,4.2,3.4,5.3,3.8c0.3,0.1,4.5,1.4,7.4-0.9c0.5-0.3,1.4-1.1,1.6-2.1c0.1-0.4,0.3-1.8-1.9-4.7
	c-2.4-3-3.8-3.2-6.8-6.5c-1.2-1.3-1.7-1.9-2.1-2.9c-1-2.1-0.2-3.1-0.4-7.3C129.2,171.4,128.6,172,128.6,168.8z"/>
<path stroke="#000000" stroke-miterlimit="10" d="M82,171.3c1-1.8,2.6-4.8,1.7-5.8c-0.4-0.4-1.2,0-3.4,0.3c-2.5,0.3-5.1,0.7-6.8-0.6
	c-1.1-0.9-1.1-1.8-1.6-1.8c-1.4,0.1-1.9,7.6-2,9.2c-0.5,6.5,0.3,7-0.6,9.2c-0.7,1.6-1.3,1.7-7,7.4c-4.1,4.1-5,5.2-4.7,6.6
	c0.3,2,3,3,3.5,3.3c3.1,1.3,6-0.1,6.5-0.3c1.7-0.7,1.5-1.4,5.1-4.5c2.7-2.2,2.9-2,3.3-2.9c0.9-1.7,0.1-2.8,0.2-7.2
	c0-1.4,0.1-2.1,0.2-2.9C77,177.5,79.2,176.4,82,171.3z"/>
<path fill="#BE1E2D" stroke="#000000" stroke-miterlimit="10" d="M70.1,82.5c0,0-1,1.1-3.8,2.9c-2.5,1.5-7.4,5.3-11.9,11.8
	c-4.2,6.1-3.6,8.7-8.8,15.3c-4,5-6.6,6.5-7.6,7c-4.1,1.9-8.4,2.1-10.7,2c-4.6-0.1-6.2-1.5-7.2-0.4c-1.7,1.8,0.9,8.3,5.3,12.5
	c2.2,2.1,5.5,3.7,12,7c3.4,1.7,3.1,1.4,4.2,2c6,3.7,5.2,7.7,9.8,10.9c4,2.8,4.4,3.3,12.6,3.3c4.8,0,7.6,3.4,8.4,2.2
	c0.2-0.2,0.4-0.3,1.2-1.7c1-1.8,1.4-3.1,2.2-4.9c0.7-1.6-1.3-7.6,0.7-15.5c0.9-3.5,2-7.2,3.3-10.1c2-4.4,0.5-1.1,2-4.4
	c1.2-2.5,2.9-10.7,3.5-12.5c1.5-4.4-4.4-13.2-4.3-15.4c0-0.6-4.6-4.9-7.9-8.4C72,84.8,70.5,83.1,70.1,82.5z"/>
<path fill="#BE1E2D" stroke="#000000" stroke-miterlimit="10" d="M85.5,158.8c0.4,0.4,8.8-2.9,14.1-2.6c8,0.5,13.6,4.5,14.3,3.5
	c0.8-1-2.9-3.4-7.2-9.8c-2-3-5.9-10.8-6.7-10.9c-0.7,0-4.4,5.9-8.1,10.3C88.3,153.8,85.2,158.4,85.5,158.8z"/>
<path fill="#BE1E2D" stroke="#000000" stroke-miterlimit="10" d="M126.9,156c2,2.2,4.8-3,9.9-4.8c5.2-1.8,6.4,1.1,10.8-0.4
	c6.3-2.1,4.8-8.2,12.2-12.5c1.3-0.7,5-1.9,12.6-4.2c6.3-1.9,7.2-2,7.6-3c1.5-3.5-8.2-7.7-17.9-20.4c-5.6-7.3-4.9-9.3-10.5-14.9
	c-3.6-3.6-7-5.8-13.5-10.1c-5.2-3.4-9-5.3-13.5-6.8c-2.6-0.9-7.9-1.2-7.9-1.2s2.5,2.4,7.5,6.2c7.4,5.6,6.1,5.7,11.9,9.8
	c6.3,4.6,9.5,5.8,9.8,9c0.2,1.6-0.5,3-1.5,4.8c-1.6,3.2-3.3,3.8-8,8.4c-3.8,3.7-5.8,5.6-7,7.2c-1.5,2.1-2.4,4-4.6,5
	c-2.2,1.1-4.6-0.4-4.4,1.1c0.3,2,2.7,6.7,2.9,16.1c0,2.2,0.1,4.6,0.6,7.3C124.5,154.1,125.6,154.6,126.9,156z"/>
<g>
	<path fill="#BE1E2D" stroke="#000000" stroke-miterlimit="10" d="M120.6,94.2c1.9-1.4,1.9,1.2,7,4.6c3.6,2.6,6.4,3.2,6.4,4.4
		c0,0.9,0,0.9-1.1,2.4c-1.9,3-1.2,8.2-4,10.7c-1.9,1.7-4.9-0.7-7.6,1.2c-2.4,1.8-2.7,4.5-3.5,4.3c-0.6-0.1-0.7-2.4-1-4.3
		c-0.3-2.9-1.4-4.9-1.7-6.6c-0.5-2.9-0.4-5.3-0.2-6.3c0.2-0.9,1.5-2.5,2.4-4.9C117.9,97.5,119.7,94.7,120.6,94.2z"/>
</g>
<path fill="#FFF200" stroke="#000000" stroke-miterlimit="10" d="M105.3,75.8c0-0.1,0,0.3-0.9-0.1c-0.7-0.4-0.6-0.3-0.6-0.3
	s0,1.1-0.3,2c-0.4,1.3-2.2,1.8-2.8,1.8c-0.6,0.1-3.1,0.1-4-1.1c-0.6-0.9-0.5-2.9-0.5-2.9H94c0,0,0.4,3.1,1.4,4.3
	c1.2,1.4,2.6,1.5,3.5,1.6c1,0.1,3,0.3,4.7-1C105.2,79,105.8,76.4,105.3,75.8z"/>
<path fill="none" stroke="#3C2415" stroke-miterlimit="10" d="M73.6,46.3c0.2-0.2-0.4-1.2-1.3-1.6c-1-0.5-2.1-0.3-2.2,0
	C70.1,45.2,73.3,46.7,73.6,46.3z"/>
<path fill="none" stroke="#3C2415" stroke-miterlimit="10" d="M122.8,47.3c-0.1-0.2,1.1-1.3,2.4-1.6c1.1-0.3,2.5-0.2,2.6,0
	C127.7,46.3,123,47.9,122.8,47.3z"/>
<g>
	<path fill="#FFFFFF" stroke="#000000" stroke-miterlimit="10" d="M115.6,48.4c-1,0.5-1.9-1-4.6-1.1c-2.5,0-3.5,1.3-4.3,0.7
		c-1-0.7-0.1-3.4,1.1-6.6c0.9-2.5,1.6-3.5,2.7-4.3c0.4-0.3,1.3-0.9,2.2-0.6c0.4,0.1,1.4,0.4,2.5,3.5
		C115.3,40.7,117.6,47.3,115.6,48.4z"/>
	<path fill="#3C2415" stroke="#000000" stroke-miterlimit="10" d="M114.2,46.6c1.5-1.9,0.6-4.3,0.5-4.6c-0.1-0.1-1.2-3-3.3-3
		c-1.9,0-3,2.6-3.1,3c-0.7,1.8,0.4,5.7,3,5.6C112.9,47.3,113,48.1,114.2,46.6z"/>
	<path fill="#603913" stroke="#000000" stroke-miterlimit="10" d="M111.2,47.3c1.2-0.1,1.6-0.2,1.6-1.6c0-0.6-0.3-2.2-1.5-2.2
		c-1.2,0-1.5,0.4-1.6,1.9C109.7,46.4,110,47.4,111.2,47.3z"/>
</g>
<path fill="none" stroke="#000000" stroke-miterlimit="10" d="M96.5,32.2c-1.7-0.5-5,0-7.6,2.9"/>
<path fill="none" stroke="#000000" stroke-miterlimit="10" d="M115.7,35.3c0-1.6-3.4-2.9-7.6-3"/>
<line fill="none" stroke="#000000" stroke-miterlimit="10" x1="92.4" y1="34.6" x2="92.4" y2="34.6"/>
<g>
	<path fill="none" stroke="#3C2415" stroke-miterlimit="10" d="M103.2,53.6c-0.2-0.1-1.5-0.9-2.9-0.3c-1.3,0.4-2.5,1.8-2.1,3.2
		c0.2,1.1,1.2,1.7,2,2c1.1,0.3,2.2,0,3.1-0.9"/>
</g>
<path fill="none" stroke="#7C414B" stroke-miterlimit="10" d="M116.8,60.3c-0.4-0.7-1.8-1.5-1.8-1.5s-1.2,1.5-1.9,2.6
	c-2.7,3.4-6.6,4.4-7.9,4.6c-2.1,0.4-3.7,0.2-5.3,0c-1.3-0.1-3.2-0.2-5.3-1.3c-1.2-0.6-2.4-1.3-4.1-2.5c-1.9-1.3-2.1-1.8-2.1-1.8
	c-1.3-1.3-1.6-1.5-1.6-1.5s-0.6,0.7-0.9,1.3"/>
<g>
	<path fill="#FFFFFF" stroke="#000000" stroke-miterlimit="10" d="M97.3,48.2c-1,0.5-1.9-1-4.6-1.1c-2.5,0-3.5,1.3-4.3,0.7
		c-1-0.7-0.1-3.4,1.1-6.6c0.9-2.5,1.6-3.5,2.7-4.3c0.4-0.3,1.3-0.9,2.2-0.6c0.4,0.1,1.4,0.4,2.5,3.5C97.1,40.5,99.3,47.1,97.3,48.2z
		"/>
	<path fill="#3C2415" stroke="#000000" stroke-miterlimit="10" d="M95.9,46.5c1.5-1.9,0.6-4.3,0.5-4.6c-0.1-0.1-1.2-3-3.3-3
		c-1.9,0-3,2.6-3.1,3c-0.7,1.8,0.4,5.7,3,5.6C94.7,47.2,94.7,48,95.9,46.5z"/>
	<path fill="#603913" stroke="#000000" stroke-miterlimit="10" d="M92.9,47.2c1.2-0.1,1.6-0.2,1.6-1.6c0-0.6-0.3-2.2-1.5-2.2
		c-1.2,0-1.5,0.4-1.6,1.9C91.4,46.3,91.7,47.2,92.9,47.2z"/>
</g>
<g>
	<path fill="#F7941E" stroke="#000000" stroke-miterlimit="10" d="M51.1,53.3c-4.4-2.7-2.4-16.8-9.3-17.6c-3.8-0.5-4.6-1.5-4.6-1.7
		c0-0.1,4.6,0.2,4.5-1.3c-0.1-1.4-4.9-1.4-4.9-1.3c0,0.2,4.8-0.2,4.8-1.6c0-1.2-5.2-0.5-5.2-0.6c0,0,5.1-1,5.1-1.6
		c0-1-5.3-0.9-5.3-1s5,0.1,5.1-0.5c0.2-1.2-5.3-2.4-5.2-2.4c0.1,0,3.6,1.5,4.4,0.5c0.7-0.9-1-3.2-0.7-4.5c0.1-0.7,1.8-1.2,2.2-0.3
		c0.6,1.1,1.3,2.7,1.3,3.4c0,1.7,0.4,3.5,5.7,10.2c8.9,11.7,13,13.8,12.2,16.7C60.1,53,54.1,55.1,51.1,53.3z"/>
	<path fill="none" stroke="#000000" stroke-miterlimit="10" d="M36,23.9c0,1.1,0,2,0,3s0.1,1.8,0.1,2.6c0.1,0.9,0.1,1.5,0.2,2.1
		c0.2,1.5,0.4,2.5,0.7,2.5"/>
	<g>
		<g>
			<path d="M36.2,24.8c0,0.3-0.1,1.1,0.1,1.5c0.2,0.3,0.4,0.1,0.7,0.1c0.5,0,1,0.2,1.5,0.2s1.1-0.1,1.6-0.3c0.2-0.1,0.2-0.4,0-0.5
				c-0.6-0.2-1.3-0.5-1.8-0.7c-0.4-0.2-1.1-0.5-1.5-0.4c-0.1,0-0.2,0.1-0.2,0.2c-0.1,0.4-0.2,1,0.3,1.1c0.2,0.1,0.4,0,0.6,0.1
				c0.2,0,0.4,0.1,0.5,0.2c0.3,0.1,0.6,0.2,1.1,0.2c0.3,0,0.3-0.4,0.1-0.5c-0.6-0.3-1.4-0.6-2.1-0.7c-0.3,0-0.5,0.4-0.1,0.5
				c0.7,0.1,1.4,0.4,2.1,0.7c0-0.2,0-0.3,0.1-0.5c-0.5,0.1-1-0.2-1.5-0.4c-0.1,0-0.3-0.1-0.4-0.1c-0.2-0.1-0.2,0-0.1,0.1
				c0-0.2,0-0.3,0-0.5C37.1,24.9,37,24.9,37,25c0.5,0,1.3,0.4,1.7,0.5c0.5,0.2,1,0.4,1.5,0.6c0-0.2,0-0.3,0-0.5
				c-0.9,0.3-1.7,0.3-2.6,0.1c-0.2-0.1-0.4,0-0.6-0.1c-0.3,0-0.1,0.1-0.1-0.1c0-0.3,0-0.6,0-0.9C36.7,24.5,36.2,24.5,36.2,24.8
				L36.2,24.8z"/>
		</g>
	</g>
	<g>
		<g>
			<path d="M36.3,27.6c0,0.4,0.1,1,0.1,1.4c0,0.2,0.3,0.4,0.5,0.1c0.2-0.4,1.3-0.4,1.7-0.5c0.5-0.1,1.1-0.3,1.6-0.4
				c0.2-0.1,0.2-0.3,0.1-0.4c-0.4-0.5-1.2-0.4-1.8-0.4c-0.4,0-1.6-0.2-1.8,0.3c-0.1,0.3,0.1,0.7,0.5,0.9c0.4,0,0.9-0.1,1.3-0.1
				c0.4,0,0.9,0,1.3-0.1c0.3-0.1,0.2-0.6-0.1-0.5c-0.5,0.1-1,0.1-1.5,0.1c-0.2,0-0.3,0-0.5,0c-0.1,0-0.5,0-0.4,0.1
				c0.7,0.1,2.1-0.4,2.8,0.2c0-0.1,0.1-0.3,0.1-0.4c-0.7,0.2-1.6,0.4-2.4,0.5c-0.5,0.1-1,0.1-1.2,0.6c0.2,0,0.3,0.1,0.5,0.1
				c0-0.4-0.1-1-0.1-1.4C36.9,27.1,36.3,27.1,36.3,27.6L36.3,27.6z"/>
		</g>
	</g>
	<g>
		<g>
			<path d="M37.9,28c0.2,0,0.6-0.1,0.9,0c0.1,0,0.2,0.2,0.3,0.2c0.2,0.1,0.4,0,0.6,0c0.2,0,0.5,0,0.9-0.1c0.1,0,0.2-0.1,0.2-0.2l0,0
				c0-0.1-0.1-0.2-0.1-0.2l0,0c-0.3-0.2-0.5,0.3-0.3,0.4l0,0c0-0.1-0.1-0.1-0.1-0.2l0,0c0.1-0.1,0.1-0.2,0.2-0.2
				c-0.2,0.1-0.5,0.1-0.7,0c-0.2,0-0.3,0-0.5-0.1l-0.1-0.1c-0.3-0.1-0.7,0-1.2,0C37.6,27.4,37.6,28,37.9,28L37.9,28z"/>
		</g>
	</g>
	<g>
		<g>
			<path d="M36.7,28.6c0.1,0,0.2,0,0.3,0c0.3,0,0.3-0.5,0-0.5c-0.1,0-0.2,0-0.3,0C36.4,28.1,36.4,28.6,36.7,28.6L36.7,28.6z"/>
		</g>
	</g>
	<g>
		<g>
			<path d="M36.6,30.2c1.5,0,2.9,0,4.4,0c0-0.2,0-0.3-0.1-0.5c-0.9,0.2-1.8,0.5-2.7,0.7c-0.2,0.1-0.4,0.1-0.6,0.2
				c-0.1,0-0.2,0-0.3,0.1c-0.1,0.1-0.1,0.1-0.1-0.1c-0.4-0.3,0.6-0.1,0.9-0.1c0.4,0,0.9,0,1.3-0.1c0,0,0.6,0,0.6-0.1
				c0-0.1-0.5-0.1-0.6-0.1c-0.3,0-0.5,0.1-0.9,0.2c-0.1,0.1-0.3,0.2-0.4,0.2c-0.2,0.1-0.3,0.1-0.5-0.1c-0.3,0-0.4-0.1-0.2-0.2
				c0,0.2,0,0.3,0.1,0.5c0.1,0,0.1-0.1,0.2-0.1c0.3,0,0.3-0.5,0-0.5c-0.2,0-0.3,0-0.4,0.1c-0.1,0.1-0.2,0.4,0.1,0.5
				c0.5,0.1,0.9-0.4,0.3-0.7c-0.4-0.3-0.7,0-0.9,0.4c-0.1,0.9,0.7,1,1.4,0.7c0.3-0.1,0.5-0.2,0.7-0.3c0.3-0.1,0.6-0.1,1-0.1
				c0.2,0,0.5-0.1,0.7-0.3c0.3-0.6-0.5-0.6-1-0.6c-0.7,0-1.5,0.1-2.4,0.1C37.1,29.9,36.7,29.9,36.6,30.2c-0.2,0.2,0.1,1,0.4,1.1
				c0.4,0.1,1.4-0.3,1.8-0.4c0.7-0.2,1.5-0.4,2.2-0.6c0.3-0.1,0.2-0.5-0.1-0.5c-1.5,0-2.9,0-4.4,0C36.2,29.7,36.2,30.2,36.6,30.2
				L36.6,30.2z"/>
		</g>
	</g>
	<g>
		<g>
			<path d="M36.9,32.5c0.9,0,1.7,0,2.5,0c0.4,0,0.9,0.1,1.3,0.2c0.2,0.1,0.2,0,0-0.1c-0.2,0.1-0.4,0.2-0.7,0.3
				c-0.3,0.1-0.7,0.2-1.1,0.3c-0.1,0-1.7,0.3-1.4-0.3c0.1-0.2,1.3-0.2,1.5-0.2c0.2,0,1.5,0,0.5,0.2C39.1,33,38.9,33,38.6,33
				c-0.4,0.1-1.2,0.2-0.3,0c0.3-0.1,0.6-0.1,1-0.2c0.2,0.1,0.4,0,0.6-0.1c0,0,0,0-0.1,0c-0.4,0-0.7,0.1-1.2,0.2
				c-0.2,0-0.4,0.1-0.5,0.2c0,0.2,0.2,0.2,0.3,0.1c0.3,0,0.7-0.2,1.1-0.2s0.2-0.5-0.1-0.5c-0.5,0.1-2.4,0.2-1.6,1.2
				c0.1,0.1,0.2,0.1,0.2,0.1c0.7-0.2,1.5-0.3,2.2-0.5c0.2-0.1,0.4-0.1,0.4-0.3c0.1-0.7-1.1-0.6-1.5-0.5c-0.4,0.1-2.1,0-1.9,0.9
				c0.2,0.9,1.9,0.3,2.4,0.2c0.4-0.1,1.4-0.4,0.9-1.1C40.2,32,39.7,32,39.2,32c-0.6,0-1.2,0.2-1.7,0.2c-0.7,0-0.7,1-0.3,1.4
				c0.5,0.5,2,0,2.7-0.1c0.3-0.1,2-0.5,1.3-1.2C40.8,32,40,32,39.5,32c-0.9-0.1-1.8-0.1-2.7,0C36.4,31.9,36.4,32.5,36.9,32.5
				L36.9,32.5z"/>
		</g>
	</g>
</g>
<g>
	
		<rect x="38.8" y="16.3" transform="matrix(0.99 0.1409 -0.1409 0.99 4.5329 -6.1495)" fill="#808285" stroke="#000000" stroke-miterlimit="10" width="13.8" height="25.2"/>
	
		<rect x="41.1" y="20.9" transform="matrix(0.99 0.1409 -0.1409 0.99 4.5725 -6.1465)" stroke="#000000" stroke-miterlimit="10" width="9.1" height="16.6"/>
</g>
</svg>
