<?xml version="1.0" encoding="utf-8"?>
<!-- Generator: Adobe Illustrator 18.1.0, SVG Export Plug-In . SVG Version: 6.00 Build 0)  -->
<!DOCTYPE svg PUBLIC "-//W3C//DTD SVG 1.1//EN" "http://www.w3.org/Graphics/SVG/1.1/DTD/svg11.dtd">
<svg version="1.1" id="Layer_1" xmlns="http://www.w3.org/2000/svg" xmlns:xlink="http://www.w3.org/1999/xlink" x="0px" y="0px"
	 viewBox="0 0 600 600" enable-background="new 0 0 600 600" xml:space="preserve">
<path stroke="#000000" stroke-width="3.2142" stroke-miterlimit="10" d="M94,188.9c0-3,26.7-2.3,43.3-21.1c6.2-7,8.6-14.1,20-23.3
	c5.1-4.2,10.6-7.6,10-8.9c-1.1-2.3-18.2,6.2-21.1,2.2c-2.9-3.9,11-16.4,25.6-36.7c20.6-28.7,14.3-33.9,30-51.1
	c18.3-20,40.6-28,52.2-32.2c0,0,26.8-10.9,46.7-8.9c5,0.5,9.7,1.6,9.7,1.6s3.3,0.8,6.5,1.8c10.7,3.5,36.4,26.8,38.2,25.4
	c1-0.8-10.8-13.8-20.8-21.8C324.4,7.9,311,5,311.6,3.9c3.2-6.6,52.6,20.7,55.8,23.4c3.5,2.8-10.9-27.7-10.2-27.3
	c1.3,0.7,18.7,23.4,26.5,37.3c7.4,13.2,7,12.2,15.4,25C407,74,407.3,90,408.4,100c0.9,8.8,0.7,16.7,0.4,20.7
	c-0.4,6-1.2,10.5-1.6,12.5c-0.8,4.2-2.2,11.8-6,20.4c-2.2,5.2-4.8,9.6-6.2,11.9c0,0-0.7,1.2-1.5,2.4c-8.7,13.6-19,22.4-19,22.4
	c-4,3.4-14.7,14.5-29.8,18.4c-10.3,2.7-31.1,6.6-31.6,6.8c0,0,0.6-12,0.4-6.6c0,0.1,52.3-7.1,59.3-32.3c3-10.9-3.6-29,3.1-28.9
	c4,0.1,6.2,3.4,12.3,0.6c9.9-4.5,17.1-20.6,11.2-26.2c-3.4-3.2-10.8-1.9-15.6,1.1c-7.3,4.7-8,13.7-10,13.3c-2.5-0.4,2-14.7-5.6-26.7
	c-3-4.7-5.1-4.7-11.1-13.3c-3.6-5.2-5.5-8-6.7-12.2c-2.3-8.7,1.4-13.4-1.1-15.6c-3.2-2.8-10.6,4.2-22.2,7.8
	c-16.5,5.1-19.5-3.7-37.8,0c-12.9,2.6-10,6.7-34.4,15.6c-4.4,1.6-9.2,3.2-13.3,7.8c-6.5,7.2-6.7,16.7-6.7,17.8
	c0,8.7,4.3,15,3.3,15.6c-1.3,0.7-5.6-10.6-14.4-12.2c-4.2-0.8-9.6,0.7-12.2,4.4c-3.2,4.7-0.9,10.9,0,13.3
	c3.6,9.6,10.3,8.7,14.4,17.8c3,6.5,0,8,3.3,17.8c2.4,7,5.8,11.8,7.8,14.4c2.9,3.9,6.7,9.2,13.3,13.3c4.9,3.1,10.3,4.3,21.1,6.7
	c0,0,4.9-0.8,19.7,1.9c-0.6-3.7,0.8,9.2-0.8,12.6c-2.4,4.9-15.2,1.3-28.9,1.1c-8.8-0.1-6.1,1.4-50,12.2c0,0-17.8,4.4-34.8,5.5
	c0,0-0.1,0-0.1,0c-15.7,1-23.5,1.5-24,0.1c-0.7-2.5,21.5-15.4,20-12.2c-0.3,0.7-71.8-0.7-76.7-5.6c-5.9-5.9,46.7-31.2,38.9-31.1
	C132.4,193.4,93.9,199,94,188.9z"/>
<path fill="#593B2B" stroke="#593B2B" stroke-width="3.2142" stroke-miterlimit="10" d="M311.1,232.5c0,0,0.9-16.2,1.9-25.7
	c0,0,8.3,4.2,29.9-4.1c2.5-1,11.4-2.7,21.6-13.2c4.7-4.8,5.5-11.3,6.5-15.7c2-9-0.6-9.8-0.9-20.9c0,0-2.2-0.6,3.4-5.5
	c0.7-0.6,4.5-0.5,5.3-0.1c2,1,5.6,2.2,9.4,1c5.7-1.8,7.9-7.6,9.1-10.9c0.9-2.5,3.7-10,0-13.7c-2.7-2.7-7.8-2.1-10.9-0.9
	c-9.8,3.6-11.4,16-14.6,15.5c-2.7-0.4,3.2-6.5-0.2-20.9c-1-4.1-1.6-5.8-7.6-12.5c-4.4-4.9-8.6-11.3-12.1-16.6
	c-2.8-4.3-1.4-18.4-4.7-19.1c-6.5-1.4-8.2,5.8-20.9,10c-16,5.3-20-3.8-38.2,0c-9.3,1.9-5.7,3.8-34.6,16.4c-7,3.1-9.5,4.2-11.8,7.3
	c-8.5,11.5-0.8,28.9-2,30.6c-0.9,1.3-6.6-9.5-17.1-9.7c-3.6-0.1-9,1.2-10.9,4.6c-4.7,8.3,6.7,14.9,14.5,28.3
	c6,10.3,6.6,23.7,11.1,32.2c3.7,6.9,8.5,12.4,20.6,16.6c14.5,5,28,6.1,33.9,3c0,0,0,0,0,0c5.3,8.9,0.9,18.1,0.9,18.1
	c0,1.1-0.1,2.8-0.1,5c1.3,1,3.6,2.5,6.9,3.4c0.9,0.3,2,0.4,3.2,0.4C307.6,235.3,311.1,232.5,311.1,232.5z"/>
<path fill="#F9ED32" stroke="#000000" stroke-width="3.2142" stroke-miterlimit="10" d="M280.9,226.6c-3.7-2.9-9.1-1.8-17.4,0
	c-4,0.9-9.3,2-15.7,5.4c-9.7,5.1-14.4,11-23.3,17.9c-12.5,9.7-21.9,20.9-34.2,30.4c-0.2,0.1-10.4,5.5-21.7,14.6
	c-3.2,2.6-6.5,5.5-7.6,10.3c-1.1,5.2,0.7,11.6,3.8,12.5c2.1,0.6,3.1-1.8,9.2-5.4c4.2-2.5,7.7-4.5,11.9-4.3c4.4,0.2,4.8,2.6,8.1,2.7
	c6.3,0.3,14.4-9.1,19.1-12.3c4.3-3,9.9-5.6,16.7-12.1c3.4-3.2,4.5-5.7,6.5-5.4c3.2,0.5,2.4,7.3,8.1,16.3c3.7,5.8,4.1,6.4,5.9,11.4
	c1.6,4.4,2.4,17.8,0,26.5c0,0-1.9,0.7-2.4,9.1l-1.4,5.5c0.8,2,7.3-0.3,17.4,0c10.1,0.3,11.4,2.3,16.3,1.1c5.5-1.4,5.9-3.7,12.3-6.1
	c5.3-2,12.2-1.7,14-1.2c5.4,1.4,6.2,3,12.5,5.1c1.8,0.6,0.8-0.1,5.7,0.6c8.3,1.2,13.5,1.2,18.4,0.5c4.5-0.6,5.2-1.3,5.4-1.6
	c2.4-3-0.5-7.7-2.7-17.3c-0.7-3-2.7-10.2-0.5-19c0.9-3.4,3.6-6.6,8-14.8c5.3-9.8,4.6-10,6.3-15.1c0.9-2.7,1.1-2.6,9.2-10.7
	c8-7.9,7.4-6.8,11.7-11.7c3.7-4.2,14.3-15.4,16.5-19.3c1.6-2.8,24.8-39.9,29.5-45.2c2.6-2.9,18-30.2,18.7-31.4
	c4-6.5-13.2-1.8-11.3-1.9c9.3-0.6-2.7-4-10.6-6.3c-6.4-1.8-2.3-16.1-4.4-10.7c-3,7.6-10.7,21-17.8,31.8c-6,9.1-4.8,5.8-12.7,18.5
	c-7.1,11.4-17.2,21.9-20.6,25.3c-9.3,9.3-14.1,13.8-22.9,10.1c-3.6-1.5-7.5-2.7-15.7-4.3c-9.8-2-11.5-1.3-12.5-0.5
	c-3.5,2.6-0.6,7.3-4.3,11.9c-3.7,4.6-10.5,4.8-13,4.9c-2.6,0.1-8,0.2-11.9-3.3C282.6,234.9,285.2,229.9,280.9,226.6z"/>
<polygon fill="#2E3192" stroke="#000000" stroke-width="3.2142" stroke-miterlimit="10" points="285,260.1 264.4,281.3 285,311.1 
	326.7,311.1 347.3,281.8 326.2,260.1 "/>
<polygon fill="#FFFFFF" stroke="#000000" stroke-width="3.2142" stroke-miterlimit="10" points="279.6,281.3 292.6,300.2 
	317.2,300.2 332.2,281.3 325.1,272 287.7,272 "/>
<path fill="#F7941E" stroke="#000000" stroke-width="3.2142" stroke-miterlimit="10" d="M167.8,318.7c-0.9,3.6,3.4,10,11.4,17.9
	c17.2,17.1,19.5,14.8,26.6,23.9c6.9,8.8,8.2,15.4,17.9,22.2c4.2,3,7.1,4,9.8,3.3c5.3-1.5,7.1-9.4,8.1-14.1
	c1.2-5.4,2.7-11.9-1.1-16.8c-2.9-3.7-7.5-4.7-10.8-5.4c-7.4-1.6-9.2,1.1-13,0c-11.2-3.3-6.1-31.6-19.5-38
	c-5.5-2.6-11.5-2.2-14.6-1.3C179.5,311.1,169.2,313.5,167.8,318.7z"/>
<path fill="#F7941E" stroke="#000000" stroke-width="3.2142" stroke-miterlimit="10" d="M419.8,150.2c-4.8-12.2,25.4-21.1,25.5-36
	c0-7.5-6.5-9.8-5.2-18.5c1.2-8.7,8.7-13.6,9.5-14.1c6.7-4.3,17.5-5.6,22.1-0.3c2.9,3.3,2.4,8,2,11.7c-1.1,9.9-5.7,13.1-10.6,23.1
	c-2.1,4.4-0.9,3-10.1,33c-2.9,9.5-4.3,13.8-8.3,15.4c-5.8,2.2-14.2-0.3-16.1-1.7C426.3,161.2,421.9,155.8,419.8,150.2z"/>
<path fill="#F7941E" stroke="#000000" stroke-width="3.2142" stroke-miterlimit="10" d="M247.6,352.8c-1.1,4-2.2,8-3.3,11.9h35.2
	l3.8-13L247.6,352.8z"/>
<polygon fill="#F7941E" stroke="#000000" stroke-width="3.2142" stroke-miterlimit="10" points="322.9,352.4 322.9,366.9 
	354.9,364.8 351.1,351.7 "/>
<path fill="#2E3192" stroke="#000000" stroke-width="3.2142" stroke-miterlimit="10" d="M284.4,353.9c-0.5,0.8-4.1,7.6-1.1,14.1
	c4,8.4,15.6,8.6,17.9,8.7c2.6,0,15.3-0.1,20.1-9.8c0.2-0.4,3.8-7.8,0-14.6c-5.3-9.5-19.6-7.8-21.1-7.6
	C297.6,345.1,288.7,346.3,284.4,353.9z"/>
<path fill="#BE1E2D" stroke="#000000" stroke-width="3.2142" stroke-miterlimit="10" d="M293.1,356.1c-2.1,3.1-1.7,7.5,0.5,10.3
	c3.6,4.4,11.2,3.5,15.2,0c2.2-1.9,4.7-5.9,3.3-9.2c-1.4-3.3-5.7-4-7.6-4.3C302.8,352.6,296.2,351.5,293.1,356.1z"/>
<path fill="#F9ED32" stroke="#000000" stroke-width="3.2142" stroke-miterlimit="10" d="M244.3,366.9c0,0-3.3,9.2-6.3,19.6
	c-0.5,1.7-2.5,9.6-3.8,14.1c-7.9,27.9-6,55.9-9,58.7c-4.1,3.7-4.5,6.6-5.7,11.8c-1.4,6.4-1.4,9.9-1.6,15.8c-0.1,3-1.5,5.1-1.1,7
	c0.6,2.8,5.1,4,8.1,4.9c1.7,0.5,9,1.6,14.7,1.2c6.2-0.4,13.6-3.2,13.6-3.2v-2.1c0,0,0.6-7.3,1.9-11c3.8-10.9,8.9-18,15.8-26.1
	c21.8-25.1,23.1-38.5,27.9-40.2c0,0,8.9,13.4,33.3,42.9c7.4,9,13.3,15,13.6,24.4c0.1,5.5-1.7,10.8,1.6,14.1
	c0.7,0.7,2.1,1.7,10.3,2.2c14.8,0.8,19.3-1.8,20.6-2.7c1.5-1,4.2-2.8,4.3-5.4c0.1-2.5,0.5-4.5,0-7.5c-1.2-7.5-0.7-9.5-4.6-16.1
	c-1.7-2.9-2.9-6.9-4.5-10.4c-3.5-7.5,0.3-28.7-4.1-48.9c-2.4-11.1-0.4-20.1-4-23.6c-6.2-6.1-10.6-19.3-10.6-19.3s-28.9-1.2-31.9,0.9
	c-8,5.7-6.9,8.9-21.8,8.9c-12.9,0-17.9-8.7-21.4-9.7C268.4,363.8,244.3,366.9,244.3,366.9z"/>
<path stroke="#000000" stroke-width="3.2142" stroke-miterlimit="10" d="M212.9,505.8c0.1-5.2-0.2-9.6,2.2-10.8c1.3-0.7,2.6,0,6,1.1
	c3.9,1.2,8,2.6,11.9,2.7c6.5,0.2,18.5-1.2,19.5,0c3.6,4.1-3.9,16.3-9.2,24.9c-7.8,12.7-10.2,12.7-11.4,19c-1.1,5.6,0.7,6.8,0,19.5
	c-0.5,9.2-1.6,11.8-2.2,13c-1,2.2-2.7,4.7-10.8,11.4c-8.4,6.8-12.5,10.2-16.3,11.4c-1.1,0.3-13.4,4.1-22.2-2.7
	c-1.5-1.1-4.1-3.1-4.9-6.5c-0.3-1.3-1-5.4,6-14.1c7.1-8.9,11.6-9.5,20.6-19.5c3.5-3.9,5.2-5.9,6.5-8.7c2.9-6.4,0.8-9.3,1.6-21.7
	C210.9,513.6,212.6,515.5,212.9,505.8z"/>
<path stroke="#000000" stroke-width="3.2142" stroke-miterlimit="10" d="M352.8,514.4c-2.8-5.4-7.7-14.6-4.9-17.4
	c1.4-1.3,3.5,0,10.3,1.1c7.4,1.2,15.3,2.4,20.6-1.6c3.4-2.6,3.4-5.5,4.9-5.4c4.1,0.3,5.7,23,6,27.7c1.3,19.6-1.2,20.8,1.6,27.7
	c2.1,5,3.8,5.1,20.6,22.2c12.1,12.3,14.9,15.9,14.1,20.1c-1.1,6-8.9,9-10.8,9.8c-9.3,3.6-18-0.3-19.5-1.1
	c-5.1-2.4-4.5-4.3-15.2-13.6c-7.8-6.8-8.5-6.1-9.8-8.7c-2.4-5.1-0.2-8.5-0.5-21.7c-0.1-4.2-0.2-6.3-0.5-8.7
	C367.7,533.2,360.9,530,352.8,514.4z"/>
<path fill="#BE1E2D" stroke="#000000" stroke-width="3.2142" stroke-miterlimit="10" d="M390.9,248.1c0,0,2.8,3.2,11.4,8.7
	c7.2,4.7,22.2,16.2,35.2,35.8c12.3,18.4,10.6,26.1,26,46.1c11.9,15.4,19.8,19.7,22.8,21.1c12.1,6,25.4,6.6,32,6.5
	c13.9-0.3,18.8-4.2,21.7-1.1c5.1,5.4-2.9,25.2-16.3,37.4c-6.8,6.2-16.6,11-36.3,20.6c-10.4,5.1-9.4,4.1-12.5,6
	c-18.2,11.2-16.1,23.1-29.8,32.5c-11.9,8.2-13.4,10-38,9.8c-14.4-0.1-23,10-25.4,6.5c-0.5-0.8-1.3-0.9-3.5-5.3
	c-2.7-5.4-4.1-9.2-6.7-14.7c-2.3-4.9,3.9-22.8-1.9-46.6c-2.6-10.6-5.9-21.6-9.8-30.2c-6-13.1-1.4-3.4-6-13.1
	c-3.4-7.4-8.4-32.3-10.2-37.8c-4.2-13.1,13.6-39.5,13.2-46.1c-0.1-2.1,14-14.7,24-25.1C385,255,389.6,249.6,390.9,248.1z"/>
<path fill="#BE1E2D" stroke="#000000" stroke-width="3.2142" stroke-miterlimit="10" d="M342.5,477c-1.3,1.4-26.4-9-42.5-8.1
	c-24.2,1.3-41,13.1-43.2,10.3c-2.4-3.1,8.9-10.3,21.9-29.4c6-8.9,17.8-32.4,20.4-32.5c2.4,0,13.1,17.7,24.1,31.1
	C334.4,462.1,343.5,475.9,342.5,477z"/>
<path fill="#BE1E2D" stroke="#000000" stroke-width="3.2142" stroke-miterlimit="10" d="M218.3,467.3c-6.3,6.7-14.2-9.1-29.8-14.6
	c-15.6-5.5-19.3,3-32.5-1.6c-19-6.6-14.1-24.9-36.3-38c-3.8-2.2-15.2-5.8-38-13c-18.9-6-21.6-6.3-22.8-9.2
	c-4.2-10.7,25-22.9,54.2-60.7c16.9-21.8,15-27.8,32-44.5c11-10.8,20.9-17.1,40.7-29.8c15.8-10.2,27.1-16,40.7-20.1
	c7.9-2.4,23.9-3.3,23.9-3.3s-7.3,7-22.8,18.4c-22.3,16.6-18.5,16.8-35.8,29.3c-19.2,13.8-28.7,17-29.8,26.6c-0.6,5,1.4,8.9,4.3,14.6
	c4.9,9.6,9.7,11.7,23.9,25.5c11.5,11.2,17.3,16.8,20.6,21.7c4.4,6.5,6.8,11.9,13.6,15.2c6.8,3.3,13.7-1.1,13,3.3
	c-0.9,6-8.3,20.2-9,48.3c-0.2,6.6-0.6,13.8-2.1,22C225.3,461.8,222,463.2,218.3,467.3z"/>
<g>
	<path fill="#BE1E2D" stroke="#000000" stroke-width="3.2142" stroke-miterlimit="10" d="M239,281.6c-5.7-4.2-5.9,3.4-20.9,13.7
		c-11.1,7.6-19.4,9.5-19.3,13.1c0.1,2.5,0.1,2.5,3.1,7.3c5.7,9,3.2,24.8,11.7,32.2c5.9,5.1,15-2.2,22.8,3.9
		c7,5.4,8.1,13.5,10.4,13.1c2-0.3,2.4-7.2,3-12.9c0.9-8.7,4.3-14.8,5.3-19.9c1.8-8.8,1.3-16,0.7-18.9c-0.5-2.6-4.4-7.3-7-14.9
		C246.8,291.8,241.4,283.3,239,281.6z"/>
</g>
<path fill="#FFF200" stroke="#000000" stroke-width="3.2142" stroke-miterlimit="10" d="M285.4,227.1c0.2-0.2,0,0.9,2.7-0.4
	c2.2-1.1,1.9-0.9,1.9-0.9s-0.1,3.3,0.9,6.1c1.4,3.8,6.6,5.4,8.4,5.6c1.9,0.3,9.5,0.4,11.8-3c1.9-2.7,1.8-8.8,1.8-8.8h6.8
	c0,0-1.5,9.5-4.3,12.7c-3.5,4-7.7,4.5-10.6,4.9c-2.8,0.3-9.2,1-14.3-3.1C285.8,236.4,283.7,228.9,285.4,227.1z"/>
<path fill="none" stroke="#3C2415" stroke-width="3.2142" stroke-miterlimit="10" d="M381.3,139.1c-0.5-0.7,1.3-3.5,3.8-4.7
	c2.8-1.4,6.4-0.9,6.6,0C392.1,136,382.3,140.5,381.3,139.1z"/>
<path fill="none" stroke="#3C2415" stroke-width="3.2142" stroke-miterlimit="10" d="M233.6,141c0.4-0.8-3-3.8-6.9-5
	c-3.3-1-7.4-0.8-7.6,0C218.8,137.7,232.9,142.5,233.6,141z"/>
<g>
	<path fill="#FFFFFF" stroke="#000000" stroke-width="3.2142" stroke-miterlimit="10" d="M255.2,144.4c3,1.8,5.8-3,13.9-3
		c7.5,0,10.5,4.1,12.9,2.3c3-2.2,0.3-10.3-3-19.8c-2.6-7.6-4.7-10.8-7.9-12.9c-1.3-0.9-3.9-2.6-6.6-2c-1.3,0.3-4.3,1.4-7.6,10.6
		C256.3,121.1,249.4,140.9,255.2,144.4z"/>
	<path fill="#3C2415" stroke="#000000" stroke-width="3.2142" stroke-miterlimit="10" d="M259.6,139.1c-4.3-5.7-1.8-12.7-1.3-13.9
		c0.2-0.5,3.7-9.1,9.9-8.9c5.7,0.2,8.8,7.8,9.3,8.9c2.3,5.6-1.5,17.1-9.1,16.5C263.2,141.3,263,143.5,259.6,139.1z"/>
	<path fill="#603913" stroke="#000000" stroke-width="3.2142" stroke-miterlimit="10" d="M268.6,141.3c-3.5-0.3-4.7-0.8-4.9-4.9
		c-0.1-1.8,1-6.7,4.4-6.7c3.4,0,4.6,1.2,4.8,5.7C273.1,138.6,272,141.6,268.6,141.3z"/>
</g>
<path fill="none" stroke="#000000" stroke-width="3.2142" stroke-miterlimit="10" d="M313.1,96c5.1-1.6,15.2,0,22.7,8.7"/>
<path fill="none" stroke="#000000" stroke-width="3.2142" stroke-miterlimit="10" d="M255.2,104.7c0-4.8,10.2-8.7,22.9-8.7"/>
<line fill="none" stroke="#000000" stroke-width="3.2142" stroke-miterlimit="10" x1="325.3" y1="103.6" x2="325.3" y2="103.6"/>
<g>
	<path fill="none" stroke="#3C2415" stroke-width="3.2142" stroke-miterlimit="10" d="M294.8,160.4c-0.6-0.4-4.4-2.7-8.6-1.3
		c-3.7,1.2-7.3,5.2-6.6,9.4c0.6,3.2,3.3,5.3,5.8,6.1c3.2,1,6.9,0,9.4-2.5"/>
</g>
<path fill="none" stroke="#BE1E2D" stroke-width="3.2142" stroke-miterlimit="10" d="M251.1,180c1.4-2.2,5.5-4.3,5.5-4.3
	s3.4,4.6,5.9,7.7c8,10.4,19.7,13.3,23.7,14.1c6.3,1.3,11.4,0.7,16.2,0.2c3.7-0.4,9.6-0.5,16.2-3.9c3.5-1.8,7.1-3.7,12.3-7.3
	c5.7-4,6.5-5.5,6.5-5.5c3.8-3.7,4.9-4.6,4.9-4.6s2,2.3,2.7,3.9"/>
<g>
	<path fill="#FFFFFF" stroke="#000000" stroke-width="3.2142" stroke-miterlimit="10" d="M310.2,144.4c3,1.8,5.8-3,13.9-3
		c7.5,0,10.5,4.1,12.9,2.3c3-2.2,0.3-10.3-3-19.8c-2.6-7.6-4.7-10.8-7.9-12.9c-1.3-0.9-3.9-2.6-6.6-2c-1.3,0.3-4.3,1.4-7.6,10.6
		C311.2,121.1,304.3,140.9,310.2,144.4z"/>
	<path fill="#3C2415" stroke="#000000" stroke-width="3.2142" stroke-miterlimit="10" d="M314.6,139.1c-4.3-5.7-1.8-12.7-1.3-13.9
		c0.2-0.5,3.7-9.1,9.9-8.9c5.7,0.2,8.8,7.8,9.3,8.9c2.3,5.6-1.5,17.1-9.1,16.5C318.2,141.3,317.9,143.5,314.6,139.1z"/>
	<path fill="#603913" stroke="#000000" stroke-width="3.2142" stroke-miterlimit="10" d="M323.5,141.3c-3.5-0.3-4.7-0.8-4.9-4.9
		c-0.1-1.8,1-6.7,4.4-6.7c3.4,0,4.6,1.2,4.8,5.7C328,138.6,327,141.6,323.5,141.3z"/>
</g>
</svg>
