<?xml version="1.0" encoding="utf-8"?>
<!-- Generator: Adobe Illustrator 18.1.0, SVG Export Plug-In . SVG Version: 6.00 Build 0)  -->
<!DOCTYPE svg PUBLIC "-//W3C//DTD SVG 1.1//EN" "http://www.w3.org/Graphics/SVG/1.1/DTD/svg11.dtd">
<svg version="1.1" id="Layer_1" xmlns="http://www.w3.org/2000/svg" xmlns:xlink="http://www.w3.org/1999/xlink" x="0px" y="0px"
	 viewBox="0 0 600 600" enable-background="new 0 0 600 600" xml:space="preserve">
<g>
	<path stroke="#000000" stroke-width="3.0178" stroke-miterlimit="10" d="M93.6,188.9c0-2.9,26.7-2.2,43.5-21.2
		c6.1-7,8.7-14.2,19.9-23.4c5.1-4.2,10.6-7.7,10-9.1c-1-2.2-18.3,6.1-21.2,2.2c-2.9-3.8,11-16.4,25.8-36.6
		c20.6-28.6,14.5-34.1,29.9-51.1c18.3-19.9,40.5-28,52.1-32.2c0,0,26.7-11,46.7-9.1c4.8,0.6,9.7,1.6,9.7,1.6s3.2,0.6,6.4,1.9
		c10.6,3.5,36.3,26.7,38.2,25.5c1-1-11-13.8-20.9-21.8s-23.1-11-22.8-11.9c3.2-6.7,52.7,20.6,55.9,23.4c3.5,2.9-11-27.7-10.3-27.4
		c1.3,0.6,18.6,23.4,26.7,37.3c7.4,13.2,7,12.2,15.4,25c7.7,11.6,8,27.7,9.1,37.6c1,8.7,0.6,16.7,0.3,20.6
		c-0.3,6.1-1.3,10.6-1.6,12.6c-0.6,4.2-2.2,11.9-6.1,20.6c-2.2,5.1-4.8,9.7-6.1,11.9c0,0-0.6,1.3-1.6,2.6c-8.7,13.5-19,22.5-19,22.5
		c-4.2,3.5-14.8,14.5-29.9,18.3c-10.3,2.6-31.2,6.7-31.5,6.7c0,0,0.6-11.9,0.3-6.4c0,0,52.4-7,59.1-32.5c2.9-11-3.5-29,3.2-29
		c3.8,0,6.1,3.5,12.2,0.6c10-4.5,17-20.6,11.3-26.1c-3.2-3.2-11-1.9-15.4,1c-7.4,4.8-8,13.5-10,13.2c-2.6-0.3,1.9-14.8-5.4-26.7
		c-2.9-4.8-5.1-4.8-11.3-13.2c-3.5-5.1-5.4-8-6.7-12.2c-2.2-8.7,1.3-13.5-1-15.4c-3.2-2.9-10.6,4.2-22.2,7.7
		c-16.4,5.1-19.6-3.5-37.9,0c-12.9,2.6-10,6.7-34.4,15.4c-4.5,1.6-9.4,3.2-13.2,7.7c-6.4,7.4-6.7,16.7-6.7,17.7
		c0,8.7,4.2,15.1,3.2,15.4c-1.3,0.6-5.4-10.6-14.5-12.2c-4.2-0.6-9.7,0.6-12.2,4.5c-3.2,4.8-1,11,0,13.2c3.5,9.7,10.3,8.7,14.5,17.7
		c2.9,6.4,2.9,4.5,6.1,14.2c2.2,7,2.8,15.4,4.7,18c2.9,3.8,6.7,9.4,13.2,13.2c4.8,3.2,10.3,4.2,21.2,6.7c0,0,4.8-0.6,19.6,1.9
		c-0.6-3.5,2.8,9.9,1.2,13.1c-2.2,4.8-17.3,0.7-31.2,0.4c-9.1,0-6.1,1.3-50.2,12.2c0,0-17.7,4.5-34.7,5.4l0,0
		c-15.8,1-23.4,1.6-24.1,0c-0.6-2.6,21.5-15.4,19.9-12.2c-0.3,0.6-71.7-0.6-76.9-5.4c-5.8-5.8,46.7-31.2,38.9-31.2
		C131.8,193.4,93.6,198.9,93.6,188.9z"/>
	<path fill="#583B2B" stroke="#583B2B" stroke-width="3.0178" stroke-miterlimit="10" d="M310.6,234.5c0,0,1-18.3,1.9-28
		c0,0,8.3,4.2,29.9-4.2c2.6-1,11.3-2.6,21.5-13.2c4.8-4.8,5.4-11.3,6.4-15.8c1.9-9.1-0.6-10-1-20.9c0,0-2.2-0.6,3.5-5.4
		c0.6-0.6,4.5-0.6,5.4,0c1.9,1,5.4,2.2,9.4,1c5.8-1.6,7.7-7.7,9.1-11c1-2.6,3.5-10,0-13.5c-2.6-2.6-7.7-1.9-11-1
		c-10,3.5-11.3,16.1-14.5,15.4c-2.6-0.3,3.2-6.4-0.3-20.9c-1-4.2-1.6-5.8-7.7-12.6c-4.5-4.8-8.7-11.3-11.9-16.7
		c-2.9-4.2-1.3-18.3-4.8-19.3c-6.4-1.3-8,5.8-20.9,10c-16.1,5.4-19.9-3.8-38.2,0c-9.4,1.9-5.8,3.8-34.7,16.4
		c-7,3.2-9.7,4.2-11.9,7.4c-8.3,11.6-1,29-1.9,30.6c-1,1.3-6.4-9.7-17-9.7c-3.5,0-9.1,1.3-11,4.5c-4.8,8.3,6.7,14.8,14.5,28.3
		c6.1,10.3,6.7,23.8,11.3,32.2c3.5,7,8.3,12.2,20.6,16.7c14.5,5.1,28,6.1,33.8,2.9l0,0c5.4,9.1,1,18,1,18c0,1-1.6,3.5-1.6,5.8
		c1.3,1,5.2,4,8.4,4.7c1,0.3,1.7,0,3,0C306.9,237,310.6,234.5,310.6,234.5z"/>
	<path fill="#F9ED32" stroke="#000000" stroke-width="3.0178" stroke-miterlimit="10" d="M283.3,227.5c-3.8-2.9-9.1-1.6-17.4,0
		c-3.8,1-9.4,1.9-15.8,5.4c-9.7,5.1-14.5,11-23.4,18c-12.6,9.7-21.8,20.9-34.1,30.2c-0.3,0-10.3,5.4-21.5,14.8
		c-3.2,2.6-6.4,5.4-7.7,10.3c-1.3,5.1,0.6,11.6,3.8,12.6c1.9,0.6,3.2-1.9,9.4-5.4c4.2-2.6,7.7-4.5,11.9-4.2c4.5,0.3,4.8,2.6,8,2.6
		c6.1,0.3,13.8-10.6,18.6-13.8c4.2-2.9,10.3-4.2,17-10.6c3.2-3.2,4.5-5.8,6.4-5.4c3.2,0.3,2.6,7.4,8,16.4c3.5,5.8,4.2,6.4,5.8,11.6
		c1.6,4.5,2.6,17.7,0,26.7c0,0-1.9,0.6-2.2,9.1l-1.3,5.4c1,1.9,7.4-0.3,17.4,0s11.3,2.2,16.4,1c5.4-1.3,5.8-3.8,12.2-6.1
		c5.4-1.9,12.2-1.6,13.8-1.3c5.4,1.3,6.1,2.9,12.6,5.1c1.9,0.6,1,0,5.8,0.6c8.3,1.3,13.5,1.3,18.3,0.6c4.5-0.6,5.1-1.3,5.4-1.6
		c2.2-2.9-2.2-7.7-4.2-17.4c-0.6-2.9-2.6-11.3,0-19.9c1.6-5.4,3.2-5.1,7-13.5c5.1-11.3,3.8-14.8,7-16.4c3.8-1.6,10.6,3.5,23.8,14.2
		c11,8.3,13.8,11.9,19.9,12.6c3.5,0.3,6.1-0.3,11,1c2.2,0.6,7,2.2,10.3,6.4c2.6,3.2,2.6,5.4,3.8,5.4c2.2,0,4.2-5.1,4.8-9.4
		c0.3-1.3,0.6-4.8-0.6-8.7c-1.9-6.4-7-9.7-11.9-12.9c0,0-1.6-1.3-24.4-18c-9.7-7-7.7-6.4-19.6-15.1c-12.2-9.1-13.2-9.1-18-13.5
		c-7-6.7-7.4-9.4-12.9-12.6c-3.5-1.9-7.4-2.6-15.8-4.2c-10-1.9-11.6-1.3-12.6-0.6c-3.5,2.6-0.6,7.4-4.2,11.9
		c-3.8,4.5-10.6,4.8-12.9,4.8c-2.6,0-8,0.3-11.9-3.2C285.2,235.8,287.8,230.7,283.3,227.5z"/>
	<polygon fill="#2E3192" stroke="#000000" stroke-width="3.0178" stroke-miterlimit="10" points="284.6,260 264,281.2 284.6,311.1 
		326.4,311.1 347,281.8 325.8,260 	"/>
	<polygon fill="#FFFFFF" stroke="#000000" stroke-width="3.0178" stroke-miterlimit="10" points="279.1,281.2 292,300.2 
		316.7,300.2 331.8,281.2 324.7,271.8 287.1,271.8 	"/>
	<path fill="#F7941E" stroke="#000000" stroke-width="3.0178" stroke-miterlimit="10" d="M167.2,318.5c-1,3.5,3.5,10,11.3,18
		c17,17,19.6,14.8,26.7,23.8c7,8.7,8.3,15.4,18,22.2c4.2,2.9,7,3.8,9.7,3.2c5.1-1.6,7-9.4,8-14.2c1.3-5.4,2.6-11.9-1-16.7
		c-2.9-3.8-7.4-4.8-11-5.4c-7.4-1.6-9.4,1-12.9,0c-11.3-3.2-6.1-31.5-19.6-37.9c-5.4-2.6-11.6-2.2-14.5-1.3
		C179.1,311.1,168.8,313.7,167.2,318.5z"/>
	<path fill="#F7941E" stroke="#000000" stroke-width="3.0178" stroke-miterlimit="10" d="M406.4,309.5c-13.2,1-8,32.2-21.5,38.6
		c-6.7,3.2-11.6-1.6-19,3.2s-8.7,13.8-8.7,14.8c-1,8,2.6,18.3,9.4,19.9c4.2,1.3,8.3-1.3,11.3-3.2c8.3-5.4,9.4-11,16.4-19.6
		c2.9-3.8,2.2-2.2,25.5-23.4c7.4-6.7,10.6-10,10.3-14.2c-0.3-6.1-6.4-12.6-8.3-13.8C419,310.5,412.3,308.9,406.4,309.5z"/>
	<path fill="#F7941E" stroke="#000000" stroke-width="3.0178" stroke-miterlimit="10" d="M247,352.9c-1,3.8-2.2,8-3.2,11.9h35.4
		l3.8-12.9L247,352.9z"/>
	<polygon fill="#F7941E" stroke="#000000" stroke-width="3.0178" stroke-miterlimit="10" points="322.5,352.6 322.5,367 
		354.3,364.8 350.8,351.6 	"/>
	<path fill="#2E3192" stroke="#000000" stroke-width="3.0178" stroke-miterlimit="10" d="M283.9,353.8c-0.3,1-4.2,7.7-1,14.2
		c3.8,8.3,15.8,8.7,18,8.7c2.6,0,15.1,0,19.9-9.7c0.3-0.3,3.8-7.7,0-14.8c-5.1-9.7-19.6-7.7-21.2-7.7
		C297.1,345.2,288.4,346.2,283.9,353.8z"/>
	<path fill="#BE1E2D" stroke="#000000" stroke-width="3.0178" stroke-miterlimit="10" d="M292.6,356.1c-1.9,3.2-1.6,7.4,0.6,10.3
		c3.5,4.5,11.3,3.5,15.1,0c2.2-1.9,4.5-5.8,3.2-9.4c-1.3-3.2-5.8-4.2-7.7-4.2C302.2,352.6,295.8,351.3,292.6,356.1z"/>
	<path fill="#F9ED32" stroke="#000000" stroke-width="3.0178" stroke-miterlimit="10" d="M243.8,367c0,0-3.2,9.1-6.1,19.6
		c-0.6,1.6-2.6,9.7-3.8,14.2c-8,28-6.1,55.9-9.1,58.8c-4.2,3.8-4.5,6.4-5.8,11.9c-1.3,6.4-1.3,10-1.6,15.8c0,2.9-1.6,5.1-1,7
		c0.6,2.9,5.1,4.2,8,4.8c1.6,0.6,9.1,1.6,14.8,1.3c6.1-0.3,13.5-3.2,13.5-3.2v-2.2c0,0,0.6-7.4,1.9-11c3.8-11,9.1-18,15.8-26.1
		c21.8-25,23.1-38.6,28-40.2c0,0,9.1,13.5,33.4,43.1c7.4,9.1,13.2,15.1,13.5,24.4c0,5.4-1.6,11,1.6,14.2c0.6,0.6,1.9,1.6,10.3,2.2
		c14.8,1,19.3-1.9,20.6-2.6c1.6-1,4.2-2.9,4.2-5.4s0.6-4.5,0-7.4c-1.3-7.4-0.6-9.4-4.5-16.1c-1.6-2.9-2.9-6.7-4.5-10.3
		c-3.5-7.4,0.3-28.6-4.2-48.9c-2.6-11.3-0.3-20.2-4.2-23.8c-6.1-6.1-10.6-19.3-10.6-19.3s-29-1.3-31.8,1c-8,5.8-6.7,9.1-21.8,9.1
		c-12.9,0-18-8.7-21.5-9.7C267.8,363.9,243.8,367,243.8,367z"/>
	<path stroke="#000000" stroke-width="3.0178" stroke-miterlimit="10" d="M212.2,505.9c0-5.1-0.3-9.7,2.2-11c1.3-0.6,2.6,0,6.1,1
		c3.8,1.3,8,2.6,11.9,2.6c6.4,0.3,18.6-1.3,19.6,0c3.5,4.2-3.8,16.4-9.4,25c-7.7,12.6-10.3,12.9-11.3,19c-1,5.8,0.6,6.7,0,19.6
		c-0.6,9.4-1.6,11.9-2.2,12.9c-1,2.2-2.6,4.8-11,11.3c-8.3,6.7-12.6,10.3-16.4,11.3c-1,0.3-13.5,4.2-22.2-2.6
		c-1.6-1-4.2-3.2-4.8-6.4c-0.3-1.3-1-5.4,6.1-14.2c7-9.1,11.6-9.4,20.6-19.6c3.5-3.8,5.1-5.8,6.4-8.7c2.9-6.4,0.6-9.4,1.6-21.5
		C210.3,513.7,212.2,515.6,212.2,505.9z"/>
	<path stroke="#000000" stroke-width="3.0178" stroke-miterlimit="10" d="M352.4,514.7c-2.9-5.4-7.7-14.8-4.8-17.4
		c1.3-1.3,3.5,0,10.3,1c7.4,1.3,15.4,2.2,20.6-1.6c3.5-2.6,3.5-5.4,4.8-5.4c4.2,0.3,5.8,22.8,6.1,27.7c1.3,19.6-1.3,20.9,1.6,27.7
		c1.9,4.8,3.8,5.1,20.6,22.2c12.2,12.2,14.8,16.1,14.2,19.9c-1,6.1-9.1,9.1-11,9.7c-9.4,3.5-18-0.3-19.6-1
		c-5.1-2.6-4.5-4.2-15.1-13.5c-7.7-6.7-8.3-6.1-9.7-8.7c-2.6-5.1-0.3-8.3-0.6-21.5c0-4.2,0-6.4-0.6-8.7
		C367.2,533.3,360.5,530.1,352.4,514.7z"/>
	<path fill="#BE1E2D" stroke="#000000" stroke-width="3.0178" stroke-miterlimit="10" d="M353,234.5c0,0,28.3,5.8,49.8,21.2
		c7,5.1,22.2,16.1,35.4,35.7c12.2,18.3,10.6,26.1,26.1,46c11.9,15.4,19.9,19.6,22.8,21.2c12.2,6.1,25.5,6.7,32.2,6.4
		c13.8-0.3,19-4.2,21.5-1c5.1,5.4-2.9,25-16.4,37.3c-6.7,6.1-16.7,11-36.3,20.6c-10.3,5.1-9.4,4.2-12.6,6.1
		c-18.3,11.3-16.1,23.1-29.9,32.5c-11.9,8-13.5,10-37.9,9.7c-14.5,0-23.8,8.7-26.7,5.8c-2.6-2.6,1,3.5-2.2-4.5
		c-1.9-5.8-4.2-9.4-6.7-14.8c-2.2-4.8,3.8-22.8-1.9-46.7c-2.6-10.6-3.2-22.5-3.2-22.5s5.8-1.6,11.9-4.5c8-3.8,10.3-11,15.1-19
		c12.6-20.6,24.7-16.7,36.3-37.3c3.8-7,7.4-13.2,6.1-20.6c-1.3-6.7-5.8-11-23.8-25c-12.6-9.7-18-14.8-26.1-19.6
		C369.8,252.2,351.8,235.8,353,234.5z"/>
	<g>
		<path fill="#27AAE1" stroke="#000000" stroke-width="3.0178" stroke-miterlimit="10" d="M359.9,282.8c5.8-4.2,10.3,2.6,25,12.9
			c11,7.7,19.3,10,19,13.5c0,2.6-2.9,1.6-4.8,6.7c-3.5,10-3.2,23.1-11.9,30.2c-6.1,4.8-14.2-1.3-22.2,4.5c-7,5.1-8,13.8-10.3,13.5
			c-1.9-0.3-2.2-7-2.6-12.9c-0.6-8.7-3.8-14.8-4.8-19.9c-1.6-8.7-1-16.1-0.3-19c0.6-2.6,4.5-7,7.4-14.8
			C356.2,291.8,357.5,284.4,359.9,282.8z"/>
	</g>
	<path fill="#BE1E2D" stroke="#000000" stroke-width="3.0178" stroke-miterlimit="10" d="M342.1,477c-1.3,1.3-26.4-9.1-42.5-8
		c-24.1,1.3-41.1,13.2-43.1,10.3c-2.2-3.2,9.1-10.3,21.8-29.3c6.1-9.1,17.7-32.5,20.6-32.5c2.2,0,13.2,17.7,24.1,31.2
		C334.1,462.3,343.1,476,342.1,477z"/>
	<path fill="#BE1E2D" stroke="#000000" stroke-width="3.0178" stroke-miterlimit="10" d="M217.7,467.4c-6.4,6.7-14.2-9.1-29.9-14.8
		c-15.4-5.4-19.3,2.9-32.5-1.6c-19-6.4-14.2-24.7-36.3-37.9c-3.8-2.2-15.1-5.8-37.9-12.9c-19-6.1-21.5-6.1-22.8-9.4
		c-4.2-10.6,25-22.8,54.3-60.8c16.7-21.8,15.1-28,32.2-44.4c11-11,20.9-17.4,40.5-29.9c15.8-10.3,27.1-16.1,40.8-19.9
		c8-2.2,23.8-3.2,23.8-3.2s-7.4,7-22.8,18.3c-22.2,16.7-18.6,16.7-35.7,29.3c-19.3,13.8-28.6,17-29.9,26.7
		c-0.6,4.8,1.3,9.1,4.2,14.8c4.8,9.7,9.7,11.9,23.8,25.5c11.6,11.3,17.4,16.7,20.6,21.5c4.5,6.4,6.7,11.9,13.5,15.1
		c6.7,3.2,13.8-1,12.9,3.2c-1,6.1-8.3,20.2-9.1,48.2c0,6.7-0.6,13.8-2.2,21.8C224.8,461.9,221.5,463.2,217.7,467.4z"/>
	<g>
		<path fill="#BE1E2D" stroke="#000000" stroke-width="3.0178" stroke-miterlimit="10" d="M359.9,282.8c5.8-4.2,10.3,2.6,25,12.9
			c11,7.7,19.3,10,19,13.5c0,2.6-2.9,1.6-4.8,6.7c-3.5,10-3.2,23.1-11.9,30.2c-6.1,4.8-14.2-1.3-22.2,4.5c-7,5.1-8,13.8-10.3,13.5
			c-1.9-0.3-2.2-7-2.6-12.9c-0.6-8.7-3.8-14.8-4.8-19.9c-1.6-8.7-1-16.1-0.3-19c0.6-2.6,4.5-7,7.4-14.8
			C356.2,291.8,357.5,284.4,359.9,282.8z"/>
	</g>
	<g>
		<path fill="#BE1E2D" stroke="#000000" stroke-width="3.0178" stroke-miterlimit="10" d="M242.8,282.8c-5.8-4.2-10.3,2.2-25.5,12.6
			c-11.3,7.7-19.3,9.4-19.3,13.2c0,2.6,0,2.6,3.2,7.4c5.8,9.1,3.2,24.7,11.9,32.2c5.8,5.1,15.1-2.2,22.8,3.8c7,5.4,8,13.5,10.3,13.2
			c1.9-0.3,2.6-7,2.9-12.9c1-8.7,4.2-14.8,5.4-19.9c1.6-8.7,1.3-16.1,0.6-19c-0.6-2.6-4.5-7.4-7-14.8
			C246.3,291.8,245.4,284.4,242.8,282.8z"/>
	</g>
	<path stroke="#000000" stroke-width="3.0178" stroke-miterlimit="10" d="M284.9,226.9c0-0.3,0,1,2.6-0.3c2.2-1.3,1.9-1,1.9-1
		s0,3.2,1,6.1c1.3,3.8,6.4,5.4,8.3,5.8c1.9,0.3,9.4,0.3,11.9-2.9c1.9-2.6,1.9-8.7,1.9-8.7h6.7c0,0-1.6,9.4-4.2,12.6
		c-3.5,4.2-7.7,4.5-10.6,4.8c-2.9,0.3-9.1,1-14.2-3.2C285.2,236.5,283.3,228.8,284.9,226.9z"/>
	<path fill="none" stroke="#3C2415" stroke-width="3.0178" stroke-miterlimit="10" d="M381.1,139.1c-0.6-0.6,1.3-3.5,3.8-4.8
		c2.9-1.3,6.4-1,6.7,0C391.6,135.8,382,140.4,381.1,139.1z"/>
	<path fill="none" stroke="#3C2415" stroke-width="3.0178" stroke-miterlimit="10" d="M233.1,141c0.3-0.6-2.9-3.8-7-4.8
		c-3.2-1-7.4-1-7.7,0C218.3,137.4,232.5,142.3,233.1,141z"/>
	<g>
		<path fill="#FFFFFF" stroke="#000000" stroke-width="3.0178" stroke-miterlimit="10" d="M254.6,144.2c2.9,1.6,5.8-2.9,13.8-2.9
			c7.4,0,10.6,4.2,12.9,2.2c2.9-2.2,0.3-10.3-2.9-19.9c-2.6-7.7-4.8-10.6-8-12.9c-1.3-1-3.8-2.6-6.7-1.9c-1.3,0.3-4.2,1.3-7.7,10.6
			C255.9,121,248.9,141,254.6,144.2z"/>
		<path fill="#603913" stroke="#000000" stroke-width="3.0178" stroke-miterlimit="10" d="M259.2,139.1c-4.5-5.8-1.9-12.9-1.3-13.8
			c0.3-0.3,3.8-9.1,10-9.1c5.8,0.3,8.7,7.7,9.4,9.1c2.2,5.4-1.6,17-9.1,16.4C262.7,141.3,262.4,143.3,259.2,139.1z"/>
		<path fill="#726658" stroke="#000000" stroke-width="3.0178" stroke-miterlimit="10" d="M268.2,141.3c-3.5-0.3-4.8-1-4.8-4.8
			c0-1.9,1-6.7,4.5-6.7s4.5,1.3,4.8,5.8C272.6,138.4,271.7,141.7,268.2,141.3z"/>
	</g>
	<path fill="none" stroke="#000000" stroke-width="3.0178" stroke-miterlimit="10" d="M312.6,96c5.1-1.6,15.1,0,22.8,8.7"/>
	<path fill="none" stroke="#000000" stroke-width="3.0178" stroke-miterlimit="10" d="M254.6,104.6c0-4.8,10.3-8.7,22.8-8.7"/>
	<line fill="none" stroke="#000000" stroke-width="3.0178" stroke-miterlimit="10" x1="324.7" y1="103.3" x2="324.7" y2="103.3"/>
	<g>
		<path fill="none" stroke="#3C2415" stroke-width="3.0178" stroke-miterlimit="10" d="M294.6,160.3c-0.6-0.3-4.5-2.6-8.7-1.3
			c-3.8,1.3-7.4,5.1-6.7,9.4c0.6,3.2,3.2,5.4,5.8,6.1c3.2,1,6.7,0,9.4-2.6"/>
	</g>
	<path fill="none" stroke="#BE1E2D" stroke-width="3.0178" stroke-miterlimit="10" d="M250.5,179.9c1.3-2.2,5.4-4.2,5.4-4.2
		s3.5,4.5,5.8,7.7c8,10.3,19.6,13.2,23.8,14.2c6.4,1.3,11.3,0.6,16.1,0.3c3.8-0.3,9.7-0.6,16.1-3.8c3.5-1.9,7-3.5,12.2-7.4
		c5.8-3.8,6.4-5.4,6.4-5.4c3.8-3.8,4.8-4.5,4.8-4.5s1.9,2.2,2.6,3.8"/>
	<g>
		<path fill="#FFFFFF" stroke="#000000" stroke-width="3.0178" stroke-miterlimit="10" d="M309.7,144.2c2.9,1.6,5.8-2.9,13.8-2.9
			c7.4,0,10.6,4.2,12.9,2.2c2.9-2.2,0.3-10.3-2.9-19.9c-2.6-7.7-4.8-10.6-8-12.9c-1.3-1-3.8-2.6-6.7-1.9c-1.3,0.3-4.2,1.3-7.7,10.6
			C311,121,303.8,141,309.7,144.2z"/>
		<path fill="#603913" stroke="#000000" stroke-width="3.0178" stroke-miterlimit="10" d="M314.2,139.1c-4.5-5.8-1.9-12.9-1.3-13.8
			c0.3-0.3,3.8-9.1,10-9.1c5.8,0.3,8.7,7.7,9.4,9.1c2.2,5.4-1.6,17-9.1,16.4C317.7,141.3,317.4,143.3,314.2,139.1z"/>
		<path fill="#726658" stroke="#000000" stroke-width="3.0178" stroke-miterlimit="10" d="M323.1,141.3c-3.5-0.3-4.8-1-4.8-4.8
			c0-1.9,1-6.7,4.5-6.7c3.5,0,4.5,1.3,4.8,5.8C327.7,138.4,326.7,141.7,323.1,141.3z"/>
	</g>
	<g>
		<g>
			<g>
				<path fill="#FFDE11" d="M406,269.6c0.4-2.2,3.4-5,4.9-5.4c1.8-0.5,2.4,0.3,2.6,0.1c0.4-0.4,0.1-0.1,0.1-1.8
					c-0.1-2.5,3.6-5,6.7-5.9c4-1.1,10.1-0.4,11.8,3.4c1,2.2,0,4.5-0.2,5.1c-1.4,3.1-4.9,4.4-7.5,4.4c-3.3,0-4-1.9-6.8-1.8
					c-3.1,0.2-8.6,1.9-9.7,4.2c-0.4,0.9,0,1.8-0.3,1.9C407,274,405.6,271.8,406,269.6L406,269.6z"/>
				<path fill="none" stroke="#231F20" stroke-width="0.3583" stroke-miterlimit="10" d="M406,269.6c0.4-2.2,3.4-5,4.9-5.4
					c1.8-0.5,2.4,0.3,2.6,0.1c0.4-0.4,0.1-0.1,0.1-1.8c-0.1-2.5,3.6-5,6.7-5.9c4-1.1,10.1-0.4,11.8,3.4c1,2.2,0,4.5-0.2,5.1
					c-1.4,3.1-4.9,4.4-7.5,4.4c-3.3,0-4-1.9-6.8-1.8c-3.1,0.2-8.6,1.9-9.7,4.2c-0.4,0.9,0,1.8-0.3,1.9
					C407,274,405.6,271.8,406,269.6L406,269.6z"/>
				<path fill="#FFDE11" d="M402.2,255.9c-1.8,1.5-1.7,4.7,0.3,6.1c1.7,1.2,4.3,0.8,5.5-0.9c1-1.5,0.7-3.4-0.4-4.7
					C406.1,254.8,403.6,254.6,402.2,255.9L402.2,255.9z"/>
				<path fill="none" stroke="#231F20" stroke-width="0.3583" stroke-miterlimit="10" d="M402.2,255.9c-1.8,1.5-1.7,4.7,0.3,6.1
					c1.7,1.2,4.3,0.8,5.5-0.9c1-1.5,0.7-3.4-0.4-4.7C406.1,254.8,403.6,254.6,402.2,255.9L402.2,255.9z"/>
				<path fill="#FFDE11" d="M371.8,271c-1.3-3,1.9-7.4,1.9-7.4c0.3-0.7,0.6-1.1,0.8-1.3c1.5-1.8,3.7-2.3,4.8-2.5
					c3.1-0.6,7-0.9,8.7-0.3c2.4,0.8,3.3,2.7,3.8,4.5s-1.1,3.3-0.4,4.1c0.7,0.8,2.4-0.6,4.6,0.2c1.6,0.5,3.1,2,3.3,3.7
					c0.2,1.2-0.3,2.2-0.6,2.6C395.9,279.3,374.3,277,371.8,271L371.8,271z"/>
				<path fill="none" stroke="#231F20" stroke-width="0.3583" stroke-miterlimit="10" d="M371.8,271c-1.3-3,1.9-7.4,1.9-7.4
					c0.3-0.7,0.6-1.1,0.8-1.3c1.5-1.8,3.7-2.3,4.8-2.5c3.1-0.6,7-0.9,8.7-0.3c2.4,0.8,3.3,2.7,3.8,4.5s-1.1,3.3-0.4,4.1
					c0.7,0.8,2.4-0.6,4.6,0.2c1.6,0.5,3.1,2,3.3,3.7c0.2,1.2-0.3,2.2-0.6,2.6C395.9,279.3,374.3,277,371.8,271L371.8,271z"/>
				<path fill="#FCEE23" d="M377.8,256.7c2.9-0.9,4.8,1.8,6.5,0.8c1.6-1,0.2-3.5,1.9-5.6c1.9-2.3,6.1-2.1,8.4-1.4
					c0.3,0.1,5.7,1.7,6.9,6.4c0.2,0.8,1.5,3.1,0.4,4.6c-1.4,1.9-4,1.1-5.2,3.1c-0.8,1.3-0.8,2.1-1.9,3.3c-0.1,0.1-1.8,0-2.5,0.4
					c-2,1.2,0.2-2.8-1.3-6c-1.6-3.4-7.8-2.2-8.2-2.2c-4.8,0.7-7.6,4.3-8.7,3.3c-0.4-0.4-0.3-1.1-0.1-2
					C374.1,259.6,375.6,257.3,377.8,256.7L377.8,256.7z"/>
				<path fill="none" stroke="#231F20" stroke-width="0.3583" stroke-miterlimit="10" d="M377.8,256.7c2.9-0.9,4.8,1.8,6.5,0.8
					c1.6-1,0.2-3.5,1.9-5.6c1.9-2.3,6.1-2.1,8.4-1.4c0.3,0.1,5.7,1.7,6.9,6.4c0.2,0.8,1.5,3.1,0.4,4.6c-1.4,1.9-4,1.1-5.2,3.1
					c-0.8,1.3-0.8,2.1-1.9,3.3c-0.1,0.1-1.8,0-2.5,0.4c-2,1.2,0.2-2.8-1.3-6c-1.6-3.4-7.8-2.2-8.2-2.2c-4.8,0.7-7.6,4.3-8.7,3.3
					c-0.4-0.4-0.3-1.1-0.1-2C374.1,259.6,375.6,257.3,377.8,256.7L377.8,256.7z"/>
				<path fill="#FFDE11" d="M372.2,259.8c-1.3-1.1-3.1,0.5-4.9-0.5c-1.5-0.9-2.2-3-1.9-4.8c0.4-2.6,2.8-4.8,5.4-4.6
					c2.1,0.2,3.4,1.9,3.6,2.2c0-0.9,0.1-2.6,1.3-4.2c0,0,0.4-0.5,0.8-0.9c1.6-1.6,4.6-2.4,7.4-2c2.4,0.4,6.6,2.1,7.1,5.4
					c0.5,3.6-3.6,7.2-7.2,7.5c-3,0.4-4.3-1.8-6.5-0.9c-3,1.3-3.4,6.9-4.1,6.7C372.8,263.9,373.5,261,372.2,259.8L372.2,259.8z"/>
				<path fill="none" stroke="#231F20" stroke-width="0.3583" stroke-miterlimit="10" d="M372.2,259.8c-1.3-1.1-3.1,0.5-4.9-0.5
					c-1.5-0.9-2.2-3-1.9-4.8c0.4-2.6,2.8-4.8,5.4-4.6c2.1,0.2,3.4,1.9,3.6,2.2c0-0.9,0.1-2.6,1.3-4.2c0,0,0.4-0.5,0.8-0.9
					c1.6-1.6,4.6-2.4,7.4-2c2.4,0.4,6.6,2.1,7.1,5.4c0.5,3.6-3.6,7.2-7.2,7.5c-3,0.4-4.3-1.8-6.5-0.9c-3,1.3-3.4,6.9-4.1,6.7
					C372.8,263.9,373.5,261,372.2,259.8L372.2,259.8z"/>
				<path fill="#FCEE23" d="M379.6,241.5c2.5-1,4.6,1.4,6.2,0.3c1.5-1,0.3-3.3,1.9-5.1c2-2.2,6.2-1.3,7-1.1c4.1,0.9,7.6,4.1,7.2,5.5
					c-0.6,1.7-6.8-0.7-10,2.8c-1.3,1.5-1,2.7-2.3,3.2c-2.2,0.9-4.1-2.4-7.6-2.2c-3.1,0.1-4.7,2.6-5.4,2.1
					C375.7,246.3,377.1,242.5,379.6,241.5L379.6,241.5z"/>
				<path fill="none" stroke="#231F20" stroke-width="0.3583" stroke-miterlimit="10" d="M379.6,241.5c2.5-1,4.6,1.4,6.2,0.3
					c1.5-1,0.3-3.3,1.9-5.1c2-2.2,6.2-1.3,7-1.1c4.1,0.9,7.6,4.1,7.2,5.5c-0.6,1.7-6.8-0.7-10,2.8c-1.3,1.5-1,2.7-2.3,3.2
					c-2.2,0.9-4.1-2.4-7.6-2.2c-3.1,0.1-4.7,2.6-5.4,2.1C375.7,246.3,377.1,242.5,379.6,241.5L379.6,241.5z"/>
				<path fill="#FFDE11" d="M390.6,250c1.6,1.6,3.6,0.2,6.1,1.9c1.9,1.3,1.4,2.5,3.3,3.7c2.3,1.4,4.9,1,5.7,0.9
					c1.1-0.2,3.8-0.6,5.3-2.9c0.8-1.3,1.5-4.3,0.6-5.2c-1.1-1-3.1,1.4-4.8,0.4c-2-1.2-0.6-4.6-3.2-7c-0.9-0.8-1.8-1.1-2.6-1.3
					c-4.1-1.2-10,0.5-11.3,4.5C389.2,246.5,389.3,248.7,390.6,250L390.6,250z"/>
				<path fill="none" stroke="#231F20" stroke-width="0.3583" stroke-miterlimit="10" d="M390.6,250c1.6,1.6,3.6,0.2,6.1,1.9
					c1.9,1.3,1.4,2.5,3.3,3.7c2.3,1.4,4.9,1,5.7,0.9c1.1-0.2,3.8-0.6,5.3-2.9c0.8-1.3,1.5-4.3,0.6-5.2c-1.1-1-3.1,1.4-4.8,0.4
					c-2-1.2-0.6-4.6-3.2-7c-0.9-0.8-1.8-1.1-2.6-1.3c-4.1-1.2-10,0.5-11.3,4.5C389.2,246.5,389.3,248.7,390.6,250L390.6,250z"/>
				<g>
					<g>
						<g>
							<defs>
								
									<rect id="SVGID_1_" x="321.8" y="251.7" transform="matrix(0.1063 -0.9943 0.9943 0.1063 48.2458 679.0658)" width="160.2" height="121.9"/>
							</defs>
							<clipPath id="SVGID_2_">
								<use xlink:href="#SVGID_1_"  overflow="visible"/>
							</clipPath>
							<path clip-path="url(#SVGID_2_)" fill="#F8ED34" d="M400.5,237.1c1.2-2.7,4.9-3.4,6.2-3.6c1.6-0.3,5.4-0.9,7.4,1.2
								c2.1,2.2,1,5.8,2.4,6.2c0.9,0.2,1.5-1.3,3.1-1.3c1.2,0,2.6,1,2.9,2.2c0.3,1.2-0.6,2.5-1.5,3.2c-2.6,2.1-6.2-0.3-8.4,1.9
								c-0.7,0.7-0.6,1.2-1.5,1.8c-1.2,0.7-3.2,0.9-4.4-0.1c-2-1.5-0.4-4.1-2.5-6.2c-1.5-1.5-3.1-1.1-3.8-2.6
								C399.8,238.5,400.4,237.4,400.5,237.1L400.5,237.1z"/>
						</g>
					</g>
					<g>
						<g>
							<defs>
								
									<rect id="SVGID_3_" x="321.8" y="251.7" transform="matrix(0.1063 -0.9943 0.9943 0.1063 48.2458 679.0658)" width="160.2" height="121.9"/>
							</defs>
							<clipPath id="SVGID_4_">
								<use xlink:href="#SVGID_3_"  overflow="visible"/>
							</clipPath>
							<path clip-path="url(#SVGID_4_)" fill="none" stroke="#231F20" stroke-width="0.3583" stroke-miterlimit="10" d="
								M400.5,237.1c1.2-2.7,4.9-3.4,6.2-3.6c1.6-0.3,5.4-0.9,7.4,1.2c2.1,2.2,1,5.8,2.4,6.2c0.9,0.2,1.5-1.3,3.1-1.3
								c1.2,0,2.6,1,2.9,2.2c0.3,1.2-0.6,2.5-1.5,3.2c-2.6,2.1-6.2-0.3-8.4,1.9c-0.7,0.7-0.6,1.2-1.5,1.8c-1.2,0.7-3.2,0.9-4.4-0.1
								c-2-1.5-0.4-4.1-2.5-6.2c-1.5-1.5-3.1-1.1-3.8-2.6C399.8,238.5,400.4,237.4,400.5,237.1L400.5,237.1z"/>
						</g>
					</g>
				</g>
				<path fill="#F8ED34" d="M397.8,276.1c1.2,1.9,8.8,1.2,9.5-0.6c0-0.1,0.7,0.5,0.7,0.1c-0.2-2.2-1.7-3.1-1.9-4.4
					c-0.2-1.7,1.1-3.7,2.3-4.8c1.8-1.6,3.1-1.7,3.1-2.5c0-1.1-2.5-2-4.4-2.3c-2-0.3-3.5,0.2-5.5,0.8c-2.5,0.8-3.7,1.1-4.7,2.3
					c-0.9,1.1-1.8,3.2-1,4.4c0.9,1.5,2.6,0.9,3.5,2.4C400.2,272.9,396.9,274.7,397.8,276.1L397.8,276.1z"/>
				<path fill="none" stroke="#231F20" stroke-width="0.3583" stroke-miterlimit="10" d="M397.8,276.1c1.2,1.9,8.8,1.2,9.5-0.6
					c0-0.1,0.7,0.5,0.7,0.1c-0.2-2.2-1.7-3.1-1.9-4.4c-0.2-1.7,1.1-3.7,2.3-4.8c1.8-1.6,3.1-1.7,3.1-2.5c0-1.1-2.5-2-4.4-2.3
					c-2-0.3-3.5,0.2-5.5,0.8c-2.5,0.8-3.7,1.1-4.7,2.3c-0.9,1.1-1.8,3.2-1,4.4c0.9,1.5,2.6,0.9,3.5,2.4
					C400.2,272.9,396.9,274.7,397.8,276.1L397.8,276.1z"/>
				<path fill="#FCEE23" d="M409.6,270.2c1.6-1.1,3.1-1.6,5.5-2c2.1-0.4,3.1-0.2,4.5-0.3c0.7-0.1,5.5,0.3,6,4.3
					c0,0.3,0.9,2.7-0.3,3.8c-1.2,1.2-3.2-0.4-7.4-0.7c-5.4-0.4-9,1.8-10,0.2c-0.4-0.6,0.1-1.3-0.2-2
					C407,271.9,408.9,270.7,409.6,270.2L409.6,270.2z"/>
				<path fill="none" stroke="#231F20" stroke-width="0.3583" stroke-miterlimit="10" d="M409.6,270.2c1.6-1.1,3.1-1.6,5.5-2
					c2.1-0.4,3.1-0.2,4.5-0.3c0.7-0.1,5.5,0.3,6,4.3c0,0.3,0.9,2.7-0.3,3.8c-1.2,1.2-3.2-0.4-7.4-0.7c-5.4-0.4-9,1.8-10,0.2
					c-0.4-0.6,0.1-1.3-0.2-2C407,271.9,408.9,270.7,409.6,270.2L409.6,270.2z"/>
				<path fill="#FFDE11" d="M423.6,276.3c0-0.5,1.6-1.4,2.2-1.5c2.2-0.6,4,0.7,4.2,0.8c0.8,0.6,3.5,2.8,3.1,3.4
					C432.4,280.2,423.4,277.6,423.6,276.3L423.6,276.3z"/>
				<path fill="none" stroke="#231F20" stroke-width="0.3583" stroke-miterlimit="10" d="M423.6,276.3c0-0.5,1.6-1.4,2.2-1.5
					c2.2-0.6,4,0.7,4.2,0.8c0.8,0.6,3.5,2.8,3.1,3.4C432.4,280.2,423.4,277.6,423.6,276.3L423.6,276.3z"/>
				<path fill="#FFDE11" d="M432.3,265.5c0.9-0.1,3.6-0.4,6.6,1.1c1.3,0.7,3.5,1.8,4.3,4c1.1,2.9-1,5.7,0.1,6.5
					c0.7,0.5,1.5-0.6,3.4-0.5c1.8,0.1,3.8,1.2,3.7,1.9c-0.1,1.6-9.4,3.8-17.2,0.7c-1.6-0.6-3-4.5-6.4-4.5c-2.3,0-2.4-2.6-2.1-4.4
					C425.3,267.4,429.7,265.8,432.3,265.5L432.3,265.5z"/>
				<path fill="none" stroke="#231F20" stroke-width="0.3583" stroke-miterlimit="10" d="M432.3,265.5c0.9-0.1,3.6-0.4,6.6,1.1
					c1.3,0.7,3.5,1.8,4.3,4c1.1,2.9-1,5.7,0.1,6.5c0.7,0.5,1.5-0.6,3.4-0.5c1.8,0.1,3.8,1.2,3.7,1.9c-0.1,1.6-9.4,3.8-17.2,0.7
					c-1.6-0.6-3-4.5-6.4-4.5c-2.3,0-2.4-2.6-2.1-4.4C425.3,267.4,429.7,265.8,432.3,265.5L432.3,265.5z"/>
				<path fill="#FFDE11" d="M433.6,253.1c1-1.2,7.7,1,8.9,5c0.6,2.3-1.1,3.7-0.1,5.8c1.1,2.1,3.5,1.5,4.6,3.5c1.2,2.3-0.1,6.2-2.5,7
					c-1.1,0.4-2.1,0-2.5-0.2c-3.2-1.3-2.5-5.1-5.7-7.5c-2.8-2.2-6.2-0.3-6.5-1.4c-0.4-1.5,4.5-3,5.8-5.6
					C437,256.9,432.9,254,433.6,253.1L433.6,253.1z"/>
				<path fill="none" stroke="#231F20" stroke-width="0.3583" stroke-miterlimit="10" d="M433.6,253.1c1-1.2,7.7,1,8.9,5
					c0.6,2.3-1.1,3.7-0.1,5.8c1.1,2.1,3.5,1.5,4.6,3.5c1.2,2.3-0.1,6.2-2.5,7c-1.1,0.4-2.1,0-2.5-0.2c-3.2-1.3-2.5-5.1-5.7-7.5
					c-2.8-2.2-6.2-0.3-6.5-1.4c-0.4-1.5,4.5-3,5.8-5.6C437,256.9,432.9,254,433.6,253.1L433.6,253.1z"/>
				<path fill="#FFDE11" d="M419.8,245.6c-0.5-1.6,3.1-4.5,5.3-5.5c4.2-2,8.8,0.6,9.7,1.1c1.2,0.8,4.1,2.5,4.4,5.2
					c0.3,2.6-1.7,4.6-0.9,5.5c0.6,0.6,1.6-0.4,3.1,0c2.3,0.7,3.1,4.1,3.3,6c0.1,1.7-0.8,6.6-1.4,6.9c-2.5,1.5-1.4-7.1-4-9.9
					c-1.4-1.5-2.7,0-5.7-1.4c-1.8-0.8-3.1,0-4.4,0.1c-1.9,0.1-1.9,0.5-2.7,0.2c-1-0.4,0.3-3.4-1.2-5.7
					C423.9,246.2,420.3,247.1,419.8,245.6L419.8,245.6z"/>
				<path fill="none" stroke="#231F20" stroke-width="0.3583" stroke-miterlimit="10" d="M419.8,245.6c-0.5-1.6,3.1-4.5,5.3-5.5
					c4.2-2,8.8,0.6,9.7,1.1c1.2,0.8,4.1,2.5,4.4,5.2c0.3,2.6-1.7,4.6-0.9,5.5c0.6,0.6,1.6-0.4,3.1,0c2.3,0.7,3.1,4.1,3.3,6
					c0.1,1.7-0.8,6.6-1.4,6.9c-2.5,1.5-1.4-7.1-4-9.9c-1.4-1.5-2.7,0-5.7-1.4c-1.8-0.8-3.1,0-4.4,0.1c-1.9,0.1-1.9,0.5-2.7,0.2
					c-1-0.4,0.3-3.4-1.2-5.7C423.9,246.2,420.3,247.1,419.8,245.6L419.8,245.6z"/>
				<path fill="#FCEE23" d="M443.4,264.4c0-1.3,0.2-5.2,1.3-5.6c2.5-0.9,6.6,2.6,7.7,3.3c2.7,1.5,6.2,4.8,5.6,7.6
					c-0.4,1.8-2,2.3-1.7,3.4c0.4,1.3,3.1,0.6,4.9,2.3c1.4,1.4,2.1,4.1,1.1,5.6c-2,3-11.6,1.7-13.9-2.3c-0.4-0.6-0.7-1.5-1.6-2
					c-1.9-1-3.3,1-4,0.1c-0.4-0.5-1-2-0.4-2.6c1.7-1.8,2.7-0.4,3.9-1.8c0.9-1.1,1.2-1.9,0.7-4C446.5,265.1,443.4,266,443.4,264.4
					L443.4,264.4z"/>
				<path fill="none" stroke="#231F20" stroke-width="0.3583" stroke-miterlimit="10" d="M443.4,264.4c0-1.3,0.2-5.2,1.3-5.6
					c2.5-0.9,6.6,2.6,7.7,3.3c2.7,1.5,6.2,4.8,5.6,7.6c-0.4,1.8-2,2.3-1.7,3.4c0.4,1.3,3.1,0.6,4.9,2.3c1.4,1.4,2.1,4.1,1.1,5.6
					c-2,3-11.6,1.7-13.9-2.3c-0.4-0.6-0.7-1.5-1.6-2c-1.9-1-3.3,1-4,0.1c-0.4-0.5-1-2-0.4-2.6c1.7-1.8,2.7-0.4,3.9-1.8
					c0.9-1.1,1.2-1.9,0.7-4C446.5,265.1,443.4,266,443.4,264.4L443.4,264.4z"/>
				<path fill="#FCEE23" d="M411.8,251.7c1.4-1.7-1-2.3,0.4-4.4c1.3-2,6.7-1.5,8.3-1.5c0.7,0,6.6,0.1,8,3.4c0.9,2-0.1,4.2,0.6,4.5
					c0.8,0.3,1.6-1.8,3.3-1.9c1.8-0.1,3.4,2.2,4,3.8c0.7,1.7,1.2,4.8-0.6,6.2c-0.8,0.6-2,0.9-3,0.6c-2.3-0.6-1.9-3.6-4.3-5.1
					c-2.7-1.6-8.6-1.3-11.6,0.4c-2.8,1.6-1.3,5.8-3.6,6.7c-1,0.4-2.1,0.1-2.6-0.1c-2.4-0.7-3.3-2.8-3.4-3.1c-0.7-1.7-0.7-4,0.6-5.3
					C409.7,254,410.3,253.3,411.8,251.7L411.8,251.7z"/>
				<path fill="none" stroke="#231F20" stroke-width="0.3583" stroke-miterlimit="10" d="M411.8,251.7c1.4-1.7-1-2.3,0.4-4.4
					c1.3-2,6.7-1.5,8.3-1.5c0.7,0,6.6,0.1,8,3.4c0.9,2-0.1,4.2,0.6,4.5c0.8,0.3,1.6-1.8,3.3-1.9c1.8-0.1,3.4,2.2,4,3.8
					c0.7,1.7,1.2,4.8-0.6,6.2c-0.8,0.6-2,0.9-3,0.6c-2.3-0.6-1.9-3.6-4.3-5.1c-2.7-1.6-8.6-1.3-11.6,0.4c-2.8,1.6-1.3,5.8-3.6,6.7
					c-1,0.4-2.1,0.1-2.6-0.1c-2.4-0.7-3.3-2.8-3.4-3.1c-0.7-1.7-0.7-4,0.6-5.3C409.7,254,410.3,253.3,411.8,251.7L411.8,251.7z"/>
				<path fill="#FCEE23" d="M347.3,269.4c-0.8-1.8,0.1-4.5,1.6-5.7c2.2-1.8,4.7,0.5,7.2-1.2c2.5-1.7,1.2-4.9,4.2-6.9
					c1.5-1.1,3.8-1.6,4.9-0.7c1.1,0.9,0.1,2.6,1.2,3.9c1.4,1.6,3.9-0.1,5.7,1.4c1.1,1,1.2,2.6,1.4,5.3c0.1,1.9,0.2,2.9-0.4,3.8
					c-1.2,1.9-4.2,2-6.1,2C354.6,271.5,348.3,271.5,347.3,269.4L347.3,269.4z"/>
				<g>
					<g>
						<g>
							<defs>
								
									<rect id="SVGID_5_" x="321.8" y="251.7" transform="matrix(0.1063 -0.9943 0.9943 0.1063 48.2458 679.0658)" width="160.2" height="121.9"/>
							</defs>
							<clipPath id="SVGID_6_">
								<use xlink:href="#SVGID_5_"  overflow="visible"/>
							</clipPath>
							<path clip-path="url(#SVGID_6_)" fill="none" stroke="#231F20" stroke-width="0.3583" stroke-miterlimit="10" d="
								M347.3,269.4c-0.8-1.8,0.1-4.5,1.6-5.7c2.2-1.8,4.7,0.5,7.2-1.2c2.5-1.7,1.2-4.9,4.2-6.9c1.5-1.1,3.8-1.6,4.9-0.7
								c1.1,0.9,0.1,2.6,1.2,3.9c1.4,1.6,3.9-0.1,5.7,1.4c1.1,1,1.2,2.6,1.4,5.3c0.1,1.9,0.2,2.9-0.4,3.8c-1.2,1.9-4.2,2-6.1,2
								C354.6,271.5,348.3,271.5,347.3,269.4L347.3,269.4z"/>
						</g>
					</g>
				</g>
				<path fill="#EC2227" d="M346.7,270.3l-1.9,39.5c0,0-3.2,53.1-5,75.2l106.3,11.5c4.3-20.2,10.8-59.9,10.8-59.9l8.1-53.6
					c0,0-10.5-2.4-14-2.5c-4.1-0.2-12.2,1.1-16.4,0.4c-4.4-0.7-11.9-3.6-17.2-4.2c-5.1-0.6-15.6,1.3-20.6,0.4
					c-4.2-0.8-12.3-4.8-16.5-5.1c-6-0.4-18.1,1.2-24,0.6C353.8,272.3,346.7,270.3,346.7,270.3L346.7,270.3z"/>
				<g>
					<g>
						<g>
							<defs>
								
									<rect id="SVGID_7_" x="321.8" y="251.7" transform="matrix(0.1063 -0.9943 0.9943 0.1063 48.2458 679.0658)" width="160.2" height="121.9"/>
							</defs>
							<clipPath id="SVGID_8_">
								<use xlink:href="#SVGID_7_"  overflow="visible"/>
							</clipPath>
							<path clip-path="url(#SVGID_8_)" fill="none" stroke="#EC2227" stroke-width="2.8669" stroke-miterlimit="10" d="
								M346.7,270.3l-1.9,39.5c0,0-3.2,53.1-5,75.2l106.3,11.5c4.3-20.2,10.8-59.9,10.8-59.9l8.1-53.6c0,0-10.5-2.4-14-2.5
								c-4.1-0.2-12.2,1.1-16.4,0.4c-4.4-0.7-11.9-3.6-17.2-4.2c-5.1-0.6-15.6,1.3-20.6,0.4c-4.2-0.8-12.3-4.8-16.5-5.1
								c-6-0.4-18.1,1.2-24,0.6C353.8,272.3,346.7,270.3,346.7,270.3L346.7,270.3z"/>
						</g>
					</g>
				</g>
				<polygon fill="#FFFFFF" points="345.1,386.9 338.7,386.2 350.5,271.3 357.3,272.4 				"/>
				<g>
					<g>
						<g>
							<defs>
								
									<rect id="SVGID_9_" x="321.8" y="251.7" transform="matrix(0.1063 -0.9943 0.9943 0.1063 48.2458 679.0658)" width="160.2" height="121.9"/>
							</defs>
							<clipPath id="SVGID_10_">
								<use xlink:href="#SVGID_9_"  overflow="visible"/>
							</clipPath>
							<polygon clip-path="url(#SVGID_10_)" fill="none" stroke="#FFFFFF" stroke-width="0.3583" stroke-miterlimit="10" points="
								345.1,386.9 338.7,386.2 350.5,271.3 357.3,272.4 							"/>
						</g>
					</g>
				</g>
				<polygon fill="#FFFFFF" points="357.3,388.2 351,387.5 363.3,272.4 369.7,272.2 				"/>
				<g>
					<g>
						<g>
							<defs>
								
									<rect id="SVGID_11_" x="321.8" y="251.7" transform="matrix(0.1063 -0.9943 0.9943 0.1063 48.2458 679.0658)" width="160.2" height="121.9"/>
							</defs>
							<clipPath id="SVGID_12_">
								<use xlink:href="#SVGID_11_"  overflow="visible"/>
							</clipPath>
							<polygon clip-path="url(#SVGID_12_)" fill="none" stroke="#FFFFFF" stroke-width="0.3583" stroke-miterlimit="10" points="
								357.3,388.2 351,387.5 363.3,272.4 369.7,272.2 							"/>
						</g>
					</g>
				</g>
				<polygon fill="#FFFFFF" points="369.6,389.4 363.2,388.8 375.6,271.9 382.1,272.1 				"/>
				<g>
					<g>
						<g>
							<defs>
								
									<rect id="SVGID_13_" x="321.8" y="251.7" transform="matrix(0.1063 -0.9943 0.9943 0.1063 48.2458 679.0658)" width="160.2" height="121.9"/>
							</defs>
							<clipPath id="SVGID_14_">
								<use xlink:href="#SVGID_13_"  overflow="visible"/>
							</clipPath>
							<polygon clip-path="url(#SVGID_14_)" fill="none" stroke="#FFFFFF" stroke-width="0.3583" stroke-miterlimit="10" points="
								369.6,389.4 363.2,388.8 375.6,271.9 382.1,272.1 							"/>
						</g>
					</g>
				</g>
				<polygon fill="#FFFFFF" points="381.8,390.7 375.3,390.1 387.8,274.1 394,276.4 				"/>
				<g>
					<g>
						<g>
							<defs>
								
									<rect id="SVGID_15_" x="321.8" y="251.7" transform="matrix(0.1063 -0.9943 0.9943 0.1063 48.2458 679.0658)" width="160.2" height="121.9"/>
							</defs>
							<clipPath id="SVGID_16_">
								<use xlink:href="#SVGID_15_"  overflow="visible"/>
							</clipPath>
							<polygon clip-path="url(#SVGID_16_)" fill="none" stroke="#FFFFFF" stroke-width="0.3583" stroke-miterlimit="10" points="
								381.8,390.7 375.3,390.1 387.8,274.1 394,276.4 							"/>
						</g>
					</g>
				</g>
				<polygon fill="#FFFFFF" points="393.7,392 387.4,391.3 399.6,277.4 406.2,276.6 				"/>
				<g>
					<g>
						<g>
							<defs>
								
									<rect id="SVGID_17_" x="321.8" y="251.7" transform="matrix(0.1063 -0.9943 0.9943 0.1063 48.2458 679.0658)" width="160.2" height="121.9"/>
							</defs>
							<clipPath id="SVGID_18_">
								<use xlink:href="#SVGID_17_"  overflow="visible"/>
							</clipPath>
							<polygon clip-path="url(#SVGID_18_)" fill="none" stroke="#FFFFFF" stroke-width="0.3583" stroke-miterlimit="10" points="
								393.7,392 387.4,391.3 399.6,277.4 406.2,276.6 							"/>
						</g>
					</g>
				</g>
				<polygon fill="#FFFFFF" points="406,393.4 399.8,392.7 411.9,276.8 418.5,276.9 				"/>
				<g>
					<g>
						<g>
							<defs>
								
									<rect id="SVGID_19_" x="321.8" y="251.7" transform="matrix(0.1063 -0.9943 0.9943 0.1063 48.2458 679.0658)" width="160.2" height="121.9"/>
							</defs>
							<clipPath id="SVGID_20_">
								<use xlink:href="#SVGID_19_"  overflow="visible"/>
							</clipPath>
							<polygon clip-path="url(#SVGID_20_)" fill="none" stroke="#FFFFFF" stroke-width="0.3583" stroke-miterlimit="10" points="
								406,393.4 399.8,392.7 411.9,276.8 418.5,276.9 							"/>
						</g>
					</g>
				</g>
				<polygon fill="#FFFFFF" points="418.5,394.7 412.2,394 424.5,278.3 430.8,280 				"/>
				<g>
					<g>
						<g>
							<defs>
								
									<rect id="SVGID_21_" x="321.8" y="251.7" transform="matrix(0.1063 -0.9943 0.9943 0.1063 48.2458 679.0658)" width="160.2" height="121.9"/>
							</defs>
							<clipPath id="SVGID_22_">
								<use xlink:href="#SVGID_21_"  overflow="visible"/>
							</clipPath>
							<polygon clip-path="url(#SVGID_22_)" fill="none" stroke="#FFFFFF" stroke-width="0.3583" stroke-miterlimit="10" points="
								418.5,394.7 412.2,394 424.5,278.3 430.8,280 							"/>
						</g>
					</g>
				</g>
				<polygon fill="#FFFFFF" points="431,396 424.6,395.3 436.8,281.1 443.2,280.9 				"/>
				<g>
					<g>
						<g>
							<defs>
								
									<rect id="SVGID_23_" x="321.8" y="251.7" transform="matrix(0.1063 -0.9943 0.9943 0.1063 48.2458 679.0658)" width="160.2" height="121.9"/>
							</defs>
							<clipPath id="SVGID_24_">
								<use xlink:href="#SVGID_23_"  overflow="visible"/>
							</clipPath>
							<polygon clip-path="url(#SVGID_24_)" fill="none" stroke="#FFFFFF" stroke-width="0.3583" stroke-miterlimit="10" points="
								431,396 424.6,395.3 436.8,281.1 443.2,280.9 							"/>
						</g>
					</g>
				</g>
				<polygon fill="#FFFFFF" points="443.1,397.4 436.8,396.7 449.2,280.5 455.5,281.2 				"/>
				<g>
					<g>
						<g>
							<defs>
								
									<rect id="SVGID_25_" x="321.8" y="251.7" transform="matrix(0.1063 -0.9943 0.9943 0.1063 48.2458 679.0658)" width="160.2" height="121.9"/>
							</defs>
							<clipPath id="SVGID_26_">
								<use xlink:href="#SVGID_25_"  overflow="visible"/>
							</clipPath>
							<polygon clip-path="url(#SVGID_26_)" fill="none" stroke="#FFFFFF" stroke-width="0.3583" stroke-miterlimit="10" points="
								443.1,397.4 436.8,396.7 449.2,280.5 455.5,281.2 							"/>
						</g>
					</g>
				</g>
				<polygon fill="#FFFFFF" points="457.2,339 450.7,375.6 460.7,282.2 464.9,283 				"/>
				<g>
					<g>
						<g>
							<defs>
								
									<rect id="SVGID_27_" x="321.8" y="251.7" transform="matrix(0.1063 -0.9943 0.9943 0.1063 48.2458 679.0658)" width="160.2" height="121.9"/>
							</defs>
							<clipPath id="SVGID_28_">
								<use xlink:href="#SVGID_27_"  overflow="visible"/>
							</clipPath>
							<polygon clip-path="url(#SVGID_28_)" fill="none" stroke="#FFFFFF" stroke-width="0.3583" stroke-miterlimit="10" points="
								457.2,339 450.7,375.6 460.7,282.2 464.9,283 							"/>
						</g>
					</g>
				</g>
				
					<text transform="matrix(0.9943 0.1063 -0.1063 0.9943 362.7803 307.1328)" fill="#231F20" font-family="'Monaco'" font-size="19.578">POPCORN</text>
				<g>
					<g>
						<g>
							<defs>
								
									<rect id="SVGID_29_" x="321.8" y="251.7" transform="matrix(0.1063 -0.9943 0.9943 0.1063 48.2458 679.0658)" width="160.2" height="121.9"/>
							</defs>
							<clipPath id="SVGID_30_">
								<use xlink:href="#SVGID_29_"  overflow="visible"/>
							</clipPath>
							<g clip-path="url(#SVGID_30_)">
								
									<text transform="matrix(0.9943 0.1063 -0.1063 0.9943 362.7803 307.1333)" fill="none" stroke="#231F20" stroke-width="0.3563" stroke-miterlimit="10" font-family="'Monaco'" font-size="19.578">POPCORN</text>
							</g>
						</g>
					</g>
				</g>
			</g>
		</g>
	</g>
</g>
</svg>
