<?xml version="1.0" encoding="utf-8"?>
<!-- Generator: Adobe Illustrator 18.1.0, SVG Export Plug-In . SVG Version: 6.00 Build 0)  -->
<!DOCTYPE svg PUBLIC "-//W3C//DTD SVG 1.1//EN" "http://www.w3.org/Graphics/SVG/1.1/DTD/svg11.dtd">
<svg version="1.1" xmlns="http://www.w3.org/2000/svg" xmlns:xlink="http://www.w3.org/1999/xlink" x="0px" y="0px"
	 viewBox="0 0 200 200" enable-background="new 0 0 200 200" xml:space="preserve">
<g id="Layer_1">
	<path stroke="#000000" stroke-miterlimit="10" d="M31.2,63c0-1,8.9-0.7,14.5-7.1c2-2.3,2.9-4.7,6.6-7.8c1.7-1.4,3.5-2.6,3.3-3
		c-0.3-0.7-6.1,2-7.1,0.7c-1-1.3,3.7-5.5,8.6-12.2c6.9-9.5,4.8-11.4,10-17c6.1-6.6,13.5-9.3,17.4-10.7c0,0,8.9-3.7,15.6-3
		c1.6,0.2,3.2,0.5,3.2,0.5s1.1,0.2,2.1,0.6c3.5,1.2,12.1,8.9,12.7,8.5c0.3-0.3-3.7-4.6-7-7.3c-3.3-2.7-7.7-3.7-7.6-4
		c1.1-2.2,17.6,6.9,18.6,7.8c1.2,1-3.7-9.2-3.4-9.1c0.4,0.2,6.2,7.8,8.9,12.4c2.5,4.4,2.3,4.1,5.1,8.3c2.6,3.9,2.7,9.2,3,12.5
		c0.3,2.9,0.2,5.6,0.1,6.9c-0.1,2-0.4,3.5-0.5,4.2c-0.2,1.4-0.7,4-2,6.9c-0.7,1.7-1.6,3.2-2,4c0,0-0.2,0.4-0.5,0.9
		c-2.9,4.5-6.3,7.5-6.3,7.5c-1.4,1.2-4.9,4.8-10,6.1c-3.4,0.9-10.4,2.2-10.5,2.2c0,0,0.2-4,0.1-2.1c0,0,17.5-2.3,19.7-10.8
		c1-3.7-1.2-9.7,1.1-9.7c1.3,0,2,1.2,4.1,0.2c3.3-1.5,5.7-6.9,3.8-8.7c-1.1-1.1-3.7-0.6-5.1,0.3c-2.5,1.6-2.7,4.5-3.3,4.4
		c-0.9-0.1,0.6-4.9-1.8-8.9c-1-1.6-1.7-1.6-3.8-4.4c-1.2-1.7-1.8-2.7-2.2-4.1c-0.7-2.9,0.4-4.5-0.3-5.1c-1.1-1-3.5,1.4-7.4,2.6
		c-5.5,1.7-6.5-1.2-12.6,0c-4.3,0.9-3.3,2.2-11.5,5.1c-1.5,0.5-3.1,1.1-4.4,2.6c-2.1,2.5-2.2,5.6-2.2,5.9c0,2.9,1.4,5,1.1,5.1
		c-0.4,0.2-1.8-3.5-4.8-4.1c-1.4-0.2-3.2,0.2-4.1,1.5c-1.1,1.6-0.3,3.7,0,4.4c1.2,3.2,3.4,2.9,4.8,5.9c1,2.1,1,1.5,2,4.7
		c0.7,2.3,0.9,5.1,1.6,6c1,1.3,2.2,3.1,4.4,4.4c1.6,1.1,3.4,1.4,7.1,2.2c0,0,1.6-0.2,6.5,0.6c-0.2-1.2,0.9,3.3,0.4,4.4
		c-0.7,1.6-5.8,0.2-10.4,0.1c-3,0-2,0.4-16.7,4.1c0,0-5.9,1.5-11.6,1.8l0,0c-5.3,0.3-7.8,0.5-8,0c-0.2-0.9,7.2-5.1,6.6-4.1
		C56.8,76.4,33,76,31.3,74.4C29.4,72.5,46.9,64,44.3,64C43.9,64.5,31.2,66.3,31.2,63z"/>
	<path fill="#583B2B" stroke="#583B2B" stroke-miterlimit="10" d="M103.5,78.2c0,0,0.3-6.1,0.6-9.3c0,0,2.8,1.4,10-1.4
		c0.9-0.3,3.8-0.9,7.2-4.4c1.6-1.6,1.8-3.8,2.1-5.3c0.6-3-0.2-3.3-0.3-7c0,0-0.7-0.2,1.2-1.8c0.2-0.2,1.5-0.2,1.8,0
		c0.6,0.3,1.8,0.7,3.1,0.3c1.9-0.5,2.6-2.6,3-3.7c0.3-0.9,1.2-3.3,0-4.5c-0.9-0.9-2.6-0.6-3.7-0.3c-3.3,1.2-3.8,5.4-4.8,5.1
		c-0.9-0.1,1.1-2.1-0.1-7c-0.3-1.4-0.5-1.9-2.6-4.2c-1.5-1.6-2.9-3.8-4-5.6c-1-1.4-0.4-6.1-1.6-6.4c-2.1-0.4-2.7,1.9-7,3.3
		c-5.4,1.8-6.6-1.3-12.7,0c-3.1,0.6-1.9,1.3-11.6,5.5c-2.3,1.1-3.2,1.4-4,2.5c-2.8,3.9-0.3,9.7-0.6,10.2C79.3,44.7,77.5,41,74,41
		c-1.2,0-3,0.4-3.7,1.5c-1.6,2.8,2.2,4.9,4.8,9.4c2,3.4,2.2,7.9,3.8,10.7c1.2,2.3,2.8,4.1,6.9,5.6c4.8,1.7,9.3,2,11.3,1l0,0
		c1.8,3,0.3,6,0.3,6c0,0.3-0.5,1.2-0.5,1.9c0.4,0.3,1.7,1.3,2.8,1.6c0.3,0.1,0.6,0,1,0C102.3,79,103.5,78.2,103.5,78.2z"/>
	<path fill="#F9ED32" stroke="#000000" stroke-miterlimit="10" d="M94.4,75.8c-1.3-1-3-0.5-5.8,0c-1.3,0.3-3.1,0.6-5.3,1.8
		c-3.2,1.7-4.8,3.7-7.8,6c-4.2,3.2-7.3,7-11.4,10.1c-0.1,0-3.4,1.8-7.2,4.9c-1.1,0.9-2.1,1.8-2.6,3.4c-0.4,1.7,0.2,3.9,1.3,4.2
		c0.6,0.2,1.1-0.6,3.1-1.8c1.4-0.9,2.6-1.5,4-1.4c1.5,0.1,1.6,0.9,2.7,0.9c2,0.1,4.6-3.5,6.2-4.6c1.4-1,3.4-1.4,5.7-3.5
		c1.1-1.1,1.5-1.9,2.1-1.8c1.1,0.1,0.9,2.5,2.7,5.5c1.2,1.9,1.4,2.1,1.9,3.9c0.5,1.5,0.9,5.9,0,8.9c0,0-0.6,0.2-0.7,3l-0.4,1.8
		c0.3,0.6,2.5-0.1,5.8,0c3.3,0.1,3.8,0.7,5.5,0.3c1.8-0.4,1.9-1.3,4.1-2c1.8-0.6,4.1-0.5,4.6-0.4c1.8,0.4,2,1,4.2,1.7
		c0.6,0.2,0.3,0,1.9,0.2c2.8,0.4,4.5,0.4,6.1,0.2c1.5-0.2,1.7-0.4,1.8-0.5c0.7-1-0.7-2.6-1.4-5.8c-0.2-1-0.9-3.8,0-6.6
		c0.5-1.8,1.1-1.7,2.3-4.5c1.7-3.8,1.3-4.9,2.3-5.5c1.3-0.5,3.5,1.2,7.9,4.7c3.7,2.8,4.6,4,6.6,4.2c1.2,0.1,2-0.1,3.7,0.3
		c0.7,0.2,2.3,0.7,3.4,2.1c0.9,1.1,0.9,1.8,1.3,1.8c0.7,0,1.4-1.7,1.6-3.1c0.1-0.4,0.2-1.6-0.2-2.9c-0.6-2.1-2.3-3.2-4-4.3
		c0,0-0.5-0.4-8.1-6c-3.2-2.3-2.6-2.1-6.5-5c-4.1-3-4.4-3-6-4.5c-2.3-2.2-2.5-3.1-4.3-4.2c-1.2-0.6-2.5-0.9-5.3-1.4
		c-3.3-0.6-3.9-0.4-4.2-0.2c-1.2,0.9-0.2,2.5-1.4,4c-1.3,1.5-3.5,1.6-4.3,1.6c-0.9,0-2.7,0.1-4-1.1C95.1,78.6,95.9,76.9,94.4,75.8z"
		/>
	<polygon fill="#2E3192" stroke="#000000" stroke-miterlimit="10" points="94.9,86.7 88,93.7 94.9,103.7 108.8,103.7 115.7,93.9 
		108.6,86.7 	"/>
	<polygon fill="#FFFFFF" stroke="#000000" stroke-miterlimit="10" points="93,93.7 97.3,100.1 105.6,100.1 110.6,93.7 108.2,90.6 
		95.7,90.6 	"/>
	<path fill="#F7941E" stroke="#000000" stroke-miterlimit="10" d="M55.7,106.2c-0.3,1.2,1.2,3.3,3.8,6c5.7,5.7,6.5,4.9,8.9,7.9
		c2.3,2.9,2.8,5.1,6,7.4c1.4,1,2.3,1.3,3.2,1.1c1.7-0.5,2.3-3.1,2.7-4.7c0.4-1.8,0.9-4-0.3-5.6c-1-1.3-2.5-1.6-3.7-1.8
		c-2.5-0.5-3.1,0.3-4.3,0c-3.8-1.1-2-10.5-6.5-12.6c-1.8-0.9-3.9-0.7-4.8-0.4C59.7,103.7,56.3,104.6,55.7,106.2z"/>
	<path fill="#F7941E" stroke="#000000" stroke-miterlimit="10" d="M135.5,103.2c-4.4,0.3-2.7,10.7-7.2,12.9
		c-2.2,1.1-3.9-0.5-6.3,1.1s-2.9,4.6-2.9,4.9c-0.3,2.7,0.9,6.1,3.1,6.6c1.4,0.4,2.8-0.4,3.8-1.1c2.8-1.8,3.1-3.7,5.5-6.5
		c1-1.3,0.7-0.7,8.5-7.8c2.5-2.2,3.5-3.3,3.4-4.7c-0.1-2-2.1-4.2-2.8-4.6C139.7,103.5,137.4,103,135.5,103.2z"/>
	<path fill="#F7941E" stroke="#000000" stroke-miterlimit="10" d="M82.3,117.6c-0.3,1.3-0.7,2.7-1.1,4h11.8l1.3-4.3L82.3,117.6z"/>
	<polygon fill="#F7941E" stroke="#000000" stroke-miterlimit="10" points="107.5,117.5 107.5,122.3 118.1,121.6 116.9,117.2 	"/>
	<path fill="#2E3192" stroke="#000000" stroke-miterlimit="10" d="M94.6,117.9c-0.1,0.3-1.4,2.6-0.3,4.7c1.3,2.8,5.3,2.9,6,2.9
		c0.9,0,5,0,6.6-3.2c0.1-0.1,1.3-2.6,0-4.9c-1.7-3.2-6.5-2.6-7.1-2.6C99,115.1,96.1,115.4,94.6,117.9z"/>
	<path fill="#BE1E2D" stroke="#000000" stroke-miterlimit="10" d="M97.5,118.7c-0.6,1.1-0.5,2.5,0.2,3.4c1.2,1.5,3.8,1.2,5,0
		c0.7-0.6,1.5-1.9,1.1-3.1c-0.4-1.1-1.9-1.4-2.6-1.4C100.7,117.5,98.6,117.1,97.5,118.7z"/>
	<path fill="#F9ED32" stroke="#000000" stroke-miterlimit="10" d="M81.3,122.3c0,0-1.1,3-2,6.5c-0.2,0.5-0.9,3.2-1.3,4.7
		c-2.7,9.3-2,18.6-3,19.6c-1.4,1.3-1.5,2.1-1.9,4c-0.4,2.1-0.4,3.3-0.5,5.3c0,1-0.5,1.7-0.3,2.3c0.2,1,1.7,1.4,2.7,1.6
		c0.5,0.2,3,0.5,4.9,0.4c2-0.1,4.5-1.1,4.5-1.1V165c0,0,0.2-2.5,0.6-3.7c1.3-3.7,3-6,5.3-8.7c7.3-8.3,7.7-12.9,9.3-13.4
		c0,0,3,4.5,11.1,14.4c2.5,3,4.4,5,4.5,8.1c0,1.8-0.5,3.7,0.5,4.7c0.2,0.2,0.6,0.5,3.4,0.7c4.9,0.3,6.4-0.6,6.9-0.9
		c0.5-0.3,1.4-1,1.4-1.8c0-0.8,0.2-1.5,0-2.5c-0.4-2.5-0.2-3.1-1.5-5.4c-0.5-1-1-2.2-1.5-3.4c-1.2-2.5,0.1-9.5-1.4-16.3
		c-0.9-3.8-0.1-6.7-1.4-7.9c-2-2-3.5-6.4-3.5-6.4s-9.7-0.4-10.6,0.3c-2.7,1.9-2.2,3-7.3,3c-4.3,0-6-2.9-7.2-3.2
		C89.3,121.3,81.3,122.3,81.3,122.3z"/>
	<path stroke="#000000" stroke-miterlimit="10" d="M70.7,168.6c0-1.7-0.1-3.2,0.7-3.7c0.4-0.2,0.9,0,2,0.3c1.3,0.4,2.7,0.9,4,0.9
		c2.1,0.1,6.2-0.4,6.5,0c1.2,1.4-1.3,5.5-3.1,8.3c-2.6,4.2-3.4,4.3-3.8,6.3c-0.3,1.9,0.2,2.2,0,6.5c-0.2,3.1-0.5,4-0.7,4.3
		c-0.3,0.7-0.9,1.6-3.7,3.8c-2.8,2.2-4.2,3.4-5.5,3.8c-0.3,0.1-4.5,1.4-7.4-0.9c-0.5-0.3-1.4-1.1-1.6-2.1c-0.1-0.4-0.3-1.8,2-4.7
		c2.3-3,3.9-3.1,6.9-6.5c1.2-1.3,1.7-1.9,2.1-2.9c1-2.1,0.2-3.1,0.5-7.2C70.1,171.2,70.7,171.9,70.7,168.6z"/>
	<path stroke="#000000" stroke-miterlimit="10" d="M117.5,171.6c-1-1.8-2.6-4.9-1.6-5.8c0.4-0.4,1.2,0,3.4,0.3
		c2.5,0.4,5.1,0.7,6.9-0.5c1.2-0.9,1.2-1.8,1.6-1.8c1.4,0.1,1.9,7.6,2,9.2c0.4,6.5-0.4,7,0.5,9.2c0.6,1.6,1.3,1.7,6.9,7.4
		c4.1,4.1,4.9,5.4,4.7,6.6c-0.3,2-3,3-3.7,3.2c-3.1,1.2-6-0.1-6.5-0.3c-1.7-0.9-1.5-1.4-5-4.5c-2.6-2.2-2.8-2-3.2-2.9
		c-0.9-1.7-0.1-2.8-0.2-7.2c0-1.4,0-2.1-0.2-2.9C122.4,177.8,120.2,176.7,117.5,171.6z"/>
	<path fill="#BE1E2D" stroke="#000000" stroke-miterlimit="10" d="M117.7,78.2c0,0,9.4,1.9,16.6,7.1c2.3,1.7,7.4,5.4,11.8,11.9
		c4.1,6.1,3.5,8.7,8.7,15.3c4,5.1,6.6,6.5,7.6,7.1c4.1,2,8.5,2.2,10.7,2.1c4.6-0.1,6.3-1.4,7.2-0.3c1.7,1.8-1,8.3-5.5,12.4
		c-2.2,2-5.6,3.7-12.1,6.9c-3.4,1.7-3.1,1.4-4.2,2c-6.1,3.8-5.4,7.7-10,10.8c-4,2.7-4.5,3.3-12.6,3.2c-4.8,0-7.9,2.9-8.9,1.9
		c-0.9-0.9,0.3,1.2-0.7-1.5c-0.6-1.9-1.4-3.1-2.2-4.9c-0.7-1.6,1.3-7.6-0.6-15.6c-0.9-3.5-1.1-7.5-1.1-7.5s1.9-0.5,4-1.5
		c2.7-1.3,3.4-3.7,5-6.3c4.2-6.9,8.2-5.6,12.1-12.4c1.3-2.3,2.5-4.4,2-6.9c-0.4-2.2-1.9-3.7-7.9-8.3c-4.2-3.2-6-4.9-8.7-6.5
		C123.3,84.1,117.3,78.6,117.7,78.2z"/>
	<g>
		<path fill="#27AAE1" stroke="#000000" stroke-miterlimit="10" d="M120,94.3c1.9-1.4,3.4,0.9,8.3,4.3c3.7,2.6,6.4,3.3,6.3,4.5
			c0,0.9-1,0.5-1.6,2.2c-1.2,3.3-1.1,7.7-4,10.1c-2,1.6-4.7-0.4-7.4,1.5c-2.3,1.7-2.7,4.6-3.4,4.5c-0.6-0.1-0.7-2.3-0.9-4.3
			c-0.2-2.9-1.3-4.9-1.6-6.6c-0.5-2.9-0.3-5.4-0.1-6.3c0.2-0.9,1.5-2.3,2.5-4.9C118.7,97.3,119.2,94.8,120,94.3z"/>
	</g>
	<path fill="#BE1E2D" stroke="#000000" stroke-miterlimit="10" d="M114,159c-0.4,0.4-8.8-3-14.2-2.7c-8,0.4-13.7,4.4-14.4,3.4
		c-0.7-1.1,3-3.4,7.3-9.8c2-3,5.9-10.8,6.9-10.8c0.7,0,4.4,5.9,8,10.4C111.4,154.1,114.4,158.7,114,159z"/>
	<path fill="#BE1E2D" stroke="#000000" stroke-miterlimit="10" d="M72.6,155.8c-2.1,2.2-4.7-3-10-4.9c-5.1-1.8-6.4,1-10.8-0.5
		c-6.3-2.1-4.7-8.2-12.1-12.6c-1.3-0.7-5-1.9-12.6-4.3c-6.3-2-7.2-2-7.6-3.1c-1.4-3.5,8.3-7.6,18.1-20.3c5.6-7.3,5-9.3,10.7-14.8
		c3.7-3.7,7-5.8,13.5-10c5.3-3.4,9-5.4,13.6-6.6c2.7-0.7,7.9-1.1,7.9-1.1s-2.5,2.3-7.6,6.1c-7.4,5.6-6.2,5.6-11.9,9.8
		c-6.4,4.6-9.5,5.7-10,8.9c-0.2,1.6,0.4,3,1.4,4.9c1.6,3.2,3.2,4,7.9,8.5c3.9,3.8,5.8,5.6,6.9,7.2c1.5,2.1,2.2,4,4.5,5
		c2.2,1.1,4.6-0.3,4.3,1.1c-0.3,2-2.8,6.7-3,16.1c0,2.2-0.2,4.6-0.7,7.3C74.9,154,73.8,154.4,72.6,155.8z"/>
	<g>
		<path fill="#BE1E2D" stroke="#000000" stroke-miterlimit="10" d="M120,94.3c1.9-1.4,3.4,0.9,8.3,4.3c3.7,2.6,6.4,3.3,6.3,4.5
			c0,0.9-1,0.5-1.6,2.2c-1.2,3.3-1.1,7.7-4,10.1c-2,1.6-4.7-0.4-7.4,1.5c-2.3,1.7-2.7,4.6-3.4,4.5c-0.6-0.1-0.7-2.3-0.9-4.3
			c-0.2-2.9-1.3-4.9-1.6-6.6c-0.5-2.9-0.3-5.4-0.1-6.3c0.2-0.9,1.5-2.3,2.5-4.9C118.7,97.3,119.2,94.8,120,94.3z"/>
	</g>
	<g>
		<path fill="#BE1E2D" stroke="#000000" stroke-miterlimit="10" d="M80.9,94.3c-1.9-1.4-3.4,0.7-8.5,4.2c-3.8,2.6-6.4,3.1-6.4,4.4
			c0,0.9,0,0.9,1.1,2.5c1.9,3,1.1,8.2,4,10.7c1.9,1.7,5-0.7,7.6,1.3c2.3,1.8,2.7,4.5,3.4,4.4c0.6-0.1,0.9-2.3,1-4.3
			c0.3-2.9,1.4-4.9,1.8-6.6c0.5-2.9,0.4-5.4,0.2-6.3c-0.2-0.9-1.5-2.5-2.3-4.9C82.1,97.3,81.8,94.8,80.9,94.3z"/>
	</g>
	<path stroke="#000000" stroke-miterlimit="10" d="M95,75.6c0-0.1,0,0.3,0.9-0.1c0.7-0.4,0.6-0.3,0.6-0.3s0,1.1,0.3,2
		c0.4,1.3,2.1,1.8,2.8,1.9c0.6,0.1,3.1,0.1,4-1c0.6-0.9,0.6-2.9,0.6-2.9h2.2c0,0-0.5,3.1-1.4,4.2c-1.2,1.4-2.6,1.5-3.5,1.6
		c-1,0.1-3,0.3-4.7-1.1C95.1,78.8,94.4,76.3,95,75.6z"/>
	<path fill="none" stroke="#3C2415" stroke-miterlimit="10" d="M127,46.4c-0.2-0.2,0.4-1.2,1.3-1.6c1-0.4,2.1-0.3,2.2,0
		C130.5,45.3,127.3,46.8,127,46.4z"/>
	<path fill="none" stroke="#3C2415" stroke-miterlimit="10" d="M77.7,47c0.1-0.2-1-1.3-2.3-1.6c-1.1-0.3-2.5-0.3-2.6,0
		C72.8,45.8,77.5,47.4,77.7,47z"/>
	<g>
		<path fill="#FFFFFF" stroke="#000000" stroke-miterlimit="10" d="M84.9,48.1c1,0.5,1.9-1,4.6-1c2.5,0,3.5,1.4,4.3,0.7
			c1-0.7,0.1-3.4-1-6.6c-0.9-2.6-1.6-3.5-2.7-4.3c-0.4-0.3-1.3-0.9-2.2-0.6c-0.4,0.1-1.4,0.4-2.6,3.5C85.3,40.3,83,47,84.9,48.1z"/>
		<path fill="#603913" stroke="#000000" stroke-miterlimit="10" d="M86.4,46.4c-1.5-1.9-0.6-4.3-0.4-4.6c0.1-0.1,1.3-3,3.3-3
			c1.9,0.1,2.9,2.6,3.1,3c0.7,1.8-0.5,5.7-3,5.5C87.6,47.1,87.5,47.8,86.4,46.4z"/>
		<path fill="#726658" stroke="#000000" stroke-miterlimit="10" d="M89.4,47.1c-1.2-0.1-1.6-0.3-1.6-1.6c0-0.6,0.3-2.2,1.5-2.2
			s1.5,0.4,1.6,1.9C90.9,46.1,90.6,47.2,89.4,47.1z"/>
	</g>
	<path fill="none" stroke="#000000" stroke-miterlimit="10" d="M104.2,32c1.7-0.5,5,0,7.6,2.9"/>
	<path fill="none" stroke="#000000" stroke-miterlimit="10" d="M84.9,34.9c0-1.6,3.4-2.9,7.6-2.9"/>
	<line fill="none" stroke="#000000" stroke-miterlimit="10" x1="108.2" y1="34.4" x2="108.2" y2="34.4"/>
	<g>
		<path fill="none" stroke="#3C2415" stroke-miterlimit="10" d="M98.2,53.4c-0.2-0.1-1.5-0.9-2.9-0.4c-1.3,0.4-2.5,1.7-2.2,3.1
			c0.2,1.1,1.1,1.8,1.9,2c1.1,0.3,2.2,0,3.1-0.9"/>
	</g>
	<path fill="none" stroke="#7C414B" stroke-miterlimit="10" d="M83.5,60c0.4-0.7,1.8-1.4,1.8-1.4s1.2,1.5,1.9,2.6
		c2.7,3.4,6.5,4.4,7.9,4.7c2.1,0.4,3.8,0.2,5.4,0.1c1.3-0.1,3.2-0.2,5.4-1.3c1.2-0.6,2.3-1.2,4.1-2.5c1.9-1.3,2.1-1.8,2.1-1.8
		c1.3-1.3,1.6-1.5,1.6-1.5s0.6,0.7,0.9,1.3"/>
	<g>
		<path fill="#FFFFFF" stroke="#000000" stroke-miterlimit="10" d="M103.2,48.1c1,0.5,1.9-1,4.6-1c2.5,0,3.5,1.4,4.3,0.7
			c1-0.7,0.1-3.4-1-6.6c-0.9-2.6-1.6-3.5-2.7-4.3c-0.4-0.3-1.3-0.9-2.2-0.6c-0.4,0.1-1.4,0.4-2.6,3.5
			C103.7,40.3,101.3,47,103.2,48.1z"/>
		<path fill="#603913" stroke="#000000" stroke-miterlimit="10" d="M104.7,46.4c-1.5-1.9-0.6-4.3-0.4-4.6c0.1-0.1,1.3-3,3.3-3
			c1.9,0.1,2.9,2.6,3.1,3c0.7,1.8-0.5,5.7-3,5.5C105.9,47.1,105.8,47.8,104.7,46.4z"/>
		<path fill="#726658" stroke="#000000" stroke-miterlimit="10" d="M107.7,47.1c-1.2-0.1-1.6-0.3-1.6-1.6c0-0.6,0.3-2.2,1.5-2.2
			c1.2,0,1.5,0.4,1.6,1.9C109.2,46.1,108.9,47.2,107.7,47.1z"/>
	</g>
</g>
<g id="Layer_2">
	<g>
		<g>
			<g>
				<path fill="#FFDE11" d="M135.3,89.9c0.1-0.7,1.1-1.7,1.6-1.8c0.6-0.2,0.8,0.1,0.9,0c0.1-0.1,0,0,0-0.6c0-0.8,1.2-1.7,2.2-2
					c1.3-0.4,3.4-0.1,3.9,1.1c0.3,0.7,0,1.5-0.1,1.7c-0.5,1-1.6,1.5-2.5,1.5c-1.1,0-1.3-0.6-2.3-0.6c-1,0.1-2.9,0.6-3.2,1.4
					c-0.1,0.3,0,0.6-0.1,0.6C135.7,91.3,135.2,90.6,135.3,89.9L135.3,89.9z"/>
				<path fill="none" stroke="#231F20" stroke-width="0.3583" stroke-miterlimit="10" d="M135.3,89.9c0.1-0.7,1.1-1.7,1.6-1.8
					c0.6-0.2,0.8,0.1,0.9,0c0.1-0.1,0,0,0-0.6c0-0.8,1.2-1.7,2.2-2c1.3-0.4,3.4-0.1,3.9,1.1c0.3,0.7,0,1.5-0.1,1.7
					c-0.5,1-1.6,1.5-2.5,1.5c-1.1,0-1.3-0.6-2.3-0.6c-1,0.1-2.9,0.6-3.2,1.4c-0.1,0.3,0,0.6-0.1,0.6
					C135.7,91.3,135.2,90.6,135.3,89.9L135.3,89.9z"/>
				<path fill="#FFDE11" d="M134.1,85.3c-0.6,0.5-0.6,1.6,0.1,2c0.6,0.4,1.4,0.3,1.8-0.3c0.3-0.5,0.2-1.1-0.1-1.6
					C135.4,84.9,134.5,84.9,134.1,85.3L134.1,85.3z"/>
				<path fill="none" stroke="#231F20" stroke-width="0.3583" stroke-miterlimit="10" d="M134.1,85.3c-0.6,0.5-0.6,1.6,0.1,2
					c0.6,0.4,1.4,0.3,1.8-0.3c0.3-0.5,0.2-1.1-0.1-1.6C135.4,84.9,134.5,84.9,134.1,85.3L134.1,85.3z"/>
				<path fill="#FFDE11" d="M123.9,90.3c-0.4-1,0.6-2.5,0.6-2.5c0.1-0.2,0.2-0.4,0.3-0.4c0.5-0.6,1.2-0.8,1.6-0.8
					c1-0.2,2.3-0.3,2.9-0.1c0.8,0.3,1.1,0.9,1.3,1.5c0.2,0.6-0.4,1.1-0.1,1.4c0.2,0.3,0.8-0.2,1.5,0.1c0.5,0.2,1,0.7,1.1,1.2
					c0.1,0.4-0.1,0.7-0.2,0.9C132,93.1,124.8,92.3,123.9,90.3L123.9,90.3z"/>
				<path fill="none" stroke="#231F20" stroke-width="0.3583" stroke-miterlimit="10" d="M123.9,90.3c-0.4-1,0.6-2.5,0.6-2.5
					c0.1-0.2,0.2-0.4,0.3-0.4c0.5-0.6,1.2-0.8,1.6-0.8c1-0.2,2.3-0.3,2.9-0.1c0.8,0.3,1.1,0.9,1.3,1.5c0.2,0.6-0.4,1.1-0.1,1.4
					c0.2,0.3,0.8-0.2,1.5,0.1c0.5,0.2,1,0.7,1.1,1.2c0.1,0.4-0.1,0.7-0.2,0.9C132,93.1,124.8,92.3,123.9,90.3L123.9,90.3z"/>
				<path fill="#FCEE23" d="M125.9,85.6c1-0.3,1.6,0.6,2.2,0.3c0.5-0.3,0.1-1.2,0.6-1.9c0.6-0.8,2-0.7,2.8-0.5
					c0.1,0,1.9,0.6,2.3,2.1c0.1,0.3,0.5,1,0.1,1.5c-0.5,0.6-1.3,0.4-1.7,1c-0.3,0.4-0.3,0.7-0.6,1.1c0,0-0.6,0-0.8,0.1
					c-0.7,0.4,0.1-0.9-0.4-2c-0.5-1.1-2.6-0.7-2.7-0.7c-1.6,0.2-2.5,1.4-2.9,1.1c-0.1-0.1-0.1-0.4,0-0.7
					C124.7,86.5,125.2,85.8,125.9,85.6L125.9,85.6z"/>
				<path fill="none" stroke="#231F20" stroke-width="0.3583" stroke-miterlimit="10" d="M125.9,85.6c1-0.3,1.6,0.6,2.2,0.3
					c0.5-0.3,0.1-1.2,0.6-1.9c0.6-0.8,2-0.7,2.8-0.5c0.1,0,1.9,0.6,2.3,2.1c0.1,0.3,0.5,1,0.1,1.5c-0.5,0.6-1.3,0.4-1.7,1
					c-0.3,0.4-0.3,0.7-0.6,1.1c0,0-0.6,0-0.8,0.1c-0.7,0.4,0.1-0.9-0.4-2c-0.5-1.1-2.6-0.7-2.7-0.7c-1.6,0.2-2.5,1.4-2.9,1.1
					c-0.1-0.1-0.1-0.4,0-0.7C124.7,86.5,125.2,85.8,125.9,85.6L125.9,85.6z"/>
				<path fill="#FFDE11" d="M124.1,86.6c-0.4-0.4-1,0.2-1.6-0.2c-0.5-0.3-0.7-1-0.6-1.6c0.1-0.9,0.9-1.6,1.8-1.5
					c0.7,0.1,1.1,0.6,1.2,0.7c0-0.3,0-0.9,0.4-1.4c0,0,0.1-0.2,0.3-0.3c0.5-0.5,1.5-0.8,2.5-0.7c0.8,0.1,2.2,0.7,2.4,1.8
					c0.2,1.2-1.2,2.4-2.4,2.5c-1,0.1-1.4-0.6-2.2-0.3c-1,0.4-1.1,2.3-1.4,2.2C124.3,88,124.5,87,124.1,86.6L124.1,86.6z"/>
				<path fill="none" stroke="#231F20" stroke-width="0.3583" stroke-miterlimit="10" d="M124.1,86.6c-0.4-0.4-1,0.2-1.6-0.2
					c-0.5-0.3-0.7-1-0.6-1.6c0.1-0.9,0.9-1.6,1.8-1.5c0.7,0.1,1.1,0.6,1.2,0.7c0-0.3,0-0.9,0.4-1.4c0,0,0.1-0.2,0.3-0.3
					c0.5-0.5,1.5-0.8,2.5-0.7c0.8,0.1,2.2,0.7,2.4,1.8c0.2,1.2-1.2,2.4-2.4,2.5c-1,0.1-1.4-0.6-2.2-0.3c-1,0.4-1.1,2.3-1.4,2.2
					C124.3,88,124.5,87,124.1,86.6L124.1,86.6z"/>
				<path fill="#FCEE23" d="M126.5,80.5c0.8-0.3,1.5,0.5,2.1,0.1c0.5-0.3,0.1-1.1,0.6-1.7c0.7-0.7,2.1-0.4,2.3-0.4
					c1.4,0.3,2.5,1.4,2.4,1.8c-0.2,0.6-2.3-0.2-3.3,0.9c-0.4,0.5-0.3,0.9-0.8,1.1c-0.7,0.3-1.4-0.8-2.5-0.7c-1,0-1.6,0.9-1.8,0.7
					C125.2,82.1,125.7,80.8,126.5,80.5L126.5,80.5z"/>
				<path fill="none" stroke="#231F20" stroke-width="0.3583" stroke-miterlimit="10" d="M126.5,80.5c0.8-0.3,1.5,0.5,2.1,0.1
					c0.5-0.3,0.1-1.1,0.6-1.7c0.7-0.7,2.1-0.4,2.3-0.4c1.4,0.3,2.5,1.4,2.4,1.8c-0.2,0.6-2.3-0.2-3.3,0.9c-0.4,0.5-0.3,0.9-0.8,1.1
					c-0.7,0.3-1.4-0.8-2.5-0.7c-1,0-1.6,0.9-1.8,0.7C125.2,82.1,125.7,80.8,126.5,80.5L126.5,80.5z"/>
				<path fill="#FFDE11" d="M130.2,83.3c0.5,0.5,1.2,0.1,2,0.6c0.6,0.4,0.5,0.8,1.1,1.2c0.8,0.5,1.6,0.3,1.9,0.3
					c0.4-0.1,1.3-0.2,1.8-1c0.3-0.4,0.5-1.4,0.2-1.7c-0.4-0.3-1,0.5-1.6,0.1c-0.7-0.4-0.2-1.5-1.1-2.3c-0.3-0.3-0.6-0.4-0.9-0.4
					c-1.4-0.4-3.3,0.2-3.8,1.5C129.7,82.2,129.8,82.9,130.2,83.3L130.2,83.3z"/>
				<path fill="none" stroke="#231F20" stroke-width="0.3583" stroke-miterlimit="10" d="M130.2,83.3c0.5,0.5,1.2,0.1,2,0.6
					c0.6,0.4,0.5,0.8,1.1,1.2c0.8,0.5,1.6,0.3,1.9,0.3c0.4-0.1,1.3-0.2,1.8-1c0.3-0.4,0.5-1.4,0.2-1.7c-0.4-0.3-1,0.5-1.6,0.1
					c-0.7-0.4-0.2-1.5-1.1-2.3c-0.3-0.3-0.6-0.4-0.9-0.4c-1.4-0.4-3.3,0.2-3.8,1.5C129.7,82.2,129.8,82.9,130.2,83.3L130.2,83.3z"/>
				<g>
					<g>
						<g>
							<g>
								<defs>
									
										<rect id="SVGID_1_" x="107.2" y="83.9" transform="matrix(-0.1063 0.9943 -0.9943 -0.1063 251.8239 -17.8757)" width="53.4" height="40.6"/>
								</defs>
								<clipPath id="SVGID_2_">
									<use xlink:href="#SVGID_1_"  overflow="visible"/>
								</clipPath>
								<path clip-path="url(#SVGID_2_)" fill="#F8ED34" d="M133.5,79c0.4-0.9,1.6-1.1,2.1-1.2c0.5-0.1,1.8-0.3,2.5,0.4
									c0.7,0.7,0.3,1.9,0.8,2.1c0.3,0.1,0.5-0.4,1-0.4c0.4,0,0.9,0.3,1,0.7c0.1,0.4-0.2,0.8-0.5,1.1c-0.9,0.7-2.1-0.1-2.8,0.6
									c-0.2,0.2-0.2,0.4-0.5,0.6c-0.4,0.2-1.1,0.3-1.5,0c-0.7-0.5-0.1-1.4-0.8-2.1c-0.5-0.5-1-0.4-1.3-0.9
									C133.3,79.5,133.5,79.1,133.5,79L133.5,79z"/>
							</g>
						</g>
					</g>
					<g>
						<g>
							<g>
								<defs>
									
										<rect id="SVGID_3_" x="107.2" y="83.9" transform="matrix(-0.1063 0.9943 -0.9943 -0.1063 251.8239 -17.8757)" width="53.4" height="40.6"/>
								</defs>
								<clipPath id="SVGID_4_">
									<use xlink:href="#SVGID_3_"  overflow="visible"/>
								</clipPath>
								<path clip-path="url(#SVGID_4_)" fill="none" stroke="#231F20" stroke-width="0.3583" stroke-miterlimit="10" d="M133.5,79
									c0.4-0.9,1.6-1.1,2.1-1.2c0.5-0.1,1.8-0.3,2.5,0.4c0.7,0.7,0.3,1.9,0.8,2.1c0.3,0.1,0.5-0.4,1-0.4c0.4,0,0.9,0.3,1,0.7
									c0.1,0.4-0.2,0.8-0.5,1.1c-0.9,0.7-2.1-0.1-2.8,0.6c-0.2,0.2-0.2,0.4-0.5,0.6c-0.4,0.2-1.1,0.3-1.5,0
									c-0.7-0.5-0.1-1.4-0.8-2.1c-0.5-0.5-1-0.4-1.3-0.9C133.3,79.5,133.5,79.1,133.5,79L133.5,79z"/>
							</g>
						</g>
					</g>
				</g>
				<path fill="#F8ED34" d="M132.6,92c0.4,0.6,2.9,0.4,3.2-0.2c0,0,0.2,0.2,0.2,0c-0.1-0.7-0.6-1-0.6-1.5c-0.1-0.6,0.4-1.2,0.8-1.6
					c0.6-0.5,1-0.6,1-0.8c0-0.4-0.8-0.7-1.5-0.8c-0.7-0.1-1.2,0.1-1.8,0.3c-0.8,0.3-1.2,0.4-1.6,0.8c-0.3,0.4-0.6,1.1-0.3,1.5
					c0.3,0.5,0.9,0.3,1.2,0.8C133.4,91,132.3,91.6,132.6,92L132.6,92z"/>
				<path fill="none" stroke="#231F20" stroke-width="0.3583" stroke-miterlimit="10" d="M132.6,92c0.4,0.6,2.9,0.4,3.2-0.2
					c0,0,0.2,0.2,0.2,0c-0.1-0.7-0.6-1-0.6-1.5c-0.1-0.6,0.4-1.2,0.8-1.6c0.6-0.5,1-0.6,1-0.8c0-0.4-0.8-0.7-1.5-0.8
					c-0.7-0.1-1.2,0.1-1.8,0.3c-0.8,0.3-1.2,0.4-1.6,0.8c-0.3,0.4-0.6,1.1-0.3,1.5c0.3,0.5,0.9,0.3,1.2,0.8
					C133.4,91,132.3,91.6,132.6,92L132.6,92z"/>
				<path fill="#FCEE23" d="M136.5,90.1c0.5-0.4,1-0.5,1.8-0.7c0.7-0.1,1-0.1,1.5-0.1c0.2,0,1.8,0.1,2,1.4c0,0.1,0.3,0.9-0.1,1.3
					c-0.4,0.4-1.1-0.1-2.5-0.2c-1.8-0.1-3,0.6-3.3,0.1c-0.1-0.2,0-0.4-0.1-0.7C135.7,90.6,136.3,90.2,136.5,90.1L136.5,90.1z"/>
				<path fill="none" stroke="#231F20" stroke-width="0.3583" stroke-miterlimit="10" d="M136.5,90.1c0.5-0.4,1-0.5,1.8-0.7
					c0.7-0.1,1-0.1,1.5-0.1c0.2,0,1.8,0.1,2,1.4c0,0.1,0.3,0.9-0.1,1.3c-0.4,0.4-1.1-0.1-2.5-0.2c-1.8-0.1-3,0.6-3.3,0.1
					c-0.1-0.2,0-0.4-0.1-0.7C135.7,90.6,136.3,90.2,136.5,90.1L136.5,90.1z"/>
				<path fill="#FFDE11" d="M141.2,92.1c0-0.2,0.5-0.5,0.7-0.5c0.7-0.2,1.3,0.2,1.4,0.3c0.3,0.2,1.2,0.9,1,1.1
					C144.1,93.4,141.1,92.5,141.2,92.1L141.2,92.1z"/>
				<path fill="none" stroke="#231F20" stroke-width="0.3583" stroke-miterlimit="10" d="M141.2,92.1c0-0.2,0.5-0.5,0.7-0.5
					c0.7-0.2,1.3,0.2,1.4,0.3c0.3,0.2,1.2,0.9,1,1.1C144.1,93.4,141.1,92.5,141.2,92.1L141.2,92.1z"/>
				<path fill="#FFDE11" d="M144.1,88.5c0.3,0,1.2-0.1,2.2,0.4c0.4,0.2,1.2,0.6,1.4,1.3c0.4,1-0.3,1.9,0,2.2
					c0.2,0.2,0.5-0.2,1.1-0.2c0.6,0,1.3,0.4,1.2,0.6c0,0.5-3.1,1.3-5.7,0.2c-0.5-0.2-1-1.5-2.1-1.5c-0.8,0-0.8-0.9-0.7-1.5
					C141.8,89.1,143.2,88.6,144.1,88.5L144.1,88.5z"/>
				<path fill="none" stroke="#231F20" stroke-width="0.3583" stroke-miterlimit="10" d="M144.1,88.5c0.3,0,1.2-0.1,2.2,0.4
					c0.4,0.2,1.2,0.6,1.4,1.3c0.4,1-0.3,1.9,0,2.2c0.2,0.2,0.5-0.2,1.1-0.2c0.6,0,1.3,0.4,1.2,0.6c0,0.5-3.1,1.3-5.7,0.2
					c-0.5-0.2-1-1.5-2.1-1.5c-0.8,0-0.8-0.9-0.7-1.5C141.8,89.1,143.2,88.6,144.1,88.5L144.1,88.5z"/>
				<path fill="#FFDE11" d="M144.5,84.4c0.3-0.4,2.6,0.3,3,1.7c0.2,0.8-0.4,1.2,0,1.9c0.4,0.7,1.2,0.5,1.5,1.2
					c0.4,0.8,0,2.1-0.8,2.3c-0.4,0.1-0.7,0-0.8-0.1c-1.1-0.4-0.8-1.7-1.9-2.5c-0.9-0.7-2.1-0.1-2.2-0.5c-0.1-0.5,1.5-1,1.9-1.9
					C145.7,85.6,144.3,84.7,144.5,84.4L144.5,84.4z"/>
				<path fill="none" stroke="#231F20" stroke-width="0.3583" stroke-miterlimit="10" d="M144.5,84.4c0.3-0.4,2.6,0.3,3,1.7
					c0.2,0.8-0.4,1.2,0,1.9c0.4,0.7,1.2,0.5,1.5,1.2c0.4,0.8,0,2.1-0.8,2.3c-0.4,0.1-0.7,0-0.8-0.1c-1.1-0.4-0.8-1.7-1.9-2.5
					c-0.9-0.7-2.1-0.1-2.2-0.5c-0.1-0.5,1.5-1,1.9-1.9C145.7,85.6,144.3,84.7,144.5,84.4L144.5,84.4z"/>
				<path fill="#FFDE11" d="M139.9,81.9c-0.2-0.5,1-1.5,1.8-1.8c1.4-0.7,2.9,0.2,3.2,0.4c0.4,0.3,1.4,0.8,1.5,1.7
					c0.1,0.9-0.6,1.5-0.3,1.8c0.2,0.2,0.5-0.1,1,0c0.8,0.2,1,1.4,1.1,2c0,0.6-0.3,2.2-0.5,2.3c-0.8,0.5-0.5-2.4-1.3-3.3
					c-0.5-0.5-0.9,0-1.9-0.5c-0.6-0.3-1,0-1.5,0c-0.6,0-0.6,0.2-0.9,0.1c-0.3-0.1,0.1-1.1-0.4-1.9C141.3,82.1,140.1,82.4,139.9,81.9
					L139.9,81.9z"/>
				<path fill="none" stroke="#231F20" stroke-width="0.3583" stroke-miterlimit="10" d="M139.9,81.9c-0.2-0.5,1-1.5,1.8-1.8
					c1.4-0.7,2.9,0.2,3.2,0.4c0.4,0.3,1.4,0.8,1.5,1.7c0.1,0.9-0.6,1.5-0.3,1.8c0.2,0.2,0.5-0.1,1,0c0.8,0.2,1,1.4,1.1,2
					c0,0.6-0.3,2.2-0.5,2.3c-0.8,0.5-0.5-2.4-1.3-3.3c-0.5-0.5-0.9,0-1.9-0.5c-0.6-0.3-1,0-1.5,0c-0.6,0-0.6,0.2-0.9,0.1
					c-0.3-0.1,0.1-1.1-0.4-1.9C141.3,82.1,140.1,82.4,139.9,81.9L139.9,81.9z"/>
				<path fill="#FCEE23" d="M147.8,88.1c0-0.4,0.1-1.7,0.4-1.9c0.8-0.3,2.2,0.9,2.6,1.1c0.9,0.5,2.1,1.6,1.9,2.5
					c-0.1,0.6-0.7,0.8-0.6,1.1c0.1,0.4,1,0.2,1.6,0.8c0.5,0.5,0.7,1.4,0.4,1.9c-0.7,1-3.9,0.6-4.6-0.8c-0.1-0.2-0.2-0.5-0.5-0.7
					c-0.6-0.3-1.1,0.3-1.3,0c-0.1-0.2-0.3-0.7-0.1-0.9c0.6-0.6,0.9-0.1,1.3-0.6c0.3-0.4,0.4-0.6,0.2-1.3
					C148.8,88.4,147.8,88.7,147.8,88.1L147.8,88.1z"/>
				<path fill="none" stroke="#231F20" stroke-width="0.3583" stroke-miterlimit="10" d="M147.8,88.1c0-0.4,0.1-1.7,0.4-1.9
					c0.8-0.3,2.2,0.9,2.6,1.1c0.9,0.5,2.1,1.6,1.9,2.5c-0.1,0.6-0.7,0.8-0.6,1.1c0.1,0.4,1,0.2,1.6,0.8c0.5,0.5,0.7,1.4,0.4,1.9
					c-0.7,1-3.9,0.6-4.6-0.8c-0.1-0.2-0.2-0.5-0.5-0.7c-0.6-0.3-1.1,0.3-1.3,0c-0.1-0.2-0.3-0.7-0.1-0.9c0.6-0.6,0.9-0.1,1.3-0.6
					c0.3-0.4,0.4-0.6,0.2-1.3C148.8,88.4,147.8,88.7,147.8,88.1L147.8,88.1z"/>
				<path fill="#FCEE23" d="M137.3,83.9c0.5-0.6-0.3-0.8,0.1-1.5c0.4-0.7,2.2-0.5,2.8-0.5c0.2,0,2.2,0,2.7,1.1
					c0.3,0.7,0,1.4,0.2,1.5c0.3,0.1,0.5-0.6,1.1-0.6c0.6,0,1.1,0.7,1.3,1.3c0.2,0.6,0.4,1.6-0.2,2.1c-0.3,0.2-0.7,0.3-1,0.2
					c-0.8-0.2-0.6-1.2-1.4-1.7c-0.9-0.5-2.9-0.4-3.9,0.1c-0.9,0.5-0.4,1.9-1.2,2.2c-0.3,0.1-0.7,0-0.9,0c-0.8-0.2-1.1-0.9-1.1-1
					c-0.2-0.6-0.2-1.3,0.2-1.8C136.6,84.7,136.8,84.4,137.3,83.9L137.3,83.9z"/>
				<path fill="none" stroke="#231F20" stroke-width="0.3583" stroke-miterlimit="10" d="M137.3,83.9c0.5-0.6-0.3-0.8,0.1-1.5
					c0.4-0.7,2.2-0.5,2.8-0.5c0.2,0,2.2,0,2.7,1.1c0.3,0.7,0,1.4,0.2,1.5c0.3,0.1,0.5-0.6,1.1-0.6c0.6,0,1.1,0.7,1.3,1.3
					c0.2,0.6,0.4,1.6-0.2,2.1c-0.3,0.2-0.7,0.3-1,0.2c-0.8-0.2-0.6-1.2-1.4-1.7c-0.9-0.5-2.9-0.4-3.9,0.1c-0.9,0.5-0.4,1.9-1.2,2.2
					c-0.3,0.1-0.7,0-0.9,0c-0.8-0.2-1.1-0.9-1.1-1c-0.2-0.6-0.2-1.3,0.2-1.8C136.6,84.7,136.8,84.4,137.3,83.9L137.3,83.9z"/>
				<path fill="#FCEE23" d="M115.8,89.8c-0.3-0.6,0-1.5,0.5-1.9c0.7-0.6,1.6,0.2,2.4-0.4s0.4-1.6,1.4-2.3c0.5-0.4,1.3-0.5,1.6-0.2
					s0,0.9,0.4,1.3c0.5,0.5,1.3,0,1.9,0.5c0.4,0.3,0.4,0.9,0.5,1.8c0,0.6,0.1,1-0.1,1.3c-0.4,0.6-1.4,0.7-2,0.7
					C118.2,90.5,116.1,90.5,115.8,89.8L115.8,89.8z"/>
				<g>
					<g>
						<g>
							<g>
								<defs>
									
										<rect id="SVGID_5_" x="107.2" y="83.9" transform="matrix(-0.1063 0.9943 -0.9943 -0.1063 251.8239 -17.8757)" width="53.4" height="40.6"/>
								</defs>
								<clipPath id="SVGID_6_">
									<use xlink:href="#SVGID_5_"  overflow="visible"/>
								</clipPath>
								<path clip-path="url(#SVGID_6_)" fill="none" stroke="#231F20" stroke-width="0.3583" stroke-miterlimit="10" d="
									M115.8,89.8c-0.3-0.6,0-1.5,0.5-1.9c0.7-0.6,1.6,0.2,2.4-0.4c0.8-0.6,0.4-1.6,1.4-2.3c0.5-0.4,1.3-0.5,1.6-0.2
									c0.4,0.3,0,0.9,0.4,1.3c0.5,0.5,1.3,0,1.9,0.5c0.4,0.3,0.4,0.9,0.5,1.8c0,0.6,0.1,1-0.1,1.3c-0.4,0.6-1.4,0.7-2,0.7
									C118.2,90.5,116.1,90.5,115.8,89.8L115.8,89.8z"/>
							</g>
						</g>
					</g>
				</g>
				<path fill="#EC2227" d="M115.6,90.1l-0.6,13.2c0,0-1.1,17.7-1.7,25.1l35.4,3.8c1.4-6.7,3.6-20,3.6-20l2.7-17.9
					c0,0-3.5-0.8-4.7-0.8c-1.4-0.1-4.1,0.4-5.5,0.1c-1.5-0.2-4-1.2-5.7-1.4c-1.7-0.2-5.2,0.4-6.9,0.1c-1.4-0.3-4.1-1.6-5.5-1.7
					c-2-0.1-6,0.4-8,0.2C117.9,90.8,115.6,90.1,115.6,90.1L115.6,90.1z"/>
				<g>
					<g>
						<g>
							<g>
								<defs>
									
										<rect id="SVGID_7_" x="107.2" y="83.9" transform="matrix(-0.1063 0.9943 -0.9943 -0.1063 251.8239 -17.8757)" width="53.4" height="40.6"/>
								</defs>
								<clipPath id="SVGID_8_">
									<use xlink:href="#SVGID_7_"  overflow="visible"/>
								</clipPath>
								<path clip-path="url(#SVGID_8_)" fill="none" stroke="#EC2227" stroke-width="2.8669" stroke-miterlimit="10" d="
									M115.6,90.1l-0.6,13.2c0,0-1.1,17.7-1.7,25.1l35.4,3.8c1.4-6.7,3.6-20,3.6-20l2.7-17.9c0,0-3.5-0.8-4.7-0.8
									c-1.4-0.1-4.1,0.4-5.5,0.1c-1.5-0.2-4-1.2-5.7-1.4c-1.7-0.2-5.2,0.4-6.9,0.1c-1.4-0.3-4.1-1.6-5.5-1.7c-2-0.1-6,0.4-8,0.2
									C117.9,90.8,115.6,90.1,115.6,90.1L115.6,90.1z"/>
							</g>
						</g>
					</g>
				</g>
				<polygon fill="#FFFFFF" points="115,129 112.9,128.7 116.8,90.4 119.1,90.8 				"/>
				<g>
					<g>
						<g>
							<g>
								<defs>
									
										<rect id="SVGID_9_" x="107.2" y="83.9" transform="matrix(-0.1063 0.9943 -0.9943 -0.1063 251.8239 -17.8757)" width="53.4" height="40.6"/>
								</defs>
								<clipPath id="SVGID_10_">
									<use xlink:href="#SVGID_9_"  overflow="visible"/>
								</clipPath>
								<polygon clip-path="url(#SVGID_10_)" fill="none" stroke="#FFFFFF" stroke-width="0.3583" stroke-miterlimit="10" points="
									115,129 112.9,128.7 116.8,90.4 119.1,90.8 								"/>
							</g>
						</g>
					</g>
				</g>
				<polygon fill="#FFFFFF" points="119.1,129.4 117,129.2 121.1,90.8 123.2,90.7 				"/>
				<g>
					<g>
						<g>
							<g>
								<defs>
									
										<rect id="SVGID_11_" x="107.2" y="83.9" transform="matrix(-0.1063 0.9943 -0.9943 -0.1063 251.8239 -17.8757)" width="53.4" height="40.6"/>
								</defs>
								<clipPath id="SVGID_12_">
									<use xlink:href="#SVGID_11_"  overflow="visible"/>
								</clipPath>
								<polygon clip-path="url(#SVGID_12_)" fill="none" stroke="#FFFFFF" stroke-width="0.3583" stroke-miterlimit="10" points="
									119.1,129.4 117,129.2 121.1,90.8 123.2,90.7 								"/>
							</g>
						</g>
					</g>
				</g>
				<polygon fill="#FFFFFF" points="123.2,129.8 121.1,129.6 125.2,90.6 127.4,90.7 				"/>
				<g>
					<g>
						<g>
							<g>
								<defs>
									
										<rect id="SVGID_13_" x="107.2" y="83.9" transform="matrix(-0.1063 0.9943 -0.9943 -0.1063 251.8239 -17.8757)" width="53.4" height="40.6"/>
								</defs>
								<clipPath id="SVGID_14_">
									<use xlink:href="#SVGID_13_"  overflow="visible"/>
								</clipPath>
								<polygon clip-path="url(#SVGID_14_)" fill="none" stroke="#FFFFFF" stroke-width="0.3583" stroke-miterlimit="10" points="
									123.2,129.8 121.1,129.6 125.2,90.6 127.4,90.7 								"/>
							</g>
						</g>
					</g>
				</g>
				<polygon fill="#FFFFFF" points="127.3,130.2 125.1,130 129.3,91.4 131.3,92.1 				"/>
				<g>
					<g>
						<g>
							<g>
								<defs>
									
										<rect id="SVGID_15_" x="107.2" y="83.9" transform="matrix(-0.1063 0.9943 -0.9943 -0.1063 251.8239 -17.8757)" width="53.4" height="40.6"/>
								</defs>
								<clipPath id="SVGID_16_">
									<use xlink:href="#SVGID_15_"  overflow="visible"/>
								</clipPath>
								<polygon clip-path="url(#SVGID_16_)" fill="none" stroke="#FFFFFF" stroke-width="0.3583" stroke-miterlimit="10" points="
									127.3,130.2 125.1,130 129.3,91.4 131.3,92.1 								"/>
							</g>
						</g>
					</g>
				</g>
				<polygon fill="#FFFFFF" points="131.2,130.7 129.1,130.4 133.2,92.5 135.4,92.2 				"/>
				<g>
					<g>
						<g>
							<g>
								<defs>
									
										<rect id="SVGID_17_" x="107.2" y="83.9" transform="matrix(-0.1063 0.9943 -0.9943 -0.1063 251.8239 -17.8757)" width="53.4" height="40.6"/>
								</defs>
								<clipPath id="SVGID_18_">
									<use xlink:href="#SVGID_17_"  overflow="visible"/>
								</clipPath>
								<polygon clip-path="url(#SVGID_18_)" fill="none" stroke="#FFFFFF" stroke-width="0.3583" stroke-miterlimit="10" points="
									131.2,130.7 129.1,130.4 133.2,92.5 135.4,92.2 								"/>
							</g>
						</g>
					</g>
				</g>
				<polygon fill="#FFFFFF" points="135.3,131.1 133.3,130.9 137.3,92.3 139.5,92.3 				"/>
				<g>
					<g>
						<g>
							<g>
								<defs>
									
										<rect id="SVGID_19_" x="107.2" y="83.9" transform="matrix(-0.1063 0.9943 -0.9943 -0.1063 251.8239 -17.8757)" width="53.4" height="40.6"/>
								</defs>
								<clipPath id="SVGID_20_">
									<use xlink:href="#SVGID_19_"  overflow="visible"/>
								</clipPath>
								<polygon clip-path="url(#SVGID_20_)" fill="none" stroke="#FFFFFF" stroke-width="0.3583" stroke-miterlimit="10" points="
									135.3,131.1 133.3,130.9 137.3,92.3 139.5,92.3 								"/>
							</g>
						</g>
					</g>
				</g>
				<polygon fill="#FFFFFF" points="139.5,131.6 137.4,131.3 141.5,92.8 143.6,93.3 				"/>
				<g>
					<g>
						<g>
							<g>
								<defs>
									
										<rect id="SVGID_21_" x="107.2" y="83.9" transform="matrix(-0.1063 0.9943 -0.9943 -0.1063 251.8239 -17.8757)" width="53.4" height="40.6"/>
								</defs>
								<clipPath id="SVGID_22_">
									<use xlink:href="#SVGID_21_"  overflow="visible"/>
								</clipPath>
								<polygon clip-path="url(#SVGID_22_)" fill="none" stroke="#FFFFFF" stroke-width="0.3583" stroke-miterlimit="10" points="
									139.5,131.6 137.4,131.3 141.5,92.8 143.6,93.3 								"/>
							</g>
						</g>
					</g>
				</g>
				<polygon fill="#FFFFFF" points="143.7,132 141.5,131.8 145.6,93.7 147.7,93.6 				"/>
				<g>
					<g>
						<g>
							<g>
								<defs>
									
										<rect id="SVGID_23_" x="107.2" y="83.9" transform="matrix(-0.1063 0.9943 -0.9943 -0.1063 251.8239 -17.8757)" width="53.4" height="40.6"/>
								</defs>
								<clipPath id="SVGID_24_">
									<use xlink:href="#SVGID_23_"  overflow="visible"/>
								</clipPath>
								<polygon clip-path="url(#SVGID_24_)" fill="none" stroke="#FFFFFF" stroke-width="0.3583" stroke-miterlimit="10" points="
									143.7,132 141.5,131.8 145.6,93.7 147.7,93.6 								"/>
							</g>
						</g>
					</g>
				</g>
				<polygon fill="#FFFFFF" points="147.7,132.5 145.6,132.2 149.7,93.5 151.8,93.7 				"/>
				<g>
					<g>
						<g>
							<g>
								<defs>
									
										<rect id="SVGID_25_" x="107.2" y="83.9" transform="matrix(-0.1063 0.9943 -0.9943 -0.1063 251.8239 -17.8757)" width="53.4" height="40.6"/>
								</defs>
								<clipPath id="SVGID_26_">
									<use xlink:href="#SVGID_25_"  overflow="visible"/>
								</clipPath>
								<polygon clip-path="url(#SVGID_26_)" fill="none" stroke="#FFFFFF" stroke-width="0.3583" stroke-miterlimit="10" points="
									147.7,132.5 145.6,132.2 149.7,93.5 151.8,93.7 								"/>
							</g>
						</g>
					</g>
				</g>
				<polygon fill="#FFFFFF" points="152.4,113 150.2,125.2 153.6,94.1 155,94.3 				"/>
				<g>
					<g>
						<g>
							<g>
								<defs>
									
										<rect id="SVGID_27_" x="107.2" y="83.9" transform="matrix(-0.1063 0.9943 -0.9943 -0.1063 251.8239 -17.8757)" width="53.4" height="40.6"/>
								</defs>
								<clipPath id="SVGID_28_">
									<use xlink:href="#SVGID_27_"  overflow="visible"/>
								</clipPath>
								<polygon clip-path="url(#SVGID_28_)" fill="none" stroke="#FFFFFF" stroke-width="0.3583" stroke-miterlimit="10" points="
									152.4,113 150.2,125.2 153.6,94.1 155,94.3 								"/>
							</g>
						</g>
					</g>
				</g>
				
					<text transform="matrix(0.9943 0.1063 -0.1063 0.9943 120.9265 102.3782)" fill="#231F20" font-family="'Monaco'" font-size="6.5258">POPCORN</text>
				<g>
					<g>
						<g>
							<g>
								<defs>
									
										<rect id="SVGID_29_" x="107.2" y="83.9" transform="matrix(-0.1063 0.9943 -0.9943 -0.1063 251.8239 -17.8757)" width="53.4" height="40.6"/>
								</defs>
								<clipPath id="SVGID_30_">
									<use xlink:href="#SVGID_29_"  overflow="visible"/>
								</clipPath>
								<g clip-path="url(#SVGID_30_)">
									
										<text transform="matrix(0.9943 0.1063 -0.1063 0.9943 120.9265 102.3782)" fill="none" stroke="#231F20" stroke-width="0.3563" stroke-miterlimit="10" font-family="'Monaco'" font-size="6.5258">POPCORN</text>
								</g>
							</g>
						</g>
					</g>
				</g>
			</g>
		</g>
	</g>
</g>
</svg>
