<?xml version="1.0" encoding="utf-8"?>
<!-- Generator: Adobe Illustrator 18.1.0, SVG Export Plug-In . SVG Version: 6.00 Build 0)  -->
<!DOCTYPE svg PUBLIC "-//W3C//DTD SVG 1.1//EN" "http://www.w3.org/Graphics/SVG/1.1/DTD/svg11.dtd">
<svg version="1.1" id="Layer_1" xmlns="http://www.w3.org/2000/svg" xmlns:xlink="http://www.w3.org/1999/xlink" x="0px" y="0px"
	 viewBox="0 0 151.3 187.9" enable-background="new 0 0 151.3 187.9" xml:space="preserve">
<path fill="#BE1E2D" stroke="#000000" stroke-miterlimit="10" d="M100.8,146.3c1.9,2.1,4.5-2.8,9.3-4.5c4.9-1.7,6,1,10.1-0.4
	c5.9-2,4.5-7.7,11.4-11.7c1.2-0.7,4.7-1.8,11.8-3.9c5.9-1.8,6.7-1.9,7.1-2.8c1.4-3.3-7.7-7.2-16.7-19.1c-5.2-6.8-4.6-8.7-9.8-13.9
	c-3.4-3.4-6.5-5.4-12.6-9.4c-4.9-3.2-8.4-5-12.6-6.4c-2.4-0.8-7.4-1.1-7.4-1.1c-4.2,0.4-0.4,45,3,48.3c1.3,1.2,2.4,6.1,3.2,14.8
	c0.2,2.1,0.1,4.3,0.6,6.8C98.6,144.5,99.6,145,100.8,146.3z"/>
<path stroke="#000000" stroke-miterlimit="10" d="M140.3,60c0-0.9-8.3-0.8-13.4-6.7c-1.9-2.2-2.6-4.4-6.2-7.3
	c-1.6-1.3-3.3-2.4-3.1-2.8c0.3-0.7,5.6,2,6.6,0.8c0.9-1.2-3.4-5.1-7.8-11.5c-6.3-9-4.4-10.6-9.2-16C101.5,10.2,94.6,7.7,91,6.3
	c0,0-8.3-3.5-14.5-2.9c-1.5,0.1-3,0.5-3,0.5s-1,0.2-2,0.6c-3.3,1.1-11.4,8.2-11.9,7.8C59.2,12,62.9,8,66,5.5s7.3-3.3,7.1-3.7
	c-1-2.1-16.4,6.3-17.4,7.1c-1.1,0.9,3.5-8.6,3.2-8.5C58.5,0.7,53,7.7,50.5,12c-2.3,4.1-2.2,3.8-4.9,7.7c-2.4,3.6-2.6,8.6-3,11.7
	c-0.3,2.7-0.3,5.2-0.2,6.4c0.1,1.9,0.4,3.3,0.5,3.9c0.2,1.3,0.7,3.7,1.8,6.4c0.7,1.6,1.5,3,1.9,3.7c0,0,0.2,0.4,0.5,0.8
	c2.7,4.3,5.8,7,5.8,7c1.2,1.1,4.5,4.5,9.2,5.8c3.2,0.9,9.7,2.1,9.8,2.2c0,0-0.2-3.7-0.1-2c0,0-16.3-2.3-18.3-10.2
	c-0.9-3.4,1.2-9-0.9-9c-1.2,0-1.9,1-3.8,0.2c-3.1-1.4-5.3-6.5-3.4-8.2c1.1-1,3.4-0.6,4.8,0.4c2.3,1.5,2.5,4.3,3.1,4.2
	c0.8-0.1-0.6-4.6,1.8-8.3c0.9-1.5,1.6-1.4,3.5-4.1c1.1-1.6,1.7-2.5,2.1-3.8c0.7-2.7-0.4-4.2,0.4-4.8c1-0.9,3.3,1.3,6.9,2.5
	c5.1,1.6,6.1-1.1,11.8,0.1c4,0.8,3.1,2.1,10.7,4.9c1.4,0.5,2.9,1,4.1,2.5c2,2.3,2,5.2,2,5.5c0,2.7-1.4,4.7-1.1,4.8
	c0.4,0.2,1.8-3.3,4.5-3.8c1.3-0.2,3,0.2,3.8,1.4c1,1.5,0.2,3.4,0,4.1c-1.1,3-3.2,2.7-4.5,5.5c-0.9,2,0,2.5-1.1,5.5
	c-0.8,2.2-1.8,3.6-2.5,4.5c-0.9,1.2-2.1,2.8-4.2,4.1c-1.5,0.9-3.2,1.3-6.6,2c0,0-1.5-0.3-6.1,0.5c0.2-1.1-0.3,2.9,0.2,3.9
	c0.7,1.5,4.7,0.4,9,0.4c2.8,0,1.9,0.5,15.5,3.9c0,0,5.5,1.4,10.8,1.8c0,0,0,0,0,0c4.9,0.4,7.3,0.5,7.5,0.1c0.2-0.8-6.6-4.9-6.2-3.9
	c0.1,0.2,22.3,0,23.9-1.5c1.9-1.8-14.4-9.9-12-9.8C128.3,61.3,140.2,63.1,140.3,60z"/>
<path fill="#F9ED32" stroke="#000000" stroke-miterlimit="10" d="M82.1,71.6c1.2-0.9,2.8-0.5,5.4,0.1c1.2,0.3,3.1,0.6,5.2,1
	c3.4,0.7,5.4,1.6,8.7,0.3c3.7-1.4,9-4.8,12.4-6.7c0.1,0,3.6-6.3,6.1-8.3c1-0.8,1.6,2.3,2.9,3.2c1,0.7,4.1,2,4.5,2.5
	c0,0-0.5,0.3-1.2,1c-1.1,1.1-3.5,4.7-4.7,5.8c-1,0.9-3.8,4.1-4.5,5c-1.2,1.5-4,2.5-5.8,3.3c-1.5,0.6-5.6,2.3-8,3.1
	c-1.4,0.5-6.9,6.4-7.4,6.9c-0.7,0.6-1,2-2.6,5c-1,1.9-1.3,2-1.9,3.5c-0.5,1.4-0.8,5.5-0.1,8.3c0,0,0.6,0.2,0.7,2.9l0.4,1.7
	c-0.3,0.6-2.3-0.1-5.4-0.1c-3.2,0.1-3.5,0.7-5.1,0.3c-1.7-0.5-1.8-1.2-3.8-2c-1.7-0.6-3.8-0.6-4.3-0.4c-1.7,0.4-1.9,0.9-3.9,1.5
	c-0.6,0.2-0.3,0-1.8,0.2c-2.6,0.3-4.2,0.3-5.7,0.1c-1.4-0.2-1.6-0.4-1.7-0.5c-0.7-0.9,0.2-2.4,0.9-5.4c0.2-0.9,0.9-3.2,0.2-5.9
	c-0.3-1.1-1.1-2.1-2.4-4.6c-1.6-3.1-1.4-3.1-1.9-4.7c-0.3-0.8-0.3-0.8-2.8-3.4c-2.4-2.5-2.3-2.2-3.6-3.7c-1.1-1.3-3.6-4.6-5.7-4.6
	c-1,0-11.8-3.2-13.3-4.8c-0.8-0.9-6.2-9.6-6.4-10c-1.2-2,0.6-3.5,1-3.9c1.8-1.4,2.2-1.2,3.5-2.5c1.4-1.5,2-3.3,2.6-1.6
	c0.3,0.8,4.6,10.5,6,11.2c2.6,1.3,14.5,5.8,15.9,6.3c3.1,1.1,4.6,1.8,7.5,1.1c1.2-0.3,2.3-0.8,4.9-1.3c3.1-0.6,3.6-0.3,3.9-0.1
	c1.1,0.8,0.2,2.3,1.3,3.7c1.1,1.5,3.3,1.5,4,1.6c0.8,0,2.5,0.1,3.7-1C81.6,74.1,80.8,72.6,82.1,71.6z"/>
<path fill="#593B2B" stroke="#593B2B" stroke-miterlimit="10" d="M72.6,73c0,0-0.2-5-0.5-8c0,0-2.6,1.3-9.3-1.3
	c-0.8-0.3-3.5-0.9-6.7-4.2c-1.4-1.5-1.7-3.5-2-4.9c-0.6-2.8,0.2-3.1,0.3-6.5c0,0,0.7-0.2-1.1-1.7c-0.2-0.2-1.4-0.2-1.7,0
	c-0.6,0.3-1.7,0.7-2.9,0.3C47,46,46.4,44.2,46,43.1c-0.3-0.8-1.1-3.1,0-4.2c0.9-0.8,2.4-0.6,3.4-0.3c3,1.1,3.5,5,4.5,4.9
	c0.8-0.1-1-2,0.1-6.5c0.3-1.3,0.5-1.8,2.4-3.9c1.4-1.5,2.7-3.5,3.8-5.1c0.9-1.3,0.5-5.7,1.5-5.9c2-0.4,2.5,1.8,6.5,3.2
	c5,1.7,6.2-1.1,11.9,0.1c2.9,0.6,1.8,1.2,10.7,5.2c2.2,1,3,1.3,3.7,2.3c2.6,3.6,0.2,9,0.5,9.5c0.3,0.4,2.1-2.9,5.3-3
	c1.1,0,2.8,0.4,3.4,1.4c1.4,2.6-2.1,4.6-4.6,8.8c-1.9,3.2-2.1,7.4-3.5,10c-1.2,2.1-2.7,3.8-6.5,5.1c-4.5,1.5-8.7,1.8-10.6,0.8
	c0,0,0,0,0,0c-1.7,2.8-0.3,5.6-0.3,5.6c0,0.3,0,0.9,0,1.6c-0.4,0.3-1.1,0.8-2.1,1c-0.3,0.1-0.6,0.1-1,0.1C73.7,73.9,72.6,73,72.6,73
	z"/>
<polygon fill="#2E3192" stroke="#000000" stroke-miterlimit="10" points="80.6,81.6 87,88.3 80.5,97.5 67.5,97.4 61.2,88.2 
	67.8,81.5 "/>
<polygon fill="#FFFFFF" stroke="#000000" stroke-miterlimit="10" points="82.3,88.2 78.2,94.1 70.5,94 65.9,88.1 68.1,85.2 
	79.8,85.3 "/>
<path fill="#F7941E" stroke="#000000" stroke-miterlimit="10" d="M92,110.6c0.3,1.2,0.7,2.5,1,3.7l-11-0.1l-1.1-4.1L92,110.6z"/>
<polygon fill="#F7941E" stroke="#000000" stroke-miterlimit="10" points="68.6,110.2 68.5,114.8 58.6,114 59.8,109.9 "/>
<path fill="#2E3192" stroke="#000000" stroke-miterlimit="10" d="M80.5,110.8c0.1,0.3,1.3,2.4,0.3,4.4c-1.3,2.6-4.9,2.6-5.6,2.6
	c-0.8,0-4.7-0.1-6.2-3.1c-0.1-0.1-1.1-2.5,0-4.6c1.7-3,6.1-2.4,6.6-2.3C76.5,108,79.2,108.4,80.5,110.8z"/>
<path fill="#BE1E2D" stroke="#000000" stroke-miterlimit="10" d="M77.8,111.5c0.6,1,0.5,2.4-0.2,3.2c-1.1,1.4-3.5,1.1-4.7,0
	c-0.7-0.6-1.4-1.8-1-2.9c0.4-1,1.8-1.2,2.4-1.3C74.8,110.3,76.9,110,77.8,111.5z"/>
<path fill="#F9ED32" stroke="#000000" stroke-miterlimit="10" d="M93,115c0,0,1,2.9,1.9,6.1c0.1,0.5,0.8,3,1.1,4.4
	c2.4,8.7,1.7,17.4,2.6,18.3c1.2,1.2,1.4,2.1,1.7,3.7c0.4,2,0.4,3.1,0.5,4.9c0,0.9,0.5,1.6,0.3,2.2c-0.2,0.9-1.6,1.2-2.5,1.5
	c-0.5,0.1-2.8,0.5-4.6,0.3c-1.9-0.1-4.2-1-4.2-1l0-0.7c0,0-0.2-2.3-0.6-3.4c-1.2-3.4-2.7-5.6-4.9-8.2c-6.7-7.9-7.1-12-8.6-12.6
	c0,0-2.8,4.1-10.5,13.3c-2.3,2.8-4.2,4.6-4.3,7.6c-0.1,1.7,0.5,3.4-0.5,4.4c-0.2,0.2-0.6,0.5-3.2,0.6c-4.6,0.2-6-0.6-6.4-0.9
	c-0.5-0.3-1.3-0.9-1.3-1.7c0-0.8-0.1-1.4,0-2.3c0.4-2.3,0.3-2.9,1.5-5c0.5-0.9,0.9-2.1,1.4-3.2c1.1-2.3,0-8.9,1.4-15.2
	c0.8-3.5,0.2-6.3,1.3-7.3c2-1.9,3.3-6,3.3-6s9-0.3,9.9,0.4c2.5,1.8,2.1,2.8,6.8,2.8c4,0,5.6-2.6,6.7-3C85.5,113.9,93,115,93,115z"/>
<path stroke="#000000" stroke-miterlimit="10" d="M102.4,158.3c0-1.6,0.1-3-0.6-3.4c-0.4-0.2-0.8,0-1.9,0.3
	c-1.2,0.4-2.5,0.8-3.7,0.8c-2,0-5.8-0.4-6.1-0.1c-1.1,1.3,1.2,5.1,2.8,7.8c2.4,4,3.1,4,3.5,5.9c0.3,1.8-0.2,2.1-0.1,6.1
	c0.1,2.9,0.5,3.7,0.6,4.1c0.3,0.7,0.8,1.5,3.3,3.6c2.6,2.1,3.9,3.2,5,3.6c0.3,0.1,4.2,1.3,6.9-0.8c0.5-0.3,1.3-1,1.5-2
	c0.1-0.4,0.3-1.7-1.8-4.4c-2.2-2.8-3.6-3-6.4-6.1c-1.1-1.2-1.6-1.8-2-2.7c-0.9-2-0.2-2.9-0.4-6.8C103,160.7,102.4,161.3,102.4,158.3
	z"/>
<path stroke="#000000" stroke-miterlimit="10" d="M58.8,160.6c0.9-1.7,2.4-4.5,1.6-5.4c-0.4-0.4-1.1,0-3.2,0.3
	c-2.3,0.3-4.8,0.7-6.4-0.6c-1-0.8-1-1.7-1.5-1.7c-1.3,0.1-1.8,7.1-1.9,8.6c-0.5,6.1,0.3,6.5-0.6,8.6c-0.7,1.5-1.2,1.6-6.5,6.9
	c-3.8,3.8-4.7,4.9-4.4,6.2c0.3,1.9,2.8,2.8,3.3,3.1c2.9,1.2,5.6-0.1,6.1-0.3c1.6-0.7,1.4-1.3,4.8-4.2c2.5-2.1,2.7-1.9,3.1-2.7
	c0.8-1.6,0.1-2.6,0.2-6.7c0-1.3,0.1-2,0.2-2.7C54.1,166.4,56.2,165.4,58.8,160.6z"/>
<path fill="#BE1E2D" stroke="#000000" stroke-miterlimit="10" d="M47.7,77.6c0,0-0.9,1-3.6,2.7c-2.3,1.4-6.9,5-11.1,11
	c-3.9,5.7-3.4,8.1-8.2,14.3c-3.7,4.7-6.2,6.1-7.1,6.5c-3.8,1.8-7.9,2-10,1.9c-4.3-0.1-5.8-1.4-6.7-0.4c-1.6,1.7,0.8,7.8,5,11.7
	c2.1,2,5.1,3.5,11.2,6.5c3.2,1.6,2.9,1.3,3.9,1.9c5.6,3.5,4.9,7.2,9.2,10.2c3.7,2.6,4.1,3.1,11.8,3.1c4.5,0,7.1,3.2,7.9,2.1
	c0.2-0.2,0.4-0.3,1.1-1.6c0.9-1.7,1.3-2.9,2.1-4.6c0.7-1.5-1.2-7.1,0.7-14.5c0.8-3.3,1.9-6.7,3.1-9.4c1.9-4.1,0.5-1,1.9-4.1
	c1.1-2.3,2.7-10,3.3-11.7c1.4-4.1-4.1-12.3-4-14.4c0-0.6-4.3-4.6-7.4-7.9C49.5,79.7,48.1,78.1,47.7,77.6z"/>
<path fill="#BE1E2D" stroke="#000000" stroke-miterlimit="10" d="M62.1,148.9c0.4,0.4,8.2-2.7,13.2-2.4c7.5,0.5,12.7,4.2,13.4,3.3
	c0.7-0.9-2.7-3.2-6.7-9.2c-1.9-2.8-5.5-10.1-6.3-10.2c-0.7,0-4.1,5.5-7.6,9.6C64.7,144.3,61.8,148.6,62.1,148.9z"/>
<path fill="none" stroke="#3C2415" stroke-miterlimit="10" d="M51,43.7c0.2-0.2-0.4-1.1-1.2-1.5c-0.9-0.5-2-0.3-2.1,0
	C47.7,42.7,50.7,44.1,51,43.7z"/>
<path fill="none" stroke="#3C2415" stroke-miterlimit="10" d="M97,44.7c-0.1-0.2,1-1.2,2.2-1.5c1-0.3,2.3-0.2,2.4,0
	C101.6,43.7,97.2,45.2,97,44.7z"/>
<g>
	<path fill="#FFFFFF" stroke="#000000" stroke-miterlimit="10" d="M90.2,45.7c-0.9,0.5-1.8-0.9-4.3-1c-2.3,0-3.3,1.2-4,0.7
		c-0.9-0.7-0.1-3.2,1-6.2c0.8-2.3,1.5-3.3,2.5-4c0.4-0.3,1.2-0.8,2.1-0.6c0.4,0.1,1.3,0.4,2.3,3.3C90,38.5,92.1,44.7,90.2,45.7z"/>
	<path fill="#3C2415" stroke="#000000" stroke-miterlimit="10" d="M88.9,44c1.4-1.8,0.6-4,0.5-4.3c-0.1-0.1-1.1-2.8-3.1-2.8
		c-1.8,0-2.8,2.4-2.9,2.8c-0.7,1.7,0.4,5.3,2.8,5.2C87.7,44.7,87.8,45.4,88.9,44z"/>
	<path fill="#603913" stroke="#000000" stroke-miterlimit="10" d="M86.1,44.7c1.1-0.1,1.5-0.2,1.5-1.5c0-0.6-0.3-2.1-1.4-2.1
		c-1.1,0-1.4,0.4-1.5,1.8C84.7,43.8,85,44.8,86.1,44.7z"/>
</g>
<path fill="none" stroke="#000000" stroke-miterlimit="10" d="M72.4,30.5c-1.6-0.5-4.7,0-7.1,2.7"/>
<path fill="none" stroke="#000000" stroke-miterlimit="10" d="M90.3,33.4c0-1.5-3.2-2.7-7.1-2.8"/>
<line fill="none" stroke="#000000" stroke-miterlimit="10" x1="68.5" y1="32.8" x2="68.5" y2="32.8"/>
<g>
	<path fill="none" stroke="#3C2415" stroke-miterlimit="10" d="M78.6,50.6c-0.2-0.1-1.4-0.8-2.7-0.3c-1.2,0.4-2.3,1.7-2,3
		c0.2,1,1.1,1.6,1.9,1.9c1,0.3,2.1,0,2.9-0.8"/>
</g>
<path fill="none" stroke="#BE1E2D" stroke-miterlimit="10" d="M91.4,56.8c-0.4-0.7-1.7-1.4-1.7-1.4s-1.1,1.4-1.8,2.4
	c-2.5,3.2-6.2,4.1-7.4,4.3c-2,0.4-3.5,0.2-5,0c-1.2-0.1-3-0.2-5-1.2c-1.1-0.6-2.2-1.2-3.8-2.3c-1.8-1.2-2-1.7-2-1.7
	c-1.2-1.2-1.5-1.4-1.5-1.4s-0.6,0.7-0.8,1.2"/>
<g>
	<path fill="#FFFFFF" stroke="#000000" stroke-miterlimit="10" d="M73.1,45.5c-0.9,0.5-1.8-0.9-4.3-1c-2.3,0-3.3,1.2-4,0.7
		c-0.9-0.7-0.1-3.2,1-6.2c0.8-2.3,1.5-3.3,2.5-4c0.4-0.3,1.2-0.8,2.1-0.6c0.4,0.1,1.3,0.4,2.3,3.3C72.9,38.3,75,44.5,73.1,45.5z"/>
	<path fill="#3C2415" stroke="#000000" stroke-miterlimit="10" d="M71.8,43.9c1.4-1.8,0.6-4,0.5-4.3c-0.1-0.1-1.1-2.8-3.1-2.8
		c-1.8,0-2.8,2.4-2.9,2.8c-0.7,1.7,0.4,5.3,2.8,5.2C70.7,44.6,70.7,45.3,71.8,43.9z"/>
	<path fill="#603913" stroke="#000000" stroke-miterlimit="10" d="M69,44.6c1.1-0.1,1.5-0.2,1.5-1.5c0-0.6-0.3-2.1-1.4-2.1
		c-1.1,0-1.4,0.4-1.5,1.8C67.6,43.7,67.9,44.6,69,44.6z"/>
</g>
<path fill="#FFF200" stroke="#000000" stroke-miterlimit="10" d="M81,71.3c-0.7-0.1-0.4,0-1.2-0.1c-0.8-0.1-0.6-0.3-0.6-0.3
	s0,1-0.3,1.9c-0.4,1.2-2.1,1.7-2.6,1.7c-0.6,0.1-3.3-0.5-3.7-1c-0.7-0.9-0.5-2.7-0.5-2.7l-2.1,0c0,0,0.4,2.9,1.3,4
	c1.1,1.3,2.4,1.4,3.3,1.5c0.9,0.1,3.1,0.3,5-0.6C80.7,75.3,81.8,71.4,81,71.3z"/>
<g>
	<path fill="#F7941E" stroke="#000000" stroke-miterlimit="10" d="M24.9,60.3c-4.1-2.5-2.2-15.7-8.7-16.5c-3.6-0.5-4.3-1.4-4.3-1.6
		c0-0.1,4.3,0.2,4.2-1.2c-0.1-1.3-4.6-1.3-4.6-1.2c0,0.2,4.5-0.2,4.5-1.5c0-1.1-4.9-0.5-4.9-0.6c0,0,4.8-0.9,4.8-1.5
		c0-0.9-5-0.8-5-0.9c0-0.1,4.7,0.1,4.8-0.5c0.2-1.1-5-2.2-4.9-2.2c0.1,0,3.4,1.4,4.1,0.5c0.7-0.8-0.9-3-0.7-4.2
		c0.1-0.7,1.7-1.1,2.1-0.3c0.6,1,1.2,2.5,1.2,3.2c0,1.6,0.4,3.3,5.3,9.5c8.3,10.9,12.2,12.9,11.4,15.6C33.3,60,27.7,62,24.9,60.3z"
		/>
	<path fill="none" stroke="#000000" stroke-miterlimit="10" d="M10.8,32.8c0,1,0,1.9,0,2.8c0,0.9,0.1,1.7,0.1,2.4
		c0.1,0.8,0.1,1.4,0.2,2c0.2,1.4,0.4,2.3,0.7,2.3"/>
	<g>
		<g>
			<path d="M11,33.6c0,0.3-0.1,1,0.1,1.4c0.2,0.3,0.4,0.1,0.7,0.1c0.5,0,0.9,0.2,1.4,0.2c0.5,0,1-0.1,1.5-0.3c0.2-0.1,0.2-0.4,0-0.5
				c-0.6-0.2-1.2-0.5-1.7-0.7c-0.4-0.2-1-0.5-1.4-0.4c-0.1,0-0.2,0.1-0.2,0.2c-0.1,0.4-0.2,0.9,0.3,1c0.2,0.1,0.4,0,0.6,0.1
				c0.2,0,0.4,0.1,0.5,0.2c0.3,0.1,0.6,0.2,1,0.2c0.3,0,0.3-0.4,0.1-0.5c-0.6-0.3-1.3-0.6-2-0.7c-0.3,0-0.5,0.4-0.1,0.5
				c0.7,0.1,1.3,0.4,2,0.7c0-0.2,0-0.3,0.1-0.5c-0.5,0.1-0.9-0.2-1.4-0.4c-0.1,0-0.3-0.1-0.4-0.1c-0.2-0.1-0.2,0-0.1,0.1
				c0-0.2,0-0.3,0-0.5c-0.1,0.1-0.2,0.1-0.2,0.2c0.5,0,1.2,0.4,1.6,0.5c0.5,0.2,0.9,0.4,1.4,0.6c0-0.2,0-0.3,0-0.5
				c-0.8,0.3-1.6,0.3-2.4,0.1c-0.2-0.1-0.4,0-0.6-0.1c-0.3,0-0.1,0.1-0.1-0.1c0-0.3,0-0.6,0-0.8C11.5,33.3,11,33.3,11,33.6L11,33.6z
				"/>
		</g>
	</g>
	<g>
		<g>
			<path d="M11.1,36.2c0,0.4,0.1,0.9,0.1,1.3c0,0.2,0.3,0.4,0.5,0.1c0.2-0.4,1.2-0.4,1.6-0.5c0.5-0.1,1-0.3,1.5-0.4
				c0.2-0.1,0.2-0.3,0.1-0.4c-0.4-0.5-1.1-0.4-1.7-0.4c-0.4,0-1.5-0.2-1.7,0.3c-0.1,0.3,0.1,0.7,0.5,0.8c0.4,0,0.8-0.1,1.2-0.1
				c0.4,0,0.8,0,1.2-0.1c0.3-0.1,0.2-0.6-0.1-0.5c-0.5,0.1-0.9,0.1-1.4,0.1c-0.2,0-0.3,0-0.5,0c-0.1,0-0.5,0-0.4,0.1
				c0.7,0.1,2-0.4,2.6,0.2c0-0.1,0.1-0.3,0.1-0.4c-0.7,0.2-1.5,0.4-2.2,0.5c-0.5,0.1-0.9,0.1-1.1,0.6c0.2,0,0.3,0.1,0.5,0.1
				c0-0.4-0.1-0.9-0.1-1.3C11.6,35.8,11.1,35.8,11.1,36.2L11.1,36.2z"/>
		</g>
	</g>
	<g>
		<g>
			<path d="M12.6,36.6c0.2,0,0.6-0.1,0.8,0c0.1,0,0.2,0.2,0.3,0.2c0.2,0.1,0.4,0,0.6,0c0.2,0,0.5,0,0.8-0.1c0.1,0,0.2-0.1,0.2-0.2
				c0,0,0,0,0,0c0-0.1-0.1-0.2-0.1-0.2c0,0,0,0,0,0c-0.3-0.2-0.5,0.3-0.3,0.4c0,0,0,0,0,0c0-0.1-0.1-0.1-0.1-0.2c0,0,0,0,0,0
				c0.1-0.1,0.1-0.2,0.2-0.2c-0.2,0.1-0.5,0.1-0.7,0c-0.2,0-0.3,0-0.5-0.1c0,0-0.1-0.1-0.1-0.1c-0.3-0.1-0.7,0-1.1,0
				C12.3,36.1,12.3,36.6,12.6,36.6L12.6,36.6z"/>
		</g>
	</g>
	<g>
		<g>
			<path d="M11.5,37.2c0.1,0,0.2,0,0.3,0c0.3,0,0.3-0.5,0-0.5c-0.1,0-0.2,0-0.3,0C11.2,36.7,11.2,37.2,11.5,37.2L11.5,37.2z"/>
		</g>
	</g>
	<g>
		<g>
			<path d="M11.4,38.7c1.4,0,2.7,0,4.1,0c0-0.2,0-0.3-0.1-0.5c-0.8,0.2-1.7,0.5-2.5,0.7c-0.2,0.1-0.4,0.1-0.6,0.2
				c-0.1,0-0.2,0-0.3,0.1c-0.1,0.1-0.1,0.1-0.1-0.1c-0.4-0.3,0.6-0.1,0.8-0.1c0.4,0,0.8,0,1.2-0.1c0,0,0.6,0,0.6-0.1
				c0-0.1-0.5-0.1-0.6-0.1c-0.3,0-0.5,0.1-0.8,0.2c-0.1,0.1-0.3,0.2-0.4,0.2c-0.2,0.1-0.3,0.1-0.5-0.1c-0.3,0-0.4-0.1-0.2-0.2
				c0,0.2,0,0.3,0.1,0.5c0.1,0,0.1-0.1,0.2-0.1c0.3,0,0.3-0.5,0-0.5c-0.2,0-0.3,0-0.4,0.1c-0.1,0.1-0.2,0.4,0.1,0.5
				c0.5,0.1,0.8-0.4,0.3-0.7c-0.4-0.3-0.7,0-0.8,0.4c-0.1,0.8,0.7,0.9,1.3,0.7c0.3-0.1,0.5-0.2,0.7-0.3c0.3-0.1,0.6-0.1,0.9-0.1
				c0.2,0,0.5-0.1,0.7-0.3c0.3-0.6-0.5-0.6-0.9-0.6c-0.7,0-1.4,0.1-2.2,0.1C11.8,38.4,11.5,38.4,11.4,38.7c-0.2,0.2,0.1,0.9,0.4,1
				c0.4,0.1,1.3-0.3,1.7-0.4c0.7-0.2,1.4-0.4,2.1-0.6c0.3-0.1,0.2-0.5-0.1-0.5c-1.4,0-2.7,0-4.1,0C11,38.2,11,38.7,11.4,38.7
				L11.4,38.7z"/>
		</g>
	</g>
	<g>
		<g>
			<path d="M11.6,40.8c0.8,0,1.6,0,2.3,0c0.4,0,0.8,0.1,1.2,0.2c0.2,0.1,0.2,0,0-0.1c-0.2,0.1-0.4,0.2-0.7,0.3
				c-0.3,0.1-0.7,0.2-1,0.3c-0.1,0-1.6,0.3-1.3-0.3c0.1-0.2,1.2-0.2,1.4-0.2c0.2,0,1.4,0,0.5,0.2c-0.3,0.1-0.5,0.1-0.8,0.1
				c-0.4,0.1-1.1,0.2-0.3,0c0.3-0.1,0.6-0.1,0.9-0.2c0.2,0.1,0.4,0,0.6-0.1c0,0,0,0-0.1,0c-0.4,0-0.7,0.1-1.1,0.2
				c-0.2,0-0.4,0.1-0.5,0.2c0,0.2,0.2,0.2,0.3,0.1c0.3,0,0.7-0.2,1-0.2c0.3,0,0.2-0.5-0.1-0.5c-0.5,0.1-2.2,0.2-1.5,1.1
				c0.1,0.1,0.2,0.1,0.2,0.1c0.7-0.2,1.4-0.3,2.1-0.5c0.2-0.1,0.4-0.1,0.4-0.3c0.1-0.7-1-0.6-1.4-0.5c-0.4,0.1-2,0-1.8,0.8
				c0.2,0.8,1.8,0.3,2.2,0.2c0.4-0.1,1.3-0.4,0.8-1c-0.2-0.3-0.7-0.3-1.1-0.3c-0.6,0-1.1,0.2-1.6,0.2c-0.7,0-0.7,0.9-0.3,1.3
				c0.5,0.5,1.9,0,2.5-0.1c0.3-0.1,1.9-0.5,1.2-1.1c-0.3-0.3-1.1-0.3-1.5-0.3c-0.8-0.1-1.7-0.1-2.5,0C11.2,40.3,11.2,40.8,11.6,40.8
				L11.6,40.8z"/>
		</g>
	</g>
</g>
<g>
	<path fill="#F7941E" stroke="#000000" stroke-miterlimit="10" d="M127.1,64.3c4-2.6,1.6-15.7,8.1-16.8c3.6-0.6,4.2-1.5,4.2-1.7
		c0-0.1-4.3,0.3-4.3-1c0-1.3,4.5-1.5,4.5-1.3c0,0.2-4.5,0-4.5-1.3c0-1.1,4.9-0.7,4.9-0.7c0,0-4.8-0.7-4.8-1.3c0-0.9,4.9-1,4.9-1.1
		c0-0.1-4.7,0.3-4.8-0.3c-0.2-1.1,5-2.4,4.8-2.4c-0.1,0-3.3,1.6-4.1,0.7c-0.7-0.8,0.8-3,0.5-4.3c-0.2-0.7-1.7-1-2.2-0.3
		c-0.6,1-1.1,2.6-1.1,3.3c0,1.6-0.3,3.3-4.9,9.7c-7.9,11.2-11.7,13.3-10.8,16C118.7,64.3,124.3,66.2,127.1,64.3z"/>
	<path fill="none" stroke="#000000" stroke-miterlimit="10" d="M140.2,36.4c0,1,0.1,1.2,0.1,2.1c0,0.9,0,2.8,0,3.5
		c0,0.8-0.1,0.5-0.2,1.1c-0.1,1.5-0.4,2.4-0.6,2.4"/>
	<g>
		<g>
			<path d="M139.6,37.2c0,0.2,0,0.4,0,0.5c-0.1,0.3,0,0.3,0.2,0.3c0.2,0,0.2,0,0,0c-0.3-0.1-0.7,0-1,0.1c-1,0.3-1.8,0.2-2.8,0
				c0,0.3,0,0.6,0,1c0.6-0.2,1.2-0.4,1.8-0.7c0.5-0.2,1.3-0.6,1.8-0.6c-0.2-0.1-0.3-0.2-0.5-0.4c0.1,0.1,0.1,0.4,0.1,0.5
				c0.1-0.1,0.2-0.3,0.2-0.4c-0.1,0-0.7,0.1-0.9,0.2c-0.5,0.2-0.9,0.4-1.4,0.3c0,0.3,0,0.7,0,1c0.1,0,0.4,0.4,0.6,0.5
				c0.2,0.1,0.4,0.2,0.7,0.1c0.6-0.2,0.7-1.2,1.2-1.3c0.6-0.2,0.4-1.2-0.3-1c-0.5,0.1-1,0.7-1.2,1.2c0,0.1-0.1,0.1-0.1,0.2
				c0.2,0.1,0.2,0.1,0.1,0c-0.1-0.1-0.2-0.2-0.3-0.3c-0.2-0.2-0.4-0.3-0.7-0.3c-0.6,0-0.6,1,0,1c0.5,0,0.9-0.1,1.3-0.3
				c0.4-0.2,0.8-0.2,1.3-0.3c0.6-0.2,0.6-0.8,0.4-1.3c-0.1-0.2-0.2-0.4-0.5-0.4c-0.6,0-1.2,0.3-1.8,0.5c-0.7,0.3-1.4,0.5-2.1,0.8
				c-0.4,0.1-0.5,0.9,0,1c0.6,0.1,1.2,0.2,1.8,0.2c0.7,0,1.4-0.3,2.1-0.3c1,0,1-0.8,0.9-1.7C140.5,36.6,139.5,36.6,139.6,37.2
				L139.6,37.2z"/>
		</g>
	</g>
	<g>
		<g>
			<path d="M139.6,39.4c0,0.5,0,0.9-0.1,1.4c0.3-0.1,0.6-0.2,0.9-0.3c-0.3-0.5-0.8-0.7-1.4-0.7c-1-0.1-1.9-0.3-2.8-0.5
				c0.1,0.3,0.1,0.6,0.2,0.8c0.4-0.4,1.1-0.3,1.5-0.3c0.3,0,1.3-0.1,1.5,0c-0.1-0.1-0.2-0.3-0.2-0.4c0,0.5,0,1,0,1.5
				c0.3,0,0.7-0.1,1-0.1c0-0.2,0-0.8-0.1-1.1C140,39.5,139.8,39.4,139.6,39.4c-0.4,0.1-0.8,0-1.3,0c-0.5,0-1,0.1-1.5,0
				c-0.6-0.1-0.9,0.8-0.3,1c0.5,0.1,1,0.1,1.6,0.1c0.5,0,1.1,0,1.6,0c-0.1-0.1-0.3-0.2-0.4-0.2c0,0,0,0.6,0,0.9
				c0.1,0.6,0.9,0.4,1-0.1c0.1-0.6,0.3-1.8-0.4-2c-0.3-0.1-0.7,0-1,0c-0.5,0-0.9,0-1.4,0c-0.6,0-1.2,0.1-1.6,0.6
				c-0.2,0.3-0.2,0.7,0.2,0.8c0.6,0.1,1.2,0.3,1.8,0.4c0.4,0.1,1.6,0,1.8,0.4c0.3,0.4,0.9,0.2,0.9-0.3c0-0.5,0-0.9,0.1-1.4
				C140.6,38.7,139.6,38.7,139.6,39.4L139.6,39.4z"/>
		</g>
	</g>
	<g>
		<g>
			<path d="M138.8,39.3c-0.3,0-0.8,0-1.1,0.1c0,0-0.1,0.1-0.1,0.1c-0.1,0.1-0.3,0.1-0.4,0.1c-0.2,0-0.5,0-0.7,0
				c0.1,0.1,0.1,0.1,0.2,0.2c0,0,0,0,0,0c0,0.1-0.1,0.2-0.1,0.3c0,0,0,0,0,0c0.3-0.2,0-0.6-0.3-0.4c0,0,0,0,0,0
				c-0.1,0.1-0.1,0.2-0.1,0.3c0,0,0,0,0,0c0,0.1,0.1,0.2,0.2,0.2c0.4,0.1,1,0.1,1.3,0c0.2,0,0.2-0.2,0.4-0.2c0.2-0.1,0.6,0,0.9,0
				C139.1,39.8,139.1,39.3,138.8,39.3L138.8,39.3z"/>
		</g>
	</g>
	<g>
		<g>
			<path d="M140,39.9c-0.1,0-0.2,0-0.3,0c-0.3,0-0.3,0.5,0,0.5c0.1,0,0.2,0,0.3,0C140.3,40.3,140.3,39.8,140,39.9L140,39.9z"/>
		</g>
	</g>
	<g>
		<g>
			<path d="M140.1,41.1c-1.5,0.1-3,0.1-4.5,0.2c-0.5,0-0.7,0.9-0.1,1c0.8,0.2,1.5,0.3,2.3,0.5c0.6,0.1,1.3,0.4,1.9,0.4
				c0.2,0,0.3-0.1,0.4-0.2c0.2-0.4,0.4-1.2-0.1-1.5c-0.3-0.2-0.9,0-1.2,0c-0.6,0-1.2,0-1.9,0c-0.5,0-1.3-0.1-1.3,0.7
				c0.1,0.9,1.2,0.7,1.8,0.8c0.7,0.1,1.6,0.7,2.3,0.2c0.4-0.3,0.5-1.1,0.1-1.4c-1-0.9-2,1.5-0.4,1.2c0.5-0.1,0.5-0.7,0.1-0.9
				c-0.2-0.1-0.3-0.2-0.6-0.2c-0.6,0-0.6,1,0,1c0,0,0.1,0,0.1,0c0-0.3,0.1-0.6,0.1-0.9c0.1,0.1,0.2,0.1,0.4,0.2
				c0,0.2-0.1,0.3-0.1,0.5c0,0.1-1.4-0.5-1.7-0.6c-0.2,0-0.4-0.1-0.6-0.1c-0.1,0-0.2,0-0.3,0c-0.5,0.4-0.6,0.6-0.2,0.6
				c0.3,0.2,1.1,0.1,1.5,0.1c0.3,0,1.3-0.1,1.3-0.1c-0.1-0.1-0.2-0.3-0.2-0.4c0,0.2,0,0.3-0.1,0.5c0.1-0.1,0.3-0.2,0.4-0.2
				c-0.7,0-1.4-0.3-2-0.4c-0.7-0.1-1.3-0.3-2-0.4c0,0.3-0.1,0.7-0.1,1c1.5-0.1,3-0.1,4.5-0.2C140.8,42.1,140.8,41.1,140.1,41.1
				L140.1,41.1z"/>
		</g>
	</g>
	<g>
		<g>
			<path d="M139.9,43.1c-1.3,0-3.1-0.1-4.2,0.6c-0.8,0.5-0.3,1.2,0.3,1.6c0.9,0.5,2.2,1,3.3,0.8c0.9-0.2,1-1.4,0.7-2.2
				c-0.1-0.2-0.2-0.3-0.3-0.3c-0.7-0.1-1.1,0.6-1.2,1.2c0,0.1-0.1,0.2-0.1,0.3c0.3,0,0.3,0,0.1-0.1c0-0.2-0.3-0.4-0.4-0.5
				c-0.2-0.3-0.4-0.6-0.7-0.8c-0.6-0.4-1.4,0-1.4,0.7c0.1,1.1,1.8,1.2,2.6,1.4c0.8,0.1,1.5-0.4,1.2-1.3c-0.1-0.3-0.2-0.7-0.4-0.9
				c-0.3-0.3-0.4-0.2-0.8-0.2c-0.6,0.1-1.1,0-1.7,0.1c-0.4,0.1-0.9,0.3-0.9,0.8c0,0.4,0.1,0.6,0.4,0.8c0.3,0.2,0.7,0.1,1,0.2
				c0.5,0.1,0.9,0.3,1.3,0.5c0.3,0.1,0.5,0.1,0.7-0.2c0.8-1.1-1.2-1.6-1.9-1.7c-0.6-0.1-0.9,0.9-0.3,1c0.1,0,1.2,0.4,1.3,0.3
				c0.2-0.1,0.5-0.1,0.7-0.2c-0.4-0.2-0.8-0.4-1.3-0.5c-0.4-0.1-0.9-0.1-1.3-0.3c0.1,0.1,0.2,0.2,0.3,0.3c-0.2,0.1-0.2,0.1,0.1,0.1
				c0.1,0,0.3,0,0.4,0c0.3,0,0.5,0,0.7,0c0.2,0,0.4-0.1,0.6-0.2c0.3-0.1,0.3,0-0.1-0.1c-0.1-0.1-0.2-0.2-0.3-0.3
				c0.1,0.2,0.3,0.5,0.3,0.7c0.1,0.2,0.1,0.2-0.2,0c-0.2-0.1-0.5-0.1-0.8-0.2c-0.1,0-1-0.2-1-0.1c0,0,0.2,0.3,0.3,0.3
				c0.2,0.3,0.4,0.6,0.6,0.8c0.3,0.4,0.8,0.7,1.2,0.3c0.2-0.2,0.3-0.4,0.4-0.6c0.1-0.1,0.1-0.3,0.2-0.4c0-0.1,0.1-0.2,0.1-0.2
				c0.1-0.2,0.1-0.2-0.2-0.1c-0.1-0.1-0.2-0.2-0.3-0.3c0.1,0.2,0.1,0.9,0,0.9c0,0-0.6-0.1-0.7-0.1c-0.7-0.1-1.2-0.4-1.8-0.6
				c-0.2-0.2-0.3-0.2-0.2,0c0,0.2,0.1,0.2,0.3,0c0.3,0,0.6-0.2,0.9-0.2c0.8-0.1,1.6-0.1,2.4-0.1C140.6,44.1,140.6,43.1,139.9,43.1
				L139.9,43.1z"/>
		</g>
	</g>
</g>
</svg>
