<?xml version="1.0" encoding="utf-8"?>
<!-- Generator: Adobe Illustrator 18.1.0, SVG Export Plug-In . SVG Version: 6.00 Build 0)  -->
<!DOCTYPE svg PUBLIC "-//W3C//DTD SVG 1.1//EN" "http://www.w3.org/Graphics/SVG/1.1/DTD/svg11.dtd">
<svg version="1.1" id="Layer_1" xmlns="http://www.w3.org/2000/svg" xmlns:xlink="http://www.w3.org/1999/xlink" x="0px" y="0px"
	 viewBox="0 0 600 600" enable-background="new 0 0 600 600" xml:space="preserve">
<g>
	<path fill="#F7941E" stroke="#000000" stroke-width="3.3363" stroke-miterlimit="10" d="M514.8,600H85.2
		c-19.4,0-35.3-15.9-35.3-35.3V35.3C49.9,15.9,65.8,0,85.2,0h429.5c19.4,0,35.3,15.9,35.3,35.3v529.3
		C550.1,584.1,534.2,600,514.8,600z"/>
	<path stroke="#000000" stroke-width="3.3363" stroke-miterlimit="10" d="M112.9,196.7c0-2.6,24.4-2.1,39.7-19.4
		c5.6-6.5,7.9-13,18.3-21.5c4.7-3.8,9.7-7.1,9.1-8.2c-0.9-2.1-16.8,5.6-19.4,2.1s10-15,23.6-33.6c18.8-26.2,13.2-31.2,27.4-46.8
		c16.8-18.3,37.1-25.6,47.7-29.4c0,0,24.4-10,42.7-8.2c4.4,0.6,8.8,1.5,8.8,1.5s2.9,0.6,5.9,1.8c9.7,3.2,33.3,24.4,35,23.3
		c0.9-0.9-10-12.7-19.1-20s-21.2-10-20.9-10.9c2.9-6.2,48.3,18.8,51.2,21.5c3.2,2.6-10-25.3-9.4-25c1.2,0.6,17.1,21.5,24.4,34.2
		c6.8,12.1,6.5,11.2,14.1,23c7.1,10.6,7.4,25.3,8.2,34.4c0.9,7.9,0.6,15.3,0.3,18.8c-0.3,5.6-1.2,9.7-1.5,11.5
		c-0.6,3.8-2.1,10.9-5.6,18.8c-2.1,4.7-4.4,8.8-5.6,10.9c0,0-0.6,1.2-1.5,2.4c-7.9,12.4-17.4,20.6-17.4,20.6
		c-3.8,3.2-13.5,13.2-27.4,16.8c-9.4,2.4-28.6,6.2-28.9,6.2c0,0,0.6-10.9,0.3-5.9c0,0,48-6.5,54.2-29.7c2.6-10-3.2-26.5,2.9-26.5
		c3.5,0,5.6,3.2,11.2,0.6c9.1-4.1,15.6-18.8,10.3-23.8c-2.9-2.9-10-1.8-14.1,0.9c-6.8,4.4-7.4,12.4-9.1,12.1
		c-2.4-0.3,1.8-13.5-5-24.4c-2.6-4.4-4.7-4.4-10.3-12.1c-3.2-4.7-5-7.4-6.2-11.2c-2.1-7.9,1.2-12.4-0.9-14.1
		c-2.9-2.6-9.7,3.8-20.3,7.1c-15,4.7-18-3.2-34.7,0c-11.8,2.4-9.1,6.2-31.5,14.1c-4.1,1.5-8.5,2.9-12.1,7.1
		c-5.9,6.8-6.2,15.3-6.2,16.2c0,7.9,3.8,13.8,2.9,14.1c-1.2,0.6-5-9.7-13.2-11.2c-3.8-0.6-8.8,0.6-11.2,4.1c-2.9,4.4-0.9,10,0,12.1
		c3.2,8.8,9.4,7.9,13.2,16.2c2.6,5.9,0,7.4,2.9,16.2c2.1,6.5,5.3,10.9,7.1,13.2c2.6,3.5,6.2,8.5,12.1,12.1c4.4,2.9,9.4,3.8,19.4,6.2
		c0,0,4.4-0.6,18,1.8c-0.6-3.2,0.6,8.5-0.9,11.5c-2.1,4.4-13.8,1.2-26.5,0.9c-8.2,0-5.6,1.2-45.9,11.2c0,0-16.2,4.1-31.8,5l0,0
		c-14.4,0.9-21.5,1.5-22.1,0c0.9-1.5,21.2-13.5,20-10.6c-0.3,0.6-65.7-0.6-70.4-5c-5.3-5.3,42.7-28.6,35.6-28.6
		C148.2,200.8,112.9,205.8,112.9,196.7z"/>
	<path fill="#583B2B" stroke="#583B2B" stroke-width="3.3363" stroke-miterlimit="10" d="M311.9,236.4c0,0,0.9-14.7,1.8-23.6
		c0,0,7.7,3.8,27.4-3.8c2.4-0.9,10.3-2.4,19.7-12.1c4.4-4.4,5-10.3,5.9-14.4c1.8-8.2-0.6-9.1-0.9-19.1c0,0-2.1-0.6,3.2-5
		c0.6-0.6,4.1-0.6,5,0c1.8,0.9,5,2.1,8.5,0.9c5.3-1.5,7.1-7.1,8.2-10c0.9-2.4,3.2-9.1,0-12.4c-2.4-2.4-7.1-1.8-10-0.9
		c-9.1,3.2-10.3,14.7-13.2,14.1c-2.4-0.3,2.9-5.9-0.3-19.1c-0.9-3.8-1.5-5.3-7.1-11.5c-4.1-4.4-7.9-10.3-10.9-15.3
		c-2.6-3.8-1.2-16.8-4.4-17.7c-5.9-1.2-7.4,5.3-19.1,9.1c-14.7,5-18.3-3.5-35,0c-8.5,1.8-5.3,3.5-31.8,15c-6.5,2.9-8.8,3.8-10.9,6.8
		c-7.7,10.6-0.9,26.5-1.8,28c-0.9,1.2-5.9-8.8-15.6-8.8c-3.2,0-8.2,1.2-10,4.1c-4.4,7.7,6.2,13.5,13.2,25.9
		c5.6,9.4,6.2,21.8,10.3,29.4c3.2,6.5,7.7,11.2,18.8,15.3c13.2,4.7,25.6,5.6,30.9,2.6l0,0c5,8.2,0.9,16.5,0.9,16.5
		c0,0.9,0,2.6,0,4.7c1.2,0.9,3.2,2.4,6.2,2.9c0.9,0.3,1.8,0.3,2.9,0.3C308.7,239.1,311.9,236.4,311.9,236.4z"/>
	<path fill="#F9ED32" stroke="#000000" stroke-width="3.3363" stroke-miterlimit="10" d="M286.9,232c-3.5-2.6-8.2-1.5-15.9,0
		c-3.5,0.9-8.5,1.8-14.4,5c-8.8,4.7-13.2,10-21.5,16.5c-11.5,8.8-20,19.1-31.2,27.7c-0.3,0-9.4,5-19.7,13.5c-2.9,2.4-5.9,5-7.1,9.4
		c-1.2,4.7,0.6,10.6,3.5,11.5c1.8,0.6,2.9-1.8,8.5-5c3.8-2.4,7.1-4.1,10.9-3.8c4.1,0.3,4.4,2.4,7.4,2.4c5.6,0.3,12.7-9.7,17.1-12.7
		c3.8-2.6,9.4-3.8,15.6-9.7c2.9-2.9,4.1-5.3,5.9-5c2.9,0.3,2.4,6.8,7.4,15c3.2,5.3,3.8,5.9,5.3,10.6c1.5,4.1,2.4,16.2,0,24.4
		c0,0-1.8,0.6-2.1,8.2l-1.2,5c0.9,1.8,6.8-0.3,15.9,0s10.3,2.1,15,0.9c5-1.2,5.3-3.5,11.2-5.6c5-1.8,11.2-1.5,12.7-1.2
		c5,1.2,5.6,2.6,11.5,4.7c1.8,0.6,0.9,0,5.3,0.6c7.7,1.2,12.4,1.2,16.8,0.6c4.1-0.6,4.7-1.2,5-1.5c2.1-2.6-2.1-7.1-3.8-15.9
		c-0.6-2.6-2.4-10.3,0-18.3c1.5-5,2.9-4.7,6.5-12.4c4.7-10.3,3.5-13.5,6.5-15c3.5-1.5,9.7,3.2,21.8,13c10,7.7,12.7,10.9,18.3,11.5
		c3.2,0.3,5.6-0.3,10,0.9c2.1,0.6,6.5,2.1,9.4,5.9c2.4,2.9,2.4,5,3.5,5c2.1,0,3.8-4.7,4.4-8.5c0.3-1.2,0.6-4.4-0.6-7.9
		c-1.8-5.9-6.5-8.8-10.9-11.8c0,0-1.5-1.2-22.4-16.5c-8.8-6.5-7.1-5.9-18-13.8c-11.2-8.2-12.1-8.2-16.5-12.4
		c-6.5-6.2-6.8-8.5-11.8-11.5c-3.2-1.8-6.8-2.4-14.4-3.8c-9.1-1.8-10.6-1.2-11.5-0.6c-3.2,2.4-0.6,6.8-3.8,10.9
		c-3.5,4.1-9.7,4.4-11.8,4.4c-2.4,0-7.4,0.3-10.9-2.9C288.4,239.6,290.7,234.9,286.9,232z"/>
	<polygon fill="#2E3192" stroke="#000000" stroke-width="3.3363" stroke-miterlimit="10" points="288.1,261.7 268.9,281.2 
		288.1,308.5 326.3,308.5 345.2,281.7 325.8,261.7 	"/>
	<polygon fill="#FFFFFF" stroke="#000000" stroke-width="3.3363" stroke-miterlimit="10" points="283.1,281.2 294.8,298.5 
		317.5,298.5 331.1,281.2 324.6,272.6 290.4,272.6 	"/>
	<path fill="#F7941E" stroke="#000000" stroke-width="3.3363" stroke-miterlimit="10" d="M180.6,315.3c-0.9,3.2,3.2,9.1,10.3,16.5
		c15.6,15.6,18,13.5,24.4,21.8c6.5,7.9,7.7,14.1,16.5,20.3c3.8,2.6,6.5,3.5,8.8,2.9c4.7-1.5,6.5-8.5,7.4-13c1.2-5,2.4-10.9-0.9-15.3
		c-2.6-3.5-6.8-4.4-10-5c-6.8-1.5-8.5,0.9-11.8,0c-10.3-2.9-5.6-28.9-18-34.7c-5-2.4-10.6-2.1-13.2-1.2
		C191.2,308.5,181.8,310.6,180.6,315.3z"/>
	<path fill="#F7941E" stroke="#000000" stroke-width="3.3363" stroke-miterlimit="10" d="M399.7,307.1c-12.1,0.9-7.4,29.4-19.7,35.3
		c-6.2,2.9-10.6-1.5-17.4,2.9c-6.8,4.4-7.9,12.7-7.9,13.5c-0.9,7.4,2.4,16.8,8.5,18.3c3.8,1.2,7.7-1.2,10.3-2.9c7.7-5,8.5-10,15-18
		c2.6-3.5,2.1-2.1,23.3-21.5c6.8-6.2,9.7-9.1,9.4-13c-0.3-5.6-5.9-11.5-7.7-12.7C411.1,307.9,405,306.5,399.7,307.1z"/>
	<path fill="#F7941E" stroke="#000000" stroke-width="3.3363" stroke-miterlimit="10" d="M253.6,346.8c-0.9,3.5-2.1,7.4-2.9,10.9
		h32.4l3.5-11.8L253.6,346.8z"/>
	<polygon fill="#F7941E" stroke="#000000" stroke-width="3.3363" stroke-miterlimit="10" points="322.8,346.2 322.8,359.8 
		352,357.7 348.4,345.6 	"/>
	<path fill="#2E3192" stroke="#000000" stroke-width="3.3363" stroke-miterlimit="10" d="M287.5,347.7c-0.3,0.9-3.8,7.1-0.9,13
		c3.5,7.7,14.4,7.9,16.5,7.9c2.4,0,13.8,0,18.3-8.8c0.3-0.3,3.5-7.1,0-13.5c-4.7-8.8-18-7.1-19.4-7.1
		C299.6,339.5,291.3,340.6,287.5,347.7z"/>
	<path fill="#BE1E2D" stroke="#000000" stroke-width="3.3363" stroke-miterlimit="10" d="M295.4,349.8c-1.8,2.9-1.5,6.8,0.6,9.4
		c3.2,4.1,10.3,3.2,13.8,0c2.1-1.8,4.1-5.3,2.9-8.5c-1.2-2.9-5.3-3.8-7.1-3.8C304.3,346.5,298.1,345.3,295.4,349.8z"/>
	<path fill="#F9ED32" stroke="#000000" stroke-width="3.3363" stroke-miterlimit="10" d="M250.7,359.8c0,0-2.9,8.2-5.6,18
		c-0.6,1.5-2.4,8.8-3.5,13c-7.4,25.6-5.6,51.2-8.2,53.9c-3.8,3.5-4.1,5.9-5.3,10.9c-1.2,5.9-1.2,9.1-1.5,14.4c0,2.6-1.5,4.7-0.9,6.5
		c0.6,2.6,4.7,3.8,7.4,4.4c1.5,0.6,8.2,1.5,13.5,1.2c5.6-0.3,12.4-2.9,12.4-2.9v-2.1c0,0,0.6-6.8,1.8-10c3.5-10,8.2-16.5,14.4-23.8
		c20-23,21.2-35.3,25.6-36.8c0,0,8.2,12.4,30.6,39.5c6.8,8.2,12.1,13.8,12.4,22.4c0,5-1.5,10,1.5,13c0.6,0.6,1.8,1.5,9.4,2.1
		c13.5,0.9,17.7-1.8,18.8-2.4c1.5-0.9,3.8-2.6,3.8-5s0.6-4.1,0-6.8c-1.2-6.8-0.6-8.5-4.1-14.7c-1.5-2.6-2.6-6.2-4.1-9.4
		c-3.2-6.8,0.3-26.2-3.8-44.7c-2.4-10.3-0.3-18.5-3.8-21.8c-5.6-5.6-9.7-17.7-9.7-17.7s-26.5-1.2-29.1,0.9c-7.4,5.3-6.2,8.2-20,8.2
		c-11.8,0-16.5-7.9-19.7-8.8C272.8,356.8,250.7,359.8,250.7,359.8z"/>
	<path stroke="#000000" stroke-width="3.3363" stroke-miterlimit="10" d="M221.8,486.7c0-4.7-0.3-8.8,2.1-10c1.2-0.6,2.4,0,5.6,0.9
		c3.5,1.2,7.4,2.4,10.9,2.4c5.9,0.3,17.1-1.2,18,0c3.2,3.8-3.5,15-8.5,23c-7.1,11.5-9.4,11.8-10.3,17.4c-0.9,5.3,0.6,6.2,0,18
		c-0.6,8.5-1.5,10.9-2.1,11.8c-0.9,2.1-2.4,4.4-10,10.3c-7.7,6.2-11.5,9.4-15,10.3c-0.9,0.3-12.4,3.8-20.3-2.4
		c-1.5-0.9-3.8-2.9-4.4-5.9c-0.3-1.2-0.9-5,5.6-13c6.5-8.2,10.6-8.5,18.8-18c3.2-3.5,4.7-5.3,5.9-7.9c2.6-5.9,0.6-8.5,1.5-19.7
		C220.1,494,221.5,495.8,221.8,486.7z"/>
	<path stroke="#000000" stroke-width="3.3363" stroke-miterlimit="10" d="M349.9,494.6c-2.6-5-7.1-13.5-4.4-15.9
		c1.2-1.2,3.2,0,9.4,0.9c6.8,1.2,14.1,2.1,18.8-1.5c3.2-2.4,3.2-5,4.4-5c3.8,0.3,5.3,20.9,5.6,25.3c1.2,18-1.2,19.1,1.5,25.3
		c1.8,4.4,3.5,4.7,18.8,20.3c11.2,11.2,13.5,14.7,13,18.3c-0.9,5.6-8.2,8.2-10,8.8c-8.5,3.2-16.5-0.3-18-0.9
		c-4.7-2.4-4.1-3.8-13.8-12.4c-7.1-6.2-7.7-5.6-8.8-7.9c-2.4-4.7-0.3-7.7-0.6-19.7c0-3.8,0-5.9-0.6-7.9
		C363.7,512,357.6,509,349.9,494.6z"/>
	<path fill="#BE1E2D" stroke="#000000" stroke-width="3.3363" stroke-miterlimit="10" d="M350.8,238.5c0,0,25.9,5.3,45.6,19.4
		c6.5,4.7,20.3,14.7,32.4,32.7c11.2,16.8,9.7,23.8,23.8,42.1c10.9,14.1,18.3,18,20.9,19.4c11.2,5.6,23.3,6.2,29.4,5.9
		c12.7-0.3,17.4-3.8,19.7-0.9c4.7,5-2.6,23-15,34.2c-6.2,5.6-15.3,10-33.3,18.8c-9.4,4.7-8.5,3.8-11.5,5.6
		c-16.8,10.3-14.7,21.2-27.4,29.7c-10.9,7.4-12.4,9.1-34.7,8.8c-13.2,0-21.8,7.9-24.4,5.3c-2.4-2.4,0.9,3.2-2.1-4.1
		c-1.8-5.3-3.8-8.5-6.2-13.5c-2.1-4.4,3.5-20.9-1.8-42.7c-2.4-9.7-2.9-20.6-2.9-20.6s5.3-1.5,10.9-4.1c7.4-3.5,9.4-10,13.8-17.4
		c11.5-18.8,22.7-15.3,33.3-34.2c3.5-6.5,6.8-12.1,5.6-18.8c-1.2-6.2-5.3-10-21.8-23c-11.5-8.8-16.5-13.5-23.8-18
		C366.1,254.7,349.6,239.6,350.8,238.5z"/>
	<g>
		<path fill="#27AAE1" stroke="#000000" stroke-width="3.3363" stroke-miterlimit="10" d="M357,282.6c5.3-3.8,9.4,2.4,23,11.8
			c10,7.1,17.7,9.1,17.4,12.4c0,2.4-2.6,1.5-4.4,6.2c-3.2,9.1-2.9,21.2-10.9,27.7c-5.6,4.4-13-1.2-20.3,4.1
			c-6.5,4.7-7.4,12.7-9.4,12.4c-1.8-0.3-2.1-6.5-2.4-11.8c-0.6-7.9-3.5-13.5-4.4-18.3c-1.5-7.9-0.9-14.7-0.3-17.4
			c0.6-2.4,4.1-6.5,6.8-13.5C353.7,290.9,354.9,284.1,357,282.6z"/>
	</g>
	<path fill="#BE1E2D" stroke="#000000" stroke-width="3.3363" stroke-miterlimit="10" d="M340.5,460.5c-1.2,1.2-24.1-8.2-38.9-7.4
		c-22.1,1.2-37.7,12.1-39.5,9.4c-2.1-2.9,8.2-9.4,20-26.8c5.6-8.2,16.2-29.7,18.8-29.7c2.1,0,12.1,16.2,22.1,28.6
		C333.1,446.6,341.7,459.6,340.5,460.5z"/>
	<path fill="#BE1E2D" stroke="#000000" stroke-width="3.3363" stroke-miterlimit="10" d="M226.8,451.6c-5.9,6.2-13-8.2-27.4-13.5
		c-14.1-5-17.7,2.6-29.7-1.5c-17.4-5.9-13-22.7-33.3-34.7c-3.5-2.1-13.8-5.3-34.7-11.8c-17.4-5.6-19.7-5.6-20.9-8.5
		c-3.8-9.7,23-20.9,49.8-55.6c15.3-20,13.8-25.6,29.4-40.6c10-9.7,19.1-15.6,37.4-27.4c14.4-9.4,24.7-14.7,37.4-18.3
		c7.4-2.1,21.8-2.9,21.8-2.9s-6.8,6.5-20.9,16.8c-20.3,15.3-17.1,15.3-32.7,26.8c-17.7,12.7-26.2,15.6-27.4,24.4
		c-0.6,4.4,1.2,8.2,3.8,13.5c4.4,8.8,8.8,10.9,21.8,23.3c10.6,10.3,15.9,15.3,18.8,19.7c4.1,5.9,6.2,10.9,12.4,13.8
		c6.2,2.9,12.7-0.9,11.8,2.9c-0.9,5.6-7.7,18.5-8.2,44.2c0,6.2-0.6,12.7-2.1,20C233.3,446.6,230.4,447.8,226.8,451.6z"/>
	<g>
		<path fill="#BE1E2D" stroke="#000000" stroke-width="3.3363" stroke-miterlimit="10" d="M357,282.6c5.3-3.8,9.4,2.4,23,11.8
			c10,7.1,17.7,9.1,17.4,12.4c0,2.4-2.6,1.5-4.4,6.2c-3.2,9.1-2.9,21.2-10.9,27.7c-5.6,4.4-13-1.2-20.3,4.1
			c-6.5,4.7-7.4,12.7-9.4,12.4c-1.8-0.3-2.1-6.5-2.4-11.8c-0.6-7.9-3.5-13.5-4.4-18.3c-1.5-7.9-0.9-14.7-0.3-17.4
			c0.6-2.4,4.1-6.5,6.8-13.5C353.7,290.9,354.9,284.1,357,282.6z"/>
	</g>
	<g>
		<path fill="#BE1E2D" stroke="#000000" stroke-width="3.3363" stroke-miterlimit="10" d="M249.8,282.6c-5.3-3.8-9.4,2.1-23.3,11.5
			c-10.3,7.1-17.7,8.5-17.7,12.1c0,2.4,0,2.4,2.9,6.8c5.3,8.2,2.9,22.7,10.9,29.4c5.3,4.7,13.8-2.1,20.9,3.5
			c6.5,5,7.4,12.4,9.4,12.1c1.8-0.3,2.4-6.5,2.6-11.8c0.9-7.9,3.8-13.5,5-18.3c1.5-7.9,1.2-14.7,0.6-17.4c-0.6-2.4-4.1-6.8-6.5-13.5
			C253,290.9,251.9,284.1,249.8,282.6z"/>
	</g>
	<path stroke="#000000" stroke-width="3.3363" stroke-miterlimit="10" d="M288.4,231.4c0-0.3,0,0.9,2.4-0.3c2.1-1.2,1.8-0.9,1.8-0.9
		s0,2.9,0.9,5.6c1.2,3.5,5.9,5,7.7,5.3c1.8,0.3,8.5,0.3,10.9-2.6c1.8-2.4,1.8-7.9,1.8-7.9h6.2c0,0-1.5,8.5-3.8,11.5
		c-3.2,3.8-7.1,4.1-9.7,4.4s-8.2,0.9-13-2.9C288.7,240.2,286.9,233.2,288.4,231.4z"/>
	<path fill="none" stroke="#3C2415" stroke-width="3.3363" stroke-miterlimit="10" d="M376.1,151c-0.6-0.6,1.2-3.2,3.5-4.4
		c2.6-1.2,5.9-0.9,6.2,0C386.1,148.1,377,152.2,376.1,151z"/>
	<path fill="none" stroke="#3C2415" stroke-width="3.3363" stroke-miterlimit="10" d="M241,152.8c0.3-0.6-2.6-3.5-6.5-4.4
		c-2.9-0.9-6.8-0.9-7.1,0C227.4,149.6,240.1,154,241,152.8z"/>
	<g>
		<path fill="#FFFFFF" stroke="#000000" stroke-width="3.3363" stroke-miterlimit="10" d="M260.7,155.7c2.6,1.5,5.3-2.6,12.7-2.6
			c6.8,0,9.7,3.8,11.8,2.1c2.6-2.1,0.3-9.4-2.6-18.3c-2.4-7.1-4.4-9.7-7.4-11.8c-1.2-0.9-3.5-2.4-6.2-1.8c-1.2,0.3-3.8,1.2-7.1,9.7
			C261.6,134.5,255.4,152.5,260.7,155.7z"/>
		<path fill="#603913" stroke="#000000" stroke-width="3.3363" stroke-miterlimit="10" d="M264.8,151c-4.1-5.3-1.8-11.8-1.2-12.7
			c0.3-0.3,3.5-8.2,9.1-8.2c5.3,0.3,7.9,7.1,8.5,8.2c2.1,5-1.5,15.6-8.2,15C268.1,153.1,267.8,154.9,264.8,151z"/>
		<path fill="#726658" stroke="#000000" stroke-width="3.3363" stroke-miterlimit="10" d="M273.1,153.1c-3.2-0.3-4.4-0.9-4.4-4.4
			c0-1.8,0.9-6.2,4.1-6.2s4.1,1.2,4.4,5.3C277.2,150.4,276,153.1,273.1,153.1z"/>
	</g>
	<path fill="none" stroke="#000000" stroke-width="3.3363" stroke-miterlimit="10" d="M313.7,111.6c4.7-1.5,13.8,0,20.9,7.9"/>
	<path fill="none" stroke="#000000" stroke-width="3.3363" stroke-miterlimit="10" d="M260.7,119.5c0-4.4,9.4-7.9,20.9-7.9"/>
	<line fill="none" stroke="#000000" stroke-width="3.3363" stroke-miterlimit="10" x1="324.9" y1="118.4" x2="324.9" y2="118.4"/>
	<g>
		<path fill="none" stroke="#3C2415" stroke-width="3.3363" stroke-miterlimit="10" d="M296.9,170.5c-0.6-0.3-4.1-2.4-7.9-1.2
			c-3.5,1.2-6.8,4.7-6.2,8.5c0.6,2.9,2.9,5,5.3,5.6c2.9,0.9,6.2,0,8.5-2.4"/>
	</g>
	<path fill="none" stroke="#BE1E2D" stroke-width="3.3363" stroke-miterlimit="10" d="M256.9,188.4c1.2-2.1,5-3.8,5-3.8
		s3.2,4.1,5.3,7.1c7.4,9.4,18,12.1,21.8,13c5.9,1.2,10.3,0.6,14.7,0.3c3.5-0.3,8.8-0.6,14.7-3.5c3.2-1.8,6.5-3.2,11.2-6.8
		c5.3-3.5,5.9-5,5.9-5c3.5-3.5,4.4-4.1,4.4-4.1s1.8,2.1,2.4,3.5"/>
	<g>
		<path fill="#FFFFFF" stroke="#000000" stroke-width="3.3363" stroke-miterlimit="10" d="M311,155.7c2.6,1.5,5.3-2.6,12.7-2.6
			c6.8,0,9.7,3.8,11.8,2.1c2.6-2.1,0.3-9.4-2.6-18.3c-2.4-7.1-4.4-9.7-7.4-11.8c-1.2-0.9-3.5-2.4-6.2-1.8c-1.2,0.3-3.8,1.2-7.1,9.7
			C311.9,134.5,305.7,152.5,311,155.7z"/>
		<path fill="#603913" stroke="#000000" stroke-width="3.3363" stroke-miterlimit="10" d="M315.2,151c-4.1-5.3-1.8-11.8-1.2-12.7
			c0.3-0.3,3.5-8.2,9.1-8.2c5.3,0.3,7.9,7.1,8.5,8.2c2.1,5-1.5,15.6-8.2,15C318.4,153.1,318.1,154.9,315.2,151z"/>
		<path fill="#726658" stroke="#000000" stroke-width="3.3363" stroke-miterlimit="10" d="M323.4,153.1c-3.2-0.3-4.4-0.9-4.4-4.4
			c0-1.8,0.9-6.2,4.1-6.2s4.1,1.2,4.4,5.3C327.5,150.4,326.3,153.1,323.4,153.1z"/>
	</g>
</g>
</svg>
