<?xml version="1.0" encoding="utf-8"?>
<!-- Generator: Adobe Illustrator 18.1.0, SVG Export Plug-In . SVG Version: 6.00 Build 0)  -->
<!DOCTYPE svg PUBLIC "-//W3C//DTD SVG 1.1//EN" "http://www.w3.org/Graphics/SVG/1.1/DTD/svg11.dtd">
<svg version="1.1" id="Layer_1" xmlns="http://www.w3.org/2000/svg" xmlns:xlink="http://www.w3.org/1999/xlink" x="0px" y="0px"
	 viewBox="0 0 170.9 204.8" enable-background="new 0 0 170.9 204.8" xml:space="preserve">
<path fill="#F7941E" stroke="#000000" stroke-miterlimit="10" d="M158.4,204.3H12.5c-6.6,0-12-5.4-12-12V12.5c0-6.6,5.4-12,12-12
	h145.9c6.6,0,12,5.4,12,12v179.8C170.4,198.9,165,204.3,158.4,204.3z"/>
<path stroke="#000000" stroke-miterlimit="10" d="M21.9,67.3c0-0.9,8.3-0.7,13.5-6.6c1.9-2.2,2.7-4.4,6.2-7.3
	c1.6-1.3,3.3-2.4,3.1-2.8c-0.3-0.7-5.7,1.9-6.6,0.7c-0.9-1.2,3.4-5.1,8-11.4c6.4-8.9,4.5-10.6,9.3-15.9c5.7-6.2,12.6-8.7,16.2-10
	c0,0,8.3-3.4,14.5-2.8c1.5,0.2,3,0.5,3,0.5c0,0,1,0.2,2,0.6c3.3,1.1,11.3,8.3,11.9,7.9c0.3-0.3-3.4-4.3-6.5-6.8
	c-3.1-2.5-7.2-3.4-7.1-3.7c1-2.1,16.4,6.4,17.4,7.3c1.1,0.9-3.4-8.6-3.2-8.5c0.4,0.2,5.8,7.3,8.3,11.6c2.3,4.1,2.2,3.8,4.8,7.8
	c2.4,3.6,2.5,8.6,2.8,11.7c0.3,2.7,0.2,5.2,0.1,6.4c-0.1,1.9-0.4,3.3-0.5,3.9c-0.2,1.3-0.7,3.7-1.9,6.4c-0.7,1.6-1.5,3-1.9,3.7
	c0,0-0.2,0.4-0.5,0.8c-2.7,4.2-5.9,7-5.9,7c-1.3,1.1-4.6,4.5-9.3,5.7c-3.2,0.8-9.7,2.1-9.8,2.1c0,0,0.2-3.7,0.1-2
	c0,0,16.3-2.2,18.4-10.1c0.9-3.4-1.1-9,1-9c1.2,0,1.9,1.1,3.8,0.2c3.1-1.4,5.3-6.4,3.5-8.1c-1-1-3.4-0.6-4.8,0.3
	c-2.3,1.5-2.5,4.2-3.1,4.1c-0.8-0.1,0.6-4.6-1.7-8.3c-0.9-1.5-1.6-1.5-3.5-4.1c-1.1-1.6-1.7-2.5-2.1-3.8c-0.7-2.7,0.4-4.2-0.3-4.8
	c-1-0.9-3.3,1.3-6.9,2.4c-5.1,1.6-6.1-1.1-11.8,0c-4,0.8-3.1,2.1-10.7,4.8c-1.4,0.5-2.9,1-4.1,2.4c-2,2.3-2.1,5.2-2.1,5.5
	c0,2.7,1.3,4.7,1,4.8c-0.4,0.2-1.7-3.3-4.5-3.8c-1.3-0.2-3,0.2-3.8,1.4c-1,1.5-0.3,3.4,0,4.1c1.1,3,3.2,2.7,4.5,5.5
	c0.9,2,0,2.5,1,5.5c0.7,2.2,1.8,3.7,2.4,4.5c0.9,1.2,2.1,2.9,4.1,4.1c1.5,1,3.2,1.3,6.6,2.1c0,0,1.5-0.2,6.1,0.6
	c-0.2-1.1,0.2,2.9-0.3,3.9c-0.7,1.5-4.7,0.4-9,0.3c-2.8,0-1.9,0.4-15.6,3.8c0,0-5.5,1.4-10.8,1.7c0,0,0,0,0,0
	c-4.9,0.3-7.3,0.5-7.5,0C40,83.1,46.9,79,46.5,80c-0.1,0.2-22.3-0.2-23.9-1.7c-1.8-1.8,14.5-9.7,12.1-9.7
	C33.9,68.7,21.9,70.4,21.9,67.3z"/>
<path fill="#583B2B" stroke="#583B2B" stroke-miterlimit="10" d="M89.5,80.8c0,0,0.3-5,0.6-8c0,0,2.6,1.3,9.3-1.3
	c0.8-0.3,3.5-0.8,6.7-4.1c1.5-1.5,1.7-3.5,2-4.9c0.6-2.8-0.2-3.1-0.3-6.5c0,0-0.7-0.2,1.1-1.7c0.2-0.2,1.4-0.2,1.7,0
	c0.6,0.3,1.7,0.7,2.9,0.3c1.8-0.5,2.4-2.4,2.8-3.4c0.3-0.8,1.1-3.1,0-4.2c-0.8-0.8-2.4-0.6-3.4-0.3c-3.1,1.1-3.5,5-4.5,4.8
	c-0.8-0.1,1-2-0.1-6.5c-0.3-1.3-0.5-1.8-2.4-3.9c-1.4-1.5-2.7-3.5-3.7-5.2c-0.9-1.3-0.4-5.7-1.5-6c-2-0.4-2.5,1.8-6.5,3.1
	c-5,1.7-6.2-1.2-11.9,0c-2.9,0.6-1.8,1.2-10.8,5.1c-2.2,1-3,1.3-3.7,2.3c-2.6,3.6-0.3,9-0.6,9.5c-0.3,0.4-2-3-5.3-3
	c-1.1,0-2.8,0.4-3.4,1.4c-1.5,2.6,2.1,4.6,4.5,8.8c1.9,3.2,2.1,7.4,3.5,10c1.1,2.2,2.6,3.8,6.4,5.2c4.5,1.6,8.7,1.9,10.5,0.9
	c0,0,0,0,0,0c1.7,2.8,0.3,5.6,0.3,5.6c0,0.3,0,0.9,0,1.6c0.4,0.3,1.1,0.8,2.1,1c0.3,0.1,0.6,0.1,1,0.1
	C88.4,81.7,89.5,80.8,89.5,80.8z"/>
<path fill="#F9ED32" stroke="#000000" stroke-miterlimit="10" d="M81,79.3c-1.2-0.9-2.8-0.5-5.4,0c-1.2,0.3-2.9,0.6-4.9,1.7
	c-3,1.6-4.5,3.4-7.3,5.6c-3.9,3-6.8,6.5-10.6,9.4c-0.1,0-3.2,1.7-6.7,4.6c-1,0.8-2,1.7-2.4,3.2c-0.4,1.6,0.2,3.6,1.2,3.9
	c0.6,0.2,1-0.6,2.9-1.7c1.3-0.8,2.4-1.4,3.7-1.3c1.4,0.1,1.5,0.8,2.5,0.8c1.9,0.1,4.3-3.3,5.8-4.3c1.3-0.9,3.2-1.3,5.3-3.3
	c1-1,1.4-1.8,2-1.7c1,0.1,0.8,2.3,2.5,5.1c1.1,1.8,1.3,2,1.8,3.6c0.5,1.4,0.8,5.5,0,8.3c0,0-0.6,0.2-0.7,2.8l-0.4,1.7
	c0.3,0.6,2.3-0.1,5.4,0c3.1,0.1,3.5,0.7,5.1,0.3c1.7-0.4,1.8-1.2,3.8-1.9c1.7-0.6,3.8-0.5,4.3-0.4c1.7,0.4,1.9,0.9,3.9,1.6
	c0.6,0.2,0.3,0,1.8,0.2c2.6,0.4,4.2,0.4,5.7,0.2c1.4-0.2,1.6-0.4,1.7-0.5c0.7-0.9-0.7-2.4-1.3-5.4c-0.2-0.9-0.8-3.5,0-6.2
	c0.5-1.7,1-1.6,2.2-4.2c1.6-3.5,1.2-4.6,2.2-5.1c1.2-0.5,3.3,1.1,7.4,4.4c3.4,2.6,4.3,3.7,6.2,3.9c1.1,0.1,1.9-0.1,3.4,0.3
	c0.7,0.2,2.2,0.7,3.2,2c0.8,1,0.8,1.7,1.2,1.7c0.7,0,1.3-1.6,1.5-2.9c0.1-0.4,0.2-1.5-0.2-2.7c-0.6-2-2.2-3-3.7-4
	c0,0-0.5-0.4-7.6-5.6c-3-2.2-2.4-2-6.1-4.7c-3.8-2.8-4.1-2.8-5.6-4.2c-2.2-2.1-2.3-2.9-4-3.9c-1.1-0.6-2.3-0.8-4.9-1.3
	c-3.1-0.6-3.6-0.4-3.9-0.2c-1.1,0.8-0.2,2.3-1.3,3.7c-1.2,1.4-3.3,1.5-4,1.5c-0.8,0-2.5,0.1-3.7-1C81.5,81.9,82.3,80.3,81,79.3z"/>
<polygon fill="#2E3192" stroke="#000000" stroke-miterlimit="10" points="81.4,89.4 74.9,96 81.4,105.3 94.4,105.3 100.8,96.2 
	94.2,89.4 "/>
<polygon fill="#FFFFFF" stroke="#000000" stroke-miterlimit="10" points="79.7,96 83.7,101.9 91.4,101.9 96,96 93.8,93.1 82.2,93.1 
	"/>
<path fill="#F7941E" stroke="#000000" stroke-miterlimit="10" d="M44.9,107.6c-0.3,1.1,1.1,3.1,3.5,5.6c5.3,5.3,6.1,4.6,8.3,7.4
	c2.2,2.7,2.6,4.8,5.6,6.9c1.3,0.9,2.2,1.2,3,1c1.6-0.5,2.2-2.9,2.5-4.4c0.4-1.7,0.8-3.7-0.3-5.2c-0.9-1.2-2.3-1.5-3.4-1.7
	c-2.3-0.5-2.9,0.3-4,0c-3.5-1-1.9-9.8-6.1-11.8c-1.7-0.8-3.6-0.7-4.5-0.4C48.5,105.3,45.3,106,44.9,107.6z"/>
<path fill="#F7941E" stroke="#000000" stroke-miterlimit="10" d="M119.3,104.8c-4.1,0.3-2.5,10-6.7,12c-2.1,1-3.6-0.5-5.9,1
	c-2.3,1.5-2.7,4.3-2.7,4.6c-0.3,2.5,0.8,5.7,2.9,6.2c1.3,0.4,2.6-0.4,3.5-1c2.6-1.7,2.9-3.4,5.1-6.1c0.9-1.2,0.7-0.7,7.9-7.3
	c2.3-2.1,3.3-3.1,3.2-4.4c-0.1-1.9-2-3.9-2.6-4.3C123.2,105.1,121.1,104.6,119.3,104.8z"/>
<path fill="#F7941E" stroke="#000000" stroke-miterlimit="10" d="M69.7,118.3c-0.3,1.2-0.7,2.5-1,3.7h11l1.2-4L69.7,118.3z"/>
<polygon fill="#F7941E" stroke="#000000" stroke-miterlimit="10" points="93.2,118.1 93.2,122.7 103.1,122 101.9,117.9 "/>
<path fill="#2E3192" stroke="#000000" stroke-miterlimit="10" d="M81.2,118.6c-0.1,0.3-1.3,2.4-0.3,4.4c1.2,2.6,4.9,2.7,5.6,2.7
	c0.8,0,4.7,0,6.2-3c0.1-0.1,1.2-2.4,0-4.6c-1.6-3-6.1-2.4-6.6-2.4C85.3,115.8,82.5,116.2,81.2,118.6z"/>
<path fill="#BE1E2D" stroke="#000000" stroke-miterlimit="10" d="M83.9,119.3c-0.6,1-0.5,2.3,0.2,3.2c1.1,1.4,3.5,1.1,4.7,0
	c0.7-0.6,1.4-1.8,1-2.9c-0.4-1-1.8-1.3-2.4-1.3C86.9,118.2,84.8,117.8,83.9,119.3z"/>
<path fill="#F9ED32" stroke="#000000" stroke-miterlimit="10" d="M68.7,122.7c0,0-1,2.8-1.9,6.1c-0.2,0.5-0.8,3-1.2,4.4
	c-2.5,8.7-1.9,17.4-2.8,18.3c-1.3,1.2-1.4,2-1.8,3.7c-0.4,2-0.4,3.1-0.5,4.9c0,0.9-0.5,1.6-0.3,2.2c0.2,0.9,1.6,1.3,2.5,1.5
	c0.5,0.2,2.8,0.5,4.6,0.4c1.9-0.1,4.2-1,4.2-1v-0.7c0,0,0.2-2.3,0.6-3.4c1.2-3.4,2.8-5.6,4.9-8.1c6.8-7.8,7.2-12,8.7-12.5
	c0,0,2.8,4.2,10.4,13.4c2.3,2.8,4.1,4.7,4.2,7.6c0,1.7-0.5,3.4,0.5,4.4c0.2,0.2,0.6,0.5,3.2,0.7c4.6,0.3,6-0.6,6.4-0.8
	c0.5-0.3,1.3-0.9,1.3-1.7c0-0.8,0.2-1.4,0-2.3c-0.4-2.3-0.2-2.9-1.4-5c-0.5-0.9-0.9-2.1-1.4-3.2c-1.1-2.3,0.1-8.9-1.3-15.2
	c-0.8-3.5-0.1-6.3-1.3-7.4c-1.9-1.9-3.3-6-3.3-6s-9-0.4-9.9,0.3c-2.5,1.8-2.1,2.8-6.8,2.8c-4,0-5.6-2.7-6.7-3
	C76.2,121.7,68.7,122.7,68.7,122.7z"/>
<path stroke="#000000" stroke-miterlimit="10" d="M58.9,165.8c0-1.6-0.1-3,0.7-3.4c0.4-0.2,0.8,0,1.9,0.3c1.2,0.4,2.5,0.8,3.7,0.8
	c2,0.1,5.8-0.4,6.1,0c1.1,1.3-1.2,5.1-2.9,7.8c-2.4,3.9-3.2,4-3.5,5.9c-0.3,1.8,0.2,2.1,0,6.1c-0.2,2.9-0.5,3.7-0.7,4
	c-0.3,0.7-0.8,1.5-3.4,3.5c-2.6,2.1-3.9,3.2-5.1,3.5c-0.3,0.1-4.2,1.3-6.9-0.8c-0.5-0.3-1.3-1-1.5-2c-0.1-0.4-0.3-1.7,1.9-4.4
	c2.2-2.8,3.6-2.9,6.4-6.1c1.1-1.2,1.6-1.8,2-2.7c0.9-2,0.2-2.9,0.5-6.7C58.3,168.3,58.8,168.9,58.9,165.8z"/>
<path stroke="#000000" stroke-miterlimit="10" d="M102.4,168.5c-0.9-1.7-2.4-4.6-1.5-5.4c0.4-0.4,1.1,0,3.2,0.3
	c2.3,0.4,4.8,0.7,6.4-0.5c1.1-0.8,1.1-1.7,1.5-1.7c1.3,0.1,1.8,7.1,1.9,8.6c0.4,6.1-0.4,6.5,0.5,8.6c0.6,1.5,1.2,1.6,6.4,6.9
	c3.8,3.8,4.6,5,4.4,6.2c-0.3,1.9-2.8,2.8-3.4,3c-2.9,1.1-5.6-0.1-6.1-0.3c-1.6-0.8-1.4-1.3-4.7-4.2c-2.4-2.1-2.6-1.9-3-2.7
	c-0.8-1.6-0.1-2.6-0.2-6.7c0-1.3,0-2-0.2-2.7C107.1,174.4,105,173.4,102.4,168.5z"/>
<path fill="#BE1E2D" stroke="#000000" stroke-miterlimit="10" d="M102.7,81.5c0,0,8.8,1.8,15.5,6.6c2.2,1.6,6.9,5,11,11.1
	c3.8,5.7,3.3,8.1,8.1,14.3c3.7,4.8,6.2,6.1,7.1,6.6c3.8,1.9,7.9,2.1,10,2c4.3-0.1,5.9-1.3,6.7-0.3c1.6,1.7-0.9,7.8-5.1,11.6
	c-2.1,1.9-5.2,3.4-11.3,6.4c-3.2,1.6-2.9,1.3-3.9,1.9c-5.7,3.5-5,7.2-9.3,10.1c-3.7,2.5-4.2,3.1-11.8,3c-4.5,0-7.4,2.7-8.3,1.8
	c-0.8-0.8,0.3,1.1-0.7-1.4c-0.6-1.8-1.3-2.9-2.1-4.6c-0.7-1.5,1.2-7.1-0.6-14.5c-0.8-3.3-1-7-1-7s1.8-0.5,3.7-1.4
	c2.5-1.2,3.2-3.4,4.7-5.9c3.9-6.4,7.7-5.2,11.3-11.6c1.2-2.2,2.3-4.1,1.9-6.4c-0.4-2.1-1.8-3.4-7.4-7.8c-3.9-3-5.6-4.6-8.1-6.1
	C107.9,87,102.3,81.9,102.7,81.5z"/>
<g>
	<path fill="#27AAE1" stroke="#000000" stroke-miterlimit="10" d="M104.8,96.5c1.8-1.3,3.2,0.8,7.8,4c3.4,2.4,6,3.1,5.9,4.2
		c0,0.8-0.9,0.5-1.5,2.1c-1.1,3.1-1,7.2-3.7,9.4c-1.9,1.5-4.4-0.4-6.9,1.4c-2.2,1.6-2.5,4.3-3.2,4.2c-0.6-0.1-0.7-2.2-0.8-4
		c-0.2-2.7-1.2-4.6-1.5-6.2c-0.5-2.7-0.3-5-0.1-5.9c0.2-0.8,1.4-2.2,2.3-4.6C103.7,99.3,104.1,97,104.8,96.5z"/>
</g>
<path fill="#BE1E2D" stroke="#000000" stroke-miterlimit="10" d="M99.2,156.9c-0.4,0.4-8.2-2.8-13.2-2.5c-7.5,0.4-12.8,4.1-13.4,3.2
	c-0.7-1,2.8-3.2,6.8-9.1c1.9-2.8,5.5-10.1,6.4-10.1c0.7,0,4.1,5.5,7.5,9.7C96.7,152.2,99.6,156.6,99.2,156.9z"/>
<path fill="#BE1E2D" stroke="#000000" stroke-miterlimit="10" d="M60.6,153.9c-2,2.1-4.4-2.8-9.3-4.6c-4.8-1.7-6,0.9-10.1-0.5
	c-5.9-2-4.4-7.7-11.3-11.8c-1.2-0.7-4.7-1.8-11.8-4c-5.9-1.9-6.7-1.9-7.1-2.9c-1.3-3.3,7.8-7.1,16.9-18.9c5.2-6.8,4.7-8.7,10-13.8
	c3.4-3.3,6.5-5.3,12.7-9.3c4.9-3.2,8.4-5,12.7-6.2c2.5-0.7,7.4-1,7.4-1s-2.3,2.2-7.1,5.7c-6.9,5.2-5.8,5.2-11.1,9.1
	c-6,4.3-8.9,5.3-9.3,8.3c-0.2,1.5,0.4,2.8,1.3,4.6c1.5,3,3,3.7,7.4,7.9c3.6,3.5,5.4,5.2,6.4,6.7c1.4,2,2.1,3.7,4.2,4.7
	c2.1,1,4.3-0.3,4,1c-0.3,1.9-2.6,6.3-2.8,15c0,2.1-0.2,4.3-0.7,6.8C62.8,152.2,61.8,152.6,60.6,153.9z"/>
<g>
	<path fill="#BE1E2D" stroke="#000000" stroke-miterlimit="10" d="M104.8,96.5c1.8-1.3,3.2,0.8,7.8,4c3.4,2.4,6,3.1,5.9,4.2
		c0,0.8-0.9,0.5-1.5,2.1c-1.1,3.1-1,7.2-3.7,9.4c-1.9,1.5-4.4-0.4-6.9,1.4c-2.2,1.6-2.5,4.3-3.2,4.2c-0.6-0.1-0.7-2.2-0.8-4
		c-0.2-2.7-1.2-4.6-1.5-6.2c-0.5-2.7-0.3-5-0.1-5.9c0.2-0.8,1.4-2.2,2.3-4.6C103.7,99.3,104.1,97,104.8,96.5z"/>
</g>
<g>
	<path fill="#BE1E2D" stroke="#000000" stroke-miterlimit="10" d="M68.4,96.5c-1.8-1.3-3.2,0.7-7.9,3.9c-3.5,2.4-6,2.9-6,4.1
		c0,0.8,0,0.8,1,2.3c1.8,2.8,1,7.7,3.7,10c1.8,1.6,4.7-0.7,7.1,1.2c2.2,1.7,2.5,4.2,3.2,4.1c0.6-0.1,0.8-2.2,0.9-4
		c0.3-2.7,1.3-4.6,1.7-6.2c0.5-2.7,0.4-5,0.2-5.9c-0.2-0.8-1.4-2.3-2.2-4.6C69.5,99.3,69.1,97,68.4,96.5z"/>
</g>
<path stroke="#000000" stroke-miterlimit="10" d="M81.5,79.1c0-0.1,0,0.3,0.8-0.1c0.7-0.4,0.6-0.3,0.6-0.3s0,1,0.3,1.9
	c0.4,1.2,2,1.7,2.6,1.8c0.6,0.1,2.9,0.1,3.7-0.9c0.6-0.8,0.6-2.7,0.6-2.7h2.1c0,0-0.5,2.9-1.3,3.9c-1.1,1.3-2.4,1.4-3.3,1.5
	c-0.9,0.1-2.8,0.3-4.4-1C81.6,82.1,81,79.7,81.5,79.1z"/>
<path fill="none" stroke="#3C2415" stroke-miterlimit="10" d="M111.3,51.8c-0.2-0.2,0.4-1.1,1.2-1.5c0.9-0.4,2-0.3,2.1,0
	C114.7,50.8,111.6,52.2,111.3,51.8z"/>
<path fill="none" stroke="#3C2415" stroke-miterlimit="10" d="M65.4,52.4c0.1-0.2-0.9-1.2-2.2-1.5c-1-0.3-2.3-0.3-2.4,0
	C60.8,51.3,65.1,52.8,65.4,52.4z"/>
<g>
	<path fill="#FFFFFF" stroke="#000000" stroke-miterlimit="10" d="M72.1,53.4c0.9,0.5,1.8-0.9,4.3-0.9c2.3,0,3.3,1.3,4,0.7
		c0.9-0.7,0.1-3.2-0.9-6.2c-0.8-2.4-1.5-3.3-2.5-4c-0.4-0.3-1.2-0.8-2.1-0.6c-0.4,0.1-1.3,0.4-2.4,3.3
		C72.4,46.2,70.3,52.3,72.1,53.4z"/>
	<path fill="#603913" stroke="#000000" stroke-miterlimit="10" d="M73.5,51.8c-1.4-1.8-0.6-4-0.4-4.3c0.1-0.1,1.2-2.8,3.1-2.8
		c1.8,0.1,2.7,2.4,2.9,2.8c0.7,1.7-0.5,5.3-2.8,5.1C74.6,52.5,74.5,53.1,73.5,51.8z"/>
	<path fill="#726658" stroke="#000000" stroke-miterlimit="10" d="M76.3,52.5c-1.1-0.1-1.5-0.3-1.5-1.5c0-0.6,0.3-2.1,1.4-2.1
		c1.1,0,1.4,0.4,1.5,1.8C77.7,51.6,77.3,52.5,76.3,52.5z"/>
</g>
<path fill="none" stroke="#000000" stroke-miterlimit="10" d="M90.1,38.4c1.6-0.5,4.7,0,7.1,2.7"/>
<path fill="none" stroke="#000000" stroke-miterlimit="10" d="M72.1,41.1c0-1.5,3.2-2.7,7.1-2.7"/>
<line fill="none" stroke="#000000" stroke-miterlimit="10" x1="93.9" y1="40.7" x2="93.9" y2="40.7"/>
<g>
	<path fill="none" stroke="#3C2415" stroke-miterlimit="10" d="M84.4,58.4c-0.2-0.1-1.4-0.8-2.7-0.4c-1.2,0.4-2.3,1.6-2.1,2.9
		c0.2,1,1,1.7,1.8,1.9c1,0.3,2.1,0,2.9-0.8"/>
</g>
<path fill="none" stroke="#BE1E2D" stroke-miterlimit="10" d="M70.8,64.5c0.4-0.7,1.7-1.3,1.7-1.3s1.1,1.4,1.8,2.4
	c2.5,3.2,6.1,4.1,7.4,4.4c2,0.4,3.5,0.2,5,0.1c1.2-0.1,3-0.2,5-1.2c1.1-0.6,2.2-1.1,3.8-2.3c1.8-1.2,2-1.7,2-1.7
	c1.2-1.2,1.5-1.4,1.5-1.4s0.6,0.7,0.8,1.2"/>
<g>
	<path fill="#FFFFFF" stroke="#000000" stroke-miterlimit="10" d="M89.2,53.4c0.9,0.5,1.8-0.9,4.3-0.9c2.3,0,3.3,1.3,4,0.7
		c0.9-0.7,0.1-3.2-0.9-6.2c-0.8-2.4-1.5-3.3-2.5-4c-0.4-0.3-1.2-0.8-2.1-0.6c-0.4,0.1-1.3,0.4-2.4,3.3
		C89.5,46.2,87.4,52.3,89.2,53.4z"/>
	<path fill="#603913" stroke="#000000" stroke-miterlimit="10" d="M90.6,51.8c-1.4-1.8-0.6-4-0.4-4.3c0.1-0.1,1.2-2.8,3.1-2.8
		c1.8,0.1,2.7,2.4,2.9,2.8c0.7,1.7-0.5,5.3-2.8,5.1C91.7,52.5,91.6,53.1,90.6,51.8z"/>
	<path fill="#726658" stroke="#000000" stroke-miterlimit="10" d="M93.4,52.5c-1.1-0.1-1.5-0.3-1.5-1.5c0-0.6,0.3-2.1,1.4-2.1
		c1.1,0,1.4,0.4,1.5,1.8C94.8,51.6,94.4,52.5,93.4,52.5z"/>
</g>
</svg>
