<?xml version="1.0" encoding="utf-8"?>
<!-- Generator: Adobe Illustrator 18.1.0, SVG Export Plug-In . SVG Version: 6.00 Build 0)  -->
<!DOCTYPE svg PUBLIC "-//W3C//DTD SVG 1.1//EN" "http://www.w3.org/Graphics/SVG/1.1/DTD/svg11.dtd">
<svg version="1.1" id="Layer_1" xmlns="http://www.w3.org/2000/svg" xmlns:xlink="http://www.w3.org/1999/xlink" x="0px" y="0px"
	 viewBox="0 0 200 200" enable-background="new 0 0 200 200" xml:space="preserve">
<path stroke="#000000" stroke-miterlimit="10" d="M31.3,63c0-1,8.9-0.8,14.4-7c2.1-2.3,2.9-4.7,6.7-7.8c1.7-1.4,3.5-2.5,3.3-3
	c-0.4-0.8-6.1,2.1-7,0.7c-1-1.3,3.7-5.5,8.5-12.2c6.9-9.6,4.8-11.3,10-17C73.4,10,80.8,7.3,84.7,5.9c0,0,8.9-3.6,15.6-3
	c1.7,0.2,3.2,0.5,3.2,0.5s1.1,0.3,2.2,0.6c3.6,1.2,12.1,8.9,12.7,8.5c0.3-0.3-3.6-4.6-6.9-7.3c-3.3-2.7-7.8-3.6-7.6-4
	c1.1-2.2,17.5,6.9,18.6,7.8c1.2,0.9-3.6-9.2-3.4-9.1c0.4,0.2,6.2,7.8,8.8,12.4c2.5,4.4,2.3,4.1,5.1,8.3c2.6,3.9,2.7,9.2,3.1,12.6
	c0.3,2.9,0.2,5.6,0.1,6.9c-0.1,2-0.4,3.5-0.5,4.2c-0.3,1.4-0.7,3.9-2,6.8c-0.7,1.7-1.6,3.2-2.1,4c0,0-0.2,0.4-0.5,0.8
	c-2.9,4.5-6.3,7.5-6.3,7.5c-1.3,1.1-4.9,4.8-9.9,6.1c-3.4,0.9-10.4,2.2-10.5,2.3c0,0,0.2-4,0.1-2.2c0,0,17.4-2.4,19.8-10.8
	c1-3.6-1.2-9.7,1-9.6c1.3,0,2.1,1.1,4.1,0.2c3.3-1.5,5.7-6.9,3.7-8.7c-1.1-1.1-3.6-0.6-5.2,0.4c-2.4,1.6-2.7,4.6-3.3,4.4
	c-0.8-0.1,0.7-4.9-1.9-8.9c-1-1.6-1.7-1.6-3.7-4.4c-1.2-1.7-1.8-2.7-2.2-4.1c-0.8-2.9,0.5-4.5-0.4-5.2c-1.1-0.9-3.5,1.4-7.4,2.6
	c-5.5,1.7-6.5-1.2-12.6,0c-4.3,0.9-3.3,2.2-11.5,5.2c-1.5,0.5-3.1,1.1-4.4,2.6c-2.2,2.4-2.2,5.6-2.2,5.9c0,2.9,1.4,5,1.1,5.2
	c-0.4,0.2-1.9-3.5-4.8-4.1c-1.4-0.3-3.2,0.2-4.1,1.5c-1.1,1.6-0.3,3.6,0,4.4c1.2,3.2,3.4,2.9,4.8,5.9c1,2.2,0,2.7,1.1,5.9
	c0.8,2.3,1.9,3.9,2.6,4.8c1,1.3,2.2,3.1,4.4,4.4c1.6,1,3.4,1.4,7,2.2c0,0,1.6-0.3,6.6,0.6c-0.2-1.2,0.3,3.1-0.3,4.2
	c-0.8,1.6-5.1,0.4-9.6,0.4c-2.9,0-2,0.5-16.7,4.1c0,0-5.9,1.5-11.6,1.8h0c-5.2,0.3-7.8,0.5-8,0c-0.2-0.8,7.2-5.1,6.7-4.1
	c-0.1,0.2-23.9-0.2-25.6-1.9c-2-2,15.6-10.4,13-10.4C44.1,64.5,31.3,66.3,31.3,63z"/>
<path fill="#593B2B" stroke="#593B2B" stroke-miterlimit="10" d="M103.7,77.5c0,0,0.3-5.4,0.6-8.6c0,0,2.8,1.4,10-1.4
	c0.8-0.3,3.8-0.9,7.2-4.4c1.6-1.6,1.8-3.8,2.2-5.2c0.7-3-0.2-3.3-0.3-7c0,0-0.7-0.2,1.1-1.8c0.2-0.2,1.5-0.2,1.8,0
	c0.7,0.3,1.9,0.7,3.1,0.3c1.9-0.6,2.6-2.5,3-3.6c0.3-0.8,1.2-3.3,0-4.6c-0.9-0.9-2.6-0.7-3.6-0.3c-3.3,1.2-3.8,5.3-4.9,5.2
	c-0.9-0.1,1.1-2.2-0.1-7c-0.3-1.4-0.5-1.9-2.5-4.2c-1.5-1.6-2.9-3.8-4-5.5c-0.9-1.4-0.5-6.1-1.6-6.4c-2.2-0.5-2.7,1.9-7,3.3
	c-5.3,1.8-6.7-1.3-12.7,0c-3.1,0.6-1.9,1.3-11.5,5.5c-2.3,1-3.2,1.4-3.9,2.4c-2.8,3.8-0.3,9.6-0.7,10.2c-0.3,0.4-2.2-3.2-5.7-3.2
	c-1.2,0-3,0.4-3.6,1.5c-1.6,2.8,2.2,5,4.8,9.4c2,3.4,2.2,7.9,3.7,10.7c1.2,2.3,2.8,4.1,6.9,5.5c4.8,1.7,9.3,2,11.3,1l0,0
	c1.8,3,0.3,6,0.3,6c0,0.4,0,0.9,0,1.7c0.4,0.3,1.2,0.8,2.3,1.1c0.3,0.1,0.7,0.1,1.1,0.1C102.5,78.4,103.7,77.5,103.7,77.5z"/>
<path fill="#F9ED32" stroke="#000000" stroke-miterlimit="10" d="M93.6,75.5c-1.2-1-3-0.6-5.8,0c-1.3,0.3-3.1,0.7-5.2,1.8
	c-3.2,1.7-4.8,3.7-7.8,6c-4.2,3.2-7.3,7-11.4,10.1c-0.1,0-3.5,1.8-7.2,4.9c-1.1,0.9-2.2,1.8-2.5,3.4c-0.4,1.7,0.2,3.9,1.3,4.2
	c0.7,0.2,1-0.6,3.1-1.8c1.4-0.8,2.6-1.5,4-1.4c1.5,0.1,1.6,0.9,2.7,0.9c2.1,0.1,4.8-3,6.4-4.1c1.4-1,3.3-1.9,5.6-4
	c1.1-1.1,1.5-1.9,2.2-1.8c1.1,0.2,0.8,2.4,2.7,5.4c1.2,1.9,1.4,2.1,2,3.8c0.5,1.5,0.8,5.9,0,8.8c0,0-0.6,0.2-0.8,3l-0.5,1.8
	c0.3,0.7,2.4-0.1,5.8,0s3.8,0.8,5.4,0.4c1.8-0.5,2-1.2,4.1-2c1.8-0.7,4.1-0.6,4.7-0.4c1.8,0.5,2.1,1,4.2,1.7c0.6,0.2,0.3,0,1.9,0.2
	c2.8,0.4,4.5,0.4,6.1,0.2c1.5-0.2,1.7-0.4,1.8-0.5c0.8-1-0.2-2.6-0.9-5.8c-0.2-1-0.9-3.4-0.2-6.3c0.3-1.1,1.2-2.2,2.7-4.9
	c1.8-3.3,1.5-3.3,2.1-5c0.3-0.9,0.4-0.9,3.1-3.6c2.7-2.6,2.5-2.3,3.9-3.9c1.2-1.4,4.8-5.1,5.5-6.4c0.5-0.9,8.3-13.3,9.8-15.1
	c0.9-1,6-10.1,6.2-10.5c1.3-2.2-4.4-0.6-3.8-0.6c3.1-0.2-0.9-1.3-3.5-2.1c-2.1-0.6-0.8-5.4-1.5-3.6c-1,2.5-3.6,7-5.9,10.6
	c-2,3-1.6,1.9-4.2,6.2c-2.4,3.8-5.7,7.3-6.9,8.4c-3.1,3.1-4.7,4.6-7.6,3.4c-1.2-0.5-2.5-0.9-5.2-1.4c-3.3-0.7-3.8-0.4-4.2-0.2
	c-1.2,0.9-0.2,2.4-1.4,4c-1.2,1.5-3.5,1.6-4.3,1.6c-0.9,0-2.7,0.1-4-1.1C94.2,78.3,95.1,76.6,93.6,75.5z"/>
<polygon fill="#2E3192" stroke="#000000" stroke-miterlimit="10" points="95,86.7 88.1,93.8 95,103.7 108.9,103.7 115.8,93.9 
	108.7,86.7 "/>
<polygon fill="#FFFFFF" stroke="#000000" stroke-miterlimit="10" points="93.2,93.8 97.5,100.1 105.7,100.1 110.7,93.8 108.4,90.7 
	95.9,90.7 "/>
<path fill="#F7941E" stroke="#000000" stroke-miterlimit="10" d="M55.9,106.2c-0.3,1.2,1.1,3.3,3.8,6c5.7,5.7,6.5,4.9,8.9,8
	c2.3,2.9,2.7,5.1,6,7.4c1.4,1,2.4,1.3,3.3,1.1c1.8-0.5,2.4-3.1,2.7-4.7c0.4-1.8,0.9-4-0.4-5.6c-1-1.2-2.5-1.6-3.6-1.8
	c-2.5-0.5-3.1,0.4-4.3,0c-3.7-1.1-2-10.5-6.5-12.7c-1.8-0.9-3.8-0.7-4.9-0.4C59.8,103.7,56.4,104.5,55.9,106.2z"/>
<path fill="#F7941E" stroke="#000000" stroke-miterlimit="10" d="M139.9,50.1c-1.6-4.1,8.5-7,8.5-12c0-2.5-2.2-3.3-1.7-6.2
	c0.4-2.9,2.9-4.5,3.2-4.7c2.2-1.4,5.8-1.9,7.4-0.1c1,1.1,0.8,2.7,0.7,3.9c-0.4,3.3-1.9,4.4-3.5,7.7c-0.7,1.5-0.3,1-3.4,11
	c-1,3.2-1.4,4.6-2.8,5.1c-1.9,0.7-4.7-0.1-5.4-0.6C142.1,53.7,140.6,51.9,139.9,50.1z"/>
<path fill="#F7941E" stroke="#000000" stroke-miterlimit="10" d="M82.5,117.6c-0.4,1.3-0.7,2.7-1.1,4h11.7l1.3-4.3L82.5,117.6z"/>
<polygon fill="#F7941E" stroke="#000000" stroke-miterlimit="10" points="107.6,117.5 107.6,122.3 118.3,121.6 117,117.2 "/>
<path fill="#2E3192" stroke="#000000" stroke-miterlimit="10" d="M94.8,118c-0.2,0.3-1.4,2.5-0.4,4.7c1.3,2.8,5.2,2.9,6,2.9
	c0.9,0,5.1,0,6.7-3.3c0.1-0.1,1.3-2.6,0-4.9c-1.8-3.2-6.5-2.6-7-2.5C99.2,115,96.2,115.4,94.8,118z"/>
<path fill="#BE1E2D" stroke="#000000" stroke-miterlimit="10" d="M97.7,118.7c-0.7,1-0.6,2.5,0.2,3.4c1.2,1.5,3.7,1.2,5.1,0
	c0.7-0.6,1.6-2,1.1-3.1c-0.5-1.1-1.9-1.3-2.5-1.4C100.9,117.5,98.7,117.2,97.7,118.7z"/>
<path fill="#F9ED32" stroke="#000000" stroke-miterlimit="10" d="M81.4,122.3c0,0-1.1,3.1-2.1,6.5c-0.2,0.6-0.8,3.2-1.3,4.7
	c-2.6,9.3-2,18.6-3,19.6c-1.4,1.2-1.5,2.2-1.9,3.9c-0.5,2.1-0.5,3.3-0.5,5.3c0,1-0.5,1.7-0.4,2.3c0.2,0.9,1.7,1.3,2.7,1.6
	c0.6,0.2,3,0.5,4.9,0.4c2.1-0.1,4.5-1.1,4.5-1.1v-0.7c0,0,0.2-2.4,0.6-3.7c1.3-3.6,3-6,5.3-8.7c7.3-8.4,7.7-12.8,9.3-13.4
	c0,0,3,4.5,11.1,14.3c2.5,3,4.4,5,4.5,8.1c0,1.8-0.6,3.6,0.5,4.7c0.2,0.2,0.7,0.6,3.4,0.7c4.9,0.3,6.4-0.6,6.9-0.9
	c0.5-0.3,1.4-0.9,1.4-1.8c0-0.8,0.2-1.5,0-2.5c-0.4-2.5-0.2-3.2-1.5-5.4c-0.6-1-1-2.3-1.5-3.5c-1.2-2.5,0.1-9.6-1.4-16.3
	c-0.8-3.7-0.1-6.7-1.3-7.9c-2.1-2-3.5-6.4-3.5-6.4s-9.6-0.4-10.6,0.3c-2.7,1.9-2.3,3-7.3,3c-4.3,0-6-2.9-7.1-3.2
	C89.5,121.3,81.4,122.3,81.4,122.3z"/>
<path stroke="#000000" stroke-miterlimit="10" d="M71,168.6c0-1.7-0.1-3.2,0.7-3.6c0.4-0.2,0.9,0,2,0.4c1.3,0.4,2.7,0.9,4,0.9
	c2.2,0.1,6.2-0.4,6.5,0c1.2,1.4-1.3,5.4-3.1,8.3c-2.6,4.2-3.4,4.2-3.8,6.3c-0.4,1.9,0.2,2.3,0,6.5c-0.2,3.1-0.5,3.9-0.7,4.3
	c-0.3,0.7-0.9,1.6-3.6,3.8c-2.8,2.3-4.2,3.4-5.4,3.8c-0.4,0.1-4.5,1.4-7.4-0.9c-0.5-0.4-1.4-1-1.6-2.2c-0.1-0.4-0.3-1.8,2-4.7
	c2.4-3,3.9-3.2,6.9-6.5c1.2-1.3,1.7-2,2.2-2.9c1-2.1,0.3-3.1,0.5-7.2C70.3,171.2,70.9,171.8,71,168.6z"/>
<path stroke="#000000" stroke-miterlimit="10" d="M117.6,171.5c-0.9-1.8-2.6-4.9-1.6-5.8c0.5-0.4,1.2,0,3.4,0.4
	c2.5,0.4,5.1,0.8,6.9-0.5c1.1-0.9,1.1-1.8,1.6-1.8c1.4,0.1,1.9,7.7,2,9.2c0.4,6.5-0.4,6.9,0.5,9.2c0.7,1.7,1.3,1.7,6.9,7.4
	c4,4.1,5,5.3,4.7,6.7c-0.4,2-3,3-3.6,3.3c-3.1,1.2-6-0.1-6.5-0.4c-1.7-0.8-1.5-1.4-5.1-4.5c-2.6-2.3-2.8-2-3.3-2.9
	c-0.8-1.7-0.1-2.8-0.2-7.2c0-1.4-0.1-2.1-0.2-2.9C122.6,177.7,120.3,176.7,117.6,171.5z"/>
<path fill="#BE1E2D" stroke="#000000" stroke-miterlimit="10" d="M130.3,82.7c0,0,0.9,1.1,3.8,2.9c2.4,1.6,7.4,5.4,11.7,11.9
	c4.1,6.1,3.5,8.7,8.7,15.4c4,5.1,6.6,6.6,7.6,7c4,2,8.5,2.2,10.7,2.2c4.6-0.1,6.3-1.4,7.2-0.4c1.7,1.8-1,8.4-5.4,12.5
	c-2.3,2.1-5.5,3.7-12.1,6.9c-3.5,1.7-3.1,1.4-4.2,2c-6.1,3.7-5.4,7.7-9.9,10.8c-4,2.7-4.5,3.3-12.7,3.3c-4.8,0-7.7,3.3-8.5,2.2
	c-0.2-0.3-0.4-0.3-1.2-1.8c-0.9-1.8-1.4-3.1-2.2-4.9c-0.8-1.6,1.3-7.6-0.6-15.5c-0.9-3.5-2-7.2-3.3-10.1c-2-4.4-0.5-1.1-2-4.4
	c-1.1-2.5-2.8-10.8-3.4-12.6c-1.4-4.4,4.5-13.2,4.4-15.4c0-0.7,4.7-4.9,8-8.4C128.3,85,129.9,83.2,130.3,82.7z"/>
<path fill="#BE1E2D" stroke="#000000" stroke-miterlimit="10" d="M114.2,159c-0.4,0.5-8.8-3-14.2-2.7c-8.1,0.4-13.7,4.4-14.4,3.4
	c-0.8-1,3-3.4,7.3-9.8c2-3,5.9-10.8,6.8-10.8c0.8,0,4.4,5.9,8,10.4C111.5,154,114.5,158.6,114.2,159z"/>
<path fill="#BE1E2D" stroke="#000000" stroke-miterlimit="10" d="M72.8,155.8c-2.1,2.2-4.7-3-9.9-4.9c-5.2-1.8-6.4,1-10.8-0.5
	c-6.3-2.2-4.7-8.3-12.1-12.7c-1.3-0.7-5.1-1.9-12.7-4.3c-6.3-2-7.2-2.1-7.6-3.1c-1.4-3.6,8.3-7.6,18.1-20.2c5.6-7.3,5-9.3,10.7-14.8
	c3.7-3.6,7-5.7,13.6-9.9c5.3-3.4,9-5.3,13.6-6.7c2.6-0.8,8-1.1,8-1.1s-2.4,2.3-7.6,6.1c-7.4,5.5-6.2,5.6-11.9,9.8
	c-6.4,4.6-9.6,5.7-9.9,8.9c-0.2,1.7,0.5,3,1.4,4.9c1.6,3.2,3.2,3.9,8,8.5c3.8,3.7,5.8,5.6,6.9,7.2c1.5,2.2,2.3,4,4.5,5.1
	c2.3,1.1,4.6-0.4,4.3,1.1c-0.3,2-2.8,6.7-3,16.1c-0.1,2.2-0.2,4.6-0.7,7.3C75.1,153.9,74,154.4,72.8,155.8z"/>
<g>
	<path fill="#BE1E2D" stroke="#000000" stroke-miterlimit="10" d="M79.7,93.9c-1.9-1.4-2,1.1-7,4.6c-3.7,2.5-6.5,3.2-6.4,4.4
		c0,0.8,0,0.8,1,2.4c1.9,3,1.1,8.3,3.9,10.7c2,1.7,5-0.7,7.6,1.3c2.3,1.8,2.7,4.5,3.5,4.4c0.7-0.1,0.8-2.4,1-4.3
		c0.3-2.9,1.4-4.9,1.8-6.6c0.6-2.9,0.4-5.3,0.2-6.3c-0.2-0.9-1.5-2.4-2.3-5C82.3,97.3,80.5,94.4,79.7,93.9z"/>
</g>
<path fill="#FFF200" stroke="#000000" stroke-miterlimit="10" d="M95.1,75.7c0.1-0.1,0,0.3,0.9-0.1c0.7-0.4,0.6-0.3,0.6-0.3
	s0,1.1,0.3,2c0.5,1.3,2.2,1.8,2.8,1.9c0.6,0.1,3.2,0.1,3.9-1c0.6-0.9,0.6-2.9,0.6-2.9h2.3c0,0-0.5,3.2-1.4,4.2
	c-1.2,1.3-2.6,1.5-3.5,1.6c-0.9,0.1-3.1,0.3-4.8-1C95.3,78.8,94.6,76.3,95.1,75.7z"/>
<path fill="none" stroke="#3C2415" stroke-miterlimit="10" d="M127.1,46.4c-0.2-0.2,0.4-1.2,1.3-1.6c0.9-0.5,2.1-0.3,2.2,0
	C130.7,45.3,127.4,46.8,127.1,46.4z"/>
<path fill="none" stroke="#3C2415" stroke-miterlimit="10" d="M77.9,47c0.1-0.3-1-1.3-2.3-1.7c-1.1-0.3-2.5-0.3-2.5,0
	C72.9,45.9,77.6,47.5,77.9,47z"/>
<g>
	<path fill="#FFFFFF" stroke="#000000" stroke-miterlimit="10" d="M85.1,48.1c1,0.6,1.9-1,4.6-1c2.5,0,3.5,1.4,4.3,0.8
		c1-0.7,0.1-3.4-1-6.6c-0.9-2.5-1.6-3.6-2.6-4.3c-0.4-0.3-1.3-0.9-2.2-0.7c-0.4,0.1-1.4,0.5-2.5,3.5C85.4,40.4,83.1,47,85.1,48.1z"
		/>
	<path fill="#3C2415" stroke="#000000" stroke-miterlimit="10" d="M86.5,46.4c-1.4-1.9-0.6-4.2-0.4-4.6c0.1-0.2,1.2-3,3.3-3
		c1.9,0.1,2.9,2.6,3.1,3c0.8,1.9-0.5,5.7-3,5.5C87.7,47.1,87.7,47.8,86.5,46.4z"/>
	<path fill="#603913" stroke="#000000" stroke-miterlimit="10" d="M89.5,47.1c-1.2-0.1-1.6-0.3-1.6-1.6c0-0.6,0.3-2.2,1.5-2.2
		s1.5,0.4,1.6,1.9C91,46.2,90.7,47.2,89.5,47.1z"/>
</g>
<path fill="none" stroke="#000000" stroke-miterlimit="10" d="M104.4,32c1.7-0.5,5.1,0,7.6,2.9"/>
<path fill="none" stroke="#000000" stroke-miterlimit="10" d="M85.1,34.9c0-1.6,3.4-2.9,7.6-2.9"/>
<line fill="none" stroke="#000000" stroke-miterlimit="10" x1="108.4" y1="34.5" x2="108.4" y2="34.5"/>
<g>
	<path fill="none" stroke="#3C2415" stroke-miterlimit="10" d="M98.3,53.5c-0.2-0.1-1.5-0.9-2.9-0.4c-1.2,0.4-2.4,1.7-2.2,3.1
		c0.2,1.1,1.1,1.8,1.9,2c1.1,0.3,2.3,0,3.1-0.8"/>
</g>
<path fill="none" stroke="#7C414B" stroke-miterlimit="10" d="M83.7,60c0.5-0.7,1.8-1.4,1.8-1.4s1.1,1.5,2,2.6
	c2.7,3.5,6.6,4.4,7.9,4.7c2.1,0.4,3.8,0.2,5.4,0.1c1.2-0.1,3.2-0.2,5.4-1.3c1.2-0.6,2.4-1.2,4.1-2.4c1.9-1.3,2.2-1.8,2.2-1.8
	c1.3-1.2,1.6-1.5,1.6-1.5s0.7,0.8,0.9,1.3"/>
<g>
	<path fill="#FFFFFF" stroke="#000000" stroke-miterlimit="10" d="M103.4,48.1c1,0.6,1.9-1,4.6-1c2.5,0,3.5,1.4,4.3,0.8
		c1-0.7,0.1-3.4-1-6.6c-0.9-2.5-1.6-3.6-2.6-4.3c-0.4-0.3-1.3-0.9-2.2-0.7c-0.4,0.1-1.4,0.5-2.5,3.5C103.7,40.4,101.4,47,103.4,48.1
		z"/>
	<path fill="#3C2415" stroke="#000000" stroke-miterlimit="10" d="M104.9,46.4c-1.4-1.9-0.6-4.2-0.4-4.6c0.1-0.2,1.2-3,3.3-3
		c1.9,0.1,2.9,2.6,3.1,3c0.8,1.9-0.5,5.7-3,5.5C106.1,47.1,106,47.8,104.9,46.4z"/>
	<path fill="#603913" stroke="#000000" stroke-miterlimit="10" d="M107.8,47.1c-1.2-0.1-1.6-0.3-1.6-1.6c0-0.6,0.3-2.2,1.5-2.2
		s1.5,0.4,1.6,1.9C109.3,46.2,109,47.2,107.8,47.1z"/>
</g>
</svg>
