<?xml version="1.0" encoding="utf-8"?>
<!-- Generator: Adobe Illustrator 18.1.0, SVG Export Plug-In . SVG Version: 6.00 Build 0)  -->
<!DOCTYPE svg PUBLIC "-//W3C//DTD SVG 1.1//EN" "http://www.w3.org/Graphics/SVG/1.1/DTD/svg11.dtd">
<svg version="1.1" id="Layer_1" xmlns="http://www.w3.org/2000/svg" xmlns:xlink="http://www.w3.org/1999/xlink" x="0px" y="0px"
	 viewBox="0 0 503.3 624.3" enable-background="new 0 0 503.3 624.3" xml:space="preserve">
<symbol  id="Brown_Hair_4" viewBox="-11.3 -7.7 22.7 15.4">
	<path fill="#7E5629" d="M-11.3,7c0,0,5.6,2.6,10.6-1.9c5-4.6,5.8-10.2,12-12.7C4.7-6.5,2.2,0.9-1,4C-6.1,8.9-10.8,7-11.3,7z"/>
</symbol>
<g>
	<path fill="#3C2415" stroke="#3C2415" stroke-width="3.3263" stroke-miterlimit="10" d="M38.4,197.1c0-3.1,27.6-2.4,44.8-21.8
		c6.4-7.2,8.9-14.6,20.7-24.1c5.3-4.3,11-7.8,10.3-9.2c-1.1-2.4-18.8,6.4-21.8,2.3c-3-4.1,11.4-17,26.4-37.9
		c21.3-29.7,14.8-35.1,31-52.9c18.9-20.7,42-29,54-33.3c0,0,27.7-11.3,48.3-9.2c5.1,0.5,10.1,1.7,10.1,1.7c0,0,3.4,0.8,6.8,1.9
		c11.1,3.7,37.7,27.7,39.5,26.3c1-0.8-11.2-14.3-21.5-22.6c-10.3-8.3-24.1-11.3-23.5-12.4c3.3-6.9,54.4,21.4,57.8,24.2
		c3.6,2.9-11.3-28.7-10.5-28.2c1.4,0.8,19.4,24.2,27.5,38.6c7.7,13.7,7.2,12.6,16,25.9c8,12.1,8.4,28.7,9.5,39
		c0.9,9.1,0.7,17.3,0.4,21.5c-0.4,6.2-1.3,10.9-1.6,12.9c-0.8,4.3-2.3,12.2-6.2,21.2c-2.3,5.4-4.9,9.9-6.4,12.3c0,0-0.8,1.3-1.6,2.5
		c-9,14.1-19.7,23.2-19.7,23.2c-4.2,3.6-15.3,15-30.8,19c-10.6,2.8-32.2,6.8-32.7,7c0,0,0.7-12.4,0.5-6.8c0,0.1,54.2-7.3,61.3-33.5
		c3.1-11.3-3.8-30.1,3.2-29.9c4.1,0.1,6.4,3.5,12.8,0.6c10.2-4.7,17.7-21.3,11.6-27.1c-3.5-3.3-11.2-2-16.1,1.1
		c-7.6,4.9-8.3,14.1-10.3,13.8c-2.6-0.4,2.1-15.2-5.7-27.6c-3.1-4.9-5.3-4.9-11.5-13.8c-3.8-5.4-5.7-8.3-6.9-12.6
		c-2.4-9,1.4-13.8-1.1-16.1c-3.4-2.9-11,4.4-23,8c-17.1,5.2-20.1-3.8-39.1,0c-13.4,2.7-10.4,6.9-35.6,16.1c-4.6,1.7-9.5,3.3-13.8,8
		c-6.7,7.5-6.9,17.3-6.9,18.4c0,9,4.5,15.5,3.4,16.1c-1.3,0.7-5.8-11-14.9-12.6c-4.4-0.8-9.9,0.7-12.6,4.6c-3.3,4.8-0.9,11.3,0,13.8
		c3.7,9.9,10.6,9,14.9,18.4c3.1,6.8,0,8.2,3.4,18.4c2.5,7.2,6,12.2,8,14.9c3,4.1,6.9,9.5,13.8,13.8c5.1,3.2,10.7,4.4,21.8,6.9
		c0,0,5.1-0.8,20.4,1.9c-0.6-3.8,0.8,9.5-0.9,13c-2.5,5.1-15.7,1.3-29.9,1.1c-9.1-0.1-6.3,1.5-51.7,12.6c0,0-18.4,4.5-36,5.7
		c0,0-0.1,0-0.1,0c-16.2,1.1-24.4,1.6-24.8,0.1c-0.8-2.6,22.3-16,20.7-12.6c-0.3,0.7-74.3-0.7-79.3-5.7
		c-6.1-6.1,48.3-32.3,40.2-32.2C78.2,201.8,38.4,207.6,38.4,197.1z"/>
	<path fill="#C49A6C" stroke="#C49A6C" stroke-width="3.3263" stroke-miterlimit="10" d="M263.2,242.2c0,0,0.9-16.8,2-26.6
		c0,0,8.6,4.3,30.9-4.2c2.6-1,11.8-2.8,22.3-13.7c4.9-5,5.7-11.7,6.7-16.2c2.1-9.3-0.7-10.2-0.9-21.7c0,0-2.3-0.6,3.5-5.7
		c0.8-0.6,4.6-0.5,5.5-0.1c2.1,1,5.8,2.3,9.8,1c5.9-1.8,8.1-7.8,9.4-11.3c1-2.6,3.8-10.4,0-14.1c-2.8-2.8-8-2.1-11.3-0.9
		c-10.2,3.7-11.8,16.5-15.1,16c-2.8-0.4,3.3-6.7-0.2-21.6c-1-4.2-1.6-6-7.8-13c-4.5-5.1-8.9-11.7-12.5-17.2
		c-2.9-4.4-1.5-19-4.9-19.8c-6.7-1.5-8.5,6-21.7,10.4c-16.6,5.5-20.7-4-39.6,0c-9.6,2-5.9,3.9-35.8,17c-7.3,3.2-9.9,4.3-12.2,7.5
		c-8.8,11.9-0.8,29.9-2.1,31.7c-0.9,1.3-6.8-9.8-17.7-10c-3.8-0.1-9.4,1.3-11.3,4.7c-4.9,8.6,6.9,15.4,15,29.3
		c6.2,10.6,6.8,24.6,11.5,33.3c3.8,7.2,8.8,12.8,21.3,17.1c15,5.2,29,6.3,35.1,3.1c0,0,0,0,0,0c5.5,9.3,0.9,18.7,0.9,18.7
		c0,1.1-0.1,2.9-0.1,5.2c1.3,1.1,3.8,2.5,7.1,3.5c0.9,0.3,2,0.4,3.4,0.4C259.5,245.2,263.2,242.2,263.2,242.2z"/>
	<path fill="#EC008C" stroke="#000000" stroke-width="3.3263" stroke-miterlimit="10" d="M231.9,236.2c-3.8-3-9.4-1.8-18,0
		c-4.1,0.9-9.6,2.1-16.3,5.6c-10,5.3-14.9,11.3-24.1,18.5c-12.9,10-22.6,21.7-35.4,31.4c-0.2,0.1-10.8,5.7-22.4,15.2
		c-3.3,2.7-6.8,5.7-7.9,10.7c-1.2,5.4,0.7,12,3.9,12.9c2.1,0.6,3.2-1.9,9.5-5.6c4.3-2.6,7.9-4.7,12.3-4.5c4.5,0.2,4.9,2.6,8.4,2.8
		c6.5,0.3,14.9-9.4,19.8-12.7c4.5-3.1,10.2-5.8,17.3-12.5c3.5-3.3,4.7-5.9,6.7-5.6c3.4,0.5,2.5,7.5,8.4,16.8c3.8,6,4.3,6.6,6.1,11.8
		c1.6,4.6,2.5,18.4,0,27.5c0,0-1.9,0.8-2.5,9.5l-1.5,5.7c0.8,2.1,7.6-0.4,18,0c10.5,0.4,11.8,2.4,16.8,1.1c5.7-1.4,6.1-3.8,12.7-6.3
		c5.5-2.1,12.6-1.7,14.5-1.2c5.6,1.5,6.4,3.1,12.9,5.3c1.9,0.6,0.8-0.1,5.9,0.6c8.6,1.2,13.9,1.3,19.1,0.6c4.7-0.6,5.4-1.4,5.6-1.7
		c2.4-3.1-0.5-8-2.8-17.9c-0.7-3.1-2.8-10.6-0.5-19.6c0.9-3.5,3.7-6.8,8.3-15.3c5.5-10.2,4.8-10.4,6.5-15.7c0.9-2.8,1.1-2.7,9.5-11
		c8.2-8.2,7.7-7.1,12.1-12.1c3.9-4.4,14.8-16,17-19.9c1.7-2.9,25.6-41.3,30.5-46.8c2.7-3,18.6-31.3,19.4-32.5
		c4.2-6.8-13.7-1.8-11.6-1.9c9.6-0.6-2.8-4.2-11-6.5c-6.6-1.9-2.4-16.7-4.6-11.1c-3.1,7.8-11.1,21.7-18.4,32.9
		c-6.2,9.5-4.9,6-13.2,19.2c-7.3,11.8-17.8,22.7-21.3,26.2c-9.6,9.6-14.5,14.3-23.7,10.4c-3.7-1.5-7.8-2.8-16.3-4.5
		c-10.2-2.1-11.9-1.3-12.9-0.6c-3.6,2.7-0.7,7.6-4.5,12.3c-3.8,4.8-10.9,5-13.5,5.1c-2.7,0.1-8.2,0.2-12.3-3.4
		C233.7,244.7,236.3,239.6,231.9,236.2z"/>
	<polygon fill="#FFF200" stroke="#000000" stroke-width="3.3263" stroke-miterlimit="10" points="236.1,270.8 214.8,292.7 
		236.1,323.6 279.3,323.6 300.7,293.3 278.8,270.8 	"/>
	<polygon fill="#FFFFFF" stroke="#000000" stroke-width="3.3263" stroke-miterlimit="10" points="230.5,292.7 244,312.4 
		269.5,312.4 284.9,292.7 277.6,283.2 238.9,283.2 	"/>
	<path fill="#FFF200" stroke="#000000" stroke-width="3.3263" stroke-miterlimit="10" d="M114.9,331.5c-1,3.7,3.6,10.3,11.8,18.5
		c17.8,17.7,20.2,15.4,27.5,24.7c7.2,9.1,8.5,15.9,18.5,23c4.3,3.1,7.4,4.1,10.1,3.4c5.5-1.5,7.3-9.8,8.4-14.6
		c1.3-5.5,2.8-12.3-1.1-17.4c-3-3.9-7.7-4.9-11.2-5.6c-7.6-1.6-9.5,1.2-13.5,0c-11.6-3.4-6.3-32.7-20.2-39.3
		c-5.7-2.7-11.9-2.2-15.1-1.4C126.9,323.6,116.3,326.1,114.9,331.5z"/>
	<path fill="#FFF200" stroke="#000000" stroke-width="3.3263" stroke-miterlimit="10" d="M375.6,157.1c-5-12.7,26.3-21.9,26.4-37.2
		c0-7.8-6.7-10.1-5.4-19.2c1.3-9,9-14.1,9.8-14.6c7-4.5,18.1-5.8,22.8-0.3c3,3.4,2.5,8.3,2,12.1c-1.2,10.3-5.9,13.6-11,23.9
		c-2.2,4.5-0.9,3.1-10.4,34.2c-3,9.9-4.5,14.3-8.6,15.9c-6,2.3-14.7-0.3-16.7-1.7C382.4,168.4,377.9,162.8,375.6,157.1z"/>
	<path fill="#F7941E" stroke="#000000" stroke-width="3.3263" stroke-miterlimit="10" d="M197.4,366.8c-1.1,4.1-2.2,8.2-3.4,12.3
		h36.5l3.9-13.5L197.4,366.8z"/>
	<polygon fill="#F7941E" stroke="#000000" stroke-width="3.3263" stroke-miterlimit="10" points="275.4,366.4 275.4,381.4 
		308.5,379.2 304.6,365.7 	"/>
	<path fill="#ED1C24" stroke="#000000" stroke-width="3.3263" stroke-miterlimit="10" d="M235.6,367.9c-0.5,0.9-4.3,7.9-1.1,14.6
		c4.1,8.7,16.2,8.9,18.5,9c2.7,0.1,15.8-0.1,20.8-10.1c0.2-0.4,3.9-8.1,0-15.2c-5.5-9.9-20.2-8.1-21.9-7.9
		C249.2,358.8,240,360,235.6,367.9z"/>
	<path fill="#FFFFFF" stroke="#000000" stroke-width="3.3263" stroke-miterlimit="10" d="M244.5,370.2c-2.1,3.2-1.7,7.8,0.6,10.7
		c3.7,4.6,11.6,3.6,15.7,0c2.3-2,4.8-6.1,3.4-9.5c-1.4-3.4-5.9-4.2-7.9-4.5C254.6,366.5,247.7,365.4,244.5,370.2z"/>
	<path fill="#EC008C" stroke="#000000" stroke-width="3.3263" stroke-miterlimit="10" d="M194,381.4c0,0-3.4,9.5-6.5,20.3
		c-0.5,1.8-2.6,9.9-3.9,14.6c-8.2,28.8-6.2,57.8-9.3,60.7c-4.2,3.9-4.7,6.8-5.9,12.2c-1.4,6.7-1.4,10.3-1.7,16.3
		c-0.1,3.1-1.6,5.3-1.2,7.2c0.6,2.8,5.2,4.2,8.4,5.1c1.8,0.5,9.3,1.6,15.3,1.3c6.4-0.4,14.1-3.3,14.1-3.3v-2.2c0,0,0.7-7.6,2-11.3
		c4-11.2,9.2-18.7,16.4-27c22.5-26,23.9-39.8,28.9-41.6c0,0,9.2,13.8,34.5,44.4c7.7,9.3,13.8,15.5,14,25.3
		c0.1,5.7-1.7,11.2,1.7,14.6c0.8,0.8,2.1,1.8,10.7,2.2c15.3,0.9,19.9-1.9,21.3-2.8c1.5-1,4.4-2.9,4.5-5.6c0.1-2.5,0.5-4.6,0-7.8
		c-1.3-7.7-0.8-9.8-4.8-16.7c-1.8-3-3-7.1-4.7-10.7c-3.6-7.8,0.3-29.7-4.3-50.6c-2.5-11.5-0.5-20.8-4.2-24.5
		c-6.5-6.3-10.9-20-10.9-20s-29.9-1.3-33,0.9c-8.3,5.9-7.1,9.2-22.5,9.2c-13.4,0-18.5-9-22.2-10C218.9,378.1,194,381.4,194,381.4z"
		/>
	<path fill="#FFF200" stroke="#000000" stroke-width="3.3263" stroke-miterlimit="10" d="M161.5,525.1c0.2-5.4-0.2-9.9,2.2-11.2
		c1.3-0.7,2.7,0,6.2,1.1c4,1.3,8.3,2.7,12.3,2.8c6.7,0.2,19.2-1.2,20.2,0c3.7,4.3-4,16.8-9.5,25.8c-8.1,13.1-10.6,13.2-11.8,19.6
		c-1.1,5.8,0.7,7.1,0,20.2c-0.5,9.5-1.6,12.2-2.2,13.5c-1.1,2.3-2.8,4.9-11.2,11.8c-8.6,7-13,10.6-16.8,11.8
		c-1.1,0.4-13.9,4.2-23-2.8c-1.5-1.2-4.2-3.2-5.1-6.7c-0.3-1.3-1-5.6,6.2-14.6c7.3-9.2,12-9.8,21.3-20.2c3.6-4,5.4-6.1,6.7-9
		c3-6.6,0.8-9.6,1.7-22.4C159.4,533.2,161.2,535.1,161.5,525.1z"/>
	<path fill="#FFF200" stroke="#000000" stroke-width="3.3263" stroke-miterlimit="10" d="M306.3,534.1c-2.9-5.6-7.9-15.2-5.1-18
		c1.4-1.4,3.6,0,10.7,1.1c7.6,1.2,15.8,2.5,21.3-1.7c3.5-2.7,3.5-5.7,5.1-5.6c4.3,0.3,5.8,23.8,6.2,28.6c1.4,20.3-1.3,21.6,1.7,28.6
		c2.2,5.1,3.9,5.3,21.3,23c12.5,12.7,15.4,16.5,14.6,20.8c-1.2,6.2-9.2,9.3-11.2,10.1c-9.6,3.8-18.6-0.4-20.2-1.1
		c-5.3-2.5-4.6-4.4-15.7-14c-8.1-7-8.8-6.3-10.1-9c-2.5-5.2-0.2-8.8-0.6-22.4c-0.1-4.4-0.2-6.5-0.6-9
		C321.7,553.5,314.7,550.2,306.3,534.1z"/>
	<path fill="#00AEEF" stroke="#000000" stroke-width="3.3263" stroke-miterlimit="10" d="M345.7,258.5c0,0,2.9,3.3,11.8,9
		c7.5,4.8,23,16.8,36.5,37c12.7,19.1,10.9,27,26.9,47.7c12.3,15.9,20.5,20.3,23.6,21.9c12.5,6.2,26.3,6.9,33.1,6.7
		c14.4-0.3,19.5-4.3,22.4-1.1c5.2,5.6-3,26.1-16.8,38.7c-7,6.4-17.2,11.4-37.6,21.3c-10.8,5.2-9.8,4.2-12.9,6.2
		c-18.8,11.6-16.6,23.9-30.9,33.7c-12.3,8.5-13.9,10.3-39.3,10.1c-14.9-0.1-23.8,10.3-26.3,6.7c-0.5-0.8-1.3-0.9-3.6-5.5
		c-2.8-5.6-4.3-9.5-6.9-15.2c-2.3-5.1,4.1-23.6-1.9-48.2c-2.7-11-6.1-22.4-10.1-31.3c-6.2-13.6-1.5-3.5-6.2-13.6
		c-3.5-7.7-8.7-33.4-10.5-39.1c-4.4-13.6,14.1-40.9,13.7-47.8c-0.1-2.1,14.5-15.2,24.9-25.9C339.6,265.5,344.4,260,345.7,258.5z"/>
	<path fill="#00AEEF" stroke="#000000" stroke-width="3.3263" stroke-miterlimit="10" d="M295.6,495.3c-1.4,1.5-27.3-9.3-44-8.4
		c-25.1,1.4-42.5,13.5-44.7,10.7c-2.4-3.2,9.2-10.7,22.6-30.4c6.3-9.2,18.4-33.5,21.1-33.6c2.4,0,13.6,18.3,24.9,32.2
		C287.2,479.8,296.7,494.2,295.6,495.3z"/>
	<path fill="#00AEEF" stroke="#000000" stroke-width="3.3263" stroke-miterlimit="10" d="M167.1,485.2c-6.5,7-14.7-9.4-30.9-15.2
		c-16.1-5.7-19.9,3.1-33.7-1.7c-19.6-6.8-14.6-25.8-37.6-39.3c-3.9-2.3-15.7-6-39.3-13.5c-19.6-6.2-22.4-6.5-23.6-9.5
		c-4.4-11.1,25.8-23.7,56.1-62.9c17.4-22.5,15.5-28.8,33.1-46c11.4-11.1,21.6-17.7,42.1-30.9c16.4-10.5,28.1-16.5,42.1-20.8
		c8.2-2.5,24.7-3.4,24.7-3.4s-7.6,7.2-23.6,19.1c-23.1,17.2-19.1,17.4-37,30.3c-19.9,14.3-29.7,17.6-30.9,27.5
		c-0.6,5.1,1.4,9.2,4.5,15.2c5,9.9,10.1,12.2,24.7,26.4c11.9,11.6,17.9,17.4,21.3,22.4c4.6,6.7,7.1,12.3,14,15.7
		c7,3.5,14.2-1.1,13.5,3.4c-1,6.2-8.6,20.9-9.3,50c-0.2,6.9-0.6,14.3-2.2,22.7C174.4,479.6,171,481.1,167.1,485.2z"/>
	<g>
		<path fill="#00AEEF" stroke="#000000" stroke-width="3.3263" stroke-miterlimit="10" d="M188.6,293.1c-5.9-4.3-6.1,3.6-21.6,14.2
			c-11.5,7.8-20.1,9.8-20,13.6c0.1,2.6,0.1,2.6,3.2,7.5c5.9,9.3,3.3,25.7,12.2,33.3c6.1,5.2,15.5-2.2,23.6,4
			c7.3,5.6,8.3,13.9,10.7,13.6c2.1-0.3,2.5-7.4,3.1-13.4c0.9-9,4.4-15.3,5.5-20.6c1.8-9.1,1.4-16.5,0.8-19.6
			c-0.5-2.6-4.6-7.6-7.3-15.4C196.6,303.6,191,294.9,188.6,293.1z"/>
	</g>
	<path fill="#FFF200" stroke="#000000" stroke-width="3.3263" stroke-miterlimit="10" d="M236.5,236.6c0.2-0.2,0,0.9,2.8-0.5
		c2.3-1.2,2-0.9,2-0.9s-0.1,3.5,1,6.3c1.4,3.9,6.8,5.6,8.7,5.8c2,0.3,9.8,0.4,12.3-3.1c2-2.8,1.8-9.1,1.8-9.1h7
		c0,0-1.6,9.8-4.5,13.1c-3.6,4.2-7.9,4.7-11,5c-2.9,0.3-9.5,1-14.8-3.2C237,246.3,234.8,238.5,236.5,236.6z"/>
	<path fill="none" stroke="#A97C50" stroke-width="3.3263" stroke-miterlimit="10" d="M335.8,145.7c-0.6-0.8,1.3-3.6,3.9-4.9
		c2.9-1.5,6.6-1,6.8,0C347,142.5,336.9,147.1,335.8,145.7z"/>
	<path fill="none" stroke="#A97C50" stroke-width="3.3263" stroke-miterlimit="10" d="M182.9,147.6c0.4-0.8-3.1-3.9-7.2-5.1
		c-3.4-1-7.7-0.9-7.9,0C167.6,144.1,182.2,149.1,182.9,147.6z"/>
	<g>
		<path fill="#FFFFFF" stroke="#000000" stroke-width="3.3263" stroke-miterlimit="10" d="M205.3,151.1c3.1,1.8,6-3.1,14.4-3.1
			c7.8,0,10.9,4.2,13.3,2.4c3.1-2.3,0.3-10.7-3.1-20.5c-2.7-7.8-4.9-11.1-8.2-13.3c-1.4-0.9-4-2.7-6.8-2.1
			c-1.3,0.3-4.5,1.4-7.9,10.9C206.5,127,199.3,147.5,205.3,151.1z"/>
		<path fill="#2B3990" stroke="#000000" stroke-width="3.3263" stroke-miterlimit="10" d="M209.9,145.6c-4.5-5.9-1.8-13.2-1.4-14.4
			c0.2-0.5,3.8-9.4,10.3-9.2c6,0.2,9.1,8,9.6,9.2c2.3,5.8-1.6,17.7-9.4,17.1C213.6,147.9,213.3,150.2,209.9,145.6z"/>
		<path fill="#1C75BC" stroke="#000000" stroke-width="3.3263" stroke-miterlimit="10" d="M219.2,147.9c-3.6-0.3-4.9-0.8-5.1-5
			c-0.1-1.9,1-7,4.6-7c3.5,0,4.8,1.3,5,5.9C223.8,145.1,222.7,148.2,219.2,147.9z"/>
	</g>
	<path fill="none" stroke="#3C2415" stroke-width="3.3263" stroke-miterlimit="10" d="M265.2,101c5.2-1.7,15.7,0,23.5,9"/>
	<path fill="none" stroke="#3C2415" stroke-width="3.3263" stroke-miterlimit="10" d="M205.3,110.1c0-5,10.6-9,23.7-9"/>
	<line fill="none" stroke="#000000" stroke-width="3.3263" stroke-miterlimit="10" x1="277.9" y1="108.8" x2="277.9" y2="108.8"/>
	<g>
		<path fill="none" stroke="#A97C50" stroke-width="3.3263" stroke-miterlimit="10" d="M246.3,167.7c-0.6-0.4-4.5-2.8-8.9-1.3
			c-3.9,1.3-7.6,5.3-6.8,9.7c0.6,3.3,3.4,5.5,6,6.3c3.3,1,7.1,0,9.7-2.6"/>
	</g>
	<path fill="none" stroke="#BE1E2D" stroke-width="3.3263" stroke-miterlimit="10" d="M201,187.9c1.4-2.2,5.7-4.5,5.7-4.5
		s3.6,4.7,6.1,8c8.3,10.7,20.3,13.8,24.5,14.6c6.6,1.3,11.7,0.8,16.7,0.2c3.8-0.4,10-0.5,16.7-4c3.6-1.9,7.3-3.8,12.7-7.5
		c5.9-4.1,6.7-5.6,6.7-5.6c3.9-3.9,5.1-4.7,5.1-4.7s2.1,2.4,2.8,4.1"/>
	<g>
		<path fill="#FFFFFF" stroke="#000000" stroke-width="3.3263" stroke-miterlimit="10" d="M262.2,151.1c3.1,1.8,6-3.1,14.4-3.1
			c7.8,0,10.9,4.2,13.3,2.4c3.1-2.3,0.3-10.7-3.1-20.5c-2.7-7.8-4.9-11.1-8.2-13.3c-1.4-0.9-4-2.7-6.8-2.1
			c-1.3,0.3-4.5,1.4-7.9,10.9C263.3,127,256.1,147.5,262.2,151.1z"/>
		<path fill="#2B3990" stroke="#000000" stroke-width="3.3263" stroke-miterlimit="10" d="M266.7,145.6c-4.5-5.9-1.8-13.2-1.4-14.4
			c0.2-0.5,3.8-9.4,10.3-9.2c6,0.2,9.1,8,9.6,9.2c2.3,5.8-1.6,17.7-9.4,17.1C270.5,147.9,270.2,150.2,266.7,145.6z"/>
		<path fill="#1C75BC" stroke="#000000" stroke-width="3.3263" stroke-miterlimit="10" d="M276,147.9c-3.6-0.3-4.9-0.8-5.1-5
			c-0.1-1.9,1-7,4.6-7c3.5,0,4.8,1.3,5,5.9C280.7,145.1,279.6,148.2,276,147.9z"/>
	</g>
</g>
<use xlink:href="#Brown_Hair_4"  width="22.7" height="15.4" x="-11.3" y="-7.7" transform="matrix(2.3994 0 0 -4.3929 329.3609 86.6645)" overflow="visible"/>
<use xlink:href="#Brown_Hair_4"  width="22.7" height="15.4" x="-11.3" y="-7.7" transform="matrix(2.3994 0 0 -4.3929 337.9446 71.6169)" overflow="visible"/>
<use xlink:href="#Brown_Hair_4"  width="22.7" height="15.4" x="-11.3" y="-7.7" transform="matrix(-8.2628 0 0 -5.1016 206.5295 92.1282)" overflow="visible"/>
<use xlink:href="#Brown_Hair_4"  width="22.7" height="15.4" x="-11.3" y="-7.7" transform="matrix(-6.935 -1.0672 0.7868 -5.1128 215.5966 66.122)" overflow="visible"/>
<use xlink:href="#Brown_Hair_4"  width="22.7" height="15.4" x="-11.3" y="-7.7" transform="matrix(-5.1668 -1.6979 0.882 -2.6841 238.9323 35.3512)" overflow="visible"/>
<use xlink:href="#Brown_Hair_4"  width="22.7" height="15.4" x="-11.3" y="-7.7" transform="matrix(-5.4209 -0.4384 0.2277 -2.8161 112.9104 182.3602)" overflow="visible"/>
<use xlink:href="#Brown_Hair_4"  width="22.7" height="15.4" x="-11.3" y="-7.7" transform="matrix(-5.6775 0.2252 -0.112 -2.8231 118.8001 207.6968)" overflow="visible"/>
<use xlink:href="#Brown_Hair_4"  width="22.7" height="15.4" x="-11.3" y="-7.7" transform="matrix(-4.1198 0.1088 -6.796832e-02 -2.5745 147.7886 229.7807)" overflow="visible"/>
<use xlink:href="#Brown_Hair_4"  width="22.7" height="15.4" x="-11.3" y="-7.7" transform="matrix(-3.5405 9.347139e-02 -4.851271e-02 -1.8375 182.7428 236.5806)" overflow="visible"/>
</svg>
