<?xml version="1.0" encoding="utf-8"?>
<!-- Generator: Adobe Illustrator 18.1.0, SVG Export Plug-In . SVG Version: 6.00 Build 0)  -->
<!DOCTYPE svg PUBLIC "-//W3C//DTD SVG 1.1//EN" "http://www.w3.org/Graphics/SVG/1.1/DTD/svg11.dtd">
<svg version="1.1" id="Layer_1" xmlns="http://www.w3.org/2000/svg" xmlns:xlink="http://www.w3.org/1999/xlink" x="0px" y="0px"
	 viewBox="0 0 503.3 626.3" enable-background="new 0 0 503.3 626.3" xml:space="preserve">
<symbol  id="Brown_Hair_4" viewBox="-11.3 -7.7 22.7 15.4">
	<path fill="#7E5629" d="M-11.3,7c0,0,5.6,2.6,10.6-1.9c5-4.6,5.8-10.2,12-12.7C4.7-6.5,2.2,0.9-1,4C-6.1,8.9-10.8,7-11.3,7z"/>
</symbol>
<path fill="#00AEEF" stroke="#000000" stroke-width="3.3285" stroke-miterlimit="10" d="M335,487.6c6.4,7.1,14.9-9.2,31.1-14.7
	c16.2-5.5,19.9,3.4,33.7-1.2c19.7-6.5,15-25.6,38.2-38.8c4-2.3,15.8-5.8,39.5-12.9c19.7-5.9,22.5-6.2,23.7-9.2
	c4.6-11-25.5-24.1-55.2-63.7c-17.1-22.8-15.1-29-32.5-46.5c-11.2-11.3-21.4-18-41.7-31.5c-16.2-10.8-27.9-16.9-41.8-21.4
	c-8.1-2.6-24.7-3.7-24.7-3.7s7.5,7.3,23.3,19.4c22.8,17.5-10.4,16.9-18.2,37.5c-7.5,19.7-14,35.9-13,45.9c0.5,5.2,8.6,21.3,5.5,27.2
	c-5.2,9.8,12.6,9.7-2.2,23.7c-12.1,11.4,13.2,4.1,9.7,9.1c-4.7,6.6,6.1-10.6-0.9-7.3c-7.1,3.4,6.3,0.1,7,4.6
	c0.9,6.3,8.3,21,8.6,50.2c0.1,6.9,0.4,14.3,1.9,22.8C327.8,481.8,331.2,483.4,335,487.6z"/>
<path fill="#00AEEF" stroke="#000000" stroke-width="3.3285" stroke-miterlimit="10" d="M159.5,258.1c0,0-3,3.2-11.9,8.8
	c-7.6,4.7-23.2,16.5-37,36.5c-13,18.9-11.3,26.9-27.6,47.3c-12.6,15.7-20.8,20.1-23.9,21.6c-12.6,6-26.4,6.5-33.2,6.3
	c-14.4-0.5-19.4-4.6-22.4-1.4c-5.3,5.5,2.6,26.1,16.3,39c6.9,6.5,17.1,11.7,37.3,21.9c10.7,5.4,9.7,4.4,12.8,6.4
	c18.7,11.8,16.3,24.2,30.4,34.1c12.2,8.7,13.8,10.5,39.2,10.7c14.9,0.1,23.6,10.7,26.2,7.1c0.6-0.8,1.3-0.9,3.7-5.4
	c2.9-5.6,4.4-9.5,7.1-15.2c2.4-5-3.7-23.7,2.6-48.2c2.8-11,6.4-22.3,10.6-31.2c6.4-13.5,1.5-3.5,6.4-13.5c3.6-7.6,9.2-33.3,11.1-39
	c4.6-13.5-13.5-41.1-13-48c0.2-2.1-14.3-15.4-24.5-26.3C165.5,265.3,160.8,259.6,159.5,258.1z"/>
<path fill="#3C2415" stroke="#3C2415" stroke-width="3.3285" stroke-miterlimit="10" d="M467.9,201.2c0-3.1-27.6-2.8-44.6-22.5
	c-6.3-7.3-8.7-14.7-20.4-24.5c-5.3-4.4-10.9-8-10.2-9.4c1.1-2.4,18.7,6.7,21.8,2.6c3.1-4-11.2-17.2-25.9-38.3
	c-20.9-30-14.3-35.3-30.3-53.4c-18.6-21-41.6-29.6-53.6-34.1c0,0-27.6-11.7-48.2-9.9c-5.2,0.5-10.1,1.5-10.1,1.5
	c0,0-3.4,0.8-6.8,1.8c-11.1,3.5-38.1,27.2-39.9,25.7c-1-0.9,11.4-14.1,21.8-22.3c10.4-8.2,24.2-10.9,23.7-12.1
	c-3.2-6.9-54.8,20.7-58.2,23.3c-3.7,2.9,11.7-28.5,10.9-28.1c-1.4,0.7-19.7,23.9-28,38.2c-7.9,13.6-7.4,12.5-16.4,25.6
	c-8.2,12-8.8,28.6-10,38.9c-1.1,9.1-0.9,17.3-0.7,21.5c0.4,6.2,1.1,10.9,1.4,12.9c0.7,4.4,2.1,12.2,5.9,21.3
	c2.2,5.4,4.8,10,6.2,12.4c0,0,0.7,1.3,1.5,2.6c8.8,14.2,19.3,23.5,19.3,23.5c4.1,3.6,15,15.2,30.5,19.5c10.6,2.9,32.1,7.3,32.7,7.5
	c0,0-0.5-12.4-0.4-6.8c0,0.1-54.1-8.1-60.9-34.4c-2.9-11.4,4.2-30-2.8-30c-4.2,0-6.5,3.5-12.8,0.5c-10.1-4.8-17.4-21.6-11.2-27.2
	c3.5-3.2,11.2-1.9,16.1,1.4c7.5,5,8.1,14.3,10.2,14c2.6-0.4-1.9-15.3,6.2-27.5c3.2-4.8,5.4-4.8,11.7-13.6c3.8-5.4,5.9-8.2,7.1-12.6
	c2.5-9-1.2-13.9,1.4-16.1c3.4-2.9,10.9,4.5,22.9,8.4c17,5.5,20.2-3.5,39.1,0.6c13.4,2.9,10.3,7.1,35.4,16.6
	c4.5,1.7,9.5,3.4,13.7,8.3c6.6,7.6,6.7,17.4,6.6,18.5c-0.1,9-4.7,15.5-3.7,16.1c1.3,0.7,6-10.9,15.1-12.4c4.4-0.7,9.9,0.8,12.6,4.8
	c3.3,4.9,0.8,11.3-0.2,13.8c-3.8,9.8-10.8,8.9-15.2,18.2c-3.2,6.7-0.1,8.3-3.7,18.4c-2.6,7.2-6.2,12.1-8.3,14.8
	c-3,4-7.1,9.4-14,13.6c-5.1,3.1-10.7,4.3-22,6.6c0,0-5.1-0.9-20.4,1.6c0.6-3.8-1,9.5,0.7,13c2.4,5.1,15.7,1.5,29.9,1.6
	c9.2,0,6.3,1.6,51.6,13.4c0,0,18.4,4.8,36,6.2c0,0,0.1,0,0.1,0c16.2,1.3,24.4,1.9,24.8,0.4c0.8-2.6-22-16.3-20.5-13
	c0.3,0.7,74.3,0.3,79.5-4.6c6.2-6-47.9-33-39.8-32.8C428,205.3,467.7,211.6,467.9,201.2z"/>
<use xlink:href="#Brown_Hair_4"  width="22.7" height="15.4" x="-11.3" y="-7.7" transform="matrix(3.541 0.1447 7.510169e-02 -1.8378 322.9038 238.5626)" overflow="visible"/>
<use xlink:href="#Brown_Hair_4"  width="22.7" height="15.4" x="-11.3" y="-7.7" transform="matrix(4.1204 0.1684 0.1052 -2.5749 357.9753 232.2642)" overflow="visible"/>
<use xlink:href="#Brown_Hair_4"  width="22.7" height="15.4" x="-11.3" y="-7.7" transform="matrix(5.6774 0.3074 0.1529 -2.823 387.2988 210.5873)" overflow="visible"/>
<path fill="#C49A6C" stroke="#C49A6C" stroke-width="3.3285" stroke-miterlimit="10" d="M242.4,243.1c0,0-0.7-16.8-1.6-26.6
	c0,0-8.7,4.2-30.8-4.7c-2.6-1-11.7-3-22.1-14c-4.8-5.1-5.6-11.7-6.5-16.3c-1.9-9.4,0.8-10.2,1.3-21.7c0,0,2.3-0.6-3.5-5.7
	c-0.7-0.7-4.6-0.6-5.5-0.2c-2.1,1-5.8,2.2-9.8,0.9c-5.9-1.9-8-7.9-9.3-11.4c-0.9-2.7-3.7-10.5,0.2-14.1c2.9-2.7,8.1-2,11.3-0.8
	c10.1,3.8,11.5,16.7,14.8,16.2c2.8-0.4-3.2-6.8,0.6-21.6c1.1-4.2,1.7-6,8-12.9c4.6-5,9-11.6,12.7-17c3-4.4,1.7-19,5.2-19.7
	c6.7-1.4,8.4,6.1,21.5,10.7c16.5,5.7,20.7-3.7,39.6,0.6c9.6,2.2,5.9,4,35.6,17.5c7.2,3.3,9.8,4.4,12.1,7.7c8.6,12,0.4,30,1.6,31.7
	c0.9,1.4,6.9-9.7,17.9-9.8c3.8,0,9.4,1.4,11.2,4.9c4.8,8.7-7.1,15.3-15.4,29.1c-6.3,10.5-7.2,24.5-12,33.2
	c-3.9,7.1-9,12.7-21.6,16.8c-15.1,5-29.1,5.9-35.1,2.6c0,0,0,0,0,0c-5.6,9.2-1.2,18.7-1.2,18.7c0,1.1,0,2.9,0,5.2
	c-1.4,1.1-3.8,2.5-7.2,3.4c-1,0.3-2,0.4-3.4,0.4C246,246.1,242.4,243.1,242.4,243.1z"/>
<path fill="#EC008C" stroke="#000000" stroke-width="3.3285" stroke-miterlimit="10" d="M273.7,237.4c3.9-3,9.4-1.7,18,0.3
	c4.1,0.9,10.4,1.9,17.2,3.3c11.4,2.4,18.1,5.2,29.1,1.2c12.3-4.5,30.1-15.9,41.4-22.3c0.2-0.1,12.1-21.1,20.1-27.6
	c3.3-2.6,5.4,7.7,9.6,10.6c3.4,2.4,13.6,6.5,15,8.2c0,0-1.7,1-4.1,3.3c-3.5,3.6-11.7,15.6-15.8,19.2c-3.4,3-12.7,13.8-14.9,16.5
	c-4.1,5.1-13.2,8.2-19.4,10.9c-5,2.2-18.7,7.7-26.5,10.3c-4.6,1.5-22.9,21.5-24.5,22.9c-2.2,2.1-3.4,6.8-8.7,16.7
	c-3.3,6.2-4.4,6.6-6.3,11.7c-1.7,4.6-2.8,18.4-0.4,27.5c0,0,1.9,0.8,2.3,9.5l1.4,5.7c-0.9,2.1-7.6-0.5-18-0.3
	c-10.5,0.2-11.8,2.2-16.9,0.9c-5.7-1.5-6-3.9-12.6-6.5c-5.5-2.2-12.6-1.9-14.4-1.4c-5.6,1.4-6.5,3-13,5.1c-1.9,0.6-0.8-0.1-6,0.5
	c-8.6,1.1-14,1.1-19.1,0.3c-4.7-0.7-5.3-1.4-5.6-1.8c-2.4-3.1,0.6-8,3.1-17.8c0.8-3.1,3-10.5,0.8-19.6c-0.9-3.5-3.6-6.9-8.1-15.5
	c-5.3-10.3-4.6-10.5-6.3-15.8c-0.9-2.8-1.1-2.7-9.4-11.2c-8.1-8.3-7.6-7.2-11.9-12.2c-3.8-4.4-12.1-15.4-18.9-15.4
	c-3.4,0-39.4-10.5-44.2-16.1c-2.6-3-20.7-32.1-21.4-33.3c-4.1-6.8,1.8-11.7,3.4-12.9c6-4.8,7.5-4,11.7-8.4c4.8-4.9,6.7-11.1,8.8-5.3
	c1,2.7,15.2,34.8,19.9,37.3c8.5,4.4,48.4,19.3,53.1,20.8c10.3,3.5,15.2,5.9,25,3.7c3.9-0.9,7.8-2.6,16.3-4.3
	c10.2-1.9,11.9-1.2,12.9-0.4c3.5,2.8,0.6,7.6,4.3,12.4c3.8,4.8,10.8,5.1,13.4,5.2c2.7,0.1,8.2,0.3,12.4-3.2
	C271.8,246,269.3,240.8,273.7,237.4z"/>
<polygon fill="#FFF200" stroke="#000000" stroke-width="3.3285" stroke-miterlimit="10" points="269,272.1 290,294.3 268.2,324.9 
	225,324.2 204.1,293.6 226.3,271.5 "/>
<polygon fill="#FFFFFF" stroke="#000000" stroke-width="3.3285" stroke-miterlimit="10" points="274.3,294 260.5,313.5 235,313.1 
	219.8,293.3 227.3,283.8 266,284.4 "/>
<path fill="#F7941E" stroke="#000000" stroke-width="3.3285" stroke-miterlimit="10" d="M306.4,368.6c1.1,4.1,2.1,8.3,3.2,12.4
	l-36.5-0.5l-3.7-13.5L306.4,368.6z"/>
<polygon fill="#F7941E" stroke="#000000" stroke-width="3.3285" stroke-miterlimit="10" points="228.3,367.1 228.1,382.1 195,379.4 
	199.1,366 "/>
<path fill="#ED1C24" stroke="#000000" stroke-width="3.3285" stroke-miterlimit="10" d="M268.2,369.2c0.5,0.9,4.2,7.9,0.9,14.6
	c-4.2,8.7-16.3,8.7-18.7,8.7c-2.7,0-15.8-0.4-20.6-10.4c-0.2-0.4-3.8-8.2,0.2-15.2c5.6-9.8,20.4-7.8,22-7.5
	C254.7,359.8,263.8,361.2,268.2,369.2z"/>
<path fill="#FFFFFF" stroke="#000000" stroke-width="3.3285" stroke-miterlimit="10" d="M259.1,371.3c2.1,3.2,1.6,7.8-0.7,10.7
	c-3.8,4.5-11.7,3.5-15.7-0.2c-2.3-2-4.7-6.2-3.2-9.6c1.5-3.4,6-4.1,7.9-4.4C249.1,367.5,256,366.5,259.1,371.3z"/>
<path fill="#EC008C" stroke="#000000" stroke-width="3.3285" stroke-miterlimit="10" d="M309.5,383.3c0,0,3.2,9.5,6.2,20.4
	c0.5,1.8,2.4,9.9,3.7,14.7c7.8,29,5.3,58,8.4,60.9c4.1,3.9,4.6,6.9,5.7,12.3c1.3,6.7,1.3,10.3,1.4,16.4c0.1,3.1,1.5,5.3,1,7.3
	c-0.6,2.8-5.3,4.1-8.5,4.9c-1.8,0.5-9.4,1.5-15.3,1c-6.4-0.5-14-3.5-14-3.5l0-2.2c0,0-0.6-7.6-1.8-11.4c-3.8-11.3-8.9-18.8-16-27.3
	c-22.2-26.4-23.3-40.2-28.3-42.1c0,0-9.4,13.7-35.2,43.9c-7.8,9.2-14,15.3-14.4,25.1c-0.2,5.7,1.6,11.2-1.9,14.6
	c-0.8,0.8-2.2,1.7-10.7,2.1c-15.4,0.6-19.9-2.2-21.3-3.1c-1.5-1-4.3-3-4.4-5.7c-0.1-2.5-0.5-4.6,0.1-7.8c1.4-7.7,0.9-9.8,5-16.6
	c1.8-3,3.1-7.1,4.9-10.7c3.7-7.7,0.1-29.7,5-50.6c2.7-11.5,0.8-20.8,4.5-24.4c6.6-6.2,11.2-19.8,11.2-19.8s29.9-0.9,33,1.4
	c8.2,6,7,9.3,22.4,9.5c13.4,0.2,18.7-8.7,22.3-9.7C284.6,379.7,309.5,383.3,309.5,383.3z"/>
<path fill="#FFF200" stroke="#000000" stroke-width="3.3285" stroke-miterlimit="10" d="M340,527.5c-0.1-5.4,0.4-9.9-2.1-11.3
	c-1.3-0.7-2.7,0-6.2,1c-4.1,1.2-8.3,2.6-12.4,2.6c-6.8,0.1-19.2-1.5-20.2-0.3c-3.7,4.2,3.8,16.9,9.2,26
	c7.9,13.3,10.4,13.3,11.5,19.8c1,5.9-0.8,7-0.3,20.2c0.4,9.5,1.5,12.2,2.1,13.5c1,2.3,2.7,4.9,11.1,12c8.5,7.2,12.8,10.8,16.7,12
	c1.1,0.4,13.9,4.4,23.1-2.5c1.5-1.1,4.3-3.2,5.2-6.7c0.3-1.3,1.1-5.6-6-14.7c-7.2-9.3-11.9-10-21-20.5c-3.6-4.1-5.3-6.1-6.6-9.1
	c-2.9-6.6-0.7-9.6-1.4-22.5C341.9,535.7,340.2,537.6,340,527.5z"/>
<path fill="#FFF200" stroke="#000000" stroke-width="3.3285" stroke-miterlimit="10" d="M195,534.4c3-5.5,8.2-15,5.3-17.9
	c-1.4-1.4-3.6,0-10.7,1c-7.7,1.1-15.9,2.2-21.3-2c-3.5-2.7-3.4-5.8-5-5.7c-4.3,0.3-6.2,23.7-6.6,28.5c-1.7,20.3,1,21.6-2.1,28.6
	c-2.2,5.1-4,5.2-21.7,22.7c-12.7,12.6-15.6,16.3-14.9,20.6c1.1,6.2,9.1,9.5,11.1,10.3c9.5,3.9,18.6-0.1,20.2-0.8
	c5.3-2.4,4.7-4.4,15.9-13.8c8.2-6.9,8.9-6.2,10.2-8.8c2.6-5.2,0.4-8.8,0.9-22.5c0.2-4.4,0.3-6.5,0.7-9
	C179.3,553.6,186.3,550.4,195,534.4z"/>
<path fill="#00AEEF" stroke="#000000" stroke-width="3.3285" stroke-miterlimit="10" d="M206.2,495.8c1.4,1.5,27.5-8.9,44.1-7.8
	c25.1,1.7,42.3,14.2,44.6,11.3c2.5-3.1-9.1-10.8-22.2-30.7c-6.1-9.3-18-33.8-20.7-33.9c-2.4-0.1-13.8,18.1-25.4,31.8
	C214.8,480.4,205.2,494.6,206.2,495.8z"/>
<path fill="none" stroke="#A97C50" stroke-width="3.3285" stroke-miterlimit="10" d="M171,145.4c0.6-0.8-1.3-3.6-3.8-4.9
	c-2.9-1.5-6.6-1.1-6.8-0.1C160,142,170,146.8,171,145.4z"/>
<path fill="none" stroke="#A97C50" stroke-width="3.3285" stroke-miterlimit="10" d="M324,149.6c-0.4-0.8,3.2-3.9,7.3-5
	c3.5-1,7.7-0.7,7.9,0.1C339.4,146.3,324.7,151,324,149.6z"/>
<g>
	<path fill="#FFFFFF" stroke="#000000" stroke-width="3.3285" stroke-miterlimit="10" d="M301.6,152.7c-3.2,1.8-6-3.2-14.3-3.3
		c-7.8-0.1-10.9,4.1-13.4,2.2c-3.1-2.4-0.1-10.7,3.4-20.5c2.8-7.8,5.1-11.1,8.4-13.2c1.4-0.9,4-2.6,6.9-2c1.3,0.3,4.5,1.5,7.7,11.1
		C300.8,128.6,307.7,149.2,301.6,152.7z"/>
	<path fill="#2B3990" stroke="#000000" stroke-width="3.3285" stroke-miterlimit="10" d="M297.1,147.1c4.6-5.9,2-13.1,1.6-14.4
		c-0.2-0.5-3.7-9.5-10.1-9.4c-6,0.1-9.2,7.9-9.7,9.1c-2.4,5.8,1.3,17.7,9.1,17.3C293.3,149.4,293.5,151.6,297.1,147.1z"/>
	<path fill="#1C75BC" stroke="#000000" stroke-width="3.3285" stroke-miterlimit="10" d="M287.7,149.3c3.7-0.3,4.9-0.8,5.2-5
		c0.1-1.9-0.9-7-4.5-7c-3.5,0-4.8,1.2-5.1,5.8C283.1,146.4,284.2,149.6,287.7,149.3z"/>
</g>
<path fill="none" stroke="#3C2415" stroke-width="3.3285" stroke-miterlimit="10" d="M242.3,101.7c-5.2-1.8-15.7-0.2-23.7,8.7"/>
<path fill="none" stroke="#3C2415" stroke-width="3.3285" stroke-miterlimit="10" d="M302.1,111.6c0.1-5-10.5-9.2-23.6-9.4"/>
<line fill="none" stroke="#000000" stroke-width="3.3285" stroke-miterlimit="10" x1="229.5" y1="109.4" x2="229.5" y2="109.4"/>
<g>
	<path fill="none" stroke="#A97C50" stroke-width="3.3285" stroke-miterlimit="10" d="M262.2,168.3c-0.6-0.3-4.7-2.5-9-0.8
		c-3.8,1.5-7.3,5.8-6.2,10.1c0.8,3.2,3.8,5.3,6.4,5.9c3.4,0.8,7.1-0.4,9.5-3.2"/>
</g>
<path fill="none" stroke="#BE1E2D" stroke-width="3.3285" stroke-miterlimit="10" d="M305.3,189.6c-1.4-2.3-5.6-4.6-5.6-4.6
	s-3.6,4.7-6.2,7.9c-8.5,10.6-20.6,13.5-24.8,14.3c-6.6,1.2-11.8,0.6-16.7,0c-3.8-0.5-10-0.7-16.7-4.2c-3.6-1.9-7.3-3.9-12.6-7.7
	c-5.8-4.2-6.6-5.7-6.6-5.7c-3.9-3.9-5-4.8-5-4.8s-2.1,2.4-2.8,4"/>
<g>
	<path fill="#FFFFFF" stroke="#000000" stroke-width="3.3285" stroke-miterlimit="10" d="M244.7,151.8c-3.2,1.8-6-3.2-14.3-3.3
		c-7.8-0.1-10.9,4.1-13.4,2.2c-3.1-2.4-0.1-10.7,3.4-20.5c2.8-7.8,5.1-11.1,8.4-13.2c1.4-0.9,4-2.6,6.9-2c1.3,0.3,4.5,1.5,7.7,11.1
		C243.9,127.8,250.8,148.4,244.7,151.8z"/>
	<path fill="#2B3990" stroke="#000000" stroke-width="3.3285" stroke-miterlimit="10" d="M240.2,146.3c4.6-5.9,2-13.1,1.6-14.4
		c-0.2-0.5-3.7-9.5-10.1-9.4c-6,0.1-9.2,7.9-9.7,9.1c-2.4,5.8,1.3,17.7,9.1,17.3C236.4,148.6,236.6,150.8,240.2,146.3z"/>
	<path fill="#1C75BC" stroke="#000000" stroke-width="3.3285" stroke-miterlimit="10" d="M230.9,148.5c3.7-0.3,4.9-0.8,5.2-5
		c0.1-1.9-0.9-7-4.5-7c-3.5,0-4.8,1.2-5.1,5.8C226.2,145.6,227.3,148.7,230.9,148.5z"/>
</g>
<use xlink:href="#Brown_Hair_4"  width="22.7" height="15.4" x="-11.3" y="-7.7" transform="matrix(-2.4007 -3.468423e-02 6.350113e-02 -4.3953 178.373 86.4453)" overflow="visible"/>
<use xlink:href="#Brown_Hair_4"  width="22.7" height="15.4" x="-11.3" y="-7.7" transform="matrix(-2.4007 -3.468423e-02 6.350113e-02 -4.3953 170.0021 71.2655)" overflow="visible"/>
<use xlink:href="#Brown_Hair_4"  width="22.7" height="15.4" x="-11.3" y="-7.7" transform="matrix(8.2673 0.1194 7.374629e-02 -5.1044 301.1923 93.6876)" overflow="visible"/>
<use xlink:href="#Brown_Hair_4"  width="22.7" height="15.4" x="-11.3" y="-7.7" transform="matrix(6.9542 -0.9676 -0.7133 -5.1269 292.4962 67.5362)" overflow="visible"/>
<use xlink:href="#Brown_Hair_4"  width="22.7" height="15.4" x="-11.3" y="-7.7" transform="matrix(5.1941 -1.6241 -0.8437 -2.6983 269.5925 36.4112)" overflow="visible"/>
<use xlink:href="#Brown_Hair_4"  width="22.7" height="15.4" x="-11.3" y="-7.7" transform="matrix(5.4302 -0.3602 -0.1871 -2.8209 393.558 185.3221)" overflow="visible"/>
<g>
	<path fill="#FFF200" stroke="#000000" stroke-width="3.3285" stroke-miterlimit="10" d="M81.4,199c-13.6-8.3-7.3-52.1-29.1-54.9
		c-12.1-1.6-14.3-4.6-14.1-5.2c0.1-0.5,14.2,0.6,14-4c-0.2-4.3-15.2-4.5-15.3-3.9c-0.1,0.6,15.1-0.6,14.9-4.9
		c-0.1-3.7-16.4-1.7-16.5-1.8c0-0.1,16-3.1,15.9-4.9c-0.2-3-16.6-2.7-16.5-2.9c0-0.2,15.7,0.3,16-1.7c0.7-3.8-16.8-7.5-16.2-7.4
		c0.3,0,11.2,4.8,13.6,1.8c2.3-2.8-3.1-10-2.2-14.1c0.5-2.3,5.6-3.6,7.2-1.1c2.1,3.4,3.9,8.4,4,10.8c0.2,5.3,1.5,10.9,17.5,31.7
		c27.8,36.2,40.5,42.8,37.8,51.9C109.5,197.9,90.8,204.8,81.4,199z"/>
	<path fill="none" stroke="#000000" stroke-width="3.3285" stroke-miterlimit="10" d="M34.5,107.6c0,3.3-0.1,3.9,0,6.9
		c0.1,3,0.3,9.2,0.4,11.8c0.2,2.6,0.4,1.5,0.7,3.6c0.7,4.9,1.5,7.9,2.4,7.9"/>
	<g>
		<g>
			<path d="M33.3,110.4c-0.1,2.9-0.3,5.7,3,5.8c2.2,0.1,4.3,0.7,6.5,0.7c2.2,0,4.4-0.5,6.5-1c1.6-0.4,1.6-2.8,0-3.2
				c-2.4-0.7-4.7-1.6-7-2.3c-1.8-0.6-4.1-1.6-6-1.5c-0.8,0.1-1.3,0.5-1.6,1.2c-0.6,1.7-0.5,3.9,1.5,4.4c1.4,0.3,2.8,0.3,4.2,0.8
				c1.5,0.5,2.9,0.8,4.5,0.7c2.1-0.2,2.2-3.3,0-3.3c-0.9,0-1.5,0.3-2.1,0.8c-0.4,0.3-0.6,0.7-1,1c-0.6,0.6,0.3,0.6-0.3,0
				c-1.4-1.4-2.1-3.4-4.1-4c-2.1-0.5-3,2.7-0.9,3.2c1.8,0.5,2.3,3.6,4.3,4.3c0.8,0.3,1.5,0.1,2.3-0.3c0.4-0.2,1.5-1.8,1.9-1.8
				c0-1.1,0-2.2,0-3.3c-1.9,0.2-3.4-0.6-5.2-1.1c-0.6-0.2-1.4-0.4-2.1-0.4c-0.3,0-0.6,0-0.8,0c0.8,0.7,1.2,0.6,1.1-0.2
				c-0.5,0.4-1.1,0.8-1.6,1.2c1.8-0.1,4.4,1.1,6,1.7c2,0.7,4,1.4,6.1,2c0-1.1,0-2.1,0-3.2c-3.4,0.9-6.2,0.9-9.7,0.2
				c-0.9-0.2-1.9-0.4-2.8-0.1c-0.6,0.1-0.6,0.1,0.1,0.2c0.5,0.3,0.7,0.1,0.5-0.4c0.2-0.4,0-1.9,0-2.3
				C36.7,108.3,33.4,108.3,33.3,110.4L33.3,110.4z"/>
		</g>
	</g>
	<g>
		<g>
			<path d="M33.6,117.5c0.1,1.6,0.2,3.1,0.4,4.7c0.1,1.6,2.2,2.4,3.1,0.8c0.7-1.2,4.7-1.2,6-1.5c2-0.4,4-0.9,6-1.5
				c1.2-0.3,1.6-1.9,0.7-2.8c-1.4-1.4-3.2-1.7-5.1-1.7c-1.5,0-3,0-4.5,0.1c-1.2,0-2.8-0.3-3.9,0.2c-2.3,0.8-1.5,4.9-1.3,6.8
				c0.2,1.7,3,2.5,3.3,0.4c0.1-0.5,0.1-1,0.1-1.6c0-0.5,0.4-2.4-0.1-1.3c-0.5,0.3-1,0.5-1.4,0.8c1.8,0,3.5-0.3,5.3-0.3
				c1.8,0.1,3.4,0,5.2-0.4c2.1-0.5,1.2-3.7-0.9-3.2c-1.7,0.4-3.4,0.3-5.2,0.2c-1.5,0-2.9,0.3-4.4,0.3c-0.5,0-1.2,0.3-1.4,0.8
				c-0.5,1.1-0.3,3-0.4,3.7c1.1,0.1,2.2,0.3,3.3,0.4c-0.1-0.6,0.2-4.4-0.2-4.6c-0.3,0.4-0.7,0.7-1,1.1c0.7,0,1.4,0,2.1,0
				c1,0,2.1,0,3.1,0c1.5,0,4-0.5,5.2,0.7c0.2-0.9,0.5-1.9,0.7-2.8c-3.1,0.8-6.1,1.5-9.3,2c-2,0.3-3.7,0.6-4.7,2.5
				c1,0.3,2.1,0.6,3.1,0.8c-0.1-1.6-0.2-3.1-0.4-4.7C36.7,115.4,33.4,115.4,33.6,117.5L33.6,117.5z"/>
		</g>
	</g>
	<g>
		<g>
			<path d="M39.5,118.8c0.7,0,2.1-0.3,2.8,0c0.4,0.2,0.7,0.6,1.1,0.7c0.6,0.2,1.4,0.1,2,0.1c0.8,0,1.8,0.1,2.6-0.2
				c0.4-0.1,0.6-0.4,0.6-0.8c0,0,0-0.1,0-0.1c0-0.3-0.2-0.6-0.4-0.7c0,0-0.1,0-0.1-0.1c-0.9-0.6-1.7,0.9-0.8,1.4c0,0,0.1,0,0.1,0.1
				c-0.1-0.2-0.3-0.5-0.4-0.7c0,0,0,0.1,0,0.1c0.2-0.3,0.4-0.5,0.6-0.8c-0.7,0.2-1.7,0.2-2.4,0.1c-0.5,0.1-1,0-1.5-0.3
				c-0.2-0.1-0.3-0.2-0.5-0.4c-1.1-0.4-2.4-0.2-3.6-0.2C38.4,117.2,38.4,118.8,39.5,118.8L39.5,118.8z"/>
		</g>
	</g>
	<g>
		<g>
			<path d="M35.7,120.9c0.4,0,0.8,0,1.2,0c1.1,0,1.1-1.7,0-1.7c-0.4,0-0.8,0-1.2,0C34.7,119.2,34.7,120.9,35.7,120.9L35.7,120.9z"/>
		</g>
	</g>
	<g>
		<g>
			<path d="M35.3,126.7c5,0,10,0,15,0c-0.1-1.1-0.3-2.2-0.4-3.3c-2.1,0.6-4.3,1.1-6.4,1.7c-2,0.5-4.5,1.6-6.6,1.7
				c0.5,0.3,1,0.5,1.4,0.8c0-1-0.3-1.2-0.9-0.5c-0.9,0.5-0.7,0.7,0.6,0.5c0.7,0.2,1.6,0.1,2.3,0.1c1.1,0,2.3-0.1,3.4-0.2
				c0.7-0.1,2.2,0.1,2.7-0.2c0.8,0.1,0.8-0.2,0-1c-0.2-0.9-0.7-1.2-1.5-0.9c-0.6-0.1-1.3,0.2-1.8,0.3c-0.8,0.2-1.5,0.6-2.2,0.8
				c-0.4,0.1-4,0.7-3.3,1.3c-0.1-0.5-0.3-1.1-0.4-1.6c0.3-0.2,0.5-0.4,0.8-0.6c0.3,1,0.6,2.1,0.8,3.1c0.1-0.1,0.2-0.1,0.3-0.2
				c2.1-0.1,2.1-3.4,0-3.3c-0.9,0-1.3,0.1-2,0.6c-1.4,1-0.8,2.9,0.8,3.1c4.7,0.6,1.3-7.4-2-3.8c-1.1,1.2-0.6,3.6,0.6,4.6
				c2.4,1.9,5.5-0.5,7.9-1c1.8-0.4,5.5,0.1,5.7-2.7c0.2-2.5-2.6-2.3-4.2-2.2c-2.1,0.1-4.1,0.4-6.2,0.4c-1.2,0-3-0.5-4.1,0.1
				c-1.8,0.9-1,3.5-0.2,4.8c0.3,0.5,0.9,0.8,1.4,0.8c2.1-0.1,4.4-1,6.4-1.5c2.5-0.7,5-1.3,7.5-2c1.8-0.5,1.4-3.3-0.4-3.3
				c-5,0-10,0-15,0C33.2,123.4,33.2,126.7,35.3,126.7L35.3,126.7z"/>
		</g>
	</g>
	<g>
		<g>
			<path d="M36.3,133.2c2.1-0.1,4.2-0.2,6.3-0.1c1.2,0.1,2.4,0.3,3.6,0.5c0.7,0.1,1.3,0.3,2,0.5c-0.2-0.4-0.5-0.5-0.8-0.1
				c-1.7,1-3.5,1.7-5.4,2.1c-0.4,0.1-2.5,0.5-2.6,0.4c-0.1,0.6-0.2,0.2-0.3-1.2c-0.1-0.7-0.1-1.3,0.1-1.9c-0.4,0.4-0.8,0.8-1.2,1.2
				c-1.3,0.3-0.7-0.5-0.4,0.6c0.1,0.5,0.5,1,0.7,1.5c0.4,0.8,0.7,1.7,1.4,2.3c1.4,1.2,2.9,0.4,4-0.8c0.7-0.8,1.2-1.7,1.8-2.5
				c0.3-0.4,0.9-1,1-1.3c0.1-0.1,0.2-0.2,0.3-0.3c-0.9-0.1-1.7,0-2.6,0.3c-1,0.2-2.2,0.4-3.2,0.8c-0.4,0.1-0.7,0.2-1.1,0.3
				c-0.1,0.5-0.1,0.5,0,0c-0.1-0.7,1-2,1.2-2.7c-0.4,0.4-0.8,0.8-1.2,1.2c-0.9,0.2-1.3-0.2-0.2,0.2c0.7,0.2,1.4,0.4,2.1,0.5
				c0.8,0.1,1.6-0.1,2.5-0.1c0.3,0,0.5,0,0.8-0.1c1.4,0.4,1.7,0.3,1-0.2c0.4-0.4,0.8-0.8,1.2-1.2c-1.4,0.5-2.9,0.6-4.3,1.1
				c-1.5,0.5-2.8,1.1-4.2,1.8c0.7,0.1,1.3,0.2,2,0.3c0.6,0.8,3.5-0.5,4.4-0.7c2.1-0.4,1.2-3.6-0.9-3.2c-2.8,0.6-8.9,2.3-5.8,6.2
				c0.5,0.6,1.4,0.6,2,0.3c2.4-1.2,4.8-1.5,7.3-2.4c1.1-0.4,1.8-1.1,1.8-2.4c0-4.3-5.8-2.4-8.2-3c-1.1-0.2-2.1-1-3.1,0
				c-0.7,0.6-1.1,2.1-1.4,2.9c-1,2.5,0.3,5,3.2,4.7c2.7-0.2,9-1.3,9.1-5c0.1-2.6-2.7-3.8-4.6-2.3c-0.9,0.7-1.5,1.7-2.1,2.6
				c-0.3,0.5-1.2,1.4-1.3,1.9c-0.5,0.4-0.4,0.6,0.5,0.5c-0.2-0.3-0.3-0.6-0.4-0.9c-0.4-2-2-4.6-4.2-4.1c-0.6,0.1-1,0.6-1.2,1.2
				c-0.7,2.3-0.5,6.8,2.6,7.2c3.6,0.5,7.9-1.1,10.9-3.1c1.9-1.2,3.7-3.8,0.9-5.3c-3.9-2.1-9.9-1.7-14.1-1.5
				C34.2,129.9,34.2,133.3,36.3,133.2L36.3,133.2z"/>
		</g>
	</g>
</g>
<path fill="none" stroke="#000000" stroke-width="3.3285" stroke-miterlimit="10" d="M405.5,190.7"/>
<path fill="none" stroke="#000000" stroke-width="3.3285" stroke-miterlimit="10" d="M109.3,188.5"/>
<path fill="none" stroke="#000000" stroke-width="3.3285" stroke-miterlimit="10" d="M387.3,214.5"/>
<path fill="none" stroke="#000000" stroke-width="3.3285" stroke-miterlimit="10" d="M125.4,214.5"/>
<g>
	<path fill="#FFF200" stroke="#000000" stroke-width="3.3285" stroke-miterlimit="10" d="M425.3,211.4c13.2-8.7,5.4-52.4,27.1-55.9
		c12.1-2,14.1-5.1,14-5.7c-0.1-0.5-14.2,1.1-14.1-3.5c0.1-4.3,15-5,15.1-4.4c0.1,0.6-15.1-0.1-15.1-4.3c0-3.7,16.4-2.3,16.4-2.4
		c0-0.1-16.1-2.5-16-4.3c0.1-3,16.5-3.3,16.4-3.5c0-0.2-15.6,0.9-16.1-1.2c-0.8-3.8,16.5-8.1,16-8c-0.3,0-11,5.2-13.6,2.3
		c-2.4-2.7,2.7-10.1,1.7-14.2c-0.6-2.3-5.7-3.4-7.2-0.9c-2,3.4-3.6,8.5-3.6,10.9c0,5.3-1.1,10.9-16.3,32.3
		c-26.4,37.2-38.9,44.3-35.9,53.2C397.2,211.4,416.1,217.5,425.3,211.4z"/>
	<path fill="none" stroke="#000000" stroke-width="3.3285" stroke-miterlimit="10" d="M468.8,118.3c0.1,3.3,0.2,3.9,0.2,6.9
		c0,3,0.1,9.2,0,11.8c-0.1,2.6-0.4,1.5-0.6,3.6c-0.5,5-1.2,8-2.2,8"/>
	<g>
		<g>
			<path d="M466.8,121.2c0,0.6-0.1,1.3,0.1,1.8c-0.3,0.8-0.1,1.1,0.5,0.8c0.7,0,0.8-0.1,0.1-0.2c-1.1-0.3-2.2,0-3.2,0.3
				c-3.2,0.8-6,0.8-9.2,0c0,1.1,0,2.1,0,3.2c2-0.7,4-1.5,6-2.2c1.6-0.6,4.2-2,6-1.9c-0.5-0.4-1.1-0.8-1.6-1.2
				c0.2,0.5,0.3,1.2,0.2,1.7c0.3-0.5,0.5-1,0.8-1.4c-0.2,0.1-2.4,0.3-3.1,0.5c-1.6,0.5-3,1.2-4.7,1.2c0,1.1,0,2.2,0,3.3
				c0.3,0,1.3,1.4,1.9,1.7c0.7,0.4,1.5,0.5,2.3,0.2c2-0.7,2.4-3.9,4.2-4.5c2-0.6,1.2-3.8-0.9-3.2c-1.6,0.5-3.3,2.4-3.9,3.9
				c-0.1,0.2-0.3,0.4-0.4,0.5c0.6,0.2,0.7,0.2,0.3-0.1c-0.4-0.3-0.7-0.7-1-1c-0.7-0.6-1.4-1-2.4-0.9c-2.1,0.1-2.1,3.2,0,3.3
				c1.6,0.1,3-0.3,4.4-0.8c1.4-0.5,2.8-0.5,4.2-0.9c2-0.6,2.1-2.6,1.4-4.4c-0.3-0.7-0.8-1.2-1.6-1.2c-1.9-0.1-4.2,1-6,1.7
				c-2.3,0.9-4.6,1.8-6.9,2.6c-1.5,0.5-1.7,2.8,0,3.2c1.9,0.4,3.9,0.8,5.9,0.8c2.4,0,4.6-1,6.9-1c3.5,0,3.2-2.7,3-5.8
				C470,119.1,466.6,119,466.8,121.2L466.8,121.2z"/>
		</g>
	</g>
	<g>
		<g>
			<path d="M466.8,128.3c-0.1,1.6-0.1,3.1-0.2,4.7c1-0.3,2.1-0.6,3.1-0.8c-1.1-1.8-2.8-2.2-4.8-2.4c-3.2-0.3-6.2-0.9-9.3-1.6
				c0.2,0.9,0.5,1.9,0.7,2.8c1.2-1.3,3.5-0.9,5.1-0.9c1.1,0,4.5-0.5,5-0.1c-0.3-0.5-0.5-1-0.8-1.4c0,1.6,0.1,3.3-0.1,4.9
				c1.1-0.1,2.2-0.3,3.3-0.4c-0.1-0.6,0-2.6-0.5-3.7c-0.2-0.5-0.9-0.8-1.4-0.8c-1.5,0-2.9-0.2-4.4-0.2c-1.7,0.1-3.4,0.3-5.2,0
				c-2.1-0.4-3,2.8-0.9,3.2c1.7,0.3,3.4,0.3,5.2,0.2c1.8-0.1,3.5,0.1,5.3,0.1c-0.5-0.3-1-0.5-1.4-0.8c0,0.1,0,2.1,0.1,2.9
				c0.4,2,3.1,1.3,3.3-0.4c0.2-1.9,0.8-5.9-1.4-6.8c-1-0.4-2.4-0.1-3.4,0c-1.5,0-3.1,0-4.6,0.1c-2,0.1-4,0.3-5.4,1.9
				c-0.8,0.9-0.5,2.5,0.7,2.8c2,0.5,4,0.9,6.1,1.2c1.3,0.2,5.3,0.1,6.1,1.2c0.9,1.4,3,0.8,3.1-0.8c0.1-1.6,0.1-3.1,0.2-4.7
				C470.2,126.2,466.9,126.2,466.8,128.3L466.8,128.3z"/>
		</g>
	</g>
	<g>
		<g>
			<path d="M464.2,128.1c-1.2,0-2.5-0.1-3.6,0.3c-0.2,0.1-0.3,0.2-0.4,0.4c-0.5,0.3-1,0.4-1.5,0.3c-0.7,0.1-1.8,0.1-2.4,0
				c0.2,0.2,0.4,0.4,0.6,0.6c0,0,0-0.1,0-0.1c-0.1,0.3-0.3,0.6-0.4,0.9c0,0,0.1,0,0.1-0.1c0.9-0.6,0-2-0.8-1.4c0,0-0.1,0-0.1,0.1
				c-0.3,0.2-0.4,0.5-0.4,0.9c0,0,0,0.1,0,0.1c0,0.3,0.3,0.5,0.6,0.6c1.2,0.3,3.2,0.3,4.4,0c0.5-0.1,0.8-0.6,1.2-0.7
				c0.8-0.3,2-0.1,2.9-0.1C465.3,129.7,465.3,128,464.2,128.1L464.2,128.1z"/>
		</g>
	</g>
	<g>
		<g>
			<path d="M468,130c-0.4,0-0.8,0-1.2,0c-1.1,0-1.1,1.7,0,1.7c0.4,0,0.8,0,1.2,0C469.1,131.6,469.1,129.9,468,130L468,130z"/>
		</g>
	</g>
	<g>
		<g>
			<path d="M468.6,134.1c-5,0.2-10,0.4-15,0.5c-1.8,0.1-2.3,2.8-0.4,3.3c2.5,0.6,5.1,1.1,7.6,1.7c2.1,0.5,4.3,1.3,6.5,1.3
				c0.6,0,1.2-0.3,1.4-0.8c0.8-1.4,1.4-3.9-0.3-4.8c-1.1-0.6-2.9-0.1-4.1,0c-2.1,0.1-4.1-0.1-6.2-0.1c-1.6,0-4.4-0.2-4.2,2.3
				c0.3,2.9,4.2,2.3,6,2.6c2.4,0.4,5.5,2.5,7.7,0.6c1.3-1,1.7-3.6,0.4-4.8c-3.4-3-6.6,4.8-1.4,4c1.5-0.3,1.5-2.3,0.4-3
				c-0.7-0.5-1.1-0.6-2-0.6c-2.1,0-2.1,3.3,0,3.3c0.1,0,0.2,0.1,0.3,0.1c0.1-1,0.3-2,0.4-3c0.4,0.2,0.8,0.4,1.2,0.6
				c-0.1,0.5-0.3,1.1-0.4,1.6c-0.2,0.2-4.6-1.8-5.5-2c-0.6-0.1-1.3-0.3-1.8-0.3c-0.3,0-0.6,0-0.9,0c-1.7,1.4-1.9,2-0.7,1.9
				c1.1,0.6,3.8,0.2,5,0.2c1,0,4.2-0.4,4.4-0.3c-0.3-0.5-0.5-1-0.8-1.4c0,0.5-0.1,1-0.3,1.5c0.5-0.3,1-0.5,1.4-0.8
				c-2.2,0-4.6-1-6.7-1.4c-2.2-0.5-4.3-1-6.5-1.4c-0.1,1.1-0.3,2.2-0.4,3.3c5-0.2,10-0.4,15-0.5C470.7,137.4,470.8,134,468.6,134.1
				L468.6,134.1z"/>
		</g>
	</g>
	<g>
		<g>
			<path d="M467.9,140.6c-4.3-0.1-10.2-0.2-14.1,2c-2.7,1.5-0.9,4.1,1,5.3c3.1,1.8,7.4,3.3,11,2.7c3.1-0.5,3.2-4.8,2.4-7.2
				c-0.2-0.5-0.6-1.1-1.2-1.2c-2.5-0.4-3.5,2.1-4.1,4.1c-0.1,0.3-0.3,0.7-0.4,1c0.9,0.1,1.1-0.1,0.5-0.5c-0.1-0.5-1-1.4-1.4-1.8
				c-0.6-0.9-1.3-1.9-2.2-2.5c-1.9-1.4-4.6-0.1-4.5,2.4c0.2,3.7,6,4.1,8.6,4.6c2.8,0.5,5-1.4,3.9-4.3c-0.3-0.8-0.8-2.2-1.4-2.9
				c-0.9-1-1.4-0.7-2.5-0.5c-2,0.4-3.8,0.2-5.8,0.5c-1.5,0.3-2.8,0.9-3,2.6c-0.1,1.2,0.3,2.1,1.4,2.6c1,0.5,2.3,0.4,3.4,0.7
				c1.5,0.4,3,0.9,4.4,1.6c0.9,0.4,1.7,0.2,2.3-0.6c2.7-3.8-3.9-5.3-6.2-5.7c-2.1-0.3-3,2.9-0.9,3.2c0.5,0.1,3.9,1.3,4.2,0.8
				c0.8-0.2,1.5-0.4,2.3-0.6c-1.4-0.6-2.8-1.2-4.3-1.7c-1.4-0.4-3-0.4-4.4-0.9c0.4,0.4,0.8,0.8,1.2,1.2c-0.6,0.3-0.5,0.4,0.3,0.2
				c0.5-0.1,1-0.1,1.5-0.1c0.8,0,1.6,0.1,2.5,0c0.7-0.1,1.4-0.2,2.1-0.5c0.9-0.4,1.1,0-0.2-0.3c-0.4-0.4-0.8-0.8-1.2-1.2
				c0.3,0.8,0.9,1.5,1.2,2.3c0.3,0.8,0.3,0.5-0.6,0.2c-0.8-0.3-1.7-0.4-2.6-0.5c-0.3-0.1-3.5-0.7-3.5-0.4c0,0.1,0.8,0.9,1,1.1
				c0.7,0.9,1.3,1.9,2.1,2.8c1.1,1.2,2.6,2.2,4,1c0.7-0.5,1-1.4,1.3-2.2c0.2-0.5,0.4-1,0.6-1.5c0.1-0.3,0.2-0.5,0.3-0.8
				c0.4-0.6,0.2-0.6-0.7-0.2c-0.4-0.4-0.8-0.8-1.2-1.2c0.2,0.7,0.3,2.9,0,3.2c-0.1,0.1-2-0.2-2.4-0.3c-2.3-0.3-4-1.4-6.1-2.1
				c-0.8-0.7-1-0.7-0.6-0.1c0.1,0.6,0.5,0.7,1.2,0.1c1,0,2-0.5,2.9-0.7c2.6-0.5,5.3-0.4,7.9-0.4C470,144,470,140.7,467.9,140.6
				L467.9,140.6z"/>
		</g>
	</g>
</g>
<path fill="#FFF200" stroke="#000000" stroke-width="3.3285" stroke-miterlimit="10" d="M269.1,237.8c-0.2-0.2-0.1,0.9-2.8-0.5
	c-2.3-1.2-2-1-2-1s0,3.5-1,6.3c-1.5,3.9-6.9,5.5-8.8,5.7c-2,0.2-9.8,0.3-12.2-3.3c-1.9-2.8-1.7-9.1-1.7-9.1l-7-0.1
	c0,0,1.4,9.8,4.3,13.2c3.6,4.2,7.9,4.8,10.9,5.2c2.9,0.4,9.5,1.2,14.8-3C268.5,247.5,270.8,239.8,269.1,237.8z"/>
</svg>
