<?xml version="1.0" encoding="utf-8"?>
<!-- Generator: Adobe Illustrator 18.1.0, SVG Export Plug-In . SVG Version: 6.00 Build 0)  -->
<!DOCTYPE svg PUBLIC "-//W3C//DTD SVG 1.1//EN" "http://www.w3.org/Graphics/SVG/1.1/DTD/svg11.dtd">
<svg version="1.1" id="Layer_1" xmlns="http://www.w3.org/2000/svg" xmlns:xlink="http://www.w3.org/1999/xlink" x="0px" y="0px"
	 viewBox="0 0 600 600" enable-background="new 0 0 600 600" xml:space="preserve">
<symbol  id="Brown_Hair_4" viewBox="-11.3 -7.7 22.6 15.3">
	<path fill="#7E5629" d="M-11.3,6.9c0,0,5.6,2.6,10.6-1.9c5-4.6,5.8-10.2,12-12.7C4.7-6.6,2.2,0.8-1,3.9C-6.1,8.8-10.8,6.9-11.3,6.9
		z"/>
</symbol>
<g>
	<path fill="#FFFFFF" stroke="#000000" stroke-width="2.957" stroke-miterlimit="10" d="M538.2,600H61.9c-6.6,0-12-5.4-12-12V12
		c0-6.6,5.4-12,12-12h476.4c6.6,0,12,5.4,12,12v576C550.3,594.6,544.9,600,538.2,600z"/>
	<g>
		<path fill="#3C2415" stroke="#3C2415" stroke-width="2.957" stroke-miterlimit="10" d="M110.5,199.5c0-2.7,24.5-2.1,39.7-19.3
			c5.7-6.4,7.9-12.9,18.3-21.4c4.7-3.8,9.7-6.9,9.2-8.1c-1-2.1-16.6,5.6-19.3,2c-2.7-3.6,10.1-15.1,23.4-33.6
			c18.9-26.3,13.1-31.1,27.5-46.8c16.7-18.3,37.1-25.7,47.8-29.5c0,0,24.5-10,42.7-8.1c4.6,0.5,8.9,1.5,8.9,1.5s3,0.7,6,1.7
			c9.8,3.2,33.3,24.5,34.9,23.3c0.9-0.7-9.9-12.6-19-20S309.5,31,310,30c2.9-6.1,48.1,19,51.1,21.4c3.2,2.6-10-25.3-9.3-25
			c1.2,0.7,17.1,21.4,24.3,34.1c6.8,12.1,6.4,11.1,14.1,22.9c7.1,10.7,7.4,25.4,8.4,34.5c0.8,8,0.6,15.3,0.3,19
			c-0.4,5.5-1.1,9.6-1.4,11.4c-0.7,3.8-2,10.8-5.5,18.7c-2,4.7-4.4,8.8-5.6,10.9c0,0-0.7,1.1-1.4,2.2c-8,12.4-17.4,20.5-17.4,20.5
			c-3.7,3.1-13.5,13.2-27.2,16.8c-9.4,2.5-28.5,6-29,6.2c0,0,0.6-11,0.4-6c0,0.1,47.9-6.5,54.3-29.6c2.7-10-3.3-26.6,2.9-26.5
			c3.7,0.1,5.7,3.1,11.3,0.6c9-4.1,15.7-18.9,10.3-23.9c-3.1-2.9-9.9-1.8-14.2,1c-6.7,4.3-7.3,12.5-9.2,12.2
			c-2.3-0.4,1.9-13.5-5.1-24.4c-2.7-4.3-4.7-4.3-10.2-12.2c-3.3-4.8-5.1-7.3-6.1-11.2c-2.1-7.9,1.3-12.2-1-14.2
			c-3-2.6-9.7,3.9-20.3,7.1c-15.1,4.6-17.8-3.4-34.6,0c-11.8,2.4-9.2,6.1-31.5,14.2c-4,1.5-8.4,2.9-12.2,7.1
			c-6,6.6-6.1,15.3-6.1,16.3c0,8,4,13.7,3.1,14.2c-1.2,0.6-5.1-9.7-13.2-11.2c-3.9-0.7-8.8,0.6-11.2,4.1c-3,4.3-0.8,10,0,12.2
			c3.3,8.8,9.4,8,13.2,16.3c2.7,6,0,7.3,3.1,16.3c2.2,6.4,5.3,10.8,7.1,13.2c2.6,3.6,6.1,8.4,12.2,12.2c4.5,2.8,9.4,3.9,19.3,6.1
			c0,0,4.5-0.7,18,1.7c-0.5-3.4,0.7,8.4-0.8,11.5c-2.2,4.5-13.9,1.1-26.4,1c-8.1-0.1-5.6,1.3-45.8,11.2c0,0-16.3,4-31.9,5h-0.1
			c-14.3,0.9-21.5,1.4-21.9,0c-0.7-2.3,19.7-14.1,18.3-11.2c-0.3,0.6-65.8-0.7-70.3-5.1c-5.4-5.4,42.8-28.6,35.6-28.5
			C145.6,203.6,110.5,208.8,110.5,199.5z"/>
		<path fill="#C49A6C" stroke="#C49A6C" stroke-width="2.957" stroke-miterlimit="10" d="M309.4,239.4c0,0,0.8-14.8,1.8-23.5
			c0,0,7.6,3.8,27.3-3.7c2.3-0.9,10.4-2.5,19.7-12.1c4.3-4.4,5.1-10.3,6-14.4c1.8-8.3-0.6-9-0.8-19.2c0,0-2-0.6,3.1-5
			c0.7-0.6,4.1-0.5,4.9-0.1c1.8,0.9,5.1,2,8.6,0.9c5.3-1.6,7.2-6.9,8.3-10c0.9-2.3,3.4-9.2,0-12.5c-2.5-2.4-7.1-1.9-10-0.8
			c-9,3.3-10.4,14.6-13.3,14.2c-2.4-0.4,2.9-5.9-0.2-19.1c-0.9-3.7-1.4-5.3-6.9-11.5c-4-4.5-7.8-10.4-11-15.2
			c-2.6-3.9-1.3-16.8-4.3-17.5c-5.9-1.3-7.5,5.3-19.2,9.2c-14.7,4.9-18.3-3.5-35,0c-8.5,1.8-5.2,3.5-31.7,15
			c-6.4,2.8-8.7,3.8-10.8,6.7c-7.8,10.5-0.7,26.5-1.8,28c-0.8,1.2-6-8.7-15.7-8.9c-3.3-0.1-8.3,1.1-10,4.2
			c-4.3,7.6,6.1,13.6,13.2,25.9c5.5,9.4,6,21.7,10.2,29.5c3.4,6.3,7.8,11.3,18.9,15.2c13.3,4.6,25.6,5.6,31,2.7l0,0
			c4.9,8.2,0.8,16.5,0.8,16.5c0,1-0.1,2.6-0.1,4.6c1.2,1,3.3,2.3,6.3,3.1c0.8,0.2,1.8,0.4,3,0.4C306.2,242,309.4,239.4,309.4,239.4z
			"/>
		<path fill="#EC008C" stroke="#000000" stroke-width="2.957" stroke-miterlimit="10" d="M284.4,234.9c-3.4-2.7-8.3-1.6-15.9,0
			c-3.6,0.8-8.5,1.8-14.4,5c-8.9,4.7-13.2,10-21.3,16.4c-11.4,8.9-20,19.2-31.3,27.8c-0.2,0.1-9.5,5-19.9,13.4
			c-2.9,2.4-6,5.1-6.9,9.4c-1.1,4.8,0.6,10.7,3.5,11.4c1.9,0.5,2.8-1.6,8.4-5c3.8-2.3,7-4.1,10.9-4c4,0.2,4.4,2.3,7.4,2.5
			c5.7,0.3,12.7-9.7,17-12.6c3.9-2.7,9.5-3.8,15.7-9.7c3.1-3,4.1-5.2,6-5c3,0.4,2.2,6.7,7.4,14.9c3.3,5.3,3.8,5.9,5.4,10.5
			c1.4,4,2.2,16.3,0,24.3c0,0-1.7,0.7-2.2,8.4l-1.3,5c0.7,1.8,6.7-0.3,15.9,0c9.3,0.3,10.4,2.1,14.9,1c5-1.3,5.4-3.4,11.3-5.6
			c4.9-1.8,11.1-1.5,12.8-1.1c5,1.3,5.7,2.8,11.4,4.7c1.7,0.5,0.7-0.1,5.3,0.5c7.6,1.1,12.3,1.1,16.9,0.5c4.1-0.6,4.7-1.2,5-1.5
			c2.2-2.7-1.9-7.1-4-15.9c-0.6-2.8-2.3-10.3,0-18.4c1.5-5,2.9-4.6,6.5-12.4c4.7-10.2,3.6-13.6,6.5-14.9c3.4-1.5,9.6,3.3,21.8,12.9
			c9.9,7.7,12.5,10.9,18.4,11.4c3.4,0.3,5.6-0.4,9.9,1c2.1,0.7,6.4,2.1,9.4,6c2.2,2.8,2.2,4.9,3.5,5c1.9,0.1,3.9-4.7,4.5-8.4
			c0.2-1.1,0.6-4.3-0.5-7.9c-1.8-5.8-6.6-8.9-10.9-11.9c0,0-1.6-1.1-22.3-16.4c-8.7-6.4-7.2-6-17.9-13.9
			c-11.1-8.3-12.1-8.3-16.4-12.4c-6.4-6.2-6.7-8.6-11.9-11.4c-3.1-1.7-6.9-2.4-14.4-4c-9-1.8-10.5-1.2-11.4-0.5
			c-3.2,2.4-0.6,6.7-4,10.9s-9.6,4.4-11.9,4.5c-2.4,0.1-7.3,0.2-10.9-3C286,242.5,288.3,238,284.4,234.9z"/>
		<polygon fill="#FFF200" stroke="#000000" stroke-width="2.957" stroke-miterlimit="10" points="285.4,264.7 266.6,284.1 
			285.4,311.5 323.7,311.5 342.6,284.6 323.2,264.7 		"/>
		<polygon fill="#FFFFFF" stroke="#000000" stroke-width="2.957" stroke-miterlimit="10" points="280.5,284.1 292.4,301.6 
			315.1,301.6 328.7,284.1 322.3,275.7 287.9,275.7 		"/>
		<path fill="#FFF200" stroke="#000000" stroke-width="2.957" stroke-miterlimit="10" d="M179.6,320.9c-0.8,3.3,1.7,6.7,8.9,13.9
			c15.7,15.7,17.8,13.6,24.3,21.8c6.3,8.1,7.5,14.1,16.4,20.4c3.8,2.7,6.5,3.7,8.9,3c4.8-1.4,6.5-8.6,7.4-12.9
			c1.1-4.9,2.5-10.9-1-15.4c-2.6-3.4-6.9-4.3-9.9-5c-6.7-1.4-8.4,1-11.9,0c-10.2-3-5.6-28.9-17.9-34.7c-5-2.4-11.8-1.4-14.6-0.6
			C187.6,312.1,180.9,316.2,179.6,320.9z"/>
		<path fill="#FFF200" stroke="#000000" stroke-width="2.957" stroke-miterlimit="10" d="M396.3,310.5c-11.2,4.3-6.7,28.8-18.9,34.8
			c-6.2,3-10.6-1.5-17.4,3c-6.7,4.4-7.8,12.5-7.9,13.4c-0.9,7.3,2.3,16.6,8.4,18.4c3.8,1.1,7.6-1.2,10.4-3
			c7.8-4.9,8.6-9.9,14.9-17.9c2.8-3.5,2.1-1.9,23.3-21.3c6.7-6.2,9.7-9,9.4-12.9c-0.4-5.6-6-11.8-8-12.8
			C408.4,311,401.6,308.4,396.3,310.5z"/>
		<path fill="#FFF200" stroke="#000000" stroke-width="2.957" stroke-miterlimit="10" d="M251.2,349.7c-1,3.6-2,7.3-3,10.9h32.3
			l3.5-11.9L251.2,349.7z"/>
		<polygon fill="#FFF200" stroke="#000000" stroke-width="2.957" stroke-miterlimit="10" points="320.3,349.4 320.3,362.6 
			349.6,360.6 346.1,348.7 		"/>
		<path fill="#ED1C24" stroke="#000000" stroke-width="2.957" stroke-miterlimit="10" d="M284.9,350.7c-0.4,0.8-3.8,7-1,12.9
			c3.6,7.7,14.3,7.9,16.4,7.9c2.4,0,14-0.1,18.4-8.9c0.2-0.3,3.4-7.2,0-13.4c-4.8-8.7-17.9-7.1-19.4-6.9
			C297,342.6,288.9,343.7,284.9,350.7z"/>
		<path fill="#FFFFFF" stroke="#000000" stroke-width="2.957" stroke-miterlimit="10" d="M292.9,352.7c-1.9,2.8-1.5,6.9,0.5,9.4
			c3.3,4.1,10.3,3.2,13.9,0c2-1.8,4.3-5.4,3-8.4c-1.3-3-5.2-3.7-6.9-4C301.9,349.5,295.7,348.5,292.9,352.7z"/>
		<path fill="#EC008C" stroke="#000000" stroke-width="2.957" stroke-miterlimit="10" d="M248.2,362.6c0,0-3,8.4-5.7,17.9
			c-0.5,1.6-2.3,8.7-3.5,12.9c-7.3,25.5-5.5,51.2-8.2,53.7c-3.7,3.4-4.2,6-5.2,10.8c-1.2,5.9-1.3,9.1-1.5,14.4
			c-0.1,2.7-1.4,4.7-1,6.4c0.5,2.5,4.6,3.7,7.4,4.5c1.6,0.4,8.3,1.4,13.5,1.1c5.7-0.3,12.4-3,12.4-3v-2c0,0,0.6-6.7,1.8-10
			c3.5-9.9,8.1-16.5,14.5-23.9c19.9-23,21.2-35.2,25.6-36.8c0,0,8.2,12.2,30.5,39.3c6.8,8.2,12.2,13.7,12.4,22.3
			c0.1,5-1.5,9.9,1.5,12.9c0.7,0.7,1.9,1.6,9.4,2c13.6,0.8,17.6-1.7,18.9-2.5c1.3-0.9,3.8-2.6,4-5c0.1-2.3,0.5-4.1,0-6.9
			c-1.1-6.8-0.7-8.7-4.2-14.8c-1.6-2.7-2.7-6.3-4.2-9.5c-3.2-6.9,0.3-26.3-3.8-44.8c-2.2-10.2-0.4-18.4-3.7-21.6
			c-5.7-5.6-9.7-17.7-9.7-17.7s-26.5-1.1-29.2,0.8c-7.3,5.2-6.3,8.1-19.9,8.1c-11.8,0-16.4-7.9-19.6-8.9
			C270.2,359.7,248.2,362.6,248.2,362.6z"/>
		<path fill="#FFF200" stroke="#000000" stroke-width="2.957" stroke-miterlimit="10" d="M219.4,489.8c0.1-4.7-0.2-8.8,2-9.9
			c1.2-0.6,2.4,0,5.5,1c3.6,1.1,7.3,2.4,10.9,2.5c6,0.2,17-1.1,17.9,0c3.3,3.8-3.6,14.9-8.4,22.8c-7.1,11.6-9.4,11.6-10.4,17.4
			c-1,5.2,0.6,6.2,0,17.9c-0.5,8.4-1.5,10.8-2,11.9c-0.9,2-2.4,4.3-9.9,10.4c-7.6,6.2-11.5,9.3-14.9,10.4c-1,0.3-12.3,3.7-20.4-2.5
			c-1.3-1-3.7-2.9-4.5-6c-0.3-1.2-0.9-4.9,5.5-12.9c6.5-8.1,10.6-8.7,18.9-17.9c3.2-3.6,4.8-5.4,6-7.9c2.6-5.8,0.7-8.5,1.5-19.9
			C217.6,497,219.1,498.7,219.4,489.8z"/>
		<path fill="#FFF200" stroke="#000000" stroke-width="2.957" stroke-miterlimit="10" d="M347.6,497.8c-2.6-4.9-7-13.4-4.5-15.9
			c1.3-1.2,3.2,0,9.4,1c6.7,1.1,14,2.2,18.9-1.5c3.1-2.4,3.1-5.1,4.5-5c3.8,0.3,5.2,21,5.5,25.3c1.2,18-1.1,19.1,1.5,25.3
			c1.9,4.5,3.4,4.7,18.9,20.4c11.1,11.3,13.6,14.6,12.9,18.4c-1,5.4-8.2,8.2-9.9,8.9c-8.5,3.3-16.5-0.3-17.9-1
			c-4.7-2.2-4.1-3.9-13.9-12.4c-7.2-6.2-7.8-5.6-8.9-7.9c-2.2-4.6-0.2-7.8-0.5-19.9c-0.1-3.9-0.1-5.8-0.5-7.9
			C361.2,514.9,355,512,347.6,497.8z"/>
		<path fill="#27AAE1" stroke="#000000" stroke-width="2.957" stroke-miterlimit="10" d="M348.2,241.4c0,0,25.9,5.2,45.5,19.4
			c6.4,4.6,20.3,14.9,32.3,32.8c11.3,16.9,9.7,23.9,23.8,42.2c10.9,14.1,18.1,18,20.8,19.4c11.1,5.5,23.2,6.1,29.3,6
			c12.8-0.2,17.2-3.8,19.9-1c4.6,5-2.6,23.1-14.9,34.3c-6.2,5.7-15.2,10.1-33.3,18.9c-9.5,4.6-8.6,3.8-11.4,5.5
			c-16.7,10.2-14.7,21.1-27.3,29.8c-10.9,7.5-12.3,9.1-34.7,8.9c-13.1-0.1-21.7,8-24.5,5.2c-2.3-2.3,0.8,3.3-2-4.1
			c-1.9-5.2-3.8-8.4-6.1-13.5c-2.1-4.5,3.6-20.9-1.7-42.7c-2.4-9.7-2.9-20.7-2.9-20.7s5.3-1.6,10.9-4.1c7.4-3.5,9.4-10,13.9-17.4
			c11.5-18.7,22.7-15.3,33.3-34.3c3.6-6.5,6.7-12.1,5.5-18.9c-1.1-6.1-5.2-10-21.8-22.8c-11.4-8.8-16.4-13.6-23.8-17.9
			C363.7,257.5,347.1,242.7,348.2,241.4z"/>
		<g>
			<path fill="#27AAE1" stroke="#000000" stroke-width="2.957" stroke-miterlimit="10" d="M354.5,285.6c5.3-3.7,9.3,2.2,22.8,11.9
				c10,7.2,17.6,9.1,17.4,12.4c-0.1,2.3-2.6,1.6-4.3,6.2c-3.3,9.1-3,21.2-11,27.8c-5.5,4.5-13.1-1.1-20.4,4.2
				c-6.5,4.8-7.3,12.8-9.4,12.4c-1.9-0.3-2.1-6.6-2.5-11.9c-0.6-8-3.6-13.6-4.5-18.4c-1.4-8.1-0.9-14.6-0.3-17.3
				c0.5-2.3,4.2-6.6,6.7-13.5C351.2,293.7,352.3,287.1,354.5,285.6z"/>
		</g>
		<path fill="#27AAE1" stroke="#000000" stroke-width="2.957" stroke-miterlimit="10" d="M338.1,463.5c-1.2,1.3-24.2-8.2-38.9-7.4
			c-22.2,1.2-37.6,12-39.5,9.4c-2.2-2.8,8.2-9.5,20-26.9c5.5-8.1,16.3-29.7,18.7-29.7c2.2,0,12,16.2,22.1,28.5
			C330.7,449.8,339.1,462.5,338.1,463.5z"/>
		<path fill="#27AAE1" stroke="#000000" stroke-width="2.957" stroke-miterlimit="10" d="M224.4,454.6c-5.7,6.2-13-8.3-27.3-13.4
			c-14.3-5.1-17.6,2.7-29.8-1.5c-17.4-6-12.9-22.8-33.3-34.7c-3.5-2-13.9-5.3-34.7-11.9c-17.3-5.5-19.8-5.7-20.8-8.4
			c-3.9-9.8,22.9-21,49.6-55.6c15.4-19.9,13.7-25.5,29.3-40.7c10.1-9.8,19.1-15.7,37.2-27.3c14.5-9.3,24.8-14.6,37.2-18.4
			c7.2-2.2,21.8-3,21.8-3s-6.7,6.4-20.8,16.9c-20.4,15.2-16.9,15.4-32.8,26.8c-17.6,12.6-26.3,15.5-27.3,24.3
			c-0.5,4.5,1.3,8.1,4,13.4c4.5,8.8,8.9,10.8,21.8,23.3c10.5,10.3,15.8,15.4,18.9,19.9c4,5.9,6.3,10.9,12.4,13.9
			c6.2,3.1,12.5-1,11.9,3c-0.9,5.5-7.6,18.4-8.2,44.2c-0.1,6.1-0.5,12.6-1.9,20.1C230.8,449.6,227.8,450.9,224.4,454.6z"/>
		<g>
			<path fill="#27AAE1" stroke="#000000" stroke-width="2.957" stroke-miterlimit="10" d="M354.5,285.6c5.3-3.7,9.3,2.2,22.8,11.9
				c10,7.2,17.6,9.1,17.4,12.4c-0.1,2.3-2.6,1.6-4.3,6.2c-3.3,9.1-3,21.2-11,27.8c-5.5,4.5-13.1-1.1-20.4,4.2
				c-6.5,4.8-7.3,12.8-9.4,12.4c-1.9-0.3-2.1-6.6-2.5-11.9c-0.6-8-3.6-13.6-4.5-18.4c-1.4-8.1-0.9-14.6-0.3-17.3
				c0.5-2.3,4.2-6.6,6.7-13.5C351.2,293.7,352.3,287.1,354.5,285.6z"/>
		</g>
		<g>
			<path fill="#27AAE1" stroke="#000000" stroke-width="2.957" stroke-miterlimit="10" d="M247.3,285.6c-5.2-3.8-9.4,2-23.1,11.4
				c-10.2,6.9-17.8,8.7-17.7,12c0.1,2.3,0.1,2.3,2.9,6.6c5.2,8.2,2.9,22.7,10.8,29.5c5.4,4.6,13.7-2,20.9,3.5
				c6.4,4.9,7.4,12.3,9.5,12c1.9-0.3,2.2-6.5,2.8-11.9c0.8-8,3.9-13.5,4.9-18.3c1.6-8,1.2-14.6,0.7-17.3c-0.5-2.3-4.1-6.7-6.4-13.6
				C250.5,293.8,249.5,287.1,247.3,285.6z"/>
		</g>
		<path fill="#FFF200" stroke="#000000" stroke-width="2.957" stroke-miterlimit="10" d="M285.8,234.5c0.1-0.2,0,0.8,2.4-0.4
			c2-1,1.7-0.8,1.7-0.8s-0.1,3.1,0.8,5.6c1.3,3.5,6,4.9,7.7,5.2c1.8,0.2,8.7,0.3,10.8-2.7c1.7-2.4,1.6-8,1.6-8h6.2
			c0,0-1.4,8.7-4,11.6c-3.2,3.7-7,4.1-9.7,4.4c-2.6,0.3-8.4,0.9-13.1-2.9C286.2,243.1,284.3,236.1,285.8,234.5z"/>
		<path fill="none" stroke="#A97C50" stroke-width="2.957" stroke-miterlimit="10" d="M373.7,153.9c-0.5-0.7,1.2-3.2,3.5-4.3
			c2.6-1.3,5.9-0.8,6,0C383.6,151.1,374.6,155.1,373.7,153.9z"/>
		<path fill="none" stroke="#A97C50" stroke-width="2.957" stroke-miterlimit="10" d="M238.4,155.6c0.4-0.7-2.8-3.5-6.4-4.5
			c-3-0.9-6.8-0.8-7,0C224.8,152.6,237.7,157,238.4,155.6z"/>
		<g>
			<path fill="#FFFFFF" stroke="#000000" stroke-width="2.957" stroke-miterlimit="10" d="M311.1,158.7c2.8,1.6,5.3-2.7,12.7-2.7
				c6.9,0,9.6,3.7,11.8,2.1c2.7-2.1,0.2-9.5-2.7-18.2c-2.4-6.9-4.3-9.9-7.3-11.8c-1.2-0.8-3.5-2.3-6.1-1.8c-1.2,0.2-4,1.3-7,9.7
				C312.1,137.4,305.7,155.6,311.1,158.7z"/>
			<path fill="#2E3192" stroke="#000000" stroke-width="2.957" stroke-miterlimit="10" d="M315.1,153.8c-4-5.3-1.6-11.6-1.2-12.7
				c0.2-0.4,3.4-8.4,9.1-8.2c5.3,0.2,8.1,7.1,8.5,8.2c2.1,5.1-1.4,15.7-8.3,15.1C318.4,155.9,318.2,157.9,315.1,153.8z"/>
			<path fill="#1C75BC" stroke="#000000" stroke-width="2.957" stroke-miterlimit="10" d="M323.3,155.9c-3.2-0.3-4.3-0.7-4.5-4.4
				c-0.1-1.7,0.9-6.2,4-6.2c3.1,0,4.2,1.1,4.4,5.2C327.5,153.4,326.5,156.2,323.3,155.9z"/>
		</g>
		<g>
			<path fill="#FFFFFF" stroke="#000000" stroke-width="2.957" stroke-miterlimit="10" d="M258.2,158.7c2.8,1.6,5.3-2.7,12.7-2.7
				c6.9,0,9.6,3.7,11.8,2.1c2.7-2.1,0.2-9.5-2.7-18.2c-2.4-6.9-4.3-9.9-7.3-11.8c-1.2-0.8-3.5-2.3-6.1-1.8c-1.2,0.2-4,1.3-7,9.7
				C259.2,137.4,252.8,155.6,258.2,158.7z"/>
			<path fill="#2E3192" stroke="#000000" stroke-width="2.957" stroke-miterlimit="10" d="M262.2,153.8c-4-5.3-1.6-11.6-1.2-12.7
				c0.2-0.4,3.4-8.4,9.1-8.2c5.3,0.2,8.1,7.1,8.5,8.2c2.1,5.1-1.4,15.7-8.3,15.1C265.5,155.9,265.3,157.9,262.2,153.8z"/>
			<path fill="#1C75BC" stroke="#000000" stroke-width="2.957" stroke-miterlimit="10" d="M270.4,155.9c-3.2-0.3-4.3-0.7-4.5-4.4
				c-0.1-1.7,0.9-6.2,4-6.2c3.1,0,4.2,1.1,4.4,5.2C274.5,153.4,273.6,156.2,270.4,155.9z"/>
		</g>
		<path fill="none" stroke="#3C2415" stroke-width="2.957" stroke-miterlimit="10" d="M311.3,114.4c4.6-1.5,13.9,0,20.8,8"/>
		<path fill="none" stroke="#3C2415" stroke-width="2.957" stroke-miterlimit="10" d="M258.2,122.4c0-4.4,9.4-8,21-8"/>
		<line fill="none" stroke="#000000" stroke-width="2.957" stroke-miterlimit="10" x1="322.5" y1="121.3" x2="322.5" y2="121.3"/>
		<g>
			<path fill="none" stroke="#A97C50" stroke-width="2.957" stroke-miterlimit="10" d="M294.5,173.4c-0.5-0.3-4-2.5-7.9-1.2
				c-3.4,1.1-6.7,4.7-6,8.6c0.5,2.9,3,4.9,5.3,5.6c3,0.9,6.3,0,8.6-2.3"/>
		</g>
		<path fill="none" stroke="#BE1E2D" stroke-width="2.957" stroke-miterlimit="10" d="M254.4,191.4c1.3-2,5-4,5-4s3.2,4.2,5.4,7.1
			c7.3,9.5,18,12.2,21.7,12.9c5.8,1.2,10.4,0.7,14.8,0.2c3.4-0.4,8.8-0.4,14.8-3.5c3.2-1.6,6.5-3.3,11.3-6.7c5.2-3.6,5.9-5,5.9-5
			c3.5-3.4,4.5-4.2,4.5-4.2s1.8,2.1,2.4,3.6"/>
	</g>
	
		<use xlink:href="#Brown_Hair_4"  width="22.6" height="15.3" x="-11.3" y="-7.7" transform="matrix(2.1315 0 0 -3.9023 366.1502 103.0185)" overflow="visible"/>
	
		<use xlink:href="#Brown_Hair_4"  width="22.6" height="15.3" x="-11.3" y="-7.7" transform="matrix(2.1315 0 0 -3.9023 373.7494 89.6972)" overflow="visible" enable-background="new    "/>
	
		<use xlink:href="#Brown_Hair_4"  width="22.6" height="15.3" x="-11.3" y="-7.7" transform="matrix(-7.3402 0 0 -4.5319 256.9378 107.8552)" overflow="visible" enable-background="new    "/>
	
		<use xlink:href="#Brown_Hair_4"  width="22.6" height="15.3" x="-11.3" y="-7.7" transform="matrix(-6.1605 -0.948 0.699 -4.5418 265.0238 84.7851)" overflow="visible" enable-background="new    "/>
	
		<use xlink:href="#Brown_Hair_4"  width="22.6" height="15.3" x="-11.3" y="-7.7" transform="matrix(-4.5897 -1.5082 0.7835 -2.3844 285.7609 57.5171)" overflow="visible" enable-background="new    "/>
	
		<use xlink:href="#Brown_Hair_4"  width="22.6" height="15.3" x="-11.3" y="-7.7" transform="matrix(-4.8155 -0.3894 0.2023 -2.5017 174.1843 187.7174)" overflow="visible" enable-background="new    "/>
	
		<use xlink:href="#Brown_Hair_4"  width="22.6" height="15.3" x="-11.3" y="-7.7" transform="matrix(-5.0435 0.2001 -9.949037e-02 -2.5078 179.3869 210.1767)" overflow="visible" enable-background="new    "/>
	
		<use xlink:href="#Brown_Hair_4"  width="22.6" height="15.3" x="-11.3" y="-7.7" transform="matrix(-3.6597 9.661901e-02 -6.037817e-02 -2.2869 205.1189 229.7221)" overflow="visible" enable-background="new    "/>
	
		<use xlink:href="#Brown_Hair_4"  width="22.6" height="15.3" x="-11.3" y="-7.7" transform="matrix(-3.1451 8.303327e-02 -4.309522e-02 -1.6324 236.0889 235.7416)" overflow="visible" enable-background="new    "/>
</g>
</svg>
