<?xml version="1.0" encoding="utf-8"?>
<!-- Generator: Adobe Illustrator 18.1.0, SVG Export Plug-In . SVG Version: 6.00 Build 0)  -->
<!DOCTYPE svg PUBLIC "-//W3C//DTD SVG 1.1//EN" "http://www.w3.org/Graphics/SVG/1.1/DTD/svg11.dtd">
<svg version="1.1" id="Layer_1" xmlns="http://www.w3.org/2000/svg" xmlns:xlink="http://www.w3.org/1999/xlink" x="0px" y="0px"
	 viewBox="0 0 503.3 626.3" enable-background="new 0 0 503.3 626.3" xml:space="preserve">
<symbol  id="Brown_Hair_4" viewBox="-11.3 -7.7 22.7 15.4">
	<path fill="#7E5629" d="M-11.3,7c0,0,5.6,2.6,10.6-1.9c5-4.6,5.8-10.2,12-12.7C4.7-6.5,2.2,0.9-1,4C-6.1,8.9-10.8,7-11.3,7z"/>
</symbol>
<path fill="#3C2415" stroke="#3C2415" stroke-width="3.3285" stroke-miterlimit="10" d="M467.9,201.2c0-3.1-27.6-2.8-44.6-22.5
	c-6.3-7.3-8.7-14.7-20.4-24.5c-5.3-4.4-10.9-8-10.2-9.4c1.1-2.4,18.7,6.7,21.8,2.6c3.1-4-11.2-17.2-25.9-38.3
	c-20.9-30-14.3-35.3-30.3-53.4c-18.6-21-41.6-29.6-53.6-34.1c0,0-27.6-11.7-48.2-9.9c-5.2,0.5-10.1,1.5-10.1,1.5
	c0,0-3.4,0.8-6.8,1.8c-11.1,3.5-38.1,27.2-39.9,25.7c-1-0.9,11.4-14.1,21.8-22.3c10.4-8.2,24.2-10.9,23.7-12.1
	c-3.2-6.9-54.8,20.7-58.2,23.3c-3.7,2.9,11.7-28.5,10.9-28.1c-1.4,0.7-19.7,23.9-28,38.2c-7.9,13.6-7.4,12.5-16.4,25.6
	c-8.2,12-8.8,28.6-10,38.9c-1.1,9.1-0.9,17.3-0.7,21.5c0.4,6.2,1.1,10.9,1.4,12.9c0.7,4.4,2.1,12.2,5.9,21.3
	c2.2,5.4,4.8,10,6.2,12.4c0,0,0.7,1.3,1.5,2.6c8.8,14.2,19.3,23.5,19.3,23.5c4.1,3.6,15,15.2,30.5,19.5c10.6,2.9,32.1,7.3,32.7,7.5
	c0,0-0.5-12.4-0.4-6.8c0,0.1-54.1-8.1-60.9-34.4c-2.9-11.4,4.2-30-2.8-30c-4.2,0-6.5,3.5-12.8,0.5c-10.1-4.8-17.4-21.6-11.2-27.2
	c3.5-3.2,11.2-1.9,16.1,1.4c7.5,5,8.1,14.3,10.2,14c2.6-0.4-1.9-15.3,6.2-27.5c3.2-4.8,5.4-4.8,11.7-13.6c3.8-5.4,5.9-8.2,7.1-12.6
	c2.5-9-1.2-13.9,1.4-16.1c3.4-2.9,10.9,4.5,22.9,8.4c17,5.5,20.2-3.5,39.1,0.6c13.4,2.9,10.3,7.1,35.4,16.6
	c4.5,1.7,9.5,3.4,13.7,8.3c6.6,7.6,6.7,17.4,6.6,18.5c-0.1,9-4.7,15.5-3.7,16.1c1.3,0.7,6-10.9,15.1-12.4c4.4-0.7,9.9,0.8,12.6,4.8
	c3.3,4.9,0.8,11.3-0.2,13.8c-3.8,9.8-10.8,8.9-15.2,18.2c-3.2,6.7-0.1,8.3-3.7,18.4c-2.6,7.2-6.2,12.1-8.3,14.8
	c-3,4-7.1,9.4-14,13.6c-5.1,3.1-10.7,4.3-22,6.6c0,0-5.1-0.9-20.4,1.6c0.6-3.8-1,9.5,0.7,13c2.4,5.1,15.7,1.5,29.9,1.6
	c9.2,0,6.3,1.6,51.6,13.4c0,0,18.4,4.8,36,6.2c0,0,0.1,0,0.1,0c16.2,1.3,24.4,1.9,24.8,0.4c0.8-2.6-22-16.3-20.5-13
	c0.3,0.7,74.3,0.3,79.5-4.6c6.2-6-47.9-33-39.8-32.8C428,205.3,467.7,211.6,467.9,201.2z"/>
<path fill="#C49A6C" stroke="#C49A6C" stroke-width="3.3285" stroke-miterlimit="10" d="M242.4,243.1c0,0-0.7-16.8-1.6-26.6
	c0,0-8.7,4.2-30.8-4.7c-2.6-1-11.7-3-22.1-14c-4.8-5.1-5.6-11.7-6.5-16.3c-1.9-9.4,0.8-10.2,1.3-21.7c0,0,2.3-0.6-3.5-5.7
	c-0.7-0.7-4.6-0.6-5.5-0.2c-2.1,1-5.8,2.2-9.8,0.9c-5.9-1.9-8-7.9-9.3-11.4c-0.9-2.7-3.7-10.5,0.2-14.1c2.9-2.7,8.1-2,11.3-0.8
	c10.1,3.8,11.5,16.7,14.8,16.2c2.8-0.4-3.2-6.8,0.6-21.6c1.1-4.2,1.7-6,8-12.9c4.6-5,9-11.6,12.7-17c3-4.4,1.7-19,5.2-19.7
	c6.7-1.4,8.4,6.1,21.5,10.7c16.5,5.7,20.7-3.7,39.6,0.6c9.6,2.2,5.9,4,35.6,17.5c7.2,3.3,9.8,4.4,12.1,7.7c8.6,12,0.4,30,1.6,31.7
	c0.9,1.4,6.9-9.7,17.9-9.8c3.8,0,9.4,1.4,11.2,4.9c4.8,8.7-7.1,15.3-15.4,29.1c-6.3,10.5-7.2,24.5-12,33.2
	c-3.9,7.1-9,12.7-21.6,16.8c-15.1,5-29.1,5.9-35.1,2.6c0,0,0,0,0,0c-5.6,9.2-1.2,18.7-1.2,18.7c0,1.1,0,2.9,0,5.2
	c-1.4,1.1-3.8,2.5-7.2,3.4c-1,0.3-2,0.4-3.4,0.4C246,246.1,242.4,243.1,242.4,243.1z"/>
<path fill="#EC008C" stroke="#000000" stroke-width="3.3285" stroke-miterlimit="10" d="M273.7,237.4c3.9-3,9.4-1.7,18,0.3
	c4.1,0.9,9.6,2.2,16.2,5.9c10,5.4,14.7,11.6,23.9,18.9c12.8,10.2,22.3,22,34.9,32c0.2,0.1,10.7,5.9,22.2,15.5
	c3.2,2.7,6.7,5.8,7.7,10.8c1.1,5.4-0.9,12-4.1,12.9c-2.2,0.5-3.2-1.9-9.5-5.8c-4.3-2.6-7.9-4.8-12.3-4.7c-4.5,0.1-5,2.6-8.5,2.7
	c-6.5,0.2-14.8-9.6-19.6-13c-4.4-3.1-10.2-6-17.1-12.8c-3.4-3.4-4.6-6-6.7-5.7c-3.4,0.4-2.6,7.5-8.7,16.7c-3.9,5.9-4.4,6.6-6.3,11.7
	c-1.7,4.6-2.8,18.4-0.4,27.5c0,0,1.9,0.8,2.3,9.5l1.4,5.7c-0.9,2.1-7.6-0.5-18-0.3c-10.5,0.2-11.8,2.2-16.9,0.9
	c-5.7-1.5-6-3.9-12.6-6.5c-5.5-2.2-12.6-1.9-14.4-1.4c-5.6,1.4-6.5,3-13,5.1c-1.9,0.6-0.8-0.1-6,0.5c-8.6,1.1-14,1.1-19.1,0.3
	c-4.7-0.7-5.3-1.4-5.6-1.8c-2.4-3.1,0.6-8,3.1-17.8c0.8-3.1,3-10.5,0.8-19.6c-0.9-3.5-3.6-6.9-8.1-15.5c-5.3-10.3-4.6-10.5-6.3-15.8
	c-0.9-2.8-1.1-2.7-9.4-11.2c-8.1-8.3-7.6-7.2-11.9-12.2c-3.8-4.4-14.5-16.2-16.7-20.2c-1.6-3-25-41.7-29.9-47.3
	c-2.6-3-18.2-31.6-18.9-32.8c-4.1-6.8,13.7-1.6,11.7-1.8c-9.6-0.7,2.9-4.1,11.1-6.4c6.6-1.8,2.6-16.6,4.8-11.1
	c3,7.9,10.8,21.9,18,33.2c6.1,9.6,4.8,6.1,12.9,19.4c7.2,11.9,17.5,22.9,20.9,26.5c9.5,9.7,14.3,14.5,23.6,10.8
	c3.7-1.5,7.8-2.6,16.3-4.3c10.2-1.9,11.9-1.2,12.9-0.4c3.5,2.8,0.6,7.6,4.3,12.4c3.8,4.8,10.8,5.1,13.4,5.2
	c2.7,0.1,8.2,0.3,12.4-3.2C271.8,246,269.3,240.8,273.7,237.4z"/>
<polygon fill="#FFF200" stroke="#000000" stroke-width="3.3285" stroke-miterlimit="10" points="269,272.1 290,294.3 268.2,324.9 
	225,324.2 204.1,293.6 226.3,271.5 "/>
<polygon fill="#FFFFFF" stroke="#000000" stroke-width="3.3285" stroke-miterlimit="10" points="274.3,294 260.5,313.5 235,313.1 
	219.8,293.3 227.3,283.8 266,284.4 "/>
<path fill="#FFF200" stroke="#000000" stroke-width="3.3285" stroke-miterlimit="10" d="M389.4,334.5c0.9,3.7-3.7,10.3-12.1,18.4
	c-18.1,17.5-20.4,15.1-27.9,24.3c-7.3,9-8.7,15.8-18.9,22.8c-4.4,3-7.4,4-10.2,3.2c-5.4-1.6-7.2-9.9-8.2-14.7
	c-1.2-5.6-2.6-12.4,1.4-17.4c3.1-3.8,7.8-4.8,11.3-5.5c7.7-1.5,9.5,1.3,13.5,0.2c11.6-3.3,6.8-32.6,20.8-39c5.7-2.6,12-2.1,15.1-1.2
	C377.5,326.5,388.1,329.1,389.4,334.5z"/>
<path fill="#F7941E" stroke="#000000" stroke-width="3.3285" stroke-miterlimit="10" d="M306.4,368.6c1.1,4.1,2.1,8.3,3.2,12.4
	l-36.5-0.5l-3.7-13.5L306.4,368.6z"/>
<polygon fill="#F7941E" stroke="#000000" stroke-width="3.3285" stroke-miterlimit="10" points="228.3,367.1 228.1,382.1 195,379.4 
	199.1,366 "/>
<path fill="#ED1C24" stroke="#000000" stroke-width="3.3285" stroke-miterlimit="10" d="M268.2,369.2c0.5,0.9,4.2,7.9,0.9,14.6
	c-4.2,8.7-16.3,8.7-18.7,8.7c-2.7,0-15.8-0.4-20.6-10.4c-0.2-0.4-3.8-8.2,0.2-15.2c5.6-9.8,20.4-7.8,22-7.5
	C254.7,359.8,263.8,361.2,268.2,369.2z"/>
<path fill="#FFFFFF" stroke="#000000" stroke-width="3.3285" stroke-miterlimit="10" d="M259.1,371.3c2.1,3.2,1.6,7.8-0.7,10.7
	c-3.8,4.5-11.7,3.5-15.7-0.2c-2.3-2-4.7-6.2-3.2-9.6c1.5-3.4,6-4.1,7.9-4.4C249.1,367.5,256,366.5,259.1,371.3z"/>
<path fill="#EC008C" stroke="#000000" stroke-width="3.3285" stroke-miterlimit="10" d="M309.5,383.3c0,0,3.2,9.5,6.2,20.4
	c0.5,1.8,2.4,9.9,3.7,14.7c7.8,29,5.3,58,8.4,60.9c4.1,3.9,4.6,6.9,5.7,12.3c1.3,6.7,1.3,10.3,1.4,16.4c0.1,3.1,1.5,5.3,1,7.3
	c-0.6,2.8-5.3,4.1-8.5,4.9c-1.8,0.5-9.4,1.5-15.3,1c-6.4-0.5-14-3.5-14-3.5l0-2.2c0,0-0.6-7.6-1.8-11.4c-3.8-11.3-8.9-18.8-16-27.3
	c-22.2-26.4-23.3-40.2-28.3-42.1c0,0-9.4,13.7-35.2,43.9c-7.8,9.2-14,15.3-14.4,25.1c-0.2,5.7,1.6,11.2-1.9,14.6
	c-0.8,0.8-2.2,1.7-10.7,2.1c-15.4,0.6-19.9-2.2-21.3-3.1c-1.5-1-4.3-3-4.4-5.7c-0.1-2.5-0.5-4.6,0.1-7.8c1.4-7.7,0.9-9.8,5-16.6
	c1.8-3,3.1-7.1,4.9-10.7c3.7-7.7,0.1-29.7,5-50.6c2.7-11.5,0.8-20.8,4.5-24.4c6.6-6.2,11.2-19.8,11.2-19.8s29.9-0.9,33,1.4
	c8.2,6,7,9.3,22.4,9.5c13.4,0.2,18.7-8.7,22.3-9.7C284.6,379.7,309.5,383.3,309.5,383.3z"/>
<path fill="#FFF200" stroke="#000000" stroke-width="3.3285" stroke-miterlimit="10" d="M340,527.5c-0.1-5.4,0.4-9.9-2.1-11.3
	c-1.3-0.7-2.7,0-6.2,1c-4.1,1.2-8.3,2.6-12.4,2.6c-6.8,0.1-19.2-1.5-20.2-0.3c-3.7,4.2,3.8,16.9,9.2,26
	c7.9,13.3,10.4,13.3,11.5,19.8c1,5.9-0.8,7-0.3,20.2c0.4,9.5,1.5,12.2,2.1,13.5c1,2.3,2.7,4.9,11.1,12c8.5,7.2,12.8,10.8,16.7,12
	c1.1,0.4,13.9,4.4,23.1-2.5c1.5-1.1,4.3-3.2,5.2-6.7c0.3-1.3,1.1-5.6-6-14.7c-7.2-9.3-11.9-10-21-20.5c-3.6-4.1-5.3-6.1-6.6-9.1
	c-2.9-6.6-0.7-9.6-1.4-22.5C341.9,535.7,340.2,537.6,340,527.5z"/>
<path fill="#FFF200" stroke="#000000" stroke-width="3.3285" stroke-miterlimit="10" d="M195,534.4c3-5.5,8.2-15,5.3-17.9
	c-1.4-1.4-3.6,0-10.7,1c-7.7,1.1-15.9,2.2-21.3-2c-3.5-2.7-3.4-5.8-5-5.7c-4.3,0.3-6.2,23.7-6.6,28.5c-1.7,20.3,1,21.6-2.1,28.6
	c-2.2,5.1-4,5.2-21.7,22.7c-12.7,12.6-15.6,16.3-14.9,20.6c1.1,6.2,9.1,9.5,11.1,10.3c9.5,3.9,18.6-0.1,20.2-0.8
	c5.3-2.4,4.7-4.4,15.9-13.8c8.2-6.9,8.9-6.2,10.2-8.8c2.6-5.2,0.4-8.8,0.9-22.5c0.2-4.4,0.3-6.5,0.7-9
	C179.3,553.6,186.3,550.4,195,534.4z"/>
<path fill="#00AEEF" stroke="#000000" stroke-width="3.3285" stroke-miterlimit="10" d="M159.5,258.1c0,0-3,3.2-11.9,8.8
	c-7.6,4.7-23.2,16.5-37,36.5c-13,18.9-11.3,26.9-27.6,47.3c-12.6,15.7-20.8,20.1-23.9,21.6c-12.6,6-26.4,6.5-33.2,6.3
	c-14.4-0.5-19.4-4.6-22.4-1.4c-5.3,5.5,2.6,26.1,16.3,39c6.9,6.5,17.1,11.7,37.3,21.9c10.7,5.4,9.7,4.4,12.8,6.4
	c18.7,11.8,16.3,24.2,30.4,34.1c12.2,8.7,13.8,10.5,39.2,10.7c14.9,0.1,23.6,10.7,26.2,7.1c0.6-0.8,1.3-0.9,3.7-5.4
	c2.9-5.6,4.4-9.5,7.1-15.2c2.4-5-3.7-23.7,2.6-48.2c2.8-11,6.4-22.3,10.6-31.2c6.4-13.5,1.5-3.5,6.4-13.5c3.6-7.6,9.2-33.3,11.1-39
	c4.6-13.5-13.5-41.1-13-48c0.2-2.1-14.3-15.4-24.5-26.3C165.5,265.3,160.8,259.6,159.5,258.1z"/>
<path fill="#00AEEF" stroke="#000000" stroke-width="3.3285" stroke-miterlimit="10" d="M206.2,495.8c1.4,1.5,27.5-8.9,44.1-7.8
	c25.1,1.7,42.3,14.2,44.6,11.3c2.5-3.1-9.1-10.8-22.2-30.7c-6.1-9.3-18-33.8-20.7-33.9c-2.4-0.1-13.8,18.1-25.4,31.8
	C214.8,480.4,205.2,494.6,206.2,495.8z"/>
<path fill="#00AEEF" stroke="#000000" stroke-width="3.3285" stroke-miterlimit="10" d="M335,487.6c6.4,7.1,14.9-9.2,31.1-14.7
	c16.2-5.5,19.9,3.4,33.7-1.2c19.7-6.5,15-25.6,38.2-38.8c4-2.3,15.8-5.8,39.5-12.9c19.7-5.9,22.5-6.2,23.7-9.2
	c4.6-11-25.5-24.1-55.2-63.7c-17.1-22.8-15.1-29-32.5-46.5c-11.2-11.3-21.4-18-41.7-31.5c-16.2-10.8-27.9-16.9-41.8-21.4
	c-8.1-2.6-24.7-3.7-24.7-3.7s7.5,7.3,23.3,19.4c22.8,17.5,18.9,17.7,36.6,30.9c19.7,14.6,29.5,18,30.5,28c0.5,5.2-1.6,9.2-4.7,15.1
	c-5.2,9.8-10.3,12-25.1,26c-12.1,11.4-18.1,17.2-21.7,22.2c-4.7,6.6-7.3,12.2-14.3,15.5c-7.1,3.4-14.2-1.3-13.5,3.2
	c0.9,6.3,8.3,21,8.6,50.2c0.1,6.9,0.4,14.3,1.9,22.8C327.8,481.8,331.2,483.4,335,487.6z"/>
<g>
	<path fill="#00AEEF" stroke="#000000" stroke-width="3.3285" stroke-miterlimit="10" d="M316.3,295c6-4.2,6.1,3.7,21.4,14.5
		c11.4,8,20,10.1,19.8,13.9c-0.1,2.6-0.1,2.6-3.3,7.5c-6,9.2-3.7,25.7-12.6,33.2c-6.1,5.2-15.5-2.5-23.7,3.7
		c-7.3,5.5-8.5,13.8-11,13.4c-2.1-0.3-2.4-7.4-2.9-13.5c-0.8-9-4.2-15.3-5.2-20.7c-1.7-9.1-1.1-16.6-0.5-19.6
		c0.5-2.6,4.7-7.5,7.5-15.3C308.1,305.5,313.8,296.8,316.3,295z"/>
</g>
<path fill="#FFF200" stroke="#000000" stroke-width="3.3285" stroke-miterlimit="10" d="M269.1,237.8c-0.2-0.2-0.1,0.9-2.8-0.5
	c-2.3-1.2-2-1-2-1s0,3.5-1,6.3c-1.5,3.9-6.9,5.5-8.8,5.7c-2,0.2-9.8,0.3-12.2-3.3c-1.9-2.8-1.7-9.1-1.7-9.1l-7-0.1
	c0,0,1.4,9.8,4.3,13.2c3.6,4.2,7.9,4.8,10.9,5.2c2.9,0.4,9.5,1.2,14.8-3C268.5,247.5,270.8,239.8,269.1,237.8z"/>
<path fill="none" stroke="#A97C50" stroke-width="3.3285" stroke-miterlimit="10" d="M171,145.4c0.6-0.8-1.3-3.6-3.8-4.9
	c-2.9-1.5-6.6-1.1-6.8-0.1C160,142,170,146.8,171,145.4z"/>
<path fill="none" stroke="#A97C50" stroke-width="3.3285" stroke-miterlimit="10" d="M324,149.6c-0.4-0.8,3.2-3.9,7.3-5
	c3.5-1,7.7-0.7,7.9,0.1C339.4,146.3,324.7,151,324,149.6z"/>
<g>
	<path fill="#FFFFFF" stroke="#000000" stroke-width="3.3285" stroke-miterlimit="10" d="M301.6,152.7c-3.2,1.8-6-3.2-14.3-3.3
		c-7.8-0.1-10.9,4.1-13.4,2.2c-3.1-2.4-0.1-10.7,3.4-20.5c2.8-7.8,5.1-11.1,8.4-13.2c1.4-0.9,4-2.6,6.9-2c1.3,0.3,4.5,1.5,7.7,11.1
		C300.8,128.6,307.7,149.2,301.6,152.7z"/>
	<path fill="#2B3990" stroke="#000000" stroke-width="3.3285" stroke-miterlimit="10" d="M297.1,147.1c4.6-5.9,2-13.1,1.6-14.4
		c-0.2-0.5-3.7-9.5-10.1-9.4c-6,0.1-9.2,7.9-9.7,9.1c-2.4,5.8,1.3,17.7,9.1,17.3C293.3,149.4,293.5,151.6,297.1,147.1z"/>
	<path fill="#1C75BC" stroke="#000000" stroke-width="3.3285" stroke-miterlimit="10" d="M287.7,149.3c3.7-0.3,4.9-0.8,5.2-5
		c0.1-1.9-0.9-7-4.5-7c-3.5,0-4.8,1.2-5.1,5.8C283.1,146.4,284.2,149.6,287.7,149.3z"/>
</g>
<path fill="none" stroke="#3C2415" stroke-width="3.3285" stroke-miterlimit="10" d="M242.3,101.7c-5.2-1.8-15.7-0.2-23.7,8.7"/>
<path fill="none" stroke="#3C2415" stroke-width="3.3285" stroke-miterlimit="10" d="M302.1,111.6c0.1-5-10.5-9.2-23.6-9.4"/>
<line fill="none" stroke="#000000" stroke-width="3.3285" stroke-miterlimit="10" x1="229.5" y1="109.4" x2="229.5" y2="109.4"/>
<g>
	<path fill="none" stroke="#A97C50" stroke-width="3.3285" stroke-miterlimit="10" d="M262.2,168.3c-0.6-0.3-4.7-2.5-9-0.8
		c-3.8,1.5-7.3,5.8-6.2,10.1c0.8,3.2,3.8,5.3,6.4,5.9c3.4,0.8,7.1-0.4,9.5-3.2"/>
</g>
<path fill="none" stroke="#BE1E2D" stroke-width="3.3285" stroke-miterlimit="10" d="M305.3,189.6c-1.4-2.3-5.6-4.6-5.6-4.6
	s-3.6,4.7-6.2,7.9c-8.5,10.6-20.6,13.5-24.8,14.3c-6.6,1.2-11.8,0.6-16.7,0c-3.8-0.5-10-0.7-16.7-4.2c-3.6-1.9-7.3-3.9-12.6-7.7
	c-5.8-4.2-6.6-5.7-6.6-5.7c-3.9-3.9-5-4.8-5-4.8s-2.1,2.4-2.8,4"/>
<g>
	<path fill="#FFFFFF" stroke="#000000" stroke-width="3.3285" stroke-miterlimit="10" d="M244.7,151.8c-3.2,1.8-6-3.2-14.3-3.3
		c-7.8-0.1-10.9,4.1-13.4,2.2c-3.1-2.4-0.1-10.7,3.4-20.5c2.8-7.8,5.1-11.1,8.4-13.2c1.4-0.9,4-2.6,6.9-2c1.3,0.3,4.5,1.5,7.7,11.1
		C243.9,127.8,250.8,148.4,244.7,151.8z"/>
	<path fill="#2B3990" stroke="#000000" stroke-width="3.3285" stroke-miterlimit="10" d="M240.2,146.3c4.6-5.9,2-13.1,1.6-14.4
		c-0.2-0.5-3.7-9.5-10.1-9.4c-6,0.1-9.2,7.9-9.7,9.1c-2.4,5.8,1.3,17.7,9.1,17.3C236.4,148.6,236.6,150.8,240.2,146.3z"/>
	<path fill="#1C75BC" stroke="#000000" stroke-width="3.3285" stroke-miterlimit="10" d="M230.9,148.5c3.7-0.3,4.9-0.8,5.2-5
		c0.1-1.9-0.9-7-4.5-7c-3.5,0-4.8,1.2-5.1,5.8C226.2,145.6,227.3,148.7,230.9,148.5z"/>
</g>
<use xlink:href="#Brown_Hair_4"  width="22.7" height="15.4" x="-11.3" y="-7.7" transform="matrix(-2.4007 -3.468423e-02 6.350113e-02 -4.3953 178.373 86.4453)" overflow="visible"/>
<use xlink:href="#Brown_Hair_4"  width="22.7" height="15.4" x="-11.3" y="-7.7" transform="matrix(-2.4007 -3.468423e-02 6.350113e-02 -4.3953 170.0021 71.2655)" overflow="visible"/>
<use xlink:href="#Brown_Hair_4"  width="22.7" height="15.4" x="-11.3" y="-7.7" transform="matrix(8.2673 0.1194 7.374629e-02 -5.1044 301.1923 93.6876)" overflow="visible"/>
<use xlink:href="#Brown_Hair_4"  width="22.7" height="15.4" x="-11.3" y="-7.7" transform="matrix(6.9542 -0.9676 -0.7133 -5.1269 292.4962 67.5362)" overflow="visible"/>
<use xlink:href="#Brown_Hair_4"  width="22.7" height="15.4" x="-11.3" y="-7.7" transform="matrix(5.1941 -1.6241 -0.8437 -2.6983 269.5925 36.4112)" overflow="visible"/>
<use xlink:href="#Brown_Hair_4"  width="22.7" height="15.4" x="-11.3" y="-7.7" transform="matrix(5.4302 -0.3602 -0.1871 -2.8209 393.558 185.3221)" overflow="visible"/>
<use xlink:href="#Brown_Hair_4"  width="22.7" height="15.4" x="-11.3" y="-7.7" transform="matrix(5.6774 0.3074 0.1529 -2.823 387.2988 210.5873)" overflow="visible"/>
<use xlink:href="#Brown_Hair_4"  width="22.7" height="15.4" x="-11.3" y="-7.7" transform="matrix(4.1204 0.1684 0.1052 -2.5749 357.9753 232.2642)" overflow="visible"/>
<use xlink:href="#Brown_Hair_4"  width="22.7" height="15.4" x="-11.3" y="-7.7" transform="matrix(3.541 0.1447 7.510169e-02 -1.8378 322.9038 238.5626)" overflow="visible"/>
<path fill="none" stroke="#000000" stroke-width="3.3285" stroke-miterlimit="10" d="M57.9,79.7c0,3.2,0.1,6.3,0.2,9.2
	c0.1,2.9,0.3,5.6,0.4,8c0.2,2.5,0.4,4.8,0.7,6.8c0.6,4.7,1.5,7.6,2.4,7.6"/>
<g>
	<g>
		<path d="M58.8,82.5c0,1.2-0.4,3.5,0.4,4.5c0.7,0.9,1.4,0.5,2.3,0.4c1.6-0.1,3.1,0.8,4.8,0.7c1.8,0,3.5-0.4,5.1-1
			c0.8-0.3,0.8-1.3,0-1.6c-2-0.7-3.8-1.6-5.8-2.3c-1.4-0.6-3.3-1.6-4.8-1.4c-0.4,0-0.7,0.2-0.8,0.6c-0.4,1.3-0.6,3,0.9,3.4
			c0.6,0.2,1.3,0,2,0.2c0.6,0.2,1.2,0.5,1.8,0.7c1.1,0.4,2.1,0.7,3.2,0.5c0.9-0.1,1.1-1.3,0.2-1.6c-2.2-0.8-4.3-1.8-6.6-2.2
			c-1-0.2-1.5,1.5-0.4,1.6c2.3,0.3,4.4,1.3,6.6,2.2c0.1-0.5,0.1-1.1,0.2-1.6c-1.7,0.2-3-0.7-4.6-1.2c-0.3-0.1-1.1-0.4-1.4-0.3
			c-0.7-0.2-0.8,0-0.4,0.4c0-0.6,0.1-1.1,0.2-1.7c-0.3,0.2-0.5,0.4-0.8,0.6c1.6-0.2,4,1.2,5.4,1.8c1.6,0.7,3.1,1.3,4.7,1.9
			c0-0.5,0-1.1,0-1.6c-2.8,0.9-5.2,1.1-8,0.3c-0.7-0.2-1.3-0.2-2-0.2c-0.9-0.1-0.3,0.4-0.4-0.4c-0.1-0.9-0.1-1.8,0-2.7
			C60.5,81.4,58.9,81.4,58.8,82.5L58.8,82.5z"/>
	</g>
</g>
<g>
	<g>
		<path d="M59,91c0.1,1.4,0.2,2.9,0.3,4.3c0.1,0.8,1.1,1.2,1.6,0.4c0.7-1.4,3.9-1.4,5.2-1.7c1.7-0.4,3.3-0.9,4.9-1.3
			c0.6-0.2,0.8-0.9,0.4-1.4c-1.5-1.7-3.8-1.4-5.8-1.3c-1.3,0-5.1-0.8-5.6,1c-0.3,1.1,0.4,2.5,1.5,2.5c1.3,0.1,2.7-0.3,4-0.3
			c1.4,0.1,2.7,0,4.1-0.3c1-0.3,0.6-1.9-0.4-1.6c-1.6,0.4-3.1,0.2-4.7,0.2c-0.5,0-1,0-1.5,0.1c-0.2,0-1.8,0.1-1.3,0.2
			c2.4,0.5,6.8-1.4,8.7,0.8c0.1-0.5,0.2-0.9,0.4-1.4c-2.5,0.7-4.9,1.4-7.5,1.8c-1.6,0.2-2.9,0.5-3.7,2c0.5,0.1,1,0.3,1.6,0.4
			c-0.1-1.4-0.2-2.9-0.3-4.3C60.6,90,58.9,90,59,91L59,91z"/>
	</g>
</g>
<g>
	<g>
		<path d="M64.1,92.4c0.7,0,2.1-0.3,2.8,0c0.4,0.2,0.7,0.6,1.1,0.7c0.6,0.2,1.4,0.1,2,0.1c0.8,0,1.8,0.1,2.6-0.2
			c0.4-0.1,0.6-0.4,0.6-0.8c0,0,0-0.1,0-0.1c0-0.3-0.2-0.6-0.4-0.7c0,0-0.1,0-0.1-0.1c-0.9-0.6-1.7,0.9-0.8,1.4c0,0,0.1,0,0.1,0.1
			c-0.1-0.2-0.3-0.5-0.4-0.7c0,0,0,0.1,0,0.1c0.2-0.3,0.4-0.5,0.6-0.8c-0.7,0.2-1.7,0.2-2.4,0.1c-0.5,0.1-1,0-1.5-0.3
			c-0.2-0.1-0.3-0.2-0.5-0.4c-1.1-0.4-2.4-0.2-3.6-0.2C63,90.7,63,92.4,64.1,92.4L64.1,92.4z"/>
	</g>
</g>
<g>
	<g>
		<path d="M60.3,94.4c0.4,0,0.8,0,1.2,0c1.1,0,1.1-1.7,0-1.7c-0.4,0-0.8,0-1.2,0C59.3,92.7,59.3,94.4,60.3,94.4L60.3,94.4z"/>
	</g>
</g>
<g>
	<g>
		<path d="M59.9,99.4c4.5,0,9.1,0,13.6,0c-0.1-0.5-0.1-1.1-0.2-1.6c-2.8,0.8-5.6,1.6-8.4,2.4c-0.7,0.2-1.4,0.3-2,0.6
			c-0.3,0-0.6,0.2-0.8,0.3c-0.3,0.3-0.4,0.3-0.4-0.2c-1.4-0.9,2.1-0.5,2.7-0.5c1.4,0,2.7-0.1,4.1-0.3c0.2,0,2-0.2,2-0.2
			c0-0.2-1.7-0.2-1.9-0.2c-0.9,0.1-1.7,0.4-2.5,0.7c-0.4,0.2-0.9,0.5-1.4,0.6c-0.5,0.4-1,0.3-1.5-0.2c-0.9-0.1-1.2-0.3-0.7-0.7
			c0.1,0.5,0.1,1,0.2,1.5c0.2-0.1,0.4-0.2,0.6-0.3c1.1-0.1,1.1-1.7,0-1.7c-0.7,0-0.9,0-1.5,0.5c-0.5,0.4-0.6,1.4,0.2,1.5
			c1.5,0.2,2.5-1.4,1.2-2.5c-1.2-1-2.4-0.1-2.6,1.2c-0.3,2.7,2.3,3,4.3,2.4c0.8-0.3,1.6-0.8,2.5-1c1-0.3,1.9-0.2,2.9-0.4
			c0.8-0.1,1.8-0.4,2.2-1.2c1.1-2.1-1.8-2-3-1.9c-2.4,0.2-4.8,0.4-7.2,0.3c-0.9,0-1.8-0.3-2.3,0.6c-0.6,1,0.2,3.3,1.3,3.6
			c1.4,0.4,4.4-1.1,5.7-1.5c2.3-0.7,4.6-1.3,6.9-2c0.9-0.3,0.7-1.6-0.2-1.6c-4.5,0-9.1,0-13.6,0C58.9,97.7,58.9,99.4,59.9,99.4
			L59.9,99.4z"/>
	</g>
</g>
<g>
	<g>
		<path d="M60.6,106.3c2.6-0.1,5.2-0.2,7.8,0.1c1.2,0.1,2.7,0.2,3.9,0.6c0.6,0.2,0.6,0.1,0.1-0.2c-0.7,0.3-1.5,0.6-2.2,0.9
			c-1.1,0.4-2.2,0.7-3.4,0.9c-0.2,0-5.3,0.9-4.4-1c0.3-0.5,3.9-0.7,4.5-0.8c0.7-0.1,4.7-0.1,1.8,0.6c-0.9,0.2-1.8,0.3-2.7,0.5
			c-1.3,0.2-3.6,0.5-1-0.1c0.9-0.2,1.9-0.4,2.9-0.5c0.8,0.2,1.4,0.1,1.9-0.4c-0.1,0-0.1,0-0.2,0c-1.2,0.1-2.5,0.4-3.6,0.7
			c-0.6,0.2-1.2,0.3-1.8,0.5c0.2,0.7,0.5,0.8,1.1,0.3c1,0,2.2-0.5,3.2-0.6c1.1-0.1,0.6-1.7-0.4-1.6c-1.6,0.2-7.3,0.8-5.1,3.6
			c0.2,0.2,0.6,0.3,0.8,0.2c2.3-0.8,4.6-1,7-1.6c0.7-0.2,1.2-0.3,1.4-1.1c0.4-2.3-3.4-1.9-4.6-1.7c-1.4,0.2-6.6,0.1-6.1,2.8
			c0.6,2.7,5.9,0.9,7.3,0.6c1.4-0.3,4.2-1.5,2.6-3.2c-0.8-0.9-2.4-0.9-3.5-0.8c-1.8,0.2-3.6,0.6-5.4,0.6c-2.2,0.1-2.4,3-0.9,4.4
			c1.6,1.5,6.4,0.1,8.2-0.4c1-0.3,6.2-1.7,4.1-3.7c-1-1-3.7-0.9-5.1-1c-2.7-0.3-5.5-0.3-8.3-0.2C59.5,104.7,59.5,106.4,60.6,106.3
			L60.6,106.3z"/>
	</g>
</g>
<path fill="#FFF200" stroke="#000000" stroke-width="3.3285" stroke-miterlimit="10" d="M104.9,171.4c-13.6-8.3-7.3-52.1-29.1-54.9
	c-12.1-1.6-14.3-4.6-14.1-5.2c0.1-0.5,14.2,0.6,14-4c-0.2-4.3-15.2-4.5-15.3-3.9c-0.1,0.6,15.1-0.6,14.9-4.9
	c-0.1-3.7-16.4-1.7-16.5-1.8c0-0.1,16-3.1,15.9-4.9c-0.2-3-16.6-2.7-16.5-2.9c0-0.2,15.7,0.3,16-1.7c0.7-3.8-16.8-7.5-16.2-7.4
	c0.3,0,11.2,4.8,13.6,1.8c2.3-2.8-3.1-10-2.2-14.1c0.5-2.3,5.6-3.6,7.2-1.1c2.1,3.4,3.9,8.4,4,10.8c0.2,5.3,1.5,10.9,17.5,31.7
	c27.8,36.2,40.5,42.8,37.8,51.9C132.9,170.3,114.3,177.1,104.9,171.4z"/>
<g>
	
		<rect x="69.4" y="48.4" transform="matrix(0.99 0.1409 -0.1409 0.99 13.2566 -11.9215)" fill="#808285" stroke="#000000" stroke-width="3.3285" stroke-miterlimit="10" width="42.8" height="78.6"/>
	
		<rect x="76.6" y="62.8" transform="matrix(0.99 0.1409 -0.1409 0.99 13.3991 -11.8908)" stroke="#000000" stroke-width="3.3285" stroke-miterlimit="10" width="28.1" height="51.7"/>
</g>
</svg>
