<?xml version="1.0" encoding="utf-8"?>
<!-- Generator: Adobe Illustrator 18.1.0, SVG Export Plug-In . SVG Version: 6.00 Build 0)  -->
<!DOCTYPE svg PUBLIC "-//W3C//DTD SVG 1.1//EN" "http://www.w3.org/Graphics/SVG/1.1/DTD/svg11.dtd">
<svg version="1.1" id="Layer_1" xmlns="http://www.w3.org/2000/svg" xmlns:xlink="http://www.w3.org/1999/xlink" x="0px" y="0px"
	 viewBox="0 0 600 600" enable-background="new 0 0 600 600" xml:space="preserve">
<symbol  id="Brown_Hair_4" viewBox="-11.3 -7.7 22.6 15.3">
	<path fill="#7E5629" d="M-11.3,6.9c0,0,5.6,2.6,10.6-1.9c5-4.6,5.8-10.2,12-12.7C4.7-6.6,2.2,0.8-1,3.9C-6.1,8.8-10.8,6.9-11.3,6.9
		z"/>
</symbol>
<g>
	<path fill="#3C2415" stroke="#3C2415" stroke-width="3.346" stroke-miterlimit="10" d="M508.3,192.2c0-3-26.6-2.7-43-21.7
		c-6.1-7-8.4-14.2-19.6-23.6c-5.1-4.2-10.5-7.7-9.8-9.1c1.1-2.3,18,6.5,21,2.5c3-3.9-10.8-16.6-24.9-36.9
		c-20.1-28.9-13.8-34-29.2-51.4c-17.9-20.2-40.1-28.5-51.6-32.8c0,0-26.6-11.3-46.4-9.5c-5,0.5-9.7,1.4-9.7,1.4s-3.3,0.8-6.5,1.7
		c-10.7,3.4-36.7,26.2-38.4,24.8c-1-0.9,11-13.6,21-21.5s23.3-10.5,22.8-11.7c-3.1-6.6-52.8,19.9-56,22.4
		c-3.6,2.8,11.3-27.4,10.5-27.1c-1.3,0.7-19,23-27,36.8c-7.6,13.1-7.1,12-15.8,24.7c-7.9,11.6-8.5,27.5-9.6,37.5
		c-1.1,8.8-0.9,16.7-0.7,20.7c0.4,6,1.1,10.5,1.3,12.4c0.7,4.2,2,11.7,5.7,20.5c2.1,5.2,4.6,9.6,6,11.9c0,0,0.7,1.3,1.4,2.5
		c8.5,13.7,18.6,22.6,18.6,22.6c3.9,3.5,14.4,14.6,29.4,18.8c10.2,2.8,30.9,7,31.5,7.2c0,0-0.5-11.9-0.4-6.5
		c0,0.1-52.1-7.8-58.6-33.1c-2.8-11,4-28.9-2.7-28.9c-4,0-6.3,3.4-12.3,0.5c-9.7-4.6-16.8-20.8-10.8-26.2c3.4-3.1,10.8-1.8,15.5,1.3
		c7.2,4.8,7.8,13.8,9.8,13.5c2.5-0.4-1.8-14.7,6-26.5c3.1-4.6,5.2-4.6,11.3-13.1c3.7-5.2,5.7-7.9,6.8-12.1
		c2.4-8.7-1.2-13.4,1.3-15.5c3.3-2.8,10.5,4.3,22.1,8.1c16.4,5.3,19.5-3.4,37.7,0.6c12.9,2.8,9.9,6.8,34.1,16
		c4.3,1.6,9.1,3.3,13.2,8c6.4,7.3,6.5,16.8,6.4,17.8c-0.1,8.7-4.5,14.9-3.6,15.5c1.3,0.7,5.8-10.5,14.5-11.9
		c4.2-0.7,9.5,0.8,12.1,4.6c3.2,4.7,0.8,10.9-0.2,13.3c-3.7,9.4-10.4,8.6-14.6,17.5c-3.1,6.5-0.1,8-3.6,17.7c-2.5,6.9-6,11.7-8,14.3
		c-2.9,3.9-6.8,9.1-13.5,13.1c-4.9,3-10.3,4.1-21.2,6.4c0,0-4.9-0.9-19.6,1.5c0.6-3.7-1,9.1,0.7,12.5c2.3,4.9,15.1,1.4,28.8,1.5
		c8.9,0,6.1,1.5,49.7,12.9c0,0,17.7,4.6,34.7,6h0.1c15.6,1.3,23.5,1.8,23.9,0.4c0.8-2.5-21.2-15.7-19.7-12.5
		c0.3,0.7,71.6,0.3,76.6-4.4c6-5.8-46.1-31.8-38.3-31.6C469.8,196.1,508.1,202.2,508.3,192.2z"/>
	<path fill="#C49A6C" stroke="#C49A6C" stroke-width="3.346" stroke-miterlimit="10" d="M291.1,232.5c0,0-0.7-16.2-1.5-25.6
		c0,0-8.4,4-29.7-4.5c-2.5-1-11.3-2.9-21.3-13.5c-4.6-4.9-5.4-11.3-6.3-15.7c-1.8-9.1,0.8-9.8,1.3-20.9c0,0,2.2-0.6-3.4-5.5
		c-0.7-0.7-4.4-0.6-5.3-0.2c-2,1-5.6,2.1-9.4,0.9c-5.7-1.8-7.7-7.6-9-11c-0.9-2.6-3.6-10.1,0.2-13.6c2.8-2.6,7.8-1.9,10.9-0.8
		c9.7,3.7,11.1,16.1,14.3,15.6c2.7-0.4-3.1-6.5,0.6-20.8c1.1-4,1.6-5.8,7.7-12.4c4.4-4.8,8.7-11.2,12.2-16.4c2.9-4.2,1.6-18.3,5-19
		c6.5-1.3,8.1,5.9,20.7,10.3c15.9,5.5,19.9-3.6,38.1,0.6c9.2,2.1,5.7,3.9,34.3,16.9c6.9,3.2,9.4,4.2,11.7,7.4
		c8.3,11.6,0.4,28.9,1.5,30.5c0.9,1.3,6.6-9.3,17.2-9.4c3.7,0,9.1,1.3,10.8,4.7c4.6,8.4-6.8,14.7-14.8,28
		c-6.1,10.1-6.9,23.6-11.6,32c-3.8,6.8-8.7,12.2-20.8,16.2c-14.5,4.8-28,5.7-33.8,2.5l0,0c-5.4,8.9-1.2,18-1.2,18c0,1.1,0,2.8,0,5
		c-1.3,1.1-3.7,2.4-6.9,3.3c-1,0.3-1.9,0.4-3.3,0.4C294.6,235.4,291.1,232.5,291.1,232.5z"/>
	<path fill="#EC008C" stroke="#000000" stroke-width="3.346" stroke-miterlimit="10" d="M321.2,227c3.8-2.9,9.1-1.6,17.3,0.3
		c3.9,0.9,9.2,2.1,15.6,5.7c9.6,5.2,14.2,11.2,23,18.2c12.3,9.8,21.5,21.2,33.6,30.8c0.2,0.1,10.3,5.7,21.4,14.9
		c3.1,2.6,6.5,5.6,7.4,10.4c1.1,5.2-0.9,11.6-3.9,12.4c-2.1,0.5-3.1-1.8-9.1-5.6c-4.1-2.5-7.6-4.6-11.8-4.5
		c-4.3,0.1-4.8,2.5-8.2,2.6c-6.3,0.2-14.3-9.2-18.9-12.5c-4.2-3-9.8-5.8-16.5-12.3c-3.3-3.3-4.4-5.8-6.5-5.5
		c-3.3,0.4-2.5,7.2-8.4,16.1c-3.8,5.7-4.2,6.4-6.1,11.3c-1.6,4.4-2.7,17.7-0.4,26.5c0,0,1.8,0.8,2.2,9.1l1.3,5.5
		c-0.9,2-7.3-0.5-17.3-0.3c-10.1,0.2-11.4,2.1-16.3,0.9c-5.5-1.4-5.8-3.8-12.1-6.3c-5.3-2.1-12.1-1.8-13.9-1.3
		c-5.4,1.3-6.3,2.9-12.5,4.9c-1.8,0.6-0.8-0.1-5.8,0.5c-8.3,1.1-13.5,1.1-18.4,0.3c-4.5-0.7-5.1-1.3-5.4-1.7c-2.3-3,0.6-7.7,3-17.1
		c0.8-3,2.9-10.1,0.8-18.9c-0.9-3.4-3.5-6.6-7.8-14.9c-5.1-9.9-4.4-10.1-6.1-15.2c-0.9-2.7-1.1-2.6-9.1-10.8
		c-7.8-8-7.3-6.9-11.5-11.7c-3.7-4.2-14-15.6-16.1-19.5c-1.5-2.9-24.1-40.2-28.8-45.6c-2.5-2.9-17.5-30.4-18.2-31.6
		c-3.9-6.5,13.2-1.5,11.3-1.7c-9.2-0.7,2.8-3.9,10.7-6.2c6.4-1.7,2.5-16,4.6-10.7c2.9,7.6,10.4,21.1,17.3,32
		c5.9,9.2,4.6,5.9,12.4,18.7c6.9,11.5,16.9,22.1,20.1,25.5c9.1,9.3,13.8,14,22.7,10.4c3.6-1.4,7.5-2.5,15.7-4.1
		c9.8-1.8,11.5-1.2,12.4-0.4c3.4,2.7,0.6,7.3,4.1,11.9c3.7,4.6,10.4,4.9,12.9,5c2.6,0.1,7.9,0.3,11.9-3.1
		C319.4,235.3,317,230.3,321.2,227z"/>
	<polygon fill="#FFF200" stroke="#000000" stroke-width="3.346" stroke-miterlimit="10" points="316.7,260.5 336.9,281.8 
		315.9,311.3 274.3,310.6 254.2,281.2 275.6,259.9 	"/>
	<polygon fill="#FFFFFF" stroke="#000000" stroke-width="3.346" stroke-miterlimit="10" points="321.8,281.6 308.5,300.3 284,300 
		269.3,280.9 276.5,271.7 313.8,272.3 	"/>
	<path fill="#FFF200" stroke="#000000" stroke-width="3.346" stroke-miterlimit="10" d="M432.7,320.6c0.9,3.6-3.6,9.9-11.7,17.7
		c-17.4,16.9-19.6,14.5-26.9,23.4c-7,8.7-8.4,15.2-18.2,22c-4.2,2.9-7.1,3.9-9.8,3.1c-5.2-1.5-6.9-9.5-7.9-14.2
		c-1.2-5.4-2.5-11.9,1.3-16.8c3-3.7,7.5-4.6,10.9-5.3c7.4-1.4,9.1,1.3,13,0.2c11.2-3.2,6.5-31.4,20-37.6c5.5-2.5,11.6-2,14.5-1.2
		C421.2,312.9,431.4,315.4,432.7,320.6z"/>
	<path fill="#F7941E" stroke="#000000" stroke-width="3.346" stroke-miterlimit="10" d="M352.7,353.4c1.1,3.9,2,8,3.1,11.9
		l-35.2-0.5l-3.6-13L352.7,353.4z"/>
	<polygon fill="#F7941E" stroke="#000000" stroke-width="3.346" stroke-miterlimit="10" points="277.5,352 277.3,366.4 245.4,363.8 
		249.4,350.9 	"/>
	<path fill="#ED1C24" stroke="#000000" stroke-width="3.346" stroke-miterlimit="10" d="M315.9,354c0.5,0.9,4,7.6,0.9,14.1
		c-4,8.4-15.7,8.4-18,8.4c-2.6,0-15.2-0.4-19.8-10c-0.2-0.4-3.7-7.9,0.2-14.6c5.4-9.4,19.6-7.5,21.2-7.2
		C302.9,344.9,311.7,346.3,315.9,354z"/>
	<path fill="#FFFFFF" stroke="#000000" stroke-width="3.346" stroke-miterlimit="10" d="M307.2,356c2,3.1,1.5,7.5-0.7,10.3
		c-3.7,4.3-11.3,3.4-15.1-0.2c-2.2-1.9-4.5-6-3.1-9.2c1.4-3.3,5.8-3.9,7.6-4.2C297.5,352.3,304.2,351.4,307.2,356z"/>
	<path fill="#EC008C" stroke="#000000" stroke-width="3.346" stroke-miterlimit="10" d="M355.7,367.6c0,0,3.1,9.1,6,19.6
		c0.5,1.7,2.3,9.5,3.6,14.2c7.5,27.9,5.1,55.9,8.1,58.6c3.9,3.8,4.4,6.6,5.5,11.8c1.3,6.5,1.3,9.9,1.3,15.8c0.1,3,1.4,5.1,1,7
		c-0.6,2.7-5.1,3.9-8.2,4.7c-1.7,0.5-9.1,1.4-14.7,1c-6.2-0.5-13.5-3.4-13.5-3.4v-2.1c0,0-0.6-7.3-1.7-11
		c-3.7-10.9-8.6-18.1-15.4-26.3c-21.4-25.4-22.4-38.7-27.3-40.5c0,0-9.1,13.2-33.9,42.3c-7.5,8.9-13.5,14.7-13.9,24.2
		c-0.2,5.5,1.5,10.8-1.8,14.1c-0.8,0.8-2.1,1.6-10.3,2c-14.8,0.6-19.2-2.1-20.5-3c-1.4-1-4.1-2.9-4.2-5.5c-0.1-2.4-0.5-4.4,0.1-7.5
		c1.3-7.4,0.9-9.4,4.8-16c1.7-2.9,3-6.8,4.7-10.3c3.6-7.4,0.1-28.6,4.8-48.7c2.6-11.1,0.8-20,4.3-23.5c6.4-6,10.8-19.1,10.8-19.1
		s28.8-0.9,31.8,1.3c7.9,5.8,6.7,9,21.6,9.1c12.9,0.2,18-8.4,21.5-9.3C331.7,364.1,355.7,367.6,355.7,367.6z"/>
	<path fill="#FFF200" stroke="#000000" stroke-width="3.346" stroke-miterlimit="10" d="M385.1,506.4c-0.1-5.2,0.4-9.5-2-10.9
		c-1.3-0.7-2.6,0-6,1c-3.9,1.2-8,2.5-11.9,2.5c-6.5,0.1-18.5-1.4-19.5-0.3c-3.6,4,3.7,16.3,8.9,25c7.6,12.8,10,12.8,11.1,19.1
		c1,5.7-0.8,6.7-0.3,19.5c0.4,9.1,1.4,11.7,2,13c1,2.2,2.6,4.7,10.7,11.6c8.2,6.9,12.3,10.4,16.1,11.6c1.1,0.4,13.4,4.2,22.2-2.4
		c1.4-1.1,4.1-3.1,5-6.5c0.3-1.3,1.1-5.4-5.8-14.2c-6.9-9-11.5-9.6-20.2-19.7c-3.5-3.9-5.1-5.9-6.4-8.8c-2.8-6.4-0.7-9.2-1.3-21.7
		C386.9,514.3,385.3,516.2,385.1,506.4z"/>
	<path fill="#FFF200" stroke="#000000" stroke-width="3.346" stroke-miterlimit="10" d="M245.4,513.1c2.9-5.3,7.9-14.4,5.1-17.2
		c-1.3-1.3-3.5,0-10.3,1c-7.4,1.1-15.3,2.1-20.5-1.9c-3.4-2.6-3.3-5.6-4.8-5.5c-4.1,0.3-6,22.8-6.4,27.4c-1.6,19.5,1,20.8-2,27.5
		c-2.1,4.9-3.9,5-20.9,21.9c-12.2,12.1-15,15.7-14.3,19.8c1.1,6,8.8,9.1,10.7,9.9c9.1,3.8,17.9-0.1,19.5-0.8
		c5.1-2.3,4.5-4.2,15.3-13.3c7.9-6.6,8.6-6,9.8-8.5c2.5-5,0.4-8.5,0.9-21.7c0.2-4.2,0.3-6.3,0.7-8.7
		C230.3,531.6,237.1,528.5,245.4,513.1z"/>
	<path fill="#00AEEF" stroke="#000000" stroke-width="3.346" stroke-miterlimit="10" d="M211.3,247c0,0-2.9,3.1-11.5,8.5
		c-7.3,4.5-22.3,15.9-35.6,35.2c-12.5,18.2-10.9,25.9-26.6,45.6c-12.1,15.1-20,19.4-23,20.8c-12.1,5.8-25.4,6.3-32,6.1
		c-13.9-0.5-18.7-4.4-21.6-1.3c-5.1,5.3,2.5,25.1,15.7,37.6c6.6,6.3,16.5,11.3,35.9,21.1c10.3,5.2,9.3,4.2,12.3,6.2
		c18,11.4,15.7,23.3,29.3,32.8c11.7,8.4,13.3,10.1,37.8,10.3c14.3,0.1,22.7,10.3,25.2,6.8c0.6-0.8,1.3-0.9,3.6-5.2
		c2.8-5.4,4.2-9.1,6.8-14.6c2.3-4.8-3.6-22.8,2.5-46.4c2.7-10.6,6.2-21.5,10.2-30c6.2-13,1.4-3.4,6.2-13c3.5-7.3,8.9-32.1,10.7-37.6
		c4.4-13-13-39.6-12.5-46.2c0.2-2-13.8-14.8-23.6-25.3C217,253.9,212.5,248.4,211.3,247z"/>
	<path fill="#00AEEF" stroke="#000000" stroke-width="3.346" stroke-miterlimit="10" d="M256.2,475.9c1.3,1.4,26.5-8.6,42.5-7.5
		c24.2,1.6,40.7,13.7,43,10.9c2.4-3-8.8-10.4-21.4-29.6c-5.9-9-17.3-32.6-19.9-32.6c-2.3-0.1-13.3,17.4-24.5,30.6
		C264.5,461.1,255.3,474.7,256.2,475.9z"/>
	<path fill="#00AEEF" stroke="#000000" stroke-width="3.346" stroke-miterlimit="10" d="M380.3,468c6.2,6.8,14.3-8.9,30-14.2
		s19.2,3.3,32.5-1.2c19-6.3,14.4-24.7,36.8-37.4c3.9-2.2,15.2-5.6,38-12.4c19-5.7,21.7-6,22.8-8.9c4.4-10.6-24.6-23.2-53.2-61.3
		c-16.5-22-14.5-27.9-31.3-44.8c-10.8-10.9-20.6-17.3-40.2-30.3c-15.6-10.4-26.9-16.3-40.3-20.6c-7.8-2.5-23.8-3.6-23.8-3.6
		s7.2,7,22.4,18.7c22,16.9,18.2,17,35.2,29.8c19,14.1,28.4,17.3,29.4,27c0.5,5-1.5,8.9-4.5,14.5c-5,9.4-9.9,11.6-24.2,25
		c-11.7,11-17.4,16.6-20.9,21.4c-4.5,6.4-7,11.7-13.8,14.9c-6.8,3.3-13.7-1.3-13,3.1c0.9,6.1,8,20.2,8.3,48.3
		c0.1,6.6,0.4,13.8,1.8,22C373.3,462.4,376.6,464,380.3,468z"/>
	<g>
		<path fill="#00AEEF" stroke="#000000" stroke-width="3.346" stroke-miterlimit="10" d="M362.3,282.5c5.8-4,5.9,3.6,20.6,14
			c11,7.7,19.3,9.7,19.1,13.4c-0.1,2.5-0.1,2.5-3.2,7.2c-5.8,8.9-3.6,24.8-12.1,32c-5.9,5-14.9-2.4-22.8,3.6
			c-7,5.3-8.2,13.3-10.6,12.9c-2-0.3-2.3-7.1-2.8-13c-0.8-8.7-4-14.7-5-19.9c-1.6-8.8-1.1-16-0.5-18.9c0.5-2.5,4.5-7.2,7.2-14.7
			C354.4,292.6,359.9,284.3,362.3,282.5z"/>
	</g>
	<path fill="#FFF200" stroke="#000000" stroke-width="3.346" stroke-miterlimit="10" d="M316.8,227.4c-0.2-0.2-0.1,0.9-2.7-0.5
		c-2.2-1.2-1.9-1-1.9-1s0,3.4-1,6.1c-1.4,3.8-6.6,5.3-8.5,5.5c-1.9,0.2-9.4,0.3-11.7-3.2c-1.8-2.7-1.6-8.8-1.6-8.8l-6.7-0.1
		c0,0,1.3,9.4,4.1,12.7c3.5,4,7.6,4.6,10.5,5c2.8,0.4,9.1,1.2,14.3-2.9C316.2,236.8,318.4,229.4,316.8,227.4z"/>
	<path fill="none" stroke="#A97C50" stroke-width="3.346" stroke-miterlimit="10" d="M222.3,138.4c0.6-0.8-1.3-3.5-3.7-4.7
		c-2.8-1.4-6.4-1.1-6.5-0.1C211.7,135.2,221.4,139.8,222.3,138.4z"/>
	<path fill="none" stroke="#A97C50" stroke-width="3.346" stroke-miterlimit="10" d="M369.7,142.5c-0.4-0.8,3.1-3.8,7-4.8
		c3.4-1,7.4-0.7,7.6,0.1C384.5,139.3,370.4,143.8,369.7,142.5z"/>
	<g>
		<path fill="#FFFFFF" stroke="#000000" stroke-width="3.346" stroke-miterlimit="10" d="M348.1,145.5c-3.1,1.7-5.8-3.1-13.8-3.2
			c-7.5-0.1-10.5,3.9-12.9,2.1c-3-2.3-0.1-10.3,3.3-19.7c2.7-7.5,4.9-10.7,8.1-12.7c1.3-0.9,3.9-2.5,6.6-1.9
			c1.3,0.3,4.3,1.4,7.4,10.7C347.3,122.3,354,142.1,348.1,145.5z"/>
		<path fill="#2B3990" stroke="#000000" stroke-width="3.346" stroke-miterlimit="10" d="M343.8,140.1c4.4-5.7,1.9-12.6,1.5-13.9
			c-0.2-0.5-3.6-9.1-9.7-9.1c-5.8,0.1-8.9,7.6-9.3,8.8c-2.3,5.6,1.3,17,8.8,16.7C340.1,142.3,340.3,144.4,343.8,140.1z"/>
		<path fill="#1C75BC" stroke="#000000" stroke-width="3.346" stroke-miterlimit="10" d="M334.7,142.2c3.6-0.3,4.7-0.8,5-4.8
			c0.1-1.8-0.9-6.7-4.3-6.7c-3.4,0-4.6,1.2-4.9,5.6C330.3,139.4,331.3,142.5,334.7,142.2z"/>
	</g>
	<path fill="none" stroke="#3C2415" stroke-width="3.346" stroke-miterlimit="10" d="M291,96.4c-5-1.7-15.1-0.2-22.8,8.4"/>
	<path fill="none" stroke="#3C2415" stroke-width="3.346" stroke-miterlimit="10" d="M348.6,105.9c0.1-4.8-10.1-8.9-22.7-9.1"/>
	<line fill="none" stroke="#000000" stroke-width="3.346" stroke-miterlimit="10" x1="278.7" y1="103.8" x2="278.7" y2="103.8"/>
	<g>
		<path fill="none" stroke="#A97C50" stroke-width="3.346" stroke-miterlimit="10" d="M310.2,160.5c-0.6-0.3-4.5-2.4-8.7-0.8
			c-3.7,1.4-7,5.6-6,9.7c0.8,3.1,3.7,5.1,6.2,5.7c3.3,0.8,6.8-0.4,9.1-3.1"/>
	</g>
	<path fill="none" stroke="#BE1E2D" stroke-width="3.346" stroke-miterlimit="10" d="M351.7,181c-1.3-2.2-5.4-4.4-5.4-4.4
		s-3.5,4.5-6,7.6c-8.2,10.2-19.8,13-23.9,13.8c-6.4,1.2-11.4,0.6-16.1,0c-3.7-0.5-9.6-0.7-16.1-4c-3.5-1.8-7-3.8-12.1-7.4
		c-5.6-4-6.4-5.5-6.4-5.5c-3.8-3.8-4.8-4.6-4.8-4.6s-2,2.3-2.7,3.9"/>
	<g>
		<path fill="#FFFFFF" stroke="#000000" stroke-width="3.346" stroke-miterlimit="10" d="M293.3,144.6c-3.1,1.7-5.8-3.1-13.8-3.2
			c-7.5-0.1-10.5,3.9-12.9,2.1c-3-2.3-0.1-10.3,3.3-19.7c2.7-7.5,4.9-10.7,8.1-12.7c1.3-0.9,3.9-2.5,6.6-1.9
			c1.3,0.3,4.3,1.4,7.4,10.7C292.5,121.5,299.2,141.3,293.3,144.6z"/>
		<path fill="#2B3990" stroke="#000000" stroke-width="3.346" stroke-miterlimit="10" d="M289,139.3c4.4-5.7,1.9-12.6,1.5-13.9
			c-0.2-0.5-3.6-9.1-9.7-9.1c-5.8,0.1-8.9,7.6-9.3,8.8c-2.3,5.6,1.3,17,8.8,16.7C285.3,141.5,285.5,143.6,289,139.3z"/>
		<path fill="#1C75BC" stroke="#000000" stroke-width="3.346" stroke-miterlimit="10" d="M280,141.4c3.6-0.3,4.7-0.8,5-4.8
			c0.1-1.8-0.9-6.7-4.3-6.7c-3.4,0-4.6,1.2-4.9,5.6C275.5,138.6,276.5,141.6,280,141.4z"/>
	</g>
	
		<use xlink:href="#Brown_Hair_4"  width="22.6" height="15.3" x="-11.3" y="-7.7" transform="matrix(-2.32 -3.351768e-02 6.136537e-02 -4.2475 229.3143 81.6688)" overflow="visible"/>
	
		<use xlink:href="#Brown_Hair_4"  width="22.6" height="15.3" x="-11.3" y="-7.7" transform="matrix(-2.32 -3.351768e-02 6.136537e-02 -4.2475 221.2526 67.0499)" overflow="visible" enable-background="new    "/>
	
		<use xlink:href="#Brown_Hair_4"  width="22.6" height="15.3" x="-11.3" y="-7.7" transform="matrix(7.9892 0.1154 7.126594e-02 -4.9327 348.1095 88.6507)" overflow="visible" enable-background="new    "/>
	
		<use xlink:href="#Brown_Hair_4"  width="22.6" height="15.3" x="-11.3" y="-7.7" transform="matrix(6.7203 -0.9351 -0.6893 -4.9545 339.6712 63.4132)" overflow="visible" enable-background="new    "/>
	
		<use xlink:href="#Brown_Hair_4"  width="22.6" height="15.3" x="-11.3" y="-7.7" transform="matrix(5.0194 -1.5695 -0.8153 -2.6075 317.5289 33.4074)" overflow="visible" enable-background="new    "/>
	
		<use xlink:href="#Brown_Hair_4"  width="22.6" height="15.3" x="-11.3" y="-7.7" transform="matrix(5.2476 -0.3481 -0.1808 -2.726 436.9259 176.8773)" overflow="visible" enable-background="new    "/>
	
		<use xlink:href="#Brown_Hair_4"  width="22.6" height="15.3" x="-11.3" y="-7.7" transform="matrix(5.4864 0.2971 0.1478 -2.7281 430.9099 201.2412)" overflow="visible" enable-background="new    "/>
	
		<use xlink:href="#Brown_Hair_4"  width="22.6" height="15.3" x="-11.3" y="-7.7" transform="matrix(3.9818 0.1627 0.1017 -2.4883 402.5949 222.1106)" overflow="visible" enable-background="new    "/>
	
		<use xlink:href="#Brown_Hair_4"  width="22.6" height="15.3" x="-11.3" y="-7.7" transform="matrix(3.4219 0.1398 7.257576e-02 -1.776 368.7912 228.1754)" overflow="visible" enable-background="new    "/>
	<path fill="#FFF200" stroke="#000000" stroke-width="3.346" stroke-miterlimit="10" d="M158.7,163.5c-13.1-8-7-50.2-28-52.9
		c-11.7-1.5-13.8-4.4-13.6-5c0.1-0.5,13.7,0.6,13.5-3.9c-0.2-4.1-14.6-4.3-14.7-3.8c-0.1,0.6,14.5-0.6,14.3-4.7
		c-0.1-3.6-15.8-1.6-15.9-1.7c0-0.1,15.4-3,15.3-4.7c-0.2-2.9-16-2.6-15.9-2.8c0-0.2,15.1,0.3,15.4-1.6c0.7-3.7-16.2-7.2-15.6-7.1
		c0.3,0,10.8,4.6,13.1,1.7c2.2-2.7-3-9.6-2.1-13.6c0.5-2.2,5.4-3.5,6.9-1.1c2,3.3,3.8,8.1,3.9,10.4c0.2,5.1,1.4,10.5,16.9,30.5
		c26.8,34.9,39,41.2,36.4,50C185.6,162.4,167.7,169,158.7,163.5z"/>
	<path fill="none" stroke="#000000" stroke-width="3.346" stroke-miterlimit="10" d="M113.4,75.2c0,3.1,0.1,6.1,0.2,8.9
		c0.1,2.8,0.3,5.4,0.4,7.7c0.2,2.4,0.4,4.6,0.7,6.5c0.6,4.5,1.4,7.3,2.3,7.3"/>
	<g>
		<g>
			<path d="M114.3,77.9c0,1.2-0.4,3.4,0.4,4.3c0.7,0.9,1.3,0.5,2.2,0.4c1.5-0.1,3,0.8,4.6,0.7c1.7,0,3.4-0.4,4.9-1
				c0.8-0.3,0.8-1.3,0-1.5c-1.9-0.7-3.7-1.5-5.6-2.2c-1.3-0.6-3.2-1.5-4.6-1.3c-0.4,0-0.7,0.2-0.8,0.6c-0.4,1.3-0.6,2.9,0.9,3.3
				c0.6,0.2,1.3,0,1.9,0.2c0.6,0.2,1.2,0.5,1.7,0.7c1.1,0.4,2,0.7,3.1,0.5c0.9-0.1,1.1-1.3,0.2-1.5c-2.1-0.8-4.1-1.7-6.4-2.1
				c-1-0.2-1.4,1.4-0.4,1.5c2.2,0.3,4.2,1.3,6.4,2.1c0.1-0.5,0.1-1.1,0.2-1.5c-1.6,0.2-2.9-0.7-4.4-1.2c-0.3-0.1-1.1-0.4-1.3-0.3
				c-0.7-0.2-0.8,0-0.4,0.4c0-0.6,0.1-1.1,0.2-1.6c-0.3,0.2-0.5,0.4-0.8,0.6c1.5-0.2,3.9,1.2,5.2,1.7c1.5,0.7,3,1.3,4.5,1.8
				c0-0.5,0-1.1,0-1.5c-2.7,0.9-5,1.1-7.7,0.3c-0.7-0.2-1.3-0.2-1.9-0.2c-0.9-0.1-0.3,0.4-0.4-0.4c-0.1-0.9-0.1-1.7,0-2.6
				C115.9,76.8,114.4,76.8,114.3,77.9L114.3,77.9z"/>
		</g>
	</g>
	<g>
		<g>
			<path d="M114.5,86.1c0.1,1.3,0.2,2.8,0.3,4.1c0.1,0.8,1.1,1.2,1.5,0.4c0.7-1.3,3.8-1.3,5-1.6c1.6-0.4,3.2-0.9,4.7-1.3
				c0.6-0.2,0.8-0.9,0.4-1.3c-1.4-1.6-3.7-1.3-5.6-1.3c-1.3,0-4.9-0.8-5.4,1c-0.3,1.1,0.4,2.4,1.4,2.4c1.3,0.1,2.6-0.3,3.9-0.3
				c1.3,0.1,2.6,0,3.9-0.3c1-0.3,0.6-1.8-0.4-1.5c-1.5,0.4-3,0.2-4.5,0.2c-0.5,0-1,0-1.4,0.1c-0.2,0-1.7,0.1-1.3,0.2
				c2.3,0.5,6.5-1.3,8.4,0.8c0.1-0.5,0.2-0.9,0.4-1.3c-2.4,0.7-4.7,1.3-7.2,1.7c-1.5,0.2-2.8,0.5-3.6,1.9c0.5,0.1,1,0.3,1.5,0.4
				c-0.1-1.3-0.2-2.8-0.3-4.1C116,85.1,114.4,85.1,114.5,86.1L114.5,86.1z"/>
		</g>
	</g>
	<g>
		<g>
			<path d="M119.4,87.4c0.7,0,2-0.3,2.7,0c0.4,0.2,0.7,0.6,1.1,0.7c0.6,0.2,1.3,0.1,1.9,0.1c0.8,0,1.7,0.1,2.5-0.2
				c0.4-0.1,0.6-0.4,0.6-0.8v-0.1c0-0.3-0.2-0.6-0.4-0.7c0,0-0.1,0-0.1-0.1c-0.9-0.6-1.6,0.9-0.8,1.3c0,0,0.1,0,0.1,0.1
				c-0.1-0.2-0.3-0.5-0.4-0.7v0.1c0.2-0.3,0.4-0.5,0.6-0.8c-0.7,0.2-1.6,0.2-2.3,0.1c-0.5,0.1-1,0-1.4-0.3c-0.2-0.1-0.3-0.2-0.5-0.4
				c-1.1-0.4-2.3-0.2-3.5-0.2C118.3,85.8,118.3,87.4,119.4,87.4L119.4,87.4z"/>
		</g>
	</g>
	<g>
		<g>
			<path d="M115.7,89.3c0.4,0,0.8,0,1.2,0c1.1,0,1.1-1.6,0-1.6c-0.4,0-0.8,0-1.2,0C114.8,87.7,114.8,89.3,115.7,89.3L115.7,89.3z"/>
		</g>
	</g>
	<g>
		<g>
			<path d="M115.3,94.1c4.3,0,8.8,0,13.1,0c-0.1-0.5-0.1-1.1-0.2-1.5c-2.7,0.8-5.4,1.5-8.1,2.3c-0.7,0.2-1.3,0.3-1.9,0.6
				c-0.3,0-0.6,0.2-0.8,0.3c-0.3,0.3-0.4,0.3-0.4-0.2c-1.3-0.9,2-0.5,2.6-0.5c1.3,0,2.6-0.1,3.9-0.3c0.2,0,1.9-0.2,1.9-0.2
				c0-0.2-1.6-0.2-1.8-0.2c-0.9,0.1-1.6,0.4-2.4,0.7c-0.4,0.2-0.9,0.5-1.3,0.6c-0.5,0.4-1,0.3-1.4-0.2c-0.9-0.1-1.2-0.3-0.7-0.7
				c0.1,0.5,0.1,1,0.2,1.4c0.2-0.1,0.4-0.2,0.6-0.3c1.1-0.1,1.1-1.6,0-1.6c-0.7,0-0.9,0-1.4,0.5c-0.5,0.4-0.6,1.3,0.2,1.4
				c1.4,0.2,2.4-1.3,1.2-2.4c-1.2-1-2.3-0.1-2.5,1.2c-0.3,2.6,2.2,2.9,4.1,2.3c0.8-0.3,1.5-0.8,2.4-1c1-0.3,1.8-0.2,2.8-0.4
				c0.8-0.1,1.7-0.4,2.1-1.2c1.1-2-1.7-1.9-2.9-1.8c-2.3,0.2-4.6,0.4-6.9,0.3c-0.9,0-1.7-0.3-2.2,0.6c-0.6,1,0.2,3.2,1.3,3.5
				c1.3,0.4,4.2-1.1,5.5-1.4c2.2-0.7,4.4-1.3,6.6-1.9c0.9-0.3,0.7-1.5-0.2-1.5c-4.3,0-8.8,0-13.1,0
				C114.4,92.5,114.4,94.1,115.3,94.1L115.3,94.1z"/>
		</g>
	</g>
	<g>
		<g>
			<path d="M116,100.8c2.5-0.1,5-0.2,7.5,0.1c1.2,0.1,2.6,0.2,3.8,0.6c0.6,0.2,0.6,0.1,0.1-0.2c-0.7,0.3-1.4,0.6-2.1,0.9
				c-1.1,0.4-2.1,0.7-3.3,0.9c-0.2,0-5.1,0.9-4.2-1c0.3-0.5,3.8-0.7,4.3-0.8c0.7-0.1,4.5-0.1,1.7,0.6c-0.9,0.2-1.7,0.3-2.6,0.5
				c-1.3,0.2-3.5,0.5-1-0.1c0.9-0.2,1.8-0.4,2.8-0.5c0.8,0.2,1.3,0.1,1.8-0.4c-0.1,0-0.1,0-0.2,0c-1.2,0.1-2.4,0.4-3.5,0.7
				c-0.6,0.2-1.2,0.3-1.7,0.5c0.2,0.7,0.5,0.8,1.1,0.3c1,0,2.1-0.5,3.1-0.6c1.1-0.1,0.6-1.6-0.4-1.5c-1.5,0.2-7,0.8-4.9,3.5
				c0.2,0.2,0.6,0.3,0.8,0.2c2.2-0.8,4.4-1,6.7-1.5c0.7-0.2,1.2-0.3,1.3-1.1c0.4-2.2-3.3-1.8-4.4-1.6c-1.3,0.2-6.4,0.1-5.9,2.7
				c0.6,2.6,5.7,0.9,7,0.6s4-1.4,2.5-3.1c-0.8-0.9-2.3-0.9-3.4-0.8c-1.7,0.2-3.5,0.6-5.2,0.6c-2.1,0.1-2.3,2.9-0.9,4.2
				c1.5,1.4,6.2,0.1,7.9-0.4c1-0.3,6-1.6,3.9-3.6c-1-1-3.6-0.9-4.9-1c-2.6-0.3-5.3-0.3-8-0.2C114.9,99.3,114.9,100.9,116,100.8
				L116,100.8z"/>
		</g>
	</g>
</g>
</svg>
