<?xml version="1.0" encoding="utf-8"?>
<!-- Generator: Adobe Illustrator 18.1.0, SVG Export Plug-In . SVG Version: 6.00 Build 0)  -->
<!DOCTYPE svg PUBLIC "-//W3C//DTD SVG 1.1//EN" "http://www.w3.org/Graphics/SVG/1.1/DTD/svg11.dtd">
<svg version="1.1" id="Layer_1" xmlns="http://www.w3.org/2000/svg" xmlns:xlink="http://www.w3.org/1999/xlink" x="0px" y="0px"
	 viewBox="0 0 151.6 181.9" enable-background="new 0 0 151.6 181.9" xml:space="preserve">
<path fill="#593B2B" stroke="#593B2B" stroke-miterlimit="10" d="M79.1,67.1c0,0,0.3-5,0.6-8c0,0,2.6,1.3,9.3-1.3
	c0.8-0.3,3.5-0.8,6.7-4.1c1.5-1.5,1.7-3.5,2-4.9c0.6-2.8-0.2-3.1-0.3-6.5c0,0-0.7-0.2,1.1-1.7c0.2-0.2,1.4-0.2,1.7,0
	c0.6,0.3,1.7,0.7,2.9,0.3c1.8-0.5,2.4-2.4,2.8-3.4c0.3-0.8,1.1-3.1,0-4.2c-0.8-0.8-2.4-0.6-3.4-0.3c-3.1,1.1-3.5,5-4.5,4.8
	c-0.8-0.1,0.2-1.7-0.9-6.2c-0.3-1.3-0.2-1.6-1.6-4.2c-1-1.8-2.1-4.1-3.7-5.2c-1.8-1.1-3.5-2.2-8.2-2.5c-5.2-0.4-6-0.1-11.7-0.3
	c-2.4-0.1-5.9-0.1-11,2.2c-1.9,0.9-3.1,8.3-3.9,9.3c-2.6,3.6,0,4.4-0.2,5.4c0,0,0,0,0,0c-0.2,0.1-1.1-1.2-2.2-2
	c-0.3-0.2-1.5-1.1-3-1.1c-1,0-2.8,0.3-3.4,1.4c-1.5,2.6,1.4,5.1,4.5,6.8c3.3,1.7,2,9.4,3.4,12.1c1.1,2.2,2.6,3.8,6.4,5.2
	c4.5,1.6,8.7,1.9,10.5,0.9c0,0,0,0,0,0c1.7,2.8,0.3,5.6,0.3,5.6c0,0.3,0,0.9,0,1.6c0.4,0.3,1.1,0.8,2.1,1c0.3,0.1,0.6,0.1,1,0.1
	C78,68,79.1,67.1,79.1,67.1z"/>
<path fill="#8DC63F" stroke="#000000" stroke-miterlimit="10" d="M70.6,65.6c-1.2-0.9-2.8-0.5-5.4,0c-1.2,0.3-2.9,0.6-4.9,1.7
	c-3,1.6-4.5,3.4-7.3,5.6c-3.9,3-6.8,6.5-10.6,9.4c-0.1,0-3.2,1.7-6.7,4.6c-1,0.8-2,1.7-2.4,3.2c-0.4,1.6,0.2,3.6,1.2,3.9
	c0.6,0.2,1-0.6,2.9-1.7c1.3-0.8,2.4-1.4,3.7-1.3c1.4,0.1,1.5,0.8,2.5,0.8c1.9,0.1,4.3-3.3,5.8-4.3c1.3-0.9,3.2-1.3,5.3-3.3
	c1-1,1.2-0.9,2.1-1.3c0.9-0.5,2.3-2.3,4.1,0.5c1.1,1.8,0.9,6.1,1,7.9c0.1,1.5,0,5.4-0.7,8.1c0,0-0.1,0.5-0.7,2.8l-0.4,1.7
	c0.3,0.6,2.3-0.1,5.4,0c3.1,0.1,3.5,0.7,5.1,0.3c1.7-0.4,1.8-1.2,3.8-1.9c1.7-0.6,3.8-0.5,4.3-0.4c1.7,0.4,1.9,0.9,3.9,1.6
	c0.6,0.2,0.3,0,1.8,0.2c2.6,0.4,4.2,0.4,5.7,0.2c1.4-0.2,1.6-0.4,1.7-0.5c0.7-0.9-0.7-2.4-1.3-5.4c-0.2-0.9-0.3-3.4-0.3-6.2
	c0-1.6-0.3-3,0.9-5.6c1.6-3.5,2.8-3.3,3.8-3.7c1.2-0.5,3.3,1.1,7.4,4.4c3.4,2.6,4.3,3.7,6.2,3.9c1.1,0.1,1.9-0.1,3.4,0.3
	c0.7,0.2,2.2,0.7,3.2,2c0.8,1,0.8,1.7,1.2,1.7c0.7,0,1.3-1.6,1.5-2.9c0.1-0.4,0.2-1.5-0.2-2.7c-0.6-2-2.2-3-3.7-4
	c0,0-0.5-0.4-7.6-5.6c-3-2.2-2.4-2-6.1-4.7c-3.8-2.8-4.1-2.8-5.6-4.2c-2.2-2.1-2.3-2.9-4-3.9c-1.1-0.6-2.3-0.8-4.9-1.3
	c-3.1-0.6-3.6-0.4-3.9-0.2c-1.1,0.8-0.2,2.3-1.3,3.7c-1.2,1.4-3.3,1.5-4,1.5c-0.8,0-2.5,0.1-3.7-1C71.2,68.1,72,66.6,70.6,65.6z"/>
<polygon fill="#262262" stroke="#000000" stroke-miterlimit="10" points="71,75.7 64.6,82.3 71,91.5 84,91.5 90.4,82.4 83.8,75.7 
	"/>
<polygon fill="#00A79D" stroke="#000000" stroke-miterlimit="10" points="69.3,82.3 73.3,88.2 81,88.2 85.7,82.3 83.5,79.4 
	71.8,79.4 "/>
<path stroke="#000000" stroke-miterlimit="10" d="M35,94.7c-0.3,1.1,0.6,2.3,3,4.7c5.3,5.3,6.1,4.6,8.3,7.4c2.2,2.7,2.6,4.8,5.6,6.9
	c1.3,0.9,2.2,1.2,3,1c1.6-0.5,2.2-2.9,2.5-4.4c0.4-1.7,0.8-3.7-0.3-5.2c-0.9-1.2-2.3-1.5-3.4-1.7c-2.3-0.5-2.9,0.3-4,0
	c-3.5-1-1.9-9.8-6.1-11.8c-1.7-0.8-4-0.5-5-0.2C37.7,91.7,35.5,93.1,35,94.7z"/>
<path stroke="#000000" stroke-miterlimit="10" d="M108.6,91.2c-3.8,1.5-2.3,9.8-6.4,11.8c-2.1,1-3.6-0.5-5.9,1
	c-2.3,1.5-2.7,4.3-2.7,4.6c-0.3,2.5,0.8,5.7,2.9,6.2c1.3,0.4,2.6-0.4,3.5-1c2.6-1.7,2.9-3.4,5.1-6.1c0.9-1.2,0.7-0.7,7.9-7.3
	c2.3-2.1,3.3-3.1,3.2-4.4c-0.1-1.9-2.1-4-2.7-4.3C112.7,91.3,110.4,90.5,108.6,91.2z"/>
<path fill="#F7941E" stroke="#000000" stroke-miterlimit="10" d="M59.3,104.5c-0.3,1.2-0.7,2.5-1,3.7h11l1.2-4L59.3,104.5z"/>
<polygon fill="#F7941E" stroke="#000000" stroke-miterlimit="10" points="82.8,104.4 82.8,108.9 92.7,108.2 91.6,104.2 "/>
<path fill="#2E3192" stroke="#000000" stroke-miterlimit="10" d="M70.8,104.9c-0.1,0.3-1.3,2.4-0.3,4.4c1.2,2.6,4.9,2.7,5.6,2.7
	c0.8,0,4.7,0,6.2-3c0.1-0.1,1.2-2.4,0-4.6c-1.6-3-6.1-2.4-6.6-2.4C74.9,102.1,72.2,102.5,70.8,104.9z"/>
<path fill="#00A79D" stroke="#000000" stroke-miterlimit="10" d="M73.5,105.5c-0.6,1-0.5,2.3,0.2,3.2c1.1,1.4,3.5,1.1,4.7,0
	c0.7-0.6,1.4-1.8,1-2.9c-0.4-1-1.8-1.3-2.4-1.3C76.5,104.4,74.5,104.1,73.5,105.5z"/>
<path fill="#8DC63F" stroke="#000000" stroke-miterlimit="10" d="M58.8,108.5c0,0-1.5,3.3-2.4,6.5c-0.2,0.5-0.8,3-1.2,4.4
	c-2.5,8.7-1.9,17.4-2.8,18.3c-1.3,1.2-1.4,2-1.8,3.7c-0.4,2-0.4,3.1-0.5,4.9c0,0.9-0.5,1.6-0.3,2.2c0.2,0.9,1.6,1.3,2.5,1.5
	c0.5,0.2,2.8,0.5,4.6,0.4c1.9-0.1,4.2-1,4.2-1l0-0.7c0,0,0.2-2.3,0.6-3.4c1.2-3.4,2.8-5.6,4.9-8.1c6.8-7.8,7.2-12,8.7-12.5
	c0,0,2.8,4.2,10.4,13.4c2.3,2.8,4.1,4.7,4.2,7.6c0,1.7-0.5,3.4,0.5,4.4c0.2,0.2,0.6,0.5,3.2,0.7c4.6,0.3,6-0.6,6.4-0.8
	c0.5-0.3,1.3-0.9,1.3-1.7c0-0.8,0.2-1.4,0-2.3c-0.4-2.3-0.2-2.9-1.4-5c-0.5-0.9-0.9-2.1-1.4-3.2c-1.1-2.3,0.1-8.9-1.3-15.2
	c-0.8-3.5-0.1-6.3-1.3-7.4c-1.9-1.9-3.3-6-3.3-6s-9-0.4-9.9,0.3c-2.5,1.8-2.1,2.8-6.8,2.8c-4,0-5.6-2.7-6.7-3
	C65.8,107.9,58.8,108.5,58.8,108.5z"/>
<path stroke="#000000" stroke-miterlimit="10" d="M48.5,152.1c0-1.6-0.1-3,0.7-3.4c0.4-0.2,0.8,0,1.9,0.3c1.2,0.4,2.5,0.8,3.7,0.8
	c2,0.1,5.8-0.4,6.1,0c1.1,1.3-1.2,5.1-2.9,7.8c-2.4,3.9-3.2,4-3.5,5.9c-0.3,1.8,0.2,2.1,0,6.1c-0.2,2.9-0.5,3.7-0.7,4
	c-0.3,0.7-0.8,1.5-3.4,3.5c-2.6,2.1-3.9,3.2-5.1,3.5c-0.3,0.1-4.2,1.3-6.9-0.8c-0.5-0.3-1.3-1-1.5-2c-0.1-0.4-0.3-1.7,1.9-4.4
	c2.2-2.8,3.6-2.9,6.4-6.1c1.1-1.2,1.6-1.8,2-2.7c0.9-2,0.2-2.9,0.5-6.7C47.9,154.6,48.5,155.1,48.5,152.1z"/>
<path stroke="#000000" stroke-miterlimit="10" d="M92.1,154.8c-0.9-1.7-2.4-4.6-1.5-5.4c0.4-0.4,1.1,0,3.2,0.3
	c2.3,0.4,4.8,0.7,6.4-0.5c1.1-0.8,1.1-1.7,1.5-1.7c1.3,0.1,1.8,7.1,1.9,8.6c0.4,6.1-0.4,6.5,0.5,8.6c0.6,1.5,1.2,1.6,6.4,6.9
	c3.8,3.8,4.6,5,4.4,6.2c-0.3,1.9-2.8,2.8-3.4,3c-2.9,1.1-5.6-0.1-6.1-0.3c-1.6-0.8-1.4-1.3-4.7-4.2c-2.4-2.1-2.6-1.9-3-2.7
	c-0.8-1.6-0.1-2.6-0.2-6.7c0-1.3,0-2-0.2-2.7C96.7,160.6,94.6,159.6,92.1,154.8z"/>
<path fill="#F7941E" stroke="#000000" stroke-miterlimit="10" d="M92.3,67.7c0,0,8.8,1.8,15.5,6.6c2.2,1.6,6.9,5,11,11.1
	c3.8,5.7,3.3,8.1,8.1,14.3c3.7,4.8,6.2,6.1,7.1,6.6c3.8,1.9,7.9,2.1,10,2c4.3-0.1,5.9-1.3,6.7-0.3c1.6,1.7-0.9,7.8-5.1,11.6
	c-2.1,1.9-5.2,3.4-11.3,6.4c-3.2,1.6-2.9,1.3-3.9,1.9c-5.7,3.5-5,7.2-9.3,10.1c-3.7,2.5-4.2,3.1-11.8,3c-4.5,0-7.4,2.7-8.3,1.8
	c-0.8-0.8,0.3,1.1-0.7-1.4c-0.6-1.8-1.3-2.9-2.1-4.6c-0.7-1.5,1.2-7.1-0.6-14.5c-0.8-3.3-1-7-1-7s1.8-0.5,3.7-1.4
	c2.5-1.2,3.2-3.4,4.7-5.9c3.9-6.4,7.7-5.2,11.3-11.6c1.2-2.2,2.3-4.1,1.9-6.4c-0.4-2.1-1.8-3.4-7.4-7.8c-3.9-3-5.6-4.6-8.1-6.1
	C97.5,73.2,91.9,68.2,92.3,67.7z"/>
<g>
	<path fill="#27AAE1" stroke="#000000" stroke-miterlimit="10" d="M94.4,82.8c1.8-1.3,3.2,0.8,7.8,4c3.4,2.4,6,3.1,5.9,4.2
		c0,0.8-0.9,0.5-1.5,2.1c-1.1,3.1-1,7.2-3.7,9.4c-1.9,1.5-4.4-0.4-6.9,1.4c-2.2,1.6-2.5,4.3-3.2,4.2c-0.6-0.1-0.7-2.2-0.8-4
		c-0.2-2.7-1.2-4.6-1.5-6.2c-0.5-2.7-0.3-5-0.1-5.9c0.2-0.8,1.4-2.2,2.3-4.6C93.3,85.5,93.7,83.3,94.4,82.8z"/>
</g>
<path fill="#F7941E" stroke="#000000" stroke-miterlimit="10" d="M88.9,143.2c-0.4,0.4-8.2-2.8-13.2-2.5c-7.5,0.4-12.8,4.1-13.4,3.2
	c-0.7-1,2.8-3.2,6.8-9.1c1.9-2.8,5.5-10.1,6.4-10.1c0.7,0,4.1,5.5,7.5,9.7C86.4,138.5,89.2,142.8,88.9,143.2z"/>
<path fill="#F7941E" stroke="#000000" stroke-miterlimit="10" d="M50.2,140.1c-2,2.1-4.4-2.8-9.3-4.6c-4.8-1.7-6,0.9-10.1-0.5
	c-5.9-2-4.4-7.7-11.3-11.8c-1.2-0.7-4.7-1.8-11.8-4c-5.9-1.9-6.7-1.9-7.1-2.9c-1.3-3.3,7.8-7.1,16.9-18.9c5.2-6.8,4.7-8.7,10-13.8
	c3.4-3.3,6.5-5.3,12.7-9.3c4.9-3.2,8.4-5,12.7-6.2c2.5-0.7,7.4-1,7.4-1s-2.3,2.2-7.1,5.7C46.2,78,47.3,78,42,81.9
	c-6,4.3-8.9,5.3-9.3,8.3c-0.2,1.5,0.4,2.8,1.3,4.6c1.5,3,3,3.7,7.4,7.9c3.6,3.5,5.4,5.2,6.4,6.7c1.4,2,2.1,3.7,4.2,4.7
	c2.1,1,4.3-0.3,4,1c-0.3,1.9-2.6,6.3-2.8,15c0,2.1-0.2,4.3-0.7,6.8C52.4,138.4,51.4,138.9,50.2,140.1z"/>
<g>
	<path fill="#F7941E" stroke="#000000" stroke-miterlimit="10" d="M94.4,82.8c2.1-0.5,3.2,0.8,7.8,4c3.4,2.4,6,3.1,5.9,4.2
		c0,0.8-0.9,0.5-1.5,2.1c-1.1,3.1-1,7.2-3.7,9.4c-1.9,1.5-4.4-0.4-6.9,1.4c-2.2,1.6-2.5,4.3-3.2,4.2c-0.6-0.1-0.7-2.2-0.8-4
		c-0.2-2.7-1.2-4.6-1.5-6.2c-0.5-2.7-0.2-5-0.3-5.9c-0.2-1.4-0.2-4.6,1.2-6.5C92.5,83.9,93.5,83,94.4,82.8z"/>
</g>
<g>
	<path fill="#F7941E" stroke="#000000" stroke-miterlimit="10" d="M59.7,81.9c-0.5-0.2-4.6,1.5-9.5,4.7c-3.5,2.3-6,2.9-6,4.1
		c0,0.8,0,0.8,1,2.3c1.8,2.8,1,7.7,3.7,10c1.8,1.6,4.7-0.7,7.1,1.2c2.2,1.7,2.5,4.2,3.2,4.1c0.6-0.1,0.8-2.2,0.9-4
		c0.3-2.7,1.3-4.6,1.7-6.2c0.5-2.7,0.4-5,0.2-5.9c-0.2-0.8,0.4-4.5-0.4-6.8C60.9,83.4,60.5,82.3,59.7,81.9z"/>
</g>
<path fill="#F7941E" stroke="#000000" stroke-miterlimit="10" d="M71.1,65.4c0-0.1,0,0.3,0.8-0.1c0.7-0.4,0.6-0.3,0.6-0.3
	s0,1,0.3,1.9c0.4,1.2,2,1.7,2.6,1.8c0.6,0.1,2.9,0.1,3.7-0.9c0.6-0.8,0.6-2.7,0.6-2.7h2.1c0,0-0.5,2.9-1.3,3.9
	c-1.1,1.3-2.4,1.4-3.3,1.5c-0.9,0.1-2.8,0.3-4.4-1C71.2,68.3,70.6,66,71.1,65.4z"/>
<path fill="none" stroke="#3C2415" stroke-miterlimit="10" d="M101,38c-0.2-0.2,0.4-1.1,1.2-1.5c0.9-0.4,2-0.3,2.1,0
	C104.3,37.1,101.3,38.5,101,38z"/>
<path fill="none" stroke="#3C2415" stroke-miterlimit="10" d="M55,38.6c0.1-0.2-0.9-1.2-2.2-1.5c-1-0.3-2.3-0.3-2.4,0
	C50.4,37.6,54.8,39.1,55,38.6z"/>
<g>
	<path fill="#FFFFFF" stroke="#000000" stroke-miterlimit="10" d="M81.7,39.7c0.9,0.5,1.8-0.9,4.3-0.9c2.3,0,3.3,1.3,4,0.7
		c0.9-0.7,0.1-3.2-0.9-6.2c-0.8-2.4-1.5-3.3-2.5-4c-0.4-0.3-1.2-0.8-2.1-0.6c-0.4,0.1-1.3,0.4-2.4,3.3C82,32.4,79.9,38.6,81.7,39.7z
		"/>
	<path fill="#3C2415" stroke="#000000" stroke-miterlimit="10" d="M83.1,38c-1.4-1.8-0.6-4-0.4-4.3c0.1-0.1,1.2-2.8,3.1-2.8
		c1.8,0.1,2.7,2.4,2.9,2.8c0.7,1.7-0.5,5.3-2.8,5.1C84.2,38.7,84.1,39.4,83.1,38z"/>
	<path fill="#603913" stroke="#000000" stroke-miterlimit="10" d="M85.8,38.7c-1.1-0.1-1.5-0.3-1.5-1.5c0-0.6,0.3-2.1,1.4-2.1
		c1.1,0,1.4,0.4,1.5,1.8C87.2,37.9,86.9,38.8,85.8,38.7z"/>
</g>
<g>
	<path fill="#FFFFFF" stroke="#000000" stroke-miterlimit="10" d="M63.7,39.7c0.9,0.5,1.8-0.9,4.3-0.9c2.3,0,3.3,1.3,4,0.7
		c0.9-0.7,0.1-3.2-0.9-6.2c-0.8-2.4-1.5-3.3-2.5-4c-0.4-0.3-1.2-0.8-2.1-0.6c-0.4,0.1-1.3,0.4-2.4,3.3
		C64.1,32.4,61.9,38.6,63.7,39.7z"/>
	<path fill="#3C2415" stroke="#000000" stroke-miterlimit="10" d="M65.1,38c-1.4-1.8-0.6-4-0.4-4.3c0.1-0.1,1.2-2.8,3.1-2.8
		c1.8,0.1,2.7,2.4,2.9,2.8c0.7,1.7-0.5,5.3-2.8,5.1C66.2,38.7,66.1,39.4,65.1,38z"/>
	<path fill="#603913" stroke="#000000" stroke-miterlimit="10" d="M67.9,38.7c-1.1-0.1-1.5-0.3-1.5-1.5c0-0.6,0.3-2.1,1.4-2.1
		c1.1,0,1.4,0.4,1.5,1.8C69.3,37.9,69,38.8,67.9,38.7z"/>
</g>
<path fill="none" stroke="#000000" stroke-miterlimit="10" d="M81.7,24.6c1.6-0.5,4.7,0,7.1,2.7"/>
<path fill="none" stroke="#000000" stroke-miterlimit="10" d="M63.7,27.3c0-1.5,3.2-2.7,7.1-2.7"/>
<line fill="none" stroke="#000000" stroke-miterlimit="10" x1="83.5" y1="27" x2="83.5" y2="27"/>
<g>
	<path fill="none" stroke="#3C2415" stroke-miterlimit="10" d="M77.1,44.7c-0.2-0.1-1.4-0.8-2.7-0.4c-1.2,0.4-2.3,1.6-2.1,2.9
		c0.2,1,1,1.7,1.8,1.9c1,0.3,2.1,0,2.9-0.8"/>
</g>
<path fill="none" stroke="#BE1E2D" stroke-miterlimit="10" d="M61.4,50.7c0.4-0.7,1.7-1.3,1.7-1.3s1.1,1.4,1.8,2.4
	c2.5,3.2,6.1,4.1,7.4,4.4c2,0.4,3.5,0.2,5,0.1c1.2-0.1,3-0.2,5-1.2c1.1-0.6,2.2-1.1,3.8-2.3c1.8-1.2,2-1.7,2-1.7
	c1.2-1.2,1.5-1.4,1.5-1.4s0.6,0.7,0.8,1.2"/>
<path stroke="#000000" stroke-miterlimit="10" d="M52.8,30.4c-0.4-1.5-0.9-2.6-1.1-5.1c-0.2-1.8-0.3-4.1,0.2-7.1
	c0.5-2.6,0.9-4.9,2.8-7c1.4-1.5,3-2.5,3.8-2.9c1-0.5,1.8-0.8,3.4-1.4c1.5-0.5,2.6-0.8,2.4-0.6c-0.4,0.5-2.8,3.1-3,7.2
	c-0.1,0.8-0.2,2.6,0.9,4c1,1.3,2.3,1.6,2.2,2.1c-0.1,0.6-2.1,0.1-3.7,1.3c-0.5,0.4-0.7,0.8-1.8,3.9c-1.2,3.7-1.2,4.1-2,5.9
	c-0.4,0.9-1.3,2.9-1.3,2.9v0C55.6,33.8,53.6,33.2,52.8,30.4z"/>
<path stroke="#000000" stroke-miterlimit="10" d="M68.9,3c1.3-0.6,3.3-1.5,6.4-2c2.5-0.4,6.2-1,10.6,0.1c2,0.5,8.5,2.1,11.5,7.5
	c2.2,3.8,1.3,4.9,2.1,10.4c0.2,1.3,5.3,2.8,3.6,10.8c-0.2,1-0.7,1.8-1,2.4c-0.9,1.9-3,5-4,4.7c-1-0.3,0.2-3.3-1.2-7.6
	c-0.3-1-1.2-3.7-3.6-5.9c-1.9-1.8-3.9-2.6-5.1-3c-2.2-0.8-3.1-0.5-9.4-0.8c-7.7-0.3-7.4-0.6-9.1-0.3c-2.1,0.4-2.6,0.4-4.6,0.4
	c-1.6,0-2.9-1.7-3.2-2.2c-1.5-2.9-0.5-6,0-7.3c0.3-1,1.1-2.7,2.7-4.4C66.1,4.4,67.5,3.7,68.9,3z"/>
</svg>
