<?xml version="1.0" encoding="utf-8"?>
<!-- Generator: Adobe Illustrator 18.1.0, SVG Export Plug-In . SVG Version: 6.00 Build 0)  -->
<!DOCTYPE svg PUBLIC "-//W3C//DTD SVG 1.1//EN" "http://www.w3.org/Graphics/SVG/1.1/DTD/svg11.dtd">
<svg version="1.1" id="Layer_1" xmlns="http://www.w3.org/2000/svg" xmlns:xlink="http://www.w3.org/1999/xlink" x="0px" y="0px"
	 viewBox="0 0 170.9 204.8" enable-background="new 0 0 170.9 204.8" xml:space="preserve">
<path fill="#ED1C24" stroke="#000000" stroke-miterlimit="10" d="M158.4,204.3H12.5c-6.6,0-12-5.4-12-12V12.5c0-6.6,5.4-12,12-12
	h145.9c6.6,0,12,5.4,12,12v179.8C170.4,198.9,165,204.3,158.4,204.3z"/>
<path fill="#593B2B" stroke="#593B2B" stroke-miterlimit="10" d="M88.4,79.3c0,0,0.3-5,0.6-8c0,0,2.6,1.3,9.3-1.3
	c0.8-0.3,3.5-0.8,6.7-4.1c1.5-1.5,1.7-3.5,2-4.9c0.6-2.8-0.2-3.1-0.3-6.5c0,0-0.7-0.2,1.1-1.7c0.2-0.2,1.4-0.2,1.7,0
	c0.6,0.3,1.7,0.7,2.9,0.3c1.8-0.5,2.4-2.4,2.8-3.4c0.3-0.8,1.1-3.1,0-4.2c-0.8-0.8-2.4-0.6-3.4-0.3c-3.1,1.1-3.5,5-4.5,4.8
	c-0.8-0.1,0.2-1.7-0.9-6.2c-0.3-1.3-0.2-1.6-1.6-4.2c-1-1.8-2.1-4.1-3.7-5.2c-1.8-1.1-3.5-2.2-8.2-2.5c-5.2-0.4-6-0.1-11.7-0.3
	c-2.4-0.1-5.9-0.1-11,2.2c-1.9,0.9-3.1,8.3-3.9,9.3c-2.6,3.6,0,4.4-0.2,5.4c0,0,0,0,0,0c-0.2,0.1-1.1-1.2-2.2-2
	c-0.3-0.2-1.5-1.1-3-1.1c-1,0-2.8,0.3-3.4,1.4C56,49.5,58.9,52,62,53.7c3.3,1.7,2,9.4,3.4,12.1c1.1,2.2,2.6,3.8,6.4,5.2
	c4.5,1.6,8.7,1.9,10.5,0.9c0,0,0,0,0,0c1.7,2.8,0.3,5.6,0.3,5.6c0,0.3,0,0.9,0,1.6c0.4,0.3,1.1,0.8,2.1,1c0.3,0.1,0.6,0.1,1,0.1
	C87.3,80.2,88.4,79.3,88.4,79.3z"/>
<path fill="#8DC63F" stroke="#000000" stroke-miterlimit="10" d="M80,77.8c-1.2-0.9-2.8-0.5-5.4,0c-1.2,0.3-2.9,0.6-4.9,1.7
	c-3,1.6-4.5,3.4-7.3,5.6c-3.9,3-6.8,6.5-10.6,9.4c-0.1,0-3.2,1.7-6.7,4.6c-1,0.8-2,1.7-2.4,3.2c-0.4,1.6,0.2,3.6,1.2,3.9
	c0.6,0.2,1-0.6,2.9-1.7c1.3-0.8,2.4-1.4,3.7-1.3c1.4,0.1,1.5,0.8,2.5,0.8c1.9,0.1,4.3-3.3,5.8-4.3c1.3-0.9,3.2-1.3,5.3-3.3
	c1-1,1.2-0.9,2.1-1.3c0.9-0.5,2.3-2.3,4.1,0.5c1.1,1.8,0.9,6.1,1,7.9c0.1,1.5,0,5.4-0.7,8.1c0,0-0.1,0.5-0.7,2.8l-0.4,1.7
	c0.3,0.6,2.3-0.1,5.4,0c3.1,0.1,3.5,0.7,5.1,0.3c1.7-0.4,1.8-1.2,3.8-1.9c1.7-0.6,3.8-0.5,4.3-0.4c1.7,0.4,1.9,0.9,3.9,1.6
	c0.6,0.2,0.3,0,1.8,0.2c2.6,0.4,4.2,0.4,5.7,0.2c1.4-0.2,1.6-0.4,1.7-0.5c0.7-0.9-0.7-2.4-1.3-5.4c-0.2-0.9-0.3-3.4-0.3-6.2
	c0-1.6-0.3-3,0.9-5.6c1.6-3.5,2.8-3.3,3.8-3.7c1.2-0.5,3.3,1.1,7.4,4.4c3.4,2.6,4.3,3.7,6.2,3.9c1.1,0.1,1.9-0.1,3.4,0.3
	c0.7,0.2,2.2,0.7,3.2,2c0.8,1,0.8,1.7,1.2,1.7c0.7,0,1.3-1.6,1.5-2.9c0.1-0.4,0.2-1.5-0.2-2.7c-0.6-2-2.2-3-3.7-4
	c0,0-0.5-0.4-7.6-5.6c-3-2.2-2.4-2-6.1-4.7c-3.8-2.8-4.1-2.8-5.6-4.2c-2.2-2.1-2.3-2.9-4-3.9c-1.1-0.6-2.3-0.8-4.9-1.3
	c-3.1-0.6-3.6-0.4-3.9-0.2c-1.1,0.8-0.2,2.3-1.3,3.7c-1.2,1.4-3.3,1.5-4,1.5c-0.8,0-2.5,0.1-3.7-1C80.5,80.3,81.3,78.8,80,77.8z"/>
<polygon fill="#262262" stroke="#000000" stroke-miterlimit="10" points="80.3,87.9 73.9,94.5 80.3,103.8 93.3,103.8 99.7,94.6 
	93.1,87.9 "/>
<polygon fill="#00A79D" stroke="#000000" stroke-miterlimit="10" points="78.6,94.5 82.7,100.4 90.3,100.4 95,94.5 92.8,91.6 
	81.1,91.6 "/>
<path stroke="#000000" stroke-miterlimit="10" d="M44.4,107c-0.3,1.1,0.6,2.3,3,4.7c5.3,5.3,6.1,4.6,8.3,7.4
	c2.2,2.7,2.6,4.8,5.6,6.9c1.3,0.9,2.2,1.2,3,1c1.6-0.5,2.2-2.9,2.5-4.4c0.4-1.7,0.8-3.7-0.3-5.2c-0.9-1.2-2.3-1.5-3.4-1.7
	c-2.3-0.5-2.9,0.3-4,0c-3.5-1-1.9-9.8-6.1-11.8c-1.7-0.8-4-0.5-5-0.2C47.1,104,44.8,105.4,44.4,107z"/>
<path stroke="#000000" stroke-miterlimit="10" d="M117.9,103.4c-3.8,1.5-2.3,9.8-6.4,11.8c-2.1,1-3.6-0.5-5.9,1
	c-2.3,1.5-2.7,4.3-2.7,4.6c-0.3,2.5,0.8,5.7,2.9,6.2c1.3,0.4,2.6-0.4,3.5-1c2.6-1.7,2.9-3.4,5.1-6.1c0.9-1.2,0.7-0.7,7.9-7.3
	c2.3-2.1,3.3-3.1,3.2-4.4c-0.1-1.9-2.1-4-2.7-4.3C122.1,103.6,119.8,102.7,117.9,103.4z"/>
<path fill="#F7941E" stroke="#000000" stroke-miterlimit="10" d="M68.6,116.8c-0.3,1.2-0.7,2.5-1,3.7h11l1.2-4L68.6,116.8z"/>
<polygon fill="#F7941E" stroke="#000000" stroke-miterlimit="10" points="92.1,116.6 92.1,121.1 102.1,120.5 100.9,116.4 "/>
<path fill="#2E3192" stroke="#000000" stroke-miterlimit="10" d="M80.1,117.1c-0.1,0.3-1.3,2.4-0.3,4.4c1.2,2.6,4.9,2.7,5.6,2.7
	c0.8,0,4.7,0,6.2-3c0.1-0.1,1.2-2.4,0-4.6c-1.6-3-6.1-2.4-6.6-2.4C84.2,114.3,81.5,114.7,80.1,117.1z"/>
<path fill="#00A79D" stroke="#000000" stroke-miterlimit="10" d="M82.8,117.8c-0.6,1-0.5,2.3,0.2,3.2c1.1,1.4,3.5,1.1,4.7,0
	c0.7-0.6,1.4-1.8,1-2.9c-0.4-1-1.8-1.3-2.4-1.3C85.8,116.7,83.8,116.3,82.8,117.8z"/>
<path fill="#8DC63F" stroke="#000000" stroke-miterlimit="10" d="M68.1,120.7c0,0-1.5,3.3-2.4,6.5c-0.2,0.5-0.8,3-1.2,4.4
	c-2.5,8.7-1.9,17.4-2.8,18.3c-1.3,1.2-1.4,2-1.8,3.7c-0.4,2-0.4,3.1-0.5,4.9c0,0.9-0.5,1.6-0.3,2.2c0.2,0.9,1.6,1.3,2.5,1.5
	c0.5,0.2,2.8,0.5,4.6,0.4c1.9-0.1,4.2-1,4.2-1l0-0.7c0,0,0.2-2.3,0.6-3.4c1.2-3.4,2.8-5.6,4.9-8.1c6.8-7.8,7.2-12,8.7-12.5
	c0,0,2.8,4.2,10.4,13.4c2.3,2.8,4.1,4.7,4.2,7.6c0,1.7-0.5,3.4,0.5,4.4c0.2,0.2,0.6,0.5,3.2,0.7c4.6,0.3,6-0.6,6.4-0.8
	c0.5-0.3,1.3-0.9,1.3-1.7c0-0.8,0.2-1.4,0-2.3c-0.4-2.3-0.2-2.9-1.4-5c-0.5-0.9-0.9-2.1-1.4-3.2c-1.1-2.3,0.1-8.9-1.3-15.2
	c-0.8-3.5-0.1-6.3-1.3-7.4c-1.9-1.9-3.3-6-3.3-6s-9-0.4-9.9,0.3c-2.5,1.8-2.1,2.8-6.8,2.8c-4,0-5.6-2.7-6.7-3
	C75.1,120.2,68.1,120.7,68.1,120.7z"/>
<path stroke="#000000" stroke-miterlimit="10" d="M57.8,164.3c0-1.6-0.1-3,0.7-3.4c0.4-0.2,0.8,0,1.9,0.3c1.2,0.4,2.5,0.8,3.7,0.8
	c2,0.1,5.8-0.4,6.1,0c1.1,1.3-1.2,5.1-2.9,7.8c-2.4,3.9-3.2,4-3.5,5.9c-0.3,1.8,0.2,2.1,0,6.1c-0.2,2.9-0.5,3.7-0.7,4
	c-0.3,0.7-0.8,1.5-3.4,3.5c-2.6,2.1-3.9,3.2-5.1,3.5c-0.3,0.1-4.2,1.3-6.9-0.8c-0.5-0.3-1.3-1-1.5-2c-0.1-0.4-0.3-1.7,1.9-4.4
	c2.2-2.8,3.6-2.9,6.4-6.1c1.1-1.2,1.6-1.8,2-2.7c0.9-2,0.2-2.9,0.5-6.7C57.2,166.8,57.8,167.3,57.8,164.3z"/>
<path stroke="#000000" stroke-miterlimit="10" d="M101.4,167c-0.9-1.7-2.4-4.6-1.5-5.4c0.4-0.4,1.1,0,3.2,0.3
	c2.3,0.4,4.8,0.7,6.4-0.5c1.1-0.8,1.1-1.7,1.5-1.7c1.3,0.1,1.8,7.1,1.9,8.6c0.4,6.1-0.4,6.5,0.5,8.6c0.6,1.5,1.2,1.6,6.4,6.9
	c3.8,3.8,4.6,5,4.4,6.2c-0.3,1.9-2.8,2.8-3.4,3c-2.9,1.1-5.6-0.1-6.1-0.3c-1.6-0.8-1.4-1.3-4.7-4.2c-2.4-2.1-2.6-1.9-3-2.7
	c-0.8-1.6-0.1-2.6-0.2-6.7c0-1.3,0-2-0.2-2.7C106,172.9,103.9,171.9,101.4,167z"/>
<path fill="#F7941E" stroke="#000000" stroke-miterlimit="10" d="M101.6,80c0,0,8.8,1.8,15.5,6.6c2.2,1.6,6.9,5,11,11.1
	c3.8,5.7,3.3,8.1,8.1,14.3c3.7,4.8,6.2,6.1,7.1,6.6c3.8,1.9,7.9,2.1,10,2c4.3-0.1,5.9-1.3,6.7-0.3c1.6,1.7-0.9,7.8-5.1,11.6
	c-2.1,1.9-5.2,3.4-11.3,6.4c-3.2,1.6-2.9,1.3-3.9,1.9c-5.7,3.5-5,7.2-9.3,10.1c-3.7,2.5-4.2,3.1-11.8,3c-4.5,0-7.4,2.7-8.3,1.8
	c-0.8-0.8,0.3,1.1-0.7-1.4c-0.6-1.8-1.3-2.9-2.1-4.6c-0.7-1.5,1.2-7.1-0.6-14.5c-0.8-3.3-1-7-1-7s1.8-0.5,3.7-1.4
	c2.5-1.2,3.2-3.4,4.7-5.9c3.9-6.4,7.7-5.2,11.3-11.6c1.2-2.2,2.3-4.1,1.9-6.4c-0.4-2.1-1.8-3.4-7.4-7.8c-3.9-3-5.6-4.6-8.1-6.1
	C106.8,85.5,101.2,80.4,101.6,80z"/>
<g>
	<path fill="#27AAE1" stroke="#000000" stroke-miterlimit="10" d="M103.7,95c1.8-1.3,3.2,0.8,7.8,4c3.4,2.4,6,3.1,5.9,4.2
		c0,0.8-0.9,0.5-1.5,2.1c-1.1,3.1-1,7.2-3.7,9.4c-1.9,1.5-4.4-0.4-6.9,1.4c-2.2,1.6-2.5,4.3-3.2,4.2c-0.6-0.1-0.7-2.2-0.8-4
		c-0.2-2.7-1.2-4.6-1.5-6.2c-0.5-2.7-0.3-5-0.1-5.9c0.2-0.8,1.4-2.2,2.3-4.6C102.6,97.7,103,95.5,103.7,95z"/>
</g>
<path fill="#F7941E" stroke="#000000" stroke-miterlimit="10" d="M98.2,155.4c-0.4,0.4-8.2-2.8-13.2-2.5c-7.5,0.4-12.8,4.1-13.4,3.2
	c-0.7-1,2.8-3.2,6.8-9.1c1.9-2.8,5.5-10.1,6.4-10.1c0.7,0,4.1,5.5,7.5,9.7C95.7,150.7,98.5,155,98.2,155.4z"/>
<path fill="#F7941E" stroke="#000000" stroke-miterlimit="10" d="M59.5,152.4c-2,2.1-4.4-2.8-9.3-4.6c-4.8-1.7-6,0.9-10.1-0.5
	c-5.9-2-4.4-7.7-11.3-11.8c-1.2-0.7-4.7-1.8-11.8-4c-5.9-1.9-6.7-1.9-7.1-2.9c-1.3-3.3,7.8-7.1,16.9-18.9c5.2-6.8,4.7-8.7,10-13.8
	c3.4-3.3,6.5-5.3,12.7-9.3c4.9-3.2,8.4-5,12.7-6.2c2.5-0.7,7.4-1,7.4-1s-2.3,2.2-7.1,5.7c-6.9,5.2-5.8,5.2-11.1,9.1
	c-6,4.3-8.9,5.3-9.3,8.3c-0.2,1.5,0.4,2.8,1.3,4.6c1.5,3,3,3.7,7.4,7.9c3.6,3.5,5.4,5.2,6.4,6.7c1.4,2,2.1,3.7,4.2,4.7
	c2.1,1,4.3-0.3,4,1c-0.3,1.9-2.6,6.3-2.8,15c0,2.1-0.2,4.3-0.7,6.8C61.7,150.7,60.7,151.1,59.5,152.4z"/>
<g>
	<path fill="#F7941E" stroke="#000000" stroke-miterlimit="10" d="M103.7,95c2.1-0.5,3.2,0.8,7.8,4c3.4,2.4,6,3.1,5.9,4.2
		c0,0.8-0.9,0.5-1.5,2.1c-1.1,3.1-1,7.2-3.7,9.4c-1.9,1.5-4.4-0.4-6.9,1.4c-2.2,1.6-2.5,4.3-3.2,4.2c-0.6-0.1-0.7-2.2-0.8-4
		c-0.2-2.7-1.2-4.6-1.5-6.2c-0.5-2.7-0.2-5-0.3-5.9c-0.2-1.4-0.2-4.6,1.2-6.5C101.8,96.1,102.8,95.2,103.7,95z"/>
</g>
<g>
	<path fill="#F7941E" stroke="#000000" stroke-miterlimit="10" d="M69,94.1c-0.5-0.2-4.6,1.5-9.5,4.7c-3.5,2.3-6,2.9-6,4.1
		c0,0.8,0,0.8,1,2.3c1.8,2.8,1,7.7,3.7,10c1.8,1.6,4.7-0.7,7.1,1.2c2.2,1.7,2.5,4.2,3.2,4.1c0.6-0.1,0.8-2.2,0.9-4
		c0.3-2.7,1.3-4.6,1.7-6.2c0.5-2.7,0.4-5,0.2-5.9c-0.2-0.8,0.4-4.5-0.4-6.8C70.2,95.6,69.8,94.5,69,94.1z"/>
</g>
<path fill="#F7941E" stroke="#000000" stroke-miterlimit="10" d="M80.4,77.6c0-0.1,0,0.3,0.8-0.1c0.7-0.4,0.6-0.3,0.6-0.3
	s0,1,0.3,1.9c0.4,1.2,2,1.7,2.6,1.8c0.6,0.1,2.9,0.1,3.7-0.9c0.6-0.8,0.6-2.7,0.6-2.7h2.1c0,0-0.5,2.9-1.3,3.9
	c-1.1,1.3-2.4,1.4-3.3,1.5c-0.9,0.1-2.8,0.3-4.4-1C80.5,80.5,79.9,78.2,80.4,77.6z"/>
<path fill="none" stroke="#3C2415" stroke-miterlimit="10" d="M110.3,50.3c-0.2-0.2,0.4-1.1,1.2-1.5c0.9-0.4,2-0.3,2.1,0
	C113.6,49.3,110.6,50.7,110.3,50.3z"/>
<path fill="none" stroke="#3C2415" stroke-miterlimit="10" d="M64.3,50.9c0.1-0.2-0.9-1.2-2.2-1.5c-1-0.3-2.3-0.3-2.4,0
	C59.7,49.8,64.1,51.3,64.3,50.9z"/>
<g>
	<path fill="#FFFFFF" stroke="#000000" stroke-miterlimit="10" d="M91,51.9c0.9,0.5,1.8-0.9,4.3-0.9c2.3,0,3.3,1.3,4,0.7
		c0.9-0.7,0.1-3.2-0.9-6.2c-0.8-2.4-1.5-3.3-2.5-4c-0.4-0.3-1.2-0.8-2.1-0.6c-0.4,0.1-1.3,0.4-2.4,3.3C91.3,44.7,89.2,50.8,91,51.9z
		"/>
	<path fill="#3C2415" stroke="#000000" stroke-miterlimit="10" d="M92.4,50.2c-1.4-1.8-0.6-4-0.4-4.3c0.1-0.1,1.2-2.8,3.1-2.8
		c1.8,0.1,2.7,2.4,2.9,2.8c0.7,1.7-0.5,5.3-2.8,5.1C93.5,50.9,93.4,51.6,92.4,50.2z"/>
	<path fill="#603913" stroke="#000000" stroke-miterlimit="10" d="M95.1,50.9c-1.1-0.1-1.5-0.3-1.5-1.5c0-0.6,0.3-2.1,1.4-2.1
		c1.1,0,1.4,0.4,1.5,1.8C96.5,50.1,96.2,51,95.1,50.9z"/>
</g>
<g>
	<path fill="#FFFFFF" stroke="#000000" stroke-miterlimit="10" d="M73,51.9c0.9,0.5,1.8-0.9,4.3-0.9c2.3,0,3.3,1.3,4,0.7
		c0.9-0.7,0.1-3.2-0.9-6.2c-0.8-2.4-1.5-3.3-2.5-4c-0.4-0.3-1.2-0.8-2.1-0.6c-0.4,0.1-1.3,0.4-2.4,3.3C73.4,44.7,71.2,50.8,73,51.9z
		"/>
	<path fill="#3C2415" stroke="#000000" stroke-miterlimit="10" d="M74.4,50.2c-1.4-1.8-0.6-4-0.4-4.3c0.1-0.1,1.2-2.8,3.1-2.8
		c1.8,0.1,2.7,2.4,2.9,2.8c0.7,1.7-0.5,5.3-2.8,5.1C75.5,50.9,75.4,51.6,74.4,50.2z"/>
	<path fill="#603913" stroke="#000000" stroke-miterlimit="10" d="M77.2,50.9c-1.1-0.1-1.5-0.3-1.5-1.5c0-0.6,0.3-2.1,1.4-2.1
		c1.1,0,1.4,0.4,1.5,1.8C78.6,50.1,78.3,51,77.2,50.9z"/>
</g>
<path fill="none" stroke="#000000" stroke-miterlimit="10" d="M91,36.8c1.6-0.5,4.7,0,7.1,2.7"/>
<path fill="none" stroke="#000000" stroke-miterlimit="10" d="M73,39.6c0-1.5,3.2-2.7,7.1-2.7"/>
<line fill="none" stroke="#000000" stroke-miterlimit="10" x1="92.8" y1="39.2" x2="92.8" y2="39.2"/>
<g>
	<path fill="none" stroke="#3C2415" stroke-miterlimit="10" d="M86.4,56.9c-0.2-0.1-1.4-0.8-2.7-0.4c-1.2,0.4-2.3,1.6-2.1,2.9
		c0.2,1,1,1.7,1.8,1.9c1,0.3,2.1,0,2.9-0.8"/>
</g>
<path fill="none" stroke="#BE1E2D" stroke-miterlimit="10" d="M70.7,63c0.4-0.7,1.7-1.3,1.7-1.3s1.1,1.4,1.8,2.4
	c2.5,3.2,6.1,4.1,7.4,4.4c2,0.4,3.5,0.2,5,0.1c1.2-0.1,3-0.2,5-1.2c1.1-0.6,2.2-1.1,3.8-2.3c1.8-1.2,2-1.7,2-1.7
	c1.2-1.2,1.5-1.4,1.5-1.4s0.6,0.7,0.8,1.2"/>
<path stroke="#000000" stroke-miterlimit="10" d="M62.1,42.6c-0.4-1.5-0.9-2.6-1.1-5.1c-0.2-1.8-0.3-4.1,0.2-7.1
	c0.5-2.6,0.9-4.9,2.8-7c1.4-1.5,3-2.5,3.8-2.9c1-0.5,1.8-0.8,3.4-1.4c1.5-0.5,2.6-0.8,2.4-0.6c-0.4,0.5-2.8,3.1-3,7.2
	c-0.1,0.8-0.2,2.6,0.9,4c1,1.3,2.3,1.6,2.2,2.1c-0.1,0.6-2.1,0.1-3.7,1.3c-0.5,0.4-0.7,0.8-1.8,3.9c-1.2,3.7-1.2,4.1-2,5.9
	c-0.4,0.9-1.3,2.9-1.3,2.9v0C64.9,46,62.9,45.5,62.1,42.6z"/>
<path stroke="#000000" stroke-miterlimit="10" d="M78.2,15.2c1.3-0.6,3.3-1.5,6.4-2c2.5-0.4,6.2-1,10.6,0.1c2,0.5,8.5,2.1,11.5,7.5
	c2.2,3.8,1.3,4.9,2.1,10.4c0.2,1.3,5.3,2.8,3.6,10.8c-0.2,1-0.7,1.8-1,2.4c-0.9,1.9-3,5-4,4.7c-1-0.3,0.2-3.3-1.2-7.6
	c-0.3-1-1.2-3.7-3.6-5.9c-1.9-1.8-3.9-2.6-5.1-3c-2.2-0.8-3.1-0.5-9.4-0.8c-7.7-0.3-7.4-0.6-9.1-0.3C77.1,32,76.5,32,74.6,32
	c-1.6,0-2.9-1.7-3.2-2.2c-1.5-2.9-0.5-6,0-7.3c0.3-1,1.1-2.7,2.7-4.4C75.5,16.6,76.8,15.9,78.2,15.2z"/>
</svg>
