<?xml version="1.0" encoding="utf-8"?>
<!-- Generator: Adobe Illustrator 18.1.0, SVG Export Plug-In . SVG Version: 6.00 Build 0)  -->
<!DOCTYPE svg PUBLIC "-//W3C//DTD SVG 1.1//EN" "http://www.w3.org/Graphics/SVG/1.1/DTD/svg11.dtd">
<svg version="1.1" id="Layer_1" xmlns="http://www.w3.org/2000/svg" xmlns:xlink="http://www.w3.org/1999/xlink" x="0px" y="0px"
	 viewBox="0 0 151.4 183.5" enable-background="new 0 0 151.4 183.5" xml:space="preserve">
<path fill="#8DC63F" stroke="#000000" stroke-miterlimit="10" d="M78.7,64.7c1.1-1,2.8-0.7,5.4-0.3c1.3,0.2,2.9,0.4,5,1.4
	c3.1,1.4,4.7,3.1,7.6,5.1c4.1,2.8,7.2,6.1,11.2,8.8c0.1,0,3.3,1.5,7,4.1c1,0.7,2.1,1.6,2.6,3.1c0.5,1.6,0,3.6-0.9,3.9
	c-0.6,0.2-1-0.5-3-1.5c-1.3-0.7-2.5-1.3-3.8-1.1c-1.4,0.1-1.4,0.9-2.5,1c-1.9,0.2-4.7-2.5-6.2-3.4c-1.4-0.8-3.2-1.6-5.4-3.4
	c-1.1-0.9-1.6-1.2-2.1-1.6c-1-0.7-2.6-1.6-4.2,1.3c-1,1.9-0.3,5.8-0.2,7.9c0.1,1.5,0.2,5.2,1.1,7.9c0,0,0.1,0.6,0.9,2.8l0.5,1.7
	c-0.2,0.6-2.3,0-5.4,0.3c-3.1,0.3-3.5,0.9-5,0.6c-1.7-0.3-1.9-1-3.9-1.7c-1.7-0.5-3.8-0.3-4.4-0.1c-1.7,0.5-1.9,1.1-3.8,1.8
	c-0.6,0.2-0.3,0-1.8,0.3c-2.6,0.5-4.2,0.6-5.7,0.5c-1.4-0.1-1.6-0.3-1.7-0.4c-0.8-0.9,0-2.4,0.5-5.4c0.2-1,0.7-3.2-0.2-5.9
	c-0.3-1-0.5-2.7-2-5.2c-1.8-3-2.4-3.8-3.4-4.6c-0.6-0.6,0,0-2.7-2.3c-2.6-2.3-2.4-2-3.8-3.4c-1.2-1.2-4.7-4.5-5.5-5.7
	c-0.6-0.8-8.5-11.9-10-13.5c-0.9-0.9-6.2-9-6.4-9.4c-1.4-2,4.1-0.8,3.5-0.8c-2.9,0,0.8-1.3,3.2-2.2c1.9-0.7,0.4-5,1.2-3.4
	c1.1,2.3,3.7,6.3,6.1,9.5c2.1,2.7,1.6,1.7,4.3,5.5c2.4,3.4,5.8,6.5,6.9,7.5c3.1,2.7,4.6,4,7.3,2.7c1.1-0.5,2.3-1,4.8-1.6
	c3-0.8,3.5-0.6,3.9-0.4c1.1,0.8,0.3,2.3,1.6,3.6c1.2,1.4,3.4,1.3,4.1,1.3c0.8,0,2.5-0.1,3.6-1.2C78.3,67.2,77.4,65.8,78.7,64.7z"/>
<polygon fill="#262262" stroke="#000000" stroke-miterlimit="10" points="78.1,75.1 84.9,81.3 79.1,91 66.1,91.8 59.1,83.1 
	65.3,75.9 "/>
<polygon fill="#00A79D" stroke="#000000" stroke-miterlimit="10" points="80.2,81.6 76.5,87.7 68.8,88.2 63.8,82.6 65.8,79.6 
	77.5,78.9 "/>
<path fill="#2E3192" stroke="#000000" stroke-miterlimit="10" d="M115.6,91.1c0.4,1.1-0.9,3.2-3.2,5.8c-5,5.6-5.8,5-7.8,7.9
	c-2,2.9-2.3,4.9-5.1,7.2c-1.2,1-2.1,1.4-3,1.2c-1.7-0.4-2.4-2.8-2.8-4.2c-0.5-1.6-1.1-3.7,0-5.2c0.8-1.2,2.2-1.6,3.3-1.9
	c2.3-0.6,2.9,0.2,4-0.2c3.4-1.2,1.3-9.9,5.3-12.2c1.7-0.9,3.5-0.9,4.5-0.7C111.8,89,115.1,89.5,115.6,91.1z"/>
<path fill="#F7941E" stroke="#000000" stroke-miterlimit="10" d="M91.5,103.2c0.4,1.2,0.8,2.4,1.2,3.6l-10.9,0.7l-1.4-4L91.5,103.2z
	"/>
<polygon fill="#F7941E" stroke="#000000" stroke-miterlimit="10" points="68.1,104.5 68.3,109 58.4,109 59.3,104.9 "/>
<path fill="#262262" stroke="#000000" stroke-miterlimit="10" d="M80,104.3c0.2,0.2,1.4,2.3,0.6,4.4c-1.1,2.7-4.7,3-5.4,3
	c-0.8,0.1-4.7,0.3-6.4-2.6c-0.1-0.1-1.3-2.4-0.3-4.5c1.5-3.1,5.9-2.8,6.4-2.8C75.8,101.8,78.6,102,80,104.3z"/>
<path fill="#00A79D" stroke="#000000" stroke-miterlimit="10" d="M77.4,105.1c0.7,0.9,0.7,2.3,0,3.2c-1,1.4-3.4,1.3-4.7,0.3
	c-0.7-0.6-1.6-1.7-1.2-2.8c0.4-1.1,1.7-1.4,2.3-1.5C74.3,104.2,76.3,103.7,77.4,105.1z"/>
<path fill="#8DC63F" stroke="#000000" stroke-miterlimit="10" d="M92.8,107.5c0,0,1.2,2.8,2.3,6c0.2,0.5,1,2.9,1.4,4.3
	c3,8.5,2.9,17.2,3.9,18c1.3,1.1,1.5,2,2,3.6c0.5,2,0.6,3.1,0.8,4.9c0.1,0.9,0.6,1.6,0.5,2.2c-0.1,0.9-1.5,1.3-2.4,1.7
	c-0.5,0.2-2.8,0.7-4.6,0.7c-1.9,0-4.3-0.7-4.3-0.7l0-0.7c0,0-0.3-2.3-0.8-3.4c-1.4-3.3-3.1-5.4-5.4-7.8c-7.2-7.4-7.9-11.5-9.4-12
	c0,0-2.5,4.3-9.5,14c-2.1,2.9-3.8,4.9-3.7,7.8c0.1,1.7,0.7,3.3-0.2,4.4c-0.2,0.2-0.6,0.6-3.2,0.9c-4.6,0.5-6-0.2-6.5-0.4
	c-0.5-0.3-1.4-0.8-1.5-1.6c-0.1-0.8-0.2-1.4-0.1-2.3c0.2-2.3,0.1-3,1.1-5.1c0.5-0.9,0.8-2.2,1.2-3.3c0.9-2.4-0.6-8.9,0.3-15.3
	c0.5-3.5-0.2-6.3,0.8-7.4c1.8-2,2.9-6.2,2.9-6.2s8.9-0.9,9.9-0.3c2.6,1.6,2.3,2.6,6.9,2.3c4-0.2,5.4-3,6.5-3.4
	C85.2,107,92.8,107.5,92.8,107.5z"/>
<path stroke="#000000" stroke-miterlimit="10" d="M105.2,150c-0.1-1.6-0.1-3-0.9-3.3c-0.4-0.2-0.8,0-1.8,0.5c-1.2,0.5-2.4,1-3.7,1.1
	c-2,0.2-5.8,0-6.1,0.4c-1,1.4,1.5,5,3.3,7.6c2.7,3.8,3.4,3.8,3.9,5.7c0.4,1.7-0.1,2.1,0.4,6.1c0.3,2.8,0.7,3.6,0.9,4
	c0.4,0.7,0.9,1.4,3.6,3.3c2.7,2,4.1,2.9,5.3,3.2c0.3,0.1,4.3,1,6.9-1.3c0.4-0.4,1.2-1.1,1.4-2.1c0.1-0.4,0.2-1.7-2.1-4.3
	c-2.4-2.6-3.8-2.7-6.8-5.7c-1.2-1.1-1.7-1.7-2.2-2.6c-1-1.9-0.4-2.9-0.9-6.7C105.9,152.5,105.5,153,105.2,150z"/>
<path stroke="#000000" stroke-miterlimit="10" d="M61.9,155.4c0.8-1.7,2.1-4.7,1.2-5.5c-0.5-0.4-1.1,0.1-3.2,0.5
	c-2.3,0.5-4.7,1-6.4-0.1c-1.1-0.7-1.2-1.7-1.6-1.6c-1.3,0.2-1.3,7.2-1.3,8.7c0,6.1,0.8,6.4,0,8.6c-0.6,1.6-1.1,1.7-6,7.3
	c-3.5,4.1-4.3,5.2-4,6.5c0.5,1.8,2.9,2.6,3.6,2.8c2.9,0.9,5.6-0.5,6-0.7c1.5-0.9,1.3-1.4,4.5-4.5c2.3-2.3,2.5-2.1,2.9-2.9
	c0.7-1.6-0.1-2.6-0.2-6.7c0-1.3-0.1-2,0-2.7C57.6,161.5,59.7,160.4,61.9,155.4z"/>
<path fill="#F7941E" stroke="#000000" stroke-miterlimit="10" d="M45,73.4c0,0-0.8,1-3.4,2.9C39.4,78,35,81.8,31.3,88.2
	c-3.5,6-2.8,8.3-7.2,14.8c-3.4,5-5.8,6.5-6.7,7c-3.6,2.1-7.8,2.5-9.8,2.6c-4.3,0.2-5.9-0.9-6.8,0.1c-1.5,1.8,1.4,7.8,5.8,11.3
	c2.2,1.8,5.4,3.1,11.7,5.7c3.3,1.4,3,1.1,4,1.6c5.9,3.1,5.4,6.9,9.9,9.5c3.9,2.3,4.4,2.8,12,2.3c4.5-0.3,7.3,2.7,8,1.5
	c0.1-0.2,0.4-0.3,1-1.7c0.7-1.7,1.1-2.9,1.8-4.7c0.6-1.6-1.7-7-0.3-14.5c0.6-3.4,1.4-6.8,2.5-9.6c1.6-4.2,0.4-1.1,1.6-4.2
	c0.9-2.4,1.8-10.3,2.4-11.9c1.7-4.5-3.8-12.6-5-14.1c-0.4-0.5-4.6-4.3-7.9-7.3C46.9,75.5,45.4,73.9,45,73.4z"/>
<path fill="#F7941E" stroke="#000000" stroke-miterlimit="10" d="M64.4,143.6c0.4,0.4,8-3.3,13-3.3c7.5-0.1,13,3.3,13.6,2.4
	c0.7-1-3-3-7.4-8.7c-2-2.6-6.2-9.7-7-9.7c-0.7,0-3.7,5.7-6.9,10.1C66.6,138.8,64,143.3,64.4,143.6z"/>
<path fill="#F7941E" stroke="#000000" stroke-miterlimit="10" d="M102.8,138.2c2.1,2,4.2-3.1,9-5.1c4.7-2,6,0.6,10.1-1.1
	c5.8-2.4,3.9-8,10.6-12.5c1.1-0.8,4.6-2.1,11.5-4.8c5.8-2.2,6.6-2.4,6.9-3.3c1.1-3.4-8.2-6.6-18-17.8c-5.7-6.4-5.2-8.4-10.8-13.2
	c-3.6-3.1-6.8-4.9-13.2-8.5c-5.1-2.9-8.7-4.4-13-5.5c-2.5-0.6-7.5-0.6-7.5-0.6s2.4,2,7.4,5.3c7.2,4.7,6.1,4.9,11.7,8.4
	c6.2,3.9,9.2,4.7,9.8,7.7c0.3,1.5-0.3,2.8-1.1,4.6c-1.3,3.1-2.8,3.8-6.9,8.4c-3.4,3.7-5,5.6-6,7.1c-1.2,2.1-1.9,3.8-3.9,5
	c-2,1.2-4.3-0.1-4,1.3c0.4,1.9,3,6.1,3.7,14.8c0.2,2.1,0.4,4.3,1.1,6.8C100.5,136.6,101.5,137,102.8,138.2z"/>
<g>
	<path fill="#F7941E" stroke="#000000" stroke-miterlimit="10" d="M91.1,80.1c1.7-1.4,3.6,1.8,8.4,4.7c3.6,2.1,6.2,2.6,6.2,3.7
		c0,0.8,0,0.8-0.8,2.3c-1.6,2.9-0.5,7.8-3,10.2c-1.7,1.7-4.7-0.4-7,1.6c-2.1,1.8-2.2,4.3-3,4.3c-0.6-0.1-0.9-2.2-1.2-4
		c-0.4-2.7-1.6-4.5-2-6.1C88,94.2,88,91.9,88.1,91c0.1-0.8-0.1-4.5,0.4-7C89.1,81.3,90.4,80.7,91.1,80.1z"/>
</g>
<path fill="#593B2B" stroke="#593B2B" stroke-miterlimit="10" d="M69.9,66.9c0,0-0.6-5-1.1-7.9c0,0-2.5,1.5-9.3-0.7
	c-0.8-0.3-3.6-0.6-7-3.7c-1.5-1.4-1.9-3.4-2.3-4.7c-0.8-2.8,0-3.1-0.1-6.5c0,0,0.7-0.2-1.2-1.6c-0.2-0.2-1.4-0.1-1.7,0.1
	c-0.6,0.3-1.7,0.8-2.9,0.5c-1.8-0.4-2.6-2.2-3-3.2C41,38.3,40,36,41,34.8c0.8-0.9,2.4-0.8,3.4-0.5c3.1,0.9,3.8,4.7,4.8,4.5
	c0.8-0.2-0.3-1.7,0.5-6.3c0.2-1.3,0.1-1.6,1.3-4.3c0.9-1.9,1.8-4.3,3.4-5.4c1.7-1.2,3.3-2.4,8-3c5.1-0.7,6-0.4,11.7-1
	c2.4-0.3,5.9-0.5,11.1,1.5c1.9,0.7,3.6,8.1,4.4,9.1c2.9,3.4,0.2,4.4,0.6,5.3c0,0,0,0,0,0c0.2,0.1,1-1.2,2.1-2.1
	c0.3-0.3,1.4-1.2,3-1.3c1-0.1,2.8,0.2,3.5,1.2c1.6,2.5-1.1,5.2-4.1,7c-3.2,1.9-1.4,9.5-2.7,12.3c-1,2.2-2.4,4-6.1,5.5
	c-4.4,1.8-8.6,2.4-10.5,1.6c0,0,0,0,0,0c-1.5,2.9,0.1,5.6,0.1,5.6c0,0.3,0.1,0.9,0.1,1.6c-0.4,0.3-1.1,0.8-2.1,1.2
	c-0.3,0.1-0.6,0.2-1,0.2C71.1,67.7,69.9,66.9,69.9,66.9z"/>
<path fill="none" stroke="#3C2415" stroke-miterlimit="10" d="M46.3,39.3c0.2-0.2-0.5-1-1.3-1.4c-0.9-0.4-2-0.2-2.1,0.1
	C42.9,38.5,46,39.7,46.3,39.3z"/>
<path fill="none" stroke="#3C2415" stroke-miterlimit="10" d="M92.2,37c-0.1-0.2,0.9-1.2,2.1-1.7c1-0.4,2.3-0.4,2.4-0.1
	C96.8,35.7,92.5,37.4,92.2,37z"/>
<g>
	<path fill="#FFFFFF" stroke="#000000" stroke-miterlimit="10" d="M65.7,39.7c-0.9,0.6-1.9-0.8-4.4-0.7c-2.3,0.1-3.2,1.5-4,1
		c-1-0.6-0.3-3.2,0.5-6.2c0.7-2.4,1.3-3.4,2.2-4.2c0.4-0.3,1.1-0.9,2-0.7c0.4,0.1,1.4,0.3,2.6,3.1C64.9,32.5,67.4,38.5,65.7,39.7z"
		/>
	<path fill="#3C2415" stroke="#000000" stroke-miterlimit="10" d="M64.2,38.1c1.2-1.9,0.3-4,0.1-4.3c-0.1-0.1-1.3-2.8-3.3-2.6
		c-1.8,0.2-2.6,2.6-2.7,2.9c-0.6,1.8,0.8,5.3,3.1,5C63.1,38.9,63.2,39.6,64.2,38.1z"/>
	<path fill="#603913" stroke="#000000" stroke-miterlimit="10" d="M61.4,39c1.1-0.2,1.5-0.3,1.4-1.6c0-0.6-0.4-2.1-1.5-2
		c-1.1,0.1-1.4,0.5-1.4,1.9C60,38.2,60.4,39.2,61.4,39z"/>
</g>
<g>
	<path fill="#FFFFFF" stroke="#000000" stroke-miterlimit="10" d="M83.6,38.6c-0.9,0.6-1.9-0.8-4.4-0.7c-2.3,0.1-3.2,1.5-4,1
		c-1-0.6-0.3-3.2,0.5-6.2c0.7-2.4,1.3-3.4,2.2-4.2c0.4-0.3,1.1-0.9,2-0.7c0.4,0.1,1.4,0.3,2.6,3.1C82.8,31.4,85.3,37.4,83.6,38.6z"
		/>
	<path fill="#3C2415" stroke="#000000" stroke-miterlimit="10" d="M82.1,37c1.2-1.9,0.3-4,0.1-4.3c-0.1-0.1-1.3-2.8-3.3-2.6
		c-1.8,0.2-2.6,2.6-2.7,2.9c-0.6,1.8,0.8,5.3,3.1,5C81,37.8,81.1,38.5,82.1,37z"/>
	<path fill="#603913" stroke="#000000" stroke-miterlimit="10" d="M79.4,37.9c1.1-0.2,1.5-0.3,1.4-1.6c0-0.6-0.4-2.1-1.5-2
		c-1.1,0.1-1.4,0.5-1.4,1.9C77.9,37.1,78.3,38.1,79.4,37.9z"/>
</g>
<path fill="none" stroke="#000000" stroke-miterlimit="10" d="M64.7,24.7c-1.6-0.4-4.7,0.3-6.9,3.1"/>
<path fill="none" stroke="#000000" stroke-miterlimit="10" d="M82.8,26.3c-0.1-1.5-3.4-2.5-7.3-2.3"/>
<line fill="none" stroke="#000000" stroke-miterlimit="10" x1="63.1" y1="29.1" x2="63.1" y2="29.1"/>
<g>
	<path fill="none" stroke="#3C2415" stroke-miterlimit="10" d="M73.4,44.3c-0.2-0.1-1.3-0.9-2.7-0.5c-1.2,0.3-2.3,1.5-2.2,2.8
		c0.1,1,1,1.7,1.7,2c1,0.4,2.1,0.1,2.9-0.7"/>
</g>
<path fill="none" stroke="#BE1E2D" stroke-miterlimit="10" d="M86.5,49.5c-0.5-0.6-1.8-1.2-1.8-1.2s-1,1.5-1.7,2.5
	c-2.3,3.4-5.8,4.5-7.1,4.8c-1.9,0.5-3.5,0.4-5,0.4c-1.2-0.1-3,0-5.1-0.9c-1.1-0.5-2.3-1-4-2c-1.8-1.1-2.1-1.6-2.1-1.6
	c-1.3-1.1-1.6-1.3-1.6-1.3s-0.6,0.8-0.8,1.3"/>
<path stroke="#000000" stroke-miterlimit="10" d="M93.9,28.6c0.4-1.5,0.7-2.6,0.8-5.1c0-1.8,0.1-4.1-0.7-7.1
	c-0.7-2.6-1.2-4.8-3.2-6.8c-1.5-1.5-3.2-2.3-3.9-2.6c-1-0.5-1.8-0.7-3.5-1.2c-1.5-0.5-2.6-0.7-2.4-0.5c0.4,0.5,3,3,3.5,7
	c0.1,0.8,0.3,2.6-0.6,4.1c-0.9,1.4-2.2,1.8-2.1,2.3c0.2,0.6,2.1,0,3.7,1.1c0.5,0.4,0.8,0.7,2,3.8c1.5,3.6,1.5,4,2.3,5.8
	c0.4,0.9,1.4,2.8,1.4,2.8l0,0C91.3,32.2,93.2,31.6,93.9,28.6z"/>
<path stroke="#000000" stroke-miterlimit="10" d="M76.2,2.3c-1.3-0.5-3.4-1.2-6.5-1.6C67.1,0.5,63.3,0.1,59,1.5
	c-1.9,0.6-8.3,2.6-11.1,8.2c-1.9,3.9-1,4.9-1.5,10.5c-0.1,1.3-5.1,3.1-2.9,11c0.3,0.9,0.8,1.8,1.1,2.4c1.1,1.8,3.3,4.8,4.3,4.4
	c1-0.4-0.4-3.3,0.7-7.7c0.3-1.1,1-3.7,3.2-6.1c1.8-1.9,3.8-2.8,4.9-3.3c2.2-0.9,3-0.7,9.3-1.4c7.6-0.8,7.4-1,9.1-0.8
	c2.1,0.2,2.7,0.2,4.6,0.1c1.6-0.1,2.8-1.9,3.1-2.4c1.4-2.9,0.1-6-0.5-7.3c-0.4-1-1.3-2.7-2.9-4.2C79,3.5,77.6,2.9,76.2,2.3z"/>
<path fill="#F7941E" stroke="#000000" stroke-miterlimit="10" d="M77.3,64.9c-0.1-0.1,0,0.3-0.8-0.1c-0.7-0.3-0.6-0.2-0.6-0.2
	s0.1,1-0.2,1.9c-0.4,1.2-1.9,1.8-2.5,1.9c-0.6,0.1-2.9,0.3-3.7-0.7c-0.6-0.8-0.7-2.7-0.7-2.7l-2.1,0.1c0,0,0.7,2.9,1.6,3.9
	c1.2,1.2,2.5,1.3,3.4,1.3c0.9,0,2.9,0.1,4.4-1.2C77.4,67.8,77.9,65.4,77.3,64.9z"/>
<g>
	<path fill="#2E3192" stroke="#000000" stroke-miterlimit="10" d="M25.8,47.9c-4.1-2.5-2.2-15.7-8.7-16.5c-3.6-0.5-4.3-1.4-4.3-1.6
		c0-0.1,4.3,0.2,4.2-1.2c-0.1-1.3-4.6-1.3-4.6-1.2c0,0.2,4.5-0.2,4.5-1.5c0-1.1-4.9-0.5-4.9-0.6c0,0,4.8-0.9,4.8-1.5
		c0-0.9-5-0.8-5-0.9c0-0.1,4.7,0.1,4.8-0.5c0.2-1.1-5-2.2-4.9-2.2c0.1,0,3.4,1.4,4.1,0.5c0.7-0.8-0.9-3-0.7-4.2
		c0.1-0.7,1.7-1.1,2.1-0.3c0.6,1,1.2,2.5,1.2,3.2c0,1.6,0.4,3.3,5.3,9.5C32.1,40,35.9,42,35.1,44.7C34.3,47.6,28.7,49.6,25.8,47.9z"
		/>
	<path fill="none" stroke="#000000" stroke-miterlimit="10" d="M11.7,20.4c0,1,0,1.9,0,2.8c0,0.9,0.1,1.7,0.1,2.4
		c0.1,0.8,0.1,1.4,0.2,2c0.2,1.4,0.4,2.3,0.7,2.3"/>
	<g>
		<g>
			<path d="M12,21.2c0,0.3-0.1,1,0.1,1.4c0.2,0.3,0.4,0.1,0.7,0.1c0.5,0,0.9,0.2,1.4,0.2c0.5,0,1-0.1,1.5-0.3c0.2-0.1,0.2-0.4,0-0.5
				c-0.6-0.2-1.2-0.5-1.7-0.7c-0.4-0.2-1-0.5-1.4-0.4c-0.1,0-0.2,0.1-0.2,0.2c-0.1,0.4-0.2,0.9,0.3,1c0.2,0.1,0.4,0,0.6,0.1
				c0.2,0,0.4,0.1,0.5,0.2c0.3,0.1,0.6,0.2,1,0.2c0.3,0,0.3-0.4,0.1-0.5c-0.6-0.3-1.3-0.6-2-0.7c-0.3,0-0.5,0.4-0.1,0.5
				c0.7,0.1,1.3,0.4,2,0.7c0-0.2,0-0.3,0.1-0.5c-0.5,0.1-0.9-0.2-1.4-0.4c-0.1,0-0.3-0.1-0.4-0.1c-0.2-0.1-0.2,0-0.1,0.1
				c0-0.2,0-0.3,0-0.5c-0.1,0.1-0.2,0.1-0.2,0.2c0.5,0,1.2,0.4,1.6,0.5c0.5,0.2,0.9,0.4,1.4,0.6c0-0.2,0-0.3,0-0.5
				c-0.8,0.3-1.6,0.3-2.4,0.1c-0.2-0.1-0.4,0-0.6-0.1c-0.3,0-0.1,0.1-0.1-0.1c0-0.3,0-0.6,0-0.8C12.5,20.9,12,20.9,12,21.2L12,21.2z
				"/>
		</g>
	</g>
	<g>
		<g>
			<path d="M12.1,23.7c0,0.4,0.1,0.9,0.1,1.3c0,0.2,0.3,0.4,0.5,0.1c0.2-0.4,1.2-0.4,1.6-0.5c0.5-0.1,1-0.3,1.5-0.4
				c0.2-0.1,0.2-0.3,0.1-0.4c-0.4-0.5-1.1-0.4-1.7-0.4c-0.4,0-1.5-0.2-1.7,0.3c-0.1,0.3,0.1,0.7,0.5,0.8c0.4,0,0.8-0.1,1.2-0.1
				c0.4,0,0.8,0,1.2-0.1c0.3-0.1,0.2-0.6-0.1-0.5c-0.5,0.1-0.9,0.1-1.4,0.1c-0.2,0-0.3,0-0.5,0c-0.1,0-0.5,0-0.4,0.1
				c0.7,0.1,2-0.4,2.6,0.2c0-0.1,0.1-0.3,0.1-0.4c-0.7,0.2-1.5,0.4-2.2,0.5c-0.5,0.1-0.9,0.1-1.1,0.6c0.2,0,0.3,0.1,0.5,0.1
				c0-0.4-0.1-0.9-0.1-1.3C12.5,23.4,12,23.4,12.1,23.7L12.1,23.7z"/>
		</g>
	</g>
	<g>
		<g>
			<path d="M13.6,24.1c0.2,0,0.6-0.1,0.8,0c0.1,0,0.2,0.2,0.3,0.2c0.2,0.1,0.4,0,0.6,0c0.2,0,0.5,0,0.8-0.1c0.1,0,0.2-0.1,0.2-0.2
				c0,0,0,0,0,0c0-0.1-0.1-0.2-0.1-0.2c0,0,0,0,0,0c-0.3-0.2-0.5,0.3-0.3,0.4c0,0,0,0,0,0c0-0.1-0.1-0.1-0.1-0.2c0,0,0,0,0,0
				c0.1-0.1,0.1-0.2,0.2-0.2c-0.2,0.1-0.5,0.1-0.7,0c-0.2,0-0.3,0-0.5-0.1c0,0-0.1-0.1-0.1-0.1c-0.3-0.1-0.7,0-1.1,0
				C13.3,23.6,13.3,24.1,13.6,24.1L13.6,24.1z"/>
		</g>
	</g>
	<g>
		<g>
			<path d="M12.5,24.7c0.1,0,0.2,0,0.3,0c0.3,0,0.3-0.5,0-0.5c-0.1,0-0.2,0-0.3,0C12.1,24.2,12.1,24.7,12.5,24.7L12.5,24.7z"/>
		</g>
	</g>
	<g>
		<g>
			<path d="M12.3,26.3c1.4,0,2.7,0,4.1,0c0-0.2,0-0.3-0.1-0.5c-0.8,0.2-1.7,0.5-2.5,0.7c-0.2,0.1-0.4,0.1-0.6,0.2
				c-0.1,0-0.2,0-0.3,0.1c-0.1,0.1-0.1,0.1-0.1-0.1c-0.4-0.3,0.6-0.1,0.8-0.1c0.4,0,0.8,0,1.2-0.1c0,0,0.6,0,0.6-0.1
				c0-0.1-0.5-0.1-0.6-0.1c-0.3,0-0.5,0.1-0.8,0.2c-0.1,0.1-0.3,0.2-0.4,0.2c-0.2,0.1-0.3,0.1-0.5-0.1c-0.3,0-0.4-0.1-0.2-0.2
				c0,0.2,0,0.3,0.1,0.5c0.1,0,0.1-0.1,0.2-0.1c0.3,0,0.3-0.5,0-0.5c-0.2,0-0.3,0-0.4,0.1c-0.1,0.1-0.2,0.4,0.1,0.5
				c0.5,0.1,0.8-0.4,0.3-0.7c-0.4-0.3-0.7,0-0.8,0.4c-0.1,0.8,0.7,0.9,1.3,0.7c0.3-0.1,0.5-0.2,0.7-0.3c0.3-0.1,0.6-0.1,0.9-0.1
				c0.2,0,0.5-0.1,0.7-0.3c0.3-0.6-0.5-0.6-0.9-0.6c-0.7,0-1.4,0.1-2.2,0.1C12.8,26,12.5,25.9,12.3,26.3c-0.2,0.2,0.1,0.9,0.4,1
				c0.4,0.1,1.3-0.3,1.7-0.4c0.7-0.2,1.4-0.4,2.1-0.6c0.3-0.1,0.2-0.5-0.1-0.5c-1.4,0-2.7,0-4.1,0C12,25.8,12,26.3,12.3,26.3
				L12.3,26.3z"/>
		</g>
	</g>
	<g>
		<g>
			<path d="M12.5,28.3c0.8,0,1.6,0,2.3,0c0.4,0,0.8,0.1,1.2,0.2c0.2,0.1,0.2,0,0-0.1c-0.2,0.1-0.4,0.2-0.7,0.3
				c-0.3,0.1-0.7,0.2-1,0.3c-0.1,0-1.6,0.3-1.3-0.3c0.1-0.2,1.2-0.2,1.4-0.2c0.2,0,1.4,0,0.5,0.2c-0.3,0.1-0.5,0.1-0.8,0.1
				c-0.4,0.1-1.1,0.2-0.3,0c0.3-0.1,0.6-0.1,0.9-0.2c0.2,0.1,0.4,0,0.6-0.1c0,0,0,0-0.1,0c-0.4,0-0.7,0.1-1.1,0.2
				c-0.2,0-0.4,0.1-0.5,0.2c0,0.2,0.2,0.2,0.3,0.1c0.3,0,0.7-0.2,1-0.2c0.3,0,0.2-0.5-0.1-0.5c-0.5,0.1-2.2,0.2-1.5,1.1
				c0.1,0.1,0.2,0.1,0.2,0.1c0.7-0.2,1.4-0.3,2.1-0.5c0.2-0.1,0.4-0.1,0.4-0.3c0.1-0.7-1-0.6-1.4-0.5c-0.4,0.1-2,0-1.8,0.8
				c0.2,0.8,1.8,0.3,2.2,0.2c0.4-0.1,1.3-0.4,0.8-1c-0.2-0.3-0.7-0.3-1.1-0.3c-0.6,0-1.1,0.2-1.6,0.2c-0.7,0-0.7,0.9-0.3,1.3
				c0.5,0.5,1.9,0,2.5-0.1c0.3-0.1,1.9-0.5,1.2-1.1c-0.3-0.3-1.1-0.3-1.5-0.3c-0.8-0.1-1.7-0.1-2.5,0C12.2,27.9,12.2,28.4,12.5,28.3
				L12.5,28.3z"/>
		</g>
	</g>
</g>
</svg>
