<?xml version="1.0" encoding="utf-8"?>
<!-- Generator: Adobe Illustrator 18.1.0, SVG Export Plug-In . SVG Version: 6.00 Build 0)  -->
<!DOCTYPE svg PUBLIC "-//W3C//DTD SVG 1.1//EN" "http://www.w3.org/Graphics/SVG/1.1/DTD/svg11.dtd">
<svg version="1.1" id="Layer_1" xmlns="http://www.w3.org/2000/svg" xmlns:xlink="http://www.w3.org/1999/xlink" x="0px" y="0px"
	 viewBox="0 0 200 200" enable-background="new 0 0 200 200" xml:space="preserve">
<path fill="#F7941E" stroke="#000000" stroke-miterlimit="10" d="M129.5,150.6c2.3,2.2,4.6-3.4,9.8-5.6c5.1-2.2,6.5,0.7,11-1.2
	c6.3-2.6,4.3-8.7,11.6-13.6c1.2-0.9,5-2.3,12.5-5.2c6.3-2.4,7.2-2.6,7.5-3.6c1.2-3.7-8.9-7.2-19.6-19.4c-6.2-7-5.7-9.2-11.8-14.4
	c-3.9-3.4-7.4-5.3-14.4-9.3c-5.6-3.2-19.7-4.4-14.3-0.8c7.8,5.1-7,9.9-7.5,17.1c-0.4,5.3-2.1,8.8-1.4,12c0.3,1.6,8.2,15.7,8.5,17.1
	c0.4,2.1,3.3,6.6,4,16.1c0.2,2.3,0.4,4.7,1.2,7.4C127,148.9,128.1,149.3,129.5,150.6z"/>
<path fill="#8DC63F" stroke="#000000" stroke-miterlimit="10" d="M103.8,71.4c1.2-1,3.1-0.7,5.9-0.1c1.3,0.2,3.5,0.4,5.7,0.9
	c3.8,0.7,6,1.4,9.5,0c3.9-1.6,9.6-5.7,13.3-7.8c0.1,0,3.7-7.1,6.2-9.3c1.1-0.9,1.9,2.4,3.3,3.4c1.1,0.8,4.6,2,5,2.5
	c0,0-0.5,0.3-1.3,1.2c-1.1,1.2-3.6,5.2-4.9,6.5c-1.1,1-3.9,4.7-4.7,5.6c-1.3,1.7-4.3,2.8-6.2,3.8c-1.6,0.8-6,2.8-8.5,3.7
	c-1.5,0.5-7.2,7.3-7.7,7.8c-0.7,0.7-1,2.3-2.6,5.6c-1,2.1-1.3,2.2-1.9,3.9c-0.5,1.5-0.1,8.1,0.2,9c0,0,0.1,0.3,0.9,3.1l0.5,1.9
	c-0.2,0.7-2.5,0-5.9,0.1c-3.4,0.2-3.8,0.9-5.6,0.5c-1.9-0.4-2.1-1.2-4.3-2c-1.9-0.7-4.1-0.4-4.8-0.2c-1.9,0.5-2.1,1.1-4.1,1.9
	c-0.7,0.2-0.3,0-2,0.2c-2.8,0.4-4.6,0.5-6.2,0.3c-1.5-0.1-1.7-0.4-1.9-0.5c-0.9-1,0.1-2.6,0.8-5.9c0.2-1,0.9-3.5,0-6.4
	c-0.3-1.2-1.3-2.2-2.8-4.9c-1.9-3.3-1.6-3.4-2.3-5.1c-0.3-0.9-0.4-0.9-3.2-3.5c-2.7-2.6-2.6-2.3-4-3.8c-1.3-1.4-4.1-4.9-6.4-4.8
	c-1.1,0-13-2.9-14.7-4.7c-0.9-1-7.2-10.2-7.5-10.6c-1.4-2.2,0.4-3.8,1-4.3c1.9-1.6,2.4-1.4,3.7-2.9c1.5-1.6,2.1-3.7,2.8-1.9
	c0.3,0.9,5.4,11.2,7.1,11.9c2.8,1.3,16.1,5.7,17.7,6.1c3.5,1,5,1.7,8.3,0.9c1.3-0.3,2.5-1,5.3-1.6c3.3-0.8,3.9-0.5,4.3-0.3
	c1.2,0.9,0.3,2.5,1.6,4c1.3,1.5,3.6,1.5,4.5,1.5s2.7,0,4-1.2C103.4,74.2,102.5,72.6,103.8,71.4z"/>
<path fill="#F7941E" stroke="#000000" stroke-miterlimit="10" d="M117.2,112.5c0.4,1.3,0.9,2.6,1.3,3.9l-11.9,0.8l-1.5-4.4
	L117.2,112.5z"/>
<polygon fill="#F7941E" stroke="#000000" stroke-miterlimit="10" points="91.7,113.9 91.9,118.8 81.1,118.8 82.1,114.3 "/>
<path fill="#262262" stroke="#000000" stroke-miterlimit="10" d="M104.7,113.7c0.2,0.2,1.5,2.5,0.7,4.8c-1.2,2.9-5.1,3.3-5.9,3.3
	c-0.9,0.1-5.1,0.3-7-2.8c-0.1-0.1-1.4-2.6-0.3-4.9c1.6-3.4,6.4-3.1,7-3.1C100.1,111,103.2,111.2,104.7,113.7z"/>
<path fill="#00A79D" stroke="#000000" stroke-miterlimit="10" d="M101.9,114.6c0.8,1,0.8,2.5,0,3.5c-1.1,1.5-3.7,1.4-5.1,0.3
	c-0.8-0.7-1.7-1.9-1.3-3.1c0.4-1.2,1.9-1.5,2.5-1.6C98.5,113.6,100.7,113,101.9,114.6z"/>
<path fill="#8DC63F" stroke="#000000" stroke-miterlimit="10" d="M118.6,117.2c0,0,1.3,3.1,2.5,6.5c0.2,0.5,1.1,3.2,1.5,4.7
	c3.3,9.3,3.2,18.7,4.3,19.6c1.4,1.2,1.6,2.2,2.2,3.9c0.5,2.2,0.7,3.4,0.9,5.3c0.1,1,0.7,1.7,0.5,2.4c-0.1,1-1.6,1.4-2.6,1.9
	c-0.5,0.2-3.1,0.8-5,0.8c-2.1,0-4.7-0.8-4.7-0.8v-0.8c0,0-0.3-2.5-0.9-3.7c-1.5-3.6-3.4-5.9-5.9-8.5c-7.8-8.1-8.6-12.5-10.2-13.1
	c0,0-2.7,4.7-10.4,15.3c-2.3,3.2-4.1,5.3-4,8.5c0.1,1.9,0.8,3.6-0.2,4.8c-0.2,0.2-0.7,0.7-3.5,1c-5,0.5-6.5-0.2-7.1-0.4
	c-0.5-0.3-1.5-0.9-1.6-1.7c-0.1-0.9-0.2-1.5-0.1-2.5c0.2-2.5,0.1-3.3,1.2-5.6c0.5-1,0.9-2.4,1.3-3.6c1-2.6-0.7-9.7,0.3-16.7
	c0.5-3.8-0.2-6.9,0.9-8.1c2-2.2,3.2-6.8,3.2-6.8s9.7-1,10.8-0.3c2.8,1.7,2.5,2.8,7.5,2.5c4.4-0.2,5.9-3.3,7.1-3.7
	C110.4,116.6,118.6,117.2,118.6,117.2z"/>
<path stroke="#000000" stroke-miterlimit="10" d="M132.2,163.5c-0.1-1.7-0.1-3.3-1-3.6c-0.4-0.2-0.9,0-2,0.5c-1.3,0.5-2.6,1.1-4,1.2
	c-2.2,0.2-6.3,0-6.6,0.4c-1.1,1.5,1.6,5.4,3.6,8.3c2.9,4.1,3.7,4.1,4.3,6.2c0.4,1.9-0.1,2.3,0.4,6.6c0.3,3.1,0.8,3.9,1,4.4
	c0.4,0.8,1,1.5,3.9,3.6c2.9,2.2,4.5,3.2,5.8,3.5c0.3,0.1,4.7,1.1,7.5-1.4c0.4-0.4,1.3-1.2,1.5-2.3c0.1-0.4,0.2-1.9-2.3-4.7
	c-2.6-2.8-4.1-2.9-7.4-6.2c-1.3-1.2-1.9-1.9-2.4-2.8c-1.1-2.1-0.4-3.2-1-7.3C132.9,166.2,132.5,166.8,132.2,163.5z"/>
<path stroke="#000000" stroke-miterlimit="10" d="M85,169.4c0.9-1.9,2.3-5.1,1.3-6c-0.5-0.4-1.2,0.1-3.5,0.5c-2.5,0.5-5.1,1.1-7-0.1
	c-1.2-0.8-1.3-1.9-1.7-1.7c-1.4,0.2-1.4,7.8-1.4,9.5c0,6.6,0.9,7,0,9.4c-0.7,1.7-1.2,1.9-6.5,8c-3.8,4.5-4.7,5.7-4.4,7.1
	c0.5,2,3.2,2.8,3.9,3.1c3.2,1,6.1-0.5,6.5-0.8c1.6-1,1.4-1.5,4.9-4.9c2.5-2.5,2.7-2.3,3.2-3.2c0.8-1.7-0.1-2.8-0.2-7.3
	c0-1.4-0.1-2.2,0-2.9C80.3,176,82.6,174.8,85,169.4z"/>
<path fill="#F7941E" stroke="#000000" stroke-miterlimit="10" d="M66.5,80c0,0-0.9,1.1-3.7,3.2c-2.4,1.9-7.2,6-11.2,13
	c-3.8,6.5-3.1,9-7.8,16.1c-3.7,5.4-6.3,7.1-7.3,7.6c-3.9,2.3-8.5,2.7-10.7,2.8c-4.7,0.2-6.4-1-7.4,0.1c-1.6,2,1.5,8.5,6.3,12.3
	c2.4,2,5.9,3.4,12.8,6.2c3.6,1.5,3.3,1.2,4.4,1.7c6.4,3.4,5.9,7.5,10.8,10.4c4.3,2.5,4.8,3.1,13.1,2.5c4.9-0.3,8,2.9,8.7,1.6
	c0.1-0.2,0.4-0.3,1.1-1.9c0.8-1.9,1.2-3.2,2-5.1c0.7-1.7-1.9-7.6-0.3-15.8c0.7-3.7,1.5-7.4,2.7-10.5c1.7-4.6,0.4-1.2,1.7-4.6
	c1-2.6,2-11.2,2.6-13c1.9-4.9-4.1-13.7-5.4-15.4c-0.4-0.5-5-4.7-8.6-8C68.6,82.3,67,80.5,66.5,80z"/>
<path fill="#F7941E" stroke="#000000" stroke-miterlimit="10" d="M87.7,156.5c0.4,0.4,8.7-3.6,14.2-3.6c8.2-0.1,14.2,3.6,14.8,2.6
	c0.8-1.1-3.3-3.3-8.1-9.5c-2.2-2.8-6.8-10.6-7.6-10.6c-0.8,0-4,6.2-7.5,11C90.1,151.3,87.2,156.2,87.7,156.5z"/>
<path fill="#593B2B" stroke="#593B2B" stroke-miterlimit="10" d="M94.8,72.9c0,0-0.7-5.4-1.2-8.6c0,0-2.7,1.6-10.1-0.8
	c-0.9-0.3-3.9-0.7-7.6-4c-1.6-1.5-2.1-3.7-2.5-5.1c-0.9-3.1,0-3.4-0.1-7.1c0,0,0.8-0.2-1.3-1.7c-0.2-0.2-1.5-0.1-1.9,0.1
	c-0.7,0.3-1.9,0.9-3.2,0.5c-2-0.4-2.8-2.4-3.3-3.5c-0.3-1-1.4-3.5-0.3-4.8c0.9-1,2.6-0.9,3.7-0.5c3.4,1,4.1,5.1,5.2,4.9
	c0.9-0.2-0.3-1.9,0.5-6.9c0.2-1.4,0.1-1.7,1.4-4.7c1-2.1,2-4.7,3.7-5.9c1.9-1.3,3.6-2.6,8.7-3.3c5.6-0.8,6.5-0.4,12.8-1.1
	c2.6-0.3,6.4-0.5,12.1,1.6c2.1,0.8,3.9,8.8,4.8,9.9c3.2,3.7,0.2,4.8,0.7,5.8l0,0c0.2,0.1,1.1-1.3,2.3-2.3c0.3-0.3,1.5-1.3,3.3-1.4
	c1.1-0.1,3.1,0.2,3.8,1.3c1.7,2.7-1.2,5.7-4.5,7.6c-3.5,2.1-1.5,10.4-2.9,13.4c-1.1,2.4-2.6,4.4-6.6,6c-4.8,2-9.4,2.6-11.4,1.7l0,0
	c-1.6,3.2,0.1,6.1,0.1,6.1c0,0.3,0.1,1,0.1,1.7c-0.4,0.3-1.2,0.9-2.3,1.3c-0.3,0.1-0.7,0.2-1.1,0.2C96.1,73.8,94.8,72.9,94.8,72.9z"
	/>
<path fill="none" stroke="#3C2415" stroke-miterlimit="10" d="M69,42.8c0.2-0.2-0.5-1.1-1.4-1.5c-1-0.4-2.2-0.2-2.3,0.1
	C65.3,42,68.7,43.3,69,42.8z"/>
<path fill="none" stroke="#3C2415" stroke-miterlimit="10" d="M119.1,40.3c-0.1-0.2,1-1.3,2.3-1.9c1.1-0.4,2.5-0.4,2.6-0.1
	C124.1,38.9,119.4,40.8,119.1,40.3z"/>
<g>
	<path fill="#FFFFFF" stroke="#000000" stroke-miterlimit="10" d="M90.2,43.3c-1,0.7-2.1-0.9-4.8-0.8c-2.5,0.1-3.5,1.6-4.4,1.1
		c-1.1-0.7-0.3-3.5,0.5-6.8c0.8-2.6,1.4-3.7,2.4-4.6c0.4-0.3,1.2-1,2.2-0.8c0.4,0.1,1.5,0.3,2.8,3.4C89.3,35.4,92,42,90.2,43.3z"/>
	<path fill="#3C2415" stroke="#000000" stroke-miterlimit="10" d="M88.6,41.5c1.3-2.1,0.3-4.4,0.1-4.7c-0.1-0.1-1.4-3.1-3.6-2.8
		c-2,0.2-2.8,2.8-2.9,3.2c-0.7,2,0.9,5.8,3.4,5.4C87.4,42.4,87.5,43.2,88.6,41.5z"/>
	<path fill="#603913" stroke="#000000" stroke-miterlimit="10" d="M85.5,42.5c1.2-0.2,1.6-0.3,1.5-1.7c0-0.7-0.4-2.3-1.6-2.2
		c-1.2,0.1-1.5,0.5-1.5,2.1C84,41.6,84.4,42.7,85.5,42.5z"/>
</g>
<g>
	<path fill="#FFFFFF" stroke="#000000" stroke-miterlimit="10" d="M109.7,42.1c-1,0.7-2.1-0.9-4.8-0.8c-2.5,0.1-3.5,1.6-4.4,1.1
		c-1.1-0.7-0.3-3.5,0.5-6.8c0.8-2.6,1.4-3.7,2.4-4.6c0.4-0.3,1.2-1,2.2-0.8c0.4,0.1,1.5,0.3,2.8,3.4
		C108.8,34.2,111.6,40.8,109.7,42.1z"/>
	<path fill="#3C2415" stroke="#000000" stroke-miterlimit="10" d="M108.1,40.3c1.3-2.1,0.3-4.4,0.1-4.7c-0.1-0.1-1.4-3.1-3.6-2.8
		c-2,0.2-2.8,2.8-2.9,3.2c-0.7,2,0.9,5.8,3.4,5.4C106.9,41.2,107,42,108.1,40.3z"/>
	<path fill="#603913" stroke="#000000" stroke-miterlimit="10" d="M105.1,41.3c1.2-0.2,1.6-0.3,1.5-1.7c0-0.7-0.4-2.3-1.6-2.2
		c-1.2,0.1-1.5,0.5-1.5,2.1C103.5,40.4,103.9,41.5,105.1,41.3z"/>
</g>
<path fill="none" stroke="#000000" stroke-miterlimit="10" d="M89.1,26.9c-1.7-0.4-5.1,0.3-7.5,3.4"/>
<path fill="none" stroke="#000000" stroke-miterlimit="10" d="M108.8,28.7c-0.1-1.6-3.7-2.7-8-2.5"/>
<line fill="none" stroke="#000000" stroke-miterlimit="10" x1="87.4" y1="31.7" x2="87.4" y2="31.7"/>
<g>
	<path fill="none" stroke="#3C2415" stroke-miterlimit="10" d="M98.6,48.3c-0.2-0.1-1.4-1-2.9-0.5c-1.3,0.3-2.5,1.6-2.4,3.1
		c0.1,1.1,1.1,1.9,1.9,2.2c1.1,0.4,2.3,0.1,3.2-0.8"/>
</g>
<path fill="none" stroke="#7C414B" stroke-miterlimit="10" d="M112.9,54c-0.5-0.7-2-1.3-2-1.3s-1.1,1.6-1.9,2.7
	c-2.5,3.7-6.3,4.9-7.7,5.2c-2.1,0.5-3.8,0.4-5.4,0.4c-1.3-0.1-3.3,0-5.6-1c-1.2-0.5-2.5-1.1-4.4-2.2c-2-1.2-2.3-1.7-2.3-1.7
	c-1.4-1.2-1.7-1.4-1.7-1.4s-0.7,0.9-0.9,1.4"/>
<path stroke="#000000" stroke-miterlimit="10" d="M120.9,31.2c0.4-1.6,0.8-2.8,0.9-5.6c0-2,0.1-4.5-0.8-7.7
	c-0.8-2.8-1.3-5.2-3.5-7.4c-1.6-1.6-3.5-2.5-4.3-2.8c-1.1-0.5-2-0.8-3.8-1.3c-1.6-0.5-2.8-0.8-2.6-0.5c0.4,0.5,3.3,3.3,3.8,7.6
	c0.1,0.9,0.3,2.8-0.7,4.5c-1,1.5-2.4,2-2.3,2.5c0.2,0.7,2.3,0,4,1.2c0.5,0.4,0.9,0.8,2.2,4.1c1.6,3.9,1.6,4.4,2.5,6.3
	c0.4,1,1.5,3.1,1.5,3.1l0,0C118.1,35.1,120.2,34.4,120.9,31.2z"/>
<path stroke="#000000" stroke-miterlimit="10" d="M101.6,2.5c-1.4-0.5-3.7-1.3-7.1-1.7c-2.8-0.2-7-0.7-11.7,0.9
	c-2.1,0.7-9,2.8-12.1,8.9c-2.1,4.3-1.1,5.3-1.6,11.4c-0.1,1.4-5.6,3.4-3.2,12c0.3,1,0.9,2,1.2,2.6c1.2,2,3.6,5.2,4.7,4.8
	s-0.4-3.6,0.8-8.4c0.3-1.2,1.1-4,3.5-6.6c2-2.1,4.1-3.1,5.3-3.6c2.4-1,3.3-0.8,10.1-1.5c8.3-0.9,8.1-1.1,9.9-0.9
	c2.3,0.2,2.9,0.2,5,0.1c1.7-0.1,3.1-2.1,3.4-2.6c1.5-3.2,0.1-6.5-0.5-8c-0.4-1.1-1.4-2.9-3.2-4.6C104.7,3.8,103.2,3.2,101.6,2.5z"/>
<g>
	<path fill="#2E3192" stroke="#000000" stroke-miterlimit="10" d="M40.3,60.8c-4.6-2.5-3.1-17-10.2-17.5c-4-0.3-4.7-1.3-4.7-1.5
		c0-0.1,4.7,0,4.6-1.5c-0.1-1.4-5-1.2-5-1.1c0,0.2,4.9-0.4,4.8-1.9c-0.1-1.2-5.4-0.3-5.4-0.3s5.2-1.2,5.1-1.9
		c-0.1-1-5.4-0.7-5.4-0.8s5.1-0.1,5.2-0.8c0.2-1.2-5.6-2.2-5.4-2.2s3.7,1.4,4.5,0.4c0.8-1-1.2-3.3-0.9-4.6c0.1-0.8,1.7-1.3,2.3-0.4
		c0.8,1.1,1.4,2.7,1.4,3.5c0.1,1.7,0.7,3.5,6.2,10.1c9.6,11.4,13.8,13.4,13.1,16.5C49.4,60.1,43.4,62.6,40.3,60.8z"/>
	<path fill="none" stroke="#000000" stroke-miterlimit="10" d="M23.7,31.5c0,1.1,0.1,2.1,0.2,3.1c0,0.9,0.1,1.7,0.2,2.5
		c0.1,0.9,0.2,1.5,0.3,2.2c0.3,1.5,0.5,2.5,0.9,2.5"/>
	<g>
		<g>
			<path d="M24,32.4c0,0.7-0.1,1.6,0.7,1.6c0.4,0,0.5,0,0.9,0c0.3,0.1,0.5,0.1,0.9,0.1c0.5,0,1.2-0.2,1.7-0.4c0.2-0.1,0.2-0.4,0-0.5
				c-0.7-0.2-1.3-0.5-2.1-0.8c-0.4-0.1-1.1-0.4-1.5-0.3c-0.1,0-0.2,0.1-0.2,0.2c-0.1,0.4-0.2,1,0.3,1.1c0.2,0,0.4,0,0.7,0
				c0.2,0.1,0.4,0.1,0.7,0.2c0.4,0.2,0.8,0.3,1.1,0.2c0.3,0,0.2-0.4,0-0.5c-0.8-0.2-1.4-0.5-2.3-0.5c-0.3,0-0.3,0.5,0,0.5
				c0.8,0,1.4,0.3,2.2,0.5c0-0.2,0-0.3,0-0.5c-0.5,0.1-1.1-0.2-1.6-0.3c-0.1,0-0.3,0-0.4,0c-0.2-0.1,0-0.1,0.1-0.1
				c0.4,0,1,0.3,1.4,0.4c0.5,0.2,1,0.4,1.5,0.5c0-0.2,0-0.3,0-0.5c-0.4,0.1-0.9,0.3-1.3,0.3c-0.5,0.1-1-0.1-1.5-0.2
				c-0.2,0-0.4,0.1-0.7,0.1c-0.2,0,0.1,0,0.1,0c-0.1-0.1-0.1-0.9-0.1-1.1C24.6,32,24,32,24,32.4L24,32.4z"/>
		</g>
	</g>
	<g>
		<g>
			<path d="M24.1,35.2c0,0.4,0.1,1,0.1,1.4c0,0.2,0.4,0.4,0.5,0.1c0.2-0.5,1.2-0.5,1.6-0.7c0.5-0.1,1.1-0.3,1.6-0.5
				c0.2-0.1,0.2-0.3,0.1-0.4c-0.5-0.5-1.2-0.4-2-0.3c-0.4,0-1.6-0.2-1.9,0.4c0,0.3,0.3,0.8,0.7,0.8c0.4,0,0.9-0.1,1.3-0.1
				c0.4,0,0.9,0,1.3-0.1c0.3-0.1,0.2-0.7-0.1-0.5c-0.5,0.1-1,0.1-1.5,0.1c-0.3,0-0.9,0.1-1,0.1c0.8,0,2.3-0.4,2.8,0.1
				c0-0.1,0.1-0.3,0.1-0.4c-0.8,0.2-1.5,0.5-2.4,0.7c-0.5,0.1-1,0.2-1.3,0.7c0.2,0,0.3,0.1,0.5,0.1c0-0.4-0.1-1-0.1-1.4
				C24.7,34.8,24.1,34.8,24.1,35.2L24.1,35.2z"/>
		</g>
	</g>
	<g>
		<g>
			<path d="M25.9,35.5c0.2,0,0.5-0.1,0.8,0c0.2,0,0.3,0.2,0.5,0.2c0.3,0.1,1.1,0,1.4-0.1c0.1,0,0.2-0.1,0.2-0.2l0,0
				c0-0.1-0.1-0.2-0.1-0.2l0,0c-0.3-0.3-0.7,0.1-0.3,0.3l0,0c0-0.1-0.1-0.1-0.1-0.2l0,0c0.1-0.1,0.1-0.2,0.2-0.2
				c-0.2,0.1-0.5,0.1-0.8,0.1c-0.3,0-0.3,0-0.7-0.1c-0.3-0.2-0.9-0.1-1.2,0C25.4,35,25.4,35.5,25.9,35.5L25.9,35.5z"/>
		</g>
	</g>
	<g>
		<g>
			<path d="M24.7,36.3c0.1,0,0.2,0,0.3,0c0.3,0,0.3-0.5,0-0.5c-0.1,0-0.2,0-0.3,0C24.3,35.7,24.3,36.3,24.7,36.3L24.7,36.3z"/>
		</g>
	</g>
	<g>
		<g>
			<path d="M24.6,37.9c1.5-0.1,2.9-0.1,4.5-0.2c0-0.2,0-0.3-0.1-0.5c-0.9,0.3-1.9,0.7-2.7,0.9c-0.1,0.1-0.4,0.1-0.5,0.2
				c-0.1,0-0.2,0.1-0.2,0.1c-0.1,0.1-0.1,0.1-0.1-0.1c0-0.1,0-0.1-0.1-0.2c-0.1,0-0.1-0.1,0.1,0c0.1-0.1,0.7,0,0.9,0
				c0.3,0,0.8-0.1,1.1-0.1c0.1,0,0.9-0.2,0.9-0.1c-0.1-0.1-0.5,0-0.7,0c-0.2,0-0.5,0.1-0.8,0.2s-0.4,0.3-0.5,0.3
				c-0.2,0.1-0.3,0.1-0.5,0c-0.2,0-0.3-0.1-0.3-0.2c0.1,0.1,0.1,0.3,0.2,0.4c0,0,0.1,0,0.1-0.1c0.3,0,0.3-0.5,0-0.5
				c-0.2,0-0.3,0-0.5,0.2c-0.2,0.2,0,0.4,0.2,0.4c0.5,0,0.7-0.7,0.2-0.9c-0.5-0.3-0.9,0.2-0.8,0.7c0.1,0.8,0.9,0.8,1.5,0.4
				c0.2-0.1,0.4-0.2,0.8-0.3c0.3-0.1,0.7-0.1,1-0.2c0.2-0.1,0.5-0.1,0.7-0.4c0.3-0.8-0.7-0.5-1.1-0.5c-0.8,0.1-1.5,0.2-2.3,0.2
				C25.1,37.6,24.8,37.5,24.6,37.9c-0.2,0.2,0.1,1,0.4,1.1c0.4,0.1,1.4-0.4,1.9-0.5c0.8-0.2,1.5-0.5,2.2-0.8
				c0.3-0.1,0.2-0.5-0.1-0.5c-1.5,0.1-2.9,0.1-4.5,0.2C24.3,37.4,24.3,37.9,24.6,37.9L24.6,37.9z"/>
		</g>
	</g>
	<g>
		<g>
			<path d="M24.9,40.1c0.8-0.1,1.6-0.1,2.4-0.1c0.3,0,0.7,0,1.1,0.1c0.5,0.2,0.7,0.2,0.4,0c-0.2,0.1-0.4,0.2-0.8,0.3
				c-0.5,0.2-1.5,0.7-2.2,0.4c-0.3-0.1-0.4-0.2-0.2-0.5c0.1,0,0.2,0,0.2,0c0.2,0,0.7,0,0.9-0.1c0.2,0,1.2-0.3,0.8,0.1
				c-0.1,0.1-0.9,0.2-1.1,0.2c-0.7,0-0.2,0,0-0.1c0.3,0,0.5-0.1,0.9-0.2c0.3,0,0.5-0.1,0.9-0.2c-0.2,0-0.4,0.1-0.5,0.1
				c-0.3,0.2-0.5,0.3-0.9,0.3c-0.2,0.1-0.4,0.1-0.5,0.2c0,0.2,0.1,0.2,0.3,0.1c0.3,0,0.8-0.2,1.1-0.2c0.3-0.1,0.2-0.5-0.1-0.5
				c-0.5,0.1-2.4,0.3-1.6,1.2c0.1,0.1,0.2,0.1,0.2,0.1c0.7-0.2,1.3-0.4,2.1-0.5c0.3,0,0.7-0.1,0.7-0.4c0.1-0.8-1.2-0.5-1.5-0.5
				c-0.4,0.1-2.1,0.1-2,1c0.1,1,1.9,0.3,2.3,0.2c0.4-0.1,1.4-0.4,1-1.1c-0.2-0.3-0.9-0.3-1.2-0.2c-0.2,0-0.4,0.1-0.7,0.1
				c-0.4,0.1-0.9,0.1-1.2,0.1c-0.7,0.1-0.5,1-0.2,1.3c0.4,0.7,2.2,0.1,2.7-0.1c0.3-0.1,2.1-0.7,1.3-1.3c-0.3-0.2-1.2-0.2-1.6-0.2
				c-0.9-0.1-1.9,0-2.7,0.1C24.6,39.7,24.6,40.2,24.9,40.1L24.9,40.1z"/>
		</g>
	</g>
</g>
<g>
	<path fill="#2E3192" stroke="#000000" stroke-miterlimit="10" d="M152.9,61c4.3-3.1,1-17.2,8.1-18.6c3.9-0.9,4.6-1.9,4.5-2.1
		c0-0.1-4.7,0.5-4.7-1c0-1.4,4.8-1.9,4.9-1.6c0,0.2-4.9,0.2-5-1.2c0-1.2,5.3-1,5.3-1s-5.3-0.5-5.3-1.2c0-1,5.3-1.3,5.3-1.4
		c0-0.1-5.1,0.5-5.2-0.1c-0.3-1.2,5.2-2.8,5.1-2.8c-0.1,0-3.5,1.9-4.4,1c-0.9-0.9,0.8-3.4,0.3-4.7c-0.2-0.8-2-1-2.4-0.2
		c-0.7,1.2-1.1,2.8-1,3.6c0.1,1.7-0.2,3.6-4.9,10.8c-8.2,12.5-12.1,15-11,17.9C143.6,61.4,149.9,63.1,152.9,61z"/>
	<path fill="none" stroke="#000000" stroke-miterlimit="10" d="M165.7,30c0.1,1.1,0.1,1.3,0.2,2.3c0,1,0.1,3.1,0.1,3.8
		c0,0.9-0.1,0.5-0.1,1.2c-0.1,1.6-0.3,2.6-0.5,2.6"/>
	<g>
		<g>
			<path d="M165.2,31c0,0.2,0,0.5,0,0.8s0,0.2,0.2,0.1c0.2,0,0.2,0,0.1,0c-0.3-0.1-0.7,0-1,0.1c-1.1,0.3-2,0.3-3.1,0.2
				c0,0.3,0,0.7,0,1.1c0.7-0.2,1.2-0.4,1.7-0.8c0.5-0.2,1.5-0.8,2.1-0.8c-0.1-0.1-0.3-0.2-0.4-0.2c0,0.1,0,0.3,0,0.4
				c0.1-0.1,0.2-0.3,0.2-0.4c-0.1,0-0.8,0.1-1,0.2c-0.5,0.2-1,0.4-1.5,0.4c0,0.3,0,0.8,0,1.1c0.2,0,0.5,0.4,0.8,0.5
				c0.2,0.1,0.5,0.1,0.8,0c0.5-0.2,0.7-1.3,1.2-1.5c0.7-0.2,0.3-1.3-0.3-1.1c-0.7,0.2-0.9,0.8-1.2,1.2c-0.2,0.3-0.1,0.1-0.5-0.1
				c-0.2-0.2-0.4-0.3-0.8-0.2c-0.7,0.1-0.8,1.1,0,1.1c0.5,0,1-0.1,1.4-0.3c0.2-0.1,0.5-0.2,0.8-0.3c0.1,0,0.5,0,0.7-0.1
				c0.7-0.2,0.5-1,0.3-1.5c-0.1-0.2-0.3-0.2-0.4-0.2c-0.7,0-1.3,0.3-2,0.7c-0.8,0.3-1.4,0.7-2.2,1c-0.4,0.2-0.5,1,0,1.1
				c0.7,0.1,1.3,0.2,2,0.2c0.8,0,1.3-0.3,2.1-0.4c0.4,0,0.8,0.1,1.1-0.2c0.3-0.4,0.2-1.2,0.1-1.6C166.2,30.2,165.1,30.2,165.2,31
				L165.2,31z"/>
		</g>
	</g>
	<g>
		<g>
			<path d="M165.3,33.2c0,0.5,0,1,0,1.5c0.3-0.1,0.7-0.2,1-0.3c-0.4-0.5-0.9-0.7-1.6-0.8c-1.1,0-2.1-0.2-3.1-0.4
				c0.1,0.3,0.1,0.7,0.2,0.9c0.4-0.4,1.1-0.3,1.6-0.4c0.3,0,1.4-0.2,1.6-0.1c-0.1-0.1-0.2-0.3-0.2-0.4c0,0.5,0.1,1.1,0,1.6
				c0.3,0,0.8-0.1,1.1-0.1c0-0.2,0-0.9-0.2-1.2C165.7,33.5,165.5,33.4,165.3,33.2c-0.4,0.1-0.9,0-1.4,0.1c-0.5,0.1-1.1,0.1-1.6,0.1
				c-0.7-0.1-1,1-0.3,1.1c0.5,0.1,1.1,0.1,1.7,0c0.5-0.1,1.2,0,1.7,0c-0.1-0.1-0.3-0.2-0.4-0.2c0.1,0.1,0,0.7,0.1,1
				c0.1,0.7,1.1,0.4,1.1-0.1c0-0.7,0.2-2-0.5-2.2c-0.3-0.1-0.8,0-1.1,0c-0.5,0-1,0.1-1.5,0.1c-0.7,0.1-1.3,0.1-1.7,0.7
				c-0.2,0.3-0.2,0.9,0.2,0.9c0.7,0.1,1.3,0.2,2,0.3c0.4,0.1,1.7-0.1,2.1,0.3s1,0.3,1-0.3c0-0.5,0-1,0-1.5
				C166.4,32.6,165.3,32.6,165.3,33.2L165.3,33.2z"/>
		</g>
	</g>
	<g>
		<g>
			<path d="M164.4,33.2c-0.3,0-0.9,0-1.2,0.1c-0.2,0.1-0.3,0.2-0.7,0.2c-0.2,0-0.5,0.1-0.8,0c0.1,0.1,0.1,0.1,0.2,0.2l0,0
				c0,0.1-0.1,0.2-0.1,0.3l0,0c0.3-0.2,0-0.7-0.3-0.4l0,0c-0.1,0.1-0.1,0.2-0.1,0.3l0,0c0,0.1,0.1,0.2,0.2,0.2
				c0.4,0.1,1.1,0.1,1.4,0c0.2,0,0.2-0.2,0.4-0.2c0.2-0.1,0.7-0.1,1-0.1C164.7,33.8,164.7,33.2,164.4,33.2L164.4,33.2z"/>
		</g>
	</g>
	<g>
		<g>
			<path d="M165.7,33.8c-0.1,0-0.2,0-0.3,0c-0.3,0-0.3,0.5,0,0.5c0.1,0,0.2,0,0.3,0C166,34.3,166,33.8,165.7,33.8L165.7,33.8z"/>
		</g>
	</g>
	<g>
		<g>
			<path d="M165.9,35.1c-1.6,0.1-3.3,0.2-4.9,0.3c-0.5,0-0.8,1-0.1,1.1c0.9,0.1,1.6,0.3,2.5,0.4c0.7,0.1,1.4,0.3,2.2,0.3
				c0.2,0,0.4-0.1,0.4-0.2c0.2-0.4,0.4-1.3-0.1-1.6c-0.3-0.2-1,0-1.3,0c-0.7,0.1-1.3,0-2.1,0c-0.5,0-1.4,0-1.4,0.8
				c0.1,1,1.4,0.7,2,0.8c0.8,0.1,1.9,0.8,2.5,0.1c0.4-0.3,0.5-1.2,0.1-1.5s-1.2-0.1-1.4,0.4c-0.1,0.7,0.4,1,1,0.9
				c0.4-0.1,0.5-0.8,0.1-1c-0.2-0.1-0.3-0.2-0.7-0.2c-0.7,0-0.7,1.1,0,1.1h0.1c0-0.3,0.1-0.7,0.1-1c0.1,0.1,0.2,0.1,0.4,0.2
				c0,0.2-0.1,0.3-0.1,0.5c0.2-0.2-3.2-0.8-3.2-0.7c0,0.2,0,0.3,0,0.5c-0.1,0.3,3.2-0.1,3.3-0.1c-0.1-0.1-0.2-0.3-0.2-0.4
				c0,0.1,0,0.3-0.1,0.5c0.1-0.1,0.3-0.2,0.4-0.2c-0.8,0-1.5-0.2-2.2-0.3c-0.8-0.1-1.4-0.2-2.2-0.4c0,0.3-0.1,0.8-0.1,1.1
				c1.6-0.1,3.3-0.2,4.9-0.3C166.6,36.2,166.7,35.1,165.9,35.1L165.9,35.1z"/>
		</g>
	</g>
	<g>
		<g>
			<path d="M165.8,37.3c-1.4,0-3.3,0.1-4.6,0.9c-0.9,0.5-0.3,1.3,0.3,1.7c1.1,0.5,2.4,1,3.6,0.8c1-0.2,1-1.5,0.8-2.4
				c-0.1-0.2-0.2-0.3-0.5-0.4c-0.8-0.1-1.1,1-1.2,1.5c0,0.1-0.1,0.2-0.1,0.3c0.3,0,0.4-0.1,0.2-0.2c0-0.1-0.3-0.4-0.4-0.5
				c-0.2-0.3-0.4-0.7-0.8-0.9c-0.7-0.4-1.5,0-1.4,0.9c0.1,1.2,2.1,1.3,2.9,1.4c1,0.1,1.5-0.5,1.2-1.5c-0.1-0.2-0.3-0.8-0.5-1
				c-0.3-0.2-0.5-0.1-0.9,0c-0.8,0.2-2.7-0.2-2.7,1.1c0,0.4,0.2,0.8,0.7,0.9c0.4,0.1,0.9,0.1,1.3,0.2c0.4,0.1,0.9,0.2,1.3,0.4
				c0.2,0.1,0.5-0.1,0.7-0.2c0.9-1.3-1.4-1.7-2.2-1.9c-0.7-0.1-0.7,1,0,1.1c0.3,0,0.5,0.1,0.9,0.2c0.2,0.1,0.3,0.1,0.4,0
				c0.2-0.1,0.4-0.2,0.7-0.2c-0.4-0.2-1-0.3-1.4-0.4c-0.4-0.1-0.9-0.1-1.3-0.2c0.1,0.1,0.2,0.2,0.3,0.3c0,0.1,1.3,0,1.4,0
				c0.2,0,0.4-0.1,0.7-0.2c0.3-0.1,0.4,0-0.1-0.1c-0.1-0.1-0.2-0.2-0.3-0.3c0.1,0.2,0.3,0.5,0.4,0.8c0.1,0.2,0.1,0.2,0,0.1
				c-0.1,0-0.2-0.1-0.4-0.1c-0.3,0-0.5-0.1-0.9-0.1c-0.2,0-0.3-0.1-0.5,0c-0.3-0.1-0.4,0-0.2,0.1l0.3,0.3c0.2,0.3,0.4,0.5,0.7,0.9
				c0.3,0.3,0.9,0.7,1.3,0.2c0.2-0.2,0.2-0.4,0.3-0.7c0.1-0.2,0.1-0.3,0.2-0.5c0-0.1,0.1-0.2,0.1-0.2c0.1-0.2,0.1-0.2-0.1-0.1
				c-0.2-0.1-0.3-0.2-0.5-0.4c0.1,0.2,0.1,1,0,1.1c0,0-0.5,0-0.8,0c-0.8-0.1-1.3-0.4-2.1-0.7c-0.2-0.2-0.3-0.2-0.2,0
				c0,0.2,0.1,0.2,0.3,0c0.3,0,0.7-0.2,1-0.2c0.9-0.2,1.7-0.2,2.6-0.2C166.5,38.4,166.5,37.3,165.8,37.3L165.8,37.3z"/>
		</g>
	</g>
</g>
<path fill="#F7941E" stroke="#000000" stroke-miterlimit="10" d="M102.8,70.7c-0.1-0.1,0,0.3-0.9-0.1c-0.8-0.3-0.7-0.2-0.7-0.2
	s0.1,1.1-0.2,2.1c-0.4,1.3-2.1,2-2.7,2.1c-0.7,0.1-3.2,0.3-4-0.8c-0.7-0.9-0.8-2.9-0.8-2.9L91.3,71c0,0,0.8,3.2,1.7,4.3
	c1.3,1.3,2.7,1.4,3.7,1.4c1,0,3.2,0.1,4.8-1.3C102.9,73.9,103.5,71.3,102.8,70.7z"/>
<g>
	<ellipse fill="#39B54A" stroke="#39B54A" stroke-miterlimit="10" cx="99.3" cy="92.4" rx="12.9" ry="12.4"/>
	<polygon fill="#39B54A" stroke="#000000" stroke-miterlimit="10" points="106.5,101.9 99.3,98.3 92.2,102 93.5,94.3 87.7,88.8 
		95.6,87.6 99.1,80.7 102.8,87.6 110.8,88.7 105.1,94.2 	"/>
</g>
</svg>
