<?xml version="1.0" encoding="utf-8"?>
<!-- Generator: Adobe Illustrator 18.1.0, SVG Export Plug-In . SVG Version: 6.00 Build 0)  -->
<!DOCTYPE svg PUBLIC "-//W3C//DTD SVG 1.1//EN" "http://www.w3.org/Graphics/SVG/1.1/DTD/svg11.dtd">
<svg version="1.1" id="Layer_1" xmlns="http://www.w3.org/2000/svg" xmlns:xlink="http://www.w3.org/1999/xlink" x="0px" y="0px"
	 viewBox="0 0 200 200" enable-background="new 0 0 200 200" xml:space="preserve">
<path fill="#593B2B" stroke="#593B2B" stroke-miterlimit="10" d="M103.6,73.8c0,0,0.3-5.5,0.7-8.8c0,0,2.9,1.4,10.2-1.4
	c0.9-0.3,3.8-0.9,7.4-4.5c1.6-1.6,1.9-3.8,2.2-5.4c0.7-3.1-0.2-3.4-0.3-7.1c0,0-0.8-0.2,1.2-1.9c0.2-0.2,1.5-0.2,1.9,0
	c0.7,0.3,1.9,0.8,3.2,0.3c2-0.5,2.6-2.6,3.1-3.7c0.3-0.9,1.2-3.4,0-4.6c-0.9-0.9-2.6-0.7-3.7-0.3c-3.4,1.2-3.8,5.5-4.9,5.3
	c-0.9-0.1,0.2-1.9-1-6.8c-0.3-1.4-0.2-1.8-1.8-4.6c-1.1-2-2.3-4.5-4.1-5.7c-2-1.2-3.8-2.4-9-2.7c-5.7-0.4-6.6-0.1-12.9-0.3
	c-2.6-0.1-6.5-0.1-12.1,2.4c-2.1,1-3.4,9.1-4.3,10.2c-2.9,4,0,4.8-0.2,5.9l0,0c-0.2,0.1-1.2-1.3-2.4-2.2c-0.3-0.2-1.6-1.2-3.3-1.2
	c-1.1,0-3.1,0.3-3.7,1.5c-1.6,2.9,1.5,5.6,4.9,7.5c3.6,1.9,2.2,10.3,3.7,13.3c1.2,2.4,2.9,4.2,7,5.7c4.9,1.8,9.6,2.1,11.5,1l0,0
	c1.9,3.1,0.3,6.2,0.3,6.2c0,0.3,0,1,0,1.8c0.4,0.3,1.2,0.9,2.3,1.1c0.3,0.1,0.7,0.1,1.1,0.1C102.4,74.8,103.6,73.8,103.6,73.8z"/>
<path fill="#8DC63F" stroke="#000000" stroke-miterlimit="10" d="M94.3,72.1c-1.3-1-3.1-0.5-5.9,0c-1.3,0.3-3.2,0.7-5.4,1.9
	c-3.3,1.8-4.9,3.7-8,6.2c-4.3,3.3-7.5,7.1-11.7,10.3c-0.1,0-3.5,1.9-7.4,5.1c-1.1,0.9-2.2,1.9-2.6,3.5c-0.4,1.8,0.2,4,1.3,4.3
	c0.7,0.2,1.1-0.7,3.2-1.9c1.4-0.9,2.6-1.5,4.1-1.4s1.6,0.9,2.7,0.9c2.1,0.1,4.7-3.6,6.4-4.7c1.4-1,3.5-1.4,5.8-3.6
	c1.1-1.1,1.3-1,2.3-1.4c1-0.5,2.5-2.5,4.5,0.5c1.2,2,1,6.7,1.1,8.7c0.1,1.6,0,5.9-0.8,8.9c0,0-0.1,0.5-0.8,3.1l-0.4,1.9
	c0.3,0.7,2.5-0.1,5.9,0s3.8,0.8,5.6,0.3c1.9-0.4,2-1.3,4.2-2.1c1.9-0.7,4.2-0.5,4.7-0.4c1.9,0.4,2.1,1,4.3,1.8c0.7,0.2,0.3,0,2,0.2
	c2.9,0.4,4.6,0.4,6.3,0.2c1.5-0.2,1.8-0.4,1.9-0.5c0.8-1-0.8-2.6-1.4-5.9c-0.2-1-0.3-3.7-0.3-6.8c0-1.8-0.3-3.3,1-6.2
	c1.8-3.8,3.1-3.6,4.2-4.1c1.3-0.5,3.6,1.2,8.1,4.8c3.7,2.9,4.7,4.1,6.8,4.3c1.2,0.1,2.1-0.1,3.7,0.3c0.8,0.2,2.4,0.8,3.5,2.2
	c0.9,1.1,0.9,1.9,1.3,1.9c0.8,0,1.4-1.8,1.6-3.2c0.1-0.4,0.2-1.6-0.2-3c-0.7-2.2-2.4-3.3-4.1-4.4c0,0-0.5-0.4-8.4-6.2
	c-3.3-2.4-2.6-2.2-6.7-5.2c-4.2-3.1-4.5-3.1-6.2-4.6c-2.4-2.3-2.5-3.2-4.4-4.3c-1.2-0.7-2.5-0.9-5.4-1.4c-3.4-0.7-4-0.4-4.3-0.2
	c-1.2,0.9-0.2,2.5-1.4,4.1c-1.3,1.5-3.6,1.6-4.4,1.6c-0.9,0-2.7,0.1-4.1-1.1C94.9,74.9,95.8,73.2,94.3,72.1z"/>
<polygon fill="#262262" stroke="#000000" stroke-miterlimit="10" points="94.7,83.2 87.7,90.5 94.7,100.6 109,100.6 116.1,90.6 
	108.8,83.2 "/>
<polygon fill="#00A79D" stroke="#000000" stroke-miterlimit="10" points="92.9,90.5 97.3,97 105.7,97 110.9,90.5 108.5,87.3 
	95.6,87.3 "/>
<path stroke="#000000" stroke-miterlimit="10" d="M55.1,104.1c-0.3,1.2,0.7,2.5,3.3,5.2c5.8,5.8,6.7,5.1,9.1,8.1s2.9,5.3,6.2,7.6
	c1.4,1,2.4,1.3,3.3,1.1c1.8-0.5,2.4-3.2,2.7-4.8c0.4-1.9,0.9-4.1-0.3-5.7c-1-1.3-2.5-1.6-3.7-1.9c-2.5-0.5-3.2,0.3-4.4,0
	c-3.8-1.1-2.1-10.8-6.7-13c-1.9-0.9-4.4-0.5-5.5-0.2C58.1,100.8,55.7,102.4,55.1,104.1z"/>
<path stroke="#000000" stroke-miterlimit="10" d="M136.1,100.3c-4.2,1.6-2.5,10.8-7,13c-2.3,1.1-4-0.5-6.5,1.1s-3,4.7-3,5.1
	c-0.3,2.7,0.9,6.3,3.2,6.8c1.4,0.4,2.9-0.4,3.8-1.1c2.9-1.9,3.2-3.7,5.6-6.7c1-1.3,0.8-0.8,8.7-8c2.5-2.3,3.6-3.4,3.5-4.8
	c-0.1-2.1-2.3-4.4-3-4.7C140.6,100.4,138,99.5,136.1,100.3z"/>
<path fill="#F7941E" stroke="#000000" stroke-miterlimit="10" d="M81.9,114.9c-0.3,1.3-0.8,2.7-1.1,4.1h12.1l1.3-4.4L81.9,114.9z"/>
<polygon fill="#F7941E" stroke="#000000" stroke-miterlimit="10" points="107.7,114.8 107.7,119.7 118.6,119 117.4,114.6 "/>
<path fill="#2E3192" stroke="#000000" stroke-miterlimit="10" d="M94.5,115.3c-0.1,0.3-1.4,2.6-0.3,4.8c1.3,2.9,5.4,3,6.2,3
	c0.9,0,5.2,0,6.8-3.3c0.1-0.1,1.3-2.6,0-5.1c-1.8-3.3-6.7-2.6-7.3-2.6C99,112.3,96,112.7,94.5,115.3z"/>
<path fill="#00A79D" stroke="#000000" stroke-miterlimit="10" d="M97.5,116c-0.7,1.1-0.5,2.5,0.2,3.5c1.2,1.5,3.8,1.2,5.2,0
	c0.8-0.7,1.5-2,1.1-3.2c-0.4-1.1-2-1.4-2.6-1.4C100.8,114.8,98.6,114.5,97.5,116z"/>
<path fill="#8DC63F" stroke="#000000" stroke-miterlimit="10" d="M81.3,119.3c0,0-1.6,3.6-2.6,7.1c-0.2,0.5-0.9,3.3-1.3,4.8
	c-2.7,9.6-2.1,19.1-3.1,20.1c-1.4,1.3-1.5,2.2-2,4.1c-0.4,2.2-0.4,3.4-0.5,5.4c0,1-0.5,1.8-0.3,2.4c0.2,1,1.8,1.4,2.7,1.6
	c0.5,0.2,3.1,0.5,5.1,0.4c2.1-0.1,4.6-1.1,4.6-1.1v-0.8c0,0,0.2-2.5,0.7-3.7c1.3-3.7,3.1-6.2,5.4-8.9c7.5-8.6,7.9-13.2,9.6-13.7
	c0,0,3.1,4.6,11.4,14.7c2.5,3.1,4.5,5.2,4.6,8.4c0,1.9-0.5,3.7,0.5,4.8c0.2,0.2,0.7,0.5,3.5,0.8c5.1,0.3,6.6-0.7,7-0.9
	c0.5-0.3,1.4-1,1.4-1.9s0.2-1.5,0-2.5c-0.4-2.5-0.2-3.2-1.5-5.5c-0.5-1-1-2.3-1.5-3.5c-1.2-2.5,0.1-9.8-1.4-16.7
	c-0.9-3.8-0.1-6.9-1.4-8.1c-2.1-2.1-3.6-6.6-3.6-6.6s-9.9-0.4-10.9,0.3c-2.7,2-2.3,3.1-7.5,3.1c-4.4,0-6.2-3-7.4-3.3
	C89,118.6,81.3,119.3,81.3,119.3z"/>
<path stroke="#000000" stroke-miterlimit="10" d="M70,167.2c0-1.8-0.1-3.3,0.8-3.7c0.4-0.2,0.9,0,2.1,0.3c1.3,0.4,2.7,0.9,4.1,0.9
	c2.2,0.1,6.4-0.4,6.7,0c1.2,1.4-1.3,5.6-3.2,8.6c-2.6,4.3-3.5,4.4-3.8,6.5c-0.3,2,0.2,2.3,0,6.7c-0.2,3.2-0.5,4.1-0.8,4.4
	c-0.3,0.8-0.9,1.6-3.7,3.8c-2.9,2.3-4.3,3.5-5.6,3.8c-0.3,0.1-4.6,1.4-7.6-0.9c-0.5-0.3-1.4-1.1-1.6-2.2c-0.1-0.4-0.3-1.9,2.1-4.8
	c2.4-3.1,4-3.2,7-6.7c1.2-1.3,1.8-2,2.2-3c1-2.2,0.2-3.2,0.5-7.4C69.3,170,70,170.5,70,167.2z"/>
<path stroke="#000000" stroke-miterlimit="10" d="M117.9,170.2c-1-1.9-2.6-5.1-1.6-5.9c0.4-0.4,1.2,0,3.5,0.3c2.5,0.4,5.3,0.8,7-0.5
	c1.2-0.9,1.2-1.9,1.6-1.9c1.4,0.1,2,7.8,2.1,9.5c0.4,6.7-0.4,7.1,0.5,9.5c0.7,1.6,1.3,1.8,7,7.6c4.2,4.2,5.1,5.5,4.8,6.8
	c-0.3,2.1-3.1,3.1-3.7,3.3c-3.2,1.2-6.2-0.1-6.7-0.3c-1.8-0.9-1.5-1.4-5.2-4.6c-2.6-2.3-2.9-2.1-3.3-3c-0.9-1.8-0.1-2.9-0.2-7.4
	c0-1.4,0-2.2-0.2-3C123,176.6,120.7,175.5,117.9,170.2z"/>
<path fill="#F7941E" stroke="#000000" stroke-miterlimit="10" d="M118.1,74.4c0,0,9.7,2,17,7.3c2.4,1.8,7.6,5.5,12.1,12.2
	c4.2,6.3,3.6,8.9,8.9,15.7c4.1,5.3,6.8,6.7,7.8,7.3c4.2,2.1,8.7,2.3,11,2.2c4.7-0.1,6.5-1.4,7.4-0.3c1.8,1.9-1,8.6-5.6,12.8
	c-2.3,2.1-5.7,3.7-12.4,7c-3.5,1.8-3.2,1.4-4.3,2.1c-6.3,3.8-5.5,7.9-10.2,11.1c-4.1,2.7-4.6,3.4-13,3.3c-4.9,0-8.1,3-9.1,2
	c-0.9-0.9,0.3,1.2-0.8-1.5c-0.7-2-1.4-3.2-2.3-5.1c-0.8-1.6,1.3-7.8-0.7-15.9c-0.9-3.6-1.1-7.7-1.1-7.7s2-0.5,4.1-1.5
	c2.7-1.3,3.5-3.7,5.2-6.5c4.3-7,8.5-5.7,12.4-12.8c1.3-2.4,2.5-4.5,2.1-7c-0.4-2.3-2-3.7-8.1-8.6c-4.3-3.3-6.2-5.1-8.9-6.7
	C123.9,80.5,117.7,75,118.1,74.4z"/>
<g>
	<path fill="#27AAE1" stroke="#000000" stroke-miterlimit="10" d="M120.5,91c2-1.4,3.5,0.9,8.6,4.4c3.7,2.6,6.6,3.4,6.5,4.6
		c0,0.9-1,0.5-1.6,2.3c-1.2,3.4-1.1,7.9-4.1,10.3c-2.1,1.6-4.8-0.4-7.6,1.5c-2.4,1.8-2.7,4.7-3.5,4.6c-0.7-0.1-0.8-2.4-0.9-4.4
		c-0.2-3-1.3-5.1-1.6-6.8c-0.5-3-0.3-5.5-0.1-6.5c0.2-0.9,1.5-2.4,2.5-5.1C119.2,94,119.7,91.6,120.5,91z"/>
</g>
<path fill="#F7941E" stroke="#000000" stroke-miterlimit="10" d="M114.4,157.4c-0.4,0.4-9-3.1-14.5-2.7c-8.2,0.4-14.1,4.5-14.7,3.5
	c-0.8-1.1,3.1-3.5,7.5-10c2.1-3.1,6-11.1,7-11.1c0.8,0,4.5,6,8.2,10.7C111.7,152.3,114.7,157,114.4,157.4z"/>
<path fill="#F7941E" stroke="#000000" stroke-miterlimit="10" d="M71.9,154c-2.2,2.3-4.8-3.1-10.2-5.1c-5.3-1.9-6.6,1-11.1-0.5
	c-6.5-2.2-4.8-8.5-12.4-13c-1.3-0.8-5.2-2-13-4.4c-6.5-2.1-7.4-2.1-7.8-3.2C16,124.2,26,120,36,107c5.7-7.5,5.2-9.6,11-15.2
	c3.7-3.6,7.1-5.8,14-10.2c5.4-3.5,9.2-5.5,14-6.8c2.7-0.8,8.1-1.1,8.1-1.1s-2.5,2.4-7.8,6.3c-7.7,5.7-6.5,5.7-12.3,10
	c-6.6,4.7-9.8,5.8-10.2,9.1c-0.2,1.6,0.4,3.1,1.4,5.1c1.6,3.3,3.3,4.1,8.1,8.7c4,3.8,5.9,5.7,7,7.4c1.5,2.2,2.3,4.1,4.6,5.2
	c2.3,1.1,4.7-0.3,4.4,1.1c-0.3,2.1-2.9,6.9-3.1,16.5c0,2.3-0.2,4.7-0.8,7.5C74.3,152.2,73.2,152.7,71.9,154z"/>
<g>
	<path fill="#F7941E" stroke="#000000" stroke-miterlimit="10" d="M120.5,91c2.3-0.5,3.5,0.9,8.6,4.4c3.7,2.6,6.6,3.4,6.5,4.6
		c0,0.9-1,0.5-1.6,2.3c-1.2,3.4-1.1,7.9-4.1,10.3c-2.1,1.6-4.8-0.4-7.6,1.5c-2.4,1.8-2.7,4.7-3.5,4.6c-0.7-0.1-0.8-2.4-0.9-4.4
		c-0.2-3-1.3-5.1-1.6-6.8c-0.5-3-0.2-5.5-0.3-6.5c-0.2-1.5-0.2-5.1,1.3-7.1C118.4,92.2,119.5,91.3,120.5,91z"/>
</g>
<g>
	<path fill="#F7941E" stroke="#000000" stroke-miterlimit="10" d="M82.3,90c-0.5-0.2-5.1,1.6-10.4,5.2c-3.8,2.5-6.6,3.2-6.6,4.5
		c0,0.9,0,0.9,1.1,2.5c2,3.1,1.1,8.5,4.1,11c2,1.8,5.2-0.8,7.8,1.3c2.4,1.9,2.7,4.6,3.5,4.5c0.7-0.1,0.9-2.4,1-4.4
		c0.3-3,1.4-5.1,1.9-6.8c0.5-3,0.4-5.5,0.2-6.5c-0.2-0.9,0.4-4.9-0.4-7.5C83.6,91.7,83.2,90.5,82.3,90z"/>
</g>
<path fill="#F7941E" stroke="#000000" stroke-miterlimit="10" d="M94.8,71.9c0-0.1,0,0.3,0.9-0.1c0.8-0.4,0.7-0.3,0.7-0.3
	s0,1.1,0.3,2.1c0.4,1.3,2.2,1.9,2.9,2s3.2,0.1,4.1-1c0.7-0.9,0.7-3,0.7-3h2.3c0,0-0.5,3.2-1.4,4.3c-1.2,1.4-2.6,1.5-3.6,1.6
	s-3.1,0.3-4.8-1.1C94.9,75.1,94.3,72.6,94.8,71.9z"/>
<path fill="none" stroke="#3C2415" stroke-miterlimit="10" d="M127.7,41.8c-0.2-0.2,0.4-1.2,1.3-1.6c1-0.4,2.2-0.3,2.3,0
	C131.3,40.8,128,42.3,127.7,41.8z"/>
<path fill="none" stroke="#3C2415" stroke-miterlimit="10" d="M77.1,42.4c0.1-0.2-1-1.3-2.4-1.6c-1.1-0.3-2.5-0.3-2.6,0
	C72.1,41.3,76.9,43,77.1,42.4z"/>
<g>
	<path fill="#FFFFFF" stroke="#000000" stroke-miterlimit="10" d="M106.5,43.7c1,0.5,2-1,4.7-1c2.5,0,3.6,1.4,4.4,0.8
		c1-0.8,0.1-3.5-1-6.8c-0.9-2.6-1.6-3.6-2.7-4.4c-0.4-0.3-1.3-0.9-2.3-0.7c-0.4,0.1-1.4,0.4-2.6,3.6
		C106.8,35.6,104.5,42.4,106.5,43.7z"/>
	<path fill="#3C2415" stroke="#000000" stroke-miterlimit="10" d="M108,41.8c-1.5-2-0.7-4.4-0.4-4.7c0.1-0.1,1.3-3.1,3.4-3.1
		c2,0.1,3,2.6,3.2,3.1c0.8,1.9-0.5,5.8-3.1,5.6C109.2,42.6,109.1,43.3,108,41.8z"/>
	<path fill="#603913" stroke="#000000" stroke-miterlimit="10" d="M111,42.6c-1.2-0.1-1.6-0.3-1.6-1.6c0-0.7,0.3-2.3,1.5-2.3
		s1.5,0.4,1.6,2C112.5,41.7,112.2,42.7,111,42.6z"/>
</g>
<g>
	<path fill="#FFFFFF" stroke="#000000" stroke-miterlimit="10" d="M86.7,43.7c1,0.5,2-1,4.7-1c2.5,0,3.6,1.4,4.4,0.8
		c1-0.8,0.1-3.5-1-6.8C94,34,93.2,33,92.1,32.2c-0.4-0.3-1.3-0.9-2.3-0.7c-0.4,0.1-1.4,0.4-2.6,3.6C87.1,35.6,84.7,42.4,86.7,43.7z"
		/>
	<path fill="#3C2415" stroke="#000000" stroke-miterlimit="10" d="M88.2,41.8c-1.5-2-0.7-4.4-0.4-4.7c0.1-0.1,1.3-3.1,3.4-3.1
		c2,0.1,3,2.6,3.2,3.1c0.8,1.9-0.5,5.8-3.1,5.6C89.4,42.6,89.3,43.3,88.2,41.8z"/>
	<path fill="#603913" stroke="#000000" stroke-miterlimit="10" d="M91.3,42.6c-1.2-0.1-1.6-0.3-1.6-1.6c0-0.7,0.3-2.3,1.5-2.3
		s1.5,0.4,1.6,2C92.9,41.7,92.5,42.7,91.3,42.6z"/>
</g>
<path fill="none" stroke="#000000" stroke-miterlimit="10" d="M106.5,27c1.8-0.5,5.2,0,7.8,3"/>
<path fill="none" stroke="#000000" stroke-miterlimit="10" d="M86.7,30c0-1.6,3.5-3,7.8-3"/>
<line fill="none" stroke="#000000" stroke-miterlimit="10" x1="108.5" y1="29.7" x2="108.5" y2="29.7"/>
<g>
	<path fill="none" stroke="#3C2415" stroke-miterlimit="10" d="M101.4,49.1c-0.2-0.1-1.5-0.9-3-0.4c-1.3,0.4-2.5,1.8-2.3,3.2
		c0.2,1.1,1.1,1.9,2,2.1c1.1,0.3,2.3,0,3.2-0.9"/>
</g>
<path fill="none" stroke="#7C414B" stroke-miterlimit="10" d="M84.2,55.7c0.4-0.8,1.9-1.4,1.9-1.4s1.2,1.5,2,2.6
	c2.7,3.5,6.7,4.5,8.1,4.8c2.2,0.4,3.8,0.2,5.5,0.1c1.3-0.1,3.3-0.2,5.5-1.3c1.2-0.7,2.4-1.2,4.2-2.5c2-1.3,2.2-1.9,2.2-1.9
	c1.3-1.3,1.6-1.5,1.6-1.5s0.7,0.8,0.9,1.3"/>
<path stroke="#000000" stroke-miterlimit="10" d="M74.6,34c-0.4-1.6-0.9-3.5-1.1-6.2c-0.2-2-0.3-4.5,0.2-7.8c0.5-2.9,1-5.4,3.1-7.7
	c1.5-1.6,3.3-2.7,4.2-3.2c1.1-0.5,2-0.9,3.7-1.5c1.6-0.5,2.9-0.9,2.6-0.7c-0.4,0.5-3.1,3.4-3.3,7.9c-0.1,0.9-0.2,2.9,1,4.4
	c1.1,1.4,2.5,1.8,2.4,2.3c-0.1,0.7-0.4,0.6-2.2,1.9c-0.5,0.4-2.7,0.4-3.9,3.8c-1.3,4.1-1.3,4.5-2.2,6.5c-0.4,1-1.5,4-1.5,4l-1.3-0.8
	C76.5,37.2,75.5,37.1,74.6,34z"/>
<path stroke="#000000" stroke-miterlimit="10" d="M92.4,3.3c1.4-0.7,3.6-1.6,7-2.2c2.7-0.4,6.8-1.1,11.7,0.1
	c2.2,0.5,9.3,2.3,12.6,8.2c2.4,4.2,1.4,5.4,2.3,11.4c0.2,1.4,5.8,3.1,4,11.9c-0.2,1.1-0.8,2-1.1,2.6c-1,2.1-3.3,5.5-4.4,5.2
	s0.2-3.6-1.3-8.4c-0.3-1.1-1.3-4.1-4-6.5c-2.1-2-4.3-2.9-5.6-3.3c-2.4-0.9-3.4-0.5-10.3-0.9c-8.5-0.3-8.1-0.7-10-0.3
	c-2.3,0.5-2.8,0.5-5,0.5c-1.8,0-3.2-1.9-3.5-2.4c-1.6-3.2-0.5-6.6,0-8c0.3-1.1,1.2-3,3-4.8C89.3,4.8,90.9,4.1,92.4,3.3z"/>
</svg>
