<?xml version="1.0" encoding="utf-8"?>
<!-- Generator: Adobe Illustrator 18.1.0, SVG Export Plug-In . SVG Version: 6.00 Build 0)  -->
<!DOCTYPE svg PUBLIC "-//W3C//DTD SVG 1.1//EN" "http://www.w3.org/Graphics/SVG/1.1/DTD/svg11.dtd">
<svg version="1.1" id="Layer_1" xmlns="http://www.w3.org/2000/svg" xmlns:xlink="http://www.w3.org/1999/xlink" x="0px" y="0px"
	 viewBox="0 0 151.4 183.5" enable-background="new 0 0 151.4 183.5" xml:space="preserve">
<path fill="#F7941E" stroke="#000000" stroke-miterlimit="10" d="M102.8,138.2c2.1,2,4.2-3.1,9-5.1c4.7-2,6,0.6,10.1-1.1
	c5.8-2.4,3.9-8,10.6-12.5c1.1-0.8,4.6-2.1,11.5-4.8c5.8-2.2,6.6-2.4,6.9-3.3c1.1-3.4-8.2-6.6-18-17.8c-5.7-6.4-5.2-8.4-10.8-13.2
	c-3.6-3.1-6.8-4.9-13.2-8.5c-5.1-2.9-18.1-4-13.1-0.7c7.2,4.7-6.4,9.1-6.9,15.7c-0.4,4.9-1.9,8.1-1.3,11c0.3,1.5,7.5,14.4,7.8,15.7
	c0.4,1.9,3,6.1,3.7,14.8c0.2,2.1,0.4,4.3,1.1,6.8C100.5,136.6,101.5,137,102.8,138.2z"/>
<path fill="#8DC63F" stroke="#000000" stroke-miterlimit="10" d="M79.2,65.5c1.1-0.9,2.8-0.6,5.4-0.1c1.2,0.2,3.2,0.4,5.2,0.8
	c3.5,0.6,5.5,1.3,8.7,0c3.6-1.5,8.8-5.2,12.2-7.2c0.1,0,3.4-6.5,5.7-8.5c1-0.8,1.7,2.2,3,3.1c1,0.7,4.2,1.8,4.6,2.3
	c0,0-0.5,0.3-1.2,1.1c-1,1.1-3.3,4.8-4.5,6c-1,0.9-3.6,4.3-4.3,5.1c-1.2,1.6-3.9,2.6-5.7,3.5c-1.5,0.7-5.5,2.6-7.8,3.4
	c-1.4,0.5-6.6,6.7-7.1,7.2c-0.6,0.6-0.9,2.1-2.4,5.1c-0.9,1.9-1.2,2-1.7,3.6c-0.5,1.4-0.1,7.4,0.2,8.3c0,0,0.1,0.3,0.8,2.8l0.5,1.7
	c-0.2,0.6-2.3,0-5.4,0.1c-3.1,0.2-3.5,0.8-5.1,0.5c-1.7-0.4-1.9-1.1-3.9-1.8c-1.7-0.6-3.8-0.4-4.4-0.2c-1.7,0.5-1.9,1-3.8,1.7
	c-0.6,0.2-0.3,0-1.8,0.2c-2.6,0.4-4.2,0.5-5.7,0.3c-1.4-0.1-1.6-0.4-1.7-0.5c-0.8-0.9,0.1-2.4,0.7-5.4c0.2-0.9,0.8-3.2,0-5.9
	c-0.3-1.1-1.2-2-2.6-4.5c-1.7-3-1.5-3.1-2.1-4.7c-0.3-0.8-0.4-0.8-2.9-3.2c-2.5-2.4-2.4-2.1-3.7-3.5c-1.2-1.3-3.8-4.5-5.9-4.4
	c-1,0-11.9-2.7-13.5-4.3c-0.8-0.9-6.6-9.4-6.9-9.7c-1.3-2,0.4-3.5,0.9-3.9c1.7-1.5,2.2-1.3,3.4-2.7c1.4-1.5,1.9-3.4,2.6-1.7
	c0.3,0.8,5,10.3,6.5,10.9c2.6,1.2,14.8,5.2,16.2,5.6c3.2,0.9,4.6,1.6,7.6,0.8c1.2-0.3,2.3-0.9,4.9-1.5c3-0.7,3.6-0.5,3.9-0.3
	c1.1,0.8,0.3,2.3,1.5,3.7c1.2,1.4,3.3,1.4,4.1,1.4c0.8,0,2.5,0,3.7-1.1C78.8,68.1,78,66.6,79.2,65.5z"/>
<path fill="#F7941E" stroke="#000000" stroke-miterlimit="10" d="M91.5,103.2c0.4,1.2,0.8,2.4,1.2,3.6l-10.9,0.7l-1.4-4L91.5,103.2z
	"/>
<polygon fill="#F7941E" stroke="#000000" stroke-miterlimit="10" points="68.1,104.5 68.3,109 58.4,109 59.3,104.9 "/>
<path fill="#262262" stroke="#000000" stroke-miterlimit="10" d="M80,104.3c0.2,0.2,1.4,2.3,0.6,4.4c-1.1,2.7-4.7,3-5.4,3
	c-0.8,0.1-4.7,0.3-6.4-2.6c-0.1-0.1-1.3-2.4-0.3-4.5c1.5-3.1,5.9-2.8,6.4-2.8C75.8,101.8,78.6,102,80,104.3z"/>
<path fill="#00A79D" stroke="#000000" stroke-miterlimit="10" d="M77.4,105.1c0.7,0.9,0.7,2.3,0,3.2c-1,1.4-3.4,1.3-4.7,0.3
	c-0.7-0.6-1.6-1.7-1.2-2.8c0.4-1.1,1.7-1.4,2.3-1.5C74.3,104.2,76.3,103.7,77.4,105.1z"/>
<path fill="#8DC63F" stroke="#000000" stroke-miterlimit="10" d="M92.8,107.5c0,0,1.2,2.8,2.3,6c0.2,0.5,1,2.9,1.4,4.3
	c3,8.5,2.9,17.2,3.9,18c1.3,1.1,1.5,2,2,3.6c0.5,2,0.6,3.1,0.8,4.9c0.1,0.9,0.6,1.6,0.5,2.2c-0.1,0.9-1.5,1.3-2.4,1.7
	c-0.5,0.2-2.8,0.7-4.6,0.7c-1.9,0-4.3-0.7-4.3-0.7l0-0.7c0,0-0.3-2.3-0.8-3.4c-1.4-3.3-3.1-5.4-5.4-7.8c-7.2-7.4-7.9-11.5-9.4-12
	c0,0-2.5,4.3-9.5,14c-2.1,2.9-3.8,4.9-3.7,7.8c0.1,1.7,0.7,3.3-0.2,4.4c-0.2,0.2-0.6,0.6-3.2,0.9c-4.6,0.5-6-0.2-6.5-0.4
	c-0.5-0.3-1.4-0.8-1.5-1.6c-0.1-0.8-0.2-1.4-0.1-2.3c0.2-2.3,0.1-3,1.1-5.1c0.5-0.9,0.8-2.2,1.2-3.3c0.9-2.4-0.6-8.9,0.3-15.3
	c0.5-3.5-0.2-6.3,0.8-7.4c1.8-2,2.9-6.2,2.9-6.2s8.9-0.9,9.9-0.3c2.6,1.6,2.3,2.6,6.9,2.3c4-0.2,5.4-3,6.5-3.4
	C85.2,107,92.8,107.5,92.8,107.5z"/>
<path stroke="#000000" stroke-miterlimit="10" d="M105.2,150c-0.1-1.6-0.1-3-0.9-3.3c-0.4-0.2-0.8,0-1.8,0.5c-1.2,0.5-2.4,1-3.7,1.1
	c-2,0.2-5.8,0-6.1,0.4c-1,1.4,1.5,5,3.3,7.6c2.7,3.8,3.4,3.8,3.9,5.7c0.4,1.7-0.1,2.1,0.4,6.1c0.3,2.8,0.7,3.6,0.9,4
	c0.4,0.7,0.9,1.4,3.6,3.3c2.7,2,4.1,2.9,5.3,3.2c0.3,0.1,4.3,1,6.9-1.3c0.4-0.4,1.2-1.1,1.4-2.1c0.1-0.4,0.2-1.7-2.1-4.3
	c-2.4-2.6-3.8-2.7-6.8-5.7c-1.2-1.1-1.7-1.7-2.2-2.6c-1-1.9-0.4-2.9-0.9-6.7C105.9,152.5,105.5,153,105.2,150z"/>
<path stroke="#000000" stroke-miterlimit="10" d="M61.9,155.4c0.8-1.7,2.1-4.7,1.2-5.5c-0.5-0.4-1.1,0.1-3.2,0.5
	c-2.3,0.5-4.7,1-6.4-0.1c-1.1-0.7-1.2-1.7-1.6-1.6c-1.3,0.2-1.3,7.2-1.3,8.7c0,6.1,0.8,6.4,0,8.6c-0.6,1.6-1.1,1.7-6,7.3
	c-3.5,4.1-4.3,5.2-4,6.5c0.5,1.8,2.9,2.6,3.6,2.8c2.9,0.9,5.6-0.5,6-0.7c1.5-0.9,1.3-1.4,4.5-4.5c2.3-2.3,2.5-2.1,2.9-2.9
	c0.7-1.6-0.1-2.6-0.2-6.7c0-1.3-0.1-2,0-2.7C57.6,161.5,59.7,160.4,61.9,155.4z"/>
<path fill="#F7941E" stroke="#000000" stroke-miterlimit="10" d="M45,73.4c0,0-0.8,1-3.4,2.9C39.4,78,35,81.8,31.3,88.2
	c-3.5,6-2.8,8.3-7.2,14.8c-3.4,5-5.8,6.5-6.7,7c-3.6,2.1-7.8,2.5-9.8,2.6c-4.3,0.2-5.9-0.9-6.8,0.1c-1.5,1.8,1.4,7.8,5.8,11.3
	c2.2,1.8,5.4,3.1,11.7,5.7c3.3,1.4,3,1.1,4,1.6c5.9,3.1,5.4,6.9,9.9,9.5c3.9,2.3,4.4,2.8,12,2.3c4.5-0.3,7.3,2.7,8,1.5
	c0.1-0.2,0.4-0.3,1-1.7c0.7-1.7,1.1-2.9,1.8-4.7c0.6-1.6-1.7-7-0.3-14.5c0.6-3.4,1.4-6.8,2.5-9.6c1.6-4.2,0.4-1.1,1.6-4.2
	c0.9-2.4,1.8-10.3,2.4-11.9c1.7-4.5-3.8-12.6-5-14.1c-0.4-0.5-4.6-4.3-7.9-7.3C46.9,75.5,45.4,73.9,45,73.4z"/>
<path fill="#F7941E" stroke="#000000" stroke-miterlimit="10" d="M64.4,143.6c0.4,0.4,8-3.3,13-3.3c7.5-0.1,13,3.3,13.6,2.4
	c0.7-1-3-3-7.4-8.7c-2-2.6-6.2-9.7-7-9.7c-0.7,0-3.7,5.7-6.9,10.1C66.6,138.8,64,143.3,64.4,143.6z"/>
<path fill="#593B2B" stroke="#593B2B" stroke-miterlimit="10" d="M70.9,66.9c0,0-0.6-5-1.1-7.9c0,0-2.5,1.5-9.3-0.7
	c-0.8-0.3-3.6-0.6-7-3.7c-1.5-1.4-1.9-3.4-2.3-4.7c-0.8-2.8,0-3.1-0.1-6.5c0,0,0.7-0.2-1.2-1.6c-0.2-0.2-1.4-0.1-1.7,0.1
	c-0.6,0.3-1.7,0.8-2.9,0.5c-1.8-0.4-2.6-2.2-3-3.2C42,38.3,41,36,42,34.8c0.8-0.9,2.4-0.8,3.4-0.5c3.1,0.9,3.8,4.7,4.8,4.5
	c0.8-0.2-0.3-1.7,0.5-6.3c0.2-1.3,0.1-1.6,1.3-4.3c0.9-1.9,1.8-4.3,3.4-5.4c1.7-1.2,3.3-2.4,8-3c5.1-0.7,6-0.4,11.7-1
	c2.4-0.3,5.9-0.5,11.1,1.5c1.9,0.7,3.6,8.1,4.4,9.1c2.9,3.4,0.2,4.4,0.6,5.3c0,0,0,0,0,0c0.2,0.1,1-1.2,2.1-2.1
	c0.3-0.3,1.4-1.2,3-1.3c1-0.1,2.8,0.2,3.5,1.2c1.6,2.5-1.1,5.2-4.1,7c-3.2,1.9-1.4,9.5-2.7,12.3c-1,2.2-2.4,4-6.1,5.5
	c-4.4,1.8-8.6,2.4-10.5,1.6c0,0,0,0,0,0c-1.5,2.9,0.1,5.6,0.1,5.6c0,0.3,0.1,0.9,0.1,1.6c-0.4,0.3-1.1,0.8-2.1,1.2
	c-0.3,0.1-0.6,0.2-1,0.2C72.1,67.7,70.9,66.9,70.9,66.9z"/>
<path fill="none" stroke="#3C2415" stroke-miterlimit="10" d="M47.3,39.3c0.2-0.2-0.5-1-1.3-1.4c-0.9-0.4-2-0.2-2.1,0.1
	C43.9,38.5,47,39.7,47.3,39.3z"/>
<path fill="none" stroke="#3C2415" stroke-miterlimit="10" d="M93.2,37c-0.1-0.2,0.9-1.2,2.1-1.7c1-0.4,2.3-0.4,2.4-0.1
	C97.8,35.7,93.5,37.4,93.2,37z"/>
<g>
	<path fill="#FFFFFF" stroke="#000000" stroke-miterlimit="10" d="M66.7,39.7c-0.9,0.6-1.9-0.8-4.4-0.7c-2.3,0.1-3.2,1.5-4,1
		c-1-0.6-0.3-3.2,0.5-6.2c0.7-2.4,1.3-3.4,2.2-4.2c0.4-0.3,1.1-0.9,2-0.7c0.4,0.1,1.4,0.3,2.6,3.1C65.9,32.5,68.4,38.5,66.7,39.7z"
		/>
	<path fill="#3C2415" stroke="#000000" stroke-miterlimit="10" d="M65.2,38.1c1.2-1.9,0.3-4,0.1-4.3c-0.1-0.1-1.3-2.8-3.3-2.6
		c-1.8,0.2-2.6,2.6-2.7,2.9c-0.6,1.8,0.8,5.3,3.1,5C64.1,38.9,64.2,39.6,65.2,38.1z"/>
	<path fill="#603913" stroke="#000000" stroke-miterlimit="10" d="M62.4,39c1.1-0.2,1.5-0.3,1.4-1.6c0-0.6-0.4-2.1-1.5-2
		c-1.1,0.1-1.4,0.5-1.4,1.9C61,38.2,61.4,39.2,62.4,39z"/>
</g>
<g>
	<path fill="#FFFFFF" stroke="#000000" stroke-miterlimit="10" d="M84.6,38.6c-0.9,0.6-1.9-0.8-4.4-0.7c-2.3,0.1-3.2,1.5-4,1
		c-1-0.6-0.3-3.2,0.5-6.2c0.7-2.4,1.3-3.4,2.2-4.2c0.4-0.3,1.1-0.9,2-0.7c0.4,0.1,1.4,0.3,2.6,3.1C83.8,31.4,86.3,37.4,84.6,38.6z"
		/>
	<path fill="#3C2415" stroke="#000000" stroke-miterlimit="10" d="M83.1,37c1.2-1.9,0.3-4,0.1-4.3c-0.1-0.1-1.3-2.8-3.3-2.6
		c-1.8,0.2-2.6,2.6-2.7,2.9c-0.6,1.8,0.8,5.3,3.1,5C82,37.8,82.1,38.5,83.1,37z"/>
	<path fill="#603913" stroke="#000000" stroke-miterlimit="10" d="M80.4,37.9c1.1-0.2,1.5-0.3,1.4-1.6c0-0.6-0.4-2.1-1.5-2
		c-1.1,0.1-1.4,0.5-1.4,1.9C78.9,37.1,79.3,38.1,80.4,37.9z"/>
</g>
<path fill="none" stroke="#000000" stroke-miterlimit="10" d="M65.7,24.7c-1.6-0.4-4.7,0.3-6.9,3.1"/>
<path fill="none" stroke="#000000" stroke-miterlimit="10" d="M83.8,26.3c-0.1-1.5-3.4-2.5-7.3-2.3"/>
<line fill="none" stroke="#000000" stroke-miterlimit="10" x1="64.1" y1="29.1" x2="64.1" y2="29.1"/>
<g>
	<path fill="none" stroke="#3C2415" stroke-miterlimit="10" d="M74.4,44.3c-0.2-0.1-1.3-0.9-2.7-0.5c-1.2,0.3-2.3,1.5-2.2,2.8
		c0.1,1,1,1.7,1.7,2c1,0.4,2.1,0.1,2.9-0.7"/>
</g>
<path fill="none" stroke="#BE1E2D" stroke-miterlimit="10" d="M87.5,49.5c-0.5-0.6-1.8-1.2-1.8-1.2s-1,1.5-1.7,2.5
	c-2.3,3.4-5.8,4.5-7.1,4.8c-1.9,0.5-3.5,0.4-5,0.4c-1.2-0.1-3,0-5.1-0.9c-1.1-0.5-2.3-1-4-2c-1.8-1.1-2.1-1.6-2.1-1.6
	c-1.3-1.1-1.6-1.3-1.6-1.3s-0.6,0.8-0.8,1.3"/>
<path stroke="#000000" stroke-miterlimit="10" d="M94.9,28.6c0.4-1.5,0.7-2.6,0.8-5.1c0-1.8,0.1-4.1-0.7-7.1
	c-0.7-2.6-1.2-4.8-3.2-6.8c-1.5-1.5-3.2-2.3-3.9-2.6c-1-0.5-1.8-0.7-3.5-1.2c-1.5-0.5-2.6-0.7-2.4-0.5c0.4,0.5,3,3,3.5,7
	c0.1,0.8,0.3,2.6-0.6,4.1c-0.9,1.4-2.2,1.8-2.1,2.3c0.2,0.6,2.1,0,3.7,1.1c0.5,0.4,0.8,0.7,2,3.8c1.5,3.6,1.5,4,2.3,5.8
	c0.4,0.9,1.4,2.8,1.4,2.8l0,0C92.3,32.2,94.2,31.6,94.9,28.6z"/>
<path stroke="#000000" stroke-miterlimit="10" d="M77.2,2.3c-1.3-0.5-3.4-1.2-6.5-1.6C68.1,0.5,64.3,0.1,60,1.5
	c-1.9,0.6-8.3,2.6-11.1,8.2c-1.9,3.9-1,4.9-1.5,10.5c-0.1,1.3-5.1,3.1-2.9,11c0.3,0.9,0.8,1.8,1.1,2.4c1.1,1.8,3.3,4.8,4.3,4.4
	c1-0.4-0.4-3.3,0.7-7.7c0.3-1.1,1-3.7,3.2-6.1c1.8-1.9,3.8-2.8,4.9-3.3c2.2-0.9,3-0.7,9.3-1.4c7.6-0.8,7.4-1,9.1-0.8
	c2.1,0.2,2.7,0.2,4.6,0.1c1.6-0.1,2.8-1.9,3.1-2.4c1.4-2.9,0.1-6-0.5-7.3c-0.4-1-1.3-2.7-2.9-4.2C80,3.5,78.6,2.9,77.2,2.3z"/>
<g>
	<path fill="#2E3192" stroke="#000000" stroke-miterlimit="10" d="M20.9,55.8c-4.2-2.3-2.8-15.6-9.4-16.1c-3.7-0.3-4.3-1.2-4.3-1.4
		c0-0.1,4.3,0,4.2-1.4c-0.1-1.3-4.6-1.1-4.6-1c0,0.2,4.5-0.4,4.4-1.7c-0.1-1.1-5-0.3-5-0.3c0,0,4.8-1.1,4.7-1.7
		c-0.1-0.9-5-0.6-5-0.7c0-0.1,4.7-0.1,4.8-0.7c0.2-1.1-5.1-2-5-2c0.1,0,3.4,1.3,4.1,0.4c0.7-0.9-1.1-3-0.8-4.2
		c0.1-0.7,1.6-1.2,2.1-0.4c0.7,1,1.3,2.5,1.3,3.2c0.1,1.6,0.6,3.2,5.7,9.3c8.8,10.5,12.7,12.3,12,15.1
		C29.3,55.1,23.8,57.4,20.9,55.8z"/>
	<path fill="none" stroke="#000000" stroke-miterlimit="10" d="M5.7,28.9c0,1,0.1,1.9,0.2,2.8C5.9,32.5,6,33.3,6.1,34
		c0.1,0.8,0.2,1.4,0.3,2c0.3,1.4,0.5,2.3,0.8,2.3"/>
	<g>
		<g>
			<path d="M6,29.7c0,0.6-0.1,1.5,0.6,1.5c0.4,0,0.5,0,0.8,0c0.3,0.1,0.5,0.1,0.8,0.1c0.5,0,1.1-0.2,1.6-0.4c0.2-0.1,0.2-0.4,0-0.5
				c-0.6-0.2-1.2-0.5-1.9-0.7c-0.4-0.1-1-0.4-1.4-0.3c-0.1,0-0.2,0.1-0.2,0.2c-0.1,0.4-0.2,0.9,0.3,1c0.2,0,0.4,0,0.6,0
				c0.2,0.1,0.4,0.1,0.6,0.2C8.2,31,8.5,31.1,8.8,31c0.3,0,0.2-0.4,0-0.5C8.1,30.3,7.5,30,6.7,30c-0.3,0-0.3,0.5,0,0.5
				C7.4,30.5,8,30.8,8.7,31c0-0.2,0-0.3,0-0.5c-0.5,0.1-1-0.2-1.5-0.3c-0.1,0-0.3,0-0.4,0c-0.2-0.1,0-0.1,0.1-0.1
				c0.4,0,0.9,0.3,1.3,0.4c0.5,0.2,0.9,0.4,1.4,0.5c0-0.2,0-0.3,0-0.5c-0.4,0.1-0.8,0.3-1.2,0.3c-0.5,0.1-0.9-0.1-1.4-0.2
				c-0.2,0-0.4,0.1-0.6,0.1c-0.2,0,0.1,0,0.1,0c-0.1-0.1-0.1-0.8-0.1-1C6.5,29.4,6,29.4,6,29.7L6,29.7z"/>
		</g>
	</g>
	<g>
		<g>
			<path d="M6.1,32.3c0,0.4,0.1,0.9,0.1,1.3c0,0.2,0.4,0.4,0.5,0.1c0.2-0.5,1.1-0.5,1.5-0.6c0.5-0.1,1-0.3,1.5-0.5
				c0.2-0.1,0.2-0.3,0.1-0.4c-0.5-0.5-1.1-0.4-1.8-0.3c-0.4,0-1.5-0.2-1.7,0.4C6.3,32.6,6.6,33,6.9,33c0.4,0,0.8-0.1,1.2-0.1
				c0.4,0,0.8,0,1.2-0.1c0.3-0.1,0.2-0.6-0.1-0.5c-0.5,0.1-0.9,0.1-1.4,0.1c-0.3,0-0.8,0.1-0.9,0.1c0.7,0,2.1-0.4,2.6,0.1
				c0-0.1,0.1-0.3,0.1-0.4c-0.7,0.2-1.4,0.5-2.2,0.6c-0.5,0.1-0.9,0.2-1.2,0.6c0.2,0,0.3,0.1,0.5,0.1c0-0.4-0.1-0.9-0.1-1.3
				C6.6,31.9,6.1,31.9,6.1,32.3L6.1,32.3z"/>
		</g>
	</g>
	<g>
		<g>
			<path d="M7.7,32.6c0.2,0,0.5-0.1,0.7,0c0.2,0,0.3,0.2,0.5,0.2c0.3,0.1,1,0,1.3-0.1c0.1,0,0.2-0.1,0.2-0.2c0,0,0,0,0,0
				c0-0.1-0.1-0.2-0.1-0.2c0,0,0,0,0,0C10,32,9.7,32.4,10,32.6c0,0,0,0,0,0c0-0.1-0.1-0.1-0.1-0.2c0,0,0,0,0,0
				c0.1-0.1,0.1-0.2,0.2-0.2c-0.2,0.1-0.5,0.1-0.7,0.1c-0.3,0-0.3,0-0.6-0.1c-0.3-0.2-0.8-0.1-1.1,0C7.3,32.1,7.3,32.6,7.7,32.6
				L7.7,32.6z"/>
		</g>
	</g>
	<g>
		<g>
			<path d="M6.6,33.3c0.1,0,0.2,0,0.3,0c0.3,0,0.3-0.5,0-0.5c-0.1,0-0.2,0-0.3,0C6.2,32.8,6.2,33.3,6.6,33.3L6.6,33.3z"/>
		</g>
	</g>
	<g>
		<g>
			<path d="M6.5,34.8c1.4-0.1,2.7-0.1,4.1-0.2c0-0.2,0-0.3-0.1-0.5c-0.8,0.3-1.7,0.6-2.5,0.8C7.9,35,7.6,35,7.5,35.1
				c-0.1,0-0.2,0.1-0.2,0.1c-0.1,0.1-0.1,0.1-0.1-0.1c0-0.1,0-0.1-0.1-0.2c-0.1,0-0.1-0.1,0.1,0c0.1-0.1,0.6,0,0.8,0
				c0.3,0,0.7-0.1,1-0.1c0.1,0,0.8-0.2,0.8-0.1c-0.1-0.1-0.5,0-0.6,0c-0.2,0-0.5,0.1-0.7,0.2C8.3,35,8.1,35.2,8,35.2
				c-0.2,0.1-0.3,0.1-0.5,0c-0.2,0-0.3-0.1-0.3-0.2c0.1,0.1,0.1,0.3,0.2,0.4c0,0,0.1,0,0.1-0.1c0.3,0,0.3-0.5,0-0.5
				c-0.2,0-0.3,0-0.5,0.2c-0.2,0.2,0,0.4,0.2,0.4c0.5,0,0.6-0.6,0.2-0.8c-0.5-0.3-0.8,0.2-0.7,0.6c0.1,0.7,0.8,0.7,1.4,0.4
				c0.2-0.1,0.4-0.2,0.7-0.3c0.3-0.1,0.6-0.1,0.9-0.2c0.2-0.1,0.5-0.1,0.6-0.4c0.3-0.7-0.6-0.5-1-0.5c-0.7,0.1-1.4,0.2-2.1,0.2
				C7,34.5,6.7,34.4,6.5,34.8c-0.2,0.2,0.1,0.9,0.4,1c0.4,0.1,1.3-0.4,1.7-0.5c0.7-0.2,1.4-0.5,2-0.7c0.3-0.1,0.2-0.5-0.1-0.5
				c-1.4,0.1-2.7,0.1-4.1,0.2C6.2,34.3,6.2,34.8,6.5,34.8L6.5,34.8z"/>
		</g>
	</g>
	<g>
		<g>
			<path d="M6.8,36.8c0.7-0.1,1.5-0.1,2.2-0.1c0.3,0,0.6,0,1,0.1c0.5,0.2,0.6,0.2,0.4,0c-0.2,0.1-0.4,0.2-0.7,0.3
				c-0.5,0.2-1.4,0.6-2,0.4c-0.3-0.1-0.4-0.2-0.2-0.5c0.1,0,0.2,0,0.2,0C7.9,37,8.3,37,8.5,36.9c0.2,0,1.1-0.3,0.7,0.1
				c-0.1,0.1-0.8,0.2-1,0.2c-0.6,0-0.2,0,0-0.1c0.3,0,0.5-0.1,0.8-0.2c0.3,0,0.5-0.1,0.8-0.2c-0.2,0-0.4,0.1-0.5,0.1
				C9,37,8.8,37.1,8.5,37.1c-0.2,0.1-0.4,0.1-0.5,0.2c0,0.2,0.1,0.2,0.3,0.1c0.3,0,0.7-0.2,1-0.2c0.3-0.1,0.2-0.5-0.1-0.5
				c-0.5,0.1-2.2,0.3-1.5,1.1c0.1,0.1,0.2,0.1,0.2,0.1c0.6-0.2,1.2-0.4,1.9-0.5c0.3,0,0.6-0.1,0.6-0.4c0.1-0.7-1.1-0.5-1.4-0.5
				c-0.4,0.1-1.9,0.1-1.8,0.9c0.1,0.9,1.7,0.3,2.1,0.2c0.4-0.1,1.3-0.4,0.9-1c-0.2-0.3-0.8-0.3-1.1-0.2c-0.2,0-0.4,0.1-0.6,0.1
				c-0.4,0.1-0.8,0.1-1.1,0.1c-0.6,0.1-0.5,0.9-0.2,1.2c0.4,0.6,2,0.1,2.5-0.1c0.3-0.1,1.9-0.6,1.2-1.2c-0.3-0.2-1.1-0.2-1.5-0.2
				c-0.8-0.1-1.7,0-2.5,0.1C6.5,36.4,6.5,36.9,6.8,36.8L6.8,36.8z"/>
		</g>
	</g>
</g>
<g>
	<path fill="#2E3192" stroke="#000000" stroke-miterlimit="10" d="M124.2,56c3.9-2.8,0.9-15.8,7.4-17.1c3.6-0.8,4.2-1.7,4.1-1.9
		c0-0.1-4.3,0.5-4.3-0.9c0-1.3,4.4-1.7,4.5-1.5c0,0.2-4.5,0.2-4.6-1.1c0-1.1,4.9-0.9,4.9-0.9c0,0-4.9-0.5-4.9-1.1
		c0-0.9,4.9-1.2,4.9-1.3c0-0.1-4.7,0.5-4.8-0.1c-0.3-1.1,4.8-2.6,4.7-2.6c-0.1,0-3.2,1.7-4,0.9c-0.8-0.8,0.7-3.1,0.3-4.3
		c-0.2-0.7-1.8-0.9-2.2-0.2c-0.6,1.1-1,2.6-0.9,3.3c0.1,1.6-0.2,3.3-4.5,9.9c-7.5,11.5-11.1,13.8-10.1,16.4
		C115.7,56.3,121.5,57.9,124.2,56z"/>
	<path fill="none" stroke="#000000" stroke-miterlimit="10" d="M136,27.5c0.1,1,0.1,1.2,0.2,2.1c0,0.9,0.1,2.8,0.1,3.5
		c0,0.8-0.1,0.5-0.1,1.1c-0.1,1.5-0.3,2.4-0.5,2.4"/>
	<g>
		<g>
			<path d="M135.5,28.4c0,0.2,0,0.5,0,0.7c0,0.2,0,0.2,0.2,0.1c0.2,0,0.2,0,0.1,0c-0.3-0.1-0.6,0-0.9,0.1c-1,0.3-1.8,0.3-2.8,0.2
				c0,0.3,0,0.6,0,1c0.6-0.2,1.1-0.4,1.6-0.7c0.5-0.2,1.4-0.7,1.9-0.7c-0.1-0.1-0.3-0.2-0.4-0.2c0,0.1,0,0.3,0,0.4
				c0.1-0.1,0.2-0.3,0.2-0.4c-0.1,0-0.7,0.1-0.9,0.2c-0.5,0.2-0.9,0.4-1.4,0.4c0,0.3,0,0.7,0,1c0.2,0,0.5,0.4,0.7,0.5
				c0.2,0.1,0.5,0.1,0.7,0c0.5-0.2,0.6-1.2,1.1-1.4c0.6-0.2,0.3-1.2-0.3-1c-0.6,0.2-0.8,0.7-1.1,1.1c-0.2,0.3-0.1,0.1-0.5-0.1
				c-0.2-0.2-0.4-0.3-0.7-0.2c-0.6,0.1-0.7,1,0,1c0.5,0,0.9-0.1,1.3-0.3c0.2-0.1,0.5-0.2,0.7-0.3c0.1,0,0.5,0,0.6-0.1
				c0.6-0.2,0.5-0.9,0.3-1.4c-0.1-0.2-0.3-0.2-0.4-0.2c-0.6,0-1.2,0.3-1.8,0.6c-0.7,0.3-1.3,0.6-2,0.9c-0.4,0.2-0.5,0.9,0,1
				c0.6,0.1,1.2,0.2,1.8,0.2c0.7,0,1.2-0.3,1.9-0.4c0.4,0,0.7,0.1,1-0.2c0.3-0.4,0.2-1.1,0.1-1.5C136.4,27.7,135.4,27.7,135.5,28.4
				L135.5,28.4z"/>
		</g>
	</g>
	<g>
		<g>
			<path d="M135.6,30.5c0,0.5,0,0.9,0,1.4c0.3-0.1,0.6-0.2,0.9-0.3c-0.4-0.5-0.8-0.6-1.5-0.7c-1,0-1.9-0.2-2.8-0.4
				c0.1,0.3,0.1,0.6,0.2,0.8c0.4-0.4,1-0.3,1.5-0.4c0.3,0,1.3-0.2,1.5-0.1c-0.1-0.1-0.2-0.3-0.2-0.4c0,0.5,0.1,1,0,1.5
				c0.3,0,0.7-0.1,1-0.1c0-0.2,0-0.8-0.2-1.1C136,30.7,135.8,30.6,135.6,30.5c-0.4,0.1-0.8,0-1.3,0.1c-0.5,0.1-1,0.1-1.5,0.1
				c-0.6-0.1-0.9,0.9-0.3,1c0.5,0.1,1,0.1,1.6,0c0.5-0.1,1.1,0,1.6,0c-0.1-0.1-0.3-0.2-0.4-0.2c0.1,0.1,0,0.6,0.1,0.9
				c0.1,0.6,1,0.4,1-0.1c0-0.6,0.2-1.8-0.5-2c-0.3-0.1-0.7,0-1,0c-0.5,0-0.9,0.1-1.4,0.1c-0.6,0.1-1.2,0.1-1.6,0.6
				c-0.2,0.3-0.2,0.8,0.2,0.8c0.6,0.1,1.2,0.2,1.8,0.3c0.4,0.1,1.6-0.1,1.9,0.3c0.3,0.4,0.9,0.3,0.9-0.3c0-0.5,0-0.9,0-1.4
				C136.6,29.9,135.6,29.9,135.6,30.5L135.6,30.5z"/>
		</g>
	</g>
	<g>
		<g>
			<path d="M134.8,30.5c-0.3,0-0.8,0-1.1,0.1c-0.2,0.1-0.3,0.2-0.6,0.2c-0.2,0-0.5,0.1-0.7,0c0.1,0.1,0.1,0.1,0.2,0.2c0,0,0,0,0,0
				c0,0.1-0.1,0.2-0.1,0.3c0,0,0,0,0,0c0.3-0.2,0-0.6-0.3-0.4c0,0,0,0,0,0c-0.1,0.1-0.1,0.2-0.1,0.3c0,0,0,0,0,0
				c0,0.1,0.1,0.2,0.2,0.2c0.4,0.1,1,0.1,1.3,0c0.2,0,0.2-0.2,0.4-0.2c0.2-0.1,0.6-0.1,0.9-0.1C135.1,31,135.1,30.5,134.8,30.5
				L134.8,30.5z"/>
		</g>
	</g>
	<g>
		<g>
			<path d="M136,31c-0.1,0-0.2,0-0.3,0c-0.3,0-0.3,0.5,0,0.5c0.1,0,0.2,0,0.3,0C136.3,31.5,136.3,31,136,31L136,31z"/>
		</g>
	</g>
	<g>
		<g>
			<path d="M136.2,32.2c-1.5,0.1-3,0.2-4.5,0.3c-0.5,0-0.7,0.9-0.1,1c0.8,0.1,1.5,0.3,2.3,0.4c0.6,0.1,1.3,0.3,2,0.3
				c0.2,0,0.4-0.1,0.4-0.2c0.2-0.4,0.4-1.2-0.1-1.5c-0.3-0.2-0.9,0-1.2,0c-0.6,0.1-1.2,0-1.9,0c-0.5,0-1.3,0-1.3,0.7
				c0.1,0.9,1.3,0.6,1.8,0.7c0.7,0.1,1.7,0.7,2.3,0.1c0.4-0.3,0.5-1.1,0.1-1.4c-0.4-0.3-1.1-0.1-1.3,0.4c-0.1,0.6,0.4,0.9,0.9,0.8
				c0.4-0.1,0.5-0.7,0.1-0.9c-0.2-0.1-0.3-0.2-0.6-0.2c-0.6,0-0.6,1,0,1c0,0,0.1,0,0.1,0c0-0.3,0.1-0.6,0.1-0.9
				c0.1,0.1,0.2,0.1,0.4,0.2c0,0.2-0.1,0.3-0.1,0.5c0.2-0.2-2.9-0.7-2.9-0.6c0,0.2,0,0.3,0,0.5c-0.1,0.3,2.9-0.1,3-0.1
				c-0.1-0.1-0.2-0.3-0.2-0.4c0,0.1,0,0.3-0.1,0.5c0.1-0.1,0.3-0.2,0.4-0.2c-0.7,0-1.4-0.2-2-0.3c-0.7-0.1-1.3-0.2-2-0.4
				c0,0.3-0.1,0.7-0.1,1c1.5-0.1,3-0.2,4.5-0.3C136.8,33.2,136.9,32.2,136.2,32.2L136.2,32.2z"/>
		</g>
	</g>
	<g>
		<g>
			<path d="M136.1,34.2c-1.3,0-3,0.1-4.2,0.8c-0.8,0.5-0.3,1.2,0.3,1.6c1,0.5,2.2,0.9,3.3,0.7c0.9-0.2,0.9-1.4,0.7-2.2
				c-0.1-0.2-0.2-0.3-0.5-0.4c-0.7-0.1-1,0.9-1.1,1.4c0,0.1-0.1,0.2-0.1,0.3c0.3,0,0.4-0.1,0.2-0.2c0-0.1-0.3-0.4-0.4-0.5
				c-0.2-0.3-0.4-0.6-0.7-0.8c-0.6-0.4-1.4,0-1.3,0.8c0.1,1.1,1.9,1.2,2.7,1.3c0.9,0.1,1.4-0.5,1.1-1.4c-0.1-0.2-0.3-0.7-0.5-0.9
				c-0.3-0.2-0.5-0.1-0.8,0c-0.7,0.2-2.5-0.2-2.5,1c0,0.4,0.2,0.7,0.6,0.8c0.4,0.1,0.8,0.1,1.2,0.2c0.4,0.1,0.8,0.2,1.2,0.4
				c0.2,0.1,0.5-0.1,0.6-0.2c0.8-1.2-1.3-1.6-2-1.7c-0.6-0.1-0.6,0.9,0,1c0.3,0,0.5,0.1,0.8,0.2c0.2,0.1,0.3,0.1,0.4,0
				c0.2-0.1,0.4-0.2,0.6-0.2c-0.4-0.2-0.9-0.3-1.3-0.4c-0.4-0.1-0.8-0.1-1.2-0.2c0.1,0.1,0.2,0.2,0.3,0.3c0,0.1,1.2,0,1.3,0
				c0.2,0,0.4-0.1,0.6-0.2c0.3-0.1,0.4,0-0.1-0.1c-0.1-0.1-0.2-0.2-0.3-0.3c0.1,0.2,0.3,0.5,0.4,0.7c0.1,0.2,0.1,0.2,0,0.1
				c-0.1,0-0.2-0.1-0.4-0.1c-0.3,0-0.5-0.1-0.8-0.1c-0.2,0-0.3-0.1-0.5,0c-0.3-0.1-0.4,0-0.2,0.1c0,0,0.3,0.3,0.3,0.3
				c0.2,0.3,0.4,0.5,0.6,0.8c0.3,0.3,0.8,0.6,1.2,0.2c0.2-0.2,0.2-0.4,0.3-0.6c0.1-0.2,0.1-0.3,0.2-0.5c0-0.1,0.1-0.2,0.1-0.2
				c0.1-0.2,0.1-0.2-0.1-0.1c-0.2-0.1-0.3-0.2-0.5-0.4c0.1,0.2,0.1,0.9,0,1c0,0-0.5,0-0.7,0c-0.7-0.1-1.2-0.4-1.9-0.6
				c-0.2-0.2-0.3-0.2-0.2,0c0,0.2,0.1,0.2,0.3,0c0.3,0,0.6-0.2,0.9-0.2c0.8-0.2,1.6-0.2,2.4-0.2C136.7,35.2,136.7,34.2,136.1,34.2
				L136.1,34.2z"/>
		</g>
	</g>
</g>
<path fill="#F7941E" stroke="#000000" stroke-miterlimit="10" d="M78.3,64.9c-0.1-0.1,0,0.3-0.8-0.1c-0.7-0.3-0.6-0.2-0.6-0.2
	s0.1,1-0.2,1.9c-0.4,1.2-1.9,1.8-2.5,1.9c-0.6,0.1-2.9,0.3-3.7-0.7c-0.6-0.8-0.7-2.7-0.7-2.7l-2.1,0.1c0,0,0.7,2.9,1.6,3.9
	c1.2,1.2,2.5,1.3,3.4,1.3c0.9,0,2.9,0.1,4.4-1.2C78.4,67.8,78.9,65.4,78.3,64.9z"/>
<g>
	<ellipse fill="#39B54A" stroke="#39B54A" stroke-miterlimit="10" cx="75.1" cy="84.8" rx="11.8" ry="11.4"/>
	<polygon fill="#39B54A" stroke="#000000" stroke-miterlimit="10" points="81.7,93.5 75.1,90.2 68.5,93.6 69.7,86.5 64.4,81.5 
		71.7,80.4 74.9,74 78.3,80.4 85.6,81.4 80.4,86.4 	"/>
</g>
</svg>
