<?xml version="1.0" encoding="utf-8"?>
<!-- Generator: Adobe Illustrator 18.1.0, SVG Export Plug-In . SVG Version: 6.00 Build 0)  -->
<!DOCTYPE svg PUBLIC "-//W3C//DTD SVG 1.1//EN" "http://www.w3.org/Graphics/SVG/1.1/DTD/svg11.dtd">
<svg version="1.1" id="Layer_1" xmlns="http://www.w3.org/2000/svg" xmlns:xlink="http://www.w3.org/1999/xlink" x="0px" y="0px"
	 viewBox="0 0 200 200" enable-background="new 0 0 200 200" xml:space="preserve">
<path fill="#ED1C24" stroke="#000000" stroke-miterlimit="10" d="M171.2,199.5H28.8c-6.4,0-11.7-5.3-11.7-11.7V12.2
	c0-6.4,5.3-11.7,11.7-11.7h142.5c6.4,0,11.7,5.3,11.7,11.7v175.6C183,194.2,177.7,199.5,171.2,199.5z"/>
<path fill="#593B2B" stroke="#593B2B" stroke-miterlimit="10" d="M102.9,77.4c0,0,0.3-4.9,0.6-7.8c0,0,2.5,1.3,9.1-1.3
	c0.8-0.3,3.4-0.8,6.5-4c1.5-1.5,1.7-3.4,2-4.8c0.6-2.7-0.2-3-0.3-6.3c0,0-0.7-0.2,1.1-1.7c0.2-0.2,1.4-0.2,1.7,0
	c0.6,0.3,1.7,0.7,2.8,0.3c1.8-0.5,2.3-2.3,2.7-3.3c0.3-0.8,1.1-3,0-4.1c-0.8-0.8-2.3-0.6-3.3-0.3c-3,1.1-3.4,4.9-4.4,4.7
	c-0.8-0.1,0.2-1.7-0.9-6.1c-0.3-1.3-0.2-1.6-1.6-4.1c-1-1.8-2.1-4-3.6-5.1c-1.8-1.1-3.4-2.1-8-2.4c-5.1-0.4-5.9-0.1-11.4-0.3
	c-2.3-0.1-5.8-0.1-10.7,2.1c-1.9,0.9-3,8.1-3.8,9.1c-2.5,3.5,0,4.3-0.2,5.3l0,0c-0.2,0.1-1.1-1.2-2.1-2c-0.3-0.2-1.5-1.1-2.9-1.1
	c-1,0-2.7,0.3-3.3,1.4c-1.5,2.6,1.4,5.1,4.4,6.7c3.2,1.7,2,9.2,3.3,11.8c1.1,2.1,2.5,3.7,6.2,5.1c4.4,1.6,8.5,1.9,10.3,0.9l0,0
	c1.7,2.7,0.3,5.5,0.3,5.5c0,0.3,0,0.9,0,1.6c0.4,0.3,1.1,0.8,2.1,1c0.3,0.1,0.6,0.1,1,0.1C101.8,78.3,102.9,77.4,102.9,77.4z"/>
<path fill="#8DC63F" stroke="#000000" stroke-miterlimit="10" d="M94.7,76c-1.2-0.9-2.7-0.5-5.3,0c-1.2,0.3-2.8,0.6-4.8,1.7
	c-2.9,1.6-4.4,3.3-7.1,5.5c-3.8,2.9-6.6,6.3-10.4,9.2c-0.1,0-3.1,1.7-6.5,4.5c-1,0.8-2,1.7-2.3,3.1c-0.4,1.6,0.2,3.5,1.2,3.8
	c0.6,0.2,1-0.6,2.8-1.7c1.3-0.8,2.3-1.4,3.6-1.3c1.4,0.1,1.5,0.8,2.4,0.8c1.9,0.1,4.2-3.2,5.7-4.2c1.3-0.9,3.1-1.3,5.2-3.2
	c1-1,1.2-0.9,2.1-1.3c0.9-0.5,2.2-2.2,4,0.5c1.1,1.8,0.9,6,1,7.7c0.1,1.5,0,5.3-0.7,7.9c0,0-0.1,0.5-0.7,2.7l-0.4,1.7
	c0.3,0.6,2.2-0.1,5.3,0s3.4,0.7,5,0.3c1.7-0.4,1.8-1.2,3.7-1.9c1.7-0.6,3.7-0.5,4.2-0.4c1.7,0.4,1.9,0.9,3.8,1.6
	c0.6,0.2,0.3,0,1.8,0.2c2.5,0.4,4.1,0.4,5.6,0.2c1.4-0.2,1.6-0.4,1.7-0.5c0.7-0.9-0.7-2.3-1.3-5.3c-0.2-0.9-0.3-3.3-0.3-6.1
	c0-1.6-0.3-2.9,0.9-5.5c1.6-3.4,2.7-3.2,3.7-3.6c1.2-0.5,3.2,1.1,7.2,4.3c3.3,2.5,4.2,3.6,6.1,3.8c1.1,0.1,1.9-0.1,3.3,0.3
	c0.7,0.2,2.1,0.7,3.1,2c0.8,1,0.8,1.7,1.2,1.7c0.7,0,1.3-1.6,1.5-2.8c0.1-0.4,0.2-1.5-0.2-2.6c-0.6-2-2.1-2.9-3.6-3.9
	c0,0-0.5-0.4-7.4-5.5c-2.9-2.1-2.3-2-6-4.6c-3.7-2.7-4-2.7-5.5-4.1c-2.1-2.1-2.2-2.8-3.9-3.8c-1.1-0.6-2.2-0.8-4.8-1.3
	c-3-0.6-3.5-0.4-3.8-0.2c-1.1,0.8-0.2,2.2-1.3,3.6c-1.2,1.4-3.2,1.5-3.9,1.5c-0.8,0-2.4,0.1-3.6-1C95.2,78.4,95.9,77,94.7,76z"/>
<polygon fill="#262262" stroke="#000000" stroke-miterlimit="10" points="95,85.8 88.7,92.3 95,101.4 107.7,101.4 113.9,92.4 
	107.5,85.8 "/>
<polygon fill="#00A79D" stroke="#000000" stroke-miterlimit="10" points="93.3,92.3 97.3,98 104.7,98 109.3,92.3 107.2,89.5 
	95.8,89.5 "/>
<path stroke="#000000" stroke-miterlimit="10" d="M59.9,104.5c-0.3,1.1,0.6,2.2,2.9,4.6c5.2,5.2,6,4.5,8.1,7.2
	c2.1,2.6,2.5,4.7,5.5,6.7c1.3,0.9,2.1,1.2,2.9,1c1.6-0.5,2.1-2.8,2.4-4.3c0.4-1.7,0.8-3.6-0.3-5.1c-0.9-1.2-2.2-1.5-3.3-1.7
	c-2.2-0.5-2.8,0.3-3.9,0c-3.4-1-1.9-9.6-6-11.5c-1.7-0.8-3.9-0.5-4.9-0.2C62.5,101.6,60.3,102.9,59.9,104.5z"/>
<path stroke="#000000" stroke-miterlimit="10" d="M131.7,101c-3.7,1.5-2.2,9.6-6.2,11.5c-2.1,1-3.5-0.5-5.8,1
	c-2.2,1.5-2.6,4.2-2.6,4.5c-0.3,2.4,0.8,5.6,2.8,6.1c1.3,0.4,2.5-0.4,3.4-1c2.5-1.7,2.8-3.3,5-6c0.9-1.2,0.7-0.7,7.7-7.1
	c2.2-2.1,3.2-3,3.1-4.3c-0.1-1.9-2.1-3.9-2.6-4.2C135.8,101.2,133.5,100.3,131.7,101z"/>
<path fill="#F7941E" stroke="#000000" stroke-miterlimit="10" d="M83.5,114.1c-0.3,1.2-0.7,2.4-1,3.6h10.7l1.2-3.9L83.5,114.1z"/>
<polygon fill="#F7941E" stroke="#000000" stroke-miterlimit="10" points="106.5,113.9 106.5,118.3 116.3,117.7 115.1,113.7 "/>
<path fill="#2E3192" stroke="#000000" stroke-miterlimit="10" d="M94.8,114.4c-0.1,0.3-1.3,2.3-0.3,4.3c1.2,2.5,4.8,2.6,5.5,2.6
	c0.8,0,4.6,0,6.1-2.9c0.1-0.1,1.2-2.3,0-4.5c-1.6-2.9-6-2.3-6.4-2.3C98.8,111.6,96.1,112,94.8,114.4z"/>
<path fill="#00A79D" stroke="#000000" stroke-miterlimit="10" d="M97.4,115c-0.6,1-0.5,2.2,0.2,3.1c1.1,1.4,3.4,1.1,4.6,0
	c0.7-0.6,1.4-1.8,1-2.8c-0.4-1-1.8-1.3-2.3-1.3C100.3,114,98.4,113.6,97.4,115z"/>
<path fill="#8DC63F" stroke="#000000" stroke-miterlimit="10" d="M83.1,117.9c0,0-1.5,3.2-2.3,6.3c-0.2,0.5-0.8,2.9-1.2,4.3
	c-2.4,8.5-1.9,17-2.7,17.9c-1.3,1.2-1.4,2-1.8,3.6c-0.4,2-0.4,3-0.5,4.8c0,0.9-0.5,1.6-0.3,2.1c0.2,0.9,1.6,1.3,2.4,1.5
	c0.5,0.2,2.7,0.5,4.5,0.4c1.9-0.1,4.1-1,4.1-1v-0.7c0,0,0.2-2.2,0.6-3.3c1.2-3.3,2.7-5.5,4.8-7.9c6.6-7.6,7-11.7,8.5-12.2
	c0,0,2.7,4.1,10.2,13.1c2.2,2.7,4,4.6,4.1,7.4c0,1.7-0.5,3.3,0.5,4.3c0.2,0.2,0.6,0.5,3.1,0.7c4.5,0.3,5.9-0.6,6.2-0.8
	c0.5-0.3,1.3-0.9,1.3-1.7s0.2-1.4,0-2.2c-0.4-2.2-0.2-2.8-1.4-4.9c-0.5-0.9-0.9-2.1-1.4-3.1c-1.1-2.2,0.1-8.7-1.3-14.8
	c-0.8-3.4-0.1-6.2-1.3-7.2c-1.9-1.9-3.2-5.9-3.2-5.9s-8.8-0.4-9.7,0.3c-2.4,1.8-2.1,2.7-6.6,2.7c-3.9,0-5.5-2.6-6.5-2.9
	C89.9,117.4,83.1,117.9,83.1,117.9z"/>
<path stroke="#000000" stroke-miterlimit="10" d="M73,160.4c0-1.6-0.1-2.9,0.7-3.3c0.4-0.2,0.8,0,1.9,0.3c1.2,0.4,2.4,0.8,3.6,0.8
	c2,0.1,5.7-0.4,6,0c1.1,1.3-1.2,5-2.8,7.6c-2.3,3.8-3.1,3.9-3.4,5.8c-0.3,1.8,0.2,2.1,0,6c-0.2,2.8-0.5,3.6-0.7,3.9
	c-0.3,0.7-0.8,1.5-3.3,3.4c-2.5,2.1-3.8,3.1-5,3.4c-0.3,0.1-4.1,1.3-6.7-0.8c-0.5-0.3-1.3-1-1.5-2c-0.1-0.4-0.3-1.7,1.9-4.3
	c2.1-2.7,3.5-2.8,6.3-6c1.1-1.2,1.6-1.8,2-2.6c0.9-2,0.2-2.8,0.5-6.5C72.4,162.9,73,163.4,73,160.4z"/>
<path stroke="#000000" stroke-miterlimit="10" d="M115.6,163.1c-0.9-1.7-2.3-4.5-1.5-5.3c0.4-0.4,1.1,0,3.1,0.3
	c2.2,0.4,4.7,0.7,6.2-0.5c1.1-0.8,1.1-1.7,1.5-1.7c1.3,0.1,1.8,6.9,1.9,8.4c0.4,6-0.4,6.3,0.5,8.4c0.6,1.5,1.2,1.6,6.2,6.7
	c3.7,3.7,4.5,4.9,4.3,6.1c-0.3,1.9-2.7,2.7-3.3,2.9c-2.8,1.1-5.5-0.1-6-0.3c-1.6-0.8-1.4-1.3-4.6-4.1c-2.3-2.1-2.5-1.9-2.9-2.6
	c-0.8-1.6-0.1-2.5-0.2-6.5c0-1.3,0-2-0.2-2.6C120.1,168.8,118,167.9,115.6,163.1z"/>
<path fill="#F7941E" stroke="#000000" stroke-miterlimit="10" d="M115.8,78.1c0,0,8.6,1.8,15.1,6.4c2.1,1.6,6.7,4.9,10.7,10.8
	c3.7,5.6,3.2,7.9,7.9,14c3.6,4.7,6.1,6,6.9,6.4c3.7,1.9,7.7,2.1,9.8,2c4.2-0.1,5.8-1.3,6.5-0.3c1.6,1.7-0.9,7.6-5,11.3
	c-2.1,1.9-5.1,3.3-11,6.2c-3.1,1.6-2.8,1.3-3.8,1.9c-5.6,3.4-4.9,7-9.1,9.9c-3.6,2.4-4.1,3-11.5,2.9c-4.4,0-7.2,2.6-8.1,1.8
	c-0.8-0.8,0.3,1.1-0.7-1.4c-0.6-1.8-1.3-2.8-2.1-4.5c-0.7-1.5,1.2-6.9-0.6-14.2c-0.8-3.2-1-6.8-1-6.8s1.8-0.5,3.6-1.4
	c2.4-1.2,3.1-3.3,4.6-5.8c3.8-6.2,7.5-5.1,11-11.3c1.2-2.1,2.2-4,1.9-6.3c-0.4-2.1-1.8-3.3-7.2-7.6c-3.8-2.9-5.5-4.5-7.9-6
	C120.8,83.5,115.4,78.5,115.8,78.1z"/>
<g>
	<path fill="#27AAE1" stroke="#000000" stroke-miterlimit="10" d="M117.8,92.8c1.8-1.3,3.1,0.8,7.6,3.9c3.3,2.3,5.9,3,5.8,4.1
		c0,0.8-0.9,0.5-1.5,2.1c-1.1,3-1,7-3.6,9.2c-1.9,1.5-4.3-0.4-6.7,1.4c-2.1,1.6-2.4,4.2-3.1,4.1c-0.6-0.1-0.7-2.1-0.8-3.9
		c-0.2-2.6-1.2-4.5-1.5-6.1c-0.5-2.6-0.3-4.9-0.1-5.8c0.2-0.8,1.4-2.1,2.2-4.5C116.7,95.4,117.1,93.3,117.8,92.8z"/>
</g>
<path fill="#F7941E" stroke="#000000" stroke-miterlimit="10" d="M112.5,151.8c-0.4,0.4-8-2.7-12.9-2.4c-7.3,0.4-12.5,4-13.1,3.1
	c-0.7-1,2.7-3.1,6.6-8.9c1.9-2.7,5.4-9.9,6.2-9.9c0.7,0,4,5.4,7.3,9.5C110,147.2,112.7,151.4,112.5,151.8z"/>
<path fill="#F7941E" stroke="#000000" stroke-miterlimit="10" d="M74.7,148.8c-2,2.1-4.3-2.7-9.1-4.5c-4.7-1.7-5.9,0.9-9.9-0.5
	c-5.8-2-4.3-7.5-11-11.5c-1.2-0.7-4.6-1.8-11.5-3.9c-5.8-1.9-6.5-1.9-6.9-2.8c-1.3-3.2,7.6-6.9,16.5-18.5c5.1-6.6,4.6-8.5,9.8-13.5
	c3.3-3.2,6.3-5.2,12.4-9.1c4.8-3.1,8.2-4.9,12.4-6.1c2.4-0.7,7.2-1,7.2-1s-2.2,2.1-6.9,5.6c-6.7,5.1-5.7,5.1-10.8,8.9
	c-5.9,4.2-8.7,5.2-9.1,8.1c-0.2,1.5,0.4,2.7,1.3,4.5c1.5,2.9,2.9,3.6,7.2,7.7c3.5,3.4,5.3,5.1,6.3,6.5c1.4,2,2.1,3.6,4.1,4.6
	c2.1,1,4.2-0.3,3.9,1c-0.3,1.9-2.5,6.2-2.7,14.6c0,2.1-0.2,4.2-0.7,6.6C76.8,147.2,75.8,147.6,74.7,148.8z"/>
<g>
	<path fill="#F7941E" stroke="#000000" stroke-miterlimit="10" d="M117.8,92.8c2.1-0.5,3.1,0.8,7.6,3.9c3.3,2.3,5.9,3,5.8,4.1
		c0,0.8-0.9,0.5-1.5,2.1c-1.1,3-1,7-3.6,9.2c-1.9,1.5-4.3-0.4-6.7,1.4c-2.1,1.6-2.4,4.2-3.1,4.1c-0.6-0.1-0.7-2.1-0.8-3.9
		c-0.2-2.6-1.2-4.5-1.5-6.1c-0.5-2.6-0.2-4.9-0.3-5.8c-0.2-1.4-0.2-4.5,1.2-6.3C116,93.8,116.9,93,117.8,92.8z"/>
</g>
<g>
	<path fill="#F7941E" stroke="#000000" stroke-miterlimit="10" d="M83.9,91.9c-0.5-0.2-4.5,1.5-9.3,4.6c-3.4,2.2-5.9,2.8-5.9,4
		c0,0.8,0,0.8,1,2.2c1.8,2.7,1,7.5,3.6,9.8c1.8,1.6,4.6-0.7,6.9,1.2c2.1,1.7,2.4,4.1,3.1,4c0.6-0.1,0.8-2.1,0.9-3.9
		c0.3-2.6,1.3-4.5,1.7-6.1c0.5-2.6,0.4-4.9,0.2-5.8c-0.2-0.8,0.4-4.4-0.4-6.6C85.1,93.4,84.7,92.3,83.9,91.9z"/>
</g>
<path fill="#F7941E" stroke="#000000" stroke-miterlimit="10" d="M95.1,75.8c0-0.1,0,0.3,0.8-0.1c0.7-0.4,0.6-0.3,0.6-0.3
	s0,1,0.3,1.9c0.4,1.2,2,1.7,2.5,1.8c0.6,0.1,2.8,0.1,3.6-0.9c0.6-0.8,0.6-2.6,0.6-2.6h2.1c0,0-0.5,2.8-1.3,3.8
	c-1.1,1.3-2.3,1.4-3.2,1.5c-0.9,0.1-2.7,0.3-4.3-1C95.2,78.6,94.6,76.4,95.1,75.8z"/>
<path fill="none" stroke="#3C2415" stroke-miterlimit="10" d="M124.3,49.1c-0.2-0.2,0.4-1.1,1.2-1.5c0.9-0.4,2-0.3,2.1,0
	C127.5,48.1,124.6,49.5,124.3,49.1z"/>
<path fill="none" stroke="#3C2415" stroke-miterlimit="10" d="M79.3,49.7c0.1-0.2-0.9-1.2-2.1-1.5c-1-0.3-2.2-0.3-2.3,0
	C74.9,48.6,79.2,50.1,79.3,49.7z"/>
<g>
	<path fill="#FFFFFF" stroke="#000000" stroke-miterlimit="10" d="M105.4,50.7c0.9,0.5,1.8-0.9,4.2-0.9c2.2,0,3.2,1.3,3.9,0.7
		c0.9-0.7,0.1-3.1-0.9-6.1c-0.8-2.3-1.5-3.2-2.4-3.9c-0.4-0.3-1.2-0.8-2.1-0.6c-0.4,0.1-1.3,0.4-2.3,3.2
		C105.7,43.7,103.7,49.6,105.4,50.7z"/>
	<path fill="#3C2415" stroke="#000000" stroke-miterlimit="10" d="M106.8,49c-1.4-1.8-0.6-3.9-0.4-4.2c0.1-0.1,1.2-2.7,3-2.7
		c1.8,0.1,2.6,2.3,2.8,2.7c0.7,1.7-0.5,5.2-2.7,5C107.9,49.7,107.8,50.4,106.8,49z"/>
	<path fill="#603913" stroke="#000000" stroke-miterlimit="10" d="M109.4,49.7c-1.1-0.1-1.5-0.3-1.5-1.5c0-0.6,0.3-2.1,1.4-2.1
		s1.4,0.4,1.5,1.8C110.8,48.9,110.5,49.8,109.4,49.7z"/>
</g>
<g>
	<path fill="#FFFFFF" stroke="#000000" stroke-miterlimit="10" d="M87.8,50.7c0.9,0.5,1.8-0.9,4.2-0.9c2.2,0,3.2,1.3,3.9,0.7
		c0.9-0.7,0.1-3.1-0.9-6.1c-0.8-2.3-1.5-3.2-2.4-3.9c-0.4-0.3-1.2-0.8-2.1-0.6c-0.4,0.1-1.3,0.4-2.3,3.2
		C88.2,43.7,86.1,49.6,87.8,50.7z"/>
	<path fill="#3C2415" stroke="#000000" stroke-miterlimit="10" d="M89.2,49c-1.4-1.8-0.6-3.9-0.4-4.2c0.1-0.1,1.2-2.7,3-2.7
		c1.8,0.1,2.6,2.3,2.8,2.7c0.7,1.7-0.5,5.2-2.7,5C90.3,49.7,90.2,50.4,89.2,49z"/>
	<path fill="#603913" stroke="#000000" stroke-miterlimit="10" d="M91.9,49.7c-1.1-0.1-1.5-0.3-1.5-1.5c0-0.6,0.3-2.1,1.4-2.1
		s1.4,0.4,1.5,1.8C93.3,48.9,93,49.8,91.9,49.7z"/>
</g>
<path fill="none" stroke="#000000" stroke-miterlimit="10" d="M105.4,35.9c1.6-0.5,4.6,0,6.9,2.6"/>
<path fill="none" stroke="#000000" stroke-miterlimit="10" d="M87.8,38.7c0-1.5,3.1-2.6,6.9-2.6"/>
<line fill="none" stroke="#000000" stroke-miterlimit="10" x1="107.2" y1="38.3" x2="107.2" y2="38.3"/>
<g>
	<path fill="none" stroke="#3C2415" stroke-miterlimit="10" d="M100.9,55.6c-0.2-0.1-1.4-0.8-2.6-0.4c-1.2,0.4-2.2,1.6-2.1,2.8
		c0.2,1,1,1.7,1.8,1.9c1,0.3,2.1,0,2.8-0.8"/>
</g>
<path fill="none" stroke="#7C414B" stroke-miterlimit="10" d="M85.6,61.5c0.4-0.7,1.7-1.3,1.7-1.3s1.1,1.4,1.8,2.3
	c2.4,3.1,6,4,7.2,4.3c2,0.4,3.4,0.2,4.9,0.1c1.2-0.1,2.9-0.2,4.9-1.2c1.1-0.6,2.1-1.1,3.7-2.2c1.8-1.2,2-1.7,2-1.7
	c1.2-1.2,1.5-1.4,1.5-1.4s0.6,0.7,0.8,1.2"/>
<path stroke="#000000" stroke-miterlimit="10" d="M77.2,41.6c-0.4-1.5-0.9-2.5-1.1-5c-0.2-1.8-0.3-4,0.2-6.9
	c0.5-2.5,0.9-4.8,2.7-6.8c1.4-1.5,2.9-2.4,3.7-2.8c1-0.5,1.8-0.8,3.3-1.4c1.5-0.5,2.5-0.8,2.3-0.6c-0.4,0.5-2.7,3-2.9,7
	c-0.1,0.8-0.2,2.5,0.9,3.9c1,1.3,2.2,1.6,2.1,2.1c-0.1,0.6-2.1,0.1-3.6,1.3c-0.5,0.4-0.7,0.8-1.8,3.8c-1.2,3.6-1.2,4-2,5.8
	c-0.4,0.9-1.3,2.8-1.3,2.8l0,0C79.9,44.9,78,44.4,77.2,41.6z"/>
<path stroke="#000000" stroke-miterlimit="10" d="M92.9,14.8c1.3-0.6,3.2-1.5,6.2-2c2.4-0.4,6.1-1,10.4,0.1c2,0.5,8.3,2.1,11.2,7.3
	c2.1,3.7,1.3,4.8,2.1,10.2c0.2,1.3,5.2,2.7,3.5,10.5c-0.2,1-0.7,1.8-1,2.3c-0.9,1.9-2.9,4.9-3.9,4.6c-1-0.3,0.2-3.2-1.2-7.4
	c-0.3-1-1.2-3.6-3.5-5.8c-1.9-1.8-3.8-2.5-5-2.9c-2.1-0.8-3-0.5-9.2-0.8c-7.5-0.3-7.2-0.6-8.9-0.3c-1.9,0.5-2.4,0.5-4.3,0.5
	c-1.6,0-2.8-1.7-3.1-2.1c-1.5-2.8-0.5-5.9,0-7.1c0.3-1,1.1-2.6,2.6-4.3C90.3,16.2,91.6,15.5,92.9,14.8z"/>
</svg>
