<?xml version="1.0" encoding="utf-8"?>
<!-- Generator: Adobe Illustrator 18.1.0, SVG Export Plug-In . SVG Version: 6.00 Build 0)  -->
<!DOCTYPE svg PUBLIC "-//W3C//DTD SVG 1.1//EN" "http://www.w3.org/Graphics/SVG/1.1/DTD/svg11.dtd">
<svg version="1.1" id="Layer_1" xmlns="http://www.w3.org/2000/svg" xmlns:xlink="http://www.w3.org/1999/xlink" x="0px" y="0px"
	 viewBox="0 0 503.3 609.6" enable-background="new 0 0 503.3 609.6" xml:space="preserve">
<symbol  id="Blond_Hair_1" viewBox="-8.1 -3.4 16.2 6.8">
	<g>
		<g>
			<path fill="#FAF069" d="M-8.1,2.5c0,0,10.4-0.9,16.2-5.9C3.6,2-5.5,4.9-8.1,2.5z"/>
		</g>
	</g>
</symbol>
<symbol  id="Blond_Hair_4" viewBox="-11.3 -7.7 22.7 15.4">
	<g>
		<path fill="#FAF069" d="M-11.3,7c0,0,5.6,2.6,10.6-1.9c5-4.6,5.8-10.2,12-12.7C4.7-6.5,2.2,0.9-1,4C-6.1,8.9-10.8,7-11.3,7z"/>
	</g>
</symbol>
<path fill="#27AAE1" stroke="#000000" stroke-width="3.3242" stroke-miterlimit="10" d="M262.8,215.2c3.7-3.2,9.3-2.3,17.9-1
	c4.2,0.7,9.7,1.6,16.5,4.7c10.3,4.7,15.5,10.5,25.1,17.2c13.4,9.3,23.8,20.4,37,29.4c0.2,0.1,11.1,5.1,23.2,13.9
	c3.4,2.5,7.1,5.3,8.4,10.2c1.5,5.3,0,12.1-3.2,13.1c-2.1,0.7-3.3-1.7-9.8-5.1c-4.4-2.3-8.2-4.2-12.6-3.8c-4.5,0.5-4.8,2.9-8.2,3.3
	c-6.4,0.6-15.4-8.6-20.4-11.6c-4.6-2.8-10.5-5.2-17.9-11.6c-3.7-3.2-5.4-3.9-7-5.2c-3.1-2.4-8.7-5.3-14.1,4.2
	c-3.4,6.1-1.2,19.1-0.9,26.4c0.2,4.8,0.5,17.2,3.5,26.1c0,0,0.4,1.9,3,9.3l1.8,5.6c-0.7,2.1-7.6,0.1-17.9,1c-10.4,0.9-11.6,3-16.7,2
	c-5.8-1.1-6.3-3.5-13-5.6c-5.6-1.8-12.7-1-14.5-0.4c-5.5,1.8-6.2,3.5-12.6,6c-1.8,0.7-0.8-0.1-5.9,0.9c-8.5,1.7-13.8,2-19,1.6
	c-4.7-0.4-5.4-1.1-5.7-1.4c-2.6-2.9,0.1-8,1.9-18c0.6-3.2,2.3-10.7-0.6-19.6c-1.1-3.5-1.5-9-6.5-17.3c-6-9.9-8.1-12.5-11.1-15.5
	c-2.1-2,0,0-8.8-7.9c-8.7-7.7-8-6.7-12.7-11.4c-4.1-4.2-15.6-15.1-18.1-19c-1.8-2.8-27.8-39.8-33-45c-2.8-2.9-20.3-30.2-21.1-31.4
	c-4.5-6.5,13.6-2.6,11.5-2.6c-9.6-0.1,2.6-4.3,10.6-7.1c6.5-2.3,1.5-16.8,4-11.3c3.5,7.6,12.2,21.1,20.2,31.8
	c6.7,9.1,5.2,5.7,14.2,18.4c8,11.4,19,21.7,22.7,24.9c10.1,9.1,15.3,13.4,24.2,9.1c3.6-1.7,7.6-3.2,16-5.4c10-2.6,11.8-2,12.9-1.3
	c3.7,2.5,1.1,7.5,5.1,12.1c4.1,4.6,11.1,4.4,13.7,4.3c2.7-0.1,8.2-0.2,12.1-4C261.5,223.9,258.6,218.9,262.8,215.2z"/>
<polygon fill="#F7941E" stroke="#000000" stroke-width="3.3242" stroke-miterlimit="10" points="260.5,250.1 283,270.8 263.3,302.7 
	220.2,305.1 197.3,276 217.9,252.4 "/>
<polygon fill="#FFFFFF" stroke="#000000" stroke-width="3.3242" stroke-miterlimit="10" points="267.3,271.6 254.9,291.9 
	229.4,293.3 213,274.6 219.7,264.6 258.4,262.5 "/>
<path fill="#2E3192" stroke="#000000" stroke-width="3.3242" stroke-miterlimit="10" d="M384.7,304c1.2,3.6-3,10.5-10.8,19.1
	c-16.8,18.6-19.3,16.4-26.1,26.1c-6.7,9.5-7.6,16.3-17.2,24c-4.1,3.3-7.1,4.5-9.9,3.9c-5.5-1.2-7.8-9.3-9.2-14.1
	c-1.6-5.5-3.5-12.2,0.2-17.4c2.8-4,7.5-5.3,10.9-6.2c7.5-2,9.6,0.6,13.4-0.7c11.4-4,4.6-33,18-40.3c5.5-3,11.8-2.9,15-2.2
	C372.3,296.8,383.1,298.8,384.7,304z"/>
<path fill="#F7941E" stroke="#000000" stroke-width="3.3242" stroke-miterlimit="10" d="M304.3,343.7c1.3,4,2.7,8.1,4,12.1l-36.4,2
	l-4.6-13.2L304.3,343.7z"/>
<polygon fill="#F7941E" stroke="#000000" stroke-width="3.3242" stroke-miterlimit="10" points="226.5,347.6 227.3,362.5 
	194.1,362.1 197.3,348.4 "/>
<path fill="#ED1C24" stroke="#000000" stroke-width="3.3242" stroke-miterlimit="10" d="M266.3,346.9c0.5,0.8,4.7,7.6,1.9,14.5
	c-3.6,8.9-15.7,9.8-18,10c-2.7,0.2-15.8,0.7-21.3-9c-0.2-0.4-4.3-7.9-0.8-15.1c4.9-10.2,19.8-9.2,21.4-9
	C252.2,338.5,261.4,339.3,266.3,346.9z"/>
<path fill="#FFFFFF" stroke="#000000" stroke-width="3.3242" stroke-miterlimit="10" d="M257.5,349.7c2.3,3.1,2.2,7.7,0,10.7
	c-3.5,4.8-11.4,4.3-15.7,0.9c-2.4-1.9-5.1-5.8-3.9-9.3c1.2-3.5,5.7-4.5,7.6-4.9C247.2,346.6,254,345,257.5,349.7z"/>
<path fill="#27AAE1" stroke="#000000" stroke-width="3.3242" stroke-miterlimit="10" d="M308.5,358.1c0,0,3.9,9.3,7.6,19.9
	c0.6,1.8,3.1,9.7,4.7,14.3c9.7,28.3,9.3,57.4,12.6,60.1c4.4,3.6,5.1,6.5,6.5,11.9c1.8,6.6,2,10.2,2.5,16.2c0.3,3.1,1.8,5.2,1.5,7.2
	c-0.4,2.9-5,4.4-8.1,5.5c-1.7,0.6-9.2,2.1-15.2,2.1c-6.4,0-14.2-2.6-14.2-2.6l-0.1-2.2c0,0-1.1-7.5-2.6-11.2
	c-4.6-11-10.2-18.1-17.8-26.1c-23.9-24.8-26-38.5-31.1-40c0,0-8.5,14.3-32,46.2c-7.1,9.7-12.9,16.2-12.6,26
	c0.2,5.7,2.3,11.1-0.9,14.7c-0.7,0.8-2,1.9-10.5,2.8c-15.3,1.7-20-0.8-21.4-1.6c-1.6-0.9-4.5-2.7-4.8-5.4c-0.3-2.5-0.8-4.6-0.4-7.8
	c0.8-7.8,0.2-9.8,3.9-16.9c1.6-3.1,2.6-7.3,4.1-11c3.1-7.9-1.9-29.6,1.5-50.8c1.9-11.6-0.7-20.8,2.8-24.6c6.1-6.7,9.8-20.5,9.8-20.5
	s29.8-2.9,33-0.9c8.6,5.4,7.6,8.8,23,7.9c13.3-0.7,18-10,21.6-11.2C283.4,356.2,308.5,358.1,308.5,358.1z"/>
<path stroke="#000000" stroke-width="3.3242" stroke-miterlimit="10" d="M348.7,499.7c-0.4-5.3-0.3-9.9-2.8-11.1
	c-1.4-0.6-2.7,0.1-6.1,1.5c-4,1.5-8.1,3.1-12.2,3.5c-6.7,0.6-19.2-0.2-20.2,1.1c-3.4,4.5,4.9,16.6,10.9,25.2
	c8.8,12.7,11.3,12.6,12.8,19c1.4,5.8-0.3,7.1,1.1,20.2c1,9.4,2.3,12.1,3,13.3c1.2,2.2,3,4.7,11.8,11.2c9,6.6,13.5,9.8,17.4,10.8
	c1.1,0.3,14.1,3.4,22.8-4c1.4-1.2,4-3.5,4.7-7c0.2-1.4,0.7-5.6-6.9-14.2c-7.8-8.8-12.5-9.1-22.4-19c-3.8-3.8-5.7-5.8-7.2-8.6
	c-3.3-6.4-1.3-9.5-2.9-22.3C351.2,507.8,349.6,509.7,348.7,499.7z"/>
<path stroke="#000000" stroke-width="3.3242" stroke-miterlimit="10" d="M204.7,516.5c2.6-5.7,7.1-15.6,4.1-18.2
	c-1.5-1.3-3.6,0.2-10.6,1.7c-7.5,1.6-15.7,3.3-21.4-0.5c-3.6-2.5-3.8-5.5-5.3-5.3c-4.3,0.6-4.5,24-4.6,28.9
	c-0.3,20.4,2.4,21.5-0.1,28.7c-1.9,5.2-3.6,5.5-20,24.1c-11.8,13.4-14.5,17.3-13.4,21.5c1.5,6.1,9.7,8.8,11.7,9.5
	c9.8,3.2,18.5-1.4,20.1-2.2c5.1-2.8,4.4-4.7,14.9-14.9c7.7-7.4,8.4-6.8,9.6-9.5c2.2-5.4-0.2-8.8-0.7-22.4c-0.1-4.4-0.2-6.5,0.1-9
	C190.4,536.7,197.2,533.1,204.7,516.5z"/>
<path fill="#FFF200" stroke="#000000" stroke-width="3.3242" stroke-miterlimit="10" d="M150.5,243.6c0,0-2.7,3.4-11.3,9.6
	c-7.2,5.2-22,18-34.4,38.9c-11.7,19.7-9.4,27.6-24.3,49.1c-11.4,16.5-19.3,21.4-22.3,23.1c-12.1,6.9-25.8,8.3-32.7,8.5
	C11,373.4,5.8,369.6,3,373c-4.9,5.9,4.4,25.8,18.9,37.7c7.4,6,17.8,10.4,38.7,19.2c11,4.7,10,3.7,13.2,5.5
	c19.4,10.5,17.9,22.9,32.6,31.9c12.8,7.8,14.4,9.6,39.7,8c14.8-0.9,24.3,9,26.6,5.2c0.5-0.8,1.3-1,3.3-5.7c2.5-5.8,3.7-9.7,6.1-15.6
	c2.1-5.2-5.4-23.4-0.7-48.2c2.1-11.1,4.8-22.7,8.4-31.8c5.4-13.9,1.3-3.6,5.4-13.9c3.1-7.8,6.2-34,8.4-39.6
	c5.8-14.8-12.5-41.8-16.3-46.9c-1.3-1.7-15.3-14.4-26.2-24.5C156.9,250.4,151.9,245.1,150.5,243.6z"/>
<path fill="#FFF200" stroke="#000000" stroke-width="3.3242" stroke-miterlimit="10" d="M213.3,477.3c1.5,1.4,26.7-10.8,43.4-10.8
	c25.1,0,43.1,11.2,45.2,8.2c2.3-3.3-9.8-10.2-24.2-29.1c-6.7-8.8-20.2-32.5-22.9-32.4c-2.4,0.1-12.5,19-23.2,33.4
	C220.8,461.4,212.1,476.2,213.3,477.3z"/>
<path fill="#FFF200" stroke="#000000" stroke-width="3.3242" stroke-miterlimit="10" d="M341,460.3c6.9,6.6,14.2-10.2,30-16.8
	c15.8-6.6,20.1,2,33.5-3.5c19.2-7.9,13.2-26.5,35.4-41.2c3.8-2.5,15.4-6.9,38.5-15.6c19.2-7.2,22-7.7,23-10.8
	c3.8-11.3-27.1-22.3-59.4-59.7c-18.6-21.6-17-27.9-35.5-44.1c-12-10.5-22.5-16.5-43.7-28.5c-16.9-9.6-28.9-15-43.1-18.4
	c-8.3-2-24.8-2-24.8-2s8,6.8,24.6,17.8c23.9,15.9,20,16.4,38.6,28.2c20.6,13.2,30.6,15.9,32.3,25.8c0.9,5.1-0.9,9.2-3.7,15.4
	c-4.5,10.2-9.4,12.7-23.2,27.7c-11.3,12.2-16.9,18.3-20.1,23.6c-4.2,6.9-6.4,12.7-13.2,16.4c-6.8,3.8-14.2-0.4-13.3,4.1
	c1.3,6.2,9.7,20.3,12,49.4c0.5,6.9,1.4,14.2,3.4,22.6C333.4,455,336.9,456.3,341,460.3z"/>
<g>
	<path fill="#FFF200" stroke="#000000" stroke-width="3.3242" stroke-miterlimit="10" d="M303.5,266.9c5.7-4.6,11.9,6.1,28,15.8
		c11.9,7.2,20.6,8.7,20.7,12.5c0,2.6,0,2.6-2.8,7.7c-5.4,9.6-1.9,25.8-10.3,33.9c-5.8,5.6-15.6-1.4-23.3,5.3
		c-6.9,5.9-7.6,14.3-10,14.1c-2.1-0.2-2.9-7.3-3.8-13.2c-1.4-8.9-5.3-15-6.6-20.3c-2.3-9-2.2-16.4-1.8-19.5
		c0.4-2.7-0.4-15.1,1.5-23.1C297,270.8,301.2,268.8,303.5,266.9z"/>
</g>
<path fill="#F3D9CC" stroke="#F3D9CC" stroke-width="3.3242" stroke-miterlimit="10" d="M233.5,222.5c0,0-1.8-16.7-3.4-26.4
	c0,0-8.3,4.8-31.1-2.5c-2.7-0.9-11.9-2.2-23-12.4c-5.1-4.7-6.4-11.3-7.6-15.8c-2.6-9.2,0.1-10.2-0.2-21.7c0,0,2.3-0.8-3.8-5.4
	c-0.8-0.6-4.6-0.3-5.5,0.2c-2,1.1-5.6,2.6-9.7,1.6c-6-1.5-8.6-7.4-10-10.8c-1.1-2.6-4.4-10.2-0.8-14.1c2.7-2.9,7.9-2.6,11.2-1.6
	c10.3,3.1,12.6,15.9,15.9,15.2c2.7-0.6-1-5.7,1.7-20.8c0.8-4.2,0.3-5.3,4.5-14.1c2.9-6.2,6.1-14.1,11.5-17.8
	c5.7-3.8,11.1-7.9,26.7-9.8c17.1-2.2,19.9-1.3,38.8-3.2c8-0.8,19.6-1.4,36.8,5.4c6.4,2.5,11.9,27.1,14.5,30.2
	c9.4,11.4,0.7,14.7,1.8,17.8c0,0.1,0.1,0.1,0.1,0.1c0.8,0.3,3.4-4,7.1-7c1.1-0.8,4.8-3.8,9.9-4.1c3.3-0.2,9.3,0.6,11.5,4.1
	c5.3,8.3-3.7,17.2-13.9,23.3c-10.5,6.3-5,31.7-9.1,40.7c-3.4,7.4-8.1,13.2-20.4,18.3c-14.7,6-28.6,7.9-34.8,5c0,0,0,0,0,0
	c-5,9.5,0.1,18.7,0.1,18.7c0.1,1.1,0.2,2.9,0.4,5.2c-1.3,1.2-3.6,2.7-6.9,3.9c-0.9,0.3-2,0.5-3.3,0.6
	C237.3,225.2,233.5,222.5,233.5,222.5z"/>
<path fill="none" stroke="#C49A6C" stroke-width="3.3242" stroke-miterlimit="10" d="M155.8,130c0.5-0.8-1.5-3.5-4.2-4.7
	c-3-1.3-6.7-0.6-6.8,0.4C144.5,127.4,154.8,131.5,155.8,130z"/>
<path fill="none" stroke="#C49A6C" stroke-width="3.3242" stroke-miterlimit="10" d="M308.4,123.7c-0.5-0.8,2.9-4.1,6.9-5.5
	c3.4-1.2,7.6-1.3,7.9-0.4C323.6,119.4,309.3,125.1,308.4,123.7z"/>
<g>
	<path fill="#FFFFFF" stroke="#000000" stroke-width="3.3242" stroke-miterlimit="10" d="M220.1,131.9c-3,2-6.2-2.7-14.5-2.3
		c-7.7,0.4-10.6,4.8-13.2,3.1c-3.2-2.2-0.8-10.7,2-20.6c2.2-8,4.3-11.4,7.5-13.8c1.3-1,3.8-2.9,6.7-2.4c1.3,0.2,4.5,1.2,8.4,10.5
		C217.6,108,225.9,128.1,220.1,131.9z"/>
	<path fill="#2E3192" stroke="#000000" stroke-width="3.3242" stroke-miterlimit="10" d="M215.2,126.7c4.2-6.2,1.1-13.2,0.6-14.4
		c-0.2-0.5-4.3-9.2-10.7-8.7c-5.9,0.5-8.6,8.5-9.1,9.7c-2,5.9,2.5,17.6,10.3,16.6C211.6,129.3,212,131.5,215.2,126.7z"/>
	<path fill="#27AAE1" stroke="#000000" stroke-width="3.3242" stroke-miterlimit="10" d="M206.1,129.5c3.6-0.5,4.9-1.1,4.8-5.3
		c0-1.9-1.4-6.9-4.9-6.7c-3.5,0.2-4.7,1.5-4.7,6.1C201.3,127,202.5,130,206.1,129.5z"/>
</g>
<g>
	<path fill="#FFFFFF" stroke="#000000" stroke-width="3.3242" stroke-miterlimit="10" d="M279.7,128.7c-3,2-6.2-2.7-14.5-2.3
		c-7.7,0.4-10.6,4.8-13.2,3.1c-3.2-2.2-0.8-10.7,2-20.6c2.2-8,4.3-11.4,7.5-13.8c1.3-1,3.8-2.9,6.7-2.4c1.3,0.2,4.5,1.2,8.4,10.5
		C277.2,104.8,285.5,124.9,279.7,128.7z"/>
	<path fill="#2E3192" stroke="#000000" stroke-width="3.3242" stroke-miterlimit="10" d="M274.8,123.5c4.2-6.2,1.1-13.2,0.6-14.4
		c-0.2-0.5-4.3-9.2-10.7-8.7c-5.9,0.5-8.6,8.5-9.1,9.7c-2,5.9,2.5,17.6,10.3,16.6C271.2,126,271.6,128.2,274.8,123.5z"/>
	<path fill="#27AAE1" stroke="#000000" stroke-width="3.3242" stroke-miterlimit="10" d="M265.7,126.3c3.6-0.5,4.9-1.1,4.8-5.3
		c0-1.9-1.4-6.9-4.9-6.7c-3.5,0.2-4.7,1.5-4.7,6.1C260.9,123.7,262.1,126.8,265.7,126.3z"/>
</g>
<path fill="none" stroke="#FFDE17" stroke-width="3.3242" stroke-miterlimit="10" d="M217.2,82c-5.3-1.4-15.7,0.9-23,10.3"/>
<path fill="none" stroke="#FFDE17" stroke-width="3.3242" stroke-miterlimit="10" d="M277.4,87.8c-0.3-5-11.1-8.4-24.2-7.7"/>
<line fill="none" stroke="#000000" stroke-width="3.3242" stroke-miterlimit="10" x1="212" y1="96.8" x2="212" y2="96.8"/>
<g>
	<path fill="none" stroke="#C49A6C" stroke-width="3.3242" stroke-miterlimit="10" d="M245.9,147.7c-0.6-0.4-4.3-3-8.8-1.8
		c-3.9,1.1-7.9,4.9-7.3,9.3c0.4,3.3,3.1,5.7,5.7,6.6c3.3,1.2,7.1,0.4,9.8-2.1"/>
</g>
<path fill="none" stroke="#BE1E2D" stroke-width="3.3242" stroke-miterlimit="10" d="M289.3,165.1c-1.6-2.2-5.9-4.2-5.9-4.2
	s-3.3,4.9-5.6,8.3c-7.7,11.2-19.6,14.9-23.7,15.9c-6.5,1.7-11.7,1.4-16.7,1.1c-3.9-0.2-10,0-16.9-3.1c-3.7-1.7-7.5-3.4-13.1-6.8
	c-6.1-3.8-7-5.3-7-5.3c-4.1-3.6-5.3-4.4-5.3-4.4s-2,2.5-2.5,4.2"/>
<path fill="#FFDE17" stroke="#F9ED32" stroke-width="3.3242" stroke-miterlimit="10" d="M314.3,95.9c1.2-5,2.6-8.8,2.8-17
	c0.2-6.1,0.4-13.7-2-23.5c-2.1-8.6-4-16.1-10.5-22.7c-4.8-4.9-10.5-7.6-13-8.8c-3.3-1.6-6-2.4-11.5-4.1c-5-1.6-8.7-2.3-8.1-1.6
	c1.3,1.7,9.8,9.9,11.4,23.5c0.3,2.8,1,8.6-2.2,13.5c-3,4.5-7.5,5.8-7,7.5c0.5,2.1,7.1,0.1,12.4,3.8c1.7,1.2,2.6,2.5,6.6,12.7
	c4.8,12.1,4.7,13.3,7.6,19.2c1.4,3,4.7,9.3,4.7,9.3v0C305.4,107.7,312,105.6,314.3,95.9z"/>
<path fill="#FFDE17" stroke="#F9ED32" stroke-width="3.3242" stroke-miterlimit="10" d="M256,8c-4.3-1.8-11.3-4.2-21.7-5.4
	c-8.5-0.9-20.9-2.3-35.3,2.2c-6.4,2-27.7,8.6-37,27c-6.5,13-3.3,16.4-5.3,34.8c-0.5,4.3-17.1,10.1-9.9,36.6c0.9,3.1,2.6,6,3.7,7.8
	c3.5,6,10.8,16,14.2,14.7c3.2-1.2-1.3-10.9,2.5-25.4c0.9-3.5,3.3-12.4,10.8-20.2c6.1-6.4,12.7-9.2,16.4-10.7c7.2-3,10.1-2.4,31-4.4
	c25.4-2.4,24.5-3.2,30.2-2.5c7,0.8,8.8,0.8,15.2,0.4c5.3-0.3,9.4-6.2,10.3-8c4.6-9.8,0.4-20.1-1.3-24.3c-1.3-3.3-4.1-8.9-9.7-14.1
	C265.3,11.9,260.6,9.9,256,8z"/>
<path fill="#F7941E" stroke="#000000" stroke-width="3.3242" stroke-miterlimit="10" d="M258.2,216c-0.2-0.2,0,0.9-2.8-0.3
	c-2.4-1.1-2-0.8-2-0.8s0.3,3.5-0.6,6.3c-1.2,4-6.5,5.9-8.3,6.3c-2,0.4-9.7,0.9-12.4-2.4c-2.1-2.6-2.3-9-2.3-9l-7,0.4
	c0,0,2.1,9.7,5.2,12.9c3.9,4,8.2,4.2,11.3,4.4c2.9,0.2,9.5,0.5,14.6-4C258.3,225.7,260,217.8,258.2,216z"/>
<use xlink:href="#Blond_Hair_4"  width="22.7" height="15.4" x="-11.3" y="-7.7" transform="matrix(-4.9414 -0.5478 0.2766 -2.4951 217.0471 36.6457)" overflow="visible"/>
<use xlink:href="#Blond_Hair_4"  width="22.7" height="15.4" x="-11.3" y="-7.7" transform="matrix(-5.1611 -0.5722 0.2928 -2.6409 215.742 59.3605)" overflow="visible"/>
<use xlink:href="#Blond_Hair_1"  width="16.2" height="6.8" x="-8.1" y="-3.4" transform="matrix(-1.5224 -1.7337 1.3488 -1.1845 299.9261 46.4076)" overflow="visible"/>
<use xlink:href="#Blond_Hair_1"  width="16.2" height="6.8" x="-8.1" y="-3.4" transform="matrix(-1.5224 -1.7337 1.3488 -1.1845 300.3605 65.3215)" overflow="visible"/>
<g>
	<path fill="#2E3192" stroke="#000000" stroke-width="3.3242" stroke-miterlimit="10" d="M88.6,156.5c-13.5-8.2-7.3-52.1-29-54.8
		c-12.1-1.5-14.2-4.6-14.1-5.2c0.1-0.5,14.2,0.6,14-4c-0.2-4.3-15.2-4.5-15.2-3.9c-0.1,0.6,15-0.6,14.9-4.9
		c-0.1-3.7-16.4-1.7-16.4-1.8c0-0.1,16-3.1,15.9-4.9c-0.2-3-16.5-2.7-16.5-2.9c0-0.2,15.6,0.3,16-1.7c0.7-3.8-16.8-7.5-16.2-7.4
		c0.3,0,11.2,4.8,13.6,1.8c2.3-2.8-3.1-10-2.2-14.1c0.5-2.3,5.6-3.6,7.1-1.1c2.1,3.4,3.9,8.4,4,10.8c0.2,5.3,1.5,10.9,17.5,31.7
		c27.7,36.1,40.4,42.8,37.7,51.8C116.6,155.4,98,162.2,88.6,156.5z"/>
	<path fill="none" stroke="#000000" stroke-width="3.3242" stroke-miterlimit="10" d="M41.7,65c0,3.2,0.1,6.3,0.2,9.2
		c0.1,2.9,0.3,5.6,0.4,8c0.2,2.5,0.4,4.8,0.7,6.7c0.6,4.7,1.5,7.6,2.4,7.6"/>
	<g>
		<g>
			<path d="M42.6,67.7c0,1.2-0.4,3.5,0.4,4.5c0.7,0.9,1.4,0.5,2.3,0.4c1.6-0.1,3.1,0.8,4.8,0.7c1.8,0,3.5-0.4,5.1-1
				c0.8-0.3,0.8-1.3,0-1.6c-2-0.7-3.8-1.6-5.8-2.3c-1.4-0.6-3.3-1.6-4.8-1.4c-0.4,0-0.7,0.2-0.8,0.6c-0.4,1.3-0.6,3,0.9,3.4
				c0.6,0.2,1.3,0,2,0.2c0.6,0.2,1.2,0.5,1.8,0.7c1.1,0.4,2.1,0.7,3.2,0.5c0.9-0.1,1.1-1.3,0.2-1.6c-2.2-0.8-4.3-1.8-6.6-2.2
				c-1-0.2-1.5,1.4-0.4,1.6c2.3,0.3,4.4,1.3,6.6,2.2c0.1-0.5,0.1-1.1,0.2-1.6c-1.7,0.2-3-0.7-4.6-1.2c-0.3-0.1-1.1-0.4-1.4-0.3
				c-0.7-0.2-0.8,0-0.4,0.4c0-0.6,0.1-1.1,0.2-1.7c-0.3,0.2-0.5,0.4-0.8,0.6c1.6-0.2,4,1.2,5.4,1.8c1.6,0.7,3.1,1.3,4.7,1.9
				c0-0.5,0-1.1,0-1.6c-2.8,0.9-5.2,1.1-8,0.3c-0.7-0.2-1.3-0.2-2-0.2c-0.9-0.1-0.3,0.4-0.4-0.4c-0.1-0.9-0.1-1.8,0-2.7
				C44.3,66.6,42.7,66.6,42.6,67.7L42.6,67.7z"/>
		</g>
	</g>
	<g>
		<g>
			<path d="M42.8,76.3c0.1,1.4,0.2,2.9,0.3,4.3c0.1,0.8,1.1,1.2,1.5,0.4c0.7-1.4,3.9-1.4,5.2-1.7c1.7-0.4,3.3-0.9,4.9-1.3
				c0.6-0.2,0.8-0.9,0.4-1.4c-1.5-1.7-3.8-1.4-5.8-1.3c-1.3,0-5.1-0.8-5.6,1c-0.3,1.1,0.4,2.5,1.5,2.5c1.3,0.1,2.7-0.3,4-0.3
				c1.4,0.1,2.7,0,4.1-0.3c1-0.3,0.6-1.9-0.4-1.6c-1.6,0.4-3.1,0.2-4.7,0.2c-0.5,0-1,0-1.5,0.1c-0.2,0-1.8,0.1-1.3,0.2
				c2.4,0.5,6.8-1.4,8.7,0.8c0.1-0.5,0.2-0.9,0.4-1.4c-2.5,0.7-4.9,1.4-7.5,1.8c-1.6,0.2-2.9,0.5-3.7,2c0.5,0.1,1,0.3,1.5,0.4
				c-0.1-1.4-0.2-2.9-0.3-4.3C44.4,75.2,42.7,75.2,42.8,76.3L42.8,76.3z"/>
		</g>
	</g>
	<g>
		<g>
			<path d="M47.9,77.6c0.7,0,2.1-0.3,2.8,0c0.4,0.2,0.7,0.6,1.1,0.7c0.6,0.2,1.4,0.1,2,0.1c0.8,0,1.8,0.1,2.6-0.2
				c0.4-0.1,0.6-0.4,0.6-0.8c0,0,0-0.1,0-0.1c0-0.3-0.2-0.6-0.4-0.7c0,0-0.1,0-0.1-0.1c-0.9-0.6-1.7,0.9-0.8,1.4c0,0,0.1,0,0.1,0.1
				c-0.1-0.2-0.3-0.5-0.4-0.7c0,0,0,0.1,0,0.1c0.2-0.3,0.4-0.5,0.6-0.8c-0.7,0.2-1.7,0.2-2.4,0.1c-0.5,0.1-1,0-1.5-0.3
				c-0.2-0.1-0.3-0.2-0.5-0.4c-1.1-0.4-2.4-0.2-3.6-0.2C46.8,75.9,46.8,77.6,47.9,77.6L47.9,77.6z"/>
		</g>
	</g>
	<g>
		<g>
			<path d="M44.1,79.6c0.4,0,0.8,0,1.2,0c1.1,0,1.1-1.7,0-1.7c-0.4,0-0.8,0-1.2,0C43.1,77.9,43.1,79.6,44.1,79.6L44.1,79.6z"/>
		</g>
	</g>
	<g>
		<g>
			<path d="M43.7,84.6c4.5,0,9.1,0,13.6,0c-0.1-0.5-0.1-1.1-0.2-1.6c-2.8,0.8-5.6,1.6-8.4,2.4c-0.7,0.2-1.4,0.3-2,0.6
				c-0.3,0-0.6,0.2-0.8,0.3c-0.3,0.3-0.4,0.3-0.4-0.2c-1.4-0.9,2.1-0.5,2.7-0.5c1.4,0,2.7-0.1,4.1-0.3c0.2,0,2-0.2,2-0.2
				c0-0.2-1.7-0.2-1.9-0.2c-0.9,0.1-1.7,0.4-2.5,0.7c-0.4,0.2-0.9,0.5-1.4,0.6c-0.5,0.4-1,0.3-1.5-0.2c-0.9-0.1-1.2-0.3-0.7-0.7
				c0.1,0.5,0.1,1,0.2,1.5c0.2-0.1,0.4-0.2,0.6-0.3c1.1-0.1,1.1-1.7,0-1.7c-0.7,0-0.9,0-1.5,0.5c-0.5,0.4-0.6,1.4,0.2,1.5
				c1.5,0.2,2.5-1.4,1.1-2.5c-1.2-1-2.4-0.1-2.6,1.2c-0.3,2.7,2.3,3,4.3,2.4c0.8-0.3,1.6-0.8,2.5-1c1-0.3,1.9-0.2,2.9-0.4
				c0.8-0.1,1.8-0.4,2.2-1.2c1.1-2.1-1.8-2-3-1.9c-2.4,0.2-4.7,0.4-7.2,0.3c-0.9,0-1.8-0.3-2.3,0.6c-0.6,1,0.2,3.3,1.3,3.6
				c1.4,0.4,4.4-1.1,5.6-1.5c2.3-0.7,4.6-1.3,6.9-2c0.9-0.3,0.7-1.6-0.2-1.6c-4.5,0-9.1,0-13.6,0C42.7,82.9,42.7,84.6,43.7,84.6
				L43.7,84.6z"/>
		</g>
	</g>
	<g>
		<g>
			<path d="M44.4,91.5c2.6-0.1,5.2-0.2,7.8,0.1c1.2,0.1,2.7,0.2,3.9,0.6c0.6,0.2,0.6,0.1,0.1-0.2c-0.7,0.3-1.5,0.6-2.2,0.9
				c-1.1,0.4-2.2,0.7-3.4,0.8c-0.2,0-5.3,0.9-4.4-1c0.3-0.5,3.9-0.7,4.5-0.8c0.7-0.1,4.7-0.1,1.8,0.6c-0.9,0.2-1.8,0.3-2.7,0.5
				c-1.3,0.2-3.6,0.5-1-0.1c0.9-0.2,1.9-0.4,2.9-0.5c0.8,0.2,1.4,0.1,1.9-0.4c-0.1,0-0.1,0-0.2,0c-1.2,0.1-2.5,0.4-3.6,0.7
				c-0.6,0.2-1.2,0.3-1.8,0.5c0.1,0.7,0.5,0.8,1.1,0.3c1,0,2.2-0.5,3.2-0.6c1.1-0.1,0.6-1.7-0.4-1.6c-1.6,0.2-7.3,0.8-5.1,3.6
				c0.2,0.2,0.6,0.3,0.8,0.2c2.3-0.8,4.6-1,6.9-1.6c0.7-0.2,1.2-0.3,1.4-1.1c0.4-2.3-3.4-1.9-4.6-1.7c-1.4,0.2-6.6,0.1-6.1,2.8
				c0.6,2.7,5.9,0.9,7.3,0.6c1.4-0.3,4.2-1.5,2.6-3.2c-0.8-0.9-2.4-0.9-3.5-0.8c-1.8,0.2-3.6,0.5-5.4,0.6c-2.2,0.1-2.4,3-0.9,4.4
				c1.6,1.5,6.4,0.1,8.2-0.4c1-0.3,6.2-1.7,4.1-3.7c-1-1-3.7-0.9-5.1-1c-2.7-0.3-5.5-0.3-8.2-0.2C43.3,89.9,43.3,91.6,44.4,91.5
				L44.4,91.5z"/>
		</g>
	</g>
</g>
<g>
	
		<rect x="48.8" y="39.1" transform="matrix(0.99 0.1409 -0.1409 0.99 11.7327 -9.1024)" fill="#808285" stroke="#000000" stroke-width="3.3242" stroke-miterlimit="10" width="42.8" height="78.5"/>
	
		<rect x="56" y="53.5" transform="matrix(0.99 0.1409 -0.1409 0.99 11.875 -9.0718)" stroke="#000000" stroke-width="3.3242" stroke-miterlimit="10" width="28.1" height="51.6"/>
</g>
</svg>
