<?xml version="1.0" encoding="utf-8"?>
<!-- Generator: Adobe Illustrator 18.1.0, SVG Export Plug-In . SVG Version: 6.00 Build 0)  -->
<!DOCTYPE svg PUBLIC "-//W3C//DTD SVG 1.1//EN" "http://www.w3.org/Graphics/SVG/1.1/DTD/svg11.dtd">
<svg version="1.1" id="Layer_1" xmlns="http://www.w3.org/2000/svg" xmlns:xlink="http://www.w3.org/1999/xlink" x="0px" y="0px"
	 viewBox="0 0 503.3 604" enable-background="new 0 0 503.3 604" xml:space="preserve">
<symbol  id="Blond_Hair_1" viewBox="-8.1 -3.4 16.2 6.8">
	<g>
		<g>
			<path fill="#FEE751" d="M-8.1,2.5c0,0,10.4-0.9,16.2-5.9C3.6,2-5.5,4.9-8.1,2.5z"/>
		</g>
	</g>
</symbol>
<symbol  id="Blond_Hair_4" viewBox="-11.3 -7.7 22.7 15.4">
	<g>
		<path fill="#FEE751" d="M-11.3,7c0,0,5.6,2.6,10.6-1.9c5-4.6,5.8-10.2,12-12.7C4.7-6.5,2.2,0.9-1,4C-6.1,8.9-10.8,7-11.3,7z"/>
	</g>
</symbol>
<path fill="#F3D9CC" stroke="#E6C5BE" stroke-width="3.3201" stroke-miterlimit="10" d="M262.7,222.7c0,0,0.9-16.7,2-26.5
	c0,0,8.6,4.3,30.8-4.2c2.6-1,11.7-2.8,22.3-13.6c4.8-5,5.7-11.6,6.7-16.2c2.1-9.3-0.7-10.2-0.9-21.6c0,0-2.3-0.6,3.5-5.6
	c0.8-0.6,4.6-0.5,5.5-0.1c2.1,1,5.8,2.3,9.8,1c5.9-1.8,8.1-7.8,9.4-11.3c1-2.6,3.8-10.4,0-14.1c-2.8-2.8-8-2.1-11.3-0.9
	c-10.1,3.7-11.7,16.5-15,16c-2.8-0.4,0.7-5.8-2.8-20.7c-1-4.2-0.6-5.2-5.2-13.9c-3.2-6-6.8-13.8-12.4-17.2
	c-5.9-3.5-11.5-7.2-27.1-8.4c-17.1-1.2-19.9-0.2-38.9-1c-8-0.3-19.6-0.3-36.4,7.4c-6.2,2.8-10.4,27.7-12.8,30.9
	c-8.8,11.9,0.1,14.7-0.8,17.8c0,0.1,0,0.1-0.1,0.1c-0.7,0.4-3.6-3.8-7.5-6.6c-1.1-0.8-4.9-3.5-10.1-3.6c-3.4,0-9.3,1.1-11.3,4.7
	c-4.9,8.6,4.6,16.9,15.1,22.4c10.8,5.7,6.7,31.3,11.3,40.1c3.8,7.1,8.8,12.8,21.3,17.1c15,5.2,28.9,6.3,35,3.1c0,0,0,0,0,0
	c5.5,9.2,0.9,18.6,0.9,18.6c0,1.1-0.1,2.9-0.1,5.2c1.3,1.1,3.8,2.5,7.1,3.5c0.9,0.3,2,0.4,3.3,0.4
	C259,225.7,262.7,222.7,262.7,222.7z"/>
<path fill="#27AAE1" stroke="#000000" stroke-width="3.3201" stroke-miterlimit="10" d="M234.6,217.6c-3.8-3-9.4-1.8-17.9,0
	c-4.1,0.9-9.6,2.1-16.2,5.6c-10,5.3-14.9,11.3-24.1,18.5c-12.9,10-22.6,21.6-35.3,31.4c-0.2,0.1-10.8,5.7-22.4,15.1
	c-3.3,2.7-6.8,5.7-7.8,10.6c-1.2,5.4,0.7,12,3.9,12.9c2.1,0.6,3.2-1.9,9.5-5.6c4.3-2.5,7.9-4.7,12.3-4.5c4.5,0.2,4.9,2.6,8.4,2.8
	c6.5,0.3,14.4-10.9,19.2-14.2c4.4-3,10.7-4.2,17.8-11c3.5-3.3,4.1-3,6.9-4.4c3-1.5,7.6-7.7,13.5,1.6c3.8,5.9,3,20.2,3.3,26.3
	c0.3,4.8,0,17.8-2.5,26.9c0,0-0.3,1.6-2.4,9.4l-1.5,5.7c0.8,2.1,7.6-0.4,17.9,0c10.5,0.4,11.7,2.4,16.8,1.1
	c5.7-1.4,6.1-3.8,12.7-6.3c5.5-2.1,12.6-1.7,14.4-1.2c5.6,1.5,6.4,3.1,12.9,5.3c1.9,0.6,0.8-0.1,5.9,0.6c8.6,1.2,13.9,1.3,19,0.6
	c4.7-0.6,5.3-1.4,5.6-1.7c2.4-3.1-2.2-8.1-4.5-17.9c-0.7-3.1-1-11.2-1-20.6c0-5.5-1.1-9.9,2.9-18.6c5.3-11.5,9.4-10.8,12.6-12.3
	c3.8-1.7,10.8,3.7,24.6,14.6c11.1,8.7,14.1,12.3,20.7,12.9c3.8,0.4,6.3-0.5,11.2,1.1c2.3,0.8,7.2,2.3,10.6,6.7
	c2.5,3.2,2.5,5.5,3.9,5.6c2.2,0.1,4.4-5.3,5-9.5c0.2-1.3,0.7-4.9-0.6-9c-2.1-6.5-7.4-10.1-12.3-13.4c0,0-1.8-1.2-25.2-18.5
	c-9.9-7.3-8.1-6.7-20.2-15.7c-12.6-9.3-13.7-9.3-18.5-14c-7.2-7-7.5-9.7-13.4-12.9c-3.5-1.9-7.8-2.7-16.2-4.5
	c-10.1-2.1-11.9-1.3-12.9-0.6c-3.6,2.7-0.7,7.6-4.5,12.3c-3.8,4.8-10.9,5-13.4,5c-2.7,0.1-8.2,0.2-12.3-3.4
	C236.3,226.2,238.9,221.1,234.6,217.6z"/>
<polygon fill="#F7941E" stroke="#000000" stroke-width="3.3201" stroke-miterlimit="10" points="235.7,251.2 214.4,273.1 
	235.7,303.9 278.8,303.9 300.1,273.7 278.2,251.2 "/>
<polygon fill="#FFFFFF" stroke="#000000" stroke-width="3.3201" stroke-miterlimit="10" points="230.1,273.1 243.5,292.7 269,292.7 
	284.4,273.1 277.1,263.6 238.5,263.6 "/>
<path stroke="#000000" stroke-width="3.3201" stroke-miterlimit="10" d="M116.4,314.5c-1,3.7,1.9,7.5,10.1,15.7
	c17.8,17.7,20.1,15.3,27.4,24.6c7.1,9.1,8.5,15.9,18.5,23c4.3,3.1,7.3,4.1,10.1,3.4c5.4-1.5,7.3-9.7,8.4-14.6
	c1.3-5.5,2.8-12.3-1.1-17.4c-3-3.9-7.7-4.9-11.2-5.6c-7.6-1.6-9.5,1.2-13.4,0c-11.6-3.4-6.3-32.7-20.2-39.2
	c-5.7-2.7-13.3-1.6-16.5-0.7C125.3,304.6,117.7,309.3,116.4,314.5z"/>
<path stroke="#000000" stroke-width="3.3201" stroke-miterlimit="10" d="M360.6,302.8c-12.7,4.8-7.5,32.5-21.3,39.2
	c-7,3.4-12-1.7-19.6,3.4c-7.6,5-8.8,14.1-9,15.1c-1,8.2,2.6,18.8,9.5,20.7c4.3,1.2,8.5-1.3,11.8-3.4c8.8-5.5,9.7-11.2,16.8-20.2
	c3.1-3.9,2.4-2.2,26.3-24.1c7.6-7,11-10.2,10.6-14.6c-0.5-6.4-6.8-13.3-9-14.4C374.3,303.3,366.7,300.5,360.6,302.8z"/>
<path fill="#F7941E" stroke="#000000" stroke-width="3.3201" stroke-miterlimit="10" d="M197,347c-1.1,4.1-2.2,8.2-3.4,12.3h36.4
	l3.9-13.4L197,347z"/>
<polygon fill="#F7941E" stroke="#000000" stroke-width="3.3201" stroke-miterlimit="10" points="274.9,346.6 274.9,361.6 
	307.9,359.4 304,345.9 "/>
<path fill="#ED1C24" stroke="#000000" stroke-width="3.3201" stroke-miterlimit="10" d="M235.1,348.2c-0.5,0.9-4.3,7.9-1.1,14.6
	c4.1,8.7,16.2,8.9,18.5,9c2.7,0.1,15.8-0.1,20.7-10.1c0.2-0.4,3.9-8.1,0-15.1c-5.5-9.9-20.2-8.1-21.8-7.8
	C248.7,339,239.6,340.2,235.1,348.2z"/>
<path fill="#FFFFFF" stroke="#000000" stroke-width="3.3201" stroke-miterlimit="10" d="M244.1,350.4c-2.1,3.2-1.7,7.8,0.6,10.6
	c3.7,4.6,11.6,3.6,15.7,0c2.3-2,4.8-6.1,3.4-9.5c-1.4-3.4-5.9-4.2-7.8-4.5C254.1,346.8,247.3,345.6,244.1,350.4z"/>
<path fill="#27AAE1" stroke="#000000" stroke-width="3.3201" stroke-miterlimit="10" d="M195.3,360.1c0,0-5,11-8.1,21.7
	c-0.5,1.8-2.6,9.9-3.9,14.6c-8.2,28.8-6.2,57.7-9.3,60.6c-4.2,3.8-4.7,6.8-5.8,12.2c-1.4,6.7-1.4,10.3-1.6,16.3
	c-0.1,3.1-1.5,5.3-1.2,7.2c0.6,2.8,5.2,4.2,8.4,5c1.8,0.5,9.3,1.6,15.2,1.3c6.4-0.4,14-3.3,14-3.3l0-2.2c0,0,0.7-7.6,2-11.3
	c4-11.2,9.2-18.6,16.4-27c22.5-26,23.9-39.8,28.9-41.5c0,0,9.2,13.8,34.4,44.3c7.6,9.2,13.8,15.5,14,25.2c0.1,5.7-1.7,11.2,1.7,14.6
	c0.8,0.8,2.1,1.8,10.6,2.2c15.3,0.9,19.9-1.9,21.3-2.8c1.5-1,4.3-2.9,4.5-5.6c0.1-2.5,0.5-4.6,0-7.8c-1.3-7.7-0.8-9.8-4.8-16.7
	c-1.8-3-3-7.1-4.7-10.7c-3.6-7.7,0.3-29.7-4.3-50.5c-2.5-11.5-0.5-20.8-4.2-24.4c-6.5-6.3-10.9-19.9-10.9-19.9s-29.8-1.3-33,0.9
	c-8.3,5.9-7.1,9.2-22.5,9.2c-13.3,0-18.5-9-22.1-10C218.5,358.3,195.3,360.1,195.3,360.1z"/>
<path stroke="#000000" stroke-width="3.3201" stroke-miterlimit="10" d="M161.2,505c0.2-5.4-0.2-9.9,2.2-11.2c1.3-0.7,2.7,0,6.2,1.1
	c4,1.3,8.3,2.7,12.3,2.8c6.7,0.2,19.1-1.2,20.2,0c3.7,4.3-4,16.8-9.5,25.8c-8,13.1-10.6,13.1-11.8,19.6c-1.1,5.8,0.7,7,0,20.2
	c-0.5,9.5-1.6,12.2-2.2,13.4c-1.1,2.3-2.8,4.9-11.2,11.8c-8.6,7-12.9,10.5-16.8,11.8c-1.1,0.3-13.9,4.2-23-2.8
	c-1.5-1.2-4.2-3.2-5-6.7c-0.3-1.3-1-5.6,6.2-14.6c7.3-9.2,12-9.8,21.3-20.2c3.6-4,5.4-6.1,6.7-9c3-6.6,0.8-9.6,1.7-22.4
	C159.1,513.2,160.9,515,161.2,505z"/>
<path stroke="#000000" stroke-width="3.3201" stroke-miterlimit="10" d="M305.7,514c-2.9-5.5-7.9-15.1-5-17.9
	c1.4-1.4,3.6,0,10.6,1.1c7.6,1.2,15.8,2.5,21.3-1.7c3.5-2.7,3.5-5.7,5-5.6c4.3,0.3,5.8,23.7,6.2,28.6c1.4,20.3-1.3,21.5,1.7,28.6
	c2.1,5.1,3.9,5.3,21.3,23c12.5,12.7,15.4,16.5,14.6,20.7c-1.2,6.1-9.2,9.3-11.2,10.1c-9.6,3.7-18.6-0.4-20.2-1.1
	c-5.3-2.5-4.6-4.4-15.7-14c-8.1-7-8.8-6.3-10.1-9c-2.5-5.2-0.2-8.8-0.6-22.4c-0.1-4.3-0.2-6.5-0.6-9
	C321.1,533.4,314.1,530.1,305.7,514z"/>
<path fill="#FFF200" stroke="#000000" stroke-width="3.3201" stroke-miterlimit="10" d="M306.4,224.9c0,0,29.2,5.9,51.4,21.9
	c7.2,5.2,22.9,16.8,36.4,37c12.7,19,10.9,27,26.9,47.6c12.3,15.9,20.4,20.3,23.5,21.8c12.5,6.2,26.2,6.8,33,6.7
	c14.4-0.3,19.4-4.3,22.4-1.1c5.2,5.6-3,26-16.8,38.7c-7,6.4-17.2,11.4-37.5,21.3c-10.8,5.2-9.7,4.2-12.9,6.2
	c-18.8,11.5-16.6,23.9-30.8,33.6c-12.3,8.5-13.9,10.3-39.2,10.1c-14.8-0.1-24.5,9-27.6,5.9c-2.6-2.6,0.9,3.8-2.2-4.7
	c-2.1-5.9-4.3-9.5-6.9-15.2c-2.3-5,4.1-23.6-1.9-48.2c-2.7-11-3.3-23.3-3.3-23.3s6-1.8,12.3-4.7c8.4-3.9,10.6-11.3,15.7-19.6
	c13-21.1,25.7-17.2,37.5-38.7c4.1-7.4,7.6-13.7,6.2-21.3c-1.3-6.9-5.9-11.3-24.6-25.8c-12.9-9.9-18.5-15.4-26.9-20.2
	C323.8,243.1,305.1,226.4,306.4,224.9z"/>
<g>
	<path fill="#27AAE1" stroke="#000000" stroke-width="3.3201" stroke-miterlimit="10" d="M313.5,274.8c6-4.2,10.5,2.5,25.8,13.4
		c11.3,8.1,19.8,10.2,19.6,14c-0.1,2.5-3,1.8-4.9,7c-3.8,10.3-3.4,23.9-12.4,31.3c-6.2,5.1-14.8-1.2-23,4.8
		c-7.4,5.4-8.2,14.4-10.6,14c-2.1-0.4-2.3-7.4-2.8-13.4c-0.7-9-4.1-15.3-5-20.7c-1.6-9.1-1-16.5-0.3-19.5c0.6-2.6,4.7-7.5,7.6-15.2
		C309.8,283.9,311.1,276.5,313.5,274.8z"/>
</g>
<path fill="#FFF200" stroke="#000000" stroke-width="3.3201" stroke-miterlimit="10" d="M295.1,475.3c-1.4,1.5-27.3-9.3-43.9-8.4
	c-25,1.4-42.4,13.5-44.6,10.6c-2.4-3.2,9.2-10.7,22.6-30.3c6.2-9.2,18.4-33.5,21.1-33.5c2.4,0,13.5,18.3,24.9,32.1
	C286.7,459.9,296.1,474.1,295.1,475.3z"/>
<path fill="#FFF200" stroke="#000000" stroke-width="3.3201" stroke-miterlimit="10" d="M166.8,465.2c-6.5,7-14.7-9.4-30.8-15.1
	c-16.1-5.7-19.9,3.1-33.6-1.7c-19.6-6.8-14.6-25.7-37.5-39.2c-3.9-2.3-15.7-6-39.2-13.4c-19.5-6.2-22.3-6.5-23.5-9.5
	c-4.4-11.1,25.8-23.7,56-62.7c17.4-22.5,15.5-28.7,33-45.9c11.4-11.1,21.6-17.7,42-30.8c16.3-10.5,28-16.5,42-20.7
	c8.1-2.5,24.6-3.4,24.6-3.4s-7.6,7.2-23.5,19c-23,17.1-19.1,17.4-37,30.2c-19.8,14.3-29.6,17.5-30.8,27.4c-0.6,5.1,1.4,9.2,4.5,15.1
	c5,9.9,10.1,12.1,24.6,26.3c11.9,11.6,17.9,17.4,21.3,22.4c4.5,6.7,7.1,12.3,14,15.7c7,3.4,14.1-1.1,13.4,3.4
	c-1,6.2-8.6,20.8-9.3,49.9c-0.2,6.9-0.6,14.2-2.2,22.7C174,459.6,170.6,461.1,166.8,465.2z"/>
<g>
	<path fill="#FFF200" stroke="#000000" stroke-width="3.3201" stroke-miterlimit="10" d="M313.5,274.8c7.1-1.8,10.5,2.5,25.8,13.4
		c11.3,8.1,19.8,10.2,19.6,14c-0.1,2.5-3,1.8-4.9,7c-3.8,10.3-3.4,23.9-12.4,31.3c-6.2,5.1-14.8-1.2-23,4.8
		c-7.4,5.4-8.2,14.4-10.6,14c-2.1-0.4-2.3-7.4-2.8-13.4c-0.7-9-4.1-15.3-5-20.7c-1.6-9.1-0.7-16.5-1.1-19.5
		c-0.6-4.7-0.7-15.1,3.9-21.5C307,278.6,310.6,275.5,313.5,274.8z"/>
</g>
<g>
	<path fill="#FFF200" stroke="#000000" stroke-width="3.3201" stroke-miterlimit="10" d="M198.1,271.9c-1.7-0.8-15.4,4.9-31.5,15.8
		c-11.5,7.8-20.1,9.8-19.9,13.5c0.1,2.6,0.1,2.6,3.2,7.5c5.9,9.3,3.3,25.7,12.1,33.3c6.1,5.2,15.5-2.2,23.6,4
		c7.2,5.5,8.3,13.9,10.7,13.5c2.1-0.3,2.5-7.4,3.1-13.4c0.9-9,4.4-15.2,5.5-20.6c1.8-9.1,1.3-16.5,0.8-19.5
		c-0.5-2.6,1.3-14.8-1.4-22.6C202.1,276.8,200.8,273.2,198.1,271.9z"/>
</g>
<path fill="#F7941E" stroke="#000000" stroke-width="3.3201" stroke-miterlimit="10" d="M236.1,217.1c0.2-0.2,0,0.9,2.8-0.5
	c2.3-1.2,2-0.9,2-0.9s-0.1,3.5,1,6.3c1.4,3.9,6.8,5.6,8.7,5.8c2,0.3,9.8,0.4,12.2-3.1c2-2.8,1.8-9.1,1.8-9.1h7c0,0-1.6,9.8-4.5,13.1
	c-3.6,4.2-7.9,4.7-11,5c-2.9,0.3-9.5,1-14.7-3.2C236.5,226.8,234.4,219,236.1,217.1z"/>
<path fill="none" stroke="#A97C50" stroke-width="3.3201" stroke-miterlimit="10" d="M335.2,126.3c-0.6-0.8,1.3-3.6,3.9-4.9
	c2.9-1.5,6.6-1,6.8,0C346.3,123.1,336.2,127.7,335.2,126.3z"/>
<path fill="none" stroke="#A97C50" stroke-width="3.3201" stroke-miterlimit="10" d="M182.6,128.3c0.4-0.8-3.1-3.9-7.2-5.1
	c-3.4-1-7.7-0.8-7.9,0C167.3,124.8,181.8,129.7,182.6,128.3z"/>
<g>
	<path fill="#FFFFFF" stroke="#000000" stroke-width="3.3201" stroke-miterlimit="10" d="M271.2,131.7c3.1,1.8,6-3.1,14.3-3.1
		c7.7,0,10.9,4.2,13.3,2.4c3.1-2.3,0.3-10.7-3.1-20.5c-2.7-7.8-4.9-11.1-8.2-13.3c-1.4-0.9-4-2.6-6.8-2c-1.3,0.3-4.5,1.4-7.9,10.9
		C272.3,107.7,265.1,128.2,271.2,131.7z"/>
	<path fill="#2E3192" stroke="#000000" stroke-width="3.3201" stroke-miterlimit="10" d="M275.7,126.2c-4.5-5.9-1.8-13.1-1.4-14.3
		c0.2-0.5,3.8-9.4,10.2-9.2c5.9,0.2,9.1,8,9.6,9.2c2.3,5.8-1.5,17.7-9.4,17.1C279.5,128.6,279.2,130.8,275.7,126.2z"/>
	<path fill="#1C75BC" stroke="#000000" stroke-width="3.3201" stroke-miterlimit="10" d="M285,128.5c-3.6-0.3-4.9-0.8-5.1-5
		c-0.1-1.9,1-7,4.5-7c3.5,0,4.8,1.3,5,5.9C289.6,125.7,288.6,128.8,285,128.5z"/>
</g>
<g>
	<path fill="#FFFFFF" stroke="#000000" stroke-width="3.3201" stroke-miterlimit="10" d="M211.6,131.7c3.1,1.8,6-3.1,14.3-3.1
		c7.7,0,10.9,4.2,13.3,2.4c3.1-2.3,0.3-10.7-3.1-20.5c-2.7-7.8-4.9-11.1-8.2-13.3c-1.4-0.9-4-2.6-6.8-2c-1.3,0.3-4.5,1.4-7.9,10.9
		C212.7,107.7,205.5,128.2,211.6,131.7z"/>
	<path fill="#2E3192" stroke="#000000" stroke-width="3.3201" stroke-miterlimit="10" d="M216.1,126.2c-4.5-5.9-1.8-13.1-1.4-14.3
		c0.2-0.5,3.8-9.4,10.2-9.2c5.9,0.2,9.1,8,9.6,9.2c2.3,5.8-1.5,17.7-9.4,17.1C219.9,128.6,219.6,130.8,216.1,126.2z"/>
	<path fill="#1C75BC" stroke="#000000" stroke-width="3.3201" stroke-miterlimit="10" d="M225.4,128.5c-3.6-0.3-4.9-0.8-5.1-5
		c-0.1-1.9,1-7,4.5-7c3.5,0,4.8,1.3,5,5.9C230,125.7,229,128.8,225.4,128.5z"/>
</g>
<path fill="none" stroke="#FFF200" stroke-width="3.3201" stroke-miterlimit="10" d="M271.4,81.7c5.2-1.7,15.7,0,23.5,9"/>
<path fill="none" stroke="#FFF200" stroke-width="3.3201" stroke-miterlimit="10" d="M211.6,90.8c0-5,10.6-9,23.7-9"/>
<line fill="none" stroke="#000000" stroke-width="3.3201" stroke-miterlimit="10" x1="277.4" y1="89.6" x2="277.4" y2="89.6"/>
<g>
	<path fill="none" stroke="#A97C50" stroke-width="3.3201" stroke-miterlimit="10" d="M255.8,148.3c-0.6-0.4-4.5-2.8-8.9-1.3
		c-3.9,1.3-7.6,5.3-6.8,9.7c0.6,3.3,3.4,5.5,6,6.3c3.3,1,7.1,0,9.7-2.6"/>
</g>
<path fill="none" stroke="#BE1E2D" stroke-width="3.3201" stroke-miterlimit="10" d="M204,168.5c1.4-2.2,5.6-4.5,5.6-4.5
	s3.6,4.7,6.1,8c8.3,10.7,20.3,13.8,24.5,14.6c6.5,1.3,11.7,0.8,16.7,0.2c3.8-0.4,9.9-0.5,16.7-4c3.6-1.9,7.3-3.8,12.7-7.5
	c5.9-4.1,6.7-5.6,6.7-5.6c3.9-3.9,5.1-4.7,5.1-4.7s2.1,2.4,2.7,4"/>
<path fill="#FFDE17" stroke="#FFE06A" stroke-width="3.3201" stroke-miterlimit="10" d="M175.2,100.9c-1.5-4.9-3-8.6-3.7-16.8
	c-0.5-6.1-1.1-13.6,0.7-23.5c1.7-8.7,3.1-16.2,9.2-23.2c4.5-5.1,10.1-8.2,12.5-9.5c3.2-1.8,5.9-2.8,11.3-4.8c4.9-1.8,8.5-2.8,8-2.1
	C212,22.7,204,31.4,203.1,45c-0.2,2.8-0.5,8.6,3,13.4c3.2,4.3,7.8,5.3,7.4,7.1c-0.4,2.2-7.1,0.5-12.2,4.5c-1.6,1.3-2.5,2.6-5.9,13.1
	c-4.1,12.3-4,13.6-6.5,19.6c-1.3,3-4.2,9.5-4.2,9.5v0C184.7,112.2,178.1,110.4,175.2,100.9z"/>
<path fill="#FFDE17" stroke="#FFE06A" stroke-width="3.3201" stroke-miterlimit="10" d="M228.7,10c4.2-2,11-4.8,21.4-6.5
	c8.4-1.4,20.7-3.4,35.3,0.3c6.5,1.6,28.1,7.1,38.3,24.9c7.2,12.6,4.2,16.1,7.1,34.5c0.7,4.3,17.6,9.2,11.9,35.9
	c-0.7,3.2-2.3,6.1-3.3,8c-3.1,6.2-9.9,16.6-13.4,15.4c-3.3-1,0.7-10.9-3.9-25.2c-1.1-3.5-4-12.1-11.9-19.6
	c-6.4-6.1-13.1-8.5-16.9-9.8c-7.4-2.6-10.2-1.8-31.2-2.7c-25.5-1-24.6-1.9-30.3-0.9c-6.9,1.2-8.8,1.3-15.2,1.2
	c-5.3,0-9.7-5.7-10.7-7.4c-5.1-9.5-1.5-20,0-24.4c1.2-3.4,3.7-9.1,8.9-14.6C219.6,14.4,224.2,12.2,228.7,10z"/>
<use xlink:href="#Blond_Hair_4"  width="22.7" height="15.4" x="-11.3" y="-7.7" transform="matrix(4.8985 -0.8136 -0.4108 -2.4734 267.6354 34.8625)" overflow="visible"/>
<use xlink:href="#Blond_Hair_4"  width="22.7" height="15.4" x="-11.3" y="-7.7" transform="matrix(5.1163 -0.8497 -0.4348 -2.6179 270.1653 57.4454)" overflow="visible"/>
<use xlink:href="#Blond_Hair_1"  width="16.2" height="6.8" x="-8.1" y="-3.4" transform="matrix(1.4245 -1.8113 -1.4093 -1.1083 185.5079 49.0801)" overflow="visible"/>
<use xlink:href="#Blond_Hair_1"  width="16.2" height="6.8" x="-8.1" y="-3.4" transform="matrix(1.4245 -1.8113 -1.4093 -1.1083 186.0975 67.9664)" overflow="visible"/>
</svg>
