<?xml version="1.0" encoding="utf-8"?>
<!-- Generator: Adobe Illustrator 18.1.0, SVG Export Plug-In . SVG Version: 6.00 Build 0)  -->
<!DOCTYPE svg PUBLIC "-//W3C//DTD SVG 1.1//EN" "http://www.w3.org/Graphics/SVG/1.1/DTD/svg11.dtd">
<svg version="1.1" id="Layer_1" xmlns="http://www.w3.org/2000/svg" xmlns:xlink="http://www.w3.org/1999/xlink" x="0px" y="0px"
	 viewBox="0 0 600 600" enable-background="new 0 0 600 600" xml:space="preserve">
<symbol  id="Blond_Hair_1" viewBox="-8.1 -3.4 16.2 6.8">
	<g>
		<g>
			<path fill="#FEE751" d="M-8.1,2.5c0,0,10.4-0.9,16.2-5.9C3.6,2-5.5,4.9-8.1,2.5z"/>
		</g>
	</g>
</symbol>
<symbol  id="Blond_Hair_4" viewBox="-11.3 -7.7 22.6 15.3">
	<g>
		<path fill="#FEE751" d="M-11.3,6.9c0,0,5.6,2.6,10.6-1.9c5-4.6,5.8-10.2,12-12.7C4.7-6.6,2.2,0.8-1,3.9
			C-6.1,8.8-10.8,6.9-11.3,6.9z"/>
	</g>
</symbol>
<g>
	<g id="Layer_1_1_">
		<path fill="#F3D9CC" stroke="#E6C5BE" stroke-width="3.3382" stroke-miterlimit="10" d="M311.1,220.8c0,0,0.9-16.7,2-26.4
			c0,0,8.5,4.3,30.8-4.2c2.6-1,11.7-2.8,22.3-13.6c4.8-5,5.7-11.6,6.7-16.2c2.1-9.3-0.7-10.2-0.9-21.6c0,0-2.3-0.6,3.5-5.6
			c0.8-0.6,4.6-0.5,5.5-0.1c2.1,1,5.8,2.3,9.8,1c5.9-1.8,8-7.7,9.4-11.3c1-2.6,3.8-10.4,0-14.1c-2.8-2.8-7.9-2.1-11.3-0.9
			c-10.1,3.7-11.7,16.5-15,16c-2.8-0.4,0.7-5.8-2.8-20.7c-1-4.2-0.6-5.2-5.2-13.9c-3.2-6-6.8-13.8-12.4-17.2
			c-5.9-3.5-11.5-7.2-27-8.3c-17.1-1.2-19.9-0.2-38.8-1c-7.9-0.3-19.6-0.3-36.4,7.4c-6.2,2.8-10.4,27.7-12.8,30.9
			c-8.7,11.9,0.1,14.7-0.8,17.8c0,0.1,0,0.1-0.1,0.1c-0.7,0.4-3.6-3.8-7.5-6.6c-1.1-0.8-4.9-3.5-10.1-3.6c-3.4,0-9.3,1.1-11.3,4.7
			c-4.9,8.5,4.6,16.9,15.1,22.4c10.8,5.7,6.7,31.3,11.3,40c3.8,7.1,8.7,12.8,21.3,17.1c15,5.2,28.9,6.3,35,3.1l0,0
			c5.5,9.1,0.9,18.6,0.9,18.6c0,1.1-0.1,2.9-0.1,5.2c1.3,1.1,3.8,2.5,7.1,3.5c0.9,0.3,2,0.4,3.3,0.4
			C307.3,223.8,311.1,220.8,311.1,220.8z"/>
		<path fill="#27AAE1" stroke="#000000" stroke-width="3.3382" stroke-miterlimit="10" d="M283,215.7c-3.8-3-9.4-1.8-17.9,0
			c-4.1,0.9-9.6,2.1-16.2,5.6c-10,5.3-14.9,11.3-24,18.5c-12.9,10-22.6,21.6-35.3,31.4c-0.2,0.1-10.8,5.7-22.4,15.1
			c-3.3,2.7-6.8,5.7-7.7,10.6c-1.2,5.4,0.7,12,3.9,12.9c2.1,0.6,3.2-1.9,9.5-5.6c4.3-2.5,7.8-4.7,12.3-4.5c4.5,0.2,4.9,2.6,8.3,2.8
			c6.5,0.3,14.4-10.9,19.2-14.2c4.4-3,10.7-4.2,17.8-11c3.5-3.3,4.1-3,6.9-4.4c3-1.5,7.5-7.6,13.5,1.6c3.8,5.9,3,20.2,3.3,26.2
			c0.3,4.8,0,17.8-2.5,26.8c0,0-0.3,1.6-2.4,9.4l-1.5,5.7c0.8,2.1,7.5-0.4,17.9,0c10.5,0.4,11.7,2.4,16.8,1.1
			c5.7-1.4,6.1-3.8,12.7-6.3c5.5-2.1,12.6-1.7,14.4-1.2c5.6,1.5,6.4,3.1,12.9,5.3c1.9,0.6,0.8-0.1,5.9,0.6c8.5,1.2,13.9,1.3,19,0.6
			c4.7-0.6,5.3-1.4,5.6-1.7c2.4-3.1-2.2-8-4.5-17.9c-0.7-3.1-1-11.2-1-20.6c0-5.5-1.1-9.9,2.9-18.6c5.3-11.5,9.4-10.8,12.6-12.3
			c3.8-1.7,10.8,3.7,24.5,14.6c11.1,8.6,14.1,12.3,20.7,12.9c3.8,0.4,6.3-0.5,11.2,1.1c2.3,0.8,7.2,2.3,10.6,6.7
			c2.5,3.2,2.5,5.5,3.9,5.6c2.2,0.1,4.4-5.3,5-9.5c0.2-1.3,0.7-4.9-0.6-8.9c-2.1-6.5-7.4-10.1-12.3-13.4c0,0-1.8-1.2-25.1-18.5
			c-9.9-7.3-8-6.7-20.2-15.7c-12.6-9.3-13.7-9.3-18.5-14c-7.2-7-7.5-9.7-13.4-12.9c-3.5-1.9-7.7-2.7-16.2-4.5
			c-10.1-2.1-11.9-1.3-12.9-0.6c-3.6,2.7-0.7,7.5-4.5,12.3c-3.8,4.8-10.9,5-13.4,5c-2.7,0.1-8.1,0.2-12.3-3.4
			C284.7,224.3,287.2,219.2,283,215.7z"/>
		<polygon fill="#F7941E" stroke="#000000" stroke-width="3.3382" stroke-miterlimit="10" points="284.1,249.2 262.8,271.1 
			284.1,301.9 327.1,301.9 348.4,271.7 326.5,249.2 		"/>
		<polygon fill="#FFFFFF" stroke="#000000" stroke-width="3.3382" stroke-miterlimit="10" points="278.5,271.1 291.9,290.7 
			317.3,290.7 332.7,271.1 325.4,261.7 286.8,261.7 		"/>
		<path stroke="#000000" stroke-width="3.3382" stroke-miterlimit="10" d="M164.9,312.5c-1,3.7,1.9,7.5,10.1,15.7
			c17.8,17.7,20.1,15.3,27.3,24.5c7.1,9,8.4,15.9,18.5,22.9c4.3,3.1,7.3,4.1,10.1,3.4c5.4-1.5,7.3-9.7,8.3-14.6
			c1.3-5.5,2.8-12.3-1.1-17.4c-3-3.9-7.6-4.9-11.2-5.6c-7.5-1.6-9.5,1.2-13.4,0c-11.6-3.4-6.3-32.7-20.2-39.1
			c-5.7-2.7-13.3-1.6-16.5-0.7C173.8,302.6,166.2,307.3,164.9,312.5z"/>
		<path stroke="#000000" stroke-width="3.3382" stroke-miterlimit="10" d="M408.8,300.8c-12.7,4.8-7.5,32.5-21.3,39.1
			c-7,3.4-12-1.7-19.6,3.4c-7.5,5-8.7,14.1-8.9,15.1c-1,8.1,2.6,18.8,9.5,20.7c4.3,1.2,8.4-1.3,11.8-3.4c8.7-5.5,9.7-11.2,16.8-20.2
			c3.1-3.9,2.4-2.2,26.2-24c7.5-7,11-10.2,10.6-14.6c-0.5-6.4-6.8-13.3-8.9-14.4C422.5,301.3,414.9,298.5,408.8,300.8z"/>
		<path fill="#F7941E" stroke="#000000" stroke-width="3.3382" stroke-miterlimit="10" d="M245.4,344.9c-1.1,4.1-2.2,8.1-3.4,12.3
			h36.4l3.9-13.4L245.4,344.9z"/>
		<polygon fill="#F7941E" stroke="#000000" stroke-width="3.3382" stroke-miterlimit="10" points="323.2,344.5 323.2,359.5 
			356.2,357.3 352.3,343.8 		"/>
		<path fill="#ED1C24" stroke="#000000" stroke-width="3.3382" stroke-miterlimit="10" d="M283.5,346.2c-0.5,0.9-4.3,7.8-1.1,14.6
			c4.1,8.6,16.2,8.8,18.5,8.9c2.7,0.1,15.8-0.1,20.7-10.1c0.2-0.4,3.9-8,0-15.1c-5.5-9.9-20.2-8-21.8-7.7
			C297.1,337,287.9,338.1,283.5,346.2z"/>
		<path fill="#FFFFFF" stroke="#000000" stroke-width="3.3382" stroke-miterlimit="10" d="M292.5,348.4c-2.1,3.2-1.7,7.7,0.6,10.6
			c3.7,4.6,11.6,3.6,15.7,0c2.3-2,4.8-6.1,3.4-9.5c-1.4-3.4-5.9-4.2-7.7-4.5C302.4,344.7,295.7,343.5,292.5,348.4z"/>
		<path fill="#27AAE1" stroke="#000000" stroke-width="3.3382" stroke-miterlimit="10" d="M243.7,358c0,0-5,11-8,21.7
			c-0.5,1.8-2.6,9.9-3.9,14.6c-8.1,28.8-6.2,57.6-9.3,60.5c-4.2,3.8-4.7,6.8-5.8,12.2c-1.4,6.7-1.4,10.3-1.6,16.3
			c-0.1,3.1-1.5,5.3-1.2,7.2c0.6,2.8,5.2,4.2,8.3,5c1.8,0.5,9.3,1.6,15.2,1.3c6.4-0.4,14-3.3,14-3.3v-2.2c0,0,0.7-7.5,2-11.3
			c4-11.2,9.1-18.6,16.4-26.9c22.5-25.9,23.8-39.7,28.9-41.4c0,0,9.1,13.8,34.4,44.2c7.5,9.1,13.8,15.5,14,25.1
			c0.1,5.7-1.7,11.2,1.7,14.6c0.8,0.8,2.1,1.8,10.6,2.2c15.3,0.9,19.9-1.9,21.3-2.8c1.5-1,4.3-2.9,4.5-5.6c0.1-2.5,0.5-4.6,0-7.7
			c-1.3-7.6-0.8-9.8-4.8-16.7c-1.8-3-3-7.1-4.7-10.7c-3.6-7.6,0.3-29.7-4.3-50.5c-2.5-11.5-0.5-20.8-4.2-24.3
			c-6.5-6.3-10.9-19.9-10.9-19.9s-29.8-1.3-33,0.9c-8.2,5.9-7.1,9.1-22.5,9.1c-13.3,0-18.5-8.9-22.1-10
			C266.9,356.2,243.7,358,243.7,358z"/>
		<path stroke="#000000" stroke-width="3.3382" stroke-miterlimit="10" d="M209.6,502.8c0.2-5.4-0.2-9.9,2.2-11.2
			c1.3-0.7,2.7,0,6.2,1.1c4,1.3,8.2,2.7,12.3,2.8c6.7,0.2,19.1-1.2,20.2,0c3.7,4.3-4,16.8-9.5,25.7c-7.9,13.1-10.6,13.1-11.8,19.6
			c-1.1,5.8,0.7,7,0,20.2c-0.5,9.5-1.6,12.2-2.2,13.4c-1.1,2.3-2.8,4.9-11.2,11.8c-8.5,7-12.9,10.5-16.8,11.8
			c-1.1,0.3-13.9,4.2-22.9-2.8c-1.5-1.2-4.2-3.2-5-6.7c-0.3-1.3-1-5.6,6.2-14.6c7.3-9.1,12-9.8,21.3-20.2c3.6-4,5.4-6.1,6.7-8.9
			c3-6.6,0.8-9.6,1.7-22.4C207.6,510.9,209.4,512.8,209.6,502.8z"/>
		<path stroke="#000000" stroke-width="3.3382" stroke-miterlimit="10" d="M354,511.8c-2.9-5.5-7.8-15.1-5-17.9
			c1.4-1.4,3.6,0,10.6,1.1c7.5,1.2,15.8,2.5,21.3-1.7c3.5-2.7,3.5-5.7,5-5.6c4.3,0.3,5.8,23.6,6.2,28.6c1.4,20.3-1.3,21.5,1.7,28.6
			c2.1,5.1,3.9,5.3,21.3,22.9c12.5,12.7,15.4,16.5,14.6,20.7c-1.2,6.1-9.1,9.3-11.2,10.1c-9.6,3.7-18.6-0.4-20.2-1.1
			c-5.3-2.5-4.6-4.4-15.7-14c-8-7-8.7-6.3-10.1-8.9c-2.5-5.2-0.2-8.7-0.6-22.4c-0.1-4.3-0.2-6.5-0.6-8.9
			C369.4,531.2,362.3,527.8,354,511.8z"/>
		<path fill="#FFF200" stroke="#000000" stroke-width="3.3382" stroke-miterlimit="10" d="M354.7,223c0,0,29.2,5.9,51.4,21.9
			c7.2,5.2,22.8,16.8,36.4,37c12.7,19,10.9,26.9,26.8,47.6c12.3,15.9,20.4,20.3,23.4,21.8c12.5,6.2,26.1,6.8,33,6.7
			c14.4-0.3,19.4-4.3,22.4-1.1c5.2,5.6-3,25.9-16.8,38.6c-7,6.4-17.2,11.4-37.5,21.3c-10.8,5.2-9.7,4.2-12.9,6.2
			c-18.8,11.5-16.6,23.8-30.8,33.6c-12.3,8.4-13.9,10.3-39.1,10.1c-14.8-0.1-24.4,8.9-27.5,5.9c-2.6-2.6,0.9,3.8-2.2-4.7
			c-2.1-5.9-4.3-9.5-6.9-15.2c-2.3-5,4.1-23.5-1.9-48.2c-2.7-11-3.3-23.2-3.3-23.2s6-1.8,12.3-4.7c8.3-3.9,10.6-11.3,15.7-19.6
			c13-21.1,25.6-17.2,37.5-38.6c4.1-7.4,7.5-13.7,6.2-21.3c-1.3-6.9-5.9-11.3-24.5-25.7c-12.9-9.9-18.5-15.4-26.8-20.2
			C372.1,241.2,353.4,224.5,354.7,223z"/>
		<g>
			<path fill="#27AAE1" stroke="#000000" stroke-width="3.3382" stroke-miterlimit="10" d="M361.7,272.9c6-4.2,10.5,2.5,25.7,13.4
				c11.3,8,19.8,10.2,19.6,14c-0.1,2.5-3,1.8-4.9,7c-3.8,10.3-3.4,23.8-12.4,31.3c-6.2,5.1-14.8-1.2-22.9,4.8
				c-7.4,5.4-8.1,14.4-10.6,14c-2.1-0.4-2.3-7.4-2.8-13.4c-0.7-8.9-4.1-15.3-5-20.7c-1.6-9-1-16.5-0.3-19.5
				c0.6-2.6,4.7-7.5,7.5-15.2C358.1,281.9,359.4,274.6,361.7,272.9z"/>
		</g>
		<path fill="#FFF200" stroke="#000000" stroke-width="3.3382" stroke-miterlimit="10" d="M343.4,473.1c-1.4,1.5-27.2-9.3-43.8-8.3
			c-24.9,1.4-42.3,13.5-44.5,10.6c-2.4-3.2,9.1-10.7,22.6-30.3c6.2-9.1,18.4-33.5,21.1-33.5c2.4,0,13.5,18.3,24.8,32.1
			C335,457.8,344.4,471.9,343.4,473.1z"/>
		<path fill="#FFF200" stroke="#000000" stroke-width="3.3382" stroke-miterlimit="10" d="M215.2,463c-6.5,7-14.7-9.4-30.8-15.1
			c-16.1-5.7-19.9,3.1-33.6-1.7c-19.6-6.8-14.6-25.6-37.5-39.1c-3.9-2.3-15.7-6-39.1-13.4c-19.5-6.2-22.3-6.5-23.4-9.5
			c-4.4-11.1,25.7-23.6,55.9-62.6c17.4-22.5,15.5-28.7,33-45.8c11.4-11.1,21.6-17.7,41.9-30.8c16.3-10.5,28-16.5,41.9-20.7
			c8-2.5,24.5-3.4,24.5-3.4s-7.5,7.2-23.4,19c-22.9,17.1-19.1,17.4-37,30.2c-19.8,14.3-29.6,17.5-30.8,27.3
			c-0.6,5.1,1.4,9.1,4.5,15.1c5,9.9,10.1,12.1,24.5,26.2c11.9,11.6,17.9,17.4,21.3,22.4c4.5,6.7,7.1,12.3,14,15.7
			c7,3.4,14.1-1.1,13.4,3.4c-1,6.2-8.5,20.8-9.3,49.9c-0.2,6.9-0.6,14.2-2.2,22.6C222.5,457.5,219.1,458.9,215.2,463z"/>
		<g>
			<path fill="#FFF200" stroke="#000000" stroke-width="3.3382" stroke-miterlimit="10" d="M361.7,272.9c7.1-1.8,10.5,2.5,25.7,13.4
				c11.3,8,19.8,10.2,19.6,14c-0.1,2.5-3,1.8-4.9,7c-3.8,10.3-3.4,23.8-12.4,31.3c-6.2,5.1-14.8-1.2-22.9,4.8
				c-7.4,5.4-8.1,14.4-10.6,14c-2.1-0.4-2.3-7.4-2.8-13.4c-0.7-8.9-4.1-15.3-5-20.7c-1.6-9-0.7-16.5-1.1-19.5
				c-0.6-4.7-0.7-15.1,3.9-21.5C355.3,276.7,358.9,273.6,361.7,272.9z"/>
		</g>
		<g>
			<path fill="#FFF200" stroke="#000000" stroke-width="3.3382" stroke-miterlimit="10" d="M246.5,269.9
				c-1.7-0.8-15.4,4.9-31.5,15.8c-11.5,7.7-20.1,9.8-19.9,13.5c0.1,2.6,0.1,2.6,3.2,7.5c5.9,9.3,3.3,25.6,12.1,33.3
				c6.1,5.2,15.5-2.2,23.5,4c7.2,5.5,8.2,13.9,10.7,13.5c2.1-0.3,2.5-7.4,3.1-13.4c0.9-8.9,4.4-15.2,5.5-20.6
				c1.8-9,1.3-16.5,0.8-19.5c-0.5-2.6,1.3-14.8-1.4-22.6C250.5,274.9,249.2,271.2,246.5,269.9z"/>
		</g>
		<path fill="#F7941E" stroke="#000000" stroke-width="3.3382" stroke-miterlimit="10" d="M284.5,215.2c0.2-0.2,0,0.9,2.8-0.5
			c2.3-1.2,2-0.9,2-0.9s-0.1,3.5,1,6.3c1.4,3.9,6.8,5.6,8.6,5.8c2,0.3,9.8,0.4,12.2-3.1c2-2.8,1.8-9,1.8-9h7c0,0-1.6,9.8-4.5,13.1
			c-3.6,4.2-7.8,4.7-11,5c-2.9,0.3-9.5,1-14.7-3.2C284.9,224.9,282.8,217,284.5,215.2z"/>
		<path fill="none" stroke="#A97C50" stroke-width="3.3382" stroke-miterlimit="10" d="M383.5,124.5c-0.6-0.8,1.3-3.6,3.9-4.9
			c2.9-1.5,6.6-1,6.8,0C394.5,121.3,384.5,126,383.5,124.5z"/>
		<path fill="none" stroke="#A97C50" stroke-width="3.3382" stroke-miterlimit="10" d="M231,126.6c0.4-0.8-3.1-3.9-7.2-5.1
			c-3.4-1-7.6-0.8-7.8,0C215.7,123,230.2,127.9,231,126.6z"/>
		<g>
			<path fill="#FFFFFF" stroke="#000000" stroke-width="3.3382" stroke-miterlimit="10" d="M319.5,129.9c3.1,1.8,6-3.1,14.3-3.1
				c7.6,0,10.9,4.2,13.3,2.4c3.1-2.3,0.3-10.7-3.1-20.5c-2.7-7.7-4.9-11.1-8.1-13.3c-1.4-0.9-4-2.6-6.8-2c-1.3,0.3-4.5,1.4-7.8,10.9
				C320.6,105.9,313.5,126.5,319.5,129.9z"/>
			<path fill="#2E3192" stroke="#000000" stroke-width="3.3382" stroke-miterlimit="10" d="M324,124.4c-4.5-5.9-1.8-13.1-1.4-14.3
				c0.2-0.5,3.8-9.4,10.2-9.1c5.9,0.2,9,7.9,9.6,9.1c2.3,5.8-1.5,17.7-9.4,17.1C327.9,126.8,327.5,129,324,124.4z"/>
			<path fill="#1C75BC" stroke="#000000" stroke-width="3.3382" stroke-miterlimit="10" d="M333.3,126.7c-3.6-0.3-4.9-0.8-5.1-5
				c-0.1-1.9,1-7,4.5-7c3.5,0,4.8,1.3,5,5.9C337.9,123.9,336.9,127,333.3,126.7z"/>
		</g>
		<g>
			<path fill="#FFFFFF" stroke="#000000" stroke-width="3.3382" stroke-miterlimit="10" d="M260,129.9c3.1,1.8,6-3.1,14.3-3.1
				c7.6,0,10.9,4.2,13.3,2.4c3.1-2.3,0.3-10.7-3.1-20.5c-2.7-7.7-4.9-11.1-8.1-13.3c-1.4-0.9-4-2.6-6.8-2c-1.3,0.3-4.5,1.4-7.8,10.9
				C261.1,105.9,253.9,126.5,260,129.9z"/>
			<path fill="#2E3192" stroke="#000000" stroke-width="3.3382" stroke-miterlimit="10" d="M264.5,124.4c-4.5-5.9-1.8-13.1-1.4-14.3
				c0.2-0.5,3.8-9.4,10.2-9.1c5.9,0.2,9,7.9,9.6,9.1c2.3,5.8-1.5,17.7-9.4,17.1C268.3,126.8,268,129,264.5,124.4z"/>
			<path fill="#1C75BC" stroke="#000000" stroke-width="3.3382" stroke-miterlimit="10" d="M273.8,126.7c-3.6-0.3-4.9-0.8-5.1-5
				c-0.1-1.9,1-7,4.5-7s4.8,1.3,5,5.9C278.4,123.9,277.4,127,273.8,126.7z"/>
		</g>
		<path fill="none" stroke="#FFF200" stroke-width="3.3382" stroke-miterlimit="10" d="M319.7,80c5.2-1.7,15.7,0,23.4,8.9"/>
		<path fill="none" stroke="#FFF200" stroke-width="3.3382" stroke-miterlimit="10" d="M260,89.1c0-5,10.6-8.9,23.6-8.9"/>
		<line fill="none" stroke="#000000" stroke-width="3.3382" stroke-miterlimit="10" x1="325.7" y1="87.8" x2="325.7" y2="87.8"/>
		<g>
			<path fill="none" stroke="#A97C50" stroke-width="3.3382" stroke-miterlimit="10" d="M304.1,146.5c-0.6-0.4-4.5-2.8-8.8-1.3
				c-3.9,1.3-7.5,5.3-6.8,9.7c0.6,3.3,3.4,5.5,6,6.3c3.3,1,7.1,0,9.7-2.6"/>
		</g>
		<path fill="none" stroke="#BE1E2D" stroke-width="3.3382" stroke-miterlimit="10" d="M252.4,166.7c1.4-2.2,5.6-4.5,5.6-4.5
			s3.6,4.7,6.1,7.9c8.2,10.7,20.3,13.8,24.4,14.6c6.5,1.3,11.7,0.8,16.7,0.2c3.8-0.4,9.9-0.5,16.7-4c3.6-1.9,7.3-3.8,12.7-7.5
			c5.9-4.1,6.7-5.6,6.7-5.6c3.9-3.9,5.1-4.7,5.1-4.7s2.1,2.4,2.7,4"/>
		<path fill="#FFDE17" stroke="#FFE06A" stroke-width="3.3382" stroke-miterlimit="10" d="M223.7,99.1c-1.5-4.9-3-8.5-3.7-16.8
			c-0.5-6.1-1.1-13.6,0.7-23.4c1.7-8.6,3.1-16.2,9.1-23.1c4.5-5.1,10.1-8.1,12.5-9.5c3.2-1.8,5.9-2.8,11.3-4.8
			c4.9-1.8,8.4-2.8,7.9-2.1c-1.2,1.7-9.1,10.4-10.1,23.9c-0.2,2.8-0.5,8.5,3,13.4c3.2,4.3,7.7,5.3,7.4,7.1
			c-0.4,2.2-7.1,0.5-12.2,4.5c-1.6,1.3-2.5,2.6-5.9,13.1c-4.1,12.3-4,13.6-6.5,19.6c-1.3,3-4.2,9.5-4.2,9.5l0,0
			C233.1,110.5,226.5,108.7,223.7,99.1z"/>
		<path fill="#FFDE17" stroke="#FFE06A" stroke-width="3.3382" stroke-miterlimit="10" d="M277.1,8.3c4.2-2,11-4.8,21.4-6.5
			c8.3-1.4,20.7-3.4,35.3,0.3c6.5,1.6,28.1,7.1,38.2,24.8c7.2,12.6,4.2,16.1,7.1,34.5c0.7,4.3,17.6,9.1,11.9,35.9
			c-0.7,3.2-2.3,6.1-3.3,7.9c-3.1,6.2-9.9,16.6-13.4,15.4c-3.3-1,0.7-10.9-3.9-25.1c-1.1-3.5-4-12.1-11.9-19.6
			c-6.4-6.1-13.1-8.4-16.9-9.8c-7.4-2.6-10.2-1.8-31.2-2.7c-25.4-1-24.5-1.9-30.3-0.9c-6.9,1.2-8.7,1.3-15.2,1.2
			c-5.3,0-9.7-5.7-10.7-7.4c-5.1-9.5-1.5-20,0-24.3c1.2-3.4,3.7-9,8.8-14.6C268,12.7,272.6,10.5,277.1,8.3z"/>
		
			<use xlink:href="#Blond_Hair_4"  width="22.6" height="15.3" x="-11.3" y="-7.7" transform="matrix(4.8944 -0.8129 -0.4105 -2.4713 316.231 33.2642)" overflow="visible"/>
		
			<use xlink:href="#Blond_Hair_4"  width="22.6" height="15.3" x="-11.3" y="-7.7" transform="matrix(5.112 -0.849 -0.4344 -2.6157 318.77 55.8255)" overflow="visible"/>
		
			<use xlink:href="#Blond_Hair_1"  width="16.2" height="6.8" x="-8.1" y="-3.4" transform="matrix(1.4228 -1.8091 -1.4077 -1.107 233.9368 47.3826)" overflow="visible"/>
		
			<use xlink:href="#Blond_Hair_1"  width="16.2" height="6.8" x="-8.1" y="-3.4" transform="matrix(1.4228 -1.8091 -1.4077 -1.107 234.5257 66.2463)" overflow="visible"/>
	</g>
	<g id="Layer_2">
		<g>
			<g>
				<g>
					<path fill="#FFDE11" d="M402.7,261.2c0.4-2.2,3.4-5,4.9-5.4c1.8-0.5,2.4,0.3,2.6,0.1c0.4-0.4,0.1-0.1,0.1-1.8
						c-0.1-2.5,3.6-5,6.7-5.9c4-1.1,10.1-0.4,11.8,3.4c1,2.2,0,4.5-0.2,5.1c-1.4,3.1-4.9,4.4-7.5,4.4c-3.3,0-4-1.9-6.8-1.8
						c-3.1,0.2-8.5,1.9-9.7,4.2c-0.4,0.9,0,1.8-0.3,1.9C403.7,265.6,402.3,263.4,402.7,261.2L402.7,261.2z"/>
					<path fill="none" stroke="#231F20" stroke-width="0.3581" stroke-miterlimit="10" d="M402.7,261.2c0.4-2.2,3.4-5,4.9-5.4
						c1.8-0.5,2.4,0.3,2.6,0.1c0.4-0.4,0.1-0.1,0.1-1.8c-0.1-2.5,3.6-5,6.7-5.9c4-1.1,10.1-0.4,11.8,3.4c1,2.2,0,4.5-0.2,5.1
						c-1.4,3.1-4.9,4.4-7.5,4.4c-3.3,0-4-1.9-6.8-1.8c-3.1,0.2-8.5,1.9-9.7,4.2c-0.4,0.9,0,1.8-0.3,1.9
						C403.7,265.6,402.3,263.4,402.7,261.2L402.7,261.2z"/>
					<path fill="#FFDE11" d="M398.7,247.5c-1.8,1.5-1.7,4.7,0.3,6.1c1.7,1.2,4.3,0.8,5.5-0.9c1-1.5,0.7-3.4-0.4-4.7
						C402.8,246.4,400.2,246.2,398.7,247.5L398.7,247.5z"/>
					<path fill="none" stroke="#231F20" stroke-width="0.3581" stroke-miterlimit="10" d="M398.7,247.5c-1.8,1.5-1.7,4.7,0.3,6.1
						c1.7,1.2,4.3,0.8,5.5-0.9c1-1.5,0.7-3.4-0.4-4.7C402.8,246.4,400.2,246.2,398.7,247.5L398.7,247.5z"/>
					<path fill="#FFDE11" d="M368.4,262.6c-1.3-3,1.9-7.4,1.9-7.4c0.3-0.7,0.6-1.1,0.8-1.3c1.5-1.8,3.7-2.3,4.8-2.5
						c3.1-0.6,7-0.9,8.6-0.3c2.4,0.8,3.3,2.7,3.8,4.5c0.5,1.8-1.1,3.3-0.4,4.1c0.7,0.8,2.4-0.6,4.6,0.2c1.6,0.5,3.1,2,3.3,3.7
						c0.2,1.2-0.3,2.2-0.6,2.6C392.5,270.8,371,268.5,368.4,262.6L368.4,262.6z"/>
					<path fill="none" stroke="#231F20" stroke-width="0.3581" stroke-miterlimit="10" d="M368.4,262.6c-1.3-3,1.9-7.4,1.9-7.4
						c0.3-0.7,0.6-1.1,0.8-1.3c1.5-1.8,3.7-2.3,4.8-2.5c3.1-0.6,7-0.9,8.6-0.3c2.4,0.8,3.3,2.7,3.8,4.5c0.5,1.8-1.1,3.3-0.4,4.1
						c0.7,0.8,2.4-0.6,4.6,0.2c1.6,0.5,3.1,2,3.3,3.7c0.2,1.2-0.3,2.2-0.6,2.6C392.5,270.8,371,268.5,368.4,262.6L368.4,262.6z"/>
					<path fill="#FCEE23" d="M374.4,248.3c2.9-0.9,4.8,1.8,6.5,0.8c1.6-1,0.2-3.5,1.9-5.6c1.9-2.3,6.1-2.1,8.4-1.4
						c0.3,0.1,5.7,1.7,6.9,6.4c0.2,0.8,1.5,3.1,0.4,4.6c-1.4,1.9-4,1.1-5.2,3.1c-0.8,1.3-0.8,2.1-1.9,3.3c-0.1,0.1-1.8,0-2.5,0.4
						c-2,1.2,0.2-2.8-1.3-6c-1.6-3.4-7.8-2.2-8.2-2.2c-4.8,0.7-7.6,4.3-8.6,3.3c-0.4-0.4-0.3-1.1-0.1-2
						C370.8,251.1,372.3,248.9,374.4,248.3L374.4,248.3z"/>
					<path fill="none" stroke="#231F20" stroke-width="0.3581" stroke-miterlimit="10" d="M374.4,248.3c2.9-0.9,4.8,1.8,6.5,0.8
						c1.6-1,0.2-3.5,1.9-5.6c1.9-2.3,6.1-2.1,8.4-1.4c0.3,0.1,5.7,1.7,6.9,6.4c0.2,0.8,1.5,3.1,0.4,4.6c-1.4,1.9-4,1.1-5.2,3.1
						c-0.8,1.3-0.8,2.1-1.9,3.3c-0.1,0.1-1.8,0-2.5,0.4c-2,1.2,0.2-2.8-1.3-6c-1.6-3.4-7.8-2.2-8.2-2.2c-4.8,0.7-7.6,4.3-8.6,3.3
						c-0.4-0.4-0.3-1.1-0.1-2C370.8,251.1,372.3,248.9,374.4,248.3L374.4,248.3z"/>
					<path fill="#FFDE11" d="M368.8,251.3c-1.3-1.1-3.1,0.5-4.9-0.5c-1.5-0.9-2.2-3-1.9-4.8c0.4-2.6,2.8-4.8,5.4-4.6
						c2.1,0.2,3.4,1.9,3.6,2.2c0-0.9,0.1-2.6,1.3-4.2c0,0,0.4-0.5,0.8-0.9c1.6-1.6,4.6-2.4,7.4-2c2.4,0.4,6.6,2.1,7.1,5.4
						c0.5,3.6-3.6,7.2-7.2,7.5c-3,0.4-4.3-1.8-6.5-0.9c-3,1.3-3.4,6.9-4.1,6.7C369.4,255.5,370.2,252.5,368.8,251.3L368.8,251.3z"/>
					<path fill="none" stroke="#231F20" stroke-width="0.3581" stroke-miterlimit="10" d="M368.8,251.3c-1.3-1.1-3.1,0.5-4.9-0.5
						c-1.5-0.9-2.2-3-1.9-4.8c0.4-2.6,2.8-4.8,5.4-4.6c2.1,0.2,3.4,1.9,3.6,2.2c0-0.9,0.1-2.6,1.3-4.2c0,0,0.4-0.5,0.8-0.9
						c1.6-1.6,4.6-2.4,7.4-2c2.4,0.4,6.6,2.1,7.1,5.4c0.5,3.6-3.6,7.2-7.2,7.5c-3,0.4-4.3-1.8-6.5-0.9c-3,1.3-3.4,6.9-4.1,6.7
						C369.4,255.5,370.2,252.5,368.8,251.3L368.8,251.3z"/>
					<path fill="#FCEE23" d="M376.2,233c2.5-1,4.6,1.4,6.2,0.3c1.5-1,0.3-3.3,1.9-5.1c2-2.2,6.2-1.3,7-1.1c4.1,0.9,7.6,4.1,7.2,5.5
						c-0.6,1.7-6.8-0.7-10,2.8c-1.3,1.5-1,2.7-2.3,3.2c-2.2,0.9-4.1-2.4-7.6-2.2c-3.1,0.1-4.7,2.6-5.4,2.1
						C372.4,237.9,373.7,234,376.2,233L376.2,233z"/>
					<path fill="none" stroke="#231F20" stroke-width="0.3581" stroke-miterlimit="10" d="M376.2,233c2.5-1,4.6,1.4,6.2,0.3
						c1.5-1,0.3-3.3,1.9-5.1c2-2.2,6.2-1.3,7-1.1c4.1,0.9,7.6,4.1,7.2,5.5c-0.6,1.7-6.8-0.7-10,2.8c-1.3,1.5-1,2.7-2.3,3.2
						c-2.2,0.9-4.1-2.4-7.6-2.2c-3.1,0.1-4.7,2.6-5.4,2.1C372.4,237.9,373.7,234,376.2,233L376.2,233z"/>
					<path fill="#FFDE11" d="M387.3,241.6c1.6,1.6,3.6,0.2,6.1,1.9c1.9,1.3,1.4,2.5,3.3,3.7c2.3,1.4,4.9,1,5.7,0.9
						c1.1-0.2,3.8-0.6,5.3-2.9c0.8-1.3,1.5-4.3,0.6-5.2c-1.1-1-3.1,1.4-4.8,0.4c-2-1.2-0.6-4.6-3.2-7c-0.9-0.8-1.8-1.1-2.6-1.3
						c-4.1-1.2-10,0.5-11.3,4.5C385.9,238.1,386,240.3,387.3,241.6L387.3,241.6z"/>
					<path fill="none" stroke="#231F20" stroke-width="0.3581" stroke-miterlimit="10" d="M387.3,241.6c1.6,1.6,3.6,0.2,6.1,1.9
						c1.9,1.3,1.4,2.5,3.3,3.7c2.3,1.4,4.9,1,5.7,0.9c1.1-0.2,3.8-0.6,5.3-2.9c0.8-1.3,1.5-4.3,0.6-5.2c-1.1-1-3.1,1.4-4.8,0.4
						c-2-1.2-0.6-4.6-3.2-7c-0.9-0.8-1.8-1.1-2.6-1.3c-4.1-1.2-10,0.5-11.3,4.5C385.9,238.1,386,240.3,387.3,241.6L387.3,241.6z"/>
					<g>
						<g>
							<g>
								<defs>
									
										<rect id="SVGID_1_" x="318.4" y="243.3" transform="matrix(0.1063 -0.9943 0.9943 0.1063 53.6214 668.1285)" width="160.2" height="121.9"/>
								</defs>
								<clipPath id="SVGID_2_">
									<use xlink:href="#SVGID_1_"  overflow="visible"/>
								</clipPath>
								<path clip-path="url(#SVGID_2_)" fill="#F8ED34" d="M397.1,228.6c1.2-2.7,4.9-3.4,6.2-3.6c1.6-0.3,5.4-0.9,7.4,1.2
									c2.1,2.2,1,5.8,2.4,6.2c0.9,0.2,1.5-1.3,3.1-1.3c1.2,0,2.6,1,2.9,2.2c0.3,1.2-0.6,2.5-1.5,3.2c-2.6,2.1-6.2-0.3-8.4,1.9
									c-0.7,0.7-0.6,1.2-1.5,1.8c-1.2,0.7-3.2,0.9-4.4-0.1c-2-1.5-0.4-4.1-2.5-6.2c-1.5-1.5-3.1-1.1-3.8-2.6
									C396.4,230.1,397,228.9,397.1,228.6L397.1,228.6z"/>
							</g>
						</g>
						<g>
							<g>
								<defs>
									
										<rect id="SVGID_3_" x="318.4" y="243.3" transform="matrix(0.1063 -0.9943 0.9943 0.1063 53.6214 668.1285)" width="160.2" height="121.9"/>
								</defs>
								<clipPath id="SVGID_4_">
									<use xlink:href="#SVGID_3_"  overflow="visible"/>
								</clipPath>
								<path clip-path="url(#SVGID_4_)" fill="none" stroke="#231F20" stroke-width="0.3581" stroke-miterlimit="10" d="
									M397.1,228.6c1.2-2.7,4.9-3.4,6.2-3.6c1.6-0.3,5.4-0.9,7.4,1.2c2.1,2.2,1,5.8,2.4,6.2c0.9,0.2,1.5-1.3,3.1-1.3
									c1.2,0,2.6,1,2.9,2.2c0.3,1.2-0.6,2.5-1.5,3.2c-2.6,2.1-6.2-0.3-8.4,1.9c-0.7,0.7-0.6,1.2-1.5,1.8c-1.2,0.7-3.2,0.9-4.4-0.1
									c-2-1.5-0.4-4.1-2.5-6.2c-1.5-1.5-3.1-1.1-3.8-2.6C396.4,230.1,397,228.9,397.1,228.6L397.1,228.6z"/>
							</g>
						</g>
					</g>
					<path fill="#F8ED34" d="M394.4,267.6c1.2,1.9,8.7,1.2,9.5-0.6c0-0.1,0.7,0.5,0.7,0.1c-0.2-2.2-1.7-3.1-1.9-4.4
						c-0.2-1.7,1.1-3.7,2.3-4.8c1.8-1.6,3.1-1.7,3.1-2.5c0-1.1-2.5-2-4.4-2.3c-2-0.3-3.5,0.2-5.5,0.8c-2.5,0.8-3.7,1.1-4.7,2.3
						c-0.9,1.1-1.8,3.2-1,4.4c0.9,1.5,2.6,0.9,3.5,2.4C396.8,264.5,393.5,266.2,394.4,267.6L394.4,267.6z"/>
					<path fill="none" stroke="#231F20" stroke-width="0.3581" stroke-miterlimit="10" d="M394.4,267.6c1.2,1.9,8.7,1.2,9.5-0.6
						c0-0.1,0.7,0.5,0.7,0.1c-0.2-2.2-1.7-3.1-1.9-4.4c-0.2-1.7,1.1-3.7,2.3-4.8c1.8-1.6,3.1-1.7,3.1-2.5c0-1.1-2.5-2-4.4-2.3
						c-2-0.3-3.5,0.2-5.5,0.8c-2.5,0.8-3.7,1.1-4.7,2.3c-0.9,1.1-1.8,3.2-1,4.4c0.9,1.5,2.6,0.9,3.5,2.4
						C396.8,264.5,393.5,266.2,394.4,267.6L394.4,267.6z"/>
					<path fill="#FCEE23" d="M406.3,261.8c1.6-1.1,3.1-1.6,5.5-2c2.1-0.4,3.1-0.2,4.5-0.3c0.7-0.1,5.5,0.3,6,4.3
						c0,0.3,0.9,2.7-0.3,3.8c-1.2,1.2-3.2-0.4-7.4-0.7c-5.4-0.4-8.9,1.8-10,0.2c-0.4-0.6,0.1-1.3-0.2-2
						C403.7,263.5,405.6,262.3,406.3,261.8L406.3,261.8z"/>
					<path fill="none" stroke="#231F20" stroke-width="0.3581" stroke-miterlimit="10" d="M406.3,261.8c1.6-1.1,3.1-1.6,5.5-2
						c2.1-0.4,3.1-0.2,4.5-0.3c0.7-0.1,5.5,0.3,6,4.3c0,0.3,0.9,2.7-0.3,3.8c-1.2,1.2-3.2-0.4-7.4-0.7c-5.4-0.4-8.9,1.8-10,0.2
						c-0.4-0.6,0.1-1.3-0.2-2C403.7,263.5,405.6,262.3,406.3,261.8L406.3,261.8z"/>
					<path fill="#FFDE11" d="M420.3,267.8c0-0.5,1.6-1.4,2.2-1.5c2.2-0.6,4,0.7,4.2,0.8c0.8,0.6,3.5,2.8,3.1,3.4
						C428.9,271.7,420.1,269.1,420.3,267.8L420.3,267.8z"/>
					<path fill="none" stroke="#231F20" stroke-width="0.3581" stroke-miterlimit="10" d="M420.3,267.8c0-0.5,1.6-1.4,2.2-1.5
						c2.2-0.6,4,0.7,4.2,0.8c0.8,0.6,3.5,2.8,3.1,3.4C428.9,271.7,420.1,269.1,420.3,267.8L420.3,267.8z"/>
					<path fill="#FFDE11" d="M428.8,257.1c0.9-0.1,3.6-0.4,6.6,1.1c1.3,0.7,3.5,1.8,4.3,4c1.1,2.9-1,5.7,0.1,6.5
						c0.7,0.5,1.5-0.6,3.4-0.5c1.8,0.1,3.8,1.2,3.7,1.9c-0.1,1.6-9.4,3.8-17.2,0.7c-1.6-0.6-3-4.5-6.4-4.5c-2.3,0-2.4-2.6-2.1-4.4
						C422,258.9,426.3,257.4,428.8,257.1L428.8,257.1z"/>
					<path fill="none" stroke="#231F20" stroke-width="0.3581" stroke-miterlimit="10" d="M428.8,257.1c0.9-0.1,3.6-0.4,6.6,1.1
						c1.3,0.7,3.5,1.8,4.3,4c1.1,2.9-1,5.7,0.1,6.5c0.7,0.5,1.5-0.6,3.4-0.5c1.8,0.1,3.8,1.2,3.7,1.9c-0.1,1.6-9.4,3.8-17.2,0.7
						c-1.6-0.6-3-4.5-6.4-4.5c-2.3,0-2.4-2.6-2.1-4.4C422,258.9,426.3,257.4,428.8,257.1L428.8,257.1z"/>
					<path fill="#FFDE11" d="M430.2,244.6c1-1.2,7.7,1,8.8,5c0.6,2.3-1.1,3.7-0.1,5.8c1.1,2.1,3.5,1.5,4.6,3.5
						c1.2,2.3-0.1,6.2-2.5,7c-1.1,0.4-2.1,0-2.5-0.2c-3.2-1.3-2.5-5.1-5.7-7.5c-2.8-2.2-6.2-0.3-6.5-1.4c-0.4-1.5,4.5-3,5.8-5.6
						C433.6,248.5,429.4,245.6,430.2,244.6L430.2,244.6z"/>
					<path fill="none" stroke="#231F20" stroke-width="0.3581" stroke-miterlimit="10" d="M430.2,244.6c1-1.2,7.7,1,8.8,5
						c0.6,2.3-1.1,3.7-0.1,5.8c1.1,2.1,3.5,1.5,4.6,3.5c1.2,2.3-0.1,6.2-2.5,7c-1.1,0.4-2.1,0-2.5-0.2c-3.2-1.3-2.5-5.1-5.7-7.5
						c-2.8-2.2-6.2-0.3-6.5-1.4c-0.4-1.5,4.5-3,5.8-5.6C433.6,248.5,429.4,245.6,430.2,244.6L430.2,244.6z"/>
					<path fill="#FFDE11" d="M416.4,237.2c-0.5-1.6,3.1-4.5,5.3-5.5c4.2-2,8.7,0.6,9.7,1.1c1.2,0.8,4.1,2.5,4.4,5.2
						c0.3,2.6-1.7,4.6-0.9,5.5c0.6,0.6,1.6-0.4,3.1,0c2.3,0.7,3.1,4.1,3.3,6c0.1,1.7-0.8,6.6-1.4,6.9c-2.5,1.5-1.4-7.1-4-9.9
						c-1.4-1.5-2.7,0-5.7-1.4c-1.8-0.8-3.1,0-4.4,0.1c-1.9,0.1-1.9,0.5-2.7,0.2c-1-0.4,0.3-3.4-1.2-5.7
						C420.6,237.8,416.9,238.7,416.4,237.2L416.4,237.2z"/>
					<path fill="none" stroke="#231F20" stroke-width="0.3581" stroke-miterlimit="10" d="M416.4,237.2c-0.5-1.6,3.1-4.5,5.3-5.5
						c4.2-2,8.7,0.6,9.7,1.1c1.2,0.8,4.1,2.5,4.4,5.2c0.3,2.6-1.7,4.6-0.9,5.5c0.6,0.6,1.6-0.4,3.1,0c2.3,0.7,3.1,4.1,3.3,6
						c0.1,1.7-0.8,6.6-1.4,6.9c-2.5,1.5-1.4-7.1-4-9.9c-1.4-1.5-2.7,0-5.7-1.4c-1.8-0.8-3.1,0-4.4,0.1c-1.9,0.1-1.9,0.5-2.7,0.2
						c-1-0.4,0.3-3.4-1.2-5.7C420.6,237.8,416.9,238.7,416.4,237.2L416.4,237.2z"/>
					<path fill="#FCEE23" d="M440.1,256c0-1.3,0.2-5.2,1.3-5.6c2.5-0.9,6.6,2.6,7.7,3.3c2.7,1.5,6.2,4.8,5.6,7.6
						c-0.4,1.8-2,2.3-1.7,3.4c0.4,1.3,3.1,0.6,4.9,2.3c1.4,1.4,2.1,4.1,1.1,5.6c-2,3-11.6,1.7-13.9-2.3c-0.4-0.6-0.7-1.5-1.6-2
						c-1.9-1-3.3,1-4,0.1c-0.4-0.5-1-2-0.4-2.6c1.7-1.8,2.7-0.4,3.9-1.8c0.9-1.1,1.2-1.9,0.7-4C443.1,256.7,440.1,257.6,440.1,256
						L440.1,256z"/>
					<path fill="none" stroke="#231F20" stroke-width="0.3581" stroke-miterlimit="10" d="M440.1,256c0-1.3,0.2-5.2,1.3-5.6
						c2.5-0.9,6.6,2.6,7.7,3.3c2.7,1.5,6.2,4.8,5.6,7.6c-0.4,1.8-2,2.3-1.7,3.4c0.4,1.3,3.1,0.6,4.9,2.3c1.4,1.4,2.1,4.1,1.1,5.6
						c-2,3-11.6,1.7-13.9-2.3c-0.4-0.6-0.7-1.5-1.6-2c-1.9-1-3.3,1-4,0.1c-0.4-0.5-1-2-0.4-2.6c1.7-1.8,2.7-0.4,3.9-1.8
						c0.9-1.1,1.2-1.9,0.7-4C443.1,256.7,440.1,257.6,440.1,256L440.1,256z"/>
					<path fill="#FCEE23" d="M408.4,243.2c1.4-1.7-1-2.3,0.4-4.4c1.3-2,6.7-1.5,8.3-1.5c0.7,0,6.6,0.1,8,3.4c0.9,2-0.1,4.2,0.6,4.5
						c0.8,0.3,1.6-1.8,3.3-1.9c1.8-0.1,3.4,2.2,4,3.8c0.7,1.7,1.2,4.8-0.6,6.2c-0.8,0.6-2,0.9-3,0.6c-2.3-0.6-1.9-3.6-4.3-5.1
						c-2.7-1.6-8.5-1.3-11.6,0.4c-2.8,1.6-1.3,5.8-3.6,6.7c-1,0.4-2.1,0.1-2.6-0.1c-2.4-0.7-3.3-2.8-3.4-3.1c-0.7-1.7-0.7-4,0.6-5.3
						C406.4,245.6,407,244.8,408.4,243.2L408.4,243.2z"/>
					<path fill="none" stroke="#231F20" stroke-width="0.3581" stroke-miterlimit="10" d="M408.4,243.2c1.4-1.7-1-2.3,0.4-4.4
						c1.3-2,6.7-1.5,8.3-1.5c0.7,0,6.6,0.1,8,3.4c0.9,2-0.1,4.2,0.6,4.5c0.8,0.3,1.6-1.8,3.3-1.9c1.8-0.1,3.4,2.2,4,3.8
						c0.7,1.7,1.2,4.8-0.6,6.2c-0.8,0.6-2,0.9-3,0.6c-2.3-0.6-1.9-3.6-4.3-5.1c-2.7-1.6-8.5-1.3-11.6,0.4c-2.8,1.6-1.3,5.8-3.6,6.7
						c-1,0.4-2.1,0.1-2.6-0.1c-2.4-0.7-3.3-2.8-3.4-3.1c-0.7-1.7-0.7-4,0.6-5.3C406.4,245.6,407,244.8,408.4,243.2L408.4,243.2z"/>
					<path fill="#FCEE23" d="M343.9,261c-0.8-1.8,0.1-4.5,1.6-5.7c2.2-1.8,4.7,0.5,7.2-1.2s1.2-4.9,4.2-6.9c1.5-1.1,3.8-1.6,4.9-0.7
						c1.1,0.9,0.1,2.6,1.2,3.9c1.4,1.6,3.9-0.1,5.7,1.4c1.1,1,1.2,2.6,1.4,5.3c0.1,1.9,0.2,2.9-0.4,3.8c-1.2,1.9-4.2,2-6.1,2
						C351.3,263.1,344.9,263.1,343.9,261L343.9,261z"/>
					<g>
						<g>
							<g>
								<defs>
									
										<rect id="SVGID_5_" x="318.4" y="243.3" transform="matrix(0.1063 -0.9943 0.9943 0.1063 53.6214 668.1285)" width="160.2" height="121.9"/>
								</defs>
								<clipPath id="SVGID_6_">
									<use xlink:href="#SVGID_5_"  overflow="visible"/>
								</clipPath>
								<path clip-path="url(#SVGID_6_)" fill="none" stroke="#231F20" stroke-width="0.3581" stroke-miterlimit="10" d="M343.9,261
									c-0.8-1.8,0.1-4.5,1.6-5.7c2.2-1.8,4.7,0.5,7.2-1.2c2.5-1.7,1.2-4.9,4.2-6.9c1.5-1.1,3.8-1.6,4.9-0.7s0.1,2.6,1.2,3.9
									c1.4,1.6,3.9-0.1,5.7,1.4c1.1,1,1.2,2.6,1.4,5.3c0.1,1.9,0.2,2.9-0.4,3.8c-1.2,1.9-4.2,2-6.1,2
									C351.3,263.1,344.9,263.1,343.9,261L343.9,261z"/>
							</g>
						</g>
					</g>
					<path fill="#EC2227" d="M343.3,261.9l-1.9,39.5c0,0-3.2,53.1-5,75.2L442.6,388c4.3-20.2,10.8-59.8,10.8-59.8l8.1-53.6
						c0,0-10.5-2.4-14-2.5c-4.1-0.2-12.2,1.1-16.4,0.4c-4.4-0.7-11.9-3.6-17.2-4.2c-5.1-0.6-15.6,1.3-20.6,0.4
						c-4.2-0.8-12.3-4.8-16.5-5.1c-6-0.4-18.1,1.2-24,0.6C350.5,263.9,343.3,261.9,343.3,261.9L343.3,261.9z"/>
					<g>
						<g>
							<g>
								<defs>
									
										<rect id="SVGID_7_" x="318.4" y="243.3" transform="matrix(0.1063 -0.9943 0.9943 0.1063 53.6214 668.1285)" width="160.2" height="121.9"/>
								</defs>
								<clipPath id="SVGID_8_">
									<use xlink:href="#SVGID_7_"  overflow="visible"/>
								</clipPath>
								<path clip-path="url(#SVGID_8_)" fill="none" stroke="#EC2227" stroke-width="2.8656" stroke-miterlimit="10" d="
									M343.3,261.9l-1.9,39.5c0,0-3.2,53.1-5,75.2L442.6,388c4.3-20.2,10.8-59.8,10.8-59.8l8.1-53.6c0,0-10.5-2.4-14-2.5
									c-4.1-0.2-12.2,1.1-16.4,0.4c-4.4-0.7-11.9-3.6-17.2-4.2c-5.1-0.6-15.6,1.3-20.6,0.4c-4.2-0.8-12.3-4.8-16.5-5.1
									c-6-0.4-18.1,1.2-24,0.6C350.5,263.9,343.3,261.9,343.3,261.9L343.3,261.9z"/>
							</g>
						</g>
					</g>
					<polygon fill="#FFFFFF" points="341.7,378.3 335.4,377.7 347.2,262.9 353.9,264 					"/>
					<g>
						<g>
							<g>
								<defs>
									
										<rect id="SVGID_9_" x="318.4" y="243.3" transform="matrix(0.1063 -0.9943 0.9943 0.1063 53.6214 668.1285)" width="160.2" height="121.9"/>
								</defs>
								<clipPath id="SVGID_10_">
									<use xlink:href="#SVGID_9_"  overflow="visible"/>
								</clipPath>
								<polygon clip-path="url(#SVGID_10_)" fill="none" stroke="#FFFFFF" stroke-width="0.3581" stroke-miterlimit="10" points="
									341.7,378.3 335.4,377.7 347.2,262.9 353.9,264 								"/>
							</g>
						</g>
					</g>
					<polygon fill="#FFFFFF" points="353.9,379.6 347.7,378.9 359.9,264 366.4,263.8 					"/>
					<g>
						<g>
							<g>
								<defs>
									
										<rect id="SVGID_11_" x="318.4" y="243.3" transform="matrix(0.1063 -0.9943 0.9943 0.1063 53.6214 668.1285)" width="160.2" height="121.9"/>
								</defs>
								<clipPath id="SVGID_12_">
									<use xlink:href="#SVGID_11_"  overflow="visible"/>
								</clipPath>
								<polygon clip-path="url(#SVGID_12_)" fill="none" stroke="#FFFFFF" stroke-width="0.3581" stroke-miterlimit="10" points="
									353.9,379.6 347.7,378.9 359.9,264 366.4,263.8 								"/>
							</g>
						</g>
					</g>
					<polygon fill="#FFFFFF" points="366.3,380.9 359.8,380.2 372.3,263.5 378.7,263.7 					"/>
					<g>
						<g>
							<g>
								<defs>
									
										<rect id="SVGID_13_" x="318.4" y="243.3" transform="matrix(0.1063 -0.9943 0.9943 0.1063 53.6214 668.1285)" width="160.2" height="121.9"/>
								</defs>
								<clipPath id="SVGID_14_">
									<use xlink:href="#SVGID_13_"  overflow="visible"/>
								</clipPath>
								<polygon clip-path="url(#SVGID_14_)" fill="none" stroke="#FFFFFF" stroke-width="0.3581" stroke-miterlimit="10" points="
									366.3,380.9 359.8,380.2 372.3,263.5 378.7,263.7 								"/>
							</g>
						</g>
					</g>
					<polygon fill="#FFFFFF" points="378.4,382.2 372,381.6 384.4,265.7 390.6,267.9 					"/>
					<g>
						<g>
							<g>
								<defs>
									
										<rect id="SVGID_15_" x="318.4" y="243.3" transform="matrix(0.1063 -0.9943 0.9943 0.1063 53.6214 668.1285)" width="160.2" height="121.9"/>
								</defs>
								<clipPath id="SVGID_16_">
									<use xlink:href="#SVGID_15_"  overflow="visible"/>
								</clipPath>
								<polygon clip-path="url(#SVGID_16_)" fill="none" stroke="#FFFFFF" stroke-width="0.3581" stroke-miterlimit="10" points="
									378.4,382.2 372,381.6 384.4,265.7 390.6,267.9 								"/>
							</g>
						</g>
					</g>
					<polygon fill="#FFFFFF" points="390.3,383.6 384,382.9 396.2,268.9 402.9,268.1 					"/>
					<g>
						<g>
							<g>
								<defs>
									
										<rect id="SVGID_17_" x="318.4" y="243.3" transform="matrix(0.1063 -0.9943 0.9943 0.1063 53.6214 668.1285)" width="160.2" height="121.9"/>
								</defs>
								<clipPath id="SVGID_18_">
									<use xlink:href="#SVGID_17_"  overflow="visible"/>
								</clipPath>
								<polygon clip-path="url(#SVGID_18_)" fill="none" stroke="#FFFFFF" stroke-width="0.3581" stroke-miterlimit="10" points="
									390.3,383.6 384,382.9 396.2,268.9 402.9,268.1 								"/>
							</g>
						</g>
					</g>
					<polygon fill="#FFFFFF" points="402.7,384.9 396.4,384.3 408.5,268.3 415.1,268.4 					"/>
					<g>
						<g>
							<g>
								<defs>
									
										<rect id="SVGID_19_" x="318.4" y="243.3" transform="matrix(0.1063 -0.9943 0.9943 0.1063 53.6214 668.1285)" width="160.2" height="121.9"/>
								</defs>
								<clipPath id="SVGID_20_">
									<use xlink:href="#SVGID_19_"  overflow="visible"/>
								</clipPath>
								<polygon clip-path="url(#SVGID_20_)" fill="none" stroke="#FFFFFF" stroke-width="0.3581" stroke-miterlimit="10" points="
									402.7,384.9 396.4,384.3 408.5,268.3 415.1,268.4 								"/>
							</g>
						</g>
					</g>
					<polygon fill="#FFFFFF" points="415.1,386.2 408.8,385.5 421.2,269.8 427.4,271.5 					"/>
					<g>
						<g>
							<g>
								<defs>
									
										<rect id="SVGID_21_" x="318.4" y="243.3" transform="matrix(0.1063 -0.9943 0.9943 0.1063 53.6214 668.1285)" width="160.2" height="121.9"/>
								</defs>
								<clipPath id="SVGID_22_">
									<use xlink:href="#SVGID_21_"  overflow="visible"/>
								</clipPath>
								<polygon clip-path="url(#SVGID_22_)" fill="none" stroke="#FFFFFF" stroke-width="0.3581" stroke-miterlimit="10" points="
									415.1,386.2 408.8,385.5 421.2,269.8 427.4,271.5 								"/>
							</g>
						</g>
					</g>
					<polygon fill="#FFFFFF" points="427.6,387.5 421.3,386.8 433.4,272.7 439.9,272.5 					"/>
					<g>
						<g>
							<g>
								<defs>
									
										<rect id="SVGID_23_" x="318.4" y="243.3" transform="matrix(0.1063 -0.9943 0.9943 0.1063 53.6214 668.1285)" width="160.2" height="121.9"/>
								</defs>
								<clipPath id="SVGID_24_">
									<use xlink:href="#SVGID_23_"  overflow="visible"/>
								</clipPath>
								<polygon clip-path="url(#SVGID_24_)" fill="none" stroke="#FFFFFF" stroke-width="0.3581" stroke-miterlimit="10" points="
									427.6,387.5 421.3,386.8 433.4,272.7 439.9,272.5 								"/>
							</g>
						</g>
					</g>
					<polygon fill="#FFFFFF" points="439.8,388.9 433.4,388.2 445.8,272 452.1,272.8 					"/>
					<g>
						<g>
							<g>
								<defs>
									
										<rect id="SVGID_25_" x="318.4" y="243.3" transform="matrix(0.1063 -0.9943 0.9943 0.1063 53.6214 668.1285)" width="160.2" height="121.9"/>
								</defs>
								<clipPath id="SVGID_26_">
									<use xlink:href="#SVGID_25_"  overflow="visible"/>
								</clipPath>
								<polygon clip-path="url(#SVGID_26_)" fill="none" stroke="#FFFFFF" stroke-width="0.3581" stroke-miterlimit="10" points="
									439.8,388.9 433.4,388.2 445.8,272 452.1,272.8 								"/>
							</g>
						</g>
					</g>
					<polygon fill="#FFFFFF" points="453.8,330.6 447.3,367.2 457.4,273.7 461.5,274.5 					"/>
					<g>
						<g>
							<g>
								<defs>
									
										<rect id="SVGID_27_" x="318.4" y="243.3" transform="matrix(0.1063 -0.9943 0.9943 0.1063 53.6214 668.1285)" width="160.2" height="121.9"/>
								</defs>
								<clipPath id="SVGID_28_">
									<use xlink:href="#SVGID_27_"  overflow="visible"/>
								</clipPath>
								<polygon clip-path="url(#SVGID_28_)" fill="none" stroke="#FFFFFF" stroke-width="0.3581" stroke-miterlimit="10" points="
									453.8,330.6 447.3,367.2 457.4,273.7 461.5,274.5 								"/>
							</g>
						</g>
					</g>
					
						<text transform="matrix(0.9943 0.1063 -0.1063 0.9943 359.4212 298.6656)" fill="#231F20" font-family="'Monaco'" font-size="19.5689">POPCORN</text>
					<g>
						<g>
							<g>
								<defs>
									
										<rect id="SVGID_29_" x="318.4" y="243.3" transform="matrix(0.1063 -0.9943 0.9943 0.1063 53.6214 668.1285)" width="160.2" height="121.9"/>
								</defs>
								<clipPath id="SVGID_30_">
									<use xlink:href="#SVGID_29_"  overflow="visible"/>
								</clipPath>
								<g clip-path="url(#SVGID_30_)">
									
										<text transform="matrix(0.9943 0.1063 -0.1063 0.9943 359.4211 298.6661)" fill="none" stroke="#231F20" stroke-width="0.3563" stroke-miterlimit="10" font-family="'Monaco'" font-size="19.5689">POPCORN</text>
								</g>
							</g>
						</g>
					</g>
				</g>
			</g>
		</g>
	</g>
</g>
</svg>
