<?xml version="1.0" encoding="utf-8"?>
<!-- Generator: Adobe Illustrator 18.1.0, SVG Export Plug-In . SVG Version: 6.00 Build 0)  -->
<!DOCTYPE svg PUBLIC "-//W3C//DTD SVG 1.1//EN" "http://www.w3.org/Graphics/SVG/1.1/DTD/svg11.dtd">
<svg version="1.1" id="Layer_1" xmlns="http://www.w3.org/2000/svg" xmlns:xlink="http://www.w3.org/1999/xlink" x="0px" y="0px"
	 viewBox="0 0 503.3 611" enable-background="new 0 0 503.3 611" xml:space="preserve">
<symbol  id="Blond_Hair_1" viewBox="-8.1 -3.4 16.2 6.8">
	<g>
		<g>
			<path fill="#FAF069" d="M-8.1,2.5c0,0,10.4-0.9,16.2-5.9C3.6,2-5.5,4.9-8.1,2.5z"/>
		</g>
	</g>
</symbol>
<symbol  id="Blond_Hair_4" viewBox="-11.3 -7.7 22.7 15.4">
	<g>
		<path fill="#FAF069" d="M-11.3,7c0,0,5.6,2.6,10.6-1.9c5-4.6,5.8-10.2,12-12.7C4.7-6.5,2.2,0.9-1,4C-6.1,8.9-10.8,7-11.3,7z"/>
	</g>
</symbol>
<path fill="#FFF200" stroke="#000000" stroke-width="3.3318" stroke-miterlimit="10" d="M340.6,461.3c6.9,6.6,14.2-10.2,30.1-16.8
	c15.8-6.6,20.1,2,33.6-3.5c19.3-7.9,13.2-26.6,35.5-41.3c3.8-2.5,15.4-6.9,38.6-15.6c19.2-7.2,22-7.7,23.1-10.8
	c3.8-11.3-27.1-22.3-59.5-59.8c-18.7-21.6-17-28-35.6-44.2c-12-10.5-22.6-16.5-43.8-28.6c-16.9-9.6-29-15-43.2-18.5
	c-8.3-2-24.9-2-24.9-2s8,6.8,24.6,17.8c24,15.9-11.1,19.4-18.1,40.3c-6.5,19.4-8.2,35-6.5,44.9c0.9,5.1,21.2,51.8,22.1,56.2
	c1.3,6.2,9.8,20.4,12,49.5c0.5,6.9,1.4,14.2,3.4,22.6C333,456.1,336.5,457.4,340.6,461.3z"/>
<path fill="#27AAE1" stroke="#000000" stroke-width="3.3318" stroke-miterlimit="10" d="M264.6,217.4c3.8-3.1,9.4-2.1,18-0.5
	c4.2,0.8,10.5,1.4,17.4,2.6c11.5,2,18.3,4.4,29.1-0.1c12.2-5,29.4-17.2,40.5-24c0.2-0.1,11.2-21.6,19-28.4c3.2-2.8,5.8,7.4,10,10.2
	c3.5,2.2,13.9,5.9,15.3,7.6c0,0-1.7,1-3.9,3.5c-3.4,3.7-11.1,16.1-15,19.9c-3.3,3.1-12.2,14.3-14.2,17.1
	c-3.8,5.2-12.8,8.7-18.9,11.7c-4.9,2.4-18.4,8.5-26.1,11.4c-4.5,1.7-22,22.4-23.5,23.9c-2.1,2.1-3.1,7-8,17.1
	c-3.1,6.4-4.1,6.7-5.8,12c-1.5,4.6-0.2,24.6,0.7,27.5c0,0,0.3,1,2.7,9.4l1.6,5.7c-0.8,2.1-7.6-0.1-18,0.5
	c-10.5,0.7-11.7,2.7-16.8,1.6c-5.7-1.3-6.2-3.7-12.9-6c-5.6-1.9-12.7-1.4-14.5-0.8c-5.6,1.6-6.3,3.3-12.8,5.6
	c-1.9,0.7-0.8-0.1-5.9,0.8c-8.6,1.4-13.9,1.6-19.1,1.1c-4.7-0.5-5.4-1.2-5.7-1.5c-2.5-3,0.3-8,2.3-18c0.6-3.2,2.6-10.6,0-19.7
	c-1-3.5-3.9-6.7-8.7-15.1c-5.8-10-5.1-10.3-6.9-15.5c-1-2.8-1.2-2.7-9.8-10.8c-8.5-8-7.9-6.9-12.4-11.7c-4-4.3-12.7-14.9-19.6-14.6
	c-3.4,0.1-39.8-8.9-44.9-14.2c-2.8-2.9-22.1-31.2-22.8-32.4c-4.3-6.7,1.3-11.8,2.9-13.1c5.8-5.1,7.3-4.4,11.4-8.9
	c4.6-5.1,6.2-11.4,8.5-5.7c1.1,2.6,16.7,34.2,21.5,36.4c8.7,4,49.2,17.2,53.9,18.6c10.5,3.1,15.5,5.2,25.2,2.7c3.9-1,7.7-3,16.2-4.9
	c10.1-2.4,11.9-1.7,12.9-0.9c3.7,2.6,0.9,7.6,4.8,12.2c4,4.7,11.1,4.7,13.6,4.7c2.7,0,8.3,0,12.3-3.7
	C263.1,226,260.3,220.9,264.6,217.4z"/>
<path fill="#F7941E" stroke="#000000" stroke-width="3.3318" stroke-miterlimit="10" d="M303.9,344.5c1.3,4.1,2.7,8.1,4,12.2
	l-36.5,2l-4.7-13.3L303.9,344.5z"/>
<polygon fill="#F7941E" stroke="#000000" stroke-width="3.3318" stroke-miterlimit="10" points="225.8,348.4 226.7,363.3 
	193.4,362.9 196.6,349.2 "/>
<path fill="#ED1C24" stroke="#000000" stroke-width="3.3318" stroke-miterlimit="10" d="M265.8,347.7c0.5,0.8,4.7,7.6,1.9,14.5
	c-3.6,8.9-15.7,9.8-18,10c-2.7,0.2-15.8,0.7-21.3-9c-0.2-0.4-4.3-7.9-0.8-15.2c4.9-10.2,19.8-9.2,21.5-9
	C251.7,339.3,260.9,340,265.8,347.7z"/>
<path fill="#FFFFFF" stroke="#000000" stroke-width="3.3318" stroke-miterlimit="10" d="M256.9,350.4c2.3,3.1,2.2,7.7,0,10.7
	c-3.5,4.8-11.4,4.3-15.7,0.9c-2.4-1.9-5.1-5.8-3.9-9.4c1.2-3.5,5.7-4.5,7.6-4.9C246.6,347.3,253.5,345.8,256.9,350.4z"/>
<path fill="#27AAE1" stroke="#000000" stroke-width="3.3318" stroke-miterlimit="10" d="M308,358.9c0,0,3.9,9.3,7.6,19.9
	c0.6,1.8,3.1,9.7,4.7,14.4c9.8,28.4,9.3,57.5,12.6,60.2c4.4,3.6,5.1,6.5,6.5,11.9c1.8,6.6,2,10.2,2.5,16.2c0.3,3.1,1.8,5.2,1.5,7.2
	c-0.4,2.9-5,4.4-8.1,5.5c-1.7,0.6-9.3,2.1-15.2,2.1c-6.4,0-14.2-2.6-14.2-2.6l-0.1-2.2c0,0-1.1-7.6-2.6-11.2
	c-4.6-11-10.2-18.2-17.9-26.1c-23.9-24.8-26.1-38.6-31.2-40.1c0,0-8.5,14.4-32.1,46.3c-7.2,9.7-12.9,16.3-12.7,26
	c0.2,5.7,2.3,11.1-0.9,14.7c-0.7,0.8-2,1.9-10.5,2.8c-15.3,1.7-20-0.8-21.5-1.6c-1.6-0.9-4.5-2.7-4.8-5.4c-0.3-2.5-0.8-4.6-0.4-7.8
	c0.8-7.8,0.2-9.9,3.9-16.9c1.6-3.1,2.7-7.3,4.1-11c3.2-8-1.9-29.7,1.5-50.9c1.9-11.7-0.7-20.9,2.8-24.7c6.1-6.7,9.9-20.6,9.9-20.6
	s29.8-2.9,33.1-0.9c8.6,5.4,7.6,8.8,23,8c13.4-0.7,18-10,21.7-11.2C283,357,308,358.9,308,358.9z"/>
<path stroke="#000000" stroke-width="3.3318" stroke-miterlimit="10" d="M348.4,500.9c-0.4-5.4-0.3-9.9-2.9-11.1
	c-1.4-0.6-2.7,0.1-6.1,1.5c-4,1.5-8.1,3.1-12.2,3.5c-6.7,0.6-19.2-0.2-20.2,1.1c-3.4,4.5,4.9,16.6,10.9,25.3
	c8.8,12.7,11.3,12.6,12.9,19c1.4,5.8-0.3,7.1,1.1,20.2c1,9.5,2.3,12.1,3,13.3c1.2,2.2,3,4.7,11.9,11.2c9,6.6,13.5,9.9,17.5,10.9
	c1.1,0.3,14.1,3.4,22.9-4.1c1.4-1.2,4-3.5,4.7-7c0.2-1.4,0.7-5.6-7-14.3c-7.8-8.8-12.6-9.1-22.4-19.1c-3.8-3.8-5.8-5.8-7.2-8.6
	c-3.3-6.4-1.3-9.5-2.9-22.4C350.9,508.9,349.2,510.9,348.4,500.9z"/>
<path stroke="#000000" stroke-width="3.3318" stroke-miterlimit="10" d="M204.1,517.7c2.6-5.7,7.1-15.6,4.1-18.2
	c-1.5-1.3-3.6,0.2-10.6,1.7c-7.6,1.6-15.7,3.3-21.4-0.5c-3.6-2.5-3.8-5.5-5.4-5.3c-4.3,0.6-4.6,24.1-4.6,29
	c-0.3,20.4,2.4,21.5-0.1,28.7c-1.9,5.2-3.6,5.5-20.1,24.2c-11.8,13.4-14.5,17.3-13.5,21.6c1.5,6.1,9.7,8.8,11.8,9.5
	c9.8,3.2,18.6-1.4,20.1-2.2c5.1-2.8,4.4-4.7,15-14.9c7.7-7.5,8.5-6.8,9.6-9.5c2.2-5.4-0.2-8.8-0.7-22.5c-0.1-4.4-0.2-6.5,0.1-9
	C189.7,538,196.5,534.3,204.1,517.7z"/>
<path fill="#FFF200" stroke="#000000" stroke-width="3.3318" stroke-miterlimit="10" d="M150.8,244.2c0,0-2.7,3.4-11.3,9.6
	c-7.2,5.2-22.1,18-34.5,39c-11.7,19.8-9.5,27.6-24.4,49.2c-11.5,16.6-19.4,21.5-22.4,23.2c-12.2,6.9-25.9,8.3-32.8,8.5
	c-14.4,0.5-19.7-3.3-22.5,0.1c-4.9,5.9,4.4,25.9,18.9,37.8c7.4,6.1,17.8,10.5,38.8,19.3c11.1,4.7,10,3.7,13.2,5.5
	c19.5,10.5,17.9,23,32.7,32c12.8,7.8,14.5,9.6,39.8,8c14.9-0.9,24.3,9,26.7,5.3c0.5-0.8,1.3-1,3.3-5.7c2.5-5.8,3.8-9.8,6.1-15.6
	c2.1-5.2-5.4-23.4-0.7-48.4c2.1-11.1,4.8-22.7,8.4-31.9c5.4-13.9,1.3-3.6,5.4-13.9c3.1-7.8,6.2-34.1,8.4-39.7
	c5.8-14.9-12.5-41.9-16.3-47c-1.3-1.7-15.3-14.4-26.3-24.6C157.3,250.9,152.2,245.6,150.8,244.2z"/>
<path fill="#FFF200" stroke="#000000" stroke-width="3.3318" stroke-miterlimit="10" d="M212.6,478.4c1.5,1.4,26.8-10.8,43.5-10.8
	c25.1,0,43.2,11.2,45.3,8.2c2.3-3.3-9.8-10.2-24.3-29.2c-6.8-8.8-20.3-32.6-23-32.5c-2.4,0.1-12.6,19.1-23.2,33.5
	C220.2,462.4,211.5,477.3,212.6,478.4z"/>
<path fill="#F3D9CC" stroke="#F3D9CC" stroke-width="3.3318" stroke-miterlimit="10" d="M239.6,223c0,0-1.8-16.7-3.4-26.5
	c0,0-8.4,4.8-31.1-2.5c-2.7-0.9-11.9-2.2-23.1-12.4c-5.1-4.7-6.4-11.4-7.6-15.9c-2.6-9.2,0.1-10.2-0.2-21.7c0,0,2.3-0.8-3.9-5.5
	c-0.8-0.6-4.7-0.3-5.5,0.2c-2,1.1-5.7,2.6-9.7,1.6c-6-1.5-8.6-7.4-10-10.8c-1.1-2.6-4.4-10.2-0.8-14.1c2.7-2.9,7.9-2.6,11.3-1.6
	c10.4,3.1,12.7,15.9,15.9,15.2c2.7-0.6-1-5.8,1.7-20.9c0.8-4.3,0.3-5.3,4.5-14.2c2.9-6.2,6.1-14.2,11.5-17.9
	c5.7-3.9,11.2-7.9,26.7-9.9c17.1-2.2,19.9-1.3,38.9-3.2c8-0.8,19.7-1.4,36.9,5.4c6.4,2.5,11.9,27.2,14.5,30.3
	c9.4,11.4,0.7,14.7,1.8,17.8c0,0.1,0.1,0.1,0.1,0.1c0.8,0.3,3.4-4,7.1-7c1.1-0.8,4.8-3.8,9.9-4.1c3.4-0.2,9.3,0.6,11.6,4.1
	c5.3,8.4-3.7,17.2-13.9,23.3c-10.6,6.3-5,31.7-9.2,40.8c-3.4,7.4-8.1,13.3-20.4,18.3c-14.7,6-28.6,7.9-34.9,5c0,0,0,0,0,0
	c-5,9.6,0.1,18.7,0.1,18.7c0.1,1.1,0.2,2.9,0.4,5.2c-1.3,1.2-3.6,2.8-6.9,3.9c-0.9,0.3-2,0.5-3.3,0.6
	C243.4,225.7,239.6,223,239.6,223z"/>
<path fill="none" stroke="#C49A6C" stroke-width="3.3318" stroke-miterlimit="10" d="M161.6,130.3c0.5-0.8-1.5-3.5-4.2-4.7
	c-3-1.3-6.7-0.6-6.8,0.4C150.3,127.7,160.7,131.8,161.6,130.3z"/>
<path fill="none" stroke="#C49A6C" stroke-width="3.3318" stroke-miterlimit="10" d="M314.7,124c-0.5-0.8,2.9-4.1,6.9-5.5
	c3.4-1.2,7.7-1.3,7.9-0.4C329.8,119.7,315.5,125.4,314.7,124z"/>
<g>
	<path fill="#FFFFFF" stroke="#000000" stroke-width="3.3318" stroke-miterlimit="10" d="M226.1,132.2c-3,2-6.2-2.8-14.5-2.3
		c-7.8,0.4-10.7,4.8-13.2,3.1c-3.2-2.2-0.8-10.7,2-20.7c2.2-8,4.3-11.4,7.5-13.8c1.3-1,3.8-2.9,6.7-2.4c1.4,0.2,4.6,1.2,8.5,10.5
		C223.7,108.3,231.9,128.4,226.1,132.2z"/>
	<path fill="#2E3192" stroke="#000000" stroke-width="3.3318" stroke-miterlimit="10" d="M221.2,127c4.2-6.2,1.1-13.3,0.6-14.4
		c-0.2-0.5-4.3-9.2-10.8-8.7c-5.9,0.5-8.7,8.5-9.1,9.8c-2,5.9,2.5,17.6,10.3,16.6C217.6,129.6,218,131.8,221.2,127z"/>
	<path fill="#27AAE1" stroke="#000000" stroke-width="3.3318" stroke-miterlimit="10" d="M212.1,129.8c3.6-0.5,4.9-1.1,4.8-5.3
		c0-1.9-1.4-6.9-4.9-6.7c-3.5,0.2-4.7,1.5-4.7,6.2C207.3,127.2,208.5,130.3,212.1,129.8z"/>
</g>
<g>
	<path fill="#FFFFFF" stroke="#000000" stroke-width="3.3318" stroke-miterlimit="10" d="M285.8,129c-3,2-6.2-2.8-14.5-2.3
		c-7.8,0.4-10.7,4.8-13.2,3.1c-3.2-2.2-0.8-10.7,2-20.7c2.2-8,4.3-11.4,7.5-13.8c1.3-1,3.8-2.9,6.7-2.4c1.4,0.2,4.5,1.2,8.5,10.5
		C283.4,105,291.7,125.1,285.8,129z"/>
	<path fill="#2E3192" stroke="#000000" stroke-width="3.3318" stroke-miterlimit="10" d="M280.9,123.8c4.2-6.2,1.1-13.3,0.6-14.4
		c-0.2-0.5-4.3-9.2-10.8-8.7c-5.9,0.5-8.7,8.5-9.1,9.8c-2,5.9,2.5,17.6,10.3,16.6C277.3,126.3,277.7,128.5,280.9,123.8z"/>
	<path fill="#27AAE1" stroke="#000000" stroke-width="3.3318" stroke-miterlimit="10" d="M271.8,126.6c3.6-0.5,4.9-1.1,4.8-5.3
		c0-1.9-1.4-6.9-4.9-6.7c-3.5,0.2-4.7,1.5-4.7,6.2C267,124,268.2,127.1,271.8,126.6z"/>
</g>
<path fill="none" stroke="#FFDE17" stroke-width="3.3318" stroke-miterlimit="10" d="M223.2,82.2c-5.3-1.4-15.7,0.9-23,10.3"/>
<path fill="none" stroke="#FFDE17" stroke-width="3.3318" stroke-miterlimit="10" d="M283.6,88c-0.3-5-11.1-8.5-24.2-7.8"/>
<line fill="none" stroke="#000000" stroke-width="3.3318" stroke-miterlimit="10" x1="218" y1="97" x2="218" y2="97"/>
<g>
	<path fill="none" stroke="#C49A6C" stroke-width="3.3318" stroke-miterlimit="10" d="M252,148c-0.6-0.4-4.4-3-8.9-1.8
		c-3.9,1.1-7.9,4.9-7.4,9.4c0.4,3.3,3.1,5.7,5.7,6.6c3.3,1.2,7.1,0.4,9.9-2.1"/>
</g>
<path fill="none" stroke="#BE1E2D" stroke-width="3.3318" stroke-miterlimit="10" d="M295.4,165.5c-1.6-2.2-5.9-4.2-5.9-4.2
	s-3.3,4.9-5.6,8.3c-7.7,11.2-19.6,14.9-23.8,16c-6.5,1.7-11.7,1.4-16.7,1.1c-3.9-0.2-10,0-16.9-3.1c-3.7-1.7-7.5-3.4-13.1-6.8
	c-6.1-3.8-7-5.3-7-5.3c-4.2-3.7-5.4-4.4-5.4-4.4s-2,2.5-2.5,4.2"/>
<path fill="#FFDE17" stroke="#F9ED32" stroke-width="3.3318" stroke-miterlimit="10" d="M320.6,96.1c1.2-5,2.6-8.8,2.8-17.1
	c0.2-6.1,0.4-13.7-2-23.5c-2.1-8.6-4-16.1-10.5-22.7c-4.8-4.9-10.5-7.6-13-8.8c-3.3-1.6-6.1-2.4-11.6-4.1c-5-1.6-8.7-2.3-8.1-1.6
	c1.3,1.7,9.8,10,11.4,23.6c0.3,2.8,1,8.6-2.2,13.6c-3,4.5-7.5,5.8-7.1,7.5c0.5,2.1,7.1,0.1,12.4,3.8c1.7,1.2,2.6,2.5,6.7,12.8
	c4.8,12.2,4.7,13.4,7.6,19.3c1.4,3,4.7,9.3,4.7,9.3v0C311.7,108,318.2,105.8,320.6,96.1z"/>
<path fill="#FFDE17" stroke="#F9ED32" stroke-width="3.3318" stroke-miterlimit="10" d="M262.1,8c-4.3-1.8-11.3-4.2-21.8-5.4
	c-8.5-0.9-20.9-2.3-35.4,2.2c-6.5,2-27.8,8.6-37,27.1c-6.5,13-3.3,16.4-5.3,34.9c-0.5,4.3-17.2,10.1-10,36.7c0.9,3.1,2.6,6,3.7,7.9
	c3.5,6.1,10.8,16,14.2,14.7c3.2-1.2-1.3-10.9,2.5-25.5c0.9-3.5,3.3-12.4,10.8-20.3c6.1-6.4,12.7-9.2,16.4-10.7
	c7.2-3,10.1-2.4,31.1-4.4c25.5-2.4,24.6-3.2,30.3-2.5c7,0.8,8.9,0.8,15.3,0.4c5.3-0.3,9.4-6.2,10.3-8c4.6-9.8,0.4-20.1-1.3-24.4
	c-1.3-3.3-4.2-8.9-9.7-14.1C271.4,12,266.7,9.9,262.1,8z"/>
<use xlink:href="#Blond_Hair_4"  width="22.7" height="15.4" x="-11.3" y="-7.7" transform="matrix(-4.9527 -0.5491 0.2772 -2.5008 223.0651 36.7293)" overflow="visible"/>
<use xlink:href="#Blond_Hair_4"  width="22.7" height="15.4" x="-11.3" y="-7.7" transform="matrix(-5.1729 -0.5735 0.2934 -2.6469 221.7571 59.4959)" overflow="visible"/>
<use xlink:href="#Blond_Hair_1"  width="16.2" height="6.8" x="-8.1" y="-3.4" transform="matrix(-1.5259 -1.7376 1.3519 -1.1872 306.1333 46.5135)" overflow="visible"/>
<use xlink:href="#Blond_Hair_1"  width="16.2" height="6.8" x="-8.1" y="-3.4" transform="matrix(-1.5259 -1.7376 1.3519 -1.1872 306.5686 65.4705)" overflow="visible"/>
<g>
	<path fill="#2E3192" stroke="#000000" stroke-width="3.3318" stroke-miterlimit="10" d="M70.3,185c-13.9-7.7-9.5-51.8-31.4-53.7
		c-12.2-1-14.5-4-14.4-4.6c0.1-0.5,14.3,0,13.8-4.6c-0.4-4.3-15.4-3.8-15.4-3.2c0,0.6,15-1.3,14.7-5.5c-0.3-3.7-16.5-1-16.5-1.1
		c0-0.1,15.9-3.7,15.7-5.6c-0.3-3-16.7-2-16.7-2.2c0-0.2,15.7-0.4,15.9-2.4c0.5-3.8-17.1-6.8-16.6-6.7c0.3,0,11.4,4.3,13.7,1.2
		c2.2-2.9-3.5-9.9-2.8-14c0.4-2.3,5.4-3.8,7.1-1.4c2.3,3.3,4.2,8.2,4.4,10.6c0.4,5.3,2,10.8,18.8,31c29.3,35,42.3,41.1,40,50.3
		C98.3,182.8,80,190.4,70.3,185z"/>
	<path fill="none" stroke="#000000" stroke-width="3.3318" stroke-miterlimit="10" d="M19.5,95.3c0.1,3.2,0.3,6.3,0.5,9.2
		c0.2,2.9,0.5,5.6,0.8,8c0.3,2.5,0.6,4.8,1,6.7c0.8,4.7,1.8,7.6,2.7,7.5"/>
	<g>
		<g>
			<path d="M20.5,98c0,2-0.4,4.9,2,5c1.2,0.1,1.7-0.1,2.8,0.1c0.9,0.2,1.8,0.3,2.7,0.3c1.8-0.1,3.5-0.6,5.2-1.2
				c0.8-0.3,0.8-1.4,0-1.6c-2.1-0.6-4.2-1.5-6.3-2.2c-1.4-0.5-3.2-1.3-4.7-1.1c-0.3,0-0.5,0.3-0.6,0.6c-0.3,1.2-0.5,3.1,1,3.4
				c0.7,0.1,1.4,0,2.1,0.2c0.7,0.2,1.3,0.5,2,0.7c1.1,0.3,2,0.4,3.1,0.3c0.9-0.1,0.7-1.4,0-1.6c-2.3-0.8-4.5-1.7-6.9-1.9
				c-1.1-0.1-1.1,1.6,0,1.7c2.2,0.2,4.4,1.1,6.5,1.9c0-0.5,0-1.1,0-1.6c-1.8,0.3-3.2-0.8-4.9-1.1c-0.4-0.1-1,0.1-1.2-0.1
				c-0.6-0.4,0-0.4,0.5-0.4c1.2-0.1,3.1,1,4.3,1.4c1.6,0.6,3.1,1.2,4.7,1.7c0-0.5,0-1.1,0-1.6c-1.3,0.5-2.6,0.9-4,1
				c-1.7,0.2-3-0.3-4.6-0.5c-0.7-0.1-1.4,0.2-2,0.2c-0.5,0,0.3,0.1,0.2,0.1c-0.3-0.4-0.2-2.7-0.2-3.4C22.1,96.9,20.5,96.9,20.5,98
				L20.5,98z"/>
		</g>
	</g>
	<g>
		<g>
			<path d="M21,106.6c0.2,1.4,0.3,2.9,0.5,4.3c0.1,0.7,1.2,1.3,1.6,0.4c0.7-1.5,3.8-1.6,5.1-1.9c1.7-0.4,3.3-1,4.9-1.5
				c0.6-0.2,0.8-0.9,0.4-1.4c-1.6-1.6-3.8-1.2-5.9-1.1c-1.3,0.1-5.1-0.5-5.6,1.2c-0.3,1.1,0.5,2.5,1.6,2.5c1.3,0,2.7-0.5,4-0.5
				c1.4,0,2.7-0.1,4.1-0.5c1-0.3,0.6-1.9-0.4-1.6c-1.6,0.5-3.1,0.4-4.7,0.4c-0.8,0-2.6,0.4-2.9,0.4c2.3,0,6.9-1.5,8.7,0.4
				c0.1-0.5,0.2-0.9,0.4-1.4c-2.4,0.8-4.7,1.6-7.2,2.1c-1.6,0.3-3.1,0.5-3.8,2.2c0.5,0.1,1,0.3,1.6,0.4c-0.2-1.4-0.3-2.9-0.5-4.3
				C22.6,105.5,20.9,105.5,21,106.6L21,106.6z"/>
		</g>
	</g>
	<g>
		<g>
			<path d="M26.1,107.7c0.8,0,1.7-0.2,2.5-0.1c0.6,0.1,1,0.5,1.5,0.7c1.1,0.3,3.4,0.1,4.5-0.3c0.4-0.1,0.6-0.4,0.6-0.8
				c0,0,0-0.1,0-0.1c0-0.3-0.2-0.6-0.4-0.7c0,0-0.1,0-0.1-0.1c-0.9-0.5-1.8,0.9-0.8,1.4c0,0,0.1,0,0.1,0.1c-0.1-0.2-0.3-0.5-0.4-0.7
				c0,0,0,0.1,0,0.1c0.2-0.3,0.4-0.5,0.6-0.8c-0.7,0.3-1.7,0.2-2.4,0.3c-0.9,0.1-1.1,0-1.8-0.4c-1.1-0.5-2.6-0.2-3.8-0.1
				C25.1,106.1,25.1,107.7,26.1,107.7L26.1,107.7z"/>
		</g>
	</g>
	<g>
		<g>
			<path d="M22.5,109.9c0.4,0,0.8,0,1.2,0c1.1,0,1.1-1.7,0-1.7c-0.4,0-0.8,0-1.2,0C21.4,108.3,21.4,109.9,22.5,109.9L22.5,109.9z"/>
		</g>
	</g>
	<g>
		<g>
			<path d="M22.3,114.9c4.5-0.2,9.1-0.4,13.6-0.6c-0.1-0.5-0.1-1.1-0.2-1.6c-2.8,0.9-5.5,1.8-8.3,2.8c-0.7,0.2-1.4,0.4-2,0.7
				c-0.3,0.1-0.6,0.2-0.8,0.4c-0.3,0.4-0.4,0.3-0.4-0.2c0-0.3-0.1-0.5-0.3-0.5c-0.4-0.2-0.3-0.2,0.3-0.1c0.5-0.2,2.1,0,2.6,0
				c1.1-0.1,2.2-0.2,3.3-0.3c0.4-0.1,2.6-0.5,2.7-0.4c-0.2-0.3-1.6-0.1-1.9-0.1c-0.8,0.1-1.5,0.4-2.2,0.7c-0.5,0.2-1.1,0.6-1.6,0.8
				c-0.5,0.4-1,0.4-1.6-0.1c-0.8,0-1.1-0.2-1-0.8c0.2,0.5,0.4,0.9,0.6,1.4c0.1-0.1,0.3-0.1,0.4-0.2c1.1-0.1,1.1-1.8,0-1.7
				c-0.8,0.1-1,0.2-1.6,0.7c-0.6,0.5,0,1.4,0.6,1.4c1.6,0.2,2.1-1.9,0.7-2.7c-1.6-0.9-2.6,0.6-2.3,2c0.4,2.5,2.8,2.2,4.7,1.4
				c0.7-0.3,1.4-0.7,2.2-1c1-0.4,2-0.2,3-0.5c0.7-0.2,1.7-0.5,2-1.3c0.9-2.2-2-1.8-3.2-1.7c-2.3,0.3-4.6,0.6-7,0.6
				c-0.9,0-1.8-0.2-2.3,0.6c-0.6,1,0.2,3.3,1.4,3.6c1.3,0.3,4.4-1.3,5.6-1.7c2.3-0.8,4.5-1.5,6.8-2.3c0.9-0.3,0.8-1.7-0.2-1.6
				c-4.5,0.2-9.1,0.4-13.6,0.6C21.2,113.3,21.2,114.9,22.3,114.9L22.3,114.9z"/>
		</g>
	</g>
	<g>
		<g>
			<path d="M23.3,121.8c2.4-0.2,4.9-0.4,7.3-0.2c1.1,0.1,2.2,0.2,3.2,0.3c1.6,0.6,2,0.5,1.3-0.1c-0.7,0.4-1.4,0.7-2.2,1
				c-1.7,0.7-4.8,1.9-6.6,1.4c-1.1-0.2-1.4-0.7-0.8-1.5c0.3,0,0.5,0,0.8,0c0.7-0.3,2-0.3,2.7-0.5c0.8-0.2,3.7-0.9,2.2,0.4
				c-0.5,0.4-2.7,0.7-3.3,0.7c-1.9,0.1-0.7-0.1,0.2-0.2c0.9-0.2,1.8-0.4,2.7-0.6c0.9,0,1.8-0.2,2.7-0.6c-0.6,0.1-1.2,0.2-1.8,0.3
				c-0.9,0.2-1.8,0.4-2.7,0.7c-0.6,0.2-1.2,0.4-1.7,0.6c0.1,0.7,0.5,0.8,1.1,0.3c1,0,2.2-0.6,3.2-0.8c1.1-0.2,0.6-1.8-0.4-1.6
				c-1.5,0.3-7.3,1.1-5,3.8c0.2,0.2,0.6,0.3,0.8,0.2c2-0.8,4.1-1.4,6.2-1.8c0.9-0.2,1.9-0.2,2-1.2c0.4-2.4-3.5-1.8-4.7-1.5
				c-1.4,0.3-6.4,0.3-6,2.9c0.4,2.9,5.6,0.9,7.1,0.5c1.3-0.3,4.5-1.5,2.9-3.3c-0.8-1-2.6-0.9-3.6-0.8c-0.7,0.1-1.4,0.3-2,0.4
				c-1.2,0.3-2.5,0.2-3.8,0.4c-1.8,0.4-1.6,2.8-0.7,4.1c1.5,2,6.6,0.2,8.4-0.4c1-0.4,6.3-2.1,3.9-4c-1-0.8-3.8-0.7-5-0.8
				c-2.8-0.2-5.5,0-8.3,0.2C22.2,120.2,22.2,121.9,23.3,121.8L23.3,121.8z"/>
		</g>
	</g>
</g>
<g>
	<path fill="#2E3192" stroke="#000000" stroke-width="3.3318" stroke-miterlimit="10" d="M414.3,185.6c12.9-9.3,3.2-52.6,24.7-57.1
		c12-2.5,13.9-5.7,13.7-6.3c-0.1-0.5-14.2,1.7-14.3-2.9c-0.1-4.3,14.8-5.6,14.9-5.1c0.1,0.6-15.1,0.6-15.2-3.7
		c-0.1-3.7,16.3-3,16.3-3.1c0-0.1-16.2-1.8-16.2-3.7c-0.1-3,16.3-4,16.3-4.2c0-0.2-15.6,1.5-16.1-0.5c-1-3.7,16.2-8.8,15.6-8.7
		c-0.3,0.1-10.8,5.7-13.5,2.9c-2.5-2.6,2.3-10.2,1.1-14.2c-0.7-2.3-5.8-3.2-7.2-0.6c-1.9,3.5-3.2,8.7-3.1,11.1c0.3,5.3-0.6,11-15,33
		c-24.9,38.3-37,45.9-33.6,54.7C386.2,186.8,405.3,192.1,414.3,185.6z"/>
	<path fill="none" stroke="#000000" stroke-width="3.3318" stroke-miterlimit="10" d="M453.9,90.7c0.3,3.3,0.4,3.9,0.5,6.9
		c0.1,3,0.5,9.2,0.5,11.8c0,2.6-0.3,1.6-0.4,3.6c-0.3,5-0.9,8-1.8,8.1"/>
	<g>
		<g>
			<path d="M452,93.6c0.1,0.6-0.1,1.8,0.2,2.3c-0.1,0.5,0.1,0.7,0.6,0.4c0.7,0,0.8,0,0.2-0.1c-1-0.3-2.1,0-3.1,0.3
				c-3.2,1-6,1.1-9.4,0.5c0,1.1,0,2.1,0,3.2c1.8-0.7,3.6-1.5,5.4-2.3c1.7-0.7,4.5-2.4,6.4-2.4c-0.5-0.3-1-0.6-1.4-0.8
				c0,0.4,0.1,0.9,0.1,1.3c0.3-0.5,0.6-1,0.8-1.4c-0.2,0.1-2.4,0.4-3.1,0.7c-1.6,0.6-2.9,1.4-4.7,1.4c0,1.1,0,2.2,0,3.3
				c0.5-0.1,1.7,1.4,2.2,1.7c0.8,0.3,1.5,0.4,2.3,0c1.8-0.8,2.1-4,3.8-4.6c2-0.7,1.1-3.9-0.9-3.2c-1.9,0.7-2.5,2.3-3.6,3.8
				c-0.8,1.1-0.5,0.5-1.5-0.3c-0.7-0.5-1.3-0.8-2.2-0.8c-2.1,0.2-2.2,3.3,0,3.3c1.6,0,2.9-0.4,4.4-1c0.8-0.3,1.5-0.7,2.3-0.9
				c0.4-0.1,1.5-0.1,2-0.3c2.1-0.8,1.7-3.1,0.9-4.8c-0.2-0.5-0.9-0.8-1.4-0.8c-2,0-4.1,1.2-5.9,1.9c-2.3,0.9-4.5,2-6.8,2.9
				c-1.4,0.5-1.8,2.9,0,3.2c2,0.4,4,0.7,6,0.6c2.2-0.1,4.1-1.1,6.2-1.3c1.2-0.1,2.3,0.4,3.2-0.8c1-1.3,0.5-3.6,0.3-5.1
				C455.1,91.5,451.7,91.4,452,93.6L452,93.6z"/>
		</g>
	</g>
	<g>
		<g>
			<path d="M452.3,100.7c0,1.6,0,3.1,0,4.7c1-0.3,2.1-0.6,3.1-0.8c-1.2-1.8-2.8-2.1-4.9-2.2c-3.2-0.2-6.3-0.6-9.4-1.2
				c0.2,0.9,0.5,1.9,0.7,2.8c1.2-1.4,3.4-1.1,5.1-1.2c1.1-0.1,4.5-0.7,5-0.3c-0.3-0.5-0.6-1-0.8-1.4c0.1,1.6,0.2,3.3,0.1,4.9
				c1.1-0.1,2.2-0.3,3.3-0.4c-0.1-0.6-0.1-2.7-0.6-3.7c-0.3-0.5-0.9-0.9-1.4-0.8c-1.5,0.1-2.9-0.1-4.4,0c-1.7,0.2-3.4,0.5-5.2,0.2
				c-2.1-0.3-3,2.9-0.9,3.2c1.8,0.3,3.4,0.2,5.2,0c1.8-0.2,3.5,0,5.3-0.1c-0.5-0.3-1-0.6-1.4-0.8c0.2,0.3,0.1,2.1,0.3,2.9
				c0.4,1.9,3.2,1.4,3.3-0.4c0.1-1.9,0.6-6-1.7-6.7c-1-0.3-2.4,0-3.4,0.1c-1.5,0.1-3.1,0.2-4.6,0.3c-2,0.2-4,0.4-5.4,2
				c-0.7,0.9-0.6,2.5,0.7,2.8c2,0.4,4.1,0.7,6.1,1c1.4,0.2,5.4-0.3,6.2,0.9c0.9,1.3,3.1,0.9,3.1-0.8c0-1.6,0-3.1,0-4.7
				C455.6,98.5,452.3,98.5,452.3,100.7L452.3,100.7z"/>
		</g>
	</g>
	<g>
		<g>
			<path d="M449.7,100.7c-1.2,0.1-2.5,0-3.6,0.4c-0.7,0.3-1.1,0.7-1.9,0.8c-0.7,0.1-1.8,0.2-2.4,0.1c0.2,0.2,0.4,0.4,0.6,0.6
				c0,0,0-0.1,0-0.1c-0.1,0.3-0.3,0.6-0.4,0.9c0,0,0.1,0,0.1-0.1c0.9-0.6,0-2.1-0.8-1.4c0,0-0.1,0-0.1,0.1c-0.3,0.2-0.5,0.5-0.4,0.9
				c0,0,0,0.1,0,0.1c0.1,0.3,0.3,0.5,0.6,0.6c1.2,0.3,3.2,0.2,4.4-0.1c0.5-0.1,0.7-0.6,1.2-0.8c0.8-0.4,2-0.2,2.9-0.3
				C450.8,102.2,450.8,100.6,449.7,100.7L449.7,100.7z"/>
		</g>
	</g>
	<g>
		<g>
			<path d="M453.6,102.4c-0.4,0-0.8,0.1-1.2,0.1c-1.1,0.1-1.1,1.8,0,1.7c0.4,0,0.8-0.1,1.2-0.1C454.7,104,454.7,102.3,453.6,102.4
				L453.6,102.4z"/>
		</g>
	</g>
	<g>
		<g>
			<path d="M454.4,106.5c-5,0.4-10,0.8-14.9,1.2c-1.7,0.1-2.4,2.9-0.4,3.3c2.6,0.5,5.1,0.9,7.7,1.4c2.1,0.4,4.4,1.1,6.5,1
				c0.6,0,1.2-0.3,1.4-0.8c0.7-1.4,1.3-4-0.4-4.8c-1.2-0.6-2.9,0-4.1,0.1c-2.1,0.2-4.1,0.1-6.2,0.1c-1.6,0-4.5-0.1-4.2,2.4
				c0.3,2.9,4.2,2.2,6,2.4c2.4,0.3,5.6,2.2,7.8,0.4c1.2-1,1.6-3.7,0.3-4.8c-1.3-1.1-3.8-0.3-4.2,1.4c-0.5,1.9,1.3,3,2.9,2.6
				c1.4-0.3,1.6-2.4,0.4-3c-0.7-0.4-1.2-0.5-2-0.5c-2.1,0.1-2.1,3.4,0,3.3c0.1,0,0.2,0,0.3,0.1c0.1-1,0.3-2,0.4-3
				c0.4,0.2,0.8,0.4,1.2,0.6c-0.1,0.5-0.3,1.1-0.4,1.6c0.6-0.7-9.7-2.2-9.6-2c0,0.6,0,1.1,0,1.7c-0.4,1,9.6-0.5,10-0.2
				c-0.3-0.5-0.6-1-0.8-1.4c0,0.5,0,1.1-0.2,1.6c0.5-0.3,1-0.6,1.4-0.8c-2.2,0.1-4.6-0.7-6.8-1.1c-2.2-0.4-4.4-0.8-6.6-1.2
				c-0.1,1.1-0.3,2.2-0.4,3.3c5-0.4,10-0.8,14.9-1.2C456.5,109.7,456.6,106.3,454.4,106.5L454.4,106.5z"/>
		</g>
	</g>
	<g>
		<g>
			<path d="M454,113c-4.3,0.1-10.1,0.2-14,2.5c-2.6,1.6-0.9,4.2,1.1,5.2c3.2,1.7,7.5,3,11.1,2.3c3.1-0.6,3.1-4.8,2.2-7.2
				c-0.3-0.8-0.8-1.1-1.6-1.2c-2.3-0.3-3.3,3-3.7,4.7c-0.1,0.3-0.2,0.6-0.4,0.9c1.1-0.1,1.3-0.3,0.7-0.7c-0.1-0.4-1.1-1.3-1.4-1.6
				c-0.7-0.9-1.4-1.9-2.4-2.6c-1.9-1.3-4.7-0.1-4.5,2.5c0.3,3.8,6.2,4,8.9,4.3c2.9,0.3,4.7-1.8,3.6-4.6c-0.3-0.8-1-2.4-1.7-3
				c-1-0.8-1.6-0.3-2.7,0c-2.3,0.7-8.3-0.5-8.4,3.4c0,1.3,0.6,2.2,1.9,2.5c1.3,0.4,2.7,0.3,4,0.6c1.3,0.3,2.6,0.8,3.9,1.3
				c0.7,0.3,1.5-0.2,1.9-0.8c2.7-4.1-4.4-5.3-6.8-5.6c-2.1-0.3-2.1,3.1,0,3.3c0.9,0.1,1.8,0.3,2.6,0.6c0.8,0.2,1,0.5,1.3,0
				c0.6-0.3,1.3-0.5,1.9-0.8c-1.4-0.6-2.9-1.1-4.4-1.4c-1.3-0.3-2.7-0.3-3.9-0.7c0.4,0.4,0.8,0.8,1.2,1.2c0.1,0.3,3.9-0.1,4.3-0.1
				c0.6-0.1,1.3-0.3,1.8-0.6c0.8-0.4,1.2,0-0.2-0.3c-0.4-0.4-0.8-0.8-1.2-1.2c0.3,0.8,1.1,1.5,1.2,2.3c0.4,0.5,0.4,0.7-0.1,0.4
				c-0.4-0.2-0.8-0.2-1.3-0.3c-0.9-0.2-1.7-0.3-2.6-0.4c-0.6-0.1-1.2-0.2-1.8-0.2c-1.1-0.2-1.3-0.2-0.7,0.2c0,0.2,0.9,1,1,1.1
				c0.7,0.8,1.3,1.8,2.1,2.5c1.1,1.1,2.7,1.9,4.1,0.7c0.6-0.5,0.8-1.3,1.1-2c0.2-0.5,0.4-1,0.5-1.5c0.1-0.3,0.2-0.5,0.3-0.8
				c0.4-0.5,0.3-0.6-0.2-0.2c-0.5-0.4-1.1-0.8-1.6-1.2c0.3,0.7,0.5,2.9,0.2,3.2c-0.1,0.1-1.8-0.1-2.2-0.1c-2.5-0.2-4.1-1.3-6.4-1.9
				c-0.8-0.7-1-0.7-0.7,0c0.1,0.6,0.4,0.7,1.1,0.1c1-0.1,2-0.6,2.9-0.8c2.6-0.6,5.2-0.7,7.9-0.8C456.1,116.3,456.1,113,454,113
				L454,113z"/>
		</g>
	</g>
</g>
<path fill="#F7941E" stroke="#000000" stroke-width="3.3318" stroke-miterlimit="10" d="M264.3,216.5c-0.2-0.2,0,0.9-2.8-0.3
	c-2.4-1.1-2-0.8-2-0.8s0.3,3.5-0.6,6.4c-1.2,4-6.5,6-8.4,6.3c-2,0.4-9.8,0.9-12.4-2.4c-2.1-2.7-2.3-9-2.3-9l-7,0.4
	c0,0,2.1,9.7,5.2,12.9c3.9,4,8.2,4.3,11.3,4.4c2.9,0.2,9.5,0.5,14.6-4C264.4,226.2,266.1,218.3,264.3,216.5z"/>
<g>
	
		<ellipse fill="#39B54A" stroke="#39B54A" stroke-width="3.3318" stroke-miterlimit="10" cx="250.3" cy="285.5" rx="39.3" ry="37.9"/>
	<polygon fill="#39B54A" stroke="#000000" stroke-width="3.3318" stroke-miterlimit="10" points="272.3,314.3 250.3,303.3 
		228.5,314.7 232.5,291 214.6,274.5 239.1,270.9 249.8,249.3 260.9,270.7 285.4,273.9 267.9,290.7 	"/>
</g>
</svg>
