<?xml version="1.0" encoding="utf-8"?>
<!-- Generator: Adobe Illustrator 18.1.0, SVG Export Plug-In . SVG Version: 6.00 Build 0)  -->
<!DOCTYPE svg PUBLIC "-//W3C//DTD SVG 1.1//EN" "http://www.w3.org/Graphics/SVG/1.1/DTD/svg11.dtd">
<svg version="1.1" id="Layer_1" xmlns="http://www.w3.org/2000/svg" xmlns:xlink="http://www.w3.org/1999/xlink" x="0px" y="0px"
	 viewBox="0 0 600 600" enable-background="new 0 0 600 600" xml:space="preserve">
<symbol  id="Blond_Hair_1" viewBox="-8.1 -3.4 16.2 6.8">
	<g>
		<g>
			<path fill="#FEE751" d="M-8.1,2.5c0,0,10.4-0.9,16.2-5.9C3.6,2-5.5,4.9-8.1,2.5z"/>
		</g>
	</g>
</symbol>
<symbol  id="Blond_Hair_4" viewBox="-11.3 -7.7 22.6 15.3">
	<g>
		<path fill="#FEE751" d="M-11.3,6.9c0,0,5.6,2.6,10.6-1.9c5-4.6,5.8-10.2,12-12.7C4.7-6.6,2.2,0.8-1,3.9
			C-6.1,8.8-10.8,6.9-11.3,6.9z"/>
	</g>
</symbol>
<g>
	<path fill="#2BB673" stroke="#000000" stroke-width="2.957" stroke-miterlimit="10" d="M538.2,600H61.9c-6.6,0-12-5.4-12-12V12
		c0-6.6,5.4-12,12-12h476.4c6.6,0,12,5.4,12,12v576C550.3,594.6,544.9,600,538.2,600z"/>
	<path fill="#F3D9CC" stroke="#E6C5BE" stroke-width="2.957" stroke-miterlimit="10" d="M313.2,237.9c0,0,0.8-14.8,1.8-23.5
		c0,0,7.6,3.8,27.3-3.7c2.3-0.9,10.4-2.5,19.7-12.1c4.3-4.4,5.1-10.3,6-14.4c1.8-8.3-0.6-9-0.8-19.2c0,0-2-0.6,3.1-5
		c0.7-0.6,4.1-0.5,4.9-0.1c1.8,0.9,5.1,2,8.6,0.9c5.3-1.6,7.2-6.9,8.3-10c0.9-2.3,3.4-9.2,0-12.5c-2.5-2.4-7.1-1.9-10-0.8
		c-9,3.3-10.4,14.6-13.3,14.2c-2.4-0.4,0.6-5.1-2.5-18.3c-0.9-3.7-0.5-4.6-4.6-12.3c-2.9-5.3-6.1-12.2-11-15.2
		c-5.2-3.1-10.2-6.4-24-7.4c-15.2-1.1-17.6-0.2-34.4-0.9c-7.1-0.3-17.4-0.3-32.3,6.5c-5.5,2.5-9.2,24.5-11.3,27.4
		c-7.8,10.5,0.1,13-0.7,15.8c0,0.1,0,0.1-0.1,0.1c-0.7,0.3-3.2-3.4-6.6-5.8c-1-0.7-4.4-3.1-9-3.2c-3,0-8.2,1-10,4.2
		c-4.3,7.6,4.1,15,13.4,19.9c9.6,5.1,5.9,27.8,10,35.5c3.4,6.3,7.8,11.3,18.9,15.2c13.3,4.6,25.6,5.6,31,2.7l0,0
		c4.9,8.2,0.8,16.5,0.8,16.5c0,1-0.1,2.6-0.1,4.6c1.2,1,3.3,2.3,6.3,3.1c0.8,0.2,1.8,0.4,3,0.4C309.9,240.5,313.2,237.9,313.2,237.9
		z"/>
	<path fill="#27AAE1" stroke="#000000" stroke-width="2.957" stroke-miterlimit="10" d="M288.1,233.4c-3.4-2.7-8.3-1.6-15.9,0
		c-3.6,0.8-8.5,1.8-14.4,5c-8.9,4.7-13.2,10-21.3,16.4c-11.4,8.9-20,19.2-31.3,27.8c-0.2,0.1-9.5,5-19.9,13.4
		c-2.9,2.4-6,5.1-6.9,9.4c-1.1,4.8,0.6,10.7,3.5,11.4c1.9,0.5,2.8-1.6,8.4-5c3.8-2.3,7-4.1,10.9-4c4,0.2,4.4,2.3,7.4,2.5
		c5.7,0.3,12.7-9.7,17-12.6c3.9-2.7,9.5-3.8,15.7-9.7c3.1-3,3.7-2.7,6.1-3.9c2.7-1.3,6.8-6.8,12,1.4c3.3,5.3,2.7,17.9,3,23.4
		c0.2,4.3,0,15.8-2.2,23.8c0,0-0.3,1.4-2.2,8.4l-1.3,5c0.7,1.8,6.7-0.3,15.9,0c9.3,0.3,10.4,2.1,14.9,1c5-1.3,5.4-3.4,11.3-5.6
		c4.9-1.8,11.1-1.5,12.8-1.1c5,1.3,5.7,2.8,11.4,4.7c1.7,0.5,0.7-0.1,5.3,0.5c7.6,1.1,12.3,1.1,16.9,0.5c4.1-0.6,4.7-1.2,5-1.5
		c2.2-2.7-1.9-7.1-4-15.9c-0.6-2.8-0.9-9.9-0.9-18.3c0-4.8-1-8.8,2.6-16.5c4.7-10.2,8.3-9.6,11.2-10.9c3.4-1.5,9.6,3.3,21.8,12.9
		c9.9,7.7,12.5,10.9,18.4,11.4c3.4,0.3,5.6-0.4,9.9,1c2.1,0.7,6.4,2.1,9.4,6c2.2,2.8,2.2,4.9,3.5,5c1.9,0.1,3.9-4.7,4.5-8.4
		c0.2-1.1,0.6-4.3-0.5-7.9c-1.8-5.8-6.6-8.9-10.9-11.9c0,0-1.6-1.1-22.3-16.4c-8.7-6.4-7.2-6-17.9-13.9
		c-11.1-8.3-12.1-8.3-16.4-12.4c-6.4-6.2-6.7-8.6-11.9-11.4c-3.1-1.7-6.9-2.4-14.4-4c-9-1.8-10.5-1.2-11.4-0.5
		c-3.2,2.4-0.6,6.7-4,10.9s-9.6,4.4-11.9,4.5c-2.4,0.1-7.3,0.2-10.9-3C289.7,241,292,236.5,288.1,233.4z"/>
	<polygon fill="#F7941E" stroke="#000000" stroke-width="2.957" stroke-miterlimit="10" points="289.1,263.2 270.3,282.6 289.1,310 
		327.5,310 346.3,283.1 327,263.2 	"/>
	<polygon fill="#FFFFFF" stroke="#000000" stroke-width="2.957" stroke-miterlimit="10" points="284.2,282.6 296.1,300.1 
		318.8,300.1 332.4,282.6 326,274.1 291.6,274.1 	"/>
	<path stroke="#000000" stroke-width="2.957" stroke-miterlimit="10" d="M183.4,319.4c-0.8,3.3,1.7,6.7,8.9,13.9
		c15.7,15.7,17.8,13.6,24.3,21.8c6.3,8.1,7.5,14.1,16.4,20.4c3.8,2.7,6.5,3.7,8.9,3c4.8-1.4,6.5-8.6,7.4-12.9
		c1.1-4.9,2.5-10.9-1-15.4c-2.6-3.4-6.9-4.3-9.9-5c-6.7-1.4-8.4,1-11.9,0c-10.2-3-5.6-28.9-17.9-34.7c-5-2.4-11.8-1.4-14.6-0.6
		C191.3,310.6,184.6,314.7,183.4,319.4z"/>
	<path stroke="#000000" stroke-width="2.957" stroke-miterlimit="10" d="M400,309c-11.2,4.3-6.7,28.8-18.9,34.8
		c-6.2,3-10.6-1.5-17.4,3c-6.7,4.4-7.8,12.5-7.9,13.4c-0.9,7.3,2.3,16.6,8.4,18.4c3.8,1.1,7.6-1.2,10.4-3c7.8-4.9,8.6-9.9,14.9-17.9
		c2.8-3.5,2.1-1.9,23.3-21.3c6.7-6.2,9.7-9,9.4-12.9c-0.4-5.6-6-11.8-8-12.8C412.1,309.4,405.4,306.9,400,309z"/>
	<path fill="#F7941E" stroke="#000000" stroke-width="2.957" stroke-miterlimit="10" d="M254.9,348.2c-1,3.6-2,7.3-3,10.9h32.3
		l3.5-11.9L254.9,348.2z"/>
	<polygon fill="#F7941E" stroke="#000000" stroke-width="2.957" stroke-miterlimit="10" points="324,347.9 324,361.1 353.3,359.1 
		349.8,347.2 	"/>
	<path fill="#ED1C24" stroke="#000000" stroke-width="2.957" stroke-miterlimit="10" d="M288.6,349.2c-0.4,0.8-3.8,7-1,12.9
		c3.6,7.7,14.3,7.9,16.4,7.9c2.4,0,14-0.1,18.4-8.9c0.2-0.3,3.4-7.2,0-13.4c-4.8-8.7-17.9-7.1-19.4-6.9
		C300.8,341.1,292.6,342.2,288.6,349.2z"/>
	<path fill="#FFFFFF" stroke="#000000" stroke-width="2.957" stroke-miterlimit="10" d="M296.6,351.2c-1.9,2.8-1.5,6.9,0.5,9.4
		c3.3,4.1,10.3,3.2,13.9,0c2-1.8,4.3-5.4,3-8.4c-1.3-3-5.2-3.7-6.9-4C305.6,348,299.4,346.9,296.6,351.2z"/>
	<path fill="#27AAE1" stroke="#000000" stroke-width="2.957" stroke-miterlimit="10" d="M253.3,359.8c0,0-4.4,9.7-7.2,19.3
		c-0.5,1.6-2.3,8.7-3.5,12.9c-7.3,25.5-5.5,51.2-8.2,53.7c-3.7,3.4-4.2,6-5.2,10.8c-1.2,5.9-1.3,9.1-1.5,14.4
		c-0.1,2.7-1.4,4.7-1,6.4c0.5,2.5,4.6,3.7,7.4,4.5c1.6,0.4,8.3,1.4,13.5,1.1c5.7-0.3,12.4-3,12.4-3v-2c0,0,0.6-6.7,1.8-10
		c3.5-9.9,8.1-16.5,14.5-23.9c19.9-23,21.2-35.2,25.6-36.8c0,0,8.2,12.2,30.5,39.3c6.8,8.2,12.2,13.7,12.4,22.3
		c0.1,5-1.5,9.9,1.5,12.9c0.7,0.7,1.9,1.6,9.4,2c13.6,0.8,17.6-1.7,18.9-2.5c1.3-0.9,3.8-2.6,4-5c0.1-2.3,0.5-4.1,0-6.9
		c-1.1-6.8-0.7-8.7-4.2-14.8c-1.6-2.7-2.7-6.3-4.2-9.5c-3.2-6.9,0.3-26.3-3.8-44.8c-2.2-10.2-0.4-18.4-3.7-21.6
		c-5.7-5.6-9.7-17.7-9.7-17.7s-26.5-1.1-29.2,0.8c-7.3,5.2-6.3,8.1-19.9,8.1c-11.8,0-16.4-7.9-19.6-8.9
		C273.9,358.2,253.3,359.8,253.3,359.8z"/>
	<path stroke="#000000" stroke-width="2.957" stroke-miterlimit="10" d="M223.1,488.3c0.1-4.7-0.2-8.8,2-9.9c1.2-0.6,2.4,0,5.5,1
		c3.6,1.1,7.3,2.4,10.9,2.5c6,0.2,17-1.1,17.9,0c3.3,3.8-3.6,14.9-8.4,22.8c-7.1,11.6-9.4,11.6-10.4,17.4c-1,5.2,0.6,6.2,0,17.9
		c-0.5,8.4-1.5,10.8-2,11.9c-0.9,2-2.4,4.3-9.9,10.4c-7.6,6.2-11.5,9.3-14.9,10.4c-1,0.3-12.3,3.7-20.4-2.5c-1.3-1-3.7-2.9-4.5-6
		c-0.3-1.2-0.9-4.9,5.5-12.9c6.5-8.1,10.6-8.7,18.9-17.9c3.2-3.6,4.8-5.4,6-7.9c2.6-5.8,0.7-8.5,1.5-19.9
		C221.3,495.5,222.8,497.2,223.1,488.3z"/>
	<path stroke="#000000" stroke-width="2.957" stroke-miterlimit="10" d="M351.3,496.2c-2.6-4.9-7-13.4-4.5-15.9c1.3-1.2,3.2,0,9.4,1
		c6.7,1.1,14,2.2,18.9-1.5c3.1-2.4,3.1-5.1,4.5-5c3.8,0.3,5.2,21,5.5,25.3c1.2,18-1.1,19.1,1.5,25.3c1.9,4.5,3.4,4.7,18.9,20.4
		c11.1,11.3,13.6,14.6,12.9,18.4c-1,5.4-8.2,8.2-9.9,8.9c-8.5,3.3-16.5-0.3-17.9-1c-4.7-2.2-4.1-3.9-13.9-12.4
		c-7.2-6.2-7.8-5.6-8.9-7.9c-2.2-4.6-0.2-7.8-0.5-19.9c-0.1-3.9-0.1-5.8-0.5-7.9C364.9,513.4,358.8,510.5,351.3,496.2z"/>
	<path fill="#FFF200" stroke="#000000" stroke-width="2.957" stroke-miterlimit="10" d="M351.9,239.9c0,0,25.9,5.2,45.5,19.4
		c6.4,4.6,20.3,14.9,32.3,32.8c11.3,16.9,9.7,23.9,23.8,42.2c10.9,14.1,18.1,18,20.8,19.4c11.1,5.5,23.2,6.1,29.3,6
		c12.8-0.2,17.2-3.8,19.9-1c4.6,5-2.6,23.1-14.9,34.3c-6.2,5.7-15.2,10.1-33.3,18.9c-9.5,4.6-8.6,3.8-11.4,5.5
		c-16.7,10.2-14.7,21.1-27.3,29.8c-10.9,7.5-12.3,9.1-34.7,8.9c-13.1-0.1-21.7,8-24.5,5.2c-2.3-2.3,0.8,3.3-2-4.1
		c-1.9-5.2-3.8-8.4-6.1-13.5c-2.1-4.5,3.6-20.9-1.7-42.7c-2.4-9.7-2.9-20.7-2.9-20.7s5.3-1.6,10.9-4.1c7.4-3.5,9.4-10,13.9-17.4
		c11.5-18.7,22.7-15.3,33.3-34.3c3.6-6.5,6.7-12.1,5.5-18.9c-1.1-6.1-5.2-10-21.8-22.8c-11.4-8.8-16.4-13.6-23.8-17.9
		C367.4,256,350.8,241.2,351.9,239.9z"/>
	<g>
		<path fill="#27AAE1" stroke="#000000" stroke-width="2.957" stroke-miterlimit="10" d="M358.2,284.1c5.3-3.7,9.3,2.2,22.8,11.9
			c10,7.2,17.6,9.1,17.4,12.4c-0.1,2.3-2.6,1.6-4.3,6.2c-3.3,9.1-3,21.2-11,27.8c-5.5,4.5-13.1-1.1-20.4,4.2
			c-6.5,4.8-7.3,12.8-9.4,12.4c-1.9-0.3-2.1-6.6-2.5-11.9c-0.6-8-3.6-13.6-4.5-18.4c-1.4-8.1-0.9-14.6-0.3-17.3
			c0.5-2.3,4.2-6.6,6.7-13.5C354.9,292.2,356,285.6,358.2,284.1z"/>
	</g>
	<path fill="#FFF200" stroke="#000000" stroke-width="2.957" stroke-miterlimit="10" d="M341.9,462c-1.2,1.3-24.2-8.2-38.9-7.4
		c-22.2,1.2-37.6,12-39.5,9.4c-2.2-2.8,8.2-9.5,20-26.9c5.5-8.1,16.3-29.7,18.7-29.7c2.2,0,12,16.2,22.1,28.5
		C334.5,448.3,342.8,460.9,341.9,462z"/>
	<path fill="#FFF200" stroke="#000000" stroke-width="2.957" stroke-miterlimit="10" d="M228.1,453c-5.7,6.2-13-8.3-27.3-13.4
		c-14.3-5.1-17.6,2.7-29.8-1.5c-17.4-6-12.9-22.8-33.3-34.7c-3.5-2-13.9-5.3-34.7-11.9c-17.3-5.5-19.8-5.7-20.8-8.4
		c-3.9-9.8,22.9-21,49.6-55.6c15.4-19.9,13.7-25.5,29.3-40.7c10.1-9.8,19.1-15.7,37.2-27.3c14.5-9.3,24.8-14.6,37.2-18.4
		c7.2-2.2,21.8-3,21.8-3s-6.7,6.4-20.8,16.9c-20.4,15.2-16.9,15.4-32.8,26.8c-17.6,12.6-26.3,15.5-27.3,24.3
		c-0.5,4.5,1.3,8.1,4,13.4c4.5,8.8,8.9,10.8,21.8,23.3c10.5,10.3,15.8,15.4,18.9,19.9c4,5.9,6.3,10.9,12.4,13.9
		c6.2,3.1,12.5-1,11.9,3c-0.9,5.5-7.6,18.4-8.2,44.2c-0.1,6.1-0.5,12.6-1.9,20.1C234.5,448.1,231.5,449.4,228.1,453z"/>
	<g>
		<path fill="#FFF200" stroke="#000000" stroke-width="2.957" stroke-miterlimit="10" d="M358.2,284.1c6.3-1.6,9.3,2.2,22.8,11.9
			c10,7.2,17.6,9.1,17.4,12.4c-0.1,2.3-2.6,1.6-4.3,6.2c-3.3,9.1-3,21.2-11,27.8c-5.5,4.5-13.1-1.1-20.4,4.2
			c-6.5,4.8-7.3,12.8-9.4,12.4c-1.9-0.3-2.1-6.6-2.5-11.9c-0.6-8-3.6-13.6-4.5-18.4c-1.4-8.1-0.7-14.6-1-17.3
			c-0.5-4.1-0.7-13.4,3.4-19C352.4,287.4,355.6,284.7,358.2,284.1z"/>
	</g>
	<g>
		<path fill="#FFF200" stroke="#000000" stroke-width="2.957" stroke-miterlimit="10" d="M255.9,281.5c-1.5-0.7-13.6,4.3-27.9,14
			c-10.2,6.9-17.8,8.7-17.7,12c0.1,2.3,0.1,2.3,2.9,6.6c5.2,8.2,2.9,22.7,10.8,29.5c5.4,4.6,13.7-2,20.9,3.5
			c6.4,4.9,7.4,12.3,9.5,12c1.9-0.3,2.2-6.5,2.8-11.9c0.8-8,3.9-13.5,4.9-18.3c1.6-8,1.2-14.6,0.7-17.3c-0.5-2.3,1.1-13.1-1.2-20
			C259.4,285.8,258.2,282.6,255.9,281.5z"/>
	</g>
	<path fill="#F7941E" stroke="#000000" stroke-width="2.957" stroke-miterlimit="10" d="M289.5,233c0.1-0.2,0,0.8,2.4-0.4
		c2-1,1.7-0.8,1.7-0.8s-0.1,3.1,0.8,5.6c1.3,3.5,6,4.9,7.7,5.2c1.8,0.2,8.7,0.3,10.8-2.7c1.7-2.4,1.6-8,1.6-8h6.2
		c0,0-1.4,8.7-4,11.6c-3.2,3.7-7,4.1-9.7,4.4c-2.6,0.3-8.4,0.9-13.1-2.9C289.9,241.5,288,234.6,289.5,233z"/>
	<path fill="none" stroke="#A97C50" stroke-width="2.957" stroke-miterlimit="10" d="M377.4,152.4c-0.5-0.7,1.2-3.2,3.5-4.3
		c2.6-1.3,5.9-0.8,6,0C387.3,149.6,378.4,153.6,377.4,152.4z"/>
	<path fill="none" stroke="#A97C50" stroke-width="2.957" stroke-miterlimit="10" d="M242.1,154.1c0.4-0.7-2.8-3.5-6.4-4.5
		c-3-0.9-6.8-0.8-7,0C228.5,151,241.4,155.4,242.1,154.1z"/>
	<g>
		<path fill="#FFFFFF" stroke="#000000" stroke-width="2.957" stroke-miterlimit="10" d="M320.7,157.2c2.8,1.6,5.3-2.7,12.7-2.7
			c6.9,0,9.6,3.7,11.8,2.1c2.7-2.1,0.2-9.5-2.7-18.2c-2.4-6.9-4.3-9.9-7.3-11.8c-1.2-0.8-3.5-2.3-6.1-1.8c-1.2,0.2-4,1.3-7,9.7
			C321.7,135.9,315.3,154,320.7,157.2z"/>
		<path fill="#2E3192" stroke="#000000" stroke-width="2.957" stroke-miterlimit="10" d="M324.7,152.3c-4-5.3-1.6-11.6-1.2-12.7
			c0.2-0.4,3.4-8.4,9.1-8.2c5.3,0.2,8.1,7.1,8.5,8.2c2.1,5.1-1.4,15.7-8.3,15.1C328,154.4,327.8,156.4,324.7,152.3z"/>
		<path fill="#1C75BC" stroke="#000000" stroke-width="2.957" stroke-miterlimit="10" d="M332.9,154.4c-3.2-0.3-4.3-0.7-4.5-4.4
			c-0.1-1.7,0.9-6.2,4-6.2c3.1,0,4.2,1.1,4.4,5.2C337.1,151.9,336.1,154.6,332.9,154.4z"/>
	</g>
	<g>
		<path fill="#FFFFFF" stroke="#000000" stroke-width="2.957" stroke-miterlimit="10" d="M267.8,157.2c2.8,1.6,5.3-2.7,12.7-2.7
			c6.9,0,9.6,3.7,11.8,2.1c2.7-2.1,0.2-9.5-2.7-18.2c-2.4-6.9-4.3-9.9-7.3-11.8c-1.2-0.8-3.5-2.3-6.1-1.8c-1.2,0.2-4,1.3-7,9.7
			C268.8,135.9,262.4,154,267.8,157.2z"/>
		<path fill="#2E3192" stroke="#000000" stroke-width="2.957" stroke-miterlimit="10" d="M271.8,152.3c-4-5.3-1.6-11.6-1.2-12.7
			c0.2-0.4,3.4-8.4,9.1-8.2c5.3,0.2,8.1,7.1,8.5,8.2c2.1,5.1-1.4,15.7-8.3,15.1C275.1,154.4,274.9,156.4,271.8,152.3z"/>
		<path fill="#1C75BC" stroke="#000000" stroke-width="2.957" stroke-miterlimit="10" d="M280,154.4c-3.2-0.3-4.3-0.7-4.5-4.4
			c-0.1-1.7,0.9-6.2,4-6.2c3.1,0,4.2,1.1,4.4,5.2C284.1,151.9,283.2,154.6,280,154.4z"/>
	</g>
	<path fill="none" stroke="#FFF200" stroke-width="2.957" stroke-miterlimit="10" d="M320.9,112.9c4.6-1.5,13.9,0,20.8,8"/>
	<path fill="none" stroke="#FFF200" stroke-width="2.957" stroke-miterlimit="10" d="M267.8,120.9c0-4.4,9.4-8,21-8"/>
	<line fill="none" stroke="#000000" stroke-width="2.957" stroke-miterlimit="10" x1="326.2" y1="119.8" x2="326.2" y2="119.8"/>
	<g>
		<path fill="none" stroke="#A97C50" stroke-width="2.957" stroke-miterlimit="10" d="M307.1,171.9c-0.5-0.3-4-2.5-7.9-1.2
			c-3.4,1.1-6.7,4.7-6,8.6c0.5,2.9,3,4.9,5.3,5.6c3,0.9,6.3,0,8.6-2.3"/>
	</g>
	<path fill="none" stroke="#BE1E2D" stroke-width="2.957" stroke-miterlimit="10" d="M261,189.9c1.3-2,5-4,5-4s3.2,4.2,5.4,7.1
		c7.3,9.5,18,12.2,21.7,12.9c5.8,1.2,10.4,0.7,14.8,0.2c3.4-0.4,8.8-0.4,14.8-3.5c3.2-1.6,6.5-3.3,11.3-6.7c5.2-3.6,5.9-5,5.9-5
		c3.5-3.4,4.5-4.2,4.5-4.2s1.8,2.1,2.4,3.6"/>
	<path fill="#FFDE17" stroke="#FFE06A" stroke-width="2.957" stroke-miterlimit="10" d="M235.6,129.8c-1.3-4.3-2.7-7.6-3.3-14.9
		c-0.5-5.4-1-12.1,0.7-20.9c1.5-7.7,2.7-14.4,8.2-20.5c4-4.5,8.9-7.2,11.1-8.4c2.8-1.6,5.2-2.4,10-4.2c4.4-1.6,7.6-2.5,7.1-1.8
		c-1.1,1.6-8.2,9.3-8.9,21.3c-0.2,2.5-0.5,7.6,2.6,11.8c2.8,3.8,6.9,4.7,6.6,6.3c-0.4,1.9-6.3,0.4-10.8,3.9
		c-1.4,1.1-2.2,2.3-5.3,11.6c-3.7,10.9-3.5,12-5.8,17.4c-1.1,2.7-3.7,8.4-3.7,8.4l0,0C244,139.9,238.1,138.3,235.6,129.8z"/>
	<path fill="#FFDE17" stroke="#FFE06A" stroke-width="2.957" stroke-miterlimit="10" d="M282.9,49.2c3.7-1.8,9.7-4.3,19-5.8
		c7.4-1.2,18.3-3,31.3,0.3c5.8,1.5,24.9,6.3,34,22.1c6.4,11.2,3.7,14.3,6.3,30.5c0.6,3.8,15.6,8.1,10.5,31.8c-0.6,2.8-2,5.4-2.9,7.1
		c-2.8,5.5-8.8,14.7-11.8,13.7c-2.9-0.9,0.6-9.7-3.4-22.4c-1-3.1-3.5-10.8-10.5-17.4c-5.7-5.4-11.6-7.5-15-8.7
		c-6.5-2.3-9-1.6-27.6-2.4c-22.6-0.9-21.8-1.7-26.8-0.8c-6.1,1.1-7.8,1.1-13.4,1.1c-4.7,0-8.6-5-9.5-6.6c-4.5-8.4-1.3-17.7,0-21.6
		c1-3,3.2-8.1,7.9-12.9C274.9,53.2,279,51.1,282.9,49.2z"/>
	
		<use xlink:href="#Blond_Hair_4"  width="22.6" height="15.3" x="-11.3" y="-7.7" transform="matrix(4.3597 -0.7241 -0.3657 -2.2014 317.7359 71.2731)" overflow="visible"/>
	
		<use xlink:href="#Blond_Hair_4"  width="22.6" height="15.3" x="-11.3" y="-7.7" transform="matrix(4.5535 -0.7562 -0.3869 -2.3299 319.9895 91.3014)" overflow="visible" enable-background="new    "/>
	
		<use xlink:href="#Blond_Hair_1"  width="16.2" height="6.8" x="-8.1" y="-3.4" transform="matrix(1.2635 -1.6065 -1.2499 -0.983 244.6759 83.9204)" overflow="visible"/>
	
		<use xlink:href="#Blond_Hair_1"  width="16.2" height="6.8" x="-8.1" y="-3.4" transform="matrix(1.2635 -1.6065 -1.2499 -0.983 245.199 100.6716)" overflow="visible" enable-background="new    "/>
</g>
</svg>
