<?xml version="1.0" encoding="utf-8"?>
<!-- Generator: Adobe Illustrator 18.1.0, SVG Export Plug-In . SVG Version: 6.00 Build 0)  -->
<!DOCTYPE svg PUBLIC "-//W3C//DTD SVG 1.1//EN" "http://www.w3.org/Graphics/SVG/1.1/DTD/svg11.dtd">
<svg version="1.1" id="Layer_1" xmlns="http://www.w3.org/2000/svg" xmlns:xlink="http://www.w3.org/1999/xlink" x="0px" y="0px"
	 viewBox="0 0 600 600" enable-background="new 0 0 600 600" xml:space="preserve">
<symbol  id="Blond_Hair_1" viewBox="-8.1 -3.4 16.2 6.8">
	<g>
		<g>
			<path fill="#FAF069" d="M-8.1,2.5c0,0,10.4-0.9,16.2-5.9C3.6,2-5.5,4.9-8.1,2.5z"/>
		</g>
	</g>
</symbol>
<symbol  id="Blond_Hair_4" viewBox="-11.3 -7.7 22.6 15.3">
	<g>
		<path fill="#FAF069" d="M-11.3,6.9c0,0,5.6,2.6,10.6-1.9c5-4.6,5.8-10.2,12-12.7C4.7-6.6,2.2,0.8-1,3.9
			C-6.1,8.8-10.8,6.9-11.3,6.9z"/>
	</g>
</symbol>
<g>
	<path fill="#27AAE1" stroke="#000000" stroke-width="3.342" stroke-miterlimit="10" d="M311,211.3c3.7-3.2,9.2-2.3,17.7-1
		c4.2,0.7,9.6,1.6,16.3,4.7c10.2,4.7,15.3,10.4,24.8,17c13.3,9.2,23.6,20.2,36.6,29.1c0.2,0.1,11,5,23,13.8c3.4,2.5,7,5.2,8.3,10.1
		c1.5,5.2,0,12-3.2,13c-2.1,0.7-3.3-1.7-9.7-5c-4.4-2.3-8.1-4.2-12.5-3.8c-4.5,0.5-4.7,2.9-8.1,3.3c-6.3,0.6-15.2-8.5-20.2-11.5
		c-4.6-2.8-10.4-5.1-17.7-11.5c-3.7-3.2-5.3-3.9-6.9-5.1c-3.1-2.4-8.6-5.2-14,4.2c-3.4,6-1.2,18.9-0.9,26.1c0.2,4.7,0.5,17,3.5,25.8
		c0,0,0.4,1.9,3,9.2l1.8,5.5c-0.7,2.1-7.5,0.1-17.7,1c-10.3,0.9-11.5,3-16.5,2c-5.7-1.1-6.2-3.5-12.9-5.5c-5.5-1.8-12.6-1-14.3-0.4
		c-5.4,1.8-6.1,3.5-12.5,5.9c-1.8,0.7-0.8-0.1-5.8,0.9c-8.4,1.7-13.7,2-18.8,1.6c-4.7-0.4-5.3-1.1-5.6-1.4
		c-2.6-2.9,0.1-7.9,1.9-17.8c0.6-3.2,2.3-10.6-0.6-19.4c-1.1-3.5-1.5-8.9-6.4-17.1c-5.9-9.8-8-12.4-11-15.3c-2.1-2,0,0-8.7-7.8
		c-8.6-7.6-7.9-6.6-12.6-11.3c-4.1-4.2-15.4-14.9-17.9-18.8c-1.8-2.8-27.5-39.4-32.7-44.5c-2.8-2.9-20.1-29.9-20.9-31.1
		c-4.5-6.4,13.5-2.6,11.4-2.6c-9.5-0.1,2.6-4.3,10.5-7c6.4-2.3,1.5-16.6,4-11.2c3.5,7.5,12.1,20.9,20,31.5c6.6,9,5.1,5.6,14.1,18.2
		c7.9,11.3,18.8,21.5,22.5,24.6c10,9,15.1,13.3,23.9,9c3.6-1.7,7.5-3.2,15.8-5.3c9.9-2.6,11.7-2,12.8-1.3c3.7,2.5,1.1,7.4,5,12
		c4.1,4.6,11,4.4,13.6,4.3c2.7-0.1,8.1-0.2,12-4C309.7,219.9,306.9,215,311,211.3z"/>
	<polygon fill="#F7941E" stroke="#000000" stroke-width="3.342" stroke-miterlimit="10" points="308.8,245.9 331,266.4 311.5,297.9 
		268.9,300.3 246.2,271.5 266.6,248.1 	"/>
	<polygon fill="#FFFFFF" stroke="#000000" stroke-width="3.342" stroke-miterlimit="10" points="315.5,267.1 303.2,287.2 278,288.6 
		261.8,270.1 268.4,260.2 306.7,258.1 	"/>
	<path stroke="#000000" stroke-width="3.342" stroke-miterlimit="10" d="M431.7,299.2c1.2,3.6-3,10.4-10.7,18.9
		c-16.6,18.4-19.1,16.2-25.8,25.8c-6.6,9.4-7.5,16.1-17,23.7c-4.1,3.3-7,4.5-9.8,3.9c-5.4-1.2-7.7-9.2-9.1-14
		c-1.6-5.4-3.5-12.1,0.2-17.2c2.8-4,7.4-5.2,10.8-6.1c7.4-2,9.5,0.6,13.3-0.7c11.3-4,4.6-32.7,17.8-39.9c5.4-3,11.7-2.9,14.8-2.2
		C419.4,292.1,430.1,294.1,431.7,299.2z"/>
	<path stroke="#000000" stroke-width="3.342" stroke-miterlimit="10" d="M164.9,141.1c4.3-12.8-27.1-20.2-28-35.3
		c-0.4-7.8,6.1-10.4,4.4-19.3c-1.8-8.8-9.6-13.5-10.5-14c-7.1-4.1-18.2-4.7-22.6,0.9c-2.8,3.6-2,8.3-1.4,12.1
		c1.7,10.1,6.5,13.1,12.1,23.1c2.4,4.4,1.1,3.1,12.1,33.2c3.5,9.6,5.1,13.9,9.3,15.2c6,2,14.4-1.1,16.3-2.6
		C158.8,152.6,163,146.8,164.9,141.1z"/>
	<path fill="#F7941E" stroke="#000000" stroke-width="3.342" stroke-miterlimit="10" d="M352.1,338.5c1.3,4,2.7,8,4,12l-36,2
		l-4.6-13.1L352.1,338.5z"/>
	<polygon fill="#F7941E" stroke="#000000" stroke-width="3.342" stroke-miterlimit="10" points="275.1,342.4 275.9,357.1 
		243.1,356.7 246.2,343.1 	"/>
	<path fill="#ED1C24" stroke="#000000" stroke-width="3.342" stroke-miterlimit="10" d="M314.5,341.7c0.5,0.8,4.7,7.5,1.9,14.3
		c-3.6,8.8-15.5,9.7-17.8,9.9c-2.7,0.2-15.6,0.7-21.1-8.9c-0.2-0.4-4.3-7.8-0.8-14.9c4.8-10.1,19.6-9.1,21.2-8.9
		C300.5,333.3,309.6,334.1,314.5,341.7z"/>
	<path fill="#FFFFFF" stroke="#000000" stroke-width="3.342" stroke-miterlimit="10" d="M305.8,344.4c2.3,3.1,2.2,7.6,0,10.6
		c-3.5,4.7-11.3,4.3-15.5,0.9c-2.4-1.9-5-5.7-3.9-9.2c1.2-3.5,5.6-4.5,7.5-4.8C295.6,341.4,302.3,339.8,305.8,344.4z"/>
	<path fill="#27AAE1" stroke="#000000" stroke-width="3.342" stroke-miterlimit="10" d="M356.3,352.7c0,0,3.9,9.2,7.5,19.7
		c0.6,1.8,3.1,9.6,4.7,14.2c9.6,28,9.2,56.8,12.5,59.5c4.4,3.6,5,6.4,6.4,11.8c1.8,6.5,2,10.1,2.5,16c0.3,3.1,1.8,5.1,1.5,7.1
		c-0.4,2.9-4.9,4.4-8,5.4c-1.7,0.6-9.1,2.1-15,2.1c-6.3,0-14.1-2.6-14.1-2.6l-0.1-2.2c0,0-1.1-7.4-2.6-11.1
		c-4.6-10.9-10.1-17.9-17.6-25.8c-23.6-24.5-25.7-38.1-30.8-39.6c0,0-8.4,14.2-31.7,45.7c-7,9.6-12.8,16-12.5,25.7
		c0.2,5.6,2.3,11-0.9,14.5c-0.7,0.8-2,1.9-10.4,2.8c-15.1,1.7-19.8-0.8-21.2-1.6c-1.6-0.9-4.5-2.7-4.7-5.3c-0.3-2.5-0.8-4.6-0.4-7.7
		c0.8-7.7,0.2-9.7,3.9-16.7c1.6-3.1,2.6-7.2,4.1-10.9c3.1-7.8-1.9-29.3,1.5-50.3c1.9-11.5-0.7-20.6,2.8-24.3
		c6-6.6,9.7-20.3,9.7-20.3s29.5-2.9,32.7-0.9c8.5,5.3,7.5,8.7,22.8,7.8c13.2-0.7,17.8-9.9,21.4-11.1
		C331.4,350.9,356.3,352.7,356.3,352.7z"/>
	<path stroke="#000000" stroke-width="3.342" stroke-miterlimit="10" d="M396,492.9c-0.4-5.2-0.3-9.8-2.8-11c-1.4-0.6-2.7,0.1-6,1.5
		c-4,1.5-8,3.1-12.1,3.5c-6.6,0.6-19-0.2-20,1.1c-3.4,4.5,4.8,16.4,10.8,24.9c8.7,12.6,11.2,12.5,12.7,18.8c1.4,5.7-0.3,7,1.1,20
		c1,9.3,2.3,12,3,13.2c1.2,2.2,3,4.7,11.7,11.1c8.9,6.5,13.4,9.7,17.2,10.7c1.1,0.3,14,3.4,22.6-4c1.4-1.2,4-3.5,4.7-6.9
		c0.2-1.4,0.7-5.5-6.8-14.1c-7.7-8.7-12.4-9-22.2-18.8c-3.8-3.8-5.6-5.7-7.1-8.5c-3.3-6.3-1.3-9.4-2.9-22.1
		C398.5,500.9,396.9,502.8,396,492.9z"/>
	<path stroke="#000000" stroke-width="3.342" stroke-miterlimit="10" d="M253.5,509.5c2.6-5.6,7-15.4,4.1-18
		c-1.5-1.3-3.6,0.2-10.5,1.7c-7.4,1.6-15.5,3.3-21.2-0.5c-3.6-2.5-3.8-5.4-5.2-5.2c-4.3,0.6-4.5,23.7-4.6,28.6
		c-0.3,20.2,2.4,21.3-0.1,28.4c-1.9,5.1-3.6,5.4-19.8,23.8c-11.7,13.3-14.3,17.1-13.3,21.3c1.5,6,9.6,8.7,11.6,9.4
		c9.7,3.2,18.3-1.4,19.9-2.2c5-2.8,4.4-4.7,14.7-14.7c7.6-7.3,8.3-6.7,9.5-9.4c2.2-5.3-0.2-8.7-0.7-22.2c-0.1-4.4-0.2-6.4,0.1-8.9
		C239.4,529.5,246.1,525.9,253.5,509.5z"/>
	<path fill="#FFF200" stroke="#000000" stroke-width="3.342" stroke-miterlimit="10" d="M199.9,239.4c0,0-2.7,3.4-11.2,9.5
		c-7.1,5.1-21.8,17.8-34,38.5c-11.6,19.5-9.3,27.3-24,48.6c-11.3,16.3-19.1,21.2-22.1,22.9c-12,6.8-25.5,8.2-32.4,8.4
		c-14.3,0.6-19.5-3.2-22.3,0.2c-4.8,5.8,4.4,25.5,18.7,37.3c7.3,5.9,17.6,10.3,38.3,19c10.9,4.7,9.9,3.7,13.1,5.4
		c19.2,10.4,17.7,22.7,32.3,31.6c12.7,7.7,14.2,9.5,39.3,7.9c14.6-0.9,24,8.9,26.3,5.1c0.5-0.8,1.3-1,3.3-5.6
		c2.5-5.7,3.7-9.6,6-15.4c2.1-5.1-5.3-23.2-0.7-47.7c2.1-11,4.7-22.5,8.3-31.5c5.3-13.8,1.3-3.6,5.3-13.8c3.1-7.7,6.1-33.6,8.3-39.2
		c5.7-14.6-12.4-41.4-16.1-46.4c-1.3-1.7-15.1-14.2-25.9-24.2C206.2,246.2,201.3,240.9,199.9,239.4z"/>
	<path fill="#FFF200" stroke="#000000" stroke-width="3.342" stroke-miterlimit="10" d="M262.1,470.7c1.5,1.4,26.4-10.7,42.9-10.7
		c24.8,0,42.6,11.1,44.7,8.1c2.3-3.3-9.7-10.1-23.9-28.8c-6.6-8.7-20-32.2-22.7-32.1c-2.4,0.1-12.4,18.8-23,33
		C269.5,455,260.9,469.6,262.1,470.7z"/>
	<path fill="#FFF200" stroke="#000000" stroke-width="3.342" stroke-miterlimit="10" d="M388.4,453.9c6.8,6.5,14.1-10.1,29.7-16.6
		c15.6-6.5,19.9,2,33.1-3.5c19-7.8,13.1-26.2,35-40.8c3.8-2.5,15.2-6.8,38.1-15.4c19-7.1,21.8-7.6,22.8-10.7
		c3.8-11.2-26.8-22.1-58.8-59.1c-18.4-21.4-16.8-27.6-35.1-43.6C441.4,253.8,431,247.9,410,236c-16.7-9.5-28.6-14.8-42.6-18.2
		c-8.2-2-24.5-2-24.5-2s7.9,6.7,24.3,17.6c23.6,15.7,19.8,16.2,38.2,27.9c20.4,13.1,30.3,15.7,32,25.5c0.9,5-0.9,9.1-3.7,15.2
		c-4.5,10.1-9.3,12.6-23,27.4c-11.2,12.1-16.7,18.1-19.9,23.4c-4.2,6.8-6.3,12.6-13.1,16.2c-6.7,3.8-14.1-0.4-13.2,4.1
		c1.3,6.1,9.6,20.1,11.9,48.9c0.5,6.8,1.4,14.1,3.4,22.4C380.9,448.6,384.4,449.9,388.4,453.9z"/>
	<g>
		<path fill="#FFF200" stroke="#000000" stroke-width="3.342" stroke-miterlimit="10" d="M351.3,262.5c5.6-4.6,11.8,6,27.7,15.6
			c11.8,7.1,20.4,8.6,20.5,12.4c0,2.6,0,2.6-2.8,7.6c-5.3,9.5-1.9,25.5-10.2,33.5c-5.7,5.5-15.4-1.4-23.1,5.2
			c-6.8,5.8-7.5,14.2-9.9,14c-2.1-0.2-2.9-7.2-3.8-13.1c-1.4-8.8-5.2-14.8-6.5-20.1c-2.3-8.9-2.2-16.2-1.8-19.3
			c0.4-2.7-0.4-14.9,1.5-22.9C344.9,266.4,349,264.4,351.3,262.5z"/>
	</g>
	<path fill="#F3D9CC" stroke="#F3D9CC" stroke-width="3.342" stroke-miterlimit="10" d="M282,218.6c0,0-1.8-16.5-3.4-26.1
		c0,0-8.2,4.7-30.8-2.5c-2.7-0.9-11.8-2.2-22.8-12.3c-5-4.7-6.3-11.2-7.5-15.6c-2.6-9.1,0.1-10.1-0.2-21.5c0,0,2.3-0.8-3.8-5.3
		c-0.8-0.6-4.6-0.3-5.4,0.2c-2,1.1-5.5,2.6-9.6,1.6c-5.9-1.5-8.5-7.3-9.9-10.7c-1.1-2.6-4.4-10.1-0.8-14c2.7-2.9,7.8-2.6,11.1-1.6
		c10.2,3.1,12.5,15.7,15.7,15c2.7-0.6-1-5.6,1.7-20.6c0.8-4.2,0.3-5.2,4.5-14c2.9-6.1,6-14,11.4-17.6c5.6-3.8,11-7.8,26.4-9.7
		c16.9-2.2,19.7-1.3,38.4-3.2c7.9-0.8,19.4-1.4,36.4,5.3c6.3,2.5,11.8,26.8,14.3,29.9c9.3,11.3,0.7,14.5,1.8,17.6
		c0,0.1,0.1,0.1,0.1,0.1c0.8,0.3,3.4-4,7-6.9c1.1-0.8,4.7-3.8,9.8-4.1c3.3-0.2,9.2,0.6,11.4,4.1c5.2,8.2-3.7,17-13.8,23.1
		c-10.4,6.2-4.9,31.4-9,40.3c-3.4,7.3-8,13.1-20.2,18.1c-14.5,5.9-28.3,7.8-34.4,4.9l0,0c-4.9,9.4,0.1,18.5,0.1,18.5
		c0.1,1.1,0.2,2.9,0.4,5.1c-1.3,1.2-3.6,2.7-6.8,3.9c-0.9,0.3-2,0.5-3.3,0.6C285.8,221.2,282,218.6,282,218.6z"/>
	<path fill="none" stroke="#C49A6C" stroke-width="3.342" stroke-miterlimit="10" d="M205.2,127c0.5-0.8-1.5-3.5-4.2-4.7
		c-3-1.3-6.6-0.6-6.7,0.4C194,124.5,204.2,128.5,205.2,127z"/>
	<path fill="none" stroke="#C49A6C" stroke-width="3.342" stroke-miterlimit="10" d="M356.2,120.8c-0.5-0.8,2.9-4.1,6.8-5.4
		c3.4-1.2,7.5-1.3,7.8-0.4C371.2,116.5,357,122.2,356.2,120.8z"/>
	<g>
		<path fill="#FFFFFF" stroke="#000000" stroke-width="3.342" stroke-miterlimit="10" d="M268.8,128.9c-3,2-6.1-2.7-14.3-2.3
			c-7.6,0.4-10.5,4.7-13.1,3.1c-3.2-2.2-0.8-10.6,2-20.4c2.2-7.9,4.3-11.3,7.4-13.7c1.3-1,3.8-2.9,6.6-2.4c1.3,0.2,4.5,1.2,8.3,10.4
			C266.3,105.3,274.5,125.2,268.8,128.9z"/>
		<path fill="#2E3192" stroke="#000000" stroke-width="3.342" stroke-miterlimit="10" d="M263.9,123.8c4.2-6.1,1.1-13.1,0.6-14.2
			c-0.2-0.5-4.3-9.1-10.6-8.6c-5.8,0.5-8.5,8.4-9,9.6c-2,5.8,2.5,17.4,10.2,16.4C260.4,126.3,260.8,128.5,263.9,123.8z"/>
		<path fill="#27AAE1" stroke="#000000" stroke-width="3.342" stroke-miterlimit="10" d="M254.9,126.5c3.6-0.5,4.8-1.1,4.7-5.2
			c0-1.9-1.4-6.8-4.8-6.6c-3.5,0.2-4.7,1.5-4.7,6C250.2,124.1,251.4,127,254.9,126.5z"/>
	</g>
	<g>
		<path fill="#FFFFFF" stroke="#000000" stroke-width="3.342" stroke-miterlimit="10" d="M327.8,125.7c-3,2-6.1-2.7-14.3-2.3
			c-7.6,0.4-10.5,4.7-13.1,3.1c-3.2-2.2-0.8-10.6,2-20.4c2.2-7.9,4.3-11.3,7.4-13.7c1.3-1,3.8-2.9,6.6-2.4c1.3,0.2,4.5,1.2,8.3,10.4
			C325.3,102.1,333.5,122,327.8,125.7z"/>
		<path fill="#2E3192" stroke="#000000" stroke-width="3.342" stroke-miterlimit="10" d="M322.9,120.6c4.2-6.1,1.1-13.1,0.6-14.2
			c-0.2-0.5-4.3-9.1-10.6-8.6c-5.8,0.5-8.5,8.4-9,9.6c-2,5.8,2.5,17.4,10.2,16.4C319.3,123.1,319.7,125.3,322.9,120.6z"/>
		<path fill="#27AAE1" stroke="#000000" stroke-width="3.342" stroke-miterlimit="10" d="M313.9,123.4c3.6-0.5,4.8-1.1,4.7-5.2
			c0-1.9-1.4-6.8-4.8-6.6c-3.5,0.2-4.7,1.5-4.7,6C309.2,120.8,310.3,123.9,313.9,123.4z"/>
	</g>
	<path fill="none" stroke="#FFDE17" stroke-width="3.342" stroke-miterlimit="10" d="M265.9,79.5c-5.2-1.4-15.5,0.9-22.8,10.2"/>
	<path fill="none" stroke="#FFDE17" stroke-width="3.342" stroke-miterlimit="10" d="M325.5,85.3c-0.3-4.9-11-8.3-23.9-7.6"/>
	<line fill="none" stroke="#000000" stroke-width="3.342" stroke-miterlimit="10" x1="260.8" y1="94.2" x2="260.8" y2="94.2"/>
	<g>
		<path fill="none" stroke="#C49A6C" stroke-width="3.342" stroke-miterlimit="10" d="M294.3,144.5c-0.6-0.4-4.3-3-8.7-1.8
			c-3.9,1.1-7.8,4.8-7.2,9.2c0.4,3.3,3.1,5.6,5.6,6.5c3.3,1.2,7,0.4,9.7-2.1"/>
	</g>
	<path fill="none" stroke="#BE1E2D" stroke-width="3.342" stroke-miterlimit="10" d="M337.3,161.8c-1.6-2.2-5.8-4.2-5.8-4.2
		s-3.3,4.8-5.5,8.2c-7.6,11.1-19.4,14.7-23.5,15.7c-6.4,1.7-11.6,1.4-16.5,1.1c-3.9-0.2-9.9,0-16.7-3.1c-3.7-1.7-7.4-3.4-13-6.7
		c-6-3.8-6.9-5.2-6.9-5.2c-4.1-3.6-5.2-4.4-5.2-4.4s-2,2.5-2.5,4.2"/>
	<path fill="#FFDE17" stroke="#F9ED32" stroke-width="3.342" stroke-miterlimit="10" d="M362,93.3c1.2-4.9,2.6-8.7,2.8-16.8
		c0.2-6,0.4-13.6-2-23.3c-2.1-8.5-4-15.9-10.4-22.5c-4.7-4.8-10.4-7.5-12.9-8.7c-3.3-1.6-5.9-2.4-11.4-4.1c-4.9-1.6-8.6-2.3-8-1.6
		c1.3,1.7,9.7,9.8,11.3,23.3c0.3,2.8,1,8.5-2.2,13.4c-3,4.5-7.4,5.7-6.9,7.4c0.5,2.1,7,0.1,12.3,3.8c1.7,1.2,2.6,2.5,6.5,12.6
		c4.7,12,4.7,13.2,7.5,19c1.4,3,4.7,9.2,4.7,9.2l0,0C353.2,105,359.7,102.9,362,93.3z"/>
	<path fill="#FFDE17" stroke="#F9ED32" stroke-width="3.342" stroke-miterlimit="10" d="M304.3,6.3C300,4.5,293.1,2.2,282.8,1
		c-8.4-0.9-20.7-2.3-34.9,2.2c-6.3,2-27.4,8.5-36.6,26.7c-6.4,12.9-3.3,16.2-5.2,34.4c-0.5,4.3-16.9,10-9.8,36.2
		c0.9,3.1,2.6,5.9,3.7,7.7c3.5,5.9,10.7,15.8,14.1,14.5c3.2-1.2-1.3-10.8,2.5-25.1c0.9-3.5,3.3-12.3,10.7-20
		c6-6.3,12.6-9.1,16.2-10.6c7.1-3,10-2.4,30.7-4.4c25.1-2.4,24.2-3.2,29.9-2.5c6.9,0.8,8.7,0.8,15,0.4c5.2-0.3,9.3-6.1,10.2-7.9
		c4.6-9.7,0.4-19.9-1.3-24c-1.3-3.3-4.1-8.8-9.6-14C313.5,10.2,308.9,8.2,304.3,6.3z"/>
	<path fill="#F7941E" stroke="#000000" stroke-width="3.342" stroke-miterlimit="10" d="M306.5,212.1c-0.2-0.2,0,0.9-2.8-0.3
		c-2.4-1.1-2-0.8-2-0.8s0.3,3.5-0.6,6.2c-1.2,4-6.4,5.8-8.2,6.2c-2,0.4-9.6,0.9-12.3-2.4c-2.1-2.6-2.3-8.9-2.3-8.9l-6.9,0.4
		c0,0,2.1,9.6,5.1,12.8c3.9,4,8.1,4.2,11.2,4.4c2.9,0.2,9.4,0.5,14.4-4C306.6,221.7,308.3,213.9,306.5,212.1z"/>
	
		<use xlink:href="#Blond_Hair_4"  width="22.6" height="15.3" x="-11.3" y="-7.7" transform="matrix(-4.9064 -0.5439 0.2746 -2.4774 265.5152 34.6281)" overflow="visible"/>
	
		<use xlink:href="#Blond_Hair_4"  width="22.6" height="15.3" x="-11.3" y="-7.7" transform="matrix(-5.1246 -0.5682 0.2907 -2.6222 264.2129 57.1036)" overflow="visible" enable-background="new    "/>
	
		<use xlink:href="#Blond_Hair_1"  width="16.2" height="6.8" x="-8.1" y="-3.4" transform="matrix(-1.5064 -1.7155 1.3347 -1.1721 347.7697 44.3158)" overflow="visible"/>
	
		<use xlink:href="#Blond_Hair_1"  width="16.2" height="6.8" x="-8.1" y="-3.4" transform="matrix(-1.5064 -1.7155 1.3347 -1.1721 348.1996 63.0315)" overflow="visible" enable-background="new    "/>
</g>
</svg>
