<?xml version="1.0" encoding="utf-8"?>
<!-- Generator: Adobe Illustrator 18.1.0, SVG Export Plug-In . SVG Version: 6.00 Build 0)  -->
<!DOCTYPE svg PUBLIC "-//W3C//DTD SVG 1.1//EN" "http://www.w3.org/Graphics/SVG/1.1/DTD/svg11.dtd">
<svg version="1.1" id="Layer_1" xmlns="http://www.w3.org/2000/svg" xmlns:xlink="http://www.w3.org/1999/xlink" x="0px" y="0px"
	 viewBox="0 0 600 600" enable-background="new 0 0 600 600" xml:space="preserve">
<symbol  id="Blond_Hair_1" viewBox="-8.1 -3.4 16.2 6.8">
	<g>
		<g>
			<path fill="#FAF069" d="M-8.1,2.5c0,0,10.4-0.9,16.2-5.9C3.6,2-5.5,4.9-8.1,2.5z"/>
		</g>
	</g>
</symbol>
<symbol  id="Blond_Hair_4" viewBox="-11.3 -7.7 22.6 15.3">
	<g>
		<path fill="#FAF069" d="M-11.3,6.9c0,0,5.6,2.6,10.6-1.9c5-4.6,5.8-10.2,12-12.7C4.7-6.6,2.2,0.8-1,3.9
			C-6.1,8.8-10.8,6.9-11.3,6.9z"/>
	</g>
</symbol>
<g>
	<path fill="#FFF200" stroke="#000000" stroke-width="3.349" stroke-miterlimit="10" d="M387.8,453.8c6.8,6.5,14-10.1,29.7-16.6
		c15.6-6.5,19.8,2,33.2-3.5c19.1-7.8,13-26.3,35-40.8c3.8-2.5,15.2-6.8,38.1-15.4c19-7.1,21.7-7.6,22.8-10.7
		c3.8-11.2-26.7-22-58.7-59c-18.5-21.3-16.8-27.6-35.1-43.6c-11.8-10.4-22.3-16.3-43.2-28.2c-16.7-9.5-28.6-14.8-42.6-18.3
		c-8.2-2-24.6-2-24.6-2s7.9,6.7,24.3,17.6c23.7,15.7-11,19.1-17.9,39.8c-6.4,19.1-8.1,34.5-6.4,44.3c0.9,5,20.9,51.1,21.8,55.5
		c1.3,6.1,9.7,20.1,11.8,48.9c0.5,6.8,1.4,14,3.4,22.3C380.3,448.7,383.8,449.9,387.8,453.8z"/>
	<path fill="#27AAE1" stroke="#000000" stroke-width="3.349" stroke-miterlimit="10" d="M312.8,213c3.8-3.1,9.3-2.1,17.8-0.5
		c4.1,0.8,10.4,1.4,17.2,2.6c11.4,2,18.1,4.3,28.7-0.1c12-4.9,29-17,40-23.7c0.2-0.1,11.1-21.3,18.8-28c3.2-2.8,5.7,7.3,9.9,10.1
		c3.5,2.2,13.7,5.8,15.1,7.5c0,0-1.7,1-3.8,3.5c-3.4,3.7-11,15.9-14.8,19.6c-3.3,3.1-12,14.1-14,16.9c-3.8,5.1-12.6,8.6-18.7,11.5
		c-4.8,2.4-18.2,8.4-25.8,11.3c-4.4,1.7-21.7,22.1-23.2,23.6c-2.1,2.1-3.1,6.9-7.9,16.9c-3.1,6.3-4,6.6-5.7,11.8
		c-1.5,4.5-0.2,24.3,0.7,27.1c0,0,0.3,1,2.7,9.3l1.6,5.6c-0.8,2.1-7.5-0.1-17.8,0.5c-10.4,0.7-11.5,2.7-16.6,1.6
		c-5.6-1.3-6.1-3.7-12.7-5.9c-5.5-1.9-12.5-1.4-14.3-0.8c-5.5,1.6-6.2,3.3-12.6,5.5c-1.9,0.7-0.8-0.1-5.8,0.8
		c-8.5,1.4-13.7,1.6-18.9,1.1c-4.6-0.5-5.3-1.2-5.6-1.5c-2.5-3,0.3-7.9,2.3-17.8c0.6-3.2,2.6-10.5,0-19.4c-1-3.5-3.8-6.6-8.6-14.9
		c-5.7-9.9-5-10.2-6.8-15.3c-1-2.8-1.2-2.7-9.7-10.7c-8.4-7.9-7.8-6.8-12.2-11.5c-3.9-4.2-12.5-14.7-19.3-14.4
		c-3.4,0.1-39.3-8.8-44.3-14c-2.8-2.9-21.8-30.8-22.5-32c-4.2-6.6,1.3-11.6,2.9-12.9c5.7-5,7.2-4.3,11.3-8.8c4.5-5,6.1-11.3,8.4-5.6
		c1.1,2.6,16.5,33.8,21.2,35.9c8.6,3.9,48.6,17,53.2,18.4c10.4,3.1,15.3,5.1,24.9,2.7c3.8-1,7.6-3,16-4.8c10-2.4,11.7-1.7,12.7-0.9
		c3.7,2.6,0.9,7.5,4.7,12c3.9,4.6,11,4.6,13.4,4.6c2.7,0,8.2,0,12.1-3.7C311.3,221.5,308.5,216.5,312.8,213z"/>
	<polygon fill="#F7941E" stroke="#000000" stroke-width="3.349" stroke-miterlimit="10" points="314.8,245.8 337,266.3 317.6,297.9 
		275,300.2 252.3,271.5 272.7,248.2 	"/>
	<polygon fill="#FFFFFF" stroke="#000000" stroke-width="3.349" stroke-miterlimit="10" points="321.5,267.1 309.2,287.3 
		284.1,288.6 267.8,270.1 274.4,260.2 312.7,258.1 	"/>
	<path fill="#F7941E" stroke="#000000" stroke-width="3.349" stroke-miterlimit="10" d="M351.6,338.5c1.3,4,2.7,8,3.9,12l-36,2
		l-4.6-13.1L351.6,338.5z"/>
	<polygon fill="#F7941E" stroke="#000000" stroke-width="3.349" stroke-miterlimit="10" points="274.5,342.3 275.4,357.1 
		242.5,356.7 245.7,343.1 	"/>
	<path fill="#ED1C24" stroke="#000000" stroke-width="3.349" stroke-miterlimit="10" d="M314,341.7c0.5,0.8,4.6,7.5,1.9,14.3
		c-3.6,8.8-15.5,9.7-17.8,9.9c-2.7,0.2-15.6,0.7-21-8.9c-0.2-0.4-4.2-7.8-0.8-15c4.8-10.1,19.5-9.1,21.2-8.9
		C300,333.4,309.1,334.1,314,341.7z"/>
	<path fill="#FFFFFF" stroke="#000000" stroke-width="3.349" stroke-miterlimit="10" d="M305.2,344.3c2.3,3.1,2.2,7.6,0,10.6
		c-3.5,4.7-11.3,4.2-15.5,0.9c-2.4-1.9-5-5.7-3.8-9.3c1.2-3.5,5.6-4.4,7.5-4.8C295,341.3,301.8,339.8,305.2,344.3z"/>
	<path fill="#27AAE1" stroke="#000000" stroke-width="3.349" stroke-miterlimit="10" d="M355.6,352.7c0,0,3.8,9.2,7.5,19.6
		c0.6,1.8,3.1,9.6,4.6,14.2c9.7,28,9.2,56.8,12.4,59.4c4.3,3.6,5,6.4,6.4,11.7c1.8,6.5,2,10.1,2.5,16c0.3,3.1,1.8,5.1,1.5,7.1
		c-0.4,2.9-4.9,4.3-8,5.4c-1.7,0.6-9.2,2.1-15,2.1c-6.3,0-14-2.6-14-2.6l-0.1-2.2c0,0-1.1-7.5-2.6-11.1c-4.5-10.9-10.1-18-17.7-25.8
		c-23.6-24.5-25.8-38.1-30.8-39.6c0,0-8.4,14.2-31.7,45.7c-7.1,9.6-12.7,16.1-12.5,25.7c0.2,5.6,2.3,11-0.9,14.5
		c-0.7,0.8-2,1.9-10.4,2.8c-15.1,1.7-19.7-0.8-21.2-1.6c-1.6-0.9-4.4-2.7-4.7-5.3c-0.3-2.5-0.8-4.5-0.4-7.7
		c0.8-7.7,0.2-9.8,3.8-16.7c1.6-3.1,2.7-7.2,4-10.9c3.2-7.9-1.9-29.3,1.5-50.2c1.9-11.5-0.7-20.6,2.8-24.4c6-6.6,9.8-20.3,9.8-20.3
		s29.4-2.9,32.7-0.9c8.5,5.3,7.5,8.7,22.7,7.9c13.2-0.7,17.8-9.9,21.4-11.1C330.9,350.8,355.6,352.7,355.6,352.7z"/>
	<path stroke="#000000" stroke-width="3.349" stroke-miterlimit="10" d="M395.5,492.9c-0.4-5.3-0.3-9.8-2.9-11
		c-1.4-0.6-2.7,0.1-6,1.5c-3.9,1.5-8,3.1-12,3.5c-6.6,0.6-19-0.2-19.9,1.1c-3.4,4.4,4.8,16.4,10.8,25c8.7,12.5,11.2,12.4,12.7,18.8
		c1.4,5.7-0.3,7,1.1,19.9c1,9.4,2.3,11.9,3,13.1c1.2,2.2,3,4.6,11.7,11.1c8.9,6.5,13.3,9.8,17.3,10.8c1.1,0.3,13.9,3.4,22.6-4
		c1.4-1.2,3.9-3.5,4.6-6.9c0.2-1.4,0.7-5.5-6.9-14.1c-7.7-8.7-12.4-9-22.1-18.9c-3.8-3.8-5.7-5.7-7.1-8.5c-3.3-6.3-1.3-9.4-2.9-22.1
		C398,500.8,396.3,502.7,395.5,492.9z"/>
	<path stroke="#000000" stroke-width="3.349" stroke-miterlimit="10" d="M253.1,509.5c2.6-5.6,7-15.4,4-18
		c-1.5-1.3-3.6,0.2-10.5,1.7c-7.5,1.6-15.5,3.3-21.1-0.5c-3.6-2.5-3.8-5.4-5.3-5.2c-4.2,0.6-4.5,23.8-4.5,28.6
		c-0.3,20.1,2.4,21.2-0.1,28.3c-1.9,5.1-3.6,5.4-19.8,23.9c-11.6,13.2-14.3,17.1-13.3,21.3c1.5,6,9.6,8.7,11.6,9.4
		c9.7,3.2,18.4-1.4,19.8-2.2c5-2.8,4.3-4.6,14.8-14.7c7.6-7.4,8.4-6.7,9.5-9.4c2.2-5.3-0.2-8.7-0.7-22.2c-0.1-4.3-0.2-6.4,0.1-8.9
		C238.9,529.5,245.6,525.8,253.1,509.5z"/>
	<path fill="#FFF200" stroke="#000000" stroke-width="3.349" stroke-miterlimit="10" d="M200.5,239.5c0,0-2.7,3.4-11.2,9.5
		c-7.1,5.1-21.8,17.8-34.1,38.5c-11.5,19.5-9.4,27.2-24.1,48.6c-11.4,16.4-19.1,21.2-22.1,22.9c-12,6.8-25.6,8.2-32.4,8.4
		c-14.2,0.5-19.4-3.3-22.2,0.1c-4.8,5.8,4.3,25.6,18.7,37.3c7.3,6,17.6,10.4,38.3,19.1c11,4.6,9.9,3.7,13,5.4
		c19.2,10.4,17.7,22.7,32.3,31.6c12.6,7.7,14.3,9.5,39.3,7.9c14.7-0.9,24,8.9,26.4,5.2c0.5-0.8,1.3-1,3.3-5.6
		c2.5-5.7,3.8-9.7,6-15.4c2.1-5.1-5.3-23.1-0.7-47.8c2.1-11,4.7-22.4,8.3-31.5c5.3-13.7,1.3-3.6,5.3-13.7c3.1-7.7,6.1-33.7,8.3-39.2
		c5.7-14.7-12.3-41.4-16.1-46.4c-1.3-1.7-15.1-14.2-26-24.3C206.9,246.1,201.8,240.9,200.5,239.5z"/>
	<path fill="#FFF200" stroke="#000000" stroke-width="3.349" stroke-miterlimit="10" d="M261.5,470.7c1.5,1.4,26.5-10.7,42.9-10.7
		c24.8,0,42.6,11.1,44.7,8.1c2.3-3.3-9.7-10.1-24-28.8c-6.7-8.7-20-32.2-22.7-32.1c-2.4,0.1-12.4,18.9-22.9,33.1
		C269,454.9,260.4,469.6,261.5,470.7z"/>
	<path fill="#F3D9CC" stroke="#F3D9CC" stroke-width="3.349" stroke-miterlimit="10" d="M288.1,218.6c0,0-1.8-16.5-3.4-26.2
		c0,0-8.3,4.7-30.7-2.5c-2.7-0.9-11.7-2.2-22.8-12.2c-5-4.6-6.3-11.3-7.5-15.7c-2.6-9.1,0.1-10.1-0.2-21.4c0,0,2.3-0.8-3.8-5.4
		c-0.8-0.6-4.6-0.3-5.4,0.2c-2,1.1-5.6,2.6-9.6,1.6c-5.9-1.5-8.5-7.3-9.9-10.7c-1.1-2.6-4.3-10.1-0.8-13.9c2.7-2.9,7.8-2.6,11.2-1.6
		c10.3,3.1,12.5,15.7,15.7,15c2.7-0.6-1-5.7,1.7-20.6c0.8-4.2,0.3-5.2,4.4-14c2.9-6.1,6-14,11.4-17.7c5.6-3.8,11.1-7.8,26.4-9.8
		c16.9-2.2,19.6-1.3,38.4-3.2c7.9-0.8,19.4-1.4,36.4,5.3c6.3,2.5,11.7,26.8,14.3,29.9c9.3,11.3,0.7,14.5,1.8,17.6
		c0,0.1,0.1,0.1,0.1,0.1c0.8,0.3,3.4-3.9,7-6.9c1.1-0.8,4.7-3.8,9.8-4c3.4-0.2,9.2,0.6,11.5,4c5.2,8.3-3.7,17-13.7,23
		c-10.5,6.2-4.9,31.3-9.1,40.3c-3.4,7.3-8,13.1-20.1,18.1c-14.5,5.9-28.2,7.8-34.4,4.9l0,0c-4.9,9.5,0.1,18.5,0.1,18.5
		c0.1,1.1,0.2,2.9,0.4,5.1c-1.3,1.2-3.6,2.8-6.8,3.8c-0.9,0.3-2,0.5-3.3,0.6C291.9,221.2,288.1,218.6,288.1,218.6z"/>
	<path fill="none" stroke="#C49A6C" stroke-width="3.349" stroke-miterlimit="10" d="M211.1,127.1c0.5-0.8-1.5-3.5-4.1-4.6
		c-3-1.3-6.6-0.6-6.7,0.4C200,124.5,210.2,128.5,211.1,127.1z"/>
	<path fill="none" stroke="#C49A6C" stroke-width="3.349" stroke-miterlimit="10" d="M362.2,120.8c-0.5-0.8,2.9-4,6.8-5.4
		c3.4-1.2,7.6-1.3,7.8-0.4C377.1,116.6,363,122.2,362.2,120.8z"/>
	<g>
		<path fill="#FFFFFF" stroke="#000000" stroke-width="3.349" stroke-miterlimit="10" d="M274.8,128.9c-3,2-6.1-2.8-14.3-2.3
			c-7.7,0.4-10.6,4.7-13,3.1c-3.2-2.2-0.8-10.6,2-20.4c2.2-7.9,4.2-11.3,7.4-13.6c1.3-1,3.8-2.9,6.6-2.4c1.4,0.2,4.5,1.2,8.4,10.4
			C272.4,105.3,280.5,125.2,274.8,128.9z"/>
		<path fill="#2E3192" stroke="#000000" stroke-width="3.349" stroke-miterlimit="10" d="M269.9,123.8c4.1-6.1,1.1-13.1,0.6-14.2
			c-0.2-0.5-4.2-9.1-10.7-8.6c-5.8,0.5-8.6,8.4-9,9.7c-2,5.8,2.5,17.4,10.2,16.4C266.4,126.4,266.8,128.5,269.9,123.8z"/>
		<path fill="#27AAE1" stroke="#000000" stroke-width="3.349" stroke-miterlimit="10" d="M261,126.6c3.6-0.5,4.8-1.1,4.7-5.2
			c0-1.9-1.4-6.8-4.8-6.6c-3.5,0.2-4.6,1.5-4.6,6.1C256.2,124,257.4,127.1,261,126.6z"/>
	</g>
	<g>
		<path fill="#FFFFFF" stroke="#000000" stroke-width="3.349" stroke-miterlimit="10" d="M333.7,125.8c-3,2-6.1-2.8-14.3-2.3
			c-7.7,0.4-10.6,4.7-13,3.1c-3.2-2.2-0.8-10.6,2-20.4c2.2-7.9,4.2-11.3,7.4-13.6c1.3-1,3.8-2.9,6.6-2.4c1.4,0.2,4.4,1.2,8.4,10.4
			C331.3,102.1,339.5,121.9,333.7,125.8z"/>
		<path fill="#2E3192" stroke="#000000" stroke-width="3.349" stroke-miterlimit="10" d="M328.9,120.6c4.1-6.1,1.1-13.1,0.6-14.2
			c-0.2-0.5-4.2-9.1-10.7-8.6c-5.8,0.5-8.6,8.4-9,9.7c-2,5.8,2.5,17.4,10.2,16.4C325.3,123.1,325.7,125.3,328.9,120.6z"/>
		<path fill="#27AAE1" stroke="#000000" stroke-width="3.349" stroke-miterlimit="10" d="M319.9,123.4c3.6-0.5,4.8-1.1,4.7-5.2
			c0-1.9-1.4-6.8-4.8-6.6c-3.5,0.2-4.6,1.5-4.6,6.1C315.2,120.8,316.3,123.9,319.9,123.4z"/>
	</g>
	<path fill="none" stroke="#FFDE17" stroke-width="3.349" stroke-miterlimit="10" d="M271.9,79.6c-5.2-1.4-15.5,0.9-22.7,10.2"/>
	<path fill="none" stroke="#FFDE17" stroke-width="3.349" stroke-miterlimit="10" d="M331.5,85.3c-0.3-4.9-11-8.4-23.9-7.7"/>
	<line fill="none" stroke="#000000" stroke-width="3.349" stroke-miterlimit="10" x1="266.8" y1="94.2" x2="266.8" y2="94.2"/>
	<g>
		<path fill="none" stroke="#C49A6C" stroke-width="3.349" stroke-miterlimit="10" d="M300.3,144.5c-0.6-0.4-4.3-3-8.8-1.8
			c-3.8,1.1-7.8,4.8-7.3,9.3c0.4,3.3,3.1,5.6,5.6,6.5c3.3,1.2,7,0.4,9.8-2.1"/>
	</g>
	<path fill="none" stroke="#BE1E2D" stroke-width="3.349" stroke-miterlimit="10" d="M343.2,161.8c-1.6-2.2-5.8-4.1-5.8-4.1
		s-3.3,4.8-5.5,8.2c-7.6,11.1-19.3,14.7-23.5,15.8c-6.4,1.7-11.5,1.4-16.5,1.1c-3.8-0.2-9.9,0-16.7-3.1c-3.7-1.7-7.4-3.4-12.9-6.7
		c-6-3.8-6.9-5.2-6.9-5.2c-4.1-3.7-5.3-4.3-5.3-4.3s-2,2.5-2.5,4.1"/>
	<path fill="#FFDE17" stroke="#F9ED32" stroke-width="3.349" stroke-miterlimit="10" d="M368.1,93.3c1.2-4.9,2.6-8.7,2.8-16.9
		c0.2-6,0.4-13.5-2-23.2c-2.1-8.5-3.9-15.9-10.4-22.4c-4.7-4.8-10.4-7.5-12.8-8.7c-3.3-1.6-6-2.4-11.5-4c-4.9-1.6-8.6-2.3-8-1.6
		c1.3,1.7,9.7,9.9,11.3,23.3c0.3,2.8,1,8.5-2.2,13.4c-3,4.4-7.4,5.7-7,7.4c0.5,2.1,7,0.1,12.2,3.8c1.7,1.2,2.6,2.5,6.6,12.6
		c4.7,12,4.6,13.2,7.5,19.1c1.4,3,4.6,9.2,4.6,9.2l0,0C359.3,105.1,365.7,102.9,368.1,93.3z"/>
	<path fill="#FFDE17" stroke="#F9ED32" stroke-width="3.349" stroke-miterlimit="10" d="M310.3,6.3c-4.2-1.8-11.2-4.1-21.5-5.3
		c-8.4-0.9-20.6-2.3-34.9,2.2c-6.4,2-27.4,8.5-36.5,26.7c-6.4,12.8-3.3,16.2-5.2,34.4c-0.5,4.2-17,10-9.9,36.2
		c0.9,3.1,2.6,5.9,3.7,7.8c3.5,6,10.7,15.8,14,14.5c3.2-1.2-1.3-10.8,2.5-25.2c0.9-3.5,3.3-12.2,10.7-20c6-6.3,12.5-9.1,16.2-10.6
		c7.1-3,10-2.4,30.7-4.3c25.2-2.4,24.3-3.2,29.9-2.5c6.9,0.8,8.8,0.8,15.1,0.4c5.2-0.3,9.3-6.1,10.2-7.9c4.5-9.7,0.4-19.8-1.3-24.1
		c-1.3-3.3-4.1-8.8-9.6-13.9C319.5,10.3,314.9,8.2,310.3,6.3z"/>
	
		<use xlink:href="#Blond_Hair_4"  width="22.6" height="15.3" x="-11.3" y="-7.7" transform="matrix(-4.9055 -0.5439 0.2746 -2.477 271.5399 34.6742)" overflow="visible"/>
	
		<use xlink:href="#Blond_Hair_4"  width="22.6" height="15.3" x="-11.3" y="-7.7" transform="matrix(-5.1236 -0.568 0.2906 -2.6217 270.238 57.1453)" overflow="visible" enable-background="new    "/>
	
		<use xlink:href="#Blond_Hair_1"  width="16.2" height="6.8" x="-8.1" y="-3.4" transform="matrix(-1.5062 -1.7151 1.3344 -1.1719 353.7788 44.3601)" overflow="visible"/>
	
		<use xlink:href="#Blond_Hair_1"  width="16.2" height="6.8" x="-8.1" y="-3.4" transform="matrix(-1.5062 -1.7151 1.3344 -1.1719 354.2085 63.0721)" overflow="visible" enable-background="new    "/>
	<g>
		<path fill="#2E3192" stroke="#000000" stroke-width="3.349" stroke-miterlimit="10" d="M121,181.1c-13.7-7.6-9.4-51.1-31-53
			c-12-1-14.3-3.9-14.2-4.5c0.1-0.5,14.1,0,13.6-4.5c-0.4-4.2-15.2-3.8-15.2-3.2c0,0.6,14.8-1.3,14.5-5.4c-0.3-3.7-16.3-1-16.3-1.1
			s15.7-3.7,15.5-5.5c-0.3-3-16.5-2-16.5-2.2s15.5-0.4,15.7-2.4c0.5-3.8-16.9-6.7-16.4-6.6c0.3,0,11.3,4.2,13.5,1.2
			c2.2-2.9-3.5-9.8-2.8-13.8c0.4-2.3,5.3-3.8,7-1.4c2.3,3.3,4.1,8.1,4.3,10.5c0.4,5.2,2,10.7,18.6,30.6
			c28.9,34.5,41.8,40.6,39.5,49.6C148.6,178.9,130.6,186.4,121,181.1z"/>
		<path fill="none" stroke="#000000" stroke-width="3.349" stroke-miterlimit="10" d="M70.8,92.5c0.1,3.2,0.3,6.2,0.5,9.1
			c0.2,2.9,0.5,5.5,0.8,7.9c0.3,2.5,0.6,4.7,1,6.6c0.8,4.6,1.8,7.5,2.7,7.4"/>
		<g>
			<g>
				<path d="M71.8,95.2c0,2-0.4,4.8,2,4.9c1.2,0.1,1.7-0.1,2.8,0.1c0.9,0.2,1.8,0.3,2.7,0.3c1.8-0.1,3.5-0.6,5.1-1.2
					c0.8-0.3,0.8-1.4,0-1.6c-2.1-0.6-4.1-1.5-6.2-2.2c-1.4-0.5-3.2-1.3-4.6-1.1c-0.3,0-0.5,0.3-0.6,0.6c-0.3,1.2-0.5,3.1,1,3.4
					c0.7,0.1,1.4,0,2.1,0.2c0.7,0.2,1.3,0.5,2,0.7c1.1,0.3,2,0.4,3.1,0.3c0.9-0.1,0.7-1.4,0-1.6c-2.3-0.8-4.4-1.7-6.8-1.9
					c-1.1-0.1-1.1,1.6,0,1.7c2.2,0.2,4.3,1.1,6.4,1.9c0-0.5,0-1.1,0-1.6c-1.8,0.3-3.2-0.8-4.8-1.1c-0.4-0.1-1,0.1-1.2-0.1
					c-0.6-0.4,0-0.4,0.5-0.4c1.2-0.1,3.1,1,4.2,1.4c1.6,0.6,3.1,1.2,4.6,1.7c0-0.5,0-1.1,0-1.6c-1.3,0.5-2.6,0.9-3.9,1
					c-1.7,0.2-3-0.3-4.5-0.5c-0.7-0.1-1.4,0.2-2,0.2c-0.5,0,0.3,0.1,0.2,0.1c-0.3-0.4-0.2-2.7-0.2-3.4
					C73.4,94.1,71.8,94.1,71.8,95.2L71.8,95.2z"/>
			</g>
		</g>
		<g>
			<g>
				<path d="M72.3,103.7c0.2,1.4,0.3,2.9,0.5,4.2c0.1,0.7,1.2,1.3,1.6,0.4c0.7-1.5,3.8-1.6,5-1.9c1.7-0.4,3.3-1,4.8-1.5
					c0.6-0.2,0.8-0.9,0.4-1.4c-1.6-1.6-3.8-1.2-5.8-1.1c-1.3,0.1-5-0.5-5.5,1.2c-0.3,1.1,0.5,2.5,1.6,2.5c1.3,0,2.7-0.5,3.9-0.5
					c1.4,0,2.7-0.1,4-0.5c1-0.3,0.6-1.9-0.4-1.6c-1.6,0.5-3.1,0.4-4.6,0.4c-0.8,0-2.6,0.4-2.9,0.4c2.3,0,6.8-1.5,8.6,0.4
					c0.1-0.5,0.2-0.9,0.4-1.4c-2.4,0.8-4.6,1.6-7.1,2.1c-1.6,0.3-3.1,0.5-3.8,2.2c0.5,0.1,1,0.3,1.6,0.4c-0.2-1.4-0.3-2.9-0.5-4.2
					C73.9,102.6,72.2,102.6,72.3,103.7L72.3,103.7z"/>
			</g>
		</g>
		<g>
			<g>
				<path d="M77.4,104.8c0.8,0,1.7-0.2,2.5-0.1c0.6,0.1,1,0.5,1.5,0.7c1.1,0.3,3.4,0.1,4.4-0.3c0.4-0.1,0.6-0.4,0.6-0.8v-0.1
					c0-0.3-0.2-0.6-0.4-0.7c0,0-0.1,0-0.1-0.1c-0.9-0.5-1.8,0.9-0.8,1.4c0,0,0.1,0,0.1,0.1c-0.1-0.2-0.3-0.5-0.4-0.7v0.1
					c0.2-0.3,0.4-0.5,0.6-0.8c-0.7,0.3-1.7,0.2-2.4,0.3c-0.9,0.1-1.1,0-1.8-0.4c-1.1-0.5-2.6-0.2-3.8-0.1
					C76.4,103.2,76.4,104.8,77.4,104.8L77.4,104.8z"/>
			</g>
		</g>
		<g>
			<g>
				<path d="M73.8,106.9c0.4,0,0.8,0,1.2,0c1.1,0,1.1-1.7,0-1.7c-0.4,0-0.8,0-1.2,0C72.7,105.3,72.7,106.9,73.8,106.9L73.8,106.9z"
					/>
			</g>
		</g>
		<g>
			<g>
				<path d="M73.6,111.9c4.4-0.2,9-0.4,13.4-0.6c-0.1-0.5-0.1-1.1-0.2-1.6c-2.8,0.9-5.4,1.8-8.2,2.8c-0.7,0.2-1.4,0.4-2,0.7
					c-0.3,0.1-0.6,0.2-0.8,0.4c-0.3,0.4-0.4,0.3-0.4-0.2c0-0.3-0.1-0.5-0.3-0.5c-0.4-0.2-0.3-0.2,0.3-0.1c0.5-0.2,2.1,0,2.6,0
					c1.1-0.1,2.2-0.2,3.3-0.3c0.4-0.1,2.6-0.5,2.7-0.4c-0.2-0.3-1.6-0.1-1.9-0.1c-0.8,0.1-1.5,0.4-2.2,0.7c-0.5,0.2-1.1,0.6-1.6,0.8
					c-0.5,0.4-1,0.4-1.6-0.1c-0.8,0-1.1-0.2-1-0.8c0.2,0.5,0.4,0.9,0.6,1.4c0.1-0.1,0.3-0.1,0.4-0.2c1.1-0.1,1.1-1.8,0-1.7
					c-0.8,0.1-1,0.2-1.6,0.7c-0.6,0.5,0,1.4,0.6,1.4c1.6,0.2,2.1-1.9,0.7-2.7c-1.6-0.9-2.6,0.6-2.3,2c0.4,2.5,2.8,2.2,4.6,1.4
					c0.7-0.3,1.4-0.7,2.2-1c1-0.4,2-0.2,3-0.5c0.7-0.2,1.7-0.5,2-1.3c0.9-2.2-2-1.8-3.2-1.7c-2.3,0.3-4.5,0.6-6.9,0.6
					c-0.9,0-1.8-0.2-2.3,0.6c-0.6,1,0.2,3.3,1.4,3.6c1.3,0.3,4.3-1.3,5.5-1.7c2.3-0.8,4.4-1.5,6.7-2.3c0.9-0.3,0.8-1.7-0.2-1.6
					c-4.4,0.2-9,0.4-13.4,0.6C72.5,110.3,72.5,111.9,73.6,111.9L73.6,111.9z"/>
			</g>
		</g>
		<g>
			<g>
				<path d="M74.6,118.7c2.4-0.2,4.8-0.4,7.2-0.2c1.1,0.1,2.2,0.2,3.2,0.3c1.6,0.6,2,0.5,1.3-0.1c-0.7,0.4-1.4,0.7-2.2,1
					c-1.7,0.7-4.7,1.9-6.5,1.4c-1.1-0.2-1.4-0.7-0.8-1.5c0.3,0,0.5,0,0.8,0c0.7-0.3,2-0.3,2.7-0.5c0.8-0.2,3.7-0.9,2.2,0.4
					c-0.5,0.4-2.7,0.7-3.3,0.7c-1.9,0.1-0.7-0.1,0.2-0.2c0.9-0.2,1.8-0.4,2.7-0.6c0.9,0,1.8-0.2,2.7-0.6c-0.6,0.1-1.2,0.2-1.8,0.3
					c-0.9,0.2-1.8,0.4-2.7,0.7c-0.6,0.2-1.2,0.4-1.7,0.6c0.1,0.7,0.5,0.8,1.1,0.3c1,0,2.2-0.6,3.2-0.8c1.1-0.2,0.6-1.8-0.4-1.6
					c-1.5,0.3-7.2,1.1-4.9,3.8c0.2,0.2,0.6,0.3,0.8,0.2c2-0.8,4-1.4,6.1-1.8c0.9-0.2,1.9-0.2,2-1.2c0.4-2.4-3.5-1.8-4.6-1.5
					c-1.4,0.3-6.3,0.3-5.9,2.9c0.4,2.9,5.5,0.9,7,0.5c1.3-0.3,4.4-1.5,2.9-3.3c-0.8-1-2.6-0.9-3.6-0.8c-0.7,0.1-1.4,0.3-2,0.4
					c-1.2,0.3-2.5,0.2-3.8,0.4c-1.8,0.4-1.6,2.8-0.7,4c1.5,2,6.5,0.2,8.3-0.4c1-0.4,6.2-2.1,3.8-3.9c-1-0.8-3.8-0.7-4.9-0.8
					c-2.8-0.2-5.4,0-8.2,0.2C73.5,117.1,73.5,118.8,74.6,118.7L74.6,118.7z"/>
			</g>
		</g>
	</g>
	<g>
		<path fill="#2E3192" stroke="#000000" stroke-width="3.349" stroke-miterlimit="10" d="M460.5,181.6c12.7-9.2,3.2-51.9,24.4-56.4
			c11.8-2.5,13.7-5.6,13.5-6.2c-0.1-0.5-14,1.7-14.1-2.9c-0.1-4.2,14.6-5.5,14.7-5c0.1,0.6-14.9,0.6-15-3.7
			c-0.1-3.7,16.1-3,16.1-3.1s-16-1.8-16-3.7c-0.1-3,16.1-3.9,16.1-4.1c0-0.2-15.4,1.5-15.9-0.5c-1-3.7,16-8.7,15.4-8.6
			c-0.3,0.1-10.7,5.6-13.3,2.9c-2.5-2.6,2.3-10.1,1.1-14c-0.7-2.3-5.7-3.2-7.1-0.6c-1.9,3.5-3.2,8.6-3.1,11
			c0.3,5.2-0.6,10.9-14.8,32.6c-24.6,37.8-36.5,45.3-33.2,54C432.8,182.8,451.7,188.1,460.5,181.6z"/>
		<path fill="none" stroke="#000000" stroke-width="3.349" stroke-miterlimit="10" d="M499.6,88c0.3,3.3,0.4,3.8,0.5,6.8
			c0.1,3,0.5,9.1,0.5,11.6c0,2.6-0.3,1.6-0.4,3.6c-0.3,4.9-0.9,7.9-1.8,8"/>
		<g>
			<g>
				<path d="M497.8,90.8c0.1,0.6-0.1,1.8,0.2,2.3c-0.1,0.5,0.1,0.7,0.6,0.4c0.7,0,0.8,0,0.2-0.1c-1-0.3-2.1,0-3.1,0.3
					c-3.2,1-5.9,1.1-9.3,0.5c0,1.1,0,2.1,0,3.2c1.8-0.7,3.6-1.5,5.3-2.3c1.7-0.7,4.4-2.4,6.3-2.4c-0.5-0.3-1-0.6-1.4-0.8
					c0,0.4,0.1,0.9,0.1,1.3c0.3-0.5,0.6-1,0.8-1.4c-0.2,0.1-2.4,0.4-3.1,0.7c-1.6,0.6-2.9,1.4-4.6,1.4c0,1.1,0,2.2,0,3.3
					c0.5-0.1,1.7,1.4,2.2,1.7c0.8,0.3,1.5,0.4,2.3,0c1.8-0.8,2.1-3.9,3.8-4.5c2-0.7,1.1-3.8-0.9-3.2c-1.9,0.7-2.5,2.3-3.6,3.8
					c-0.8,1.1-0.5,0.5-1.5-0.3c-0.7-0.5-1.3-0.8-2.2-0.8c-2.1,0.2-2.2,3.3,0,3.3c1.6,0,2.9-0.4,4.3-1c0.8-0.3,1.5-0.7,2.3-0.9
					c0.4-0.1,1.5-0.1,2-0.3c2.1-0.8,1.7-3.1,0.9-4.7c-0.2-0.5-0.9-0.8-1.4-0.8c-2,0-4,1.2-5.8,1.9c-2.3,0.9-4.4,2-6.7,2.9
					c-1.4,0.5-1.8,2.9,0,3.2c2,0.4,3.9,0.7,5.9,0.6c2.2-0.1,4-1.1,6.1-1.3c1.2-0.1,2.3,0.4,3.2-0.8c1-1.3,0.5-3.6,0.3-5
					C500.8,88.8,497.5,88.7,497.8,90.8L497.8,90.8z"/>
			</g>
		</g>
		<g>
			<g>
				<path d="M498.1,97.8c0,1.6,0,3.1,0,4.6c1-0.3,2.1-0.6,3.1-0.8c-1.2-1.8-2.8-2.1-4.8-2.2c-3.2-0.2-6.2-0.6-9.3-1.2
					c0.2,0.9,0.5,1.9,0.7,2.8c1.2-1.4,3.4-1.1,5-1.2c1.1-0.1,4.4-0.7,4.9-0.3c-0.3-0.5-0.6-1-0.8-1.4c0.1,1.6,0.2,3.3,0.1,4.8
					c1.1-0.1,2.2-0.3,3.3-0.4c-0.1-0.6-0.1-2.7-0.6-3.7c-0.3-0.5-0.9-0.9-1.4-0.8c-1.5,0.1-2.9-0.1-4.3,0c-1.7,0.2-3.4,0.5-5.1,0.2
					c-2.1-0.3-3,2.9-0.9,3.2c1.8,0.3,3.4,0.2,5.1,0c1.8-0.2,3.5,0,5.2-0.1c-0.5-0.3-1-0.6-1.4-0.8c0.2,0.3,0.1,2.1,0.3,2.9
					c0.4,1.9,3.2,1.4,3.3-0.4c0.1-1.9,0.6-5.9-1.7-6.6c-1-0.3-2.4,0-3.4,0.1c-1.5,0.1-3.1,0.2-4.5,0.3c-2,0.2-3.9,0.4-5.3,2
					c-0.7,0.9-0.6,2.5,0.7,2.8c2,0.4,4,0.7,6,1c1.4,0.2,5.3-0.3,6.1,0.9c0.9,1.3,3.1,0.9,3.1-0.8c0-1.6,0-3.1,0-4.6
					C501.3,95.7,498.1,95.7,498.1,97.8L498.1,97.8z"/>
			</g>
		</g>
		<g>
			<g>
				<path d="M495.5,97.8c-1.2,0.1-2.5,0-3.6,0.4c-0.7,0.3-1.1,0.7-1.9,0.8c-0.7,0.1-1.8,0.2-2.4,0.1c0.2,0.2,0.4,0.4,0.6,0.6v-0.1
					c-0.1,0.3-0.3,0.6-0.4,0.9c0,0,0.1,0,0.1-0.1c0.9-0.6,0-2.1-0.8-1.4c0,0-0.1,0-0.1,0.1c-0.3,0.2-0.5,0.5-0.4,0.9v0.1
					c0.1,0.3,0.3,0.5,0.6,0.6c1.2,0.3,3.2,0.2,4.3-0.1c0.5-0.1,0.7-0.6,1.2-0.8c0.8-0.4,2-0.2,2.9-0.3
					C496.6,99.3,496.6,97.7,495.5,97.8L495.5,97.8z"/>
			</g>
		</g>
		<g>
			<g>
				<path d="M499.3,99.5c-0.4,0-0.8,0.1-1.2,0.1c-1.1,0.1-1.1,1.8,0,1.7c0.4,0,0.8-0.1,1.2-0.1C500.4,101.1,500.4,99.4,499.3,99.5
					L499.3,99.5z"/>
			</g>
		</g>
		<g>
			<g>
				<path d="M500.1,103.6c-4.9,0.4-9.9,0.8-14.7,1.2c-1.7,0.1-2.4,2.9-0.4,3.3c2.6,0.5,5,0.9,7.6,1.4c2.1,0.4,4.3,1.1,6.4,1
					c0.6,0,1.2-0.3,1.4-0.8c0.7-1.4,1.3-3.9-0.4-4.7c-1.2-0.6-2.9,0-4,0.1c-2.1,0.2-4,0.1-6.1,0.1c-1.6,0-4.4-0.1-4.1,2.4
					c0.3,2.9,4.1,2.2,5.9,2.4c2.4,0.3,5.5,2.2,7.7,0.4c1.2-1,1.6-3.7,0.3-4.7c-1.3-1.1-3.8-0.3-4.1,1.4c-0.5,1.9,1.3,3,2.9,2.6
					c1.4-0.3,1.6-2.4,0.4-3c-0.7-0.4-1.2-0.5-2-0.5c-2.1,0.1-2.1,3.4,0,3.3c0.1,0,0.2,0,0.3,0.1c0.1-1,0.3-2,0.4-3
					c0.4,0.2,0.8,0.4,1.2,0.6c-0.1,0.5-0.3,1.1-0.4,1.6c0.6-0.7-9.6-2.2-9.5-2c0,0.6,0,1.1,0,1.7c-0.4,1,9.5-0.5,9.9-0.2
					c-0.3-0.5-0.6-1-0.8-1.4c0,0.5,0,1.1-0.2,1.6c0.5-0.3,1-0.6,1.4-0.8c-2.2,0.1-4.5-0.7-6.7-1.1c-2.2-0.4-4.3-0.8-6.5-1.2
					c-0.1,1.1-0.3,2.2-0.4,3.3c4.9-0.4,9.9-0.8,14.7-1.2C502.2,106.7,502.3,103.4,500.1,103.6L500.1,103.6z"/>
			</g>
		</g>
		<g>
			<g>
				<path d="M499.7,110c-4.2,0.1-10,0.2-13.8,2.5c-2.6,1.6-0.9,4.1,1.1,5.1c3.2,1.7,7.4,3,11,2.3c3.1-0.6,3.1-4.7,2.2-7.1
					c-0.3-0.8-0.8-1.1-1.6-1.2c-2.3-0.3-3.3,3-3.7,4.6c-0.1,0.3-0.2,0.6-0.4,0.9c1.1-0.1,1.3-0.3,0.7-0.7c-0.1-0.4-1.1-1.3-1.4-1.6
					c-0.7-0.9-1.4-1.9-2.4-2.6c-1.9-1.3-4.6-0.1-4.4,2.5c0.3,3.8,6.1,3.9,8.8,4.2c2.9,0.3,4.6-1.8,3.6-4.5c-0.3-0.8-1-2.4-1.7-3
					c-1-0.8-1.6-0.3-2.7,0c-2.3,0.7-8.2-0.5-8.3,3.4c0,1.3,0.6,2.2,1.9,2.5c1.3,0.4,2.7,0.3,3.9,0.6c1.3,0.3,2.6,0.8,3.8,1.3
					c0.7,0.3,1.5-0.2,1.9-0.8c2.7-4-4.3-5.2-6.7-5.5c-2.1-0.3-2.1,3.1,0,3.3c0.9,0.1,1.8,0.3,2.6,0.6c0.8,0.2,1,0.5,1.3,0
					c0.6-0.3,1.3-0.5,1.9-0.8c-1.4-0.6-2.9-1.1-4.3-1.4c-1.3-0.3-2.7-0.3-3.8-0.7c0.4,0.4,0.8,0.8,1.2,1.2c0.1,0.3,3.8-0.1,4.2-0.1
					c0.6-0.1,1.3-0.3,1.8-0.6c0.8-0.4,1.2,0-0.2-0.3c-0.4-0.4-0.8-0.8-1.2-1.2c0.3,0.8,1.1,1.5,1.2,2.3c0.4,0.5,0.4,0.7-0.1,0.4
					c-0.4-0.2-0.8-0.2-1.3-0.3c-0.9-0.2-1.7-0.3-2.6-0.4c-0.6-0.1-1.2-0.2-1.8-0.2c-1.1-0.2-1.3-0.2-0.7,0.2c0,0.2,0.9,1,1,1.1
					c0.7,0.8,1.3,1.8,2.1,2.5c1.1,1.1,2.7,1.9,4,0.7c0.6-0.5,0.8-1.3,1.1-2c0.2-0.5,0.4-1,0.5-1.5c0.1-0.3,0.2-0.5,0.3-0.8
					c0.4-0.5,0.3-0.6-0.2-0.2c-0.5-0.4-1.1-0.8-1.6-1.2c0.3,0.7,0.5,2.9,0.2,3.2c-0.1,0.1-1.8-0.1-2.2-0.1c-2.5-0.2-4-1.3-6.3-1.9
					c-0.8-0.7-1-0.7-0.7,0c0.1,0.6,0.4,0.7,1.1,0.1c1-0.1,2-0.6,2.9-0.8c2.6-0.6,5.1-0.7,7.8-0.8C501.8,113.2,501.8,110,499.7,110
					L499.7,110z"/>
			</g>
		</g>
	</g>
	<path fill="#F7941E" stroke="#000000" stroke-width="3.349" stroke-miterlimit="10" d="M312.5,212.1c-0.2-0.2,0,0.9-2.8-0.3
		c-2.4-1.1-2-0.8-2-0.8s0.3,3.5-0.6,6.3c-1.2,3.9-6.4,5.9-8.3,6.2c-2,0.4-9.7,0.9-12.2-2.4c-2.1-2.7-2.3-8.9-2.3-8.9l-6.9,0.4
		c0,0,2.1,9.6,5.1,12.7c3.8,3.9,8.1,4.2,11.2,4.3c2.9,0.2,9.4,0.5,14.4-3.9C312.6,221.7,314.3,213.9,312.5,212.1z"/>
</g>
</svg>
