<?xml version="1.0" encoding="utf-8"?>
<!-- Generator: Adobe Illustrator 18.1.0, SVG Export Plug-In . SVG Version: 6.00 Build 0)  -->
<!DOCTYPE svg PUBLIC "-//W3C//DTD SVG 1.1//EN" "http://www.w3.org/Graphics/SVG/1.1/DTD/svg11.dtd">
<svg version="1.1" id="Layer_1" xmlns="http://www.w3.org/2000/svg" xmlns:xlink="http://www.w3.org/1999/xlink" x="0px" y="0px"
	 viewBox="0 0 919.8 680.8" enable-background="new 0 0 919.8 680.8" xml:space="preserve">
<g>
	
		<image overflow="visible" opacity="0.5" width="496" height="587" xlink:href="A7EC8280C28BE8F7.png"  transform="matrix(1 0 0 1 446.4962 -8.0801)">
	</image>
	<g>
		<g>
			<path fill="#593B2B" stroke="#593B2B" stroke-width="3" stroke-miterlimit="10" d="M697.6,205.5c0,0,0.9-15.3,1.8-24.5
				c0,0,8,4,28.5-4c2.4-0.9,10.7-2.4,20.5-12.6c4.6-4.6,5.2-10.7,6.1-15c1.8-8.6-0.6-9.5-0.9-19.9c0,0-2.1-0.6,3.4-5.2
				c0.6-0.6,4.3-0.6,5.2,0c1.8,0.9,5.2,2.1,8.9,0.9c5.5-1.5,7.3-7.3,8.6-10.4c0.9-2.4,3.4-9.5,0-12.9c-2.4-2.4-7.3-1.8-10.4-0.9
				c-9.5,3.4-10.7,15.3-13.8,14.7c-2.4-0.3,0.6-5.2-2.8-19c-0.9-4-0.6-4.9-4.9-12.9c-3.1-5.5-6.4-12.6-11.3-15.9
				c-5.5-3.4-10.7-6.7-25.1-7.7c-15.9-1.2-18.4-0.3-35.8-0.9c-7.3-0.3-18.1-0.3-33.7,6.7c-5.8,2.8-9.5,25.4-11.9,28.5
				c-8,11,0,13.5-0.6,16.5l0,0c-0.6,0.3-3.4-3.7-6.7-6.1c-0.9-0.6-4.6-3.4-9.2-3.4c-3.1,0-8.6,0.9-10.4,4.3
				c-4.6,8,4.3,15.6,13.8,20.8c10.1,5.2,6.1,28.8,10.4,37c3.4,6.7,8,11.6,19.6,15.9c13.8,4.9,26.6,5.8,32.1,2.8l0,0
				c5.2,8.6,0.9,17.1,0.9,17.1c0,0.9,0,2.8,0,4.9c1.2,0.9,3.4,2.4,6.4,3.1c0.9,0.3,1.8,0.3,3.1,0.3
				C694.2,208.2,697.6,205.5,697.6,205.5z"/>
			<path fill="#8DC63F" stroke="#000000" stroke-width="3" stroke-miterlimit="10" d="M671.6,200.9c-3.7-2.8-8.6-1.5-16.5,0
				c-3.7,0.9-8.9,1.8-15,5.2c-9.2,4.9-13.8,10.4-22.3,17.1c-11.9,9.2-20.8,19.9-32.4,28.8c-0.3,0-9.8,5.2-20.5,14.1
				c-3.1,2.4-6.1,5.2-7.3,9.8c-1.2,4.9,0.6,11,3.7,11.9c1.8,0.6,3.1-1.8,8.9-5.2c4-2.4,7.3-4.3,11.3-4c4.3,0.3,4.6,2.4,7.7,2.4
				c5.8,0.3,13.2-10.1,17.8-13.2c4-2.8,9.8-4,16.2-10.1c3.1-3.1,3.7-2.8,6.4-4c2.8-1.5,7-7,12.6,1.5c3.4,5.5,2.8,18.7,3.1,24.2
				c0.3,4.6,0,16.5-2.1,24.8c0,0-0.3,1.5-2.1,8.6l-1.2,5.2c0.9,1.8,7-0.3,16.5,0c9.5,0.3,10.7,2.1,15.6,0.9
				c5.2-1.2,5.5-3.7,11.6-5.8c5.2-1.8,11.6-1.5,13.2-1.2c5.2,1.2,5.8,2.8,11.9,4.9c1.8,0.6,0.9,0,5.5,0.6c8,1.2,12.9,1.2,17.4,0.6
				c4.3-0.6,4.9-1.2,5.2-1.5c2.1-2.8-2.1-7.3-4-16.5c-0.6-2.8-0.9-10.4-0.9-19c0-4.9-0.9-9.2,2.8-17.1c4.9-10.7,8.6-10.1,11.6-11.3
				c3.7-1.5,10.1,3.4,22.7,13.5c10.4,8,13.2,11.3,19,11.9c3.4,0.3,5.8-0.3,10.4,0.9c2.1,0.6,6.7,2.1,9.8,6.1
				c2.4,3.1,2.4,5.2,3.7,5.2c2.1,0,4-4.9,4.6-8.9c0.3-1.2,0.6-4.6-0.6-8.3c-1.8-6.1-6.7-9.2-11.3-12.2c0,0-1.5-1.2-23.3-17.1
				c-9.2-6.7-7.3-6.1-18.7-14.4c-11.6-8.6-12.6-8.6-17.1-12.9c-6.7-6.4-7-8.9-12.2-11.9c-3.4-1.8-7-2.4-15-4
				c-9.5-1.8-11-1.2-11.9-0.6c-3.4,2.4-0.6,7-4,11.3c-3.7,4.3-10.1,4.6-12.2,4.6c-2.4,0-7.7,0.3-11.3-3.1
				C673.4,208.5,675.9,203.9,671.6,200.9z"/>
			<polygon fill="#262262" stroke="#000000" stroke-width="3" stroke-miterlimit="10" points="672.8,231.8 653.2,252 672.8,280.2 
				712.6,280.2 732.2,252.3 712,231.8 			"/>
			<polygon fill="#00A79D" stroke="#000000" stroke-width="3" stroke-miterlimit="10" points="667.6,252 679.9,270.1 703.4,270.1 
				717.8,252 711.1,243.1 675.3,243.1 			"/>
			<path stroke="#000000" stroke-width="3" stroke-miterlimit="10" d="M562.6,290c-0.9,3.4,1.8,7,9.2,14.4
				c16.2,16.2,18.7,14.1,25.4,22.7c6.7,8.3,8,14.7,17.1,21.1c4,2.8,6.7,3.7,9.2,3.1c4.9-1.5,6.7-8.9,7.7-13.5
				c1.2-5.2,2.4-11.3-0.9-15.9c-2.8-3.7-7-4.6-10.4-5.2c-7-1.5-8.9,0.9-12.2,0c-10.7-3.1-5.8-30-18.7-36.1
				c-5.2-2.4-12.2-1.5-15.3-0.6C570.9,280.8,564.1,285.1,562.6,290z"/>
			<path stroke="#000000" stroke-width="3" stroke-miterlimit="10" d="M787.9,279.2c-11.6,4.6-7,30-19.6,36.1
				c-6.4,3.1-11-1.5-18.1,3.1c-7,4.6-8.3,13.2-8.3,14.1c-0.9,7.7,2.4,17.4,8.9,19c4,1.2,8-1.2,10.7-3.1c8-5.2,8.9-10.4,15.6-18.7
				c2.8-3.7,2.1-2.1,24.2-22.3c7-6.4,10.1-9.5,9.8-13.5c-0.3-5.8-6.4-12.2-8.3-13.2C800.5,279.6,793.4,277.1,787.9,279.2z"/>
			<path fill="#F7941E" stroke="#000000" stroke-width="3" stroke-miterlimit="10" d="M637,320c-0.9,3.7-2.1,7.7-3.1,11.3h33.7
				l3.7-12.2L637,320z"/>
			<polygon fill="#F7941E" stroke="#000000" stroke-width="3" stroke-miterlimit="10" points="708.9,319.7 708.9,333.4 739.2,331.3 
				735.9,319 			"/>
			<path fill="#2E3192" stroke="#000000" stroke-width="3" stroke-miterlimit="10" d="M672.2,321.2c-0.3,0.9-4,7.3-0.9,13.5
				c3.7,8,15,8.3,17.1,8.3c2.4,0,14.4,0,19-9.2c0.3-0.3,3.7-7.3,0-14.1c-4.9-9.2-18.7-7.3-20.2-7.3
				C684.8,312.6,676.5,313.8,672.2,321.2z"/>
			<path fill="#00A79D" stroke="#000000" stroke-width="3" stroke-miterlimit="10" d="M680.5,323c-1.8,3.1-1.5,7,0.6,9.8
				c3.4,4.3,10.7,3.4,14.4,0c2.1-1.8,4.3-5.5,3.1-8.9c-1.2-3.1-5.5-4-7.3-4C689.6,319.7,683.5,318.7,680.5,323z"/>
			<path fill="#8DC63F" stroke="#000000" stroke-width="3" stroke-miterlimit="10" d="M635.5,332.2c0,0-4.6,10.1-7.3,19.9
				c-0.6,1.5-2.4,9.2-3.7,13.5c-7.7,26.6-5.8,53.3-8.6,56c-4,3.7-4.3,6.1-5.5,11.3c-1.2,6.1-1.2,9.5-1.5,15c0,2.8-1.5,4.9-0.9,6.7
				c0.6,2.8,4.9,4,7.7,4.6c1.5,0.6,8.6,1.5,14.1,1.2c5.8-0.3,12.9-3.1,12.9-3.1v-2.1c0,0,0.6-7,1.8-10.4c3.7-10.4,8.6-17.1,15-24.8
				c20.8-23.9,22-36.7,26.6-38.3c0,0,8.6,12.9,31.8,41c7,8.6,12.6,14.4,12.9,23.3c0,5.2-1.5,10.4,1.5,13.5c0.6,0.6,1.8,1.5,9.8,2.1
				c14.1,0.9,18.4-1.8,19.6-2.4c1.5-0.9,4-2.8,4-5.2s0.6-4.3,0-7c-1.2-7-0.6-8.9-4.3-15.3c-1.5-2.8-2.8-6.4-4.3-9.8
				c-3.4-7,0.3-27.2-4-46.5c-2.4-10.7-0.3-19.3-4-22.7c-5.8-5.8-10.1-18.4-10.1-18.4s-27.6-1.2-30.3,0.9c-7.7,5.5-6.4,8.6-20.8,8.6
				c-12.2,0-17.1-8.3-20.5-9.2C656.9,330.4,635.5,332.2,635.5,332.2z"/>
			<path stroke="#000000" stroke-width="3" stroke-miterlimit="10" d="M603.9,465.7c0-4.9-0.3-9.2,2.1-10.4c1.2-0.6,2.4,0,5.8,0.9
				c3.7,1.2,7.7,2.4,11.3,2.4c6.1,0.3,17.8-1.2,18.7,0c3.4,4-3.7,15.6-8.9,23.9c-7.3,11.9-9.8,12.2-10.7,18.1
				c-0.9,5.5,0.6,6.4,0,18.7c-0.6,8.9-1.5,11.3-2.1,12.2c-0.9,2.1-2.4,4.6-10.4,10.7c-8,6.4-11.9,9.8-15.6,10.7
				c-0.9,0.3-12.9,4-21.1-2.4c-1.5-0.9-4-3.1-4.6-6.1c-0.3-1.2-0.9-5.2,5.8-13.5c6.7-8.6,11-8.9,19.6-18.7c3.4-3.7,4.9-5.5,6.1-8.3
				c2.8-6.1,0.6-8.9,1.5-20.5C602.1,473.3,603.9,474.9,603.9,465.7z"/>
			<path stroke="#000000" stroke-width="3" stroke-miterlimit="10" d="M737.4,473.9c-2.8-5.2-7.3-14.1-4.6-16.5
				c1.2-1.2,3.4,0,9.8,0.9c7,1.2,14.7,2.1,19.6-1.5c3.4-2.4,3.4-5.2,4.6-5.2c4,0.3,5.5,21.7,5.8,26.3c1.2,18.7-1.2,19.9,1.5,26.3
				c1.8,4.6,3.7,4.9,19.6,21.1c11.6,11.6,14.1,15.3,13.5,19c-0.9,5.8-8.6,8.6-10.4,9.2c-8.9,3.4-17.1-0.3-18.7-0.9
				c-4.9-2.4-4.3-4-14.4-12.9c-7.3-6.4-8-5.8-9.2-8.3c-2.4-4.9-0.3-8-0.6-20.5c0-4,0-6.1-0.6-8.3
				C751.5,491.7,745.1,488.6,737.4,473.9z"/>
			<path fill="#F7941E" stroke="#000000" stroke-width="3" stroke-miterlimit="10" d="M738,207.3c0,0,26.9,5.5,47.5,20.2
				c6.7,4.9,21.1,15.3,33.7,34c11.6,17.4,10.1,24.8,24.8,43.8c11.3,14.7,19,18.7,21.7,20.2c11.6,5.8,24.2,6.4,30.6,6.1
				c13.2-0.3,18.1-4,20.5-0.9c4.9,5.2-2.8,23.9-15.6,35.5c-6.4,5.8-15.9,10.4-34.6,19.6c-9.8,4.9-8.9,4-11.9,5.8
				c-17.4,10.7-15.3,22-28.5,30.9c-11.3,7.7-12.9,9.5-36.1,9.2c-13.8,0-22.7,8.3-25.4,5.5c-2.4-2.4,0.9,3.4-2.1-4.3
				c-1.8-5.5-4-8.9-6.4-14.1c-2.1-4.6,3.7-21.7-1.8-44.4c-2.4-10.1-3.1-21.4-3.1-21.4s5.5-1.5,11.3-4.3c7.7-3.7,9.8-10.4,14.4-18.1
				c11.9-19.6,23.6-15.9,34.6-35.5c3.7-6.7,7-12.6,5.8-19.6c-1.2-6.4-5.5-10.4-22.7-23.9c-11.9-9.2-17.1-14.1-24.8-18.7
				C753.9,224.1,736.8,208.8,738,207.3z"/>
			<g>
				<path fill="#27AAE1" stroke="#000000" stroke-width="3" stroke-miterlimit="10" d="M744.4,253.5c5.5-4,9.8,2.4,23.9,12.2
					c10.4,7.3,18.4,9.5,18.1,12.9c0,2.4-2.8,1.5-4.6,6.4c-3.4,9.5-3.1,22-11.3,28.8c-5.8,4.6-13.5-1.2-21.1,4.3
					c-6.7,4.9-7.7,13.2-9.8,12.9c-1.8-0.3-2.1-6.7-2.4-12.2c-0.6-8.3-3.7-14.1-4.6-19c-1.5-8.3-0.9-15.3-0.3-18.1
					c0.6-2.4,4.3-6.7,7-14.1C741.1,261.8,742.3,255.1,744.4,253.5z"/>
			</g>
			<path fill="#F7941E" stroke="#000000" stroke-width="3" stroke-miterlimit="10" d="M727.6,438.4c-1.2,1.2-25.1-8.6-40.4-7.7
				c-23,1.2-39.2,12.6-41,9.8c-2.1-3.1,8.6-9.8,20.8-27.9c5.8-8.6,16.8-30.9,19.6-30.9c2.1,0,12.6,16.8,23,29.7
				C720,424,728.5,437.2,727.6,438.4z"/>
			<path fill="#F7941E" stroke="#000000" stroke-width="3" stroke-miterlimit="10" d="M609.1,428.9c-6.1,6.4-13.5-8.6-28.5-14.1
				c-14.7-5.2-18.4,2.8-30.9-1.5c-18.1-6.1-13.5-23.6-34.6-36.1c-3.7-2.1-14.4-5.5-36.1-12.2c-18.1-5.8-20.5-5.8-21.7-8.9
				c-4-10.1,23.9-21.7,51.7-57.9c15.9-20.8,14.4-26.6,30.6-42.2c10.4-10.1,19.9-16.2,38.9-28.5c15-9.8,25.7-15.3,38.9-19
				c7.7-2.1,22.7-3.1,22.7-3.1s-7,6.7-21.7,17.4c-21.4,15.9-18.1,15.9-34.3,27.9c-18.4,13.2-27.2,16.2-28.5,25.4
				c-0.6,4.6,1.2,8.6,4,14.1c4.6,9.2,9.2,11.3,22.7,24.2c11,10.7,16.5,15.9,19.6,20.5c4.3,6.1,6.4,11.3,12.9,14.4s13.2-0.9,12.2,3.1
				c-0.9,5.8-8,19.3-8.6,45.9c0,6.4-0.6,13.2-2.1,20.8C615.9,423.7,612.8,425.3,609.1,428.9z"/>
			<g>
				<path fill="#F7941E" stroke="#000000" stroke-width="3" stroke-miterlimit="10" d="M744.4,253.5c6.4-1.5,9.8,2.4,23.9,12.2
					c10.4,7.3,18.4,9.5,18.1,12.9c0,2.4-2.8,1.5-4.6,6.4c-3.4,9.5-3.1,22-11.3,28.8c-5.8,4.6-13.5-1.2-21.1,4.3
					c-6.7,4.9-7.7,13.2-9.8,12.9c-1.8-0.3-2.1-6.7-2.4-12.2c-0.6-8.3-3.7-14.1-4.6-19c-1.5-8.3-0.6-15.3-0.9-18.1
					c-0.6-4.3-0.6-14.1,3.7-19.9C738.6,256.9,741.7,254.1,744.4,253.5z"/>
			</g>
			<g>
				<path fill="#F7941E" stroke="#000000" stroke-width="3" stroke-miterlimit="10" d="M638.2,250.8c-1.5-0.6-14.1,4.6-29.1,14.4
					c-10.7,7-18.4,8.9-18.4,12.6c0,2.4,0,2.4,3.1,7c5.5,8.6,3.1,23.6,11.3,30.6c5.5,4.9,14.4-2.1,21.7,3.7
					c6.7,5.2,7.7,12.9,9.8,12.6c1.8-0.3,2.4-6.7,2.8-12.2c0.9-8.3,4-14.1,5.2-19c1.5-8.3,1.2-15.3,0.6-18.1
					c-0.6-2.4,1.2-13.8-1.2-20.8C641.9,255.4,640.7,252,638.2,250.8z"/>
			</g>
			<path fill="#F7941E" stroke="#000000" stroke-width="3" stroke-miterlimit="10" d="M673.1,200.3c0-0.3,0,0.9,2.4-0.3
				c2.1-1.2,1.8-0.9,1.8-0.9s0,3.1,0.9,5.8c1.2,3.7,6.1,5.2,8,5.5c1.8,0.3,8.9,0.3,11.3-2.8c1.8-2.4,1.8-8.3,1.8-8.3h6.4
				c0,0-1.5,8.9-4,11.9c-3.4,4-7.3,4.3-10.1,4.6c-2.8,0.3-8.6,0.9-13.5-3.1C673.4,209.1,671.6,202.1,673.1,200.3z"/>
			<path fill="none" stroke="#3C2415" stroke-width="3" stroke-miterlimit="10" d="M764.7,116.4c-0.6-0.6,1.2-3.4,3.7-4.6
				c2.8-1.2,6.1-0.9,6.4,0C774.8,113.6,765.6,117.9,764.7,116.4z"/>
			<path fill="none" stroke="#3C2415" stroke-width="3" stroke-miterlimit="10" d="M623.8,118.2c0.3-0.6-2.8-3.7-6.7-4.6
				c-3.1-0.9-7-0.9-7.3,0C609.7,115.2,623.2,119.7,623.8,118.2z"/>
			<g>
				<path fill="#FFFFFF" stroke="#000000" stroke-width="3" stroke-miterlimit="10" d="M705.6,121.6c2.8,1.5,5.5-2.8,13.2-2.8
					c7,0,10.1,4,12.2,2.1c2.8-2.1,0.3-9.8-2.8-19c-2.4-7.3-4.6-10.1-7.7-12.2c-1.2-0.9-3.7-2.4-6.4-1.8c-1.2,0.3-4,1.2-7.3,10.1
					C706.5,99.2,700.1,118.2,705.6,121.6z"/>
				<path fill="#3C2415" stroke="#000000" stroke-width="3" stroke-miterlimit="10" d="M709.9,116.4c-4.3-5.5-1.8-12.2-1.2-13.2
					c0.3-0.3,3.7-8.6,9.5-8.6c5.5,0.3,8.3,7.3,8.9,8.6c2.1,5.2-1.5,16.2-8.6,15.6C713.2,118.5,712.9,120.7,709.9,116.4z"/>
				<path fill="#603913" stroke="#000000" stroke-width="3" stroke-miterlimit="10" d="M718.1,118.5c-3.4-0.3-4.6-0.9-4.6-4.6
					c0-1.8,0.9-6.4,4.3-6.4c3.4,0,4.3,1.2,4.6,5.5C722.4,116.1,721.5,118.8,718.1,118.5z"/>
			</g>
			<g>
				<path fill="#FFFFFF" stroke="#000000" stroke-width="3" stroke-miterlimit="10" d="M650.5,121.6c2.8,1.5,5.5-2.8,13.2-2.8
					c7,0,10.1,4,12.2,2.1c2.8-2.1,0.3-9.8-2.8-19c-2.4-7.3-4.6-10.1-7.7-12.2c-1.2-0.9-3.7-2.4-6.4-1.8c-1.2,0.3-4,1.2-7.3,10.1
					C651.7,99.2,645,118.2,650.5,121.6z"/>
				<path fill="#3C2415" stroke="#000000" stroke-width="3" stroke-miterlimit="10" d="M654.7,116.4c-4.3-5.5-1.8-12.2-1.2-13.2
					c0.3-0.3,3.7-8.6,9.5-8.6c5.5,0.3,8.3,7.3,8.9,8.6c2.1,5.2-1.5,16.2-8.6,15.6C658.1,118.5,657.8,120.7,654.7,116.4z"/>
				<path fill="#603913" stroke="#000000" stroke-width="3" stroke-miterlimit="10" d="M663.3,118.5c-3.4-0.3-4.6-0.9-4.6-4.6
					c0-1.8,0.9-6.4,4.3-6.4s4.3,1.2,4.6,5.5C667.6,116.1,666.7,118.8,663.3,118.5z"/>
			</g>
			<path fill="none" stroke="#000000" stroke-width="3" stroke-miterlimit="10" d="M705.6,75.4c4.9-1.5,14.4,0,21.7,8.3"/>
			<path fill="none" stroke="#000000" stroke-width="3" stroke-miterlimit="10" d="M650.5,83.6c0-4.6,9.8-8.3,21.7-8.3"/>
			<line fill="none" stroke="#000000" stroke-width="3" stroke-miterlimit="10" x1="711.1" y1="82.7" x2="711.1" y2="82.7"/>
			<g>
				<path fill="none" stroke="#3C2415" stroke-width="3" stroke-miterlimit="10" d="M691.5,136.9c-0.6-0.3-4.3-2.4-8.3-1.2
					c-3.7,1.2-7,4.9-6.4,8.9c0.6,3.1,3.1,5.2,5.5,5.8c3.1,0.9,6.4,0,8.9-2.4"/>
			</g>
			<path fill="none" stroke="#BE1E2D" stroke-width="3" stroke-miterlimit="10" d="M643.4,155.3c1.2-2.1,5.2-4,5.2-4
				s3.4,4.3,5.5,7.3c7.7,9.8,18.7,12.6,22.7,13.5c6.1,1.2,10.7,0.6,15.3,0.3c3.7-0.3,9.2-0.6,15.3-3.7c3.4-1.8,6.7-3.4,11.6-7
				c5.5-3.7,6.1-5.2,6.1-5.2c3.7-3.7,4.6-4.3,4.6-4.3s1.8,2.1,2.4,3.7"/>
			<path stroke="#000000" stroke-width="3" stroke-miterlimit="10" d="M617.1,93.1c-1.2-4.6-2.8-8-3.4-15.6
				c-0.6-5.5-0.9-12.6,0.6-21.7c1.5-8,2.8-15,8.6-21.4c4.3-4.6,9.2-7.7,11.6-8.9c3.1-1.5,5.5-2.4,10.4-4.3c4.6-1.5,8-2.4,7.3-1.8
				c-1.2,1.5-8.6,9.5-9.2,22c-0.3,2.4-0.6,8,2.8,12.2c3.1,4,7,4.9,6.7,6.4c-0.3,1.8-6.4,0.3-11.3,4c-1.5,1.2-2.1,2.4-5.5,11.9
				c-3.7,11.3-3.7,12.6-6.1,18.1c-1.2,2.8-4,8.9-4,8.9l0,0C625.7,103.5,619.5,101.7,617.1,93.1z"/>
			<path stroke="#000000" stroke-width="3" stroke-miterlimit="10" d="M666.4,9.2c4-1.8,10.1-4.6,19.6-6.1c7.7-1.2,19-3.1,32.4,0.3
				c6.1,1.5,26,6.4,35.2,23c6.7,11.6,4,15,6.4,31.8c0.6,4,16.2,8.6,11,33.1c-0.6,3.1-2.1,5.5-3.1,7.3c-2.8,5.8-9.2,15.3-12.2,14.4
				c-3.1-0.9,0.6-10.1-3.7-23.3c-0.9-3.1-3.7-11.3-11-18.1c-5.8-5.5-11.9-8-15.6-9.2c-6.7-2.4-9.5-1.5-28.8-2.4
				c-23.6-0.9-22.7-1.8-27.9-0.9c-6.4,1.2-8,1.2-14.1,1.2c-4.9,0-8.9-5.2-9.8-6.7c-4.6-8.9-1.5-18.4,0-22.3
				c0.9-3.1,3.4-8.3,8.3-13.5C657.8,13.5,662.1,11.4,666.4,9.2z"/>
		</g>
	</g>
</g>
<g>
	
		<image overflow="visible" opacity="0.5" width="489" height="597" xlink:href="A7EC8280C28BE8F5.png"  transform="matrix(1 0 0 1 -8.5038 105.9199)">
	</image>
	<g>
		<g>
			<g>
				<path stroke="#000000" stroke-width="3" stroke-miterlimit="10" d="M35.1,293.3c0-2.7,25.1-2.1,40.8-19.9
					c5.7-6.6,8.2-13.3,18.7-22.1c4.8-3.9,10-7.3,9.4-8.5c-0.9-2.1-17.2,5.7-19.9,2.1s10.3-15.4,24.2-34.4c19.3-26.9,13.6-32,28.1-48
					c17.2-18.7,38.1-26.3,48.9-30.2c0,0,25.1-10.3,43.8-8.5c4.5,0.6,9.1,1.5,9.1,1.5s3,0.6,6,1.8c10,3.3,34.1,25.1,36,23.9
					c0.9-0.9-10.3-13-19.6-20.5c-9.4-7.6-21.8-10.3-21.5-11.2c3-6.3,49.6,19.3,52.6,22.1c3.3,2.7-10.3-26-9.7-25.7
					c1.2,0.6,17.5,22.1,25.1,35c6.9,12.4,6.6,11.5,14.5,23.6c7.3,10.9,7.6,26,8.5,35.3c0.9,8.2,0.6,15.7,0.3,19.3
					c-0.3,5.7-1.2,10-1.5,11.8c-0.6,3.9-2.1,11.2-5.7,19.3c-2.1,4.8-4.5,9.1-5.7,11.2c0,0-0.6,1.2-1.5,2.4
					c-8.2,12.7-17.8,21.1-17.8,21.1c-3.9,3.3-13.9,13.6-28.1,17.2c-9.7,2.4-29.3,6.3-29.6,6.3c0,0,0.6-11.2,0.3-6
					c0,0,49.2-6.6,55.6-30.5c2.7-10.3-3.3-27.2,3-27.2c3.6,0,5.7,3.3,11.5,0.6c9.4-4.2,16-19.3,10.6-24.5c-3-3-10.3-1.8-14.5,0.9
					c-6.9,4.5-7.6,12.7-9.4,12.4c-2.4-0.3,1.8-13.9-5.1-25.1c-2.7-4.5-4.8-4.5-10.6-12.4c-3.3-4.8-5.1-7.6-6.3-11.5
					c-2.1-8.2,1.2-12.7-0.9-14.5c-3-2.7-10,3.9-20.8,7.3c-15.4,4.8-18.4-3.3-35.7,0c-12.1,2.4-9.4,6.3-32.3,14.5
					c-4.2,1.5-8.8,3-12.4,7.3c-6,6.9-6.3,15.7-6.3,16.6c0,8.2,3.9,14.2,3,14.5c-1.2,0.6-5.1-10-13.6-11.5c-3.9-0.6-9.1,0.6-11.5,4.2
					c-3,4.5-0.9,10.3,0,12.4c3.3,9.1,9.7,8.2,13.6,16.6c2.7,6,0,7.6,3,16.6c2.1,6.6,5.4,11.2,7.3,13.6c2.7,3.6,6.3,8.8,12.4,12.4
					c4.5,3,9.7,3.9,19.9,6.3c0,0,4.5-0.6,18.4,1.8c-0.6-3.3,0.6,8.8-0.9,11.8c-2.1,4.5-14.2,1.2-27.2,0.9c-8.5,0-5.7,1.2-47.1,11.5
					c0,0-16.6,4.2-32.6,5.1l0,0c-14.8,0.9-22.1,1.5-22.7,0c-0.6-2.4,20.2-14.5,18.7-11.5c-0.3,0.6-67.4-0.6-72.2-5.1
					c-5.4-5.4,43.8-29.3,36.6-29.3C71.1,297.5,35.1,302.7,35.1,293.3z"/>
				<path fill="#E8B68A" stroke="#E8B68A" stroke-width="3" stroke-miterlimit="10" d="M239.1,334.1c0,0,0.9-15.1,1.8-24.2
					c0,0,7.9,3.9,28.1-3.9c2.4-0.9,10.6-2.4,20.2-12.4c4.5-4.5,5.1-10.6,6-14.8c1.8-8.5-0.6-9.4-0.9-19.6c0,0-2.1-0.6,3.3-5.1
					c0.6-0.6,4.2-0.6,5.1,0c1.8,0.9,5.1,2.1,8.8,0.9c5.4-1.5,7.3-7.3,8.5-10.3c0.9-2.4,3.3-9.4,0-12.7c-2.4-2.4-7.3-1.8-10.3-0.9
					c-9.4,3.3-10.6,15.1-13.6,14.5c-2.4-0.3,3-6-0.3-19.6c-0.9-3.9-1.5-5.4-7.3-11.8c-4.2-4.5-8.2-10.6-11.2-15.7
					c-2.7-3.9-1.2-17.2-4.5-18.1c-6-1.2-7.6,5.4-19.6,9.4c-15.1,5.1-18.7-3.6-36,0c-8.8,1.8-5.4,3.6-32.6,15.4
					c-6.6,3-9.1,3.9-11.2,6.9c-7.9,10.9-0.9,27.2-1.8,28.7c-0.9,1.2-6-9.1-16-9.1c-3.3,0-8.5,1.2-10.3,4.2
					c-4.5,7.9,6.3,13.9,13.6,26.6c5.7,9.7,6.3,22.4,10.6,30.2c3.3,6.6,7.9,11.5,19.3,15.7c13.6,4.8,26.3,5.7,31.7,2.7l0,0
					c5.1,8.5,0.9,16.9,0.9,16.9c0,0.9,0,2.7,0,4.8c1.2,0.9,3.3,2.4,6.3,3c0.9,0.3,1.8,0.3,3,0.3
					C235.7,336.8,239.1,334.1,239.1,334.1z"/>
				<path fill="#662D91" stroke="#000000" stroke-width="3" stroke-miterlimit="10" d="M213.4,329.6c-3.6-2.7-8.5-1.5-16.3,0
					c-3.6,0.9-8.8,1.8-14.8,5.1c-9.1,4.8-13.6,10.3-22.1,16.9c-11.8,9.1-20.5,19.6-32,28.4c-0.3,0-9.7,5.1-20.2,13.9
					c-3,2.4-6,5.1-7.3,9.7c-1.2,4.8,0.6,10.9,3.6,11.8c1.8,0.6,3-1.8,8.8-5.1c3.9-2.4,7.3-4.2,11.2-3.9c4.2,0.3,4.5,2.4,7.6,2.4
					c5.7,0.3,13-10,17.5-13c3.9-2.7,9.7-3.9,16-10c3-3,4.2-5.4,6-5.1c3,0.3,2.4,6.9,7.6,15.4c3.3,5.4,3.9,6,5.4,10.9
					c1.5,4.2,2.4,16.6,0,25.1c0,0-1.8,0.6-2.1,8.5l-1.2,5.1c0.9,1.8,6.9-0.3,16.3,0c9.4,0.3,10.6,2.1,15.4,0.9
					c5.1-1.2,5.4-3.6,11.5-5.7c5.1-1.8,11.5-1.5,13-1.2c5.1,1.2,5.7,2.7,11.8,4.8c1.8,0.6,0.9,0,5.4,0.6c7.9,1.2,12.7,1.2,17.2,0.6
					c4.2-0.6,4.8-1.2,5.1-1.5c2.1-2.7-2.1-7.3-3.9-16.3c-0.6-2.7-2.4-10.6,0-18.7c1.5-5.1,3-4.8,6.6-12.7
					c4.8-10.6,3.6-13.9,6.6-15.4c3.6-1.5,10,3.3,22.4,13.3c10.3,7.9,13,11.2,18.7,11.8c3.3,0.3,5.7-0.3,10.3,0.9
					c2.1,0.6,6.6,2.1,9.7,6c2.4,3,2.4,5.1,3.6,5.1c2.1,0,3.9-4.8,4.5-8.8c0.3-1.2,0.6-4.5-0.6-8.2c-1.8-6-6.6-9.1-11.2-12.1
					c0,0-1.5-1.2-23-16.9c-9.1-6.6-7.3-6-18.4-14.2c-11.5-8.5-12.4-8.5-16.9-12.7c-6.6-6.3-6.9-8.8-12.1-11.8
					c-3.3-1.8-6.9-2.4-14.8-3.9c-9.4-1.8-10.9-1.2-11.8-0.6c-3.3,2.4-0.6,6.9-3.9,11.2c-3.6,4.2-10,4.5-12.1,4.5
					c-2.4,0-7.6,0.3-11.2-3C215.2,337.4,217.6,332.6,213.4,329.6z"/>
				<polygon fill="#27AAE1" stroke="#000000" stroke-width="3" stroke-miterlimit="10" points="214.6,360.1 195.2,380 214.6,408.1 
					253.9,408.1 273.2,380.6 253.3,360.1 				"/>
				<polygon fill="#FBB040" stroke="#000000" stroke-width="3" stroke-miterlimit="10" points="209.4,380 221.5,397.9 244.8,397.9 
					259,380 252.3,371.3 217,371.3 				"/>
				<path fill="#F7941E" stroke="#000000" stroke-width="3" stroke-miterlimit="10" d="M104.3,415.1c-0.9,3.3,3.3,9.4,10.6,16.9
					c16,16,18.4,13.9,25.1,22.4c6.6,8.2,7.9,14.5,16.9,20.8c3.9,2.7,6.6,3.6,9.1,3c4.8-1.5,6.6-8.8,7.6-13.3
					c1.2-5.1,2.4-11.2-0.9-15.7c-2.7-3.6-6.9-4.5-10.3-5.1c-6.9-1.5-8.8,0.9-12.1,0c-10.6-3-5.7-29.6-18.4-35.7
					c-5.1-2.4-10.9-2.1-13.6-1.2C115.5,408.1,105.8,410.5,104.3,415.1z"/>
				<path fill="#F7941E" stroke="#000000" stroke-width="3" stroke-miterlimit="10" d="M329.1,406.6c-12.4,0.9-7.6,30.2-20.2,36.3
					c-6.3,3-10.9-1.5-17.8,3c-6.9,4.5-8.2,13-8.2,13.9c-0.9,7.6,2.4,17.2,8.8,18.7c3.9,1.2,7.9-1.2,10.6-3
					c7.9-5.1,8.8-10.3,15.4-18.4c2.7-3.6,2.1-2.1,23.9-22.1c6.9-6.3,10-9.4,9.7-13.3c-0.3-5.7-6-11.8-7.9-13
					C340.9,407.5,334.5,406,329.1,406.6z"/>
				<path fill="#F7941E" stroke="#000000" stroke-width="3" stroke-miterlimit="10" d="M179.2,447.4c-0.9,3.6-2.1,7.6-3,11.2h33.2
					l3.6-12.1L179.2,447.4z"/>
				<polygon fill="#F7941E" stroke="#000000" stroke-width="3" stroke-miterlimit="10" points="250.2,447.1 250.2,460.7 
					280.1,458.6 276.8,446.2 				"/>
				<path fill="#00AEEF" stroke="#000000" stroke-width="3" stroke-miterlimit="10" d="M214,448.3c-0.3,0.9-3.9,7.3-0.9,13.3
					c3.6,7.9,14.8,8.2,16.9,8.2c2.4,0,14.2,0,18.7-9.1c0.3-0.3,3.6-7.3,0-13.9c-4.8-9.1-18.4-7.3-19.9-7.3
					C226.4,440.2,218.2,441.1,214,448.3z"/>
				<path fill="#FFFFFF" stroke="#000000" stroke-width="3" stroke-miterlimit="10" d="M222.1,450.4c-1.8,3-1.5,6.9,0.6,9.7
					c3.3,4.2,10.6,3.3,14.2,0c2.1-1.8,4.2-5.4,3-8.8c-1.2-3-5.4-3.9-7.3-3.9C231.2,447.1,225.2,445.9,222.1,450.4z"/>
				<path fill="#662D91" stroke="#000000" stroke-width="3" stroke-miterlimit="10" d="M176.2,460.7c0,0-3,8.5-5.7,18.4
					c-0.6,1.5-2.4,9.1-3.6,13.3c-7.6,26.3-5.7,52.6-8.5,55.3c-3.9,3.6-4.2,6-5.4,11.2c-1.2,6-1.2,9.4-1.5,14.8
					c0,2.7-1.5,4.8-0.9,6.6c0.6,2.7,4.8,3.9,7.6,4.5c1.5,0.6,8.5,1.5,13.9,1.2c5.7-0.3,12.7-3,12.7-3v-2.1c0,0,0.6-6.9,1.8-10.3
					c3.6-10.3,8.5-16.9,14.8-24.5c20.5-23.6,21.8-36.3,26.3-37.8c0,0,8.5,12.7,31.4,40.5c6.9,8.5,12.4,14.2,12.7,23
					c0,5.1-1.5,10.3,1.5,13.3c0.6,0.6,1.8,1.5,9.7,2.1c13.9,0.9,18.1-1.8,19.3-2.4c1.5-0.9,3.9-2.7,3.9-5.1s0.6-4.2,0-6.9
					c-1.2-6.9-0.6-8.8-4.2-15.1c-1.5-2.7-2.7-6.3-4.2-9.7c-3.3-6.9,0.3-26.9-3.9-45.9c-2.4-10.6-0.3-19-3.9-22.4
					c-5.7-5.7-10-18.1-10-18.1s-27.2-1.2-29.9,0.9c-7.6,5.4-6.3,8.5-20.5,8.5c-12.1,0-16.9-8.2-20.2-9.1
					C198.9,457.7,176.2,460.7,176.2,460.7z"/>
				<path fill="#F7941E" stroke="#000000" stroke-width="3" stroke-miterlimit="10" d="M146.6,591.2c0-4.8-0.3-9.1,2.1-10.3
					c1.2-0.6,2.4,0,5.7,0.9c3.6,1.2,7.6,2.4,11.2,2.4c6,0.3,17.5-1.2,18.4,0c3.3,3.9-3.6,15.4-8.8,23.6
					c-7.3,11.8-9.7,12.1-10.6,17.8c-0.9,5.4,0.6,6.3,0,18.4c-0.6,8.8-1.5,11.2-2.1,12.1c-0.9,2.1-2.4,4.5-10.3,10.6
					c-7.9,6.3-11.8,9.7-15.4,10.6c-0.9,0.3-12.7,3.9-20.8-2.4c-1.5-0.9-3.9-3-4.5-6c-0.3-1.2-0.9-5.1,5.7-13.3
					c6.6-8.5,10.9-8.8,19.3-18.4c3.3-3.6,4.8-5.4,6-8.2c2.7-6,0.6-8.8,1.5-20.2C144.8,598.5,146.6,600.3,146.6,591.2z"/>
				<path fill="#F7941E" stroke="#000000" stroke-width="3" stroke-miterlimit="10" d="M278.3,599.4c-2.7-5.1-7.3-13.9-4.5-16.3
					c1.2-1.2,3.3,0,9.7,0.9c6.9,1.2,14.5,2.1,19.3-1.5c3.3-2.4,3.3-5.1,4.5-5.1c3.9,0.3,5.4,21.5,5.7,26c1.2,18.4-1.2,19.6,1.5,26
					c1.8,4.5,3.6,4.8,19.3,20.8c11.5,11.5,13.9,15.1,13.3,18.7c-0.9,5.7-8.5,8.5-10.3,9.1c-8.8,3.3-16.9-0.3-18.4-0.9
					c-4.8-2.4-4.2-3.9-14.2-12.7c-7.3-6.3-7.9-5.7-9.1-8.2c-2.4-4.8-0.3-7.9-0.6-20.2c0-3.9,0-6-0.6-8.2
					C292.2,616.9,285.9,613.9,278.3,599.4z"/>
				<path fill="#FFDE17" stroke="#000000" stroke-width="3" stroke-miterlimit="10" d="M278.9,336.2c0,0,26.6,5.4,46.8,19.9
					c6.6,4.8,20.8,15.1,33.2,33.5c11.5,17.2,10,24.5,24.5,43.2c11.2,14.5,18.7,18.4,21.5,19.9c11.5,5.7,23.9,6.3,30.2,6
					c13-0.3,17.8-3.9,20.2-0.9c4.8,5.1-2.7,23.6-15.4,35c-6.3,5.7-15.7,10.3-34.1,19.3c-9.7,4.8-8.8,3.9-11.8,5.7
					c-17.2,10.6-15.1,21.8-28.1,30.5c-11.2,7.6-12.7,9.4-35.7,9.1c-13.6,0-22.4,8.2-25.1,5.4c-2.4-2.4,0.9,3.3-2.1-4.2
					c-1.8-5.4-3.9-8.8-6.3-13.9c-2.1-4.5,3.6-21.5-1.8-43.8c-2.4-10-3-21.1-3-21.1s5.4-1.5,11.2-4.2c7.6-3.6,9.7-10.3,14.2-17.8
					c11.8-19.3,23.3-15.7,34.1-35c3.6-6.6,6.9-12.4,5.7-19.3c-1.2-6.3-5.4-10.3-22.4-23.6c-11.8-9.1-16.9-13.9-24.5-18.4
					C294.6,352.8,277.7,337.4,278.9,336.2z"/>
				<g>
					<path fill="#27AAE1" stroke="#000000" stroke-width="3" stroke-miterlimit="10" d="M285.3,381.5c5.4-3.9,9.7,2.4,23.6,12.1
						c10.3,7.3,18.1,9.4,17.8,12.7c0,2.4-2.7,1.5-4.5,6.3c-3.3,9.4-3,21.8-11.2,28.4c-5.7,4.5-13.3-1.2-20.8,4.2
						c-6.6,4.8-7.6,13-9.7,12.7c-1.8-0.3-2.1-6.6-2.4-12.1c-0.6-8.2-3.6-13.9-4.5-18.7c-1.5-8.2-0.9-15.1-0.3-17.8
						c0.6-2.4,4.2-6.6,6.9-13.9C282,390,283.2,383.1,285.3,381.5z"/>
				</g>
				<path fill="#FFDE17" stroke="#000000" stroke-width="3" stroke-miterlimit="10" d="M268.7,564c-1.2,1.2-24.8-8.5-39.9-7.6
					c-22.7,1.2-38.7,12.4-40.5,9.7c-2.1-3,8.5-9.7,20.5-27.5c5.7-8.5,16.6-30.5,19.3-30.5c2.1,0,12.4,16.6,22.7,29.3
					C261.1,550.1,269.6,563.1,268.7,564z"/>
				<path fill="#FFDE17" stroke="#000000" stroke-width="3" stroke-miterlimit="10" d="M151.7,555c-6,6.3-13.3-8.5-28.1-13.9
					c-14.5-5.1-18.1,2.7-30.5-1.5c-17.8-6-13.3-23.3-34.1-35.7c-3.6-2.1-14.2-5.4-35.7-12.1c-17.8-5.7-20.2-5.7-21.5-8.8
					c-3.9-10,23.6-21.5,51.1-57.1c15.7-20.5,14.2-26.3,30.2-41.7c10.3-10.3,19.6-16.3,38.1-28.1c14.8-9.7,25.4-15.1,38.4-18.7
					c7.6-2.1,22.4-3,22.4-3s-6.9,6.6-21.5,17.2c-20.8,15.7-17.5,15.7-33.5,27.5c-18.1,13-26.9,16-28.1,25.1
					c-0.6,4.5,1.2,8.5,3.9,13.9c4.5,9.1,9.1,11.2,22.4,23.9c10.9,10.6,16.3,15.7,19.3,20.2c4.2,6,6.3,11.2,12.7,14.2
					c6.3,3,13-0.9,12.1,3c-0.9,5.7-7.9,19-8.5,45.3c0,6.3-0.6,13-2.1,20.5C158.4,549.8,155.4,551,151.7,555z"/>
				<g>
					<path fill="#FFDE17" stroke="#000000" stroke-width="3" stroke-miterlimit="10" d="M285.3,381.5c5.4-3.9,9.7,2.4,23.6,12.1
						c10.3,7.3,18.1,9.4,17.8,12.7c0,2.4-2.7,1.5-4.5,6.3c-3.3,9.4-3,21.8-11.2,28.4c-5.7,4.5-13.3-1.2-20.8,4.2
						c-6.6,4.8-7.6,13-9.7,12.7c-1.8-0.3-2.1-6.6-2.4-12.1c-0.6-8.2-3.6-13.9-4.5-18.7c-1.5-8.2-0.9-15.1-0.3-17.8
						c0.6-2.4,4.2-6.6,6.9-13.9C282,390,283.2,383.1,285.3,381.5z"/>
				</g>
				<g>
					<path fill="#FFDE17" stroke="#000000" stroke-width="3" stroke-miterlimit="10" d="M175.3,381.5c-5.4-3.9-9.7,2.1-23.9,11.8
						c-10.6,7.3-18.1,8.8-18.1,12.4c0,2.4,0,2.4,3,6.9c5.4,8.5,3,23.3,11.2,30.2c5.4,4.8,14.2-2.1,21.5,3.6
						c6.6,5.1,7.6,12.7,9.7,12.4c1.8-0.3,2.4-6.6,2.7-12.1c0.9-8.2,3.9-13.9,5.1-18.7c1.5-8.2,1.2-15.1,0.6-17.8
						c-0.6-2.4-4.2-6.9-6.6-13.9C178.6,390,177.7,383.1,175.3,381.5z"/>
				</g>
				<path fill="#F7941E" stroke="#000000" stroke-width="3" stroke-miterlimit="10" d="M214.9,329c0-0.3,0,0.9,2.4-0.3
					c2.1-1.2,1.8-0.9,1.8-0.9s0,3,0.9,5.7c1.2,3.6,6,5.1,7.9,5.4c1.8,0.3,8.8,0.3,11.2-2.7c1.8-2.4,1.8-8.2,1.8-8.2h6.3
					c0,0-1.5,8.8-3.9,11.8c-3.3,3.9-7.3,4.2-10,4.5c-2.7,0.3-8.5,0.9-13.3-3C215.2,338,213.4,330.8,214.9,329z"/>
				<path fill="none" stroke="#C49A6C" stroke-width="3" stroke-miterlimit="10" d="M305.2,246.5c-0.6-0.6,1.2-3.3,3.6-4.5
					c2.7-1.2,6-0.9,6.3,0C315.2,243.5,306.1,247.7,305.2,246.5z"/>
				<path fill="none" stroke="#C49A6C" stroke-width="3" stroke-miterlimit="10" d="M166.2,248.3c0.3-0.6-2.7-3.6-6.6-4.5
					c-3-0.9-6.9-0.9-7.3,0C152.3,245,165.6,249.5,166.2,248.3z"/>
				<g>
					<path fill="#FFFFFF" stroke="#000000" stroke-width="3" stroke-miterlimit="10" d="M186.5,251.3c2.7,1.5,5.4-2.7,13-2.7
						c6.9,0,10,3.9,12.1,2.1c2.7-2.1,0.3-9.7-2.7-18.7c-2.4-7.3-4.5-10-7.6-12.1c-1.2-0.9-3.6-2.4-6.3-1.8c-1.2,0.3-3.9,1.2-7.3,10
						C187.7,229.6,181,248.3,186.5,251.3z"/>
					<path fill="#603913" stroke="#000000" stroke-width="3" stroke-miterlimit="10" d="M190.7,246.5c-4.2-5.4-1.8-12.1-1.2-13
						c0.3-0.3,3.6-8.5,9.4-8.5c5.4,0.3,8.2,7.3,8.8,8.5c2.1,5.1-1.5,16-8.5,15.4C194,248.6,193.7,250.4,190.7,246.5z"/>
					<path fill="#726658" stroke="#000000" stroke-width="3" stroke-miterlimit="10" d="M199.2,248.6c-3.3-0.3-4.5-0.9-4.5-4.5
						c0-1.8,0.9-6.3,4.2-6.3c3.3,0,4.2,1.2,4.5,5.4C203.4,245.9,202.5,248.9,199.2,248.6z"/>
				</g>
				<path fill="none" stroke="#000000" stroke-width="3" stroke-miterlimit="10" d="M240.9,206c4.8-1.5,14.2,0,21.5,8.2"/>
				<path fill="none" stroke="#000000" stroke-width="3" stroke-miterlimit="10" d="M186.5,214.2c0-4.5,9.7-8.2,21.5-8.2"/>
				<line fill="none" stroke="#000000" stroke-width="3" stroke-miterlimit="10" x1="252.3" y1="212.9" x2="252.3" y2="212.9"/>
				<g>
					<path fill="none" stroke="#C49A6C" stroke-width="3" stroke-miterlimit="10" d="M223.9,266.4c-0.6-0.3-4.2-2.4-8.2-1.2
						c-3.6,1.2-6.9,4.8-6.3,8.8c0.6,3,3,5.1,5.4,5.7c3,0.9,6.3,0,8.8-2.4"/>
				</g>
				<path fill="none" stroke="#BE1E2D" stroke-width="3" stroke-miterlimit="10" d="M182.6,284.9c1.2-2.1,5.1-3.9,5.1-3.9
					s3.3,4.2,5.4,7.3c7.6,9.7,18.4,12.4,22.4,13.3c6,1.2,10.6,0.6,15.1,0.3c3.6-0.3,9.1-0.6,15.1-3.6c3.3-1.8,6.6-3.3,11.5-6.9
					c5.4-3.6,6-5.1,6-5.1c3.6-3.6,4.5-4.2,4.5-4.2s1.8,2.1,2.4,3.6"/>
				<g>
					<path fill="#FFFFFF" stroke="#000000" stroke-width="3" stroke-miterlimit="10" d="M238.1,251.3c2.7,1.5,5.4-2.7,13-2.7
						c6.9,0,10,3.9,12.1,2.1c2.7-2.1,0.3-9.7-2.7-18.7c-2.4-7.3-4.5-10-7.6-12.1c-1.2-0.9-3.6-2.4-6.3-1.8c-1.2,0.3-3.9,1.2-7.3,10
						C239.4,229.6,232.7,248.3,238.1,251.3z"/>
					<path fill="#603913" stroke="#000000" stroke-width="3" stroke-miterlimit="10" d="M242.4,246.5c-4.2-5.4-1.8-12.1-1.2-13
						c0.3-0.3,3.6-8.5,9.4-8.5c5.4,0.3,8.2,7.3,8.8,8.5c2.1,5.1-1.5,16-8.5,15.4C245.7,248.6,245.4,250.4,242.4,246.5z"/>
					<path fill="#726658" stroke="#000000" stroke-width="3" stroke-miterlimit="10" d="M250.8,248.6c-3.3-0.3-4.5-0.9-4.5-4.5
						c0-1.8,0.9-6.3,4.2-6.3c3.3,0,4.2,1.2,4.5,5.4C255.1,245.9,254.2,248.9,250.8,248.6z"/>
				</g>
			</g>
		</g>
	</g>
</g>
</svg>
