<?xml version="1.0" encoding="utf-8"?>
<!-- Generator: Adobe Illustrator 18.1.0, SVG Export Plug-In . SVG Version: 6.00 Build 0)  -->
<!DOCTYPE svg PUBLIC "-//W3C//DTD SVG 1.1//EN" "http://www.w3.org/Graphics/SVG/1.1/DTD/svg11.dtd">
<svg version="1.1" id="Layer_1" xmlns="http://www.w3.org/2000/svg" xmlns:xlink="http://www.w3.org/1999/xlink" x="0px" y="0px"
	 viewBox="0 51.8 199.8 148" enable-background="new 0 51.8 199.8 148" xml:space="preserve">
<path fill="#593B2B" stroke="#593B2B" stroke-width="0.75" stroke-miterlimit="10" d="M151.4,96.5c0,0,0.2-3.3,0.4-5.3
	c0,0,1.7,0.9,6.2-0.9c0.5-0.2,2.3-0.5,4.5-2.7c1-1,1.1-2.3,1.3-3.3c0.4-1.9-0.1-2.1-0.2-4.3c0,0-0.5-0.1,0.7-1.1
	c0.1-0.1,0.9-0.1,1.1,0c0.4,0.2,1.1,0.5,1.9,0.2c1.2-0.3,1.6-1.6,1.9-2.3c0.2-0.5,0.7-2.1,0-2.8c-0.5-0.5-1.6-0.4-2.3-0.2
	c-2.1,0.7-2.3,3.3-3,3.2c-0.5-0.1,0.1-1.1-0.6-4.1c-0.2-0.9-0.1-1.1-1.1-2.8c-0.7-1.2-1.4-2.7-2.5-3.5c-1.2-0.7-2.3-1.5-5.5-1.7
	c-3.5-0.3-4-0.1-7.8-0.2c-1.6-0.1-3.9-0.1-7.3,1.5c-1.3,0.6-2.1,5.5-2.6,6.2c-1.7,2.4,0,2.9-0.1,3.6l0,0c-0.1,0.1-0.7-0.8-1.5-1.3
	c-0.2-0.1-1-0.7-2-0.7c-0.7,0-1.9,0.2-2.3,0.9c-1,1.7,0.9,3.4,3,4.5c2.2,1.1,1.3,6.3,2.3,8c0.7,1.5,1.7,2.5,4.3,3.5
	c3,1.1,5.8,1.3,7,0.6l0,0c1.1,1.9,0.2,3.7,0.2,3.7c0,0.2,0,0.6,0,1.1c0.3,0.2,0.7,0.5,1.4,0.7c0.2,0.1,0.4,0.1,0.7,0.1
	C150.6,97.1,151.4,96.5,151.4,96.5z"/>
<path fill="#8DC63F" stroke="#000000" stroke-width="0.75" stroke-miterlimit="10" d="M145.7,95.5c-0.8-0.6-1.9-0.3-3.6,0
	c-0.8,0.2-1.9,0.4-3.3,1.1c-2,1.1-3,2.3-4.8,3.7c-2.6,2-4.5,4.3-7,6.3c-0.1,0-2.1,1.1-4.5,3.1c-0.7,0.5-1.3,1.1-1.6,2.1
	c-0.3,1.1,0.1,2.4,0.8,2.6c0.4,0.1,0.7-0.4,1.9-1.1c0.9-0.5,1.6-0.9,2.5-0.9c0.9,0.1,1,0.5,1.7,0.5c1.3,0.1,2.9-2.2,3.9-2.9
	c0.9-0.6,2.1-0.9,3.5-2.2c0.7-0.7,0.8-0.6,1.4-0.9c0.6-0.3,1.5-1.5,2.7,0.3c0.7,1.2,0.6,4.1,0.7,5.3c0.1,1,0,3.6-0.5,5.4
	c0,0-0.1,0.3-0.5,1.9l-0.3,1.1c0.2,0.4,1.5-0.1,3.6,0c2.1,0.1,2.3,0.5,3.4,0.2c1.1-0.3,1.2-0.8,2.5-1.3c1.1-0.4,2.5-0.3,2.9-0.3
	c1.1,0.3,1.3,0.6,2.6,1.1c0.4,0.1,0.2,0,1.2,0.1c1.7,0.3,2.8,0.3,3.8,0.1c0.9-0.1,1.1-0.3,1.1-0.3c0.5-0.6-0.5-1.6-0.9-3.6
	c-0.1-0.6-0.2-2.3-0.2-4.1c0-1.1-0.2-2,0.6-3.7c1.1-2.3,1.9-2.2,2.5-2.5c0.8-0.3,2.2,0.7,4.9,2.9c2.3,1.7,2.9,2.5,4.1,2.6
	c0.7,0.1,1.3-0.1,2.3,0.2c0.5,0.1,1.5,0.5,2.1,1.3c0.5,0.7,0.5,1.1,0.8,1.1c0.5,0,0.9-1.1,1-1.9c0.1-0.3,0.1-1-0.1-1.8
	c-0.4-1.3-1.5-2-2.5-2.7c0,0-0.3-0.3-5.1-3.7c-2-1.5-1.6-1.3-4.1-3.1c-2.5-1.9-2.7-1.9-3.7-2.8c-1.5-1.4-1.5-1.9-2.7-2.6
	c-0.7-0.4-1.5-0.5-3.3-0.9c-2.1-0.4-2.4-0.3-2.6-0.1c-0.7,0.5-0.1,1.5-0.9,2.5c-0.8,0.9-2.2,1-2.7,1c-0.5,0-1.7,0.1-2.5-0.7
	C146.1,97.1,146.7,96.1,145.7,95.5z"/>
<polygon fill="#262262" stroke="#000000" stroke-width="0.75" stroke-miterlimit="10" points="146,102.1 141.7,106.5 146,112.6 
	154.6,112.6 158.9,106.5 154.5,102.1 "/>
<polygon fill="#00A79D" stroke="#000000" stroke-width="0.75" stroke-miterlimit="10" points="144.9,106.5 147.5,110.4 152.6,110.4 
	155.8,106.5 154.3,104.5 146.5,104.5 "/>
<path stroke="#000000" stroke-width="0.75" stroke-miterlimit="10" d="M122.1,114.7c-0.2,0.7,0.4,1.5,2,3.1c3.5,3.5,4.1,3.1,5.5,4.9
	c1.5,1.8,1.7,3.2,3.7,4.6c0.9,0.6,1.5,0.8,2,0.7c1.1-0.3,1.5-1.9,1.7-2.9c0.3-1.1,0.5-2.5-0.2-3.5c-0.6-0.8-1.5-1-2.3-1.1
	c-1.5-0.3-1.9,0.2-2.7,0c-2.3-0.7-1.3-6.5-4.1-7.8c-1.1-0.5-2.7-0.3-3.3-0.1C123.9,112.7,122.5,113.7,122.1,114.7z"/>
<path stroke="#000000" stroke-width="0.75" stroke-miterlimit="10" d="M171,112.4c-2.5,1-1.5,6.5-4.3,7.8c-1.4,0.7-2.4-0.3-3.9,0.7
	s-1.8,2.9-1.8,3.1c-0.2,1.7,0.5,3.8,1.9,4.1c0.9,0.3,1.7-0.3,2.3-0.7c1.7-1.1,1.9-2.3,3.4-4.1c0.6-0.8,0.5-0.5,5.3-4.8
	c1.5-1.4,2.2-2.1,2.1-2.9c-0.1-1.3-1.4-2.7-1.8-2.9C173.8,112.5,172.2,111.9,171,112.4z"/>
<path fill="#F7941E" stroke="#000000" stroke-width="0.75" stroke-miterlimit="10" d="M138.2,121.3c-0.2,0.8-0.5,1.7-0.7,2.5h7.3
	l0.8-2.7L138.2,121.3z"/>
<polygon fill="#F7941E" stroke="#000000" stroke-width="0.75" stroke-miterlimit="10" points="153.8,121.2 153.8,124.2 160.4,123.7 
	159.7,121 "/>
<path fill="#2E3192" stroke="#000000" stroke-width="0.75" stroke-miterlimit="10" d="M145.9,121.5c-0.1,0.2-0.9,1.6-0.2,2.9
	c0.8,1.7,3.3,1.8,3.7,1.8c0.5,0,3.1,0,4.1-2c0.1-0.1,0.8-1.6,0-3.1c-1.1-2-4.1-1.6-4.4-1.6C148.6,119.7,146.8,119.9,145.9,121.5z"/>
<path fill="#00A79D" stroke="#000000" stroke-width="0.75" stroke-miterlimit="10" d="M147.7,121.9c-0.4,0.7-0.3,1.5,0.1,2.1
	c0.7,0.9,2.3,0.7,3.1,0c0.5-0.4,0.9-1.2,0.7-1.9c-0.3-0.7-1.2-0.9-1.6-0.9C149.6,121.2,148.3,121,147.7,121.9z"/>
<path fill="#8DC63F" stroke="#000000" stroke-width="0.75" stroke-miterlimit="10" d="M137.9,123.9c0,0-1,2.2-1.6,4.3
	c-0.1,0.3-0.5,2-0.8,2.9c-1.7,5.8-1.3,11.6-1.9,12.2c-0.9,0.8-0.9,1.3-1.2,2.5c-0.3,1.3-0.3,2.1-0.3,3.3c0,0.6-0.3,1.1-0.2,1.5
	c0.1,0.6,1.1,0.9,1.7,1c0.3,0.1,1.9,0.3,3.1,0.3c1.3-0.1,2.8-0.7,2.8-0.7v-0.5c0,0,0.1-1.5,0.4-2.3c0.8-2.3,1.9-3.7,3.3-5.4
	c4.5-5.2,4.8-8,5.8-8.3c0,0,1.9,2.8,6.9,8.9c1.5,1.9,2.7,3.1,2.8,5.1c0,1.1-0.3,2.3,0.3,2.9c0.1,0.1,0.4,0.3,2.1,0.5
	c3.1,0.2,4-0.4,4.3-0.5c0.3-0.2,0.9-0.6,0.9-1.1c0-0.5,0.1-0.9,0-1.5c-0.3-1.5-0.1-1.9-0.9-3.3c-0.3-0.6-0.6-1.4-0.9-2.1
	c-0.7-1.5,0.1-5.9-0.9-10.1c-0.5-2.3-0.1-4.2-0.9-4.9c-1.3-1.3-2.2-4-2.2-4s-6-0.3-6.6,0.2c-1.7,1.2-1.4,1.9-4.5,1.9
	c-2.7,0-3.7-1.8-4.5-2C142.5,123.5,137.9,123.9,137.9,123.9z"/>
<path stroke="#000000" stroke-width="0.75" stroke-miterlimit="10" d="M131,152.8c0-1.1-0.1-2,0.5-2.3c0.3-0.1,0.5,0,1.3,0.2
	c0.8,0.3,1.7,0.5,2.5,0.5c1.3,0.1,3.9-0.3,4.1,0c0.7,0.9-0.8,3.4-1.9,5.2c-1.6,2.6-2.1,2.7-2.3,3.9s0.1,1.4,0,4.1
	c-0.1,1.9-0.3,2.5-0.5,2.7c-0.2,0.5-0.5,1-2.3,2.3c-1.7,1.4-2.6,2.1-3.4,2.3c-0.2,0.1-2.8,0.9-4.6-0.5c-0.3-0.2-0.9-0.7-1-1.3
	c-0.1-0.3-0.2-1.1,1.3-2.9c1.5-1.9,2.4-1.9,4.3-4.1c0.7-0.8,1.1-1.2,1.3-1.8c0.6-1.3,0.1-1.9,0.3-4.5
	C130.6,154.5,131,154.8,131,152.8z"/>
<path stroke="#000000" stroke-width="0.75" stroke-miterlimit="10" d="M160,154.6c-0.6-1.1-1.6-3.1-1-3.6c0.3-0.3,0.7,0,2.1,0.2
	c1.5,0.3,3.2,0.5,4.3-0.3c0.7-0.5,0.7-1.1,1-1.1c0.9,0.1,1.2,4.7,1.3,5.7c0.3,4.1-0.3,4.3,0.3,5.7c0.4,1,0.8,1.1,4.3,4.6
	c2.5,2.5,3.1,3.3,2.9,4.1c-0.2,1.3-1.9,1.9-2.3,2c-1.9,0.7-3.7-0.1-4.1-0.2c-1.1-0.5-0.9-0.9-3.1-2.8c-1.6-1.4-1.7-1.3-2-1.8
	c-0.5-1.1-0.1-1.7-0.1-4.5c0-0.9,0-1.3-0.1-1.8C163.1,158.5,161.7,157.8,160,154.6z"/>
<path fill="#F7941E" stroke="#000000" stroke-width="0.75" stroke-miterlimit="10" d="M160.2,96.9c0,0,5.8,1.2,10.3,4.4
	c1.5,1.1,4.6,3.3,7.3,7.4c2.5,3.8,2.2,5.4,5.4,9.5c2.5,3.2,4.1,4.1,4.7,4.4c2.5,1.3,5.3,1.4,6.7,1.3c2.9-0.1,3.9-0.9,4.5-0.2
	c1.1,1.1-0.6,5.2-3.4,7.7c-1.4,1.3-3.5,2.3-7.5,4.3c-2.1,1.1-1.9,0.9-2.6,1.3c-3.8,2.3-3.3,4.8-6.2,6.7c-2.5,1.7-2.8,2.1-7.8,2
	c-3,0-4.9,1.8-5.5,1.2c-0.5-0.5,0.2,0.7-0.5-0.9c-0.4-1.2-0.9-1.9-1.4-3.1c-0.5-1,0.8-4.7-0.4-9.7c-0.5-2.2-0.7-4.7-0.7-4.7
	s1.2-0.3,2.5-0.9c1.7-0.8,2.1-2.3,3.1-3.9c2.6-4.3,5.1-3.5,7.5-7.7c0.8-1.5,1.5-2.7,1.3-4.3c-0.3-1.4-1.2-2.3-4.9-5.2
	c-2.6-2-3.7-3.1-5.4-4.1C163.6,100.5,159.9,97.2,160.2,96.9z"/>
<g>
	<path fill="#27AAE1" stroke="#000000" stroke-width="0.75" stroke-miterlimit="10" d="M161.6,106.8c1.2-0.9,2.1,0.5,5.2,2.7
		c2.3,1.6,4,2.1,3.9,2.8c0,0.5-0.6,0.3-1,1.4c-0.7,2.1-0.7,4.8-2.5,6.3c-1.3,1-2.9-0.3-4.6,0.9c-1.5,1.1-1.7,2.9-2.1,2.8
		c-0.4-0.1-0.5-1.5-0.5-2.7c-0.1-1.8-0.8-3.1-1-4.1c-0.3-1.8-0.2-3.3-0.1-3.9c0.1-0.5,0.9-1.5,1.5-3.1
		C160.8,108.6,161.1,107.2,161.6,106.8z"/>
</g>
<path fill="#F7941E" stroke="#000000" stroke-width="0.75" stroke-miterlimit="10" d="M157.9,147c-0.3,0.3-5.5-1.9-8.8-1.7
	c-5,0.3-8.5,2.7-8.9,2.1c-0.5-0.7,1.9-2.1,4.5-6.1c1.3-1.9,3.7-6.7,4.3-6.7c0.5,0,2.7,3.7,5,6.5C156.3,143.9,158.1,146.7,157.9,147z
	"/>
<path fill="#F7941E" stroke="#000000" stroke-width="0.75" stroke-miterlimit="10" d="M132.1,144.9c-1.3,1.4-2.9-1.9-6.2-3.1
	c-3.2-1.1-4,0.6-6.7-0.3c-3.9-1.3-2.9-5.1-7.5-7.8c-0.8-0.5-3.1-1.2-7.8-2.7c-3.9-1.3-4.5-1.3-4.7-1.9c-0.9-2.2,5.2-4.7,11.2-12.6
	c3.5-4.5,3.1-5.8,6.7-9.2c2.3-2.2,4.3-3.5,8.5-6.2c3.3-2.1,5.6-3.3,8.5-4.1c1.7-0.5,4.9-0.7,4.9-0.7s-1.5,1.5-4.7,3.8
	c-4.7,3.5-3.9,3.5-7.5,6.1c-4,2.9-5.9,3.5-6.2,5.5c-0.1,1,0.3,1.9,0.9,3.1c1,2,2,2.5,4.9,5.3c2.4,2.3,3.6,3.5,4.3,4.5
	c0.9,1.3,1.4,2.5,2.8,3.1c1.4,0.7,2.9-0.2,2.7,0.7c-0.2,1.3-1.7,4.2-1.9,10c0,1.4-0.1,2.9-0.5,4.5
	C133.6,143.8,132.9,144.2,132.1,144.9z"/>
<g>
	<path fill="#F7941E" stroke="#000000" stroke-width="0.75" stroke-miterlimit="10" d="M161.6,106.8c1.4-0.3,2.1,0.5,5.2,2.7
		c2.3,1.6,4,2.1,3.9,2.8c0,0.5-0.6,0.3-1,1.4c-0.7,2.1-0.7,4.8-2.5,6.3c-1.3,1-2.9-0.3-4.6,0.9c-1.5,1.1-1.7,2.9-2.1,2.8
		c-0.4-0.1-0.5-1.5-0.5-2.7c-0.1-1.8-0.8-3.1-1-4.1c-0.3-1.8-0.1-3.3-0.2-3.9c-0.1-0.9-0.1-3.1,0.8-4.3
		C160.3,107.5,161,106.9,161.6,106.8z"/>
</g>
<g>
	<path fill="#F7941E" stroke="#000000" stroke-width="0.75" stroke-miterlimit="10" d="M138.5,106.2c-0.3-0.1-3.1,1-6.3,3.1
		c-2.3,1.5-4,1.9-4,2.7c0,0.5,0,0.5,0.7,1.5c1.2,1.9,0.7,5.1,2.5,6.7c1.2,1.1,3.1-0.5,4.7,0.8c1.5,1.1,1.7,2.8,2.1,2.7
		c0.4-0.1,0.5-1.5,0.6-2.7c0.2-1.8,0.9-3.1,1.1-4.1c0.3-1.8,0.3-3.3,0.1-3.9c-0.1-0.5,0.3-3-0.3-4.5
		C139.3,107.2,139,106.5,138.5,106.2z"/>
</g>
<path fill="#F7941E" stroke="#000000" stroke-width="0.75" stroke-miterlimit="10" d="M146.1,95.3c0-0.1,0,0.2,0.5-0.1
	c0.5-0.3,0.4-0.2,0.4-0.2s0,0.7,0.2,1.3c0.3,0.8,1.3,1.1,1.7,1.2c0.4,0.1,1.9,0.1,2.5-0.6c0.4-0.5,0.4-1.8,0.4-1.8h1.4
	c0,0-0.3,1.9-0.9,2.6c-0.7,0.9-1.6,0.9-2.2,1c-0.6,0.1-1.9,0.2-2.9-0.7C146.1,97.3,145.7,95.7,146.1,95.3z"/>
<path fill="none" stroke="#3C2415" stroke-width="0.75" stroke-miterlimit="10" d="M166,77.1c-0.1-0.1,0.3-0.7,0.8-1
	c0.6-0.3,1.3-0.2,1.4,0C168.2,76.5,166.2,77.4,166,77.1z"/>
<path fill="none" stroke="#3C2415" stroke-width="0.75" stroke-miterlimit="10" d="M135.3,77.5c0.1-0.1-0.6-0.8-1.5-1
	c-0.7-0.2-1.5-0.2-1.6,0C132.3,76.8,135.2,77.8,135.3,77.5z"/>
<g>
	<path fill="#FFFFFF" stroke="#000000" stroke-width="0.75" stroke-miterlimit="10" d="M153.1,78.2c0.6,0.3,1.2-0.6,2.9-0.6
		c1.5,0,2.2,0.9,2.7,0.5c0.6-0.5,0.1-2.1-0.6-4.1c-0.5-1.6-1-2.2-1.7-2.7c-0.3-0.2-0.8-0.5-1.4-0.4c-0.3,0.1-0.9,0.3-1.6,2.2
		C153.3,73.4,151.9,77.5,153.1,78.2z"/>
	<path fill="#3C2415" stroke="#000000" stroke-width="0.75" stroke-miterlimit="10" d="M154.1,77.1c-0.9-1.2-0.4-2.7-0.3-2.9
		c0.1-0.1,0.8-1.9,2.1-1.9c1.2,0.1,1.8,1.6,1.9,1.9c0.5,1.1-0.3,3.5-1.9,3.4C154.8,77.6,154.7,78,154.1,77.1z"/>
	<path fill="#603913" stroke="#000000" stroke-width="0.75" stroke-miterlimit="10" d="M155.8,77.6c-0.7-0.1-1-0.2-1-1
		c0-0.4,0.2-1.4,0.9-1.4c0.7,0,0.9,0.3,1,1.2C156.8,77,156.6,77.6,155.8,77.6z"/>
</g>
<g>
	<path fill="#FFFFFF" stroke="#000000" stroke-width="0.75" stroke-miterlimit="10" d="M141.1,78.2c0.6,0.3,1.2-0.6,2.9-0.6
		c1.5,0,2.2,0.9,2.7,0.5c0.6-0.5,0.1-2.1-0.6-4.1c-0.5-1.6-1-2.2-1.7-2.7c-0.3-0.2-0.8-0.5-1.4-0.4c-0.3,0.1-0.9,0.3-1.6,2.2
		C141.4,73.4,139.9,77.5,141.1,78.2z"/>
	<path fill="#3C2415" stroke="#000000" stroke-width="0.75" stroke-miterlimit="10" d="M142.1,77.1c-0.9-1.2-0.4-2.7-0.3-2.9
		c0.1-0.1,0.8-1.9,2.1-1.9c1.2,0.1,1.8,1.6,1.9,1.9c0.5,1.1-0.3,3.5-1.9,3.4C142.8,77.6,142.7,78,142.1,77.1z"/>
	<path fill="#603913" stroke="#000000" stroke-width="0.75" stroke-miterlimit="10" d="M143.9,77.6c-0.7-0.1-1-0.2-1-1
		c0-0.4,0.2-1.4,0.9-1.4c0.7,0,0.9,0.3,1,1.2C144.9,77,144.7,77.6,143.9,77.6z"/>
</g>
<path fill="none" stroke="#000000" stroke-width="0.75" stroke-miterlimit="10" d="M153.1,68.2c1.1-0.3,3.1,0,4.7,1.8"/>
<path fill="none" stroke="#000000" stroke-width="0.75" stroke-miterlimit="10" d="M141.1,70c0-1,2.1-1.8,4.7-1.8"/>
<line fill="none" stroke="#000000" stroke-width="0.75" stroke-miterlimit="10" x1="154.3" y1="69.8" x2="154.3" y2="69.8"/>
<g>
	<path fill="none" stroke="#3C2415" stroke-width="0.75" stroke-miterlimit="10" d="M150.1,81.6c-0.1-0.1-0.9-0.5-1.8-0.3
		c-0.8,0.3-1.5,1.1-1.4,1.9c0.1,0.7,0.7,1.1,1.2,1.3c0.7,0.2,1.4,0,1.9-0.5"/>
</g>
<path fill="none" stroke="#7C414B" stroke-width="0.75" stroke-miterlimit="10" d="M139.6,85.6c0.3-0.5,1.1-0.9,1.1-0.9
	s0.7,0.9,1.2,1.6c1.7,2.1,4.1,2.7,4.9,2.9c1.3,0.3,2.3,0.1,3.3,0.1c0.8-0.1,2-0.1,3.3-0.8c0.7-0.4,1.5-0.7,2.5-1.5
	c1.2-0.8,1.3-1.1,1.3-1.1c0.8-0.8,1-0.9,1-0.9s0.4,0.5,0.5,0.8"/>
<path stroke="#000000" stroke-width="0.75" stroke-miterlimit="10" d="M133.9,72c-0.3-1-0.6-1.7-0.7-3.4c-0.1-1.2-0.2-2.7,0.1-4.7
	c0.3-1.7,0.6-3.3,1.9-4.7c0.9-1,2-1.7,2.5-1.9c0.7-0.3,1.2-0.5,2.3-0.9c1-0.3,1.7-0.5,1.6-0.4c-0.3,0.3-1.9,2.1-2,4.8
	c-0.1,0.5-0.1,1.7,0.6,2.7c0.7,0.9,1.5,1.1,1.5,1.4c-0.1,0.4-1.4,0.1-2.5,0.9c-0.3,0.3-0.5,0.5-1.2,2.6c-0.8,2.5-0.8,2.7-1.3,3.9
	c-0.3,0.6-0.9,1.9-0.9,1.9l0,0C135.8,74.3,134.4,73.9,133.9,72z"/>
<path stroke="#000000" stroke-width="0.75" stroke-miterlimit="10" d="M144.6,53.8c0.9-0.4,2.2-1,4.3-1.3c1.7-0.3,4.1-0.7,7,0.1
	c1.3,0.3,5.7,1.4,7.7,5c1.5,2.5,0.9,3.3,1.4,6.9c0.1,0.9,3.5,1.9,2.4,7.2c-0.1,0.7-0.5,1.2-0.7,1.6c-0.6,1.3-2,3.3-2.7,3.1
	s0.1-2.2-0.8-5.1c-0.2-0.7-0.8-2.5-2.4-3.9c-1.3-1.2-2.6-1.7-3.4-2c-1.5-0.5-2.1-0.3-6.3-0.5c-5.1-0.2-4.9-0.4-6.1-0.2
	c-1.4,0.3-1.7,0.3-3.1,0.3c-1.1,0-1.9-1.1-2.1-1.5c-1-1.9-0.3-4,0-4.8c0.2-0.7,0.7-1.8,1.8-2.9C142.7,54.7,143.7,54.3,144.6,53.8z"
	/>
<path stroke="#000000" stroke-width="0.75" stroke-miterlimit="10" d="M7.6,115.5c0-0.6,5.5-0.5,8.9-4.3c1.2-1.4,1.8-2.9,4.1-4.8
	c1-0.8,2.2-1.6,2-1.8c-0.2-0.5-3.7,1.2-4.3,0.5c-0.6-0.8,2.2-3.3,5.3-7.5c4.2-5.8,3-7,6.1-10.4c3.7-4.1,8.3-5.7,10.6-6.6
	c0,0,5.5-2.2,9.5-1.8c1,0.1,2,0.3,2,0.3s0.7,0.1,1.3,0.4c2.2,0.7,7.4,5.5,7.8,5.2c0.2-0.2-2.2-2.8-4.3-4.5c-2-1.7-4.7-2.2-4.7-2.4
	c0.7-1.4,10.8,4.2,11.4,4.8c0.7,0.6-2.2-5.7-2.1-5.6c0.3,0.1,3.8,4.8,5.5,7.6c1.5,2.7,1.4,2.5,3.2,5.1c1.6,2.4,1.7,5.7,1.8,7.7
	c0.2,1.8,0.1,3.4,0.1,4.2c-0.1,1.2-0.3,2.2-0.3,2.6c-0.1,0.8-0.5,2.4-1.2,4.2c-0.5,1-1,2-1.2,2.4c0,0-0.1,0.3-0.3,0.5
	c-1.8,2.8-3.9,4.6-3.9,4.6c-0.8,0.7-3,3-6.1,3.7c-2.1,0.5-6.4,1.4-6.4,1.4s0.1-2.4,0.1-1.3c0,0,10.7-1.4,12.1-6.6
	c0.6-2.2-0.7-5.9,0.7-5.9c0.8,0,1.2,0.7,2.5,0.1c2-0.9,3.5-4.2,2.3-5.3c-0.7-0.7-2.2-0.4-3.2,0.2c-1.5,1-1.7,2.8-2,2.7
	c-0.5-0.1,0.4-3-1.1-5.5c-0.6-1-1-1-2.3-2.7c-0.7-1-1.1-1.7-1.4-2.5c-0.5-1.8,0.3-2.8-0.2-3.2c-0.7-0.6-2.2,0.8-4.5,1.6
	c-3.3,1-4-0.7-7.8,0c-2.6,0.5-2,1.4-7,3.2c-0.9,0.3-1.9,0.7-2.7,1.6c-1.3,1.5-1.4,3.4-1.4,3.6c0,1.8,0.8,3.1,0.7,3.2
	c-0.3,0.1-1.1-2.2-3-2.5c-0.8-0.1-2,0.1-2.5,0.9c-0.7,1-0.2,2.2,0,2.7c0.7,2,2.1,1.8,3,3.6c0.6,1.3,0,1.7,0.7,3.6
	c0.5,1.4,1.2,2.4,1.6,3c0.6,0.8,1.4,1.9,2.7,2.7c1,0.7,2.1,0.8,4.3,1.4c0,0,1-0.1,4,0.4c-0.1-0.7,0.1,1.9-0.2,2.6
	c-0.5,1-3.1,0.3-5.9,0.2c-1.8,0-1.2,0.3-10.2,2.5c0,0-3.6,0.9-7.1,1.1l0,0c-3.2,0.2-4.8,0.3-4.9,0c-0.1-0.5,4.4-3.2,4.1-2.5
	c-0.4-0.2-15-0.4-16-1.4c-1.2-1.2,9.5-6.4,8-6.4C15.5,116.4,7.6,117.5,7.6,115.5z"/>
<path fill="#E8B68A" stroke="#E8B68A" stroke-width="0.75" stroke-miterlimit="10" d="M51.9,124.3c0,0,0.2-3.3,0.4-5.3
	c0,0,1.7,0.8,6.1-0.8c0.5-0.2,2.3-0.5,4.4-2.7c1-1,1.1-2.3,1.3-3.2c0.4-1.8-0.1-2-0.2-4.3c0,0-0.5-0.1,0.7-1.1
	c0.1-0.1,0.9-0.1,1.1,0c0.4,0.2,1.1,0.5,1.9,0.2c1.2-0.3,1.6-1.6,1.8-2.2c0.2-0.5,0.7-2,0-2.8c-0.5-0.5-1.6-0.4-2.2-0.2
	c-2,0.7-2.3,3.3-3,3.2c-0.5-0.1,0.7-1.3-0.1-4.3c-0.2-0.8-0.3-1.2-1.6-2.6c-0.9-1-1.8-2.3-2.4-3.4c-0.6-0.8-0.3-3.7-1-3.9
	c-1.3-0.3-1.7,1.2-4.3,2c-3.3,1.1-4.1-0.8-7.8,0c-1.9,0.4-1.2,0.8-7.1,3.3c-1.4,0.7-2,0.8-2.4,1.5c-1.7,2.4-0.2,5.9-0.4,6.2
	s-1.3-2-3.5-2c-0.7,0-1.8,0.3-2.2,0.9c-1,1.7,1.4,3,3,5.8c1.2,2.1,1.4,4.9,2.3,6.6c0.7,1.4,1.7,2.5,4.2,3.4c3,1,5.7,1.2,6.9,0.6l0,0
	c1.1,1.8,0.2,3.7,0.2,3.7c0,0.2,0,0.6,0,1c0.3,0.2,0.7,0.5,1.4,0.7c0.2,0.1,0.4,0.1,0.7,0.1C51.2,124.9,51.9,124.3,51.9,124.3z"/>
<path fill="#662D91" stroke="#000000" stroke-width="0.75" stroke-miterlimit="10" d="M46.3,123.4c-0.8-0.6-1.8-0.3-3.5,0
	c-0.8,0.2-1.9,0.4-3.2,1.1c-2,1-3,2.2-4.8,3.7c-2.6,2-4.5,4.3-7,6.2c-0.1,0-2.1,1.1-4.4,3c-0.7,0.5-1.3,1.1-1.6,2.1
	c-0.3,1,0.1,2.4,0.8,2.6c0.4,0.1,0.7-0.4,1.9-1.1c0.8-0.5,1.6-0.9,2.4-0.8c0.9,0.1,1,0.5,1.7,0.5c1.2,0.1,2.8-2.2,3.8-2.8
	c0.8-0.6,2.1-0.8,3.5-2.2c0.7-0.7,0.9-1.2,1.3-1.1c0.7,0.1,0.5,1.5,1.7,3.3c0.7,1.2,0.8,1.3,1.2,2.4c0.3,0.9,0.5,3.6,0,5.5
	c0,0-0.4,0.1-0.5,1.8l-0.3,1.1c0.2,0.4,1.5-0.1,3.5,0c2,0.1,2.3,0.5,3.3,0.2c1.1-0.3,1.2-0.8,2.5-1.2c1.1-0.4,2.5-0.3,2.8-0.3
	c1.1,0.3,1.2,0.6,2.6,1c0.4,0.1,0.2,0,1.2,0.1c1.7,0.3,2.8,0.3,3.7,0.1c0.9-0.1,1-0.3,1.1-0.3c0.5-0.6-0.5-1.6-0.8-3.5
	c-0.1-0.6-0.5-2.3,0-4.1c0.3-1.1,0.7-1,1.4-2.8c1-2.3,0.8-3,1.4-3.3c0.8-0.3,2.2,0.7,4.9,2.9c2.2,1.7,2.8,2.4,4.1,2.6
	c0.7,0.1,1.2-0.1,2.2,0.2c0.5,0.1,1.4,0.5,2.1,1.3c0.5,0.7,0.5,1.1,0.8,1.1c0.5,0,0.8-1,1-1.9c0.1-0.3,0.1-1-0.1-1.8
	c-0.4-1.3-1.4-2-2.4-2.6c0,0-0.3-0.3-5-3.7c-2-1.4-1.6-1.3-4-3.1c-2.5-1.8-2.7-1.8-3.7-2.8c-1.4-1.4-1.5-1.9-2.6-2.6
	c-0.7-0.4-1.5-0.5-3.2-0.8c-2-0.4-2.4-0.3-2.6-0.1c-0.7,0.5-0.1,1.5-0.8,2.4c-0.8,0.9-2.2,1-2.6,1c-0.5,0-1.7,0.1-2.4-0.7
	C46.7,125,47.2,124,46.3,123.4z"/>
<polygon fill="#27AAE1" stroke="#000000" stroke-width="0.75" stroke-miterlimit="10" points="46.6,130 42.3,134.3 46.6,140.4 
	55.1,140.4 59.3,134.4 55,130 "/>
<polygon fill="#FBB040" stroke="#000000" stroke-width="0.75" stroke-miterlimit="10" points="45.4,134.3 48.1,138.2 53.1,138.2 
	56.2,134.3 54.8,132.4 47.1,132.4 "/>
<path fill="#F7941E" stroke="#000000" stroke-width="0.75" stroke-miterlimit="10" d="M22.7,141.9c-0.2,0.7,0.7,2,2.3,3.7
	c3.5,3.5,4,3,5.5,4.9c1.4,1.8,1.7,3.2,3.7,4.5c0.8,0.6,1.4,0.8,2,0.7c1-0.3,1.4-1.9,1.7-2.9c0.3-1.1,0.5-2.4-0.2-3.4
	c-0.6-0.8-1.5-1-2.2-1.1c-1.5-0.3-1.9,0.2-2.6,0c-2.3-0.7-1.2-6.4-4-7.8c-1.1-0.5-2.4-0.5-3-0.3C25,140.4,23,140.9,22.7,141.9z"/>
<path fill="#F7941E" stroke="#000000" stroke-width="0.75" stroke-miterlimit="10" d="M71.5,140.1c-2.7,0.2-1.7,6.6-4.4,7.9
	c-1.4,0.7-2.4-0.3-3.9,0.7c-1.5,1-1.8,2.8-1.8,3c-0.2,1.7,0.5,3.7,1.9,4.1c0.8,0.3,1.7-0.3,2.3-0.7c1.7-1.1,1.9-2.2,3.3-4
	c0.6-0.8,0.5-0.5,5.2-4.8c1.5-1.4,2.2-2,2.1-2.9c-0.1-1.2-1.3-2.6-1.7-2.8C74,140.3,72.6,140,71.5,140.1z"/>
<path fill="#F7941E" stroke="#000000" stroke-width="0.75" stroke-miterlimit="10" d="M38.9,149c-0.2,0.8-0.5,1.7-0.7,2.4h7.2
	l0.8-2.6L38.9,149z"/>
<polygon fill="#F7941E" stroke="#000000" stroke-width="0.75" stroke-miterlimit="10" points="54.3,148.9 54.3,151.8 60.8,151.3 
	60.1,148.7 "/>
<path fill="#00AEEF" stroke="#000000" stroke-width="0.75" stroke-miterlimit="10" d="M46.4,149.2c-0.1,0.2-0.8,1.6-0.2,2.9
	c0.8,1.7,3.2,1.8,3.7,1.8c0.5,0,3.1,0,4.1-2c0.1-0.1,0.8-1.6,0-3c-1-2-4-1.6-4.3-1.6C49.1,147.4,47.3,147.6,46.4,149.2z"/>
<path fill="#FFFFFF" stroke="#000000" stroke-width="0.75" stroke-miterlimit="10" d="M48.2,149.6c-0.4,0.7-0.3,1.5,0.1,2.1
	c0.7,0.9,2.3,0.7,3.1,0c0.5-0.4,0.9-1.2,0.7-1.9c-0.3-0.7-1.2-0.8-1.6-0.8C50.2,148.9,48.9,148.6,48.2,149.6z"/>
<path fill="#662D91" stroke="#000000" stroke-width="0.75" stroke-miterlimit="10" d="M38.2,151.8c0,0-0.7,1.8-1.2,4
	c-0.1,0.3-0.5,2-0.8,2.9c-1.7,5.7-1.2,11.4-1.8,12c-0.8,0.8-0.9,1.3-1.2,2.4c-0.3,1.3-0.3,2-0.3,3.2c0,0.6-0.3,1-0.2,1.4
	c0.1,0.6,1,0.8,1.7,1c0.3,0.1,1.8,0.3,3,0.3c1.2-0.1,2.8-0.7,2.8-0.7v-0.5c0,0,0.1-1.5,0.4-2.2c0.8-2.2,1.8-3.7,3.2-5.3
	c4.5-5.1,4.7-7.9,5.7-8.2c0,0,1.8,2.8,6.8,8.8c1.5,1.8,2.7,3.1,2.8,5c0,1.1-0.3,2.2,0.3,2.9c0.1,0.1,0.4,0.3,2.1,0.5
	c3,0.2,3.9-0.4,4.2-0.5c0.3-0.2,0.8-0.6,0.8-1.1s0.1-0.9,0-1.5c-0.3-1.5-0.1-1.9-0.9-3.3c-0.3-0.6-0.6-1.4-0.9-2.1
	c-0.7-1.5,0.1-5.8-0.8-10c-0.5-2.3-0.1-4.1-0.8-4.9c-1.2-1.2-2.2-3.9-2.2-3.9s-5.9-0.3-6.5,0.2c-1.7,1.2-1.4,1.8-4.5,1.8
	c-2.6,0-3.7-1.8-4.4-2C43.1,151.1,38.2,151.8,38.2,151.8z"/>
<path fill="#F7941E" stroke="#000000" stroke-width="0.75" stroke-miterlimit="10" d="M31.8,180.1c0-1-0.1-2,0.5-2.2
	c0.3-0.1,0.5,0,1.2,0.2c0.8,0.3,1.7,0.5,2.4,0.5c1.3,0.1,3.8-0.3,4,0c0.7,0.8-0.8,3.3-1.9,5.1c-1.6,2.6-2.1,2.6-2.3,3.9
	c-0.2,1.2,0.1,1.4,0,4c-0.1,1.9-0.3,2.4-0.5,2.6c-0.2,0.5-0.5,1-2.2,2.3c-1.7,1.4-2.6,2.1-3.3,2.3c-0.2,0.1-2.8,0.8-4.5-0.5
	c-0.3-0.2-0.8-0.7-1-1.3c-0.1-0.3-0.2-1.1,1.2-2.9c1.4-1.8,2.4-1.9,4.2-4c0.7-0.8,1-1.2,1.3-1.8c0.6-1.3,0.1-1.9,0.3-4.4
	C31.4,181.7,31.8,182.1,31.8,180.1z"/>
<path fill="#F7941E" stroke="#000000" stroke-width="0.75" stroke-miterlimit="10" d="M60.4,181.9c-0.6-1.1-1.6-3-1-3.5
	c0.3-0.3,0.7,0,2.1,0.2c1.5,0.3,3.2,0.5,4.2-0.3c0.7-0.5,0.7-1.1,1-1.1c0.8,0.1,1.2,4.7,1.2,5.7c0.3,4-0.3,4.3,0.3,5.7
	c0.4,1,0.8,1,4.2,4.5c2.5,2.5,3,3.3,2.9,4.1c-0.2,1.2-1.8,1.8-2.2,2c-1.9,0.7-3.7-0.1-4-0.2c-1-0.5-0.9-0.8-3.1-2.8
	c-1.6-1.4-1.7-1.2-2-1.8c-0.5-1-0.1-1.7-0.1-4.4c0-0.8,0-1.3-0.1-1.8C63.4,185.7,62.1,185.1,60.4,181.9z"/>
<path fill="#FFDE17" stroke="#000000" stroke-width="0.75" stroke-miterlimit="10" d="M60.5,124.8c0,0,5.8,1.2,10.2,4.3
	c1.4,1,4.5,3.3,7.2,7.3c2.5,3.7,2.2,5.3,5.3,9.4c2.4,3.2,4.1,4,4.7,4.3c2.5,1.2,5.2,1.4,6.6,1.3c2.8-0.1,3.9-0.8,4.4-0.2
	c1,1.1-0.6,5.1-3.3,7.6c-1.4,1.2-3.4,2.2-7.4,4.2c-2.1,1-1.9,0.8-2.6,1.2c-3.7,2.3-3.3,4.7-6.1,6.6c-2.4,1.7-2.8,2-7.8,2
	c-3,0-4.9,1.8-5.5,1.2c-0.5-0.5,0.2,0.7-0.5-0.9c-0.4-1.2-0.8-1.9-1.4-3c-0.5-1,0.8-4.7-0.4-9.5c-0.5-2.2-0.7-4.6-0.7-4.6
	s1.2-0.3,2.4-0.9c1.7-0.8,2.1-2.2,3.1-3.9c2.6-4.2,5.1-3.4,7.4-7.6c0.8-1.4,1.5-2.7,1.2-4.2c-0.3-1.4-1.2-2.2-4.9-5.1
	c-2.6-2-3.7-3-5.3-4C64,128.4,60.3,125,60.5,124.8z"/>
<g>
	<path fill="#27AAE1" stroke="#000000" stroke-width="0.75" stroke-miterlimit="10" d="M61.9,134.6c1.2-0.8,2.1,0.5,5.1,2.6
		c2.2,1.6,3.9,2,3.9,2.8c0,0.5-0.6,0.3-1,1.4c-0.7,2-0.7,4.7-2.4,6.2c-1.2,1-2.9-0.3-4.5,0.9c-1.4,1-1.7,2.8-2.1,2.8
		c-0.4-0.1-0.5-1.4-0.5-2.6c-0.1-1.8-0.8-3-1-4.1c-0.3-1.8-0.2-3.3-0.1-3.9c0.1-0.5,0.9-1.4,1.5-3C61.2,136.5,61.5,135,61.9,134.6z"
		/>
</g>
<path fill="#FFDE17" stroke="#000000" stroke-width="0.75" stroke-miterlimit="10" d="M58.3,174.2c-0.3,0.3-5.4-1.8-8.7-1.7
	c-4.9,0.3-8.4,2.7-8.8,2.1c-0.5-0.7,1.8-2.1,4.5-6c1.2-1.8,3.6-6.6,4.2-6.6c0.5,0,2.7,3.6,4.9,6.4C56.7,171.2,58.5,174,58.3,174.2z"
	/>
<path fill="#FFDE17" stroke="#000000" stroke-width="0.75" stroke-miterlimit="10" d="M32.9,172.3c-1.3,1.4-2.9-1.8-6.1-3
	c-3.2-1.1-3.9,0.6-6.6-0.3c-3.9-1.3-2.9-5.1-7.4-7.8c-0.8-0.5-3.1-1.2-7.8-2.6c-3.9-1.2-4.4-1.2-4.7-1.9c-0.8-2.2,5.1-4.7,11.1-12.4
	c3.4-4.5,3.1-5.7,6.6-9.1c2.2-2.2,4.3-3.5,8.3-6.1c3.2-2.1,5.5-3.3,8.3-4.1c1.7-0.5,4.9-0.7,4.9-0.7s-1.5,1.4-4.7,3.7
	c-4.5,3.4-3.8,3.4-7.3,6c-3.9,2.8-5.8,3.5-6.1,5.5c-0.1,1,0.3,1.8,0.8,3c1,2,2,2.4,4.9,5.2c2.4,2.3,3.5,3.4,4.2,4.4
	c0.9,1.3,1.4,2.4,2.8,3.1c1.4,0.7,2.8-0.2,2.6,0.7c-0.2,1.2-1.7,4.1-1.8,9.8c0,1.4-0.1,2.8-0.5,4.5
	C34.3,171.1,33.7,171.4,32.9,172.3z"/>
<g>
	<path fill="#FFDE17" stroke="#000000" stroke-width="0.75" stroke-miterlimit="10" d="M61.9,134.6c1.2-0.8,2.1,0.5,5.1,2.6
		c2.2,1.6,3.9,2,3.9,2.8c0,0.5-0.6,0.3-1,1.4c-0.7,2-0.7,4.7-2.4,6.2c-1.2,1-2.9-0.3-4.5,0.9c-1.4,1-1.7,2.8-2.1,2.8
		c-0.4-0.1-0.5-1.4-0.5-2.6c-0.1-1.8-0.8-3-1-4.1c-0.3-1.8-0.2-3.3-0.1-3.9c0.1-0.5,0.9-1.4,1.5-3C61.2,136.5,61.5,135,61.9,134.6z"
		/>
</g>
<g>
	<path fill="#FFDE17" stroke="#000000" stroke-width="0.75" stroke-miterlimit="10" d="M38,134.6c-1.2-0.8-2.1,0.5-5.2,2.6
		c-2.3,1.6-3.9,1.9-3.9,2.7c0,0.5,0,0.5,0.7,1.5c1.2,1.8,0.7,5.1,2.4,6.6c1.2,1,3.1-0.5,4.7,0.8c1.4,1.1,1.7,2.8,2.1,2.7
		s0.5-1.4,0.6-2.6c0.2-1.8,0.8-3,1.1-4.1c0.3-1.8,0.3-3.3,0.1-3.9c-0.1-0.5-0.9-1.5-1.4-3C38.7,136.5,38.5,135,38,134.6z"/>
</g>
<path fill="#F7941E" stroke="#000000" stroke-width="0.75" stroke-miterlimit="10" d="M46.6,123.2c0-0.1,0,0.2,0.5-0.1
	c0.5-0.3,0.4-0.2,0.4-0.2s0,0.7,0.2,1.2c0.3,0.8,1.3,1.1,1.7,1.2c0.4,0.1,1.9,0.1,2.4-0.6c0.4-0.5,0.4-1.8,0.4-1.8h1.4
	c0,0-0.3,1.9-0.8,2.6c-0.7,0.8-1.6,0.9-2.2,1c-0.6,0.1-1.8,0.2-2.9-0.7C46.7,125.2,46.3,123.6,46.6,123.2z"/>
<path fill="none" stroke="#C49A6C" stroke-width="0.75" stroke-miterlimit="10" d="M66.3,105.3c-0.1-0.1,0.3-0.7,0.8-1
	c0.6-0.3,1.3-0.2,1.4,0C68.4,104.6,66.5,105.5,66.3,105.3z"/>
<path fill="none" stroke="#C49A6C" stroke-width="0.75" stroke-miterlimit="10" d="M36,105.7c0.1-0.1-0.6-0.8-1.4-1
	c-0.7-0.2-1.5-0.2-1.6,0C33,105,35.9,105.9,36,105.7z"/>
<g>
	<path fill="#FFFFFF" stroke="#000000" stroke-width="0.75" stroke-miterlimit="10" d="M40.5,106.3c0.6,0.3,1.2-0.6,2.8-0.6
		c1.5,0,2.2,0.8,2.6,0.5c0.6-0.5,0.1-2.1-0.6-4.1c-0.5-1.6-1-2.2-1.7-2.6c-0.3-0.2-0.8-0.5-1.4-0.4c-0.3,0.1-0.8,0.3-1.6,2.2
		C40.7,101.6,39.3,105.7,40.5,106.3z"/>
	<path fill="#603913" stroke="#000000" stroke-width="0.75" stroke-miterlimit="10" d="M41.4,105.3c-0.9-1.2-0.4-2.6-0.3-2.8
		c0.1-0.1,0.8-1.8,2-1.8c1.2,0.1,1.8,1.6,1.9,1.8c0.5,1.1-0.3,3.5-1.8,3.3C42.1,105.7,42,106.1,41.4,105.3z"/>
	<path fill="#726658" stroke="#000000" stroke-width="0.75" stroke-miterlimit="10" d="M43.2,105.7c-0.7-0.1-1-0.2-1-1
		c0-0.4,0.2-1.4,0.9-1.4c0.7,0,0.9,0.3,1,1.2C44.1,105.2,43.9,105.8,43.2,105.7z"/>
</g>
<path fill="none" stroke="#000000" stroke-width="0.75" stroke-miterlimit="10" d="M52.3,96.6c1-0.3,3.1,0,4.7,1.8"/>
<path fill="none" stroke="#000000" stroke-width="0.75" stroke-miterlimit="10" d="M40.5,98.4c0-1,2.1-1.8,4.7-1.8"/>
<line fill="none" stroke="#000000" stroke-width="0.75" stroke-miterlimit="10" x1="54.8" y1="98.1" x2="54.8" y2="98.1"/>
<g>
	<path fill="none" stroke="#C49A6C" stroke-width="0.75" stroke-miterlimit="10" d="M48.6,109.6c-0.1-0.1-0.9-0.5-1.8-0.3
		c-0.8,0.3-1.5,1-1.4,1.9c0.1,0.7,0.7,1.1,1.2,1.2c0.7,0.2,1.4,0,1.9-0.5"/>
</g>
<path fill="none" stroke="#BE1E2D" stroke-width="0.75" stroke-miterlimit="10" d="M39.6,113.6c0.3-0.5,1.1-0.8,1.1-0.8
	s0.7,0.9,1.2,1.6c1.7,2.1,4,2.7,4.9,2.9c1.3,0.3,2.3,0.1,3.3,0.1c0.8-0.1,2-0.1,3.3-0.8c0.7-0.4,1.4-0.7,2.5-1.5
	c1.2-0.8,1.3-1.1,1.3-1.1c0.8-0.8,1-0.9,1-0.9s0.4,0.5,0.5,0.8"/>
<g>
	<path fill="#FFFFFF" stroke="#000000" stroke-width="0.75" stroke-miterlimit="10" d="M51.7,106.3c0.6,0.3,1.2-0.6,2.8-0.6
		c1.5,0,2.2,0.8,2.6,0.5c0.6-0.5,0.1-2.1-0.6-4.1c-0.5-1.6-1-2.2-1.7-2.6c-0.3-0.2-0.8-0.5-1.4-0.4c-0.3,0.1-0.8,0.3-1.6,2.2
		C52,101.6,50.5,105.7,51.7,106.3z"/>
	<path fill="#603913" stroke="#000000" stroke-width="0.75" stroke-miterlimit="10" d="M52.6,105.3c-0.9-1.2-0.4-2.6-0.3-2.8
		c0.1-0.1,0.8-1.8,2-1.8c1.2,0.1,1.8,1.6,1.9,1.8c0.5,1.1-0.3,3.5-1.8,3.3C53.3,105.7,53.3,106.1,52.6,105.3z"/>
	<path fill="#726658" stroke="#000000" stroke-width="0.75" stroke-miterlimit="10" d="M54.4,105.7c-0.7-0.1-1-0.2-1-1
		c0-0.4,0.2-1.4,0.9-1.4c0.7,0,0.9,0.3,1,1.2C55.4,105.2,55.2,105.8,54.4,105.7z"/>
</g>
</svg>
