<?xml version="1.0" encoding="utf-8"?>
<!-- Generator: Adobe Illustrator 18.1.0, SVG Export Plug-In . SVG Version: 6.00 Build 0)  -->
<!DOCTYPE svg PUBLIC "-//W3C//DTD SVG 1.1//EN" "http://www.w3.org/Graphics/SVG/1.1/DTD/svg11.dtd">
<svg version="1.1" id="Layer_1" xmlns="http://www.w3.org/2000/svg" xmlns:xlink="http://www.w3.org/1999/xlink" x="0px" y="0px"
	 viewBox="0 0 727.4 684.7" enable-background="new 0 0 727.4 684.7" xml:space="preserve">
<polygon fill="#231F20" stroke="#231F20" stroke-width="8" stroke-miterlimit="10" points="26.9,257.6 130,679.9 722.6,533.9 
	620.3,108.9 "/>
<g>
	<g>
		<path fill="#FFFFFF" d="M5.1,195.7c3.2,0,3.2-5,0-5C1.9,190.7,1.9,195.7,5.1,195.7L5.1,195.7z"/>
	</g>
</g>
<polygon fill="#FFFFFF" stroke="#231F20" stroke-width="8" stroke-miterlimit="10" points="5.1,193.2 26.9,257.6 608.7,67.1 585,5 
	"/>
<polygon fill="#FFFFFF" stroke="#231F20" stroke-width="8" stroke-miterlimit="10" points="46.7,314.1 68.3,309 149,289.7 
	635.9,173.6 620.3,108.9 185.7,217.8 26.9,257.6 "/>
<polygon fill="#231F20" stroke="#231F20" stroke-width="6" stroke-miterlimit="10" points="32.4,184.4 103.2,226.2 185.8,200.2 
	114.1,157.9 "/>
<polygon fill="#231F20" stroke="#231F20" stroke-width="6" stroke-miterlimit="10" points="194.2,133.4 265.1,175.2 347.6,149.2 
	275.9,106.9 "/>
<polygon fill="#231F20" stroke="#231F20" stroke-width="6" stroke-miterlimit="10" points="358.7,79.6 429.5,121.4 512.1,95.4 
	440.4,53.1 "/>
<polygon fill="#231F20" stroke="#231F20" stroke-width="6" stroke-miterlimit="10" points="523.2,25 596,71.3 608.7,67.1 585,5 "/>
<polygon fill="#231F20" stroke="#231F20" stroke-width="6" stroke-miterlimit="10" points="68.3,309 149,289.7 189.4,218.2 
	102.9,241.5 "/>
<polygon fill="#231F20" stroke="#231F20" stroke-width="6" stroke-miterlimit="10" points="235.2,268.3 272.9,198.7 355.7,178.1 
	317.5,249.5 "/>
<polygon fill="#231F20" stroke="#231F20" stroke-width="6" stroke-miterlimit="10" points="441,153.8 400.6,229.7 487.7,208.1 
	530.5,132 "/>
<polygon fill="#231F20" stroke="#231F20" stroke-width="6" stroke-miterlimit="10" points="609.5,111.6 568.6,189.7 633.3,174.2 
	620.3,108.9 "/>
<polygon fill="none" stroke="#FFFFFF" stroke-width="6" stroke-miterlimit="10" points="56.4,374.9 277.1,318.8 313.5,471.5 
	93.5,527 "/>
<polygon fill="none" stroke="#FFFFFF" stroke-width="6" stroke-miterlimit="10" points="277.1,318.8 313.5,471.5 482,428.4 
	446.8,281.1 446.1,278.4 "/>
<polygon fill="none" stroke="#FFFFFF" stroke-width="6" stroke-miterlimit="10" points="645.6,232.7 681.5,379.9 482,428.4 
	446.1,278.4 "/>
<line fill="none" stroke="#FFFFFF" stroke-width="6" stroke-miterlimit="10" x1="109.2" y1="580.1" x2="698.8" y2="435.3"/>
<line fill="none" stroke="#FFFFFF" stroke-width="5" stroke-miterlimit="10" x1="119.2" y1="635.5" x2="712.1" y2="490.5"/>
<text transform="matrix(0.9687 -0.2482 0.2482 0.9687 59.4548 353.678)" fill="#FFFFFF" font-family="'ArialRoundedMTBold'" font-size="34">PROD. NO.</text>
<text transform="matrix(0.9711 -0.2386 0.2386 0.9711 113.3164 414.933)" fill="#FFFFFF" font-family="'ArialRoundedMTBold'" font-size="34">SCENE</text>
<text transform="matrix(0.9711 -0.2386 0.2386 0.9711 326.8611 362.6507)" fill="#FFFFFF" font-family="'ArialRoundedMTBold'" font-size="34">TAKE</text>
<text transform="matrix(0.9792 -0.203 0.203 0.9792 389.5634 419.5236)" fill="#FFFFFF" font-family="'ArialRoundedMTBold'" font-size="49">1</text>
<text transform="matrix(0.9711 -0.2386 0.2386 0.9711 517.4758 312.5146)" fill="#FFFFFF" font-family="'ArialRoundedMTBold'" font-size="34">TIME</text>
<text transform="matrix(0.9716 -0.2368 0.2368 0.9716 112.6316 562.1774)" fill="#FFFFFF" font-family="'ArialRoundedMTBold'" font-size="34">DATE</text>
<text transform="matrix(0.9716 -0.2368 0.2368 0.9716 125.0517 614.7668)" fill="#FFFFFF" font-family="'ArialRoundedMTBold'" font-size="34">DIRECTOR</text>
<text transform="matrix(0.9716 -0.2368 0.2368 0.9716 140.4592 666.0536)" fill="#FFFFFF" font-family="'ArialRoundedMTBold'" font-size="34">PRODUCED BY</text>
</svg>
