<?xml version="1.0" encoding="utf-8"?>
<!-- Generator: Adobe Illustrator 18.1.0, SVG Export Plug-In . SVG Version: 6.00 Build 0)  -->
<!DOCTYPE svg PUBLIC "-//W3C//DTD SVG 1.1//EN" "http://www.w3.org/Graphics/SVG/1.1/DTD/svg11.dtd">
<svg version="1.1" xmlns="http://www.w3.org/2000/svg" xmlns:xlink="http://www.w3.org/1999/xlink" x="0px" y="0px"
	 viewBox="0 0 834.6 831.8" enable-background="new 0 0 834.6 831.8" xml:space="preserve">
<g id="Layer_1">
</g>
<g id="Layer_4">
	<g>
		
			<rect x="64.5" y="249.5" fill="#FFFFFF" stroke="#FFFFFF" stroke-width="3.8209" stroke-linecap="round" stroke-linejoin="round" stroke-miterlimit="10" width="766.8" height="75.5"/>
		<path d="M817.8,328.4c0-0.2,0-0.4,0-0.5H10.3c0,0.1,0,0.3,0,0.5v479c0,16,8,23.9,23.9,23.9H794c15.9,0,23.8-7.9,23.8-23.9V328.4z"
			/>
		<rect x="62.5" y="407.4" fill="#FFFFFF" width="709.1" height="7.3"/>
		<rect x="62.5" y="487.4" fill="#FFFFFF" width="709.1" height="7.3"/>
		<rect x="62.5" y="570.4" fill="#FFFFFF" width="709.1" height="7.5"/>
		<polygon fill="#FFFFFF" points="771.6,657.2 771.6,664.6 544.5,664.6 544.5,799.4 537.1,799.4 537.1,664.6 299.4,664.6 
			299.4,799.4 292,799.4 292,664.6 62.5,664.6 62.5,657.2 		"/>
		<path fill="none" stroke="#000000" stroke-linecap="round" stroke-linejoin="round" stroke-miterlimit="10" d="M817.8,327.9
			c0,0.1,0,0.3,0,0.5v479c0,16-7.9,23.9-23.8,23.9H34.2c-15.9,0-23.9-7.9-23.9-23.9v-479c0-0.2,0-0.4,0-0.5"/>
		<g>
			<path d="M650.4,326.7l78.8-78.8H615.9l-78.8,78.8H650.4z"/>
			<path d="M832.6,326.7v-78.8l-78.8,78.8H832.6z"/>
			<path d="M406,247.9l-78.8,78.8h103.4l78.8-78.8H406z"/>
			<path d="M37.4,296.4L86,247.9H37.4V296.4z"/>
			<path d="M213.9,326.7l78.9-78.8H189.3l-78.8,78.8H213.9z"/>
			
				<line fill="none" stroke="#000000" stroke-width="4" stroke-linecap="round" stroke-linejoin="round" stroke-miterlimit="10" x1="729.2" y1="247.9" x2="615.9" y2="247.9"/>
			
				<line fill="none" stroke="#000000" stroke-width="4" stroke-linecap="round" stroke-linejoin="round" stroke-miterlimit="10" x1="650.4" y1="326.7" x2="729.2" y2="247.9"/>
			
				<polyline fill="none" stroke="#000000" stroke-width="4" stroke-linecap="round" stroke-linejoin="round" stroke-miterlimit="10" points="
				753.8,326.7 832.6,326.7 832.6,247.9 			"/>
			
				<line fill="none" stroke="#000000" stroke-width="4" stroke-linecap="round" stroke-linejoin="round" stroke-miterlimit="10" x1="729.2" y1="247.9" x2="832.6" y2="247.9"/>
			
				<line fill="none" stroke="#000000" stroke-width="4" stroke-linecap="round" stroke-linejoin="round" stroke-miterlimit="10" x1="832.6" y1="247.9" x2="753.8" y2="326.7"/>
			
				<line fill="none" stroke="#000000" stroke-width="4" stroke-linecap="round" stroke-linejoin="round" stroke-miterlimit="10" x1="327.2" y1="326.7" x2="406" y2="247.9"/>
			
				<line fill="none" stroke="#000000" stroke-width="4" stroke-linecap="round" stroke-linejoin="round" stroke-miterlimit="10" x1="327.2" y1="326.7" x2="430.6" y2="326.7"/>
			
				<line fill="none" stroke="#000000" stroke-width="4" stroke-linecap="round" stroke-linejoin="round" stroke-miterlimit="10" x1="537.1" y1="326.7" x2="615.9" y2="247.9"/>
			
				<line fill="none" stroke="#000000" stroke-width="4" stroke-linecap="round" stroke-linejoin="round" stroke-miterlimit="10" x1="615.9" y1="247.9" x2="509.4" y2="247.9"/>
			
				<line fill="none" stroke="#000000" stroke-width="4" stroke-linecap="round" stroke-linejoin="round" stroke-miterlimit="10" x1="537.1" y1="326.7" x2="430.6" y2="326.7"/>
			
				<line fill="none" stroke="#000000" stroke-width="4" stroke-linecap="round" stroke-linejoin="round" stroke-miterlimit="10" x1="430.6" y1="326.7" x2="509.4" y2="247.9"/>
			
				<line fill="none" stroke="#000000" stroke-width="4" stroke-linecap="round" stroke-linejoin="round" stroke-miterlimit="10" x1="509.4" y1="247.9" x2="406" y2="247.9"/>
			
				<polyline fill="none" stroke="#000000" stroke-width="4" stroke-linecap="round" stroke-linejoin="round" stroke-miterlimit="10" points="
				37.4,296.4 37.4,326.7 110.5,326.7 			"/>
			
				<line fill="none" stroke="#000000" stroke-width="4" stroke-linecap="round" stroke-linejoin="round" stroke-miterlimit="10" x1="37.4" y1="296.4" x2="86" y2="247.9"/>
			
				<polyline fill="none" stroke="#000000" stroke-width="4" stroke-linecap="round" stroke-linejoin="round" stroke-miterlimit="10" points="
				86,247.9 37.4,247.9 37.4,296.4 			"/>
			
				<line fill="none" stroke="#000000" stroke-width="4" stroke-linecap="round" stroke-linejoin="round" stroke-miterlimit="10" x1="213.9" y1="326.7" x2="292.8" y2="247.9"/>
			
				<line fill="none" stroke="#000000" stroke-width="4" stroke-linecap="round" stroke-linejoin="round" stroke-miterlimit="10" x1="292.8" y1="247.9" x2="189.3" y2="247.9"/>
			
				<line fill="none" stroke="#000000" stroke-width="4" stroke-linecap="round" stroke-linejoin="round" stroke-miterlimit="10" x1="110.5" y1="326.7" x2="189.3" y2="247.9"/>
			
				<line fill="none" stroke="#000000" stroke-width="4" stroke-linecap="round" stroke-linejoin="round" stroke-miterlimit="10" x1="189.3" y1="247.9" x2="86" y2="247.9"/>
			
				<line fill="none" stroke="#000000" stroke-width="4" stroke-linecap="round" stroke-linejoin="round" stroke-miterlimit="10" x1="110.5" y1="326.7" x2="213.9" y2="326.7"/>
			
				<line fill="none" stroke="#000000" stroke-width="4" stroke-linecap="round" stroke-linejoin="round" stroke-miterlimit="10" x1="406" y1="247.9" x2="292.8" y2="247.9"/>
			
				<line fill="none" stroke="#000000" stroke-width="4" stroke-linecap="round" stroke-linejoin="round" stroke-miterlimit="10" x1="213.9" y1="326.7" x2="327.2" y2="326.7"/>
			
				<line fill="none" stroke="#000000" stroke-width="4" stroke-linecap="round" stroke-linejoin="round" stroke-miterlimit="10" x1="650.4" y1="326.7" x2="537.1" y2="326.7"/>
			
				<line fill="none" stroke="#000000" stroke-width="4" stroke-linecap="round" stroke-linejoin="round" stroke-miterlimit="10" x1="753.8" y1="326.7" x2="650.4" y2="326.7"/>
		</g>
		<g>
			<path d="M52.2,166H0.5v165.4h128v-49.9L52.2,166z M38.1,189.4c0,2.5-0.9,4.6-2.6,6.5c-1.8,1.8-3.9,2.7-6.4,2.7
				c-2.4,0-4.5-0.9-6.3-2.7c-1.7-1.9-2.6-4-2.6-6.5c0-2.5,0.9-4.8,2.6-6.6c1.8-1.9,3.9-2.7,6.3-2.7c2.5,0,4.6,0.8,6.4,2.7
				C37.2,184.7,38.1,187,38.1,189.4z M16.6,304.3c0-2.6,0.8-4.8,2.6-6.6c1.8-1.9,3.9-2.7,6.4-2.7s4.5,0.8,6.3,2.7
				c1.8,1.9,2.7,4,2.7,6.6c0,2.5-0.9,4.6-2.7,6.4c-1.8,2-3.8,2.9-6.3,2.9s-4.6-0.9-6.4-2.9C17.4,309,16.6,306.8,16.6,304.3z
				 M100.7,313.6c-2.5,0-4.6-0.9-6.4-2.9c-1.8-1.8-2.6-3.9-2.6-6.4c0-2.6,0.8-4.8,2.6-6.6c1.8-1.9,3.9-2.7,6.4-2.7s4.5,0.8,6.3,2.7
				c1.8,1.9,2.7,4,2.7,6.6c0,2.5-0.9,4.6-2.7,6.4C105.2,312.7,103.2,313.6,100.7,313.6z"/>
			<path fill="#FFFFFF" d="M35.5,196c1.7-1.9,2.6-4,2.6-6.5c0-2.5-0.9-4.8-2.6-6.6c-1.8-1.9-3.9-2.7-6.4-2.7c-2.4,0-4.5,0.8-6.3,2.7
				c-1.7,1.9-2.6,4.1-2.6,6.6c0,2.5,0.9,4.6,2.6,6.5c1.8,1.8,3.9,2.7,6.3,2.7C31.6,198.6,33.7,197.7,35.5,196z"/>
			<path fill="#FFFFFF" d="M19.2,297.7c-1.8,1.9-2.6,4-2.6,6.6c0,2.5,0.8,4.6,2.6,6.4c1.8,2,3.9,2.9,6.4,2.9s4.5-0.9,6.3-2.9
				c1.8-1.8,2.7-3.9,2.7-6.4c0-2.6-0.9-4.8-2.7-6.6c-1.8-1.9-3.8-2.7-6.3-2.7S21,295.9,19.2,297.7z"/>
			<path fill="#FFFFFF" d="M94.3,310.7c1.8,2,3.9,2.9,6.4,2.9s4.5-0.9,6.3-2.9c1.8-1.8,2.7-3.9,2.7-6.4c0-2.6-0.9-4.8-2.7-6.6
				c-1.8-1.9-3.8-2.7-6.3-2.7s-4.6,0.8-6.4,2.7c-1.8,1.9-2.6,4-2.6,6.6C91.7,306.8,92.5,309,94.3,310.7z"/>
			
				<path fill="none" stroke="#000000" stroke-width="1.0164" stroke-linecap="round" stroke-linejoin="round" stroke-miterlimit="10" d="
				M38.1,189.4c0-2.5-0.9-4.8-2.6-6.6c-1.8-1.9-3.9-2.7-6.4-2.7c-2.4,0-4.5,0.8-6.3,2.7c-1.7,1.9-2.6,4.1-2.6,6.6
				c0,2.5,0.9,4.6,2.6,6.5c1.8,1.8,3.9,2.7,6.3,2.7c2.5,0,4.6-0.9,6.4-2.7C37.2,194.1,38.1,191.9,38.1,189.4"/>
			
				<polyline fill="none" stroke="#000000" stroke-width="1.0164" stroke-linecap="round" stroke-linejoin="round" stroke-miterlimit="10" points="
				0.5,166 0.5,331.4 128.5,331.4 128.5,281.5 52.2,166 0.5,166 			"/>
			
				<path fill="none" stroke="#000000" stroke-width="1.0164" stroke-linecap="round" stroke-linejoin="round" stroke-miterlimit="10" d="
				M16.6,304.3c0,2.5,0.8,4.6,2.6,6.4c1.8,2,3.9,2.9,6.4,2.9s4.5-0.9,6.3-2.9c1.8-1.8,2.7-3.9,2.7-6.4c0-2.6-0.9-4.8-2.7-6.6
				c-1.8-1.9-3.8-2.7-6.3-2.7s-4.6,0.8-6.4,2.7C17.4,299.6,16.6,301.7,16.6,304.3"/>
			
				<path fill="none" stroke="#000000" stroke-width="1.0164" stroke-linecap="round" stroke-linejoin="round" stroke-miterlimit="10" d="
				M100.7,313.6c2.5,0,4.5-0.9,6.3-2.9c1.8-1.8,2.7-3.9,2.7-6.4c0-2.6-0.9-4.8-2.7-6.6c-1.8-1.9-3.8-2.7-6.3-2.7s-4.6,0.8-6.4,2.7
				c-1.8,1.9-2.6,4-2.6,6.6c0,2.5,0.8,4.6,2.6,6.4C96.1,312.7,98.2,313.6,100.7,313.6"/>
		</g>
		<text transform="matrix(1 0 0 1 70.95 391.8)" fill="#FFFFFF" font-family="'ArialMT'" font-size="36">DATE</text>
		<text transform="matrix(1 0 0 1 70.95 709.8)" fill="#FFFFFF" font-family="'ArialMT'" font-size="36">SCENE</text>
		<text transform="matrix(1 0 0 1 314.95 709.8)" fill="#FFFFFF" font-family="'ArialMT'" font-size="36">TAKE</text>
		<text transform="matrix(1 0 0 1 562.6498 709.8)" fill="#FFFFFF" font-family="'ArialMT'" font-size="36">TIME</text>
		<text transform="matrix(1 0 0 1 70.95 472.8)" fill="#FFFFFF" font-family="'ArialMT'" font-size="36">DIRECTOR</text>
		<text transform="matrix(1 0 0 1 70.95 554.8)" fill="#FFFFFF" font-family="'ArialMT'" font-size="36">PRODUCER</text>
	</g>
</g>
<g id="Layer_3" display="none">
	<g display="inline">
		
			<rect x="39.4" y="170.7" fill="#FFFFFF" stroke="#FFFFFF" stroke-width="3.9072" stroke-linecap="round" stroke-linejoin="round" stroke-miterlimit="10" width="791.8" height="74.5"/>
		<g>
			<path d="M832.8,247l-0.1-78.9l-78.7,0.1L832.8,247z"/>
			<path d="M650.8,168.4l-113.1,0.1l78.8,78.6l113.1-0.1L650.8,168.4z"/>
			<path d="M431.2,168.6l-103.4,0.2l78.8,78.6l103.4-0.2L431.2,168.6z"/>
			<path d="M38.4,199.4l0.1,48.5l48.4-0.2L38.4,199.4z"/>
			<path d="M190.1,247.7l103.4-0.2l-78.9-78.6L111.4,169L190.1,247.7z"/>
			
				<line fill="none" stroke="#000000" stroke-width="4" stroke-linecap="round" stroke-linejoin="round" stroke-miterlimit="10" x1="729.6" y1="247.1" x2="616.4" y2="247.1"/>
			
				<line fill="none" stroke="#000000" stroke-width="4" stroke-linecap="round" stroke-linejoin="round" stroke-miterlimit="10" x1="832.8" y1="247" x2="729.6" y2="247.1"/>
			
				<line fill="none" stroke="#000000" stroke-width="4" stroke-linecap="round" stroke-linejoin="round" stroke-miterlimit="10" x1="832.8" y1="247" x2="754.1" y2="168.3"/>
			
				<line fill="none" stroke="#000000" stroke-width="4" stroke-linecap="round" stroke-linejoin="round" stroke-miterlimit="10" x1="537.6" y1="168.5" x2="650.8" y2="168.4"/>
			
				<line fill="none" stroke="#000000" stroke-width="4" stroke-linecap="round" stroke-linejoin="round" stroke-miterlimit="10" x1="537.6" y1="168.5" x2="616.4" y2="247.1"/>
			
				<line fill="none" stroke="#000000" stroke-width="4" stroke-linecap="round" stroke-linejoin="round" stroke-miterlimit="10" x1="616.4" y1="247.1" x2="509.9" y2="247.3"/>
			
				<line fill="none" stroke="#000000" stroke-width="4" stroke-linecap="round" stroke-linejoin="round" stroke-miterlimit="10" x1="327.8" y1="168.8" x2="431.2" y2="168.6"/>
			
				<line fill="none" stroke="#000000" stroke-width="4" stroke-linecap="round" stroke-linejoin="round" stroke-miterlimit="10" x1="509.9" y1="247.3" x2="406.5" y2="247.4"/>
			
				<line fill="none" stroke="#000000" stroke-width="4" stroke-linecap="round" stroke-linejoin="round" stroke-miterlimit="10" x1="406.5" y1="247.4" x2="327.8" y2="168.8"/>
			
				<line fill="none" stroke="#000000" stroke-width="4" stroke-linecap="round" stroke-linejoin="round" stroke-miterlimit="10" x1="509.9" y1="247.3" x2="431.2" y2="168.6"/>
			
				<line fill="none" stroke="#000000" stroke-width="4" stroke-linecap="round" stroke-linejoin="round" stroke-miterlimit="10" x1="431.2" y1="168.6" x2="537.6" y2="168.5"/>
			
				<polyline fill="none" stroke="#000000" stroke-width="4" stroke-linecap="round" stroke-linejoin="round" stroke-miterlimit="10" points="
				38.4,199.4 38.3,169.1 111.4,169 			"/>
			
				<polyline fill="none" stroke="#000000" stroke-width="4" stroke-linecap="round" stroke-linejoin="round" stroke-miterlimit="10" points="
				86.8,247.7 38.4,247.9 38.4,199.4 			"/>
			
				<line fill="none" stroke="#000000" stroke-width="4" stroke-linecap="round" stroke-linejoin="round" stroke-miterlimit="10" x1="86.8" y1="247.7" x2="38.4" y2="199.4"/>
			
				<line fill="none" stroke="#000000" stroke-width="4" stroke-linecap="round" stroke-linejoin="round" stroke-miterlimit="10" x1="293.5" y1="247.5" x2="190.1" y2="247.7"/>
			
				<line fill="none" stroke="#000000" stroke-width="4" stroke-linecap="round" stroke-linejoin="round" stroke-miterlimit="10" x1="111.4" y1="169" x2="214.6" y2="168.9"/>
			
				<line fill="none" stroke="#000000" stroke-width="4" stroke-linecap="round" stroke-linejoin="round" stroke-miterlimit="10" x1="214.6" y1="168.9" x2="293.5" y2="247.5"/>
			
				<line fill="none" stroke="#000000" stroke-width="4" stroke-linecap="round" stroke-linejoin="round" stroke-miterlimit="10" x1="111.4" y1="169" x2="190.1" y2="247.7"/>
			
				<line fill="none" stroke="#000000" stroke-width="4" stroke-linecap="round" stroke-linejoin="round" stroke-miterlimit="10" x1="190.1" y1="247.7" x2="86.8" y2="247.7"/>
			
				<line fill="none" stroke="#000000" stroke-width="4" stroke-linecap="round" stroke-linejoin="round" stroke-miterlimit="10" x1="406.5" y1="247.4" x2="293.5" y2="247.5"/>
			
				<line fill="none" stroke="#000000" stroke-width="4" stroke-linecap="round" stroke-linejoin="round" stroke-miterlimit="10" x1="214.6" y1="168.9" x2="327.8" y2="168.8"/>
			
				<line fill="none" stroke="#000000" stroke-width="4" stroke-linecap="round" stroke-linejoin="round" stroke-miterlimit="10" x1="650.8" y1="168.4" x2="754.1" y2="168.3"/>
			
				<line fill="none" stroke="#000000" stroke-width="4" stroke-linecap="round" stroke-linejoin="round" stroke-miterlimit="10" x1="650.8" y1="168.4" x2="729.6" y2="247.1"/>
			
				<polyline fill="none" stroke="#000000" stroke-width="4" stroke-linecap="round" stroke-linejoin="round" stroke-miterlimit="10" points="
				754.1,168.3 832.8,168.1 832.8,247 			"/>
		</g>
	</g>
</g>
<g id="Layer_2">
</g>
</svg>
