<?xml version="1.0" encoding="utf-8"?>
<!-- Generator: Adobe Illustrator 18.1.0, SVG Export Plug-In . SVG Version: 6.00 Build 0)  -->
<!DOCTYPE svg PUBLIC "-//W3C//DTD SVG 1.1//EN" "http://www.w3.org/Graphics/SVG/1.1/DTD/svg11.dtd">
<svg version="1.1" xmlns="http://www.w3.org/2000/svg" xmlns:xlink="http://www.w3.org/1999/xlink" x="0px" y="0px"
	 viewBox="0 0 446 446" enable-background="new 0 0 446 446" xml:space="preserve">
<g id="Layer_1" display="none">
	<g display="inline">
		
			<image overflow="visible" opacity="0.5" width="463" height="463" xlink:href="6D5F6BA3A29732D6.png"  transform="matrix(1 0 0 1 -5.0313 -6.0313)">
		</image>
		<g>
			<g>
				<circle fill="#90F500" stroke="#90F500" stroke-width="11.2553" stroke-miterlimit="10" cx="209.8" cy="208.1" r="184"/>
				<path fill="#FFFFFF" d="M209.5,13.5C101.7,13.5,14,101.2,14,209s87.7,195.5,195.5,195.5C317.3,404.5,405,316.8,405,209
					S317.3,13.5,209.5,13.5z M209.5,374.4c-91.2,0-165.4-74.2-165.4-165.4S118.3,43.6,209.5,43.6c91.2,0,165.4,74.2,165.4,165.4
					S300.7,374.4,209.5,374.4z"/>
				<path fill="#FFFFFF" d="M289.1,138.2L179.4,247.9l-49.5-49.5c-5.9-5.9-15.4-5.9-21.3,0c-5.9,5.9-5.9,15.4,0,21.3l60.2,60.2
					c2.9,2.9,6.8,4.4,10.6,4.4c3.8,0,7.7-1.5,10.6-4.4l120.3-120.3c5.9-5.9,5.9-15.4,0-21.3C304.5,132.3,295,132.3,289.1,138.2z"/>
			</g>
		</g>
	</g>
</g>
<g id="Layer_2">
	<g id="Page-1_1_" sketch:type="MSPage">
		
			<image overflow="visible" opacity="0.5" width="462" height="462" xlink:href="6D5F6BA3A29732DA.png"  transform="matrix(1 0 0 1 -4.9322 -6.9322)">
		</image>
		<g>
			<g>
				<g id="Video-w_x2F_-rewards_11_" transform="translate(-292.000000, -916.000000)" sketch:type="MSArtboardGroup">
					<g id="x_15_" transform="translate(299.000000, 921.000000)" sketch:type="MSLayerGroup">
						<path id="Fill-2365_18_" sketch:type="MSShapeGroup" fill="#E12A2A" stroke="#FFFFFF" stroke-width="22.2605" d="M277,266.1
							c3.1,3.2,3.1,8.3,0,11.4c-1.6,1.6-3.6,2.4-5.7,2.4c-2.1,0-4.1-0.8-5.7-2.4l-62.6-62.9l-62.8,62.6c-1.6,1.6-3.6,2.4-5.7,2.4
							c-2.1,0-4.1-0.8-5.7-2.4c-3.1-3.2-3.1-8.3,0-11.4l62.9-62.6L129,140.4c-3.1-3.2-3.1-8.3,0-11.4c3.1-3.2,8.3-3.1,11.4,0
							l62.6,62.9l62.9-62.6c3.1-3.1,8.3-3.1,11.4,0c3.1,3.2,3.1,8.3,0,11.4l-62.9,62.6L277,266.1z M203,380.7L203,380.7L203,380.7z
							 M203,17.7c-102.1,0-185.3,83.1-185.5,185.1c-0.1,49.6,19.1,96.2,54.1,131.3c35,35.1,81.5,54.5,131.1,54.6h0.4
							c102.1,0,185.3-83.1,185.5-185.1C388.7,101.3,305.6,17.9,203,17.7L203,17.7z"/>
					</g>
				</g>
			</g>
		</g>
	</g>
</g>
</svg>
