<?xml version="1.0" encoding="utf-8"?>
<!-- Generator: Adobe Illustrator 18.1.0, SVG Export Plug-In . SVG Version: 6.00 Build 0)  -->
<!DOCTYPE svg PUBLIC "-//W3C//DTD SVG 1.1//EN" "http://www.w3.org/Graphics/SVG/1.1/DTD/svg11.dtd">
<svg version="1.1" id="Layer_1" xmlns="http://www.w3.org/2000/svg" xmlns:xlink="http://www.w3.org/1999/xlink" x="0px" y="0px" viewBox="0 0 401.3 127.2" enable-background="new 0 0 401.3 127.2" xml:space="preserve">
  <g>
  	<path d="M0.7,50.8C-1.4,44.6,1.3,39.8,6.6,38c5.3-1.8,10.4,0.2,12.5,6.4L40.6,106l21.8-7.6c6.3-2.2,10.6,1.5,11.9,5.8c1.2,4.1-0.6,9.3-6,11.2L37.7,126c-6,2.1-10.9-0.6-13.1-6.7L0.7,50.8z"/>
  	<path d="M63.7,32.1c-1.4-6.3,0.7-11.7,7.4-13.2l31.5-7c6.1-1.4,10,2.3,11,6.8c1,4.3-1.1,9.4-7.1,10.8l-22.3,5l4.1,18.5l20.8-4.6c6.2-1.4,10.2,2.3,11.2,6.7c1,4.3-1.2,9.5-7.3,10.8l-20.8,4.6l4.3,19.3l23.5-5.2c6.1-1.4,10,2.3,11,6.8c1,4.3-1.1,9.4-7.1,10.8l-32.7,7.3c-5.6,1.2-10.6-1.6-11.9-7.3L63.7,32.1z"/>
  	<path d="M149.3,23.1l-14.1,1.3c-6.2,0.6-9.2-3.7-9.7-8.1c-0.4-4.5,2.4-9.2,7.9-9.8l47.6-4.5c5.6-0.5,9.2,3.6,9.7,8.1c0.4,4.4-1.7,9.2-7.9,9.8l-14.1,1.3l6.2,65c0.6,6.5-3.2,10.5-8.7,11c-5.6,0.5-10.1-2.7-10.7-9.2L149.3,23.1z"/>
  	<path d="M214.5,33.3c-1.5,3-5.3,4.5-7.3,4.5c-4.7,0.1-8.9-3.8-9-8.4c0-1.8,0.7-3.5,1.5-5.2l10.5-19.7c1.6-3,5.4-4.5,7.5-4.5c4.7-0.1,9,3.8,9.1,8.4c0,1.8-0.9,3.5-1.6,5.2L214.5,33.3z"/>
  	<path d="M299.2,18.6c-0.5,5-4.3,9.2-9.6,8.7s-9.1-4.8-16.8-5.6c-5.6-0.6-10.9,1.9-11.5,7.3c-1.3,13.3,42.7,9.1,39.3,42.5c-1.9,18.5-18.3,28.5-36.1,26.7c-10-1-31.2-5.5-30-17.7c0.5-5,4.3-8.8,9.6-8.3c6.1,0.6,12.8,6.4,21.2,7.2c8.5,0.9,13.7-3.5,14.3-9.8c1.5-15.3-42.6-10.4-39.6-40.5c1.8-18.1,17.8-27.9,35-26.1C282.4,3.9,300.2,8.4,299.2,18.6z"/>
  	<path d="M322,86.6c5.5,1.1,9,6.5,7.8,12c-1.1,5.5-6.5,9-12,7.8c-5.5-1.1-9-6.5-7.8-12C311.1,89,316.5,85.4,322,86.6z"/>
  	<path d="M358.7,95.7c5.4,1.5,8.5,7.2,6.9,12.5c-1.5,5.4-7.2,8.5-12.5,6.9c-5.4-1.5-8.5-7.2-6.9-12.5C347.7,97.3,353.4,94.2,358.7,95.7z"/>
  	<path d="M394.7,107.5c5.2,1.9,7.9,7.8,6,13c-1.9,5.2-7.8,7.9-13,6c-5.2-1.9-7.9-7.8-6-13C383.6,108.3,389.5,105.6,394.7,107.5z"/>
  </g>
</svg>
