<?xml version="1.0" encoding="utf-8"?>
<!-- Generator: Adobe Illustrator 18.1.0, SVG Export Plug-In . SVG Version: 6.00 Build 0)  -->
<!DOCTYPE svg PUBLIC "-//W3C//DTD SVG 1.1//EN" "http://www.w3.org/Graphics/SVG/1.1/DTD/svg11.dtd">
<svg version="1.1" xmlns="http://www.w3.org/2000/svg" xmlns:xlink="http://www.w3.org/1999/xlink" x="0px" y="0px"
	 viewBox="0 0 793.7 746.9" enable-background="new 0 0 793.7 746.9" xml:space="preserve">
<g id="Layer_1">
	<g>
		<g>
			<defs>
				<rect id="SVGID_1_" x="0" y="0" width="793.7" height="746.9"/>
			</defs>
			<clipPath id="SVGID_2_">
				<use xlink:href="#SVGID_1_"  overflow="visible"/>
			</clipPath>
			<g clip-path="url(#SVGID_2_)">
				<defs>
					<rect id="SVGID_3_" x="-1965.8" y="-1406.8" width="4730.8" height="3558.2"/>
				</defs>
				<clipPath id="SVGID_4_">
					<use xlink:href="#SVGID_3_"  overflow="visible"/>
				</clipPath>
				<path clip-path="url(#SVGID_4_)" fill="#FFF200" d="M790.7,373.5c0,204.7-176.3,370.6-393.8,370.6S3,578.1,3,373.5
					S179.3,2.9,396.8,2.9S790.7,168.8,790.7,373.5"/>
				<path clip-path="url(#SVGID_4_)" fill="none" stroke="#FFF200" stroke-miterlimit="10" d="M790.7,373.5
					c0,204.7-176.3,370.6-393.8,370.6S3,578.1,3,373.5S179.3,2.9,396.8,2.9S790.7,168.8,790.7,373.5z"/>
				<polygon clip-path="url(#SVGID_4_)" fill="#FFF200" points="622.9,654.7 402.5,547.9 184,658.5 223.9,427.9 44.8,266.3 
					289.9,230.6 397.8,20.2 509.4,228.8 755,260.3 579,424.8 				"/>
				<polygon clip-path="url(#SVGID_4_)" fill="none" stroke="#000000" stroke-width="3" stroke-miterlimit="10" points="
					622.9,654.7 402.5,547.9 184,658.5 223.9,427.9 44.8,266.3 289.9,230.6 397.8,20.2 509.4,228.8 755,260.3 579,424.8 				"/>
			</g>
		</g>
	</g>
</g>
<g id="Layer_2">
</g>
</svg>
