<?xml version="1.0" encoding="utf-8"?>
<!-- Generator: Adobe Illustrator 18.1.0, SVG Export Plug-In . SVG Version: 6.00 Build 0)  -->
<!DOCTYPE svg PUBLIC "-//W3C//DTD SVG 1.1//EN" "http://www.w3.org/Graphics/SVG/1.1/DTD/svg11.dtd">
<svg version="1.1" id="Layer_1" xmlns="http://www.w3.org/2000/svg" xmlns:xlink="http://www.w3.org/1999/xlink" x="0px" y="0px" viewBox="0 0 839.1 276.8" enable-background="new 0 0 839.1 276.8" xml:space="preserve">
  <g>
  	<path d="M58.7,2.1c4.6-3.3,9.5-2.8,13.1,2l12.5,17.2C94.6,35.6,93,52.9,79.2,63c-14.2,10.3-31,5.8-40.7-7.5l-7.9-10.8L14.8,56.4C9.9,59.9,5,58.8,1.9,54.7s-2.6-9.3,2.3-12.8L58.7,2.1z M43.5,35.5l7.2,9.9c4.5,6.1,11.7,6.7,17.6,2.5c5.8-4.2,7.4-11.4,3-17.5L64,20.5L43.5,35.5z"/>
  	<path d="M98.1,54.9c4.1-4.1,8.9-4.3,13.2-0.1l14.9,15c13,13.1,15.2,27,1.9,40.3c-9.3,9.3-21.7,7.6-31.7,0.3l-1.1,29.9c-0.1,2.5-0.9,4.2-2,5.4c-3.3,3.3-9.2,3.9-12.9,0.1c-1.5-1.5-3-4.2-2.7-7.1l4.1-41.7l-0.2-0.2l-18.4,18.4c-4.2,4.2-9.3,3.9-13,0.2c-3.6-3.7-4-8.7,0.3-13L98.1,54.9z M90.7,87.8l8.7,8.8c4.7,4.7,10.7,5.1,15.4,0.4c4.8-4.8,4.3-10.7-0.4-15.4l-8.7-8.8L90.7,87.8z"/>
  	<path d="M161.4,112.1c4.9-3.3,11.3-4.2,16.2-0.6c5.2,3.7,6.3,9.7,4.6,15.6l-19,66.7c-0.5,2-1.3,3.5-1.8,4.2c-2.7,3.8-7.7,4.2-11.3,1.6c-4.1-2.9-4.6-6.6-3.5-10.2l3.7-11.3l-27.1-19.5l-9.4,7c-3.1,2.3-6.7,3-10.7,0.1c-3.9-2.8-5.1-8.1-2.3-12c1.1-1.6,2.5-2.4,3-2.7L161.4,112.1z M137,148.2l18.5,13.3l11.3-34.8l-0.2-0.1L137,148.2z"/>
  	<path d="M244.6,150.7c7.9,3.8,21.9,13.9,17.3,23.4c-1.9,3.9-6.2,5.9-10.2,4c-4.4-2.2-5.6-7.4-14.7-11.8c-13.4-6.5-25.8,1.5-32.2,14.6c-6.2,12.8-4.6,27.3,8.7,33.7c9.1,4.4,14.9,1.7,19.4,3.8c4.9,2.4,4.8,8.3,3.6,10.8c-5,10.4-22.5,4.8-30.5,0.9c-21.9-10.6-28.7-35.4-17.8-57.8C199.1,150,222.6,140,244.6,150.7z"/>
  	<path d="M283.2,185.5l-12.5-3.9c-5.5-1.7-6.6-6.4-5.4-10.3c1.2-4,5.3-7,10.2-5.5l42.2,13c4.9,1.5,6.6,6.3,5.4,10.3c-1.2,3.9-4.7,7.2-10.2,5.5l-12.5-3.9l-17.8,57.6c-1.8,5.7-6.4,7.8-11.4,6.3c-4.9-1.5-7.6-5.9-5.8-11.6L283.2,185.5z"/>
  	<path d="M327.5,189.5c1.2-5.9,5.6-8.4,10.7-7.4c5.1,1,8.2,5.1,7,10.9l-13.3,66.8c-1.2,5.9-5.6,8.4-10.7,7.4c-5.1-1-8.2-5.1-7-10.9L327.5,189.5z"/>
  	<path d="M394.2,188.6c8.7,0.7,25.5,4.8,24.7,15.4c-0.3,4.3-3.6,7.8-8,7.4c-4.9-0.4-7.9-4.8-18-5.6c-14.8-1.1-23.5,10.8-24.6,25.4c-1.1,14.2,5.7,27,20.5,28.2c10,0.8,14.5-3.9,19.4-3.6c5.4,0.4,7.5,6,7.3,8.7c-0.9,11.5-19.2,12.7-28,12c-24.3-1.9-39.7-22.4-37.8-47.2C351.6,204.6,369.8,186.7,394.2,188.6z"/>
  	<path d="M428.1,201.7c-0.4-6,2.3-10.6,8.6-11.1l29.7-2.1c5.7-0.4,8.8,3.5,9.1,7.7c0.3,4.1-2.3,8.5-7.9,8.9l-21.1,1.5l1.2,17.5l19.6-1.4c5.9-0.4,9,3.5,9.3,7.6c0.3,4.1-2.4,8.5-8.2,8.9l-19.6,1.4l1.3,18.2l22.1-1.6c5.7-0.4,8.8,3.5,9.1,7.7c0.3,4.1-2.3,8.5-7.9,8.9l-30.9,2.2c-5.3,0.4-9.5-2.9-9.8-8.3L428.1,201.7z"/>
  	<path d="M534.2,184c0.3-5.9,3.5-11.5,9.3-13.3c6.1-1.9,11.6,0.8,15.2,5.7l41.8,55.4c1.3,1.6,2,3.2,2.2,4c1.4,4.5-1.3,8.7-5.6,10c-4.8,1.5-8-0.3-10.2-3.4l-6.8-9.7l-31.9,9.9l-0.1,11.7c0,3.9-1.7,7.2-6.4,8.6c-4.6,1.4-9.5-0.8-11-5.4c-0.6-1.8-0.4-3.4-0.4-4L534.2,184z M548.3,225.2l21.8-6.8l-21-29.9l-0.2,0.1L548.3,225.2z"/>
  	<path d="M656.8,159.8c6.7-3.5,11.1-1.5,14.7,5.3c10.8,20.5,5.6,42.9-15.7,54.1c-21.5,11.4-45.5,2.2-57.1-19.8c-11.7-22.1-5.8-46.9,15.9-58.3c16-8.5,33.2-7.9,37.1-0.4c2.4,4.6,1.1,8.9-2.7,10.9c-7.2,3.8-12.8-3.2-26.7,4.2c-13.3,7-13.8,22.1-7.1,34.9c6.8,12.9,19.4,21,32.8,13.9c8.4-4.4,15.6-14.2,9.2-26.3l-10.8,5.7c-4.4,2.3-9.1,0.8-11.3-3.5c-2.4-4.5-0.4-9,3.6-11.1L656.8,159.8z"/>
  	<path d="M673.9,115.5c-1.8-5.6-0.9-12,3.9-15.8c5-3.9,11.1-3.4,16.2-0.2l59,36.6c1.8,1.1,3,2.2,3.5,2.9c2.9,3.7,1.9,8.6-1.6,11.3c-4,3.1-7.6,2.6-10.7,0.5l-9.8-6.6L708.2,165l4.1,11c1.4,3.7,1,7.3-2.8,10.3c-3.8,3-9.2,2.7-12.2-1.1c-1.2-1.5-1.6-3-1.8-3.6L673.9,115.5z M702,148.8l17.9-14.1l-30.3-20.4l-0.2,0.1L702,148.8z"/>
  	<path d="M716.3,79.5c-4.3-4.2-4-9.3-0.3-13c3.6-3.7,8.7-4,13,0.2l48.5,47.9c4.3,4.2,4,9.3,0.3,13s-8.7,4-13-0.2L716.3,79.5z"/>
  	<path d="M736.7,60.4c-4.8-3.6-5.1-8.7-2-12.8c1.4-1.8,5.1-3.7,7.7-3.6l63.4,0.5l0.1-0.2L770,16.8c-4.8-3.6-5.1-8.7-2-12.8s8.1-5.1,12.9-1.5l54.2,41.3c4.8,3.6,5.1,8.7,2,12.8c-1.4,1.8-5,3.6-7.7,3.6l-63-0.1l-0.1,0.2l35.6,27.1c4.8,3.6,5.1,8.7,2,12.8c-3.1,4.1-8.1,5.1-12.9,1.5L736.7,60.4z"/>
  </g>
</svg>
