<?xml version="1.0" encoding="utf-8"?>
<!-- Generator: Adobe Illustrator 18.1.0, SVG Export Plug-In . SVG Version: 6.00 Build 0)  -->
<!DOCTYPE svg PUBLIC "-//W3C//DTD SVG 1.1//EN" "http://www.w3.org/Graphics/SVG/1.1/DTD/svg11.dtd">
<svg version="1.1" id="Layer_1" xmlns="http://www.w3.org/2000/svg" xmlns:xlink="http://www.w3.org/1999/xlink" x="0px" y="0px"
	 viewBox="0 0 150 131.3" enable-background="new 0 0 150 131.3" xml:space="preserve">
  <g>
		<path fill="#333" d="M125.9,16.6C113.1,4.7,96.4-1.6,78.8-1C60.9-0.3,44.5,7.3,32.6,20.5c-8.5,9.4-14,21.2-16.2,34.2L8.2,42.3c-1.9-2.9-5.8-3.7-8.7-1.7c-2.9,1.9-3.7,5.8-1.8,8.7l18.7,28.2c0.1,0.1,0.2,0.2,0.2,0.3c0.1,0.1,0.2,0.2,0.3,0.3c0.2,0.2,0.4,0.4,0.6,0.6c0.1,0.1,0.3,0.2,0.4,0.3c0.4,0.3,0.8,0.5,1.2,0.7c0.2,0.1,0.4,0.2,0.6,0.3c0.2,0.1,0.4,0.1,0.6,0.1c0.2,0.1,0.5,0.1,0.7,0.1c0.1,0,0.1,0,0.2,0c0.1,0,0.3,0,0.4,0c0.1,0,0.2,0,0.2,0c0.1,0,0.2,0,0.3,0c0.2,0,0.3-0.1,0.5-0.1c0.2,0,0.3,0,0.5-0.1c0.3-0.1,0.6-0.2,1-0.3c0.1,0,0.1-0.1,0.2-0.1c0.9-0.4,1.7-1,2.3-1.8l21.7-24.7c2.3-2.6,2-6.5-0.6-8.8c-2.6-2.3-6.5-2-8.8,0.6l-10,11.4c1.9-10.5,6.3-19.9,13.1-27.4C51.5,18.2,64.8,12,79.3,11.5c14.2-0.5,27.7,4.6,38.1,14.3c10.4,9.7,16.4,22.8,16.9,37c0.5,14.2-4.6,27.7-14.2,38.1c-9.7,10.4-22.8,16.4-37,16.9c-3.4,0.1-6.1,3-6,6.5c0.1,3.4,2.9,6,6.2,6c0.1,0,0.2,0,0.2,0c17.5-0.6,33.8-8,45.7-20.8c12-12.8,18.2-29.5,17.6-47.1C146.1,44.8,138.7,28.6,125.9,16.6"/>
  </g>
</svg>
