<?xml version="1.0" encoding="utf-8"?>
<!-- Generator: Adobe Illustrator 18.1.0, SVG Export Plug-In . SVG Version: 6.00 Build 0)  -->
<!DOCTYPE svg PUBLIC "-//W3C//DTD SVG 1.1//EN" "http://www.w3.org/Graphics/SVG/1.1/DTD/svg11.dtd">
<svg version="1.1" id="Layer_1" xmlns="http://www.w3.org/2000/svg" xmlns:xlink="http://www.w3.org/1999/xlink" x="0px" y="0px"
	 viewBox="0 0 850 1067.8" enable-background="new 0 0 850 1067.8" xml:space="preserve">
<path fill="#231F20" stroke="#231F20" stroke-width="0.8457" stroke-miterlimit="10" d="M33.8,221"/>
<path fill="#404041" d="M237.9,392c0,0-65.4-121.5-17.5-200.8c25.3-41.9,55.5-55.8,70.4-61.5c43.1-16.5,158-6.4,158-6.4s98.7-3.8,131.8,11.9c32.3,15.3,38.4,33.1,46,45.2c50.4,79.9-6.5,210.1-6.5,210.1L589,375.5c0,0,24.4-36,34.5-66.1c15.6-46.6-15.6-116.2-53-141.5c-33.5-22.7-121.2-14-121.2-14s-92.3-1.7-130.5,3c-8.8,1.1-41.9,6.5-58,38c-30,58.5,5.5,181.9,5.5,181.9L237.9,392z"/>
<circle fill="#FBED1F" stroke="#221F1F" stroke-width="2.7142" stroke-miterlimit="10" cx="428.8" cy="701.1" r="362.7"/>
<g>
	<path fill="#221F1F" d="M442.5,699.3c0-21.9,0-43.8,0-65.7c0-34.9,0-69.7,0-104.6c0-8,0-15.9,0-23.9c0-5.4-8.5-5.5-8.5,0c0,21.9,0,43.8,0,65.7c0,34.9,0,69.7,0,104.6c0,8,0,15.9,0,23.9C434.1,704.8,442.5,704.8,442.5,699.3L442.5,699.3z"/>
</g>
<g>
	<path fill="#221F1F" d="M402.8,543.2c12.8-10.8,25.7-21.6,38.5-32.4c4.2-3.5-1.8-9.5-6-6c-12.8,10.8-25.7,21.6-38.5,32.4C392.6,540.7,398.6,546.7,402.8,543.2L402.8,543.2z"/>
</g>
<g>
	<path fill="#221F1F" d="M477.1,537.2c-11.9-10.8-23.9-21.6-35.8-32.4c-4-3.6-10,2.3-6,6c11.9,10.8,23.9,21.6,35.8,32.4C475.2,546.8,481.2,540.9,477.1,537.2L477.1,537.2z"/>
</g>
<g>
	<g>
		<path fill="#221F1F" d="M438.3,704.4c36.4,0,72.9,0,109.3,0c5.2,0,10.4,0,15.6,0c5.4,0,5.5-8.5,0-8.5c-36.4,0-72.9,0-109.3,0c-5.2,0-10.4,0-15.6,0C432.8,695.9,432.8,704.4,438.3,704.4L438.3,704.4z"/>
	</g>
	<g>
		<path fill="#221F1F" d="M531.1,668c10.8,12.8,21.7,25.6,32.5,38.5c3.5,4.2,9.5-1.8,6-6c-10.8-12.8-21.7-25.6-32.5-38.5C533.6,657.9,527.6,663.9,531.1,668L531.1,668z"/>
	</g>
	<g>
  <path fill="#221F1F" d="M537.2,742.4c10.8-12,21.6-23.9,32.4-35.9c3.6-4-2.3-10-6-6c-10.8,12-21.6,23.9-32.4,35.9C527.5,740.4,533.5,746.4,537.2,742.4L537.2,742.4z"/>
	</g>
</g>
<g>
	<rect x="654.9" y="539.8" fill="none" width="64.8" height="57"/>
	<text transform="matrix(1 0 0 1 654.8719 584.0651)" fill="#221F1F" font-family="'ArialMT'" font-size="61.8583">2</text>
	<rect x="401.1" y="378.5" fill="none" width="81.9" height="71.9"/>
	<text transform="matrix(1 0 0 1 401.0853 422.8136)" fill="#221F1F" font-family="'ArialMT'" font-size="61.8583">12</text>
	<rect x="557.4" y="434.5" fill="none" width="51.8" height="84.6"/>
	<text transform="matrix(1 0 0 1 557.3563 478.7726)" fill="#221F1F" font-family="'ArialMT'" font-size="61.8583">1</text>
	<rect x="690.7" y="676.6" fill="none" width="64.8" height="57"/>
	<text transform="matrix(1 0 0 1 690.6951 720.9156)" fill="#221F1F" font-family="'ArialMT'" font-size="61.8583">3</text>
	<rect x="651.5" y="817.2" fill="none" width="64.8" height="57"/>
	<text transform="matrix(1 0 0 1 651.4891 861.5035)" fill="#221F1F" font-family="'ArialMT'" font-size="61.8583">4</text>
	<rect x="558.4" y="926.2" fill="none" width="64.8" height="57"/>
	<text transform="matrix(1 0 0 1 558.4061 970.4508)" fill="#221F1F" font-family="'ArialMT'" font-size="61.8583">5</text>
	<rect x="402.1" y="975.8" fill="none" width="64.8" height="57"/>
	<text transform="matrix(1 0 0 1 402.0887 1020.0602)" fill="#221F1F" font-family="'ArialMT'" font-size="61.8583">6</text>
	<rect x="255.8" y="926.2" fill="none" width="64.8" height="57"/>
	<text transform="matrix(1 0 0 1 255.7723 970.4508)" fill="#221F1F" font-family="'ArialMT'" font-size="61.8583">7</text>
	<rect x="165.1" y="817.2" fill="none" width="64.8" height="57"/>
	<text transform="matrix(1 0 0 1 165.138 861.5035)" fill="#221F1F" font-family="'ArialMT'" font-size="61.8583">8</text>
	<rect x="108.9" y="680" fill="none" width="64.8" height="57"/>
	<text transform="matrix(1 0 0 1 108.8655 724.5533)" fill="#221F1F" font-family="'ArialMT'" font-size="62.2166">9</text>
	<rect x="145.1" y="554.8" fill="none" width="77.9" height="77.2"/>
	<text transform="matrix(1 0 0 1 145.094 599.0592)" fill="#221F1F" font-family="'ArialMT'" font-size="61.8583">10</text>
	<rect x="239.5" y="441.1" fill="none" width="64.8" height="57"/>
	<text transform="matrix(1 0 0 1 239.5442 485.3566)" fill="#221F1F" font-family="'ArialMT'" font-size="61.8583">1</text>
</g>
<path id="SVGID_x5F_1_x5F_" fill="none" d="M849.9,502.3C854.3,737,667.7,930.8,433,935.2S4.5,753,0.1,518.3S182.3,89.8,417,85.4
	S845.5,267.6,849.9,502.3z"/>
<text><textPath  xlink:href="#SVGID_x5F_1_x5F_" startOffset="2089.9543%">
<tspan  font-family="'ArialMT'" font-size="93.8709">TIME OUT</tspan></textPath>
</text>
<path fill="#231F20" stroke="#231F20" stroke-width="0.8457" stroke-miterlimit="10" d="M178.8,965.7c0,0-38.8,47.9-55.6,82.4c-4.2,8.6,11.3,23.9,20.6,17.7c27.9-18.6,58.8-80.9,58.8-80.9L178.8,965.7z"/>
<path fill="#231F20" stroke="#231F20" stroke-width="0.8457" stroke-miterlimit="10" d="M651,987.7c0,0,36.4,49.7,65.5,74.8c7.3,6.3,26-4.8,22.4-15.5c-10.9-31.7-63.2-77.5-63.2-77.5L651,987.7z"/>
<path fill="#404041" stroke="#231F20" stroke-width="0.8457" stroke-miterlimit="10" d="M85.7,428.8c-4.9-7.7,7.3-23.3,20.8-40.5c13.7-17.4,55-65.8,191.1-116.3c58.2-21.6,63.1-17.4,64.4-15.6c8.5,12.3-45,67.7-99.7,105.9C189.7,413,96.8,446.1,85.7,428.8z"/>
<path fill="#404041" stroke="#231F20" stroke-width="0.8457" stroke-miterlimit="10" d="M499.1,256.4c10.2-14.8,104.5,33.3,160,67.5c44.8,27.6,126.3,84.3,118.4,99.7c-7.1,13.8-86.2-6.3-151.6-43.6C551.2,337.5,489.6,270,499.1,256.4z"/>
<path fill="#231F20" stroke="#231F20" stroke-width="0.8457" stroke-miterlimit="10" d="M136.6,249.7c0,0-23.1-24.1-19.2-38.3c2.3-8.2,9.6-15.1,19.2-16.4c14.9-2,28.8,33.1,28.8,33.1L136.6,249.7z"/>
<path fill="#6D6E70" stroke="#231F20" stroke-width="0.8457" stroke-miterlimit="10" d="M84.7,423.4c-11.4,15.5-36.5-68.7-2.1-118.2c55.8-80.3,165.7-130.6,237.9-94.5c19.3,9.7,52.7,41.4,39,44.3c-39.4,8.3-91.4,23.4-157.7,59.6C132.6,352.2,114.9,382.5,84.7,423.4z
	"/>
<path fill="#6D6E70" stroke="#231F20" stroke-width="0.8457" stroke-miterlimit="10" d="M500.7,253.6c-29.1-46.9,137.2-74.3,198.7-18.1c7.8,7.2,90.6,51.4,98.8,114.4c3.4,26.6-12,80.9-22.8,69.2c-14.6-15.8-105-89.6-129.3-103C590.7,285.6,506.2,262.4,500.7,253.6z"/>
<path fill="#231F20" stroke="#231F20" stroke-width="0.8457" stroke-miterlimit="10" d="M32.9,222.3"/>
<path fill="#231F20" d="M692.2,229.6c0,0,13.9-27.6,26.1-29.4c10.6-1.6,18.7,1.4,23,10.7c6.5,14.2-21.8,38.8-21.8,38.8L692.2,229.6z
	"/>
<line fill="#231F20" stroke="#231F20" stroke-width="11.8396" stroke-miterlimit="10" x1="409.3" y1="254.8" x2="419.7" y2="338.4"/>
<path fill="#231F20" d="M452.6,249.9c0,0,3.6-22.3-3.3-28c-8.6-7-19.3,4.1-49.9,6c-19.2,1.2-27.5-2.4-32.9,3.8
	c-5.8,6.6,1.6,28,1.6,28L452.6,249.9z"/>
</svg>
