<?xml version="1.0" encoding="utf-8"?>
<!-- Generator: Adobe Illustrator 18.1.0, SVG Export Plug-In . SVG Version: 6.00 Build 0)  -->
<!DOCTYPE svg PUBLIC "-//W3C//DTD SVG 1.1//EN" "http://www.w3.org/Graphics/SVG/1.1/DTD/svg11.dtd">
<svg version="1.1" id="Layer_1" xmlns="http://www.w3.org/2000/svg" xmlns:xlink="http://www.w3.org/1999/xlink" x="0px" y="0px"
	 viewBox="0 0 845.1 1061.6" enable-background="new 0 0 845.1 1061.6" xml:space="preserve">
<path fill="#231F20" stroke="#231F20" stroke-width="0.8457" stroke-miterlimit="10" d="M31.4,217.7"/>
<path fill="#404041" d="M235.5,388.7c0,0-65.4-121.5-17.5-200.8c25.3-41.9,55.5-55.8,70.4-61.5c43.1-16.5,158-6.4,158-6.4
	s98.7-3.8,131.8,11.9c32.3,15.3,38.4,33.1,46,45.2c50.4,79.9-6.5,210.1-6.5,210.1l-31.3-15.1c0,0,24.4-36,34.5-66.1
	c15.6-46.6-15.6-116.2-53-141.5c-33.5-22.7-121.2-14-121.2-14s-92.3-1.7-130.5,3c-8.8,1.1-41.9,6.5-58,38
	c-30,58.5,5.5,181.9,5.5,181.9L235.5,388.7z"/>
<circle fill="#FBED1F" stroke="#221F1F" stroke-width="2.7142" stroke-miterlimit="10" cx="426.4" cy="697.8" r="362.7"/>
<g>
	<g>
		<path fill="#221F1F" d="M440.1,696c0-21.9,0-43.8,0-65.7c0-34.9,0-69.7,0-104.6c0-8,0-15.9,0-23.9c0-5.4-8.5-5.5-8.5,0
			c0,21.9,0,43.8,0,65.7c0,34.9,0,69.7,0,104.6c0,8,0,15.9,0,23.9C431.6,701.5,440.1,701.5,440.1,696L440.1,696z"/>
	</g>
</g>
<g>
	<g>
		<path fill="#221F1F" d="M400.3,539.9c12.8-10.8,25.7-21.6,38.5-32.4c4.2-3.5-1.8-9.5-6-6c-12.8,10.8-25.7,21.6-38.5,32.4
			C390.2,537.4,396.2,543.3,400.3,539.9L400.3,539.9z"/>
	</g>
</g>
<g>
	<g>
		<path fill="#221F1F" d="M474.7,533.9c-11.9-10.8-23.9-21.6-35.8-32.4c-4-3.6-10,2.3-6,6c11.9,10.8,23.9,21.6,35.8,32.4
			C472.7,543.5,478.7,537.5,474.7,533.9L474.7,533.9z"/>
	</g>
</g>
<g>
	<g>
		<g>
			<path fill="#221F1F" d="M435.8,701.1c36.4,0,72.9,0,109.3,0c5.2,0,10.4,0,15.6,0c5.4,0,5.5-8.5,0-8.5c-36.4,0-72.9,0-109.3,0
				c-5.2,0-10.4,0-15.6,0C430.4,692.6,430.4,701.1,435.8,701.1L435.8,701.1z"/>
		</g>
	</g>
	<g>
		<g>
			<path fill="#221F1F" d="M528.7,664.7c10.8,12.8,21.7,25.6,32.5,38.5c3.5,4.2,9.5-1.8,6-6c-10.8-12.8-21.7-25.6-32.5-38.5
				C531.1,654.6,525.2,660.6,528.7,664.7L528.7,664.7z"/>
		</g>
	</g>
	<g>
		<g>
			<path fill="#221F1F" d="M534.7,739.1c10.8-12,21.6-23.9,32.4-35.9c3.6-4-2.3-10-6-6c-10.8,12-21.6,23.9-32.4,35.9
				C525.1,737.1,531.1,743.1,534.7,739.1L534.7,739.1z"/>
		</g>
	</g>
</g>
<g>
	<rect x="652.4" y="536.5" fill="none" width="64.8" height="57"/>
	<text transform="matrix(1 0 0 1 652.424 580.7506)" fill="#221F1F" font-family="'ArialMT'" font-size="61.8583">2</text>
	<rect x="398.6" y="375.2" fill="none" width="81.9" height="71.9"/>
	<text transform="matrix(1 0 0 1 398.6373 419.4991)" fill="#221F1F" font-family="'ArialMT'" font-size="61.8583">12</text>
	<rect x="554.9" y="431.2" fill="none" width="51.8" height="84.6"/>
	<text transform="matrix(1 0 0 1 554.9083 475.4581)" fill="#221F1F" font-family="'ArialMT'" font-size="61.8583">1</text>
	<rect x="688.2" y="673.3" fill="none" width="64.8" height="57"/>
	<text transform="matrix(1 0 0 1 688.2472 717.6012)" fill="#221F1F" font-family="'ArialMT'" font-size="61.8583">3</text>
	<rect x="649" y="813.9" fill="none" width="64.8" height="57"/>
	<text transform="matrix(1 0 0 1 649.0411 858.1891)" fill="#221F1F" font-family="'ArialMT'" font-size="61.8583">4</text>
	<rect x="556" y="922.8" fill="none" width="64.8" height="57"/>
	<text transform="matrix(1 0 0 1 555.9581 967.1364)" fill="#221F1F" font-family="'ArialMT'" font-size="61.8583">5</text>
	<rect x="399.6" y="972.5" fill="none" width="64.8" height="57"/>
	<text transform="matrix(1 0 0 1 399.6407 1016.7457)" fill="#221F1F" font-family="'ArialMT'" font-size="61.8583">6</text>
	<rect x="253.3" y="922.8" fill="none" width="64.8" height="57"/>
	<text transform="matrix(1 0 0 1 253.3244 967.1364)" fill="#221F1F" font-family="'ArialMT'" font-size="61.8583">7</text>
	<rect x="162.7" y="813.9" fill="none" width="64.8" height="57"/>
	<text transform="matrix(1 0 0 1 162.6901 858.1891)" fill="#221F1F" font-family="'ArialMT'" font-size="61.8583">8</text>
	<rect x="106.4" y="676.7" fill="none" width="64.8" height="57"/>
	<text transform="matrix(1 0 0 1 106.4176 721.2389)" fill="#221F1F" font-family="'ArialMT'" font-size="62.2166">9</text>
	<rect x="142.6" y="551.5" fill="none" width="77.9" height="77.2"/>
	<text transform="matrix(1 0 0 1 142.6461 595.7448)" fill="#221F1F" font-family="'ArialMT'" font-size="61.8583">10</text>
	<rect x="237.1" y="437.8" fill="none" width="64.8" height="57"/>
	<text transform="matrix(1 0 0 1 237.0963 482.0421)" fill="#221F1F" font-family="'ArialMT'" font-size="61.8583">1</text>
</g>
<path id="SVGID_x5F_1_x5F_" fill="none" d="M847.5,499c4.4,234.7-182.2,428.5-416.9,432.9S2,749.7-2.4,515S179.9,86.5,414.5,82.1
	S843.1,264.3,847.5,499z"/>
<text><textPath  xlink:href="#SVGID_x5F_1_x5F_" startOffset="2089.9543%">
<tspan  font-family="'ArialMT'" font-size="93.8709">TIME OUT</tspan></textPath>
</text>
<path fill="#231F20" stroke="#231F20" stroke-width="0.8457" stroke-miterlimit="10" d="M176.3,962.4c0,0-38.8,47.9-55.6,82.4
	c-4.2,8.6,11.3,23.9,20.6,17.7c27.9-18.6,58.8-80.9,58.8-80.9L176.3,962.4z"/>
<path fill="#231F20" stroke="#231F20" stroke-width="0.8457" stroke-miterlimit="10" d="M648.6,984.4c0,0,36.4,49.7,65.5,74.8
	c7.3,6.3,26-4.8,22.4-15.5c-10.9-31.7-63.2-77.5-63.2-77.5L648.6,984.4z"/>
<path fill="#404041" stroke="#231F20" stroke-width="0.8457" stroke-miterlimit="10" d="M83.2,425.5c-4.9-7.7,7.3-23.3,20.8-40.5
	c13.7-17.4,55-65.8,191.1-116.3c58.2-21.6,63.1-17.4,64.4-15.6c8.5,12.3-45,67.7-99.7,105.9C187.2,409.7,94.4,442.8,83.2,425.5z"/>
<path fill="#404041" stroke="#231F20" stroke-width="0.8457" stroke-miterlimit="10" d="M496.6,253c10.2-14.8,104.5,33.3,160,67.5
	c44.8,27.6,126.3,84.3,118.4,99.7c-7.1,13.8-86.2-6.3-151.6-43.6C548.8,334.1,487.2,266.6,496.6,253z"/>
<path fill="#231F20" stroke="#231F20" stroke-width="0.8457" stroke-miterlimit="10" d="M134.1,246.3c0,0-23.1-24.1-19.2-38.3
	c2.3-8.2,9.6-15.1,19.2-16.4c14.9-2,28.8,33.1,28.8,33.1L134.1,246.3z"/>
<path fill="#6D6E70" stroke="#231F20" stroke-width="0.8457" stroke-miterlimit="10" d="M82.2,420.1c-11.4,15.5-36.5-68.7-2.1-118.2
	C136,221.5,245.8,171.3,318,207.3c19.3,9.7,52.7,41.4,39,44.3c-39.4,8.3-91.4,23.4-157.7,59.6C130.2,348.9,112.4,379.2,82.2,420.1z"
	/>
<path fill="#6D6E70" stroke="#231F20" stroke-width="0.8457" stroke-miterlimit="10" d="M498.3,250.3
	C469.1,203.4,635.5,176,697,232.2c7.8,7.2,90.6,51.4,98.8,114.4c3.4,26.6-12,80.9-22.8,69.2c-14.6-15.8-105-89.6-129.3-103
	C588.2,282.3,503.7,259.1,498.3,250.3z"/>
<path fill="#231F20" stroke="#231F20" stroke-width="0.8457" stroke-miterlimit="10" d="M30.5,219"/>
<path fill="#231F20" d="M689.7,226.3c0,0,13.9-27.6,26.1-29.4c10.6-1.6,18.7,1.4,23,10.7c6.5,14.2-21.8,38.8-21.8,38.8L689.7,226.3z
	"/>
<line fill="#231F20" stroke="#231F20" stroke-width="11.8396" stroke-miterlimit="10" x1="406.9" y1="251.4" x2="417.3" y2="335.1"/>
<path fill="#231F20" d="M450.2,246.6c0,0,3.6-22.3-3.3-28c-8.6-7-19.3,4.1-49.9,6c-19.2,1.2-27.5-2.4-32.9,3.8
	c-5.8,6.6,1.6,28,1.6,28L450.2,246.6z"/>
</svg>
