<?xml version="1.0" encoding="utf-8"?>
<!-- Generator: Adobe Illustrator 18.1.0, SVG Export Plug-In . SVG Version: 6.00 Build 0)  -->
<!DOCTYPE svg PUBLIC "-//W3C//DTD SVG 1.1//EN" "http://www.w3.org/Graphics/SVG/1.1/DTD/svg11.dtd">
<svg version="1.1" id="Layer_1" xmlns="http://www.w3.org/2000/svg" xmlns:xlink="http://www.w3.org/1999/xlink" x="0px" y="0px"
	 viewBox="0 0 446 446" enable-background="new 0 0 446 446" xml:space="preserve">
<g>
	
		<image overflow="visible" opacity="0.5" width="473" height="473" xlink:href="7F5C4CD36A44F0.png"  transform="matrix(1 0 0 1 -13.8376 -13.8376)">
	</image>
	<g>
		<g>
			<circle fill="#90F500" stroke="#90F500" stroke-width="11.5143" stroke-miterlimit="10" cx="205.8" cy="205" r="188.3"/>
			<path fill="#FFFFFF" d="M205.5,6C95.2,6,5.5,95.7,5.5,206s89.7,200,200,200c110.3,0,200-89.7,200-200S315.8,6,205.5,6z
				 M205.5,375.2c-93.3,0-169.2-75.9-169.2-169.2S112.2,36.7,205.5,36.7c93.3,0,169.2,75.9,169.2,169.2S298.8,375.2,205.5,375.2z"/>
			<path fill="#FFFFFF" d="M286.9,133.6L174.8,245.8l-50.7-50.7c-6-6-15.8-6-21.8,0c-6,6-6,15.7,0,21.8l61.5,61.5
				c3,3,6.9,4.5,10.9,4.5c3.9,0,7.9-1.5,10.9-4.5l123.1-123.1c6-6,6-15.7,0-21.8C302.7,127.6,293,127.6,286.9,133.6z"/>
		</g>
	</g>
</g>
</svg>
