<?xml version="1.0" encoding="utf-8"?>
<!-- Generator: Adobe Illustrator 18.1.0, SVG Export Plug-In . SVG Version: 6.00 Build 0)  -->
<!DOCTYPE svg PUBLIC "-//W3C//DTD SVG 1.1//EN" "http://www.w3.org/Graphics/SVG/1.1/DTD/svg11.dtd">
<svg version="1.1" id="Layer_1" xmlns="http://www.w3.org/2000/svg" xmlns:xlink="http://www.w3.org/1999/xlink" x="0px" y="0px"
	 viewBox="0 0 600 600" enable-background="new 0 0 600 600" xml:space="preserve">
<symbol  id="Brown_Hair_1" viewBox="-8.1 -3.4 16.2 6.8">
	<g>
		<path fill="#7E5629" d="M-8.1,2.5c0,0,10.4-0.9,16.2-5.9C3.6,2-5.5,4.9-8.1,2.5z"/>
	</g>
</symbol>
<symbol  id="Brown_Hair_4" viewBox="-11.3 -7.7 22.6 15.3">
	<path fill="#7E5629" d="M-11.3,6.9c0,0,5.6,2.6,10.6-1.9c5-4.6,5.8-10.2,12-12.7C4.7-6.6,2.2,0.8-1,3.9C-6.1,8.8-10.8,6.9-11.3,6.9
		z"/>
</symbol>
<g>
	<path fill="#27AAE1" stroke="#000000" stroke-width="3.3426" stroke-miterlimit="10" d="M387.4,456.6c6.7,6.7,14.4-9.9,30.2-16.2
		c15.9-6.2,20,2.4,33.5-2.8c19.4-7.5,13.7-26.1,36.1-40.4c3.8-2.4,15.5-6.5,38.7-14.8c19.3-6.8,22.1-7.2,23.1-10.3
		c4-11.2-26.5-22.8-58.1-60.8c-18.2-21.9-16.4-28.1-34.5-44.8c-11.7-10.7-22.2-17-43-29.3c-16.7-9.9-26.9-10.5-41-14.2
		c-8.2-2.2-27.3,8.9-27.3,8.9s8.9-9.6,25.2,1.7c23.5,16.4-1.5,25.5-13.4,44.1c-11.8,18.4-7.6,42.5-6.1,52.4
		c0.8,5.1,13.3,39.8,14.1,44.3c1.2,6.2,9.3,20.5,11,49.5c0.4,6.9,1.1,14.2,2.9,22.6C379.9,451.2,383.4,452.6,387.4,456.6z"/>
	<path fill="#006838" stroke="#000000" stroke-width="3.3426" stroke-miterlimit="10" d="M315.3,215.3c3.8-3.1,9.3-2.1,17.9-0.5
		c4.1,0.8,10.5,1.4,17.3,2.6c11.5,2,18.3,4.4,29-0.1c12.1-5,29.2-17.1,40.3-23.9c0.2-0.1,11.2-21.6,18.9-28.3
		c3.2-2.8,5.8,7.4,10,10.2c3.4,2.2,13.9,5.9,15.3,7.6c0,0-1.7,1-3.9,3.5c-3.4,3.7-11,16.1-14.9,19.8c-3.3,3.1-12.1,14.3-14.2,17.1
		c-3.8,5.2-12.8,8.7-18.9,11.7c-4.9,2.4-18.4,8.5-25.9,11.4c-4.5,1.7-22,22.4-23.4,23.8c-2.1,2.1-3.1,6.9-7.9,17.1
		c-3.1,6.4-4.1,6.7-5.8,12c-1.5,4.6-0.2,24.5,0.7,27.3c0,0,0.3,1,2.7,9.4l1.6,5.6c-0.8,2.1-7.6-0.1-17.9,0.5
		c-10.5,0.6-11.7,2.7-16.8,1.6c-5.7-1.3-6.2-3.7-12.9-6c-5.6-1.9-12.6-1.4-14.5-0.8c-5.6,1.6-6.3,3.3-12.7,5.6
		c-1.9,0.7-0.8-0.1-5.9,0.8c-8.6,1.4-13.9,1.6-19,1.1c-4.7-0.5-5.4-1.2-5.7-1.5c-2.5-3,0.3-8,2.3-17.9c0.6-3.2,2.5-10.6,0-19.6
		c-1-3.5-3.9-6.7-8.7-15.1c-5.7-10-5.1-10.3-6.9-15.5c-1-2.7-1.2-2.7-9.8-10.8c-8.5-7.9-7.8-6.9-12.4-11.7
		c-4-4.3-12.7-14.9-19.5-14.6c-3.4,0.1-39.6-8.9-44.6-14.2c-2.8-2.9-22-31-22.8-32.2c-4.3-6.6,1.3-11.7,2.9-13.1
		c5.8-5,7.3-4.3,11.4-8.9c4.6-5.1,6.2-11.3,8.5-5.7c1.1,2.6,16.6,34,21.5,36.3c8.7,4,49,17.2,53.7,18.6c10.5,3.1,15.4,5.2,25,2.7
		c3.9-1,7.7-3,16.1-4.9c10.1-2.4,11.8-1.7,12.9-0.9c3.7,2.6,0.9,7.6,4.8,12.2c4,4.7,11,4.7,13.6,4.7c2.7,0,8.2,0,12.2-3.7
		C313.8,223.9,311,218.9,315.3,215.3z"/>
	<path fill="#FFDE17" stroke="#000000" stroke-width="3.3426" stroke-miterlimit="10" d="M353.1,339.7c1.3,4.1,2.5,8.1,3.8,12.2
		l-36.3,1.2l-4.4-13.3L353.1,339.7z"/>
	<polygon fill="#FFDE17" stroke="#000000" stroke-width="3.3426" stroke-miterlimit="10" points="275.4,341.9 275.9,356.8 
		242.9,355.6 246.3,342.1 	"/>
	<path fill="#ED1C24" stroke="#000000" stroke-width="3.3426" stroke-miterlimit="10" d="M315.2,342.1c0.5,0.8,4.5,7.7,1.6,14.5
		c-3.8,8.8-15.9,9.5-18.2,9.6c-2.7,0.1-15.8,0.4-21.1-9.4c-0.2-0.4-4.2-8-0.5-15.1c5.1-10.1,19.9-8.7,21.6-8.6
		C301.3,333.4,310.5,334.3,315.2,342.1z"/>
	<path fill="#FFFFFF" stroke="#000000" stroke-width="3.3426" stroke-miterlimit="10" d="M306.3,344.6c2.2,3.1,2,7.7-0.2,10.7
		c-3.6,4.7-11.5,4-15.7,0.5c-2.3-1.9-5-5.9-3.7-9.4c1.3-3.5,5.7-4.4,7.7-4.7C296.2,341.3,302.9,339.9,306.3,344.6z"/>
	<path fill="#006838" stroke="#000000" stroke-width="3.3426" stroke-miterlimit="10" d="M357,354c0,0,3.7,9.4,7.1,20
		c0.6,1.8,2.9,9.8,4.4,14.4c9.2,28.4,8.1,57.5,11.3,60.2c4.3,3.7,4.9,6.6,6.3,12c1.6,6.6,1.8,10.2,2.2,16.2c0.2,3.1,1.7,5.3,1.4,7.2
		c-0.5,2.9-5.1,4.3-8.2,5.3c-1.8,0.6-9.3,1.9-15.2,1.8c-6.4-0.2-14.2-2.9-14.2-2.9l-0.1-2.2c0,0-0.9-7.6-2.4-11.3
		c-4.3-11.1-9.8-18.3-17.3-26.3c-23.3-25.1-25.1-38.9-30.2-40.5c0,0-8.8,14.1-32.9,45.4c-7.3,9.5-13.2,16-13.2,25.6
		c0,5.7,2.1,11.1-1.2,14.6c-0.7,0.8-2.1,1.8-10.6,2.6c-15.3,1.4-20-1.2-21.4-2.1c-1.6-0.9-4.4-2.8-4.7-5.5c-0.2-2.5-0.7-4.6-0.3-7.8
		c1-7.7,0.4-9.8,4.2-16.8c1.7-3.1,2.8-7.2,4.3-10.9c3.3-7.9-1.3-29.6,2.6-50.6c2.1-11.6-0.2-20.8,3.3-24.5
		c6.2-6.5,10.3-20.3,10.3-20.3s29.7-2.3,32.9-0.2c8.5,5.6,7.4,8.9,22.8,8.4c13.3-0.5,18.2-9.6,21.8-10.7
		C332.1,351.6,357,354,357,354z"/>
	<path stroke="#000000" stroke-width="3.3426" stroke-miterlimit="10" d="M394.2,496.1c-0.3-5.4-0.1-9.9-2.6-11.1
		c-1.4-0.7-2.7,0.1-6.1,1.3c-4,1.4-8.2,2.9-12.2,3.2c-6.7,0.4-19.2-0.6-20.2,0.7c-3.5,4.4,4.6,16.7,10.4,25.4
		c8.5,12.8,11,12.8,12.4,19.2c1.3,5.8-0.5,7.1,0.7,20.2c0.8,9.5,2.1,12.1,2.7,13.4c1.1,2.2,2.9,4.8,11.6,11.4
		c8.9,6.7,13.3,10.1,17.2,11.2c1.1,0.3,14,3.7,22.9-3.6c1.5-1.2,4.1-3.4,4.8-6.9c0.3-1.4,0.8-5.6-6.7-14.4c-7.6-9-12.3-9.4-22-19.5
		c-3.7-3.9-5.6-5.9-7-8.7c-3.2-6.5-1.1-9.5-2.4-22.4C396.5,504.2,394.8,506.1,394.2,496.1z"/>
	<path stroke="#000000" stroke-width="3.3426" stroke-miterlimit="10" d="M250.3,509.9c2.7-5.6,7.4-15.4,4.4-18.1
		c-1.5-1.3-3.6,0.1-10.6,1.5c-7.6,1.4-15.7,3-21.4-1c-3.6-2.5-3.7-5.6-5.2-5.4c-4.3,0.5-5,23.8-5.2,28.7c-0.7,20.3,2,21.5-0.7,28.5
		c-2,5.2-3.7,5.4-20.5,23.6c-12.1,13.1-14.8,17-13.9,21.2c1.4,6.1,9.5,9,11.5,9.7c9.7,3.4,18.6-1,20.1-1.8
		c5.2-2.7,4.5-4.6,15.2-14.5c7.9-7.3,8.6-6.6,9.8-9.3c2.4-5.3-0.1-8.8-0.2-22.4c0-4.4-0.1-6.5,0.3-9
		C235.6,529.7,242.4,526.3,250.3,509.9z"/>
	<path fill="#27AAE1" stroke="#000000" stroke-width="3.3426" stroke-miterlimit="10" d="M259.6,471c1.4,1.4,26.9-10.2,43.5-9.9
		c25,0.5,42.8,12.1,44.9,9.1c2.3-3.2-9.6-10.4-23.5-29.5c-6.6-9-19.5-32.8-22.2-32.7c-2.4,0-12.9,18.8-23.7,32.9
		C267.4,455.3,258.4,469.9,259.6,471z"/>
	<path fill="#E8B68A" stroke="#E8B68A" stroke-width="3.3426" stroke-miterlimit="10" d="M288.4,220.5c0,0-1.5-16.7-2.9-26.4
		c0,0-8.4,4.6-30.9-3.2c-2.7-0.9-11.8-2.4-22.8-12.9c-5-4.8-6.1-11.5-7.3-16c-2.4-9.3,0.3-10.2,0.2-21.7c0,0,2.3-0.7-3.7-5.5
		c-0.8-0.6-4.6-0.4-5.5,0.1c-2,1.1-5.7,2.5-9.7,1.4c-6-1.6-8.4-7.5-9.8-11c-1.1-2.6-4.1-10.3-0.5-14.1c2.7-2.8,7.9-2.4,11.3-1.3
		c10.3,3.3,12.3,16.1,15.6,15.5c2.7-0.5-0.9-5.8,2.1-20.8c0.9-4.2,0.4-5.3,4.8-14c3-6.1,6.4-14,11.9-17.6c5.7-3.7,11.3-7.6,26.8-9.3
		c17.1-1.8,19.9-0.9,38.8-2.4c8-0.6,19.6-1,36.6,6.1c6.3,2.6,11.3,27.2,13.8,30.4c9.2,11.6,0.4,14.7,1.4,17.8c0,0.1,0.1,0.1,0.1,0.1
		c0.8,0.4,3.5-4,7.3-6.8c1.1-0.8,4.8-3.7,10-3.9c3.4-0.1,9.3,0.8,11.4,4.3c5.2,8.4-4.1,17.1-14.4,22.9c-10.7,6.1-5.6,31.5-10,40.4
		c-3.6,7.3-8.4,13.1-20.7,17.8c-14.8,5.7-28.6,7.3-34.8,4.3l0,0c-5.2,9.4-0.3,18.7-0.3,18.7c0.1,1.1,0.2,2.9,0.3,5.2
		c-1.3,1.1-3.7,2.7-7,3.7c-0.9,0.3-2,0.5-3.3,0.5C292.1,223.3,288.4,220.5,288.4,220.5z"/>
	<path fill="none" stroke="#C49A6C" stroke-width="3.3426" stroke-miterlimit="10" d="M212.7,126.7c0.5-0.8-1.5-3.5-4.1-4.7
		c-3-1.4-6.6-0.7-6.8,0.2C201.5,123.8,211.7,128.1,212.7,126.7z"/>
	<path fill="none" stroke="#C49A6C" stroke-width="3.3426" stroke-miterlimit="10" d="M365.1,123.5c-0.4-0.8,3-4,7-5.4
		c3.4-1.1,7.7-1.1,7.9-0.3C380.3,119.5,365.9,125,365.1,123.5z"/>
	<g>
		<path fill="#FFFFFF" stroke="#000000" stroke-width="3.3426" stroke-miterlimit="10" d="M276.8,129.9c-3.1,1.9-6.1-2.9-14.5-2.6
			c-7.7,0.3-10.7,4.6-13.2,2.8c-3.2-2.2-0.6-10.7,2.4-20.6c2.4-7.9,4.5-11.3,7.8-13.6c1.3-1,3.9-2.8,6.8-2.3
			c1.3,0.2,4.5,1.3,8.2,10.7C274.9,106,282.7,126.2,276.8,129.9z"/>
		<path fill="#2E3192" stroke="#000000" stroke-width="3.3426" stroke-miterlimit="10" d="M272.1,124.6c4.3-6.1,1.4-13.2,0.9-14.4
			c-0.2-0.5-4.1-9.3-10.6-8.9c-5.9,0.4-8.8,8.3-9.3,9.5c-2.1,5.9,2.1,17.6,9.9,16.8C268.4,127.1,268.8,129.3,272.1,124.6z"/>
		<path fill="#27AAE1" stroke="#000000" stroke-width="3.3426" stroke-miterlimit="10" d="M262.9,127.2c3.6-0.4,4.9-1,4.9-5.2
			c0-1.9-1.2-6.9-4.8-6.8c-3.5,0.1-4.7,1.4-4.8,6C258.1,124.5,259.3,127.6,262.9,127.2z"/>
	</g>
	<g>
		<path fill="#FFFFFF" stroke="#000000" stroke-width="3.3426" stroke-miterlimit="10" d="M336.3,127.9c-3.1,1.9-6.1-2.9-14.5-2.6
			c-7.7,0.3-10.7,4.6-13.2,2.8c-3.2-2.2-0.6-10.7,2.4-20.6c2.4-7.9,4.5-11.3,7.8-13.6c1.3-1,3.9-2.8,6.8-2.3
			c1.3,0.2,4.5,1.3,8.2,10.7C334.4,104,342.3,124.2,336.3,127.9z"/>
		<path fill="#2E3192" stroke="#000000" stroke-width="3.3426" stroke-miterlimit="10" d="M331.6,122.6c4.3-6.1,1.4-13.2,0.9-14.4
			c-0.2-0.5-4.1-9.3-10.6-8.9c-5.9,0.4-8.8,8.3-9.3,9.5c-2.1,5.9,2.1,17.6,9.9,16.8C327.9,125.1,328.3,127.3,331.6,122.6z"/>
		<path fill="#27AAE1" stroke="#000000" stroke-width="3.3426" stroke-miterlimit="10" d="M322.4,125.2c3.6-0.4,4.9-1,4.9-5.2
			c0-1.9-1.2-6.9-4.8-6.8c-3.5,0.1-4.7,1.4-4.8,6C317.7,122.5,318.9,125.6,322.4,125.2z"/>
	</g>
	<path fill="none" stroke="#000000" stroke-width="3.3426" stroke-miterlimit="10" d="M274.9,80c-5.3-1.5-15.7,0.5-23.1,9.8"/>
	<path fill="none" stroke="#000000" stroke-width="3.3426" stroke-miterlimit="10" d="M335,87.1c-0.2-5-10.9-8.7-23.9-8.2"/>
	<line fill="none" stroke="#000000" stroke-width="3.3426" stroke-miterlimit="10" x1="269.4" y1="94.7" x2="269.4" y2="94.7"/>
	<g>
		<path fill="none" stroke="#C49A6C" stroke-width="3.3426" stroke-miterlimit="10" d="M302.8,147c-0.5-0.5-4-3.4-8.6-2.7
			c-4,0.7-8.3,4.1-8.3,8.5c0.1,3.3,2.5,6,5,7.2c3.1,1.6,7,1.1,10-1.1"/>
	</g>
	<path fill="none" stroke="#BE1E2D" stroke-width="3.3426" stroke-miterlimit="10" d="M345.2,164.4c-1.5-2.2-5.8-4.3-5.8-4.3
		s-3.4,4.9-5.8,8.2c-7.9,11-19.9,14.5-23.9,15.4c-6.5,1.5-11.7,1.2-16.7,0.8c-3.8-0.3-10-0.2-16.8-3.4c-3.7-1.7-7.4-3.5-13-7.1
		c-6-3.9-6.9-5.4-6.9-5.4c-4.1-3.7-5.2-4.5-5.2-4.5s-2,2.5-2.6,4.1"/>
	<path fill="#3C2415" stroke="#603913" stroke-width="3.3426" stroke-miterlimit="10" d="M371.6,96c1.3-5,2.7-8.7,3.2-17
		c0.3-6.1,0.7-13.7-1.5-23.4c-1.9-8.6-3.6-16.1-10-22.9c-4.7-5-10.3-7.8-12.8-9.1c-3.3-1.7-6-2.6-11.5-4.4c-5-1.7-8.6-2.5-8.1-1.8
		c1.3,1.7,9.6,10.1,10.9,23.6c0.3,2.8,0.8,8.6-2.5,13.5c-3,4.4-7.6,5.6-7.2,7.4c0.5,2.1,7.1,0.2,12.3,4c1.7,1.2,2.5,2.6,6.4,12.9
		c4.5,12.2,4.4,13.4,7.2,19.4c1.4,3,4.5,9.4,4.5,9.4l0,0C362.5,107.6,369,105.6,371.6,96z"/>
	<path fill="#3C2415" stroke="#603913" stroke-width="3.3426" stroke-miterlimit="10" d="M315.2,7C311,5.1,304,2.5,293.7,1.2
		c-8.4-1.1-20.8-2.7-35.3,1.5c-6.5,1.9-27.8,8-37.4,26.1c-6.8,12.9-3.7,16.3-6,34.6c-0.5,4.3-17.3,9.8-10.7,36.3
		c0.8,3.1,2.5,6,3.5,7.9c3.4,6.1,10.5,16.2,13.9,15c3.2-1.2-1.1-10.9,3-25.3c1-3.5,3.6-12.3,11.2-20c6.2-6.3,12.8-8.9,16.6-10.4
		c7.3-2.8,10.1-2.2,31-3.7c25.3-1.9,24.5-2.7,30.2-1.9c7,1,8.8,1,15.2,0.7c5.3-0.2,9.5-6,10.4-7.8c4.8-9.7,0.8-20.1-0.8-24.3
		c-1.3-3.3-4-9-9.4-14.3C324.4,11.2,319.7,9,315.2,7z"/>
	<path fill="#FFF200" stroke="#000000" stroke-width="3.3426" stroke-miterlimit="10" d="M313.1,214.5c-0.2-0.2,0,0.9-2.8-0.4
		c-2.3-1.1-2-0.9-2-0.9s0.2,3.5-0.7,6.3c-1.3,4-6.6,5.8-8.5,6.1c-2,0.3-9.8,0.7-12.3-2.7c-2.1-2.7-2.1-9-2.1-9l-7,0.2
		c0,0,1.9,9.7,4.9,13c3.8,4,8.1,4.4,11.2,4.6c2.9,0.2,9.5,0.7,14.6-3.7C313,224.2,314.9,216.3,313.1,214.5z"/>
	
		<use xlink:href="#Brown_Hair_4"  width="22.6" height="15.3" x="-11.3" y="-7.7" transform="matrix(-4.8845 -0.7914 0.4887 -3.0163 278.5232 46.549)" overflow="visible"/>
	
		<use xlink:href="#Brown_Hair_4"  width="22.6" height="15.3" x="-11.3" y="-7.7" transform="matrix(-4.5146 -0.7315 0.4488 -2.7699 272.9858 29.2484)" overflow="visible" enable-background="new    "/>
	
		<use xlink:href="#Brown_Hair_1"  width="16.2" height="6.8" x="-8.1" y="-3.4" transform="matrix(-1.1209 -2.2161 2.3029 -1.1648 361.0254 50.8674)" overflow="visible"/>
	
		<use xlink:href="#Brown_Hair_1"  width="16.2" height="6.8" x="-8.1" y="-3.4" transform="matrix(-1.0998 -2.1113 2.0917 -1.0896 361.9274 71.3773)" overflow="visible" enable-background="new    "/>
	<g>
		<path fill="#2E3192" stroke="#000000" stroke-width="3.3426" stroke-miterlimit="10" d="M121.8,183.1
			c-13.9-7.7-9.4-51.6-31.2-53.5c-12.2-1-14.4-4-14.3-4.6c0.1-0.5,14.2,0,13.8-4.6c-0.4-4.3-15.3-3.8-15.4-3.2
			c0,0.6,15-1.2,14.6-5.5c-0.3-3.7-16.5-1-16.5-1.1c0-0.1,15.8-3.7,15.6-5.6c-0.3-3-16.6-2-16.6-2.2c0-0.2,15.6-0.4,15.9-2.4
			c0.5-3.8-17.1-6.7-16.5-6.7c0.3,0,11.4,4.3,13.7,1.2c2.2-2.9-3.5-9.8-2.8-14c0.4-2.3,5.4-3.8,7.1-1.4c2.3,3.3,4.2,8.2,4.4,10.6
			c0.4,5.3,1.9,10.8,18.8,30.8c29.1,34.8,42.1,40.9,39.8,50.1C149.8,180.9,131.5,188.5,121.8,183.1z"/>
		<path fill="none" stroke="#000000" stroke-width="3.3426" stroke-miterlimit="10" d="M71.2,93.9c0.1,3.2,0.3,6.3,0.5,9.1
			c0.2,2.9,0.5,5.5,0.8,8s0.6,4.8,1,6.7c0.8,4.7,1.8,7.5,2.7,7.5"/>
		<g>
			<g>
				<path d="M72.2,96.5c0,2-0.4,4.9,2,5c1.2,0.1,1.7-0.1,2.8,0.1c0.9,0.2,1.8,0.3,2.7,0.3c1.8-0.1,3.5-0.6,5.2-1.2
					c0.8-0.3,0.8-1.4,0-1.6c-2.1-0.6-4.2-1.5-6.2-2.2c-1.4-0.5-3.2-1.3-4.7-1.1c-0.3,0-0.5,0.3-0.6,0.6c-0.3,1.2-0.5,3.1,1,3.4
					c0.7,0.1,1.4,0,2.1,0.2c0.7,0.2,1.3,0.5,2,0.7c1.1,0.3,2,0.4,3.1,0.3c0.9-0.1,0.7-1.4,0-1.6c-2.3-0.8-4.5-1.7-6.9-1.9
					c-1.1-0.1-1.1,1.6,0,1.7c2.2,0.2,4.3,1.1,6.4,1.9c0-0.5,0-1.1,0-1.6c-1.8,0.3-3.2-0.8-4.9-1.1c-0.4-0.1-1,0.1-1.2-0.1
					c-0.6-0.4,0-0.4,0.5-0.4c1.2-0.1,3.1,1,4.3,1.4c1.6,0.6,3.1,1.2,4.7,1.7c0-0.5,0-1.1,0-1.6c-1.3,0.5-2.6,0.9-4,1
					c-1.7,0.2-3-0.3-4.6-0.5c-0.7-0.1-1.4,0.2-1.9,0.2s0.3,0.1,0.2,0.1c-0.3-0.4-0.2-2.7-0.2-3.4C73.9,95.5,72.2,95.5,72.2,96.5
					L72.2,96.5z"/>
			</g>
		</g>
		<g>
			<g>
				<path d="M72.8,105.1c0.2,1.4,0.3,2.9,0.5,4.3c0.1,0.7,1.2,1.3,1.5,0.4c0.7-1.5,3.8-1.5,5.1-1.9c1.7-0.4,3.3-1,4.9-1.5
					c0.6-0.2,0.8-0.9,0.4-1.4c-1.6-1.6-3.8-1.2-5.8-1.1c-1.3,0.1-5.1-0.5-5.6,1.2c-0.3,1.1,0.5,2.5,1.6,2.5c1.3,0,2.7-0.5,4-0.5
					c1.4,0,2.7-0.1,4.1-0.5c1-0.3,0.6-1.9-0.4-1.6c-1.6,0.5-3.1,0.4-4.7,0.4c-0.8,0-2.6,0.4-2.9,0.4c2.3,0,6.9-1.5,8.6,0.4
					c0.1-0.5,0.2-0.9,0.4-1.4c-2.4,0.8-4.7,1.6-7.2,2.1c-1.6,0.3-3.1,0.5-3.8,2.2c0.5,0.1,1,0.3,1.5,0.4c-0.2-1.4-0.3-2.9-0.5-4.3
					C74.3,104,72.7,104,72.8,105.1L72.8,105.1z"/>
			</g>
		</g>
		<g>
			<g>
				<path d="M77.9,106.2c0.8,0,1.7-0.2,2.5-0.1c0.6,0.1,1,0.5,1.5,0.7c1.1,0.3,3.4,0.1,4.4-0.3c0.4-0.1,0.6-0.4,0.6-0.8v-0.1
					c0-0.3-0.2-0.6-0.4-0.7c0,0-0.1,0-0.1-0.1c-0.9-0.5-1.8,0.9-0.8,1.4c0,0,0.1,0,0.1,0.1c-0.1-0.2-0.3-0.5-0.4-0.7v0.1
					c0.2-0.3,0.4-0.5,0.6-0.8c-0.7,0.3-1.7,0.2-2.4,0.3c-0.9,0.1-1.1,0-1.8-0.4c-1.1-0.5-2.6-0.2-3.8-0.1
					C76.8,104.6,76.8,106.3,77.9,106.2L77.9,106.2z"/>
			</g>
		</g>
		<g>
			<g>
				<path d="M74.2,108.4c0.4,0,0.8,0,1.2,0c1.1,0,1.1-1.7,0-1.7c-0.4,0-0.8,0-1.2,0C73.1,106.8,73.1,108.4,74.2,108.4L74.2,108.4z"
					/>
			</g>
		</g>
		<g>
			<g>
				<path d="M74,113.4c4.5-0.2,9.1-0.4,13.6-0.6c-0.1-0.5-0.1-1.1-0.2-1.6c-2.8,0.9-5.5,1.8-8.3,2.7c-0.7,0.2-1.4,0.4-2,0.7
					c-0.3,0.1-0.6,0.2-0.8,0.4c-0.3,0.4-0.4,0.3-0.4-0.2c0-0.3-0.1-0.5-0.3-0.5c-0.4-0.2-0.3-0.2,0.3-0.1c0.5-0.2,2.1,0,2.6,0
					c1.1-0.1,2.2-0.2,3.3-0.3c0.4-0.1,2.6-0.5,2.7-0.4c-0.2-0.3-1.5-0.1-1.9-0.1c-0.8,0.1-1.5,0.4-2.2,0.7c-0.5,0.2-1.1,0.6-1.6,0.8
					c-0.5,0.4-1,0.4-1.6-0.1c-0.8,0-1.1-0.2-1-0.8c0.2,0.5,0.4,0.9,0.6,1.4c0.1-0.1,0.3-0.1,0.4-0.2c1.1-0.1,1.1-1.8,0-1.7
					c-0.8,0.1-1,0.2-1.6,0.7s0,1.4,0.6,1.4c1.6,0.2,2.1-1.9,0.7-2.7c-1.6-0.9-2.6,0.6-2.3,2c0.4,2.5,2.8,2.2,4.7,1.4
					c0.7-0.3,1.4-0.7,2.2-1c1-0.4,2-0.2,3-0.5c0.7-0.2,1.6-0.5,2-1.3c0.9-2.2-2-1.8-3.2-1.7c-2.3,0.3-4.6,0.6-6.9,0.6
					c-0.8,0-1.8-0.2-2.3,0.6c-0.6,1,0.2,3.3,1.4,3.6c1.3,0.3,4.4-1.3,5.6-1.7c2.3-0.8,4.5-1.5,6.8-2.3c0.9-0.3,0.8-1.7-0.2-1.6
					c-4.5,0.2-9.1,0.4-13.6,0.6C73,111.8,73,113.4,74,113.4L74,113.4z"/>
			</g>
		</g>
		<g>
			<g>
				<path d="M75,120.2c2.4-0.2,4.9-0.4,7.3-0.2c1.1,0.1,2.2,0.2,3.2,0.3c1.6,0.6,2,0.5,1.3-0.1c-0.7,0.4-1.4,0.7-2.2,1
					c-1.7,0.7-4.8,1.9-6.5,1.4c-1.1-0.2-1.4-0.7-0.8-1.5c0.3,0,0.5,0,0.8,0c0.7-0.3,1.9-0.3,2.6-0.5c0.8-0.2,3.7-0.9,2.2,0.4
					c-0.5,0.4-2.7,0.7-3.3,0.7c-1.9,0.1-0.7-0.1,0.2-0.2c0.9-0.2,1.8-0.4,2.7-0.6c0.9,0,1.8-0.2,2.6-0.6c-0.6,0.1-1.2,0.2-1.8,0.3
					c-0.9,0.2-1.8,0.4-2.7,0.7c-0.6,0.2-1.2,0.4-1.7,0.6c0.1,0.7,0.5,0.8,1.1,0.3c1,0,2.2-0.6,3.2-0.8c1.1-0.2,0.6-1.8-0.4-1.6
					c-1.5,0.3-7.3,1.1-5,3.8c0.2,0.2,0.6,0.3,0.8,0.2c2-0.8,4.1-1.4,6.2-1.8c0.9-0.2,1.9-0.2,2-1.2c0.4-2.4-3.5-1.8-4.7-1.5
					c-1.4,0.3-6.4,0.3-6,2.9c0.4,2.9,5.6,0.9,7,0.5c1.3-0.3,4.5-1.5,2.9-3.3c-0.8-1-2.6-0.9-3.6-0.8c-0.7,0.1-1.4,0.3-2,0.4
					c-1.2,0.3-2.5,0.2-3.7,0.4c-1.8,0.4-1.6,2.8-0.7,4.1c1.5,2,6.6,0.2,8.4-0.4c1-0.4,6.3-2.1,3.9-3.9c-1-0.8-3.8-0.7-5-0.7
					c-2.8-0.2-5.5,0-8.2,0.2C73.9,118.6,73.9,120.3,75,120.2L75,120.2z"/>
			</g>
		</g>
	</g>
	<g>
		<path fill="#2E3192" stroke="#000000" stroke-width="3.3426" stroke-miterlimit="10" d="M464.3,183.7c12.8-9.3,3.1-52.4,24.5-56.8
			c12-2.5,13.8-5.7,13.7-6.3c-0.1-0.5-14.1,1.7-14.3-2.9c-0.1-4.3,14.8-5.6,14.9-5s-15,0.6-15.2-3.7c-0.1-3.7,16.2-3,16.2-3.1
			c0-0.1-16.1-1.8-16.2-3.7c-0.1-3,16.3-4,16.2-4.2c0-0.2-15.6,1.5-16.1-0.5c-1-3.7,16.1-8.7,15.6-8.7c-0.3,0.1-10.8,5.6-13.4,2.8
			c-2.5-2.6,2.3-10.2,1.1-14.2c-0.7-2.3-5.8-3.2-7.2-0.6c-1.9,3.5-3.2,8.6-3.1,11c0.3,5.3-0.6,10.9-14.9,32.8
			c-24.7,38.1-36.8,45.7-33.5,54.5C436.4,184.9,455.3,190.2,464.3,183.7z"/>
		<path fill="none" stroke="#000000" stroke-width="3.3426" stroke-miterlimit="10" d="M503.7,89.2c0.3,3.3,0.4,3.8,0.5,6.9
			c0.1,3,0.5,9.2,0.5,11.8s-0.3,1.6-0.4,3.6c-0.3,5-0.9,8-1.8,8.1"/>
		<g>
			<g>
				<path d="M501.8,92.1c0.1,0.6-0.1,1.8,0.2,2.3c-0.1,0.5,0.1,0.7,0.6,0.4c0.7,0,0.8,0,0.2-0.1c-1-0.3-2.1,0-3.1,0.3
					c-3.2,1-6,1.1-9.3,0.5c0,1.1,0,2.1,0,3.2c1.8-0.7,3.6-1.5,5.4-2.3c1.7-0.7,4.5-2.4,6.4-2.4c-0.5-0.3-1-0.5-1.4-0.8
					c0,0.4,0.1,0.9,0.1,1.3c0.3-0.5,0.5-1,0.8-1.4c-0.2,0.1-2.4,0.4-3.1,0.7c-1.6,0.6-2.9,1.4-4.7,1.4c0,1.1,0,2.2,0,3.3
					c0.5-0.1,1.7,1.4,2.2,1.7c0.8,0.3,1.5,0.4,2.3,0c1.8-0.8,2.1-4,3.8-4.6c2-0.7,1.1-3.9-0.9-3.2c-1.9,0.7-2.5,2.3-3.6,3.8
					c-0.8,1.1-0.5,0.5-1.5-0.3c-0.7-0.5-1.3-0.8-2.2-0.8c-2.1,0.2-2.2,3.3,0,3.3c1.6,0,2.9-0.4,4.4-1c0.8-0.3,1.5-0.7,2.3-0.9
					c0.4-0.1,1.5-0.1,2-0.3c2-0.8,1.7-3.1,0.9-4.8c-0.2-0.5-0.9-0.8-1.4-0.8c-2,0-4.1,1.2-5.9,1.9c-2.3,0.9-4.5,2-6.8,2.9
					c-1.4,0.5-1.8,2.9,0,3.2c2,0.3,4,0.7,6,0.6c2.2-0.1,4.1-1.1,6.2-1.3c1.2-0.1,2.3,0.4,3.2-0.8c1-1.3,0.5-3.6,0.3-5.1
					C504.9,90,501.6,90,501.8,92.1L501.8,92.1z"/>
			</g>
		</g>
		<g>
			<g>
				<path d="M502.1,99.2c0,1.6,0,3.1,0,4.7c1-0.3,2.1-0.6,3.1-0.8c-1.2-1.7-2.8-2.1-4.9-2.2c-3.2-0.2-6.3-0.6-9.4-1.2
					c0.2,0.9,0.5,1.9,0.7,2.8c1.2-1.3,3.4-1.1,5.1-1.2c1.1-0.1,4.5-0.7,5-0.3c-0.3-0.5-0.5-1-0.8-1.4c0.1,1.6,0.2,3.3,0.1,4.9
					c1.1-0.1,2.2-0.3,3.3-0.4c-0.1-0.6-0.1-2.6-0.6-3.6c-0.3-0.5-0.9-0.9-1.4-0.8c-1.5,0.1-2.9-0.1-4.4,0c-1.7,0.2-3.4,0.5-5.1,0.2
					c-2.1-0.3-3,2.9-0.9,3.2c1.8,0.3,3.4,0.2,5.2,0c1.8-0.2,3.5,0,5.3-0.1c-0.5-0.3-1-0.5-1.4-0.8c0.2,0.3,0.1,2.1,0.3,2.9
					c0.4,1.9,3.2,1.4,3.3-0.4c0.1-1.9,0.6-6-1.7-6.7c-1-0.3-2.4,0-3.4,0.1c-1.5,0.1-3.1,0.2-4.6,0.3c-2,0.2-4,0.4-5.4,2
					c-0.7,0.9-0.6,2.5,0.7,2.8c2,0.4,4,0.7,6.1,1c1.4,0.2,5.4-0.3,6.2,0.9c0.9,1.3,3.1,0.9,3.1-0.8c0-1.6,0-3.1,0-4.7
					C505.4,97.1,502.1,97.1,502.1,99.2L502.1,99.2z"/>
			</g>
		</g>
		<g>
			<g>
				<path d="M499.6,99.2c-1.1,0.1-2.5,0-3.6,0.4c-0.7,0.3-1.1,0.7-1.9,0.8c-0.7,0.1-1.8,0.2-2.4,0.1c0.2,0.2,0.4,0.4,0.6,0.6V101
					c-0.1,0.3-0.3,0.6-0.4,0.9c0,0,0.1,0,0.1-0.1c0.8-0.6,0-2.1-0.8-1.4c0,0-0.1,0-0.1,0.1c-0.3,0.2-0.5,0.5-0.4,0.9v0.1
					c0.1,0.3,0.3,0.5,0.6,0.6c1.2,0.3,3.2,0.2,4.4-0.1c0.5-0.1,0.7-0.6,1.2-0.8c0.8-0.4,2-0.2,2.9-0.3
					C500.6,100.8,500.6,99.1,499.6,99.2L499.6,99.2z"/>
			</g>
		</g>
		<g>
			<g>
				<path d="M503.5,100.9c-0.4,0-0.8,0.1-1.1,0.1c-1.1,0.1-1.1,1.7,0,1.7c0.4,0,0.8-0.1,1.1-0.1
					C504.5,102.5,504.5,100.8,503.5,100.9L503.5,100.9z"/>
			</g>
		</g>
		<g>
			<g>
				<path d="M504.2,105c-5,0.4-9.9,0.8-14.9,1.2c-1.7,0.1-2.4,2.9-0.4,3.3c2.6,0.5,5.1,0.9,7.7,1.4c2.1,0.4,4.4,1.1,6.5,1
					c0.6,0,1.2-0.3,1.4-0.8c0.7-1.4,1.3-3.9-0.4-4.8c-1.2-0.6-2.9,0-4.1,0.1c-2.1,0.2-4.1,0.1-6.2,0.1c-1.6,0-4.4-0.1-4.2,2.4
					c0.3,2.9,4.2,2.2,6,2.4c2.4,0.3,5.5,2.2,7.8,0.4c1.2-1,1.6-3.7,0.3-4.8c-1.3-1.1-3.8-0.3-4.2,1.4c-0.5,1.8,1.3,2.9,2.9,2.6
					c1.4-0.3,1.6-2.3,0.4-3c-0.7-0.4-1.2-0.5-2-0.5c-2.1,0.1-2.1,3.4,0,3.3c0.1,0,0.2,0,0.3,0.1c0.1-1,0.3-2,0.4-3
					c0.4,0.2,0.8,0.4,1.2,0.6c-0.1,0.5-0.3,1.1-0.4,1.6c0.6-0.7-9.7-2.2-9.6-2c0,0.6,0,1.1,0,1.7c-0.4,1,9.5-0.5,10-0.2
					c-0.3-0.5-0.5-1-0.8-1.4c0,0.5,0,1.1-0.2,1.5c0.5-0.3,1-0.5,1.4-0.8c-2.2,0.1-4.6-0.7-6.7-1.1c-2.2-0.4-4.4-0.8-6.5-1.2
					c-0.1,1.1-0.3,2.2-0.4,3.3c5-0.4,9.9-0.8,14.9-1.2C506.4,108.2,506.4,104.8,504.2,105L504.2,105z"/>
			</g>
		</g>
		<g>
			<g>
				<path d="M503.8,111.5c-4.3,0.1-10.1,0.2-14,2.5c-2.6,1.6-0.9,4.1,1.1,5.2c3.2,1.7,7.5,3,11.1,2.3c3.1-0.6,3.1-4.8,2.2-7.2
					c-0.3-0.8-0.8-1.1-1.6-1.2c-2.3-0.3-3.3,3-3.7,4.7c-0.1,0.3-0.2,0.6-0.4,0.9c1.1-0.1,1.3-0.3,0.7-0.7c-0.1-0.4-1.1-1.3-1.4-1.6
					c-0.7-0.9-1.4-1.9-2.3-2.6c-1.9-1.3-4.6-0.1-4.5,2.5c0.3,3.8,6.2,4,8.9,4.3c2.9,0.3,4.7-1.8,3.6-4.6c-0.3-0.8-1-2.4-1.7-3
					c-0.9-0.8-1.6-0.3-2.7,0c-2.3,0.7-8.3-0.5-8.4,3.4c0,1.3,0.6,2.2,1.9,2.5c1.3,0.4,2.7,0.3,4,0.6c1.3,0.3,2.6,0.8,3.9,1.3
					c0.7,0.3,1.5-0.2,1.9-0.8c2.7-4.1-4.4-5.3-6.8-5.6c-2.1-0.3-2.1,3.1,0,3.3c0.9,0.1,1.8,0.3,2.6,0.6c0.8,0.2,1,0.5,1.3,0
					c0.6-0.3,1.3-0.5,1.9-0.8c-1.4-0.6-2.9-1.1-4.4-1.4c-1.3-0.3-2.7-0.3-3.9-0.6c0.4,0.4,0.8,0.8,1.2,1.2c0.1,0.3,3.9-0.1,4.3-0.1
					c0.6-0.1,1.3-0.3,1.8-0.6c0.8-0.4,1.2,0-0.2-0.3c-0.4-0.4-0.8-0.8-1.2-1.2c0.3,0.8,1.1,1.5,1.2,2.3c0.4,0.5,0.4,0.7-0.1,0.4
					c-0.4-0.2-0.8-0.2-1.3-0.3c-0.9-0.2-1.7-0.3-2.6-0.4c-0.6-0.1-1.2-0.2-1.7-0.2c-1.1-0.2-1.3-0.2-0.7,0.2c0,0.2,0.9,1,1,1.1
					c0.7,0.8,1.3,1.8,2.1,2.5c1.1,1.1,2.7,1.9,4.1,0.7c0.5-0.5,0.8-1.3,1.1-2c0.2-0.5,0.4-1,0.5-1.5c0.1-0.3,0.2-0.5,0.3-0.8
					c0.4-0.5,0.3-0.6-0.2-0.2c-0.5-0.4-1.1-0.8-1.6-1.2c0.3,0.7,0.5,2.9,0.2,3.2c-0.1,0.1-1.8-0.1-2.2-0.1c-2.5-0.2-4.1-1.3-6.4-1.9
					c-0.8-0.7-1-0.7-0.7,0c0.1,0.6,0.4,0.7,1.1,0.1c0.9-0.1,2-0.6,2.9-0.8c2.6-0.6,5.2-0.7,7.9-0.8
					C505.9,114.8,505.9,111.5,503.8,111.5L503.8,111.5z"/>
			</g>
		</g>
	</g>
	<path fill="#27AAE1" stroke="#000000" stroke-width="3.3426" stroke-miterlimit="10" d="M201.5,241c0,0-2.5-1-11.2,5
		c-7.3,5.1-22.4,17.5-35.1,38.1c-12.1,19.5-10,27.3-25.2,48.4c-11.8,16.3-19.8,21-22.8,22.6c-12.3,6.6-25.9,7.7-32.7,7.8
		c-14.4,0.2-19.6-3.7-22.5-0.4c-5,5.8,3.9,25.8,18.1,38c7.2,6.2,17.6,10.8,38.2,20c10.9,4.9,9.9,3.9,13.1,5.7
		c19.2,10.9,17.4,23.2,31.9,32.5c12.6,8.1,14.2,9.8,39.5,8.8c14.8-0.6,24,9.5,26.4,5.8c0.5-0.8,1.3-0.9,3.4-5.6
		c2.6-5.7,3.9-9.7,6.4-15.5c2.2-5.1-4.9-23.4,0.3-48.1c2.3-11.1,5.3-22.5,9-31.5c5.7-13.8,1.4-3.5,5.7-13.8
		c3.3-7.8,6.9-33.8,9.2-39.3c6.1-14.7-11.6-42-15.3-47.1c-1.2-1.7-16.1-12.2-26.8-22.6C207,246,202.8,242.5,201.5,241z"/>
	<g>
		
			<ellipse fill="#FFF200" stroke="#FFF200" stroke-width="3.3426" stroke-miterlimit="10" cx="299.6" cy="282" rx="39.1" ry="37.8"/>
		<polygon fill="#FFF200" stroke="#000000" stroke-width="3.3426" stroke-miterlimit="10" points="321.4,310.7 299.5,299.8 
			277.8,311 281.8,287.6 264,271.1 288.3,267.4 299.1,246 310.1,267.2 334.5,270.5 317,287.3 		"/>
	</g>
</g>
</svg>
