<?xml version="1.0" encoding="utf-8"?>
<!-- Generator: Adobe Illustrator 18.1.0, SVG Export Plug-In . SVG Version: 6.00 Build 0)  -->
<!DOCTYPE svg PUBLIC "-//W3C//DTD SVG 1.1//EN" "http://www.w3.org/Graphics/SVG/1.1/DTD/svg11.dtd">
<svg version="1.1" id="Layer_1" xmlns="http://www.w3.org/2000/svg" xmlns:xlink="http://www.w3.org/1999/xlink" x="0px" y="0px"
	 viewBox="0 0 503.3 605.6" enable-background="new 0 0 503.3 605.6" xml:space="preserve">
<symbol  id="Brown_Hair_1" viewBox="-8.1 -3.4 16.2 6.8">
	<g>
		<path fill="#7E5629" d="M-8.1,2.5c0,0,10.4-0.9,16.2-5.9C3.6,2-5.5,4.9-8.1,2.5z"/>
	</g>
</symbol>
<symbol  id="Brown_Hair_4" viewBox="-11.3 -7.7 22.7 15.4">
	<path fill="#7E5629" d="M-11.3,7c0,0,5.6,2.6,10.6-1.9c5-4.6,5.8-10.2,12-12.7C4.7-6.5,2.2,0.9-1,4C-6.1,8.9-10.8,7-11.3,7z"/>
</symbol>
<g>
	<path fill="#006838" stroke="#000000" stroke-width="3.3263" stroke-miterlimit="10" d="M231.9,217.5c-3.8-3-9.4-1.8-18,0
		c-4.1,0.9-9.6,2.1-16.3,5.6c-10,5.3-14.9,11.3-24.1,18.5c-12.9,10-22.6,21.7-35.4,31.4c-0.2,0.1-10.8,5.7-22.4,15.2
		c-3.3,2.7-6.8,5.7-7.9,10.7c-1.2,5.4,0.7,12,3.9,12.9c2.1,0.6,3.2-1.9,9.5-5.6c4.3-2.6,7.9-4.7,12.3-4.5c4.5,0.2,4.9,2.6,8.4,2.8
		c6.5,0.3,14.9-9.4,19.8-12.7c4.5-3.1,10.2-5.8,17.3-12.5c3.5-3.3,5.2-4.2,6.7-5.6c3-2.6,8.4-5.8,14.3,3.5c3.8,6,2.3,19.1,2.4,26.3
		c0.1,4.9,0.4,17.2-2,26.3c0,0-0.3,2-2.5,9.5l-1.5,5.7c0.8,2.1,7.6-0.4,18,0c10.5,0.4,11.8,2.4,16.8,1.1c5.7-1.4,6.1-3.8,12.7-6.3
		c5.5-2.1,12.6-1.7,14.5-1.2c5.6,1.5,6.4,3.1,12.9,5.3c1.9,0.6,0.8-0.1,5.9,0.6c8.6,1.2,13.9,1.3,19.1,0.6c4.7-0.6,5.4-1.4,5.6-1.7
		c2.4-3.1-0.5-8-2.8-17.9c-0.7-3.1-2.8-10.6-0.5-19.6c0.9-3.5,1-9.1,5.6-17.6c5.5-10.2,7.4-13,10.3-16.1c2-2.1,0,0,8.4-8.3
		c8.2-8.2,7.7-7.1,12.1-12.1c3.9-4.4,14.8-16,17-19.9c1.7-2.9,25.6-41.3,30.5-46.8c2.7-3,18.6-31.3,19.4-32.5
		c4.2-6.8-13.7-1.8-11.6-1.9c9.6-0.6-2.8-4.2-11-6.5c-6.6-1.9-2.4-16.7-4.6-11.1c-3.1,7.8-11.1,21.7-18.4,32.9
		c-6.2,9.5-4.9,6-13.2,19.2c-7.3,11.8-17.8,22.7-21.3,26.2c-9.6,9.6-14.5,14.3-23.7,10.4c-3.7-1.5-7.8-2.8-16.3-4.5
		c-10.2-2.1-11.9-1.3-12.9-0.6c-3.6,2.7-0.7,7.6-4.5,12.3c-3.8,4.8-10.9,5-13.5,5.1c-2.7,0.1-8.2,0.2-12.3-3.4
		C233.7,226,236.3,220.9,231.9,217.5z"/>
	<polygon fill="#FFDE17" stroke="#000000" stroke-width="3.3263" stroke-miterlimit="10" points="236.1,252.2 214.8,274.1 
		236.1,304.9 279.3,304.9 300.7,274.6 278.8,252.2 	"/>
	<polygon fill="#FFFFFF" stroke="#000000" stroke-width="3.3263" stroke-miterlimit="10" points="230.5,274 244,293.7 269.5,293.7 
		284.9,274 277.6,264.5 238.9,264.5 	"/>
	<path stroke="#000000" stroke-width="3.3263" stroke-miterlimit="10" d="M114.9,312.8c-1,3.7,3.6,10.3,11.8,18.5
		c17.8,17.7,20.2,15.4,27.5,24.7c7.2,9.1,8.5,15.9,18.5,23c4.3,3.1,7.4,4.1,10.1,3.4c5.5-1.5,7.3-9.8,8.4-14.6
		c1.3-5.5,2.8-12.3-1.1-17.4c-3-3.9-7.7-4.9-11.2-5.6c-7.6-1.6-9.5,1.2-13.5,0c-11.6-3.4-6.3-32.7-20.2-39.3
		c-5.7-2.7-11.9-2.2-15.1-1.4C126.9,305,116.3,307.5,114.9,312.8z"/>
	<path stroke="#000000" stroke-width="3.3263" stroke-miterlimit="10" d="M375.6,138.5c-5-12.7,26.3-21.9,26.4-37.2
		c0-7.8-6.7-10.1-5.4-19.2c1.3-9,9-14.1,9.8-14.6c7-4.5,18.1-5.8,22.8-0.3c3,3.4,2.5,8.3,2,12.1c-1.2,10.3-5.9,13.6-11,23.9
		c-2.2,4.5-0.9,3.1-10.4,34.2c-3,9.9-4.5,14.3-8.6,15.9c-6,2.3-14.7-0.3-16.7-1.7C382.4,149.8,377.9,144.2,375.6,138.5z"/>
	<path fill="#FFDE17" stroke="#000000" stroke-width="3.3263" stroke-miterlimit="10" d="M197.4,348.1c-1.1,4.1-2.2,8.2-3.4,12.3
		h36.5l3.9-13.5L197.4,348.1z"/>
	<polygon fill="#FFDE17" stroke="#000000" stroke-width="3.3263" stroke-miterlimit="10" points="275.4,347.7 275.4,362.7 
		308.5,360.5 304.6,347 	"/>
	<path fill="#ED1C24" stroke="#000000" stroke-width="3.3263" stroke-miterlimit="10" d="M235.6,349.3c-0.5,0.9-4.3,7.9-1.1,14.6
		c4.1,8.7,16.2,8.9,18.5,9c2.7,0.1,15.8-0.1,20.8-10.1c0.2-0.4,3.9-8.1,0-15.2c-5.5-9.9-20.2-8.1-21.9-7.9
		C249.2,340.1,240,341.3,235.6,349.3z"/>
	<path fill="#FFFFFF" stroke="#000000" stroke-width="3.3263" stroke-miterlimit="10" d="M244.5,351.5c-2.1,3.2-1.7,7.8,0.6,10.7
		c3.7,4.6,11.6,3.6,15.7,0c2.3-2,4.8-6.1,3.4-9.5c-1.4-3.4-5.9-4.2-7.9-4.5C254.6,347.8,247.7,346.7,244.5,351.5z"/>
	<path fill="#006838" stroke="#000000" stroke-width="3.3263" stroke-miterlimit="10" d="M194,362.7c0,0-3.4,9.5-6.5,20.3
		c-0.5,1.8-2.6,9.9-3.9,14.6c-8.2,28.8-6.2,57.8-9.3,60.7c-4.2,3.9-4.7,6.8-5.9,12.2c-1.4,6.7-1.4,10.3-1.7,16.3
		c-0.1,3.1-1.6,5.3-1.2,7.2c0.6,2.8,5.2,4.2,8.4,5.1c1.8,0.5,9.3,1.6,15.3,1.3c6.4-0.4,14.1-3.3,14.1-3.3v-2.2c0,0,0.7-7.6,2-11.3
		c4-11.2,9.2-18.7,16.4-27c22.5-26,23.9-39.8,28.9-41.6c0,0,9.2,13.8,34.5,44.4c7.7,9.3,13.8,15.5,14,25.3
		c0.1,5.7-1.7,11.2,1.7,14.6c0.8,0.8,2.1,1.8,10.7,2.2c15.3,0.9,19.9-1.9,21.3-2.8c1.5-1,4.4-2.9,4.5-5.6c0.1-2.5,0.5-4.6,0-7.8
		c-1.3-7.7-0.8-9.8-4.8-16.7c-1.8-3-3-7.1-4.7-10.7c-3.6-7.8,0.3-29.7-4.3-50.6c-2.5-11.5-0.5-20.8-4.2-24.5
		c-6.5-6.3-10.9-20-10.9-20s-29.9-1.3-33,0.9c-8.3,5.9-7.1,9.2-22.5,9.2c-13.4,0-18.5-9-22.2-10C218.9,359.5,194,362.7,194,362.7z"
		/>
	<path stroke="#000000" stroke-width="3.3263" stroke-miterlimit="10" d="M161.5,506.4c0.2-5.4-0.2-9.9,2.2-11.2
		c1.3-0.7,2.7,0,6.2,1.1c4,1.3,8.3,2.7,12.3,2.8c6.7,0.2,19.2-1.2,20.2,0c3.7,4.3-4,16.8-9.5,25.8c-8.1,13.1-10.6,13.2-11.8,19.6
		c-1.1,5.8,0.7,7.1,0,20.2c-0.5,9.5-1.6,12.2-2.2,13.5c-1.1,2.3-2.8,4.9-11.2,11.8c-8.6,7-13,10.6-16.8,11.8
		c-1.1,0.4-13.9,4.2-23-2.8c-1.5-1.2-4.2-3.2-5.1-6.7c-0.3-1.3-1-5.6,6.2-14.6c7.3-9.2,12-9.8,21.3-20.2c3.6-4,5.4-6.1,6.7-9
		c3-6.6,0.8-9.6,1.7-22.4C159.4,514.6,161.2,516.4,161.5,506.4z"/>
	<path stroke="#000000" stroke-width="3.3263" stroke-miterlimit="10" d="M306.3,515.4c-2.9-5.6-7.9-15.2-5.1-18
		c1.4-1.4,3.6,0,10.7,1.1c7.6,1.2,15.8,2.5,21.3-1.7c3.5-2.7,3.5-5.7,5.1-5.6c4.3,0.3,5.8,23.8,6.2,28.6c1.4,20.3-1.3,21.6,1.7,28.6
		c2.2,5.1,3.9,5.3,21.3,23c12.5,12.7,15.4,16.5,14.6,20.8c-1.2,6.2-9.2,9.3-11.2,10.1c-9.6,3.8-18.6-0.4-20.2-1.1
		c-5.3-2.5-4.6-4.4-15.7-14c-8.1-7-8.8-6.3-10.1-9c-2.5-5.2-0.2-8.8-0.6-22.4c-0.1-4.4-0.2-6.5-0.6-9
		C321.7,534.8,314.7,531.5,306.3,515.4z"/>
	<path fill="#27AAE1" stroke="#000000" stroke-width="3.3263" stroke-miterlimit="10" d="M345.7,239.8c0,0,2.9,3.3,11.8,9
		c7.5,4.8,23,16.8,36.5,37c12.7,19.1,10.9,27,26.9,47.7c12.3,15.9,20.5,20.3,23.6,21.9c12.5,6.2,26.3,6.9,33.1,6.7
		c14.4-0.3,19.5-4.3,22.4-1.1c5.2,5.6-3,26.1-16.8,38.7c-7,6.4-17.2,11.4-37.6,21.3c-10.8,5.2-9.8,4.2-12.9,6.2
		c-18.8,11.6-16.6,23.9-30.9,33.7c-12.3,8.5-13.9,10.3-39.3,10.1c-14.9-0.1-23.8,10.3-26.3,6.7c-0.5-0.8-1.3-0.9-3.6-5.5
		c-2.8-5.6-4.3-9.5-6.9-15.2c-2.3-5.1,4.1-23.6-1.9-48.2c-2.7-11-6.1-22.4-10.1-31.3c-6.2-13.6-1.5-3.5-6.2-13.6
		c-3.5-7.7-8-33.7-10.5-39.1c-6.6-14.5,10.2-42.5,13.7-47.8c1.2-1.8,14.5-15.2,24.9-25.9C339.6,246.9,344.4,241.3,345.7,239.8z"/>
	<path fill="#27AAE1" stroke="#000000" stroke-width="3.3263" stroke-miterlimit="10" d="M295.6,476.6c-1.4,1.5-27.3-9.3-44-8.4
		c-25.1,1.4-42.5,13.5-44.7,10.7c-2.4-3.2,9.2-10.7,22.6-30.4c6.3-9.2,18.4-33.5,21.1-33.6c2.4,0,13.6,18.3,24.9,32.2
		C287.2,461.2,296.7,475.5,295.6,476.6z"/>
	<path fill="#27AAE1" stroke="#000000" stroke-width="3.3263" stroke-miterlimit="10" d="M167.1,466.5c-6.5,7-14.7-9.4-30.9-15.2
		c-16.1-5.7-19.9,3.1-33.7-1.7c-19.6-6.8-14.6-25.8-37.6-39.3c-3.9-2.3-15.7-6-39.3-13.5c-19.6-6.2-22.4-6.5-23.6-9.5
		c-4.4-11.1,25.8-23.7,56.1-62.9c17.4-22.5,15.5-28.8,33.1-46c11.4-11.1,21.6-17.7,42.1-30.9c16.4-10.5,28.1-16.5,42.1-20.8
		c8.2-2.5,24.7-3.4,24.7-3.4s-7.6,7.2-23.6,19.1c-23.1,17.2-19.1,17.4-37,30.3c-19.9,14.3-29.7,17.6-30.9,27.5
		c-0.6,5.1,1.4,9.2,4.5,15.2c5,9.9,10.1,12.2,24.7,26.4c11.9,11.6,17.9,17.4,21.3,22.4c4.6,6.7,7.1,12.3,14,15.7
		c7,3.5,14.2-1.1,13.5,3.4c-1,6.2-8.6,20.9-9.3,50c-0.2,6.9-0.6,14.3-2.2,22.7C174.4,460.9,171,462.4,167.1,466.5z"/>
	<g>
		<path fill="#27AAE1" stroke="#000000" stroke-width="3.3263" stroke-miterlimit="10" d="M194,271.3c-5.9-4.3-11.6,6.7-27.1,17.3
			c-11.5,7.8-20.1,9.8-20,13.6c0.1,2.6,0.1,2.6,3.2,7.5c5.9,9.3,3.3,25.7,12.2,33.3c6.1,5.2,15.5-2.2,23.6,4
			c7.3,5.6,8.3,13.9,10.7,13.6c2.1-0.3,2.5-7.4,3.1-13.4c0.9-9,4.4-15.3,5.5-20.6c1.8-9.1,1.4-16.5,0.8-19.6
			c-0.5-2.6-0.5-15.1-2.7-23C200.8,274.9,196.5,273,194,271.3z"/>
	</g>
	<path fill="#E8B68A" stroke="#E8B68A" stroke-width="3.3263" stroke-miterlimit="10" d="M261.6,223.1c0,0,0.9-16.8,2-26.6
		c0,0,8.6,4.3,30.9-4.2c2.6-1,11.8-2.8,22.3-13.7c4.9-5,5.7-11.7,6.7-16.2c2.1-9.3-0.7-10.2-0.9-21.7c0,0-2.3-0.6,3.5-5.7
		c0.8-0.6,4.6-0.5,5.5-0.1c2.1,1,5.8,2.3,9.8,1c5.9-1.8,8.1-7.8,9.4-11.3c1-2.6,3.8-10.4,0-14.1c-2.8-2.8-8-2.1-11.3-0.9
		c-10.2,3.7-11.8,16.5-15.1,16c-2.8-0.4,0.7-5.8-2.8-20.7c-1-4.2-0.6-5.2-5.2-13.9c-3.2-6-6.8-13.8-12.5-17.2
		c-5.9-3.5-11.5-7.3-27.2-8.4c-17.2-1.2-19.9-0.2-38.9-1.1c-8-0.3-19.7-0.3-36.5,7.4c-6.2,2.8-10.4,27.7-12.8,31
		c-8.8,11.9,0.1,14.7-0.8,17.8c0,0.1,0,0.1-0.1,0.1c-0.7,0.4-3.7-3.8-7.5-6.6c-1.1-0.8-5-3.5-10.1-3.6c-3.4,0-9.3,1.1-11.3,4.7
		c-4.9,8.6,4.7,17,15.1,22.5c10.9,5.7,6.7,31.4,11.3,40.2c3.8,7.2,8.8,12.8,21.3,17.1c15,5.2,29,6.3,35.1,3.1c0,0,0,0,0,0
		c5.5,9.3,0.9,18.7,0.9,18.7c0,1.1-0.1,2.9-0.1,5.2c1.3,1.1,3.8,2.5,7.1,3.5c0.9,0.3,2,0.4,3.4,0.4
		C257.9,226.1,261.6,223.1,261.6,223.1z"/>
	<path fill="none" stroke="#C49A6C" stroke-width="3.3263" stroke-miterlimit="10" d="M334.3,126.5c-0.6-0.8,1.3-3.6,3.9-4.9
		c2.9-1.5,6.6-1,6.8,0C345.4,123.3,335.3,127.9,334.3,126.5z"/>
	<path fill="none" stroke="#C49A6C" stroke-width="3.3263" stroke-miterlimit="10" d="M181.4,128.5c0.4-0.8-3.1-3.9-7.2-5.1
		c-3.4-1-7.7-0.9-7.9,0C166,125,180.6,130,181.4,128.5z"/>
	<g>
		<path fill="#FFFFFF" stroke="#000000" stroke-width="3.3263" stroke-miterlimit="10" d="M270.1,131.9c3.1,1.8,6-3.1,14.4-3.1
			c7.8,0,10.9,4.2,13.3,2.4c3.1-2.3,0.3-10.7-3.1-20.5c-2.7-7.8-4.9-11.1-8.2-13.3c-1.4-0.9-4-2.7-6.8-2.1
			c-1.3,0.3-4.5,1.4-7.9,10.9C271.2,107.9,264.1,128.4,270.1,131.9z"/>
		<path fill="#2E3192" stroke="#000000" stroke-width="3.3263" stroke-miterlimit="10" d="M274.7,126.5c-4.5-5.9-1.8-13.2-1.4-14.4
			c0.2-0.5,3.8-9.4,10.3-9.2c6,0.2,9.1,8,9.6,9.2c2.3,5.8-1.6,17.7-9.4,17.1C278.4,128.8,278.1,131,274.7,126.5z"/>
		<path fill="#27AAE1" stroke="#000000" stroke-width="3.3263" stroke-miterlimit="10" d="M284,128.8c-3.6-0.3-4.9-0.8-5.1-5
			c-0.1-1.9,1-7,4.6-7c3.5,0,4.8,1.3,5,5.9C288.6,125.9,287.5,129.1,284,128.8z"/>
	</g>
	<g>
		<path fill="#FFFFFF" stroke="#000000" stroke-width="3.3263" stroke-miterlimit="10" d="M210.4,131.9c3.1,1.8,6-3.1,14.4-3.1
			c7.8,0,10.9,4.2,13.3,2.4c3.1-2.3,0.3-10.7-3.1-20.5c-2.7-7.8-4.9-11.1-8.2-13.3c-1.4-0.9-4-2.7-6.8-2.1
			c-1.3,0.3-4.5,1.4-7.9,10.9C211.5,107.9,204.4,128.4,210.4,131.9z"/>
		<path fill="#2E3192" stroke="#000000" stroke-width="3.3263" stroke-miterlimit="10" d="M215,126.5c-4.5-5.9-1.8-13.2-1.4-14.4
			c0.2-0.5,3.8-9.4,10.3-9.2c6,0.2,9.1,8,9.6,9.2c2.3,5.8-1.6,17.7-9.4,17.1C218.7,128.8,218.4,131,215,126.5z"/>
		<path fill="#27AAE1" stroke="#000000" stroke-width="3.3263" stroke-miterlimit="10" d="M224.2,128.8c-3.6-0.3-4.9-0.8-5.1-5
			c-0.1-1.9,1-7,4.6-7c3.5,0,4.8,1.3,5,5.9C228.9,125.9,227.8,129.1,224.2,128.8z"/>
	</g>
	<path fill="none" stroke="#000000" stroke-width="3.3263" stroke-miterlimit="10" d="M270.3,81.9c5.2-1.7,15.7,0,23.5,9"/>
	<path fill="none" stroke="#000000" stroke-width="3.3263" stroke-miterlimit="10" d="M210.4,90.9c0-5,10.6-9,23.7-9"/>
	<line fill="none" stroke="#000000" stroke-width="3.3263" stroke-miterlimit="10" x1="276.3" y1="96.4" x2="276.3" y2="96.4"/>
	<g>
		<path fill="none" stroke="#C49A6C" stroke-width="3.3263" stroke-miterlimit="10" d="M254.7,148.6c-0.6-0.4-4.5-2.8-8.9-1.3
			c-3.9,1.3-7.6,5.3-6.8,9.7c0.6,3.3,3.4,5.5,6,6.3c3.3,1,7.1,0,9.7-2.6"/>
	</g>
	<path fill="none" stroke="#BE1E2D" stroke-width="3.3263" stroke-miterlimit="10" d="M202.8,168.8c1.4-2.2,5.7-4.5,5.7-4.5
		s3.6,4.7,6.1,8c8.3,10.7,20.3,13.8,24.5,14.6c6.6,1.3,11.7,0.8,16.7,0.2c3.8-0.4,10-0.5,16.7-4c3.6-1.9,7.3-3.8,12.7-7.5
		c5.9-4.1,6.7-5.6,6.7-5.6c3.9-3.9,5.1-4.7,5.1-4.7s2.1,2.4,2.8,4.1"/>
	<path fill="#3C2415" stroke="#603913" stroke-width="3.3263" stroke-miterlimit="10" d="M174,101.1c-1.5-4.9-3-8.6-3.7-16.9
		c-0.5-6.1-1.2-13.7,0.7-23.6c1.7-8.7,3.1-16.3,9.2-23.2c4.5-5.1,10.1-8.2,12.5-9.5c3.2-1.8,5.9-2.8,11.3-4.8c4.9-1.8,8.5-2.8,8-2.1
		c-1.3,1.8-9.3,10.5-10.1,24.1c-0.2,2.8-0.5,8.6,3,13.4c3.2,4.3,7.8,5.4,7.4,7.1c-0.4,2.2-7.1,0.5-12.2,4.5c-1.6,1.3-2.5,2.6-6,13.1
		c-4.1,12.4-4,13.6-6.5,19.6c-1.3,3-4.2,9.5-4.2,9.5v0C183.5,112.4,176.8,110.6,174,101.1z"/>
	<path fill="#3C2415" stroke="#603913" stroke-width="3.3263" stroke-miterlimit="10" d="M227.5,10c4.2-2,11-4.8,21.4-6.5
		c8.4-1.4,20.7-3.4,35.4,0.3c6.5,1.6,28.1,7.1,38.4,25c7.2,12.6,4.2,16.2,7.1,34.5c0.7,4.3,17.7,9.2,11.9,36c-0.7,3.2-2.3,6.1-3.3,8
		c-3.2,6.2-9.9,16.6-13.4,15.5c-3.3-1,0.7-11-3.9-25.3c-1.1-3.5-4-12.2-11.9-19.6c-6.4-6.1-13.1-8.5-17-9.8
		c-7.4-2.6-10.2-1.8-31.2-2.7c-25.5-1.1-24.7-1.9-30.4-0.9c-6.9,1.2-8.8,1.3-15.2,1.2c-5.3,0-9.7-5.7-10.7-7.5
		c-5.1-9.5-1.5-20,0-24.4c1.2-3.4,3.7-9.1,8.9-14.6C218.5,14.5,223,12.2,227.5,10z"/>
	<path fill="#FFF200" stroke="#000000" stroke-width="3.3263" stroke-miterlimit="10" d="M236.5,218c0.2-0.2,0,0.9,2.8-0.5
		c2.3-1.2,2-0.9,2-0.9s-0.1,3.5,1,6.3c1.4,3.9,6.8,5.6,8.7,5.8c2,0.3,9.8,0.4,12.3-3.1c2-2.8,1.8-9.1,1.8-9.1h7
		c0,0-1.6,9.8-4.5,13.1c-3.6,4.2-7.9,4.7-11,5c-2.9,0.3-9.5,1-14.8-3.2C237,227.7,234.8,219.8,236.5,218z"/>
</g>
<use xlink:href="#Brown_Hair_4"  width="22.7" height="15.4" x="-11.3" y="-7.7" transform="matrix(4.8527 -0.9541 -0.5892 -2.9967 265.3474 48.4636)" overflow="visible"/>
<use xlink:href="#Brown_Hair_4"  width="22.7" height="15.4" x="-11.3" y="-7.7" transform="matrix(4.4852 -0.8818 -0.541 -2.7519 270.3352 30.9327)" overflow="visible"/>
<use xlink:href="#Brown_Hair_1"  width="16.2" height="6.8" x="-8.1" y="-3.4" transform="matrix(1.0491 -2.2589 -2.3475 -1.0902 183.038 55.5144)" overflow="visible"/>
<use xlink:href="#Brown_Hair_1"  width="16.2" height="6.8" x="-8.1" y="-3.4" transform="matrix(1.0315 -2.1532 -2.1333 -1.022 182.8229 76.1029)" overflow="visible"/>
</svg>
