<?xml version="1.0" encoding="utf-8"?>
<!-- Generator: Adobe Illustrator 18.1.0, SVG Export Plug-In . SVG Version: 6.00 Build 0)  -->
<!DOCTYPE svg PUBLIC "-//W3C//DTD SVG 1.1//EN" "http://www.w3.org/Graphics/SVG/1.1/DTD/svg11.dtd">
<svg version="1.1" id="Layer_1" xmlns="http://www.w3.org/2000/svg" xmlns:xlink="http://www.w3.org/1999/xlink" x="0px" y="0px"
	 viewBox="0 0 600 600" enable-background="new 0 0 600 600" xml:space="preserve">
<symbol  id="Brown_Hair_1" viewBox="-8.1 -3.4 16.2 6.8">
	<g>
		<path fill="#7E5629" d="M-8.1,2.5c0,0,10.4-0.9,16.2-5.9C3.6,2-5.5,4.9-8.1,2.5z"/>
	</g>
</symbol>
<symbol  id="Brown_Hair_4" viewBox="-11.3 -7.7 22.6 15.3">
	<path fill="#7E5629" d="M-11.3,6.9c0,0,5.6,2.6,10.6-1.9c5-4.6,5.8-10.2,12-12.7C4.7-6.6,2.2,0.8-1,3.9C-6.1,8.8-10.8,6.9-11.3,6.9
		z"/>
</symbol>
<g>
	<g>
		<path fill="#006838" stroke="#000000" stroke-width="3.3452" stroke-miterlimit="10" d="M280.3,215c-3.8-3-9.4-1.8-17.9,0
			c-4.1,0.9-9.6,2.1-16.2,5.6c-10,5.3-14.8,11.3-24,18.4c-12.9,10-22.5,21.6-35.3,31.3c-0.2,0.1-10.8,5.7-22.3,15.1
			c-3.3,2.7-6.8,5.7-7.9,10.7c-1.2,5.4,0.7,12,3.9,12.9c2.1,0.6,3.2-1.9,9.5-5.6c4.3-2.6,7.9-4.7,12.3-4.5c4.5,0.2,4.9,2.6,8.4,2.8
			c6.5,0.3,14.8-9.4,19.7-12.7c4.5-3.1,10.2-5.8,17.2-12.5c3.5-3.3,5.2-4.2,6.7-5.6c3-2.6,8.4-5.8,14.2,3.5c3.8,6,2.3,19,2.4,26.2
			c0.1,4.9,0.4,17.1-2,26.2c0,0-0.3,2-2.5,9.5L245,342c0.8,2.1,7.6-0.4,17.9,0c10.5,0.4,11.8,2.4,16.7,1.1c5.7-1.4,6.1-3.8,12.7-6.3
			c5.5-2.1,12.6-1.7,14.4-1.2c5.6,1.5,6.4,3.1,12.9,5.3c1.9,0.6,0.8-0.1,5.9,0.6c8.6,1.2,13.8,1.3,19,0.6c4.7-0.6,5.4-1.4,5.6-1.7
			c2.4-3.1-0.5-8-2.8-17.8c-0.7-3.1-2.8-10.6-0.5-19.5c0.9-3.5,1-9.1,5.6-17.5c5.5-10.2,7.4-13,10.3-16c2-2.1,0,0,8.4-8.3
			c8.2-8.2,7.7-7.1,12.1-12.1c3.9-4.4,14.7-15.9,16.9-19.8c1.7-2.9,25.5-41.2,30.4-46.6c2.7-3,18.5-31.2,19.3-32.4
			c4.2-6.8-13.7-1.8-11.6-1.9c9.6-0.6-2.8-4.2-11-6.5c-6.6-1.9-2.4-16.6-4.6-11.1c-3.1,7.8-11.1,21.6-18.3,32.8
			c-6.2,9.5-4.9,6-13.2,19.1c-7.3,11.8-17.7,22.6-21.2,26.1c-9.6,9.6-14.4,14.2-23.6,10.4c-3.7-1.5-7.8-2.8-16.2-4.5
			c-10.2-2.1-11.9-1.3-12.9-0.6c-3.6,2.7-0.7,7.6-4.5,12.3c-3.8,4.8-10.9,5-13.5,5.1c-2.7,0.1-8.2,0.2-12.3-3.4
			C282.1,223.5,284.7,218.4,280.3,215z"/>
		<polygon fill="#FFDE17" stroke="#000000" stroke-width="3.3452" stroke-miterlimit="10" points="284.5,249.6 263.3,271.4 
			284.5,302.1 327.6,302.1 348.9,271.9 327.1,249.6 		"/>
		<polygon fill="#FFFFFF" stroke="#000000" stroke-width="3.3452" stroke-miterlimit="10" points="278.9,271.3 292.4,290.9 
			317.8,290.9 333.1,271.3 325.9,261.8 287.3,261.8 		"/>
		<path stroke="#000000" stroke-width="3.3452" stroke-miterlimit="10" d="M163.7,310c-1,3.7,3.6,10.3,11.8,18.4
			c17.7,17.6,20.1,15.3,27.4,24.6c7.2,9.1,8.5,15.8,18.4,22.9c4.3,3.1,7.4,4.1,10.1,3.4c5.5-1.5,7.3-9.8,8.4-14.5
			c1.3-5.5,2.8-12.3-1.1-17.3c-3-3.9-7.7-4.9-11.2-5.6c-7.6-1.6-9.5,1.2-13.5,0c-11.6-3.4-6.3-32.6-20.1-39.2
			c-5.7-2.7-11.9-2.2-15-1.4C175.7,302.2,165.1,304.7,163.7,310z"/>
		<path stroke="#000000" stroke-width="3.3452" stroke-miterlimit="10" d="M423.5,136.3c-5-12.7,26.2-21.8,26.3-37.1
			c0-7.8-6.7-10.1-5.4-19.1c1.3-9,9-14,9.8-14.5c7-4.5,18-5.8,22.7-0.3c3,3.4,2.5,8.3,2,12.1c-1.2,10.3-5.9,13.6-11,23.8
			c-2.2,4.5-0.9,3.1-10.4,34.1c-3,9.9-4.5,14.2-8.6,15.8c-6,2.3-14.6-0.3-16.6-1.7C430.3,147.6,425.8,142,423.5,136.3z"/>
		<path fill="#FFDE17" stroke="#000000" stroke-width="3.3452" stroke-miterlimit="10" d="M245.9,345.1c-1.1,4.1-2.2,8.2-3.4,12.3
			h36.4l3.9-13.5L245.9,345.1z"/>
		<polygon fill="#FFDE17" stroke="#000000" stroke-width="3.3452" stroke-miterlimit="10" points="323.7,344.7 323.7,359.7 
			356.6,357.5 352.8,344 		"/>
		<path fill="#ED1C24" stroke="#000000" stroke-width="3.3452" stroke-miterlimit="10" d="M284,346.3c-0.5,0.9-4.3,7.9-1.1,14.5
			c4.1,8.7,16.1,8.9,18.4,9c2.7,0.1,15.7-0.1,20.7-10.1c0.2-0.4,3.9-8.1,0-15.1c-5.5-9.9-20.1-8.1-21.8-7.9
			C297.6,337.2,288.4,338.4,284,346.3z"/>
		<path fill="#FFFFFF" stroke="#000000" stroke-width="3.3452" stroke-miterlimit="10" d="M292.9,348.5c-2.1,3.2-1.7,7.8,0.6,10.7
			c3.7,4.6,11.6,3.6,15.6,0c2.3-2,4.8-6.1,3.4-9.5c-1.4-3.4-5.9-4.2-7.9-4.5C302.9,344.8,296.1,343.7,292.9,348.5z"/>
		<path fill="#006838" stroke="#000000" stroke-width="3.3452" stroke-miterlimit="10" d="M242.6,359.7c0,0-3.4,9.5-6.5,20.2
			c-0.5,1.8-2.6,9.9-3.9,14.5c-8.2,28.7-6.2,57.6-9.3,60.5c-4.2,3.9-4.7,6.8-5.9,12.2c-1.4,6.7-1.4,10.3-1.7,16.2
			c-0.1,3.1-1.6,5.3-1.2,7.2c0.6,2.8,5.2,4.2,8.4,5.1c1.8,0.5,9.3,1.6,15.2,1.3c6.4-0.4,14-3.3,14-3.3v-2.2c0,0,0.7-7.6,2-11.3
			c4-11.2,9.2-18.6,16.3-26.9c22.4-25.9,23.8-39.7,28.8-41.4c0,0,9.2,13.7,34.4,44.2c7.7,9.3,13.7,15.4,13.9,25.2
			c0.1,5.7-1.7,11.2,1.7,14.5c0.8,0.8,2.1,1.8,10.7,2.2c15.2,0.9,19.8-1.9,21.2-2.8c1.5-1,4.4-2.9,4.5-5.6c0.1-2.5,0.5-4.6,0-7.8
			c-1.3-7.7-0.8-9.8-4.8-16.6c-1.8-3-3-7.1-4.7-10.7c-3.6-7.8,0.3-29.6-4.3-50.4c-2.5-11.5-0.5-20.7-4.2-24.4
			c-6.5-6.3-10.9-19.9-10.9-19.9s-29.8-1.3-32.9,0.9c-8.3,5.9-7.1,9.2-22.4,9.2c-13.4,0-18.4-9-22.1-10
			C267.4,356.5,242.6,359.7,242.6,359.7z"/>
		<path stroke="#000000" stroke-width="3.3452" stroke-miterlimit="10" d="M210.2,502.9c0.2-5.4-0.2-9.9,2.2-11.2
			c1.3-0.7,2.7,0,6.2,1.1c4,1.3,8.3,2.7,12.3,2.8c6.7,0.2,19.1-1.2,20.1,0c3.7,4.3-4,16.7-9.5,25.7c-8.1,13.1-10.6,13.2-11.8,19.5
			c-1.1,5.8,0.7,7.1,0,20.1c-0.5,9.5-1.6,12.2-2.2,13.5c-1.1,2.3-2.8,4.9-11.2,11.8c-8.6,7-13,10.6-16.7,11.8
			c-1.1,0.4-13.8,4.2-22.9-2.8c-1.5-1.2-4.2-3.2-5.1-6.7c-0.3-1.3-1-5.6,6.2-14.5c7.3-9.2,12-9.8,21.2-20.1c3.6-4,5.4-6.1,6.7-9
			c3-6.6,0.8-9.6,1.7-22.3C208.1,511,209.9,512.8,210.2,502.9z"/>
		<path stroke="#000000" stroke-width="3.3452" stroke-miterlimit="10" d="M354.5,511.8c-2.9-5.6-7.9-15.1-5.1-17.9
			c1.4-1.4,3.6,0,10.7,1.1c7.6,1.2,15.7,2.5,21.2-1.7c3.5-2.7,3.5-5.7,5.1-5.6c4.3,0.3,5.8,23.7,6.2,28.5
			c1.4,20.2-1.3,21.5,1.7,28.5c2.2,5.1,3.9,5.3,21.2,22.9c12.5,12.7,15.3,16.4,14.5,20.7c-1.2,6.2-9.2,9.3-11.2,10.1
			c-9.6,3.8-18.5-0.4-20.1-1.1c-5.3-2.5-4.6-4.4-15.6-13.9c-8.1-7-8.8-6.3-10.1-9c-2.5-5.2-0.2-8.8-0.6-22.3c-0.1-4.4-0.2-6.5-0.6-9
			C369.8,531.2,362.8,527.9,354.5,511.8z"/>
		<path fill="#27AAE1" stroke="#000000" stroke-width="3.3452" stroke-miterlimit="10" d="M393.7,237.2c0,0,2.9,3.3,11.8,9
			c7.5,4.8,22.9,16.7,36.4,36.9c12.7,19,10.9,26.9,26.8,47.5c12.3,15.8,20.4,20.2,23.5,21.8c12.5,6.2,26.2,6.9,33,6.7
			c14.3-0.3,19.4-4.3,22.3-1.1c5.2,5.6-3,26-16.7,38.6c-7,6.4-17.1,11.4-37.5,21.2c-10.8,5.2-9.8,4.2-12.9,6.2
			c-18.7,11.6-16.5,23.8-30.8,33.6c-12.3,8.5-13.8,10.3-39.2,10.1c-14.8-0.1-23.7,10.3-26.2,6.7c-0.5-0.8-1.3-0.9-3.6-5.5
			c-2.8-5.6-4.3-9.5-6.9-15.1c-2.3-5.1,4.1-23.5-1.9-48c-2.7-11-6.1-22.3-10.1-31.2c-6.2-13.6-1.5-3.5-6.2-13.6
			c-3.5-7.7-8-33.6-10.5-39c-6.6-14.4,10.2-42.3,13.7-47.6c1.2-1.8,14.4-15.1,24.8-25.8C387.6,244.3,392.4,238.7,393.7,237.2z"/>
		<path fill="#27AAE1" stroke="#000000" stroke-width="3.3452" stroke-miterlimit="10" d="M343.8,473.2c-1.4,1.5-27.2-9.3-43.8-8.4
			c-25,1.4-42.3,13.5-44.5,10.7c-2.4-3.2,9.2-10.7,22.5-30.3c6.3-9.2,18.3-33.4,21-33.5c2.4,0,13.6,18.2,24.8,32.1
			C335.4,457.8,344.9,472.1,343.8,473.2z"/>
		<path fill="#27AAE1" stroke="#000000" stroke-width="3.3452" stroke-miterlimit="10" d="M215.8,463.1c-6.5,7-14.6-9.4-30.8-15.1
			c-16-5.7-19.8,3.1-33.6-1.7c-19.5-6.8-14.5-25.7-37.5-39.2c-3.9-2.3-15.6-6-39.2-13.5c-19.5-6.2-22.3-6.5-23.5-9.5
			c-4.4-11.1,25.7-23.6,55.9-62.7c17.3-22.4,15.4-28.7,33-45.8c11.4-11.1,21.5-17.6,41.9-30.8c16.3-10.5,28-16.4,41.9-20.7
			c8.2-2.5,24.6-3.4,24.6-3.4s-7.6,7.2-23.5,19c-23,17.1-19,17.3-36.9,30.2c-19.8,14.2-29.6,17.5-30.8,27.4
			c-0.6,5.1,1.4,9.2,4.5,15.1c5,9.9,10.1,12.2,24.6,26.3c11.9,11.6,17.8,17.3,21.2,22.3c4.6,6.7,7.1,12.3,13.9,15.6
			c7,3.5,14.1-1.1,13.5,3.4c-1,6.2-8.6,20.8-9.3,49.8c-0.2,6.9-0.6,14.2-2.2,22.6C223,457.5,219.6,459,215.8,463.1z"/>
		<g>
			<path fill="#27AAE1" stroke="#000000" stroke-width="3.3452" stroke-miterlimit="10" d="M242.6,268.6c-5.9-4.3-11.6,6.7-27,17.2
				c-11.5,7.8-20,9.8-19.9,13.6c0.1,2.6,0.1,2.6,3.2,7.5c5.9,9.3,3.3,25.6,12.2,33.2c6.1,5.2,15.4-2.2,23.5,4
				c7.3,5.6,8.3,13.8,10.7,13.6c2.1-0.3,2.5-7.4,3.1-13.4c0.9-9,4.4-15.2,5.5-20.5c1.8-9.1,1.4-16.4,0.8-19.5
				c-0.5-2.6-0.5-15-2.7-22.9C249.3,272.2,245.1,270.3,242.6,268.6z"/>
		</g>
		<path fill="#E8B68A" stroke="#E8B68A" stroke-width="3.3452" stroke-miterlimit="10" d="M309.9,220.6c0,0,0.9-16.7,2-26.5
			c0,0,8.6,4.3,30.8-4.2c2.6-1,11.8-2.8,22.2-13.7c4.9-5,5.7-11.7,6.7-16.1c2.1-9.3-0.7-10.2-0.9-21.6c0,0-2.3-0.6,3.5-5.7
			c0.8-0.6,4.6-0.5,5.5-0.1c2.1,1,5.8,2.3,9.8,1c5.9-1.8,8.1-7.8,9.4-11.3c1-2.6,3.8-10.4,0-14c-2.8-2.8-8-2.1-11.3-0.9
			c-10.2,3.7-11.8,16.4-15,15.9c-2.8-0.4,0.7-5.8-2.8-20.6c-1-4.2-0.6-5.2-5.2-13.8c-3.2-6-6.8-13.7-12.5-17.1
			c-5.9-3.5-11.5-7.3-27.1-8.4c-17.1-1.2-19.8-0.2-38.8-1.1c-8-0.3-19.6-0.3-36.4,7.4c-6.2,2.8-10.4,27.6-12.8,30.9
			c-8.8,11.9,0.1,14.6-0.8,17.7c0,0.1,0,0.1-0.1,0.1c-0.7,0.4-3.7-3.8-7.5-6.6c-1.1-0.8-5-3.5-10.1-3.6c-3.4,0-9.3,1.1-11.3,4.7
			c-4.9,8.6,4.7,16.9,15,22.4c10.9,5.7,6.7,31.3,11.3,40.1c3.8,7.2,8.8,12.8,21.2,17c14.9,5.2,28.9,6.3,35,3.1l0,0
			c5.5,9.3,0.9,18.6,0.9,18.6c0,1.1-0.1,2.9-0.1,5.2c1.3,1.1,3.8,2.5,7.1,3.5c0.9,0.3,2,0.4,3.4,0.4
			C306.2,223.6,309.9,220.6,309.9,220.6z"/>
		<path fill="none" stroke="#C49A6C" stroke-width="3.3452" stroke-miterlimit="10" d="M382.4,124.3c-0.6-0.8,1.3-3.6,3.9-4.9
			c2.9-1.5,6.6-1,6.8,0C393.4,121.2,383.3,125.7,382.4,124.3z"/>
		<path fill="none" stroke="#C49A6C" stroke-width="3.3452" stroke-miterlimit="10" d="M230,126.3c0.4-0.8-3.1-3.9-7.2-5.1
			c-3.4-1-7.7-0.9-7.9,0C214.7,122.8,229.2,127.8,230,126.3z"/>
		<g>
			<path fill="#FFFFFF" stroke="#000000" stroke-width="3.3452" stroke-miterlimit="10" d="M318.4,129.7c3.1,1.8,6-3.1,14.3-3.1
				c7.8,0,10.9,4.2,13.3,2.4c3.1-2.3,0.3-10.7-3.1-20.4c-2.7-7.8-4.9-11.1-8.2-13.3c-1.4-0.9-4-2.7-6.8-2.1
				c-1.3,0.3-4.5,1.4-7.9,10.9C319.5,105.8,312.4,126.2,318.4,129.7z"/>
			<path fill="#2E3192" stroke="#000000" stroke-width="3.3452" stroke-miterlimit="10" d="M323,124.3c-4.5-5.9-1.8-13.2-1.4-14.3
				c0.2-0.5,3.8-9.4,10.3-9.2c6,0.2,9.1,8,9.6,9.2c2.3,5.8-1.6,17.6-9.4,17C326.7,126.6,326.4,128.8,323,124.3z"/>
			<path fill="#27AAE1" stroke="#000000" stroke-width="3.3452" stroke-miterlimit="10" d="M332.2,126.6c-3.6-0.3-4.9-0.8-5.1-5
				c-0.1-1.9,1-7,4.6-7c3.5,0,4.8,1.3,5,5.9C336.8,123.7,335.7,126.9,332.2,126.6z"/>
		</g>
		<g>
			<path fill="#FFFFFF" stroke="#000000" stroke-width="3.3452" stroke-miterlimit="10" d="M258.9,129.7c3.1,1.8,6-3.1,14.3-3.1
				c7.8,0,10.9,4.2,13.3,2.4c3.1-2.3,0.3-10.7-3.1-20.4c-2.7-7.8-4.9-11.1-8.2-13.3c-1.4-0.9-4-2.7-6.8-2.1
				c-1.3,0.3-4.5,1.4-7.9,10.9C260,105.8,252.9,126.2,258.9,129.7z"/>
			<path fill="#2E3192" stroke="#000000" stroke-width="3.3452" stroke-miterlimit="10" d="M263.5,124.3c-4.5-5.9-1.8-13.2-1.4-14.3
				c0.2-0.5,3.8-9.4,10.3-9.2c6,0.2,9.1,8,9.6,9.2c2.3,5.8-1.6,17.6-9.4,17C267.2,126.6,266.9,128.8,263.5,124.3z"/>
			<path fill="#27AAE1" stroke="#000000" stroke-width="3.3452" stroke-miterlimit="10" d="M272.6,126.6c-3.6-0.3-4.9-0.8-5.1-5
				c-0.1-1.9,1-7,4.6-7c3.5,0,4.8,1.3,5,5.9C277.3,123.7,276.2,126.9,272.6,126.6z"/>
		</g>
		<path fill="none" stroke="#000000" stroke-width="3.3452" stroke-miterlimit="10" d="M318.6,79.9c5.2-1.7,15.6,0,23.4,9"/>
		<path fill="none" stroke="#000000" stroke-width="3.3452" stroke-miterlimit="10" d="M258.9,88.9c0-5,10.6-9,23.6-9"/>
		<line fill="none" stroke="#000000" stroke-width="3.3452" stroke-miterlimit="10" x1="324.6" y1="94.3" x2="324.6" y2="94.3"/>
		<g>
			<path fill="none" stroke="#C49A6C" stroke-width="3.3452" stroke-miterlimit="10" d="M303,146.4c-0.6-0.4-4.5-2.8-8.9-1.3
				c-3.9,1.3-7.6,5.3-6.8,9.7c0.6,3.3,3.4,5.5,6,6.3c3.3,1,7.1,0,9.7-2.6"/>
		</g>
		<path fill="none" stroke="#BE1E2D" stroke-width="3.3452" stroke-miterlimit="10" d="M251.3,166.5c1.4-2.2,5.7-4.5,5.7-4.5
			s3.6,4.7,6.1,8c8.3,10.7,20.2,13.7,24.4,14.5c6.6,1.3,11.7,0.8,16.6,0.2c3.8-0.4,10-0.5,16.6-4c3.6-1.9,7.3-3.8,12.7-7.5
			c5.9-4.1,6.7-5.6,6.7-5.6c3.9-3.9,5.1-4.7,5.1-4.7s2.1,2.4,2.8,4.1"/>
		<path fill="#3C2415" stroke="#603913" stroke-width="3.3452" stroke-miterlimit="10" d="M222.6,99c-1.5-4.9-3-8.6-3.7-16.8
			c-0.5-6.1-1.2-13.7,0.7-23.5c1.7-8.7,3.1-16.2,9.2-23.1c4.5-5.1,10.1-8.2,12.5-9.5c3.2-1.8,5.9-2.8,11.3-4.8
			c4.9-1.8,8.5-2.8,8-2.1c-1.3,1.8-9.3,10.5-10.1,24c-0.2,2.8-0.5,8.6,3,13.4c3.2,4.3,7.8,5.4,7.4,7.1c-0.4,2.2-7.1,0.5-12.2,4.5
			c-1.6,1.3-2.5,2.6-6,13.1c-4.1,12.4-4,13.6-6.5,19.5c-1.3,3-4.2,9.5-4.2,9.5l0,0C232.1,110.3,225.4,108.5,222.6,99z"/>
		<path fill="#3C2415" stroke="#603913" stroke-width="3.3452" stroke-miterlimit="10" d="M275.9,8.3c4.2-2,11-4.8,21.3-6.5
			c8.4-1.4,20.6-3.4,35.3,0.3c6.5,1.6,28,7.1,38.3,24.9c7.2,12.6,4.2,16.1,7.1,34.4c0.7,4.3,17.6,9.2,11.9,35.9
			c-0.7,3.2-2.3,6.1-3.3,8c-3.2,6.2-9.9,16.5-13.4,15.4c-3.3-1,0.7-11-3.9-25.2c-1.1-3.5-4-12.2-11.9-19.5
			c-6.4-6.1-13.1-8.5-16.9-9.8c-7.4-2.6-10.2-1.8-31.1-2.7c-25.4-1.1-24.6-1.9-30.3-0.9c-6.9,1.2-8.8,1.3-15.1,1.2
			c-5.3,0-9.7-5.7-10.7-7.5c-5.1-9.5-1.5-19.9,0-24.3c1.2-3.4,3.7-9.1,8.9-14.5C267,12.7,271.5,10.5,275.9,8.3z"/>
		<path fill="#FFF200" stroke="#000000" stroke-width="3.3452" stroke-miterlimit="10" d="M284.9,215.5c0.2-0.2,0,0.9,2.8-0.5
			c2.3-1.2,2-0.9,2-0.9s-0.1,3.5,1,6.3c1.4,3.9,6.8,5.6,8.7,5.8c2,0.3,9.8,0.4,12.3-3.1c2-2.8,1.8-9.1,1.8-9.1h7
			c0,0-1.6,9.8-4.5,13.1c-3.6,4.2-7.9,4.7-11,5c-2.9,0.3-9.5,1-14.7-3.2C285.4,225.2,283.2,217.3,284.9,215.5z"/>
	</g>
	
		<use xlink:href="#Brown_Hair_4"  width="22.6" height="15.3" x="-11.3" y="-7.7" transform="matrix(4.8517 -0.9539 -0.5891 -2.9961 313.8897 46.5372)" overflow="visible"/>
	
		<use xlink:href="#Brown_Hair_4"  width="22.6" height="15.3" x="-11.3" y="-7.7" transform="matrix(4.4843 -0.8816 -0.5409 -2.7514 318.8412 29.0735)" overflow="visible" enable-background="new    "/>
	
		<use xlink:href="#Brown_Hair_1"  width="16.2" height="6.8" x="-8.1" y="-3.4" transform="matrix(1.0453 -2.2507 -2.339 -1.0862 231.6375 53.6111)" overflow="visible"/>
	
		<use xlink:href="#Brown_Hair_1"  width="16.2" height="6.8" x="-8.1" y="-3.4" transform="matrix(1.0278 -2.1454 -2.1256 -1.0183 231.4231 74.125)" overflow="visible" enable-background="new    "/>
</g>
</svg>
