<?xml version="1.0" encoding="utf-8"?>
<!-- Generator: Adobe Illustrator 18.1.0, SVG Export Plug-In . SVG Version: 6.00 Build 0)  -->
<!DOCTYPE svg PUBLIC "-//W3C//DTD SVG 1.1//EN" "http://www.w3.org/Graphics/SVG/1.1/DTD/svg11.dtd">
<svg version="1.1" id="Layer_1" xmlns="http://www.w3.org/2000/svg" xmlns:xlink="http://www.w3.org/1999/xlink" x="0px" y="0px"
	 viewBox="0 0 503.3 604.7" enable-background="new 0 0 503.3 604.7" xml:space="preserve">
<symbol  id="Brown_Hair_1" viewBox="-8.1 -3.4 16.2 6.8">
	<g>
		<path fill="#7E5629" d="M-8.1,2.5c0,0,10.4-0.9,16.2-5.9C3.6,2-5.5,4.9-8.1,2.5z"/>
	</g>
</symbol>
<symbol  id="Brown_Hair_4" viewBox="-11.3 -7.7 22.7 15.4">
	<path fill="#7E5629" d="M-11.3,7c0,0,5.6,2.6,10.6-1.9c5-4.6,5.8-10.2,12-12.7C4.7-6.5,2.2,0.9-1,4C-6.1,8.9-10.8,7-11.3,7z"/>
</symbol>
<path fill="#27AAE1" stroke="#000000" stroke-width="3.3239" stroke-miterlimit="10" d="M339.2,459.3c6.7,6.7,14.4-9.9,30.3-16.2
	c15.9-6.2,20,2.4,33.6-2.8c19.4-7.5,13.7-26.2,36.2-40.5c3.8-2.4,15.5-6.5,38.8-14.8c19.3-6.8,22.1-7.2,23.2-10.3
	c4-11.2-26.6-22.8-58.2-60.9c-18.2-21.9-16.4-28.2-34.6-44.9c-11.7-10.7-22.2-17-43.1-29.4c-16.7-9.9-27-10.5-41.1-14.2
	c-8.2-2.2-27.4,8.9-27.4,8.9s8.9-9.6,25.3,1.7c23.6,16.4-1.5,25.6-13.4,44.2c-11.8,18.4-7.6,42.6-6.1,52.5
	c0.8,5.1,13.3,39.9,14.1,44.4c1.2,6.2,9.3,20.5,11,49.6c0.4,6.9,1.1,14.2,2.9,22.6C331.7,453.9,335.2,455.3,339.2,459.3z"/>
<path fill="#006838" stroke="#000000" stroke-width="3.3239" stroke-miterlimit="10" d="M267,217.5c3.8-3.1,9.3-2.1,17.9-0.5
	c4.1,0.8,10.5,1.4,17.3,2.6c11.5,2,18.3,4.4,29.1-0.1c12.1-5,29.3-17.1,40.4-24c0.2-0.1,11.2-21.6,18.9-28.4
	c3.2-2.8,5.8,7.4,10,10.2c3.4,2.2,13.9,5.9,15.3,7.6c0,0-1.7,1-3.9,3.5c-3.4,3.7-11,16.1-14.9,19.8c-3.3,3.1-12.1,14.3-14.2,17.1
	c-3.8,5.2-12.8,8.7-18.9,11.7c-4.9,2.4-18.4,8.5-26,11.4c-4.5,1.7-22,22.4-23.5,23.9c-2.1,2.1-3.1,6.9-7.9,17.1
	c-3.1,6.4-4.1,6.7-5.8,12c-1.5,4.6-0.2,24.6,0.7,27.4c0,0,0.3,1,2.7,9.4l1.6,5.6c-0.8,2.1-7.6-0.1-17.9,0.5
	c-10.5,0.6-11.7,2.7-16.8,1.6c-5.7-1.3-6.2-3.7-12.9-6c-5.6-1.9-12.6-1.4-14.5-0.8c-5.6,1.6-6.3,3.3-12.7,5.6
	c-1.9,0.7-0.8-0.1-5.9,0.8c-8.6,1.4-13.9,1.6-19,1.1c-4.7-0.5-5.4-1.2-5.7-1.5c-2.5-3,0.3-8,2.3-17.9c0.6-3.2,2.5-10.6,0-19.6
	c-1-3.5-3.9-6.7-8.7-15.1c-5.7-10-5.1-10.3-6.9-15.5c-1-2.7-1.2-2.7-9.8-10.8c-8.5-7.9-7.8-6.9-12.4-11.7
	c-4-4.3-12.7-14.9-19.5-14.6c-3.4,0.1-39.7-8.9-44.7-14.2c-2.8-2.9-22-31.1-22.8-32.3c-4.3-6.6,1.3-11.7,2.9-13.1
	c5.8-5,7.3-4.3,11.4-8.9c4.6-5.1,6.2-11.3,8.5-5.7c1.1,2.6,16.6,34.1,21.5,36.4c8.7,4,49.1,17.2,53.8,18.6
	c10.5,3.1,15.4,5.2,25.1,2.7c3.9-1,7.7-3,16.1-4.9c10.1-2.4,11.8-1.7,12.9-0.9c3.7,2.6,0.9,7.6,4.8,12.2c4,4.7,11,4.7,13.6,4.7
	c2.7,0,8.2,0,12.2-3.7C265.5,226.1,262.7,221.1,267,217.5z"/>
<polygon fill="#FFDE17" stroke="#000000" stroke-width="3.3239" stroke-miterlimit="10" points="273,247.5 295.1,268.7 274.8,300.2 
	231.6,301.7 209.3,272.1 230.4,248.9 "/>
<polygon fill="#FFFFFF" stroke="#000000" stroke-width="3.3239" stroke-miterlimit="10" points="279.4,269.2 266.6,289.3 
	241.1,290.1 225,271 232,261.2 270.6,259.9 "/>
<path fill="#FFDE17" stroke="#000000" stroke-width="3.3239" stroke-miterlimit="10" d="M304.9,342.1c1.3,4.1,2.5,8.1,3.8,12.2
	l-36.4,1.2l-4.4-13.3L304.9,342.1z"/>
<polygon fill="#FFDE17" stroke="#000000" stroke-width="3.3239" stroke-miterlimit="10" points="227,344.3 227.5,359.3 194.4,358.1 
	197.8,344.5 "/>
<path fill="#ED1C24" stroke="#000000" stroke-width="3.3239" stroke-miterlimit="10" d="M266.9,344.5c0.5,0.8,4.5,7.7,1.6,14.5
	c-3.8,8.8-15.9,9.5-18.2,9.6c-2.7,0.1-15.8,0.4-21.1-9.4c-0.2-0.4-4.2-8-0.5-15.1c5.1-10.1,19.9-8.7,21.6-8.6
	C253,335.8,262.2,336.7,266.9,344.5z"/>
<path fill="#FFFFFF" stroke="#000000" stroke-width="3.3239" stroke-miterlimit="10" d="M258,347c2.2,3.1,2,7.7-0.2,10.7
	c-3.6,4.7-11.5,4-15.7,0.5c-2.3-1.9-5-5.9-3.7-9.4c1.3-3.5,5.7-4.4,7.7-4.7C247.8,343.7,254.6,342.3,258,347z"/>
<path fill="#006838" stroke="#000000" stroke-width="3.3239" stroke-miterlimit="10" d="M308.8,356.5c0,0,3.7,9.4,7.1,20
	c0.6,1.8,2.9,9.8,4.4,14.4c9.2,28.5,8.1,57.6,11.3,60.3c4.3,3.7,4.9,6.6,6.3,12c1.6,6.6,1.8,10.2,2.2,16.2c0.2,3.1,1.7,5.3,1.4,7.2
	c-0.5,2.9-5.1,4.3-8.2,5.3c-1.8,0.6-9.3,1.9-15.2,1.8c-6.4-0.2-14.2-2.9-14.2-2.9l-0.1-2.2c0,0-0.9-7.6-2.4-11.3
	c-4.3-11.1-9.8-18.3-17.3-26.4c-23.4-25.2-25.2-39-30.3-40.6c0,0-8.8,14.1-33,45.5c-7.3,9.5-13.2,16-13.2,25.7
	c0,5.7,2.1,11.1-1.2,14.6c-0.7,0.8-2.1,1.8-10.6,2.6c-15.3,1.4-20-1.2-21.4-2.1c-1.6-0.9-4.4-2.8-4.7-5.5c-0.2-2.5-0.7-4.6-0.3-7.8
	c1-7.7,0.4-9.8,4.2-16.8c1.7-3.1,2.8-7.2,4.3-10.9c3.3-7.9-1.3-29.7,2.6-50.7c2.1-11.6-0.2-20.8,3.3-24.6
	c6.2-6.5,10.3-20.3,10.3-20.3s29.8-2.3,33-0.2c8.5,5.6,7.4,8.9,22.8,8.4c13.3-0.5,18.2-9.6,21.8-10.7
	C283.8,354.1,308.8,356.5,308.8,356.5z"/>
<path stroke="#000000" stroke-width="3.3239" stroke-miterlimit="10" d="M346.1,498.9c-0.3-5.4-0.1-9.9-2.6-11.1
	c-1.4-0.7-2.7,0.1-6.1,1.3c-4,1.4-8.2,2.9-12.2,3.2c-6.7,0.4-19.2-0.6-20.2,0.7c-3.5,4.4,4.6,16.7,10.4,25.5
	c8.5,12.8,11,12.8,12.4,19.2c1.3,5.8-0.5,7.1,0.7,20.2c0.8,9.5,2.1,12.1,2.7,13.4c1.1,2.2,2.9,4.8,11.6,11.4
	c8.9,6.7,13.3,10.1,17.2,11.2c1.1,0.3,14,3.7,22.9-3.6c1.5-1.2,4.1-3.4,4.8-6.9c0.3-1.4,0.8-5.6-6.7-14.4c-7.6-9-12.3-9.4-22-19.5
	c-3.7-3.9-5.6-5.9-7-8.7c-3.2-6.5-1.1-9.5-2.4-22.4C348.4,507,346.7,508.9,346.1,498.9z"/>
<path stroke="#000000" stroke-width="3.3239" stroke-miterlimit="10" d="M201.8,512.7c2.7-5.6,7.4-15.4,4.4-18.1
	c-1.5-1.3-3.6,0.1-10.6,1.5c-7.6,1.4-15.7,3-21.4-1c-3.6-2.5-3.7-5.6-5.2-5.4c-4.3,0.5-5,23.9-5.2,28.8c-0.7,20.3,2,21.5-0.7,28.6
	c-2,5.2-3.7,5.4-20.5,23.7c-12.1,13.1-14.8,17-13.9,21.2c1.4,6.1,9.5,9,11.5,9.7c9.7,3.4,18.6-1,20.1-1.8c5.2-2.7,4.5-4.6,15.2-14.5
	c7.9-7.3,8.6-6.6,9.8-9.3c2.4-5.3-0.1-8.8-0.2-22.4c0-4.4-0.1-6.5,0.3-9C187.1,532.6,193.9,529.1,201.8,512.7z"/>
<path fill="#27AAE1" stroke="#000000" stroke-width="3.3239" stroke-miterlimit="10" d="M211.2,473.7c1.4,1.4,27-10.2,43.6-9.9
	c25.1,0.5,42.9,12.1,45,9.1c2.3-3.2-9.6-10.4-23.6-29.6c-6.6-9-19.5-32.9-22.2-32.8c-2.4,0-12.9,18.8-23.8,33
	C219,458,210,472.6,211.2,473.7z"/>
<path fill="#E8B68A" stroke="#E8B68A" stroke-width="3.3239" stroke-miterlimit="10" d="M240,222.7c0,0-1.5-16.7-2.9-26.5
	c0,0-8.4,4.6-31-3.2c-2.7-0.9-11.8-2.4-22.8-12.9c-5-4.8-6.1-11.5-7.3-16c-2.4-9.3,0.3-10.2,0.2-21.7c0,0,2.3-0.7-3.7-5.5
	c-0.8-0.6-4.6-0.4-5.5,0.1c-2,1.1-5.7,2.5-9.7,1.4c-6-1.6-8.4-7.5-9.8-11c-1.1-2.6-4.1-10.3-0.5-14.1c2.7-2.8,7.9-2.4,11.3-1.3
	c10.3,3.3,12.3,16.1,15.6,15.5c2.7-0.5-0.9-5.8,2.1-20.8c0.9-4.2,0.4-5.3,4.8-14c3-6.1,6.4-14,11.9-17.6c5.7-3.7,11.3-7.6,26.9-9.3
	c17.1-1.8,19.9-0.9,38.9-2.4c8-0.6,19.6-1,36.7,6.1c6.3,2.6,11.3,27.3,13.8,30.5c9.2,11.6,0.4,14.7,1.4,17.8c0,0.1,0.1,0.1,0.1,0.1
	c0.8,0.4,3.5-4,7.3-6.8c1.1-0.8,4.8-3.7,10-3.9c3.4-0.1,9.3,0.8,11.4,4.3c5.2,8.4-4.1,17.1-14.4,23c-10.7,6.1-5.6,31.6-10,40.5
	c-3.6,7.3-8.4,13.1-20.7,17.8c-14.8,5.7-28.7,7.3-34.9,4.3c0,0,0,0,0,0c-5.2,9.4-0.3,18.7-0.3,18.7c0.1,1.1,0.2,2.9,0.3,5.2
	c-1.3,1.1-3.7,2.7-7,3.7c-0.9,0.3-2,0.5-3.3,0.5C243.7,225.5,240,222.7,240,222.7z"/>
<path fill="none" stroke="#C49A6C" stroke-width="3.3239" stroke-miterlimit="10" d="M164.2,128.7c0.5-0.8-1.5-3.5-4.1-4.7
	c-3-1.4-6.6-0.7-6.8,0.2C152.9,125.8,163.2,130.1,164.2,128.7z"/>
<path fill="none" stroke="#C49A6C" stroke-width="3.3239" stroke-miterlimit="10" d="M316.9,125.5c-0.4-0.8,3-4,7-5.4
	c3.4-1.1,7.7-1.1,7.9-0.3C332.1,121.5,317.7,127,316.9,125.5z"/>
<g>
	<path fill="#FFFFFF" stroke="#000000" stroke-width="3.3239" stroke-miterlimit="10" d="M228.4,131.9c-3.1,1.9-6.1-2.9-14.5-2.6
		c-7.7,0.3-10.7,4.6-13.2,2.8c-3.2-2.2-0.6-10.7,2.4-20.6c2.4-7.9,4.5-11.3,7.8-13.6c1.3-1,3.9-2.8,6.8-2.3
		c1.3,0.2,4.5,1.3,8.2,10.7C226.5,107.9,234.3,128.2,228.4,131.9z"/>
	<path fill="#2E3192" stroke="#000000" stroke-width="3.3239" stroke-miterlimit="10" d="M223.7,126.6c4.3-6.1,1.4-13.2,0.9-14.4
		c-0.2-0.5-4.1-9.3-10.6-8.9c-5.9,0.4-8.8,8.3-9.3,9.5c-2.1,5.9,2.1,17.6,9.9,16.8C220,129.1,220.4,131.3,223.7,126.6z"/>
	<path fill="#27AAE1" stroke="#000000" stroke-width="3.3239" stroke-miterlimit="10" d="M214.5,129.2c3.6-0.4,4.9-1,4.9-5.2
		c0-1.9-1.2-6.9-4.8-6.8c-3.5,0.1-4.7,1.4-4.8,6C209.7,126.5,210.9,129.6,214.5,129.2z"/>
</g>
<g>
	<path fill="#FFFFFF" stroke="#000000" stroke-width="3.3239" stroke-miterlimit="10" d="M288,129.9c-3.1,1.9-6.1-2.9-14.5-2.6
		c-7.7,0.3-10.7,4.6-13.2,2.8c-3.2-2.2-0.6-10.7,2.4-20.6c2.4-7.9,4.5-11.3,7.8-13.6c1.3-1,3.9-2.8,6.8-2.3
		c1.3,0.2,4.5,1.3,8.2,10.7C286.1,105.9,294,126.2,288,129.9z"/>
	<path fill="#2E3192" stroke="#000000" stroke-width="3.3239" stroke-miterlimit="10" d="M283.3,124.6c4.3-6.1,1.4-13.2,0.9-14.4
		c-0.2-0.5-4.1-9.3-10.6-8.9c-5.9,0.4-8.8,8.3-9.3,9.5c-2.1,5.9,2.1,17.6,9.9,16.8C279.6,127.1,280,129.3,283.3,124.6z"/>
	<path fill="#27AAE1" stroke="#000000" stroke-width="3.3239" stroke-miterlimit="10" d="M274.1,127.2c3.6-0.4,4.9-1,4.9-5.2
		c0-1.9-1.2-6.9-4.8-6.8c-3.5,0.1-4.7,1.4-4.8,6C269.4,124.5,270.6,127.6,274.1,127.2z"/>
</g>
<path fill="none" stroke="#000000" stroke-width="3.3239" stroke-miterlimit="10" d="M226.5,81.9c-5.3-1.5-15.7,0.5-23.2,9.8"/>
<path fill="none" stroke="#000000" stroke-width="3.3239" stroke-miterlimit="10" d="M286.7,89c-0.2-5-10.9-8.7-24-8.2"/>
<line fill="none" stroke="#000000" stroke-width="3.3239" stroke-miterlimit="10" x1="221" y1="96.6" x2="221" y2="96.6"/>
<g>
	<path fill="none" stroke="#C49A6C" stroke-width="3.3239" stroke-miterlimit="10" d="M254.5,149c-0.5-0.5-4-3.4-8.6-2.7
		c-4,0.7-8.3,4.1-8.3,8.5c0.1,3.3,2.5,6,5,7.2c3.1,1.6,7,1.1,10-1.1"/>
</g>
<path fill="none" stroke="#BE1E2D" stroke-width="3.3239" stroke-miterlimit="10" d="M296.9,166.5c-1.5-2.2-5.8-4.3-5.8-4.3
	s-3.4,4.9-5.8,8.2c-7.9,11-19.9,14.5-24,15.4c-6.5,1.5-11.7,1.2-16.7,0.8c-3.8-0.3-10-0.2-16.8-3.4c-3.7-1.7-7.4-3.5-13-7.1
	c-6-3.9-6.9-5.4-6.9-5.4c-4.1-3.7-5.2-4.5-5.2-4.5s-2,2.5-2.6,4.1"/>
<path fill="#3C2415" stroke="#603913" stroke-width="3.3239" stroke-miterlimit="10" d="M323.4,97.9c1.3-5,2.7-8.7,3.2-17
	c0.3-6.1,0.7-13.7-1.5-23.5c-1.9-8.6-3.6-16.1-10-22.9c-4.7-5-10.3-7.8-12.8-9.1c-3.3-1.7-6-2.6-11.5-4.4c-5-1.7-8.6-2.5-8.1-1.8
	c1.3,1.7,9.6,10.1,10.9,23.7c0.3,2.8,0.8,8.6-2.5,13.5c-3,4.4-7.6,5.6-7.2,7.4c0.5,2.1,7.1,0.2,12.3,4c1.7,1.2,2.5,2.6,6.4,12.9
	c4.5,12.2,4.4,13.4,7.2,19.4c1.4,3,4.5,9.4,4.5,9.4v0C314.3,109.5,320.8,107.5,323.4,97.9z"/>
<path fill="#3C2415" stroke="#603913" stroke-width="3.3239" stroke-miterlimit="10" d="M266.9,8.7c-4.2-1.9-11.2-4.5-21.6-5.8
	c-8.4-1.1-20.8-2.7-35.4,1.5c-6.5,1.9-27.9,8-37.5,26.2c-6.8,12.9-3.7,16.3-6,34.7c-0.5,4.3-17.3,9.8-10.7,36.4
	c0.8,3.1,2.5,6,3.5,7.9c3.4,6.1,10.5,16.2,13.9,15c3.2-1.2-1.1-10.9,3-25.4c1-3.5,3.6-12.3,11.2-20c6.2-6.3,12.8-8.9,16.6-10.4
	c7.3-2.8,10.1-2.2,31.1-3.7c25.4-1.9,24.6-2.7,30.3-1.9c7,1,8.8,1,15.2,0.7c5.3-0.2,9.5-6,10.4-7.8c4.8-9.7,0.8-20.1-0.8-24.4
	c-1.3-3.3-4-9-9.4-14.3C276.1,12.9,271.4,10.7,266.9,8.7z"/>
<path fill="#FFF200" stroke="#000000" stroke-width="3.3239" stroke-miterlimit="10" d="M264.8,216.7c-0.2-0.2,0,0.9-2.8-0.4
	c-2.3-1.1-2-0.9-2-0.9s0.2,3.5-0.7,6.3c-1.3,4-6.6,5.8-8.5,6.1c-2,0.3-9.8,0.7-12.3-2.7c-2.1-2.7-2.1-9-2.1-9l-7,0.2
	c0,0,1.9,9.7,4.9,13c3.8,4,8.1,4.4,11.2,4.6c2.9,0.2,9.5,0.7,14.6-3.7C264.7,226.4,266.6,218.5,264.8,216.7z"/>
<use xlink:href="#Brown_Hair_4"  width="22.7" height="15.4" x="-11.3" y="-7.7" transform="matrix(-4.8784 -0.7904 0.4881 -3.0125 230.3702 48.3859)" overflow="visible"/>
<use xlink:href="#Brown_Hair_4"  width="22.7" height="15.4" x="-11.3" y="-7.7" transform="matrix(-4.5089 -0.7306 0.4482 -2.7664 224.8022 31.0445)" overflow="visible"/>
<use xlink:href="#Brown_Hair_1"  width="16.2" height="6.8" x="-8.1" y="-3.4" transform="matrix(-1.1233 -2.2209 2.3079 -1.1673 312.8091 52.673)" overflow="visible"/>
<use xlink:href="#Brown_Hair_1"  width="16.2" height="6.8" x="-8.1" y="-3.4" transform="matrix(-1.1022 -2.1159 2.0963 -1.092 313.713 73.2277)" overflow="visible"/>
<g>
	<path fill="#2E3192" stroke="#000000" stroke-width="3.3239" stroke-miterlimit="10" d="M73.1,185.2c-13.9-7.7-9.4-51.7-31.3-53.6
		c-12.2-1-14.4-4-14.3-4.6c0.1-0.5,14.2,0,13.8-4.6c-0.4-4.3-15.3-3.8-15.4-3.2c0,0.6,15-1.2,14.6-5.5c-0.3-3.7-16.5-1-16.5-1.1
		c0-0.1,15.8-3.7,15.6-5.6c-0.3-3-16.6-2-16.6-2.2c0-0.2,15.6-0.4,15.9-2.4c0.5-3.8-17.1-6.7-16.5-6.7c0.3,0,11.4,4.3,13.7,1.2
		c2.2-2.9-3.5-9.8-2.8-14c0.4-2.3,5.4-3.8,7.1-1.4c2.3,3.3,4.2,8.2,4.4,10.6c0.4,5.3,1.9,10.8,18.8,30.9
		c29.2,34.9,42.2,41,39.9,50.2C101.1,183,82.8,190.6,73.1,185.2z"/>
	<path fill="none" stroke="#000000" stroke-width="3.3239" stroke-miterlimit="10" d="M22.4,95.8c0.1,3.2,0.3,6.3,0.5,9.1
		c0.2,2.9,0.5,5.5,0.8,8c0.3,2.5,0.6,4.8,1,6.7c0.8,4.7,1.8,7.5,2.7,7.5"/>
	<g>
		<g>
			<path d="M23.4,98.4c0,2-0.4,4.9,2,5c1.2,0.1,1.7-0.1,2.8,0.1c0.9,0.2,1.8,0.3,2.7,0.3c1.8-0.1,3.5-0.6,5.2-1.2
				c0.8-0.3,0.8-1.4,0-1.6c-2.1-0.6-4.2-1.5-6.2-2.2c-1.4-0.5-3.2-1.3-4.7-1.1c-0.3,0-0.5,0.3-0.6,0.6c-0.3,1.2-0.5,3.1,1,3.4
				c0.7,0.1,1.4,0,2.1,0.2c0.7,0.2,1.3,0.5,2,0.7c1.1,0.3,2,0.4,3.1,0.3c0.9-0.1,0.7-1.4,0-1.6c-2.3-0.8-4.5-1.7-6.9-1.9
				c-1.1-0.1-1.1,1.6,0,1.7c2.2,0.2,4.3,1.1,6.4,1.9c0-0.5,0-1.1,0-1.6c-1.8,0.3-3.2-0.8-4.9-1.1c-0.4-0.1-1,0.1-1.2-0.1
				c-0.6-0.4,0-0.4,0.5-0.4c1.2-0.1,3.1,1,4.3,1.4c1.6,0.6,3.1,1.2,4.7,1.7c0-0.5,0-1.1,0-1.6c-1.3,0.5-2.6,0.9-4,1
				c-1.7,0.2-3-0.3-4.6-0.5c-0.7-0.1-1.4,0.2-1.9,0.2c-0.5,0,0.3,0.1,0.2,0.1c-0.3-0.4-0.2-2.7-0.2-3.4
				C25.1,97.4,23.4,97.4,23.4,98.4L23.4,98.4z"/>
		</g>
	</g>
	<g>
		<g>
			<path d="M24,107c0.2,1.4,0.3,2.9,0.5,4.3c0.1,0.7,1.2,1.3,1.5,0.4c0.7-1.5,3.8-1.5,5.1-1.9c1.7-0.4,3.3-1,4.9-1.5
				c0.6-0.2,0.8-0.9,0.4-1.4c-1.6-1.6-3.8-1.2-5.8-1.1c-1.3,0.1-5.1-0.5-5.6,1.2c-0.3,1.1,0.5,2.5,1.6,2.5c1.3,0,2.7-0.5,4-0.5
				c1.4,0,2.7-0.1,4.1-0.5c1-0.3,0.6-1.9-0.4-1.6c-1.6,0.5-3.1,0.4-4.7,0.4c-0.8,0-2.6,0.4-2.9,0.4c2.3,0,6.9-1.5,8.6,0.4
				c0.1-0.5,0.2-0.9,0.4-1.4c-2.4,0.8-4.7,1.6-7.2,2.1c-1.6,0.3-3.1,0.5-3.8,2.2c0.5,0.1,1,0.3,1.5,0.4c-0.2-1.4-0.3-2.9-0.5-4.3
				C25.5,105.9,23.9,105.9,24,107L24,107z"/>
		</g>
	</g>
	<g>
		<g>
			<path d="M29.1,108.1c0.8,0,1.7-0.2,2.5-0.1c0.6,0.1,1,0.5,1.5,0.7c1.1,0.3,3.4,0.1,4.4-0.3c0.4-0.1,0.6-0.4,0.6-0.8
				c0,0,0-0.1,0-0.1c0-0.3-0.2-0.6-0.4-0.7c0,0-0.1,0-0.1-0.1c-0.9-0.5-1.8,0.9-0.8,1.4c0,0,0.1,0,0.1,0.1c-0.1-0.2-0.3-0.5-0.4-0.7
				c0,0,0,0.1,0,0.1c0.2-0.3,0.4-0.5,0.6-0.8c-0.7,0.3-1.7,0.2-2.4,0.3c-0.9,0.1-1.1,0-1.8-0.4c-1.1-0.5-2.6-0.2-3.8-0.1
				C28,106.5,28,108.2,29.1,108.1L29.1,108.1z"/>
		</g>
	</g>
	<g>
		<g>
			<path d="M25.4,110.3c0.4,0,0.8,0,1.2,0c1.1,0,1.1-1.7,0-1.7c-0.4,0-0.8,0-1.2,0C24.3,108.7,24.3,110.3,25.4,110.3L25.4,110.3z"/>
		</g>
	</g>
	<g>
		<g>
			<path d="M25.2,115.3c4.5-0.2,9.1-0.4,13.6-0.6c-0.1-0.5-0.1-1.1-0.2-1.6c-2.8,0.9-5.5,1.8-8.3,2.7c-0.7,0.2-1.4,0.4-2,0.7
				c-0.3,0.1-0.6,0.2-0.8,0.4c-0.3,0.4-0.4,0.3-0.4-0.2c0-0.3-0.1-0.5-0.3-0.5c-0.4-0.2-0.3-0.2,0.3-0.1c0.5-0.2,2.1,0,2.6,0
				c1.1-0.1,2.2-0.2,3.3-0.3c0.4-0.1,2.6-0.5,2.7-0.4c-0.2-0.3-1.5-0.1-1.9-0.1c-0.8,0.1-1.5,0.4-2.2,0.7c-0.5,0.2-1.1,0.6-1.6,0.8
				c-0.5,0.4-1,0.4-1.6-0.1c-0.8,0-1.1-0.2-1-0.8c0.2,0.5,0.4,0.9,0.6,1.4c0.1-0.1,0.3-0.1,0.4-0.2c1.1-0.1,1.1-1.8,0-1.7
				c-0.8,0.1-1,0.2-1.6,0.7c-0.6,0.5,0,1.4,0.6,1.4c1.6,0.2,2.1-1.9,0.7-2.7c-1.6-0.9-2.6,0.6-2.3,2c0.4,2.5,2.8,2.2,4.7,1.4
				c0.7-0.3,1.4-0.7,2.2-1c1-0.4,2-0.2,3-0.5c0.7-0.2,1.6-0.5,2-1.3c0.9-2.2-2-1.8-3.2-1.7c-2.3,0.3-4.6,0.6-6.9,0.6
				c-0.8,0-1.8-0.2-2.3,0.6c-0.6,1,0.2,3.3,1.4,3.6c1.3,0.3,4.4-1.3,5.6-1.7c2.3-0.8,4.5-1.5,6.8-2.3c0.9-0.3,0.8-1.7-0.2-1.6
				c-4.5,0.2-9.1,0.4-13.6,0.6C24.2,113.7,24.2,115.3,25.2,115.3L25.2,115.3z"/>
		</g>
	</g>
	<g>
		<g>
			<path d="M26.2,122.2c2.4-0.2,4.9-0.4,7.3-0.2c1.1,0.1,2.2,0.2,3.2,0.3c1.6,0.6,2,0.5,1.3-0.1c-0.7,0.4-1.4,0.7-2.2,1
				c-1.7,0.7-4.8,1.9-6.5,1.4c-1.1-0.2-1.4-0.7-0.8-1.5c0.3,0,0.5,0,0.8,0c0.7-0.3,1.9-0.3,2.6-0.5c0.8-0.2,3.7-0.9,2.2,0.4
				c-0.5,0.4-2.7,0.7-3.3,0.7c-1.9,0.1-0.7-0.1,0.2-0.2c0.9-0.2,1.8-0.4,2.7-0.6c0.9,0,1.8-0.2,2.6-0.6c-0.6,0.1-1.2,0.2-1.8,0.3
				c-0.9,0.2-1.8,0.4-2.7,0.7c-0.6,0.2-1.2,0.4-1.7,0.6c0.1,0.7,0.5,0.8,1.1,0.3c1,0,2.2-0.6,3.2-0.8c1.1-0.2,0.6-1.8-0.4-1.6
				c-1.5,0.3-7.3,1.1-5,3.8c0.2,0.2,0.6,0.3,0.8,0.2c2-0.8,4.1-1.4,6.2-1.8c0.9-0.2,1.9-0.2,2-1.2c0.4-2.4-3.5-1.8-4.7-1.5
				c-1.4,0.3-6.4,0.3-6,2.9c0.4,2.9,5.6,0.9,7,0.5c1.3-0.3,4.5-1.5,2.9-3.3c-0.8-1-2.6-0.9-3.6-0.8c-0.7,0.1-1.4,0.3-2,0.4
				c-1.2,0.3-2.5,0.2-3.7,0.4c-1.8,0.4-1.6,2.8-0.7,4.1c1.5,2,6.6,0.2,8.4-0.4c1-0.4,6.3-2.1,3.9-3.9c-1-0.8-3.8-0.7-5-0.7
				c-2.8-0.2-5.5,0-8.2,0.2C25.1,120.6,25.1,122.3,26.2,122.2L26.2,122.2z"/>
		</g>
	</g>
</g>
<g>
	<path fill="#2E3192" stroke="#000000" stroke-width="3.3239" stroke-miterlimit="10" d="M416.3,185.8c12.8-9.3,3.1-52.5,24.6-56.9
		c12-2.5,13.8-5.7,13.7-6.3c-0.1-0.5-14.1,1.7-14.3-2.9c-0.1-4.3,14.8-5.6,14.9-5c0.1,0.6-15,0.6-15.2-3.7c-0.1-3.7,16.2-3,16.2-3.1
		c0-0.1-16.1-1.8-16.2-3.7c-0.1-3,16.3-4,16.2-4.2c0-0.2-15.6,1.5-16.1-0.5c-1-3.7,16.1-8.7,15.6-8.7c-0.3,0.1-10.8,5.6-13.4,2.8
		c-2.5-2.6,2.3-10.2,1.1-14.2c-0.7-2.3-5.8-3.2-7.2-0.6c-1.9,3.5-3.2,8.6-3.1,11c0.3,5.3-0.6,10.9-14.9,32.9
		c-24.8,38.2-36.9,45.8-33.6,54.6C388.3,187,407.3,192.3,416.3,185.8z"/>
	<path fill="none" stroke="#000000" stroke-width="3.3239" stroke-miterlimit="10" d="M455.8,91.1c0.3,3.3,0.4,3.8,0.5,6.9
		c0.1,3,0.5,9.2,0.5,11.8c0,2.6-0.3,1.6-0.4,3.6c-0.3,5-0.9,8-1.8,8.1"/>
	<g>
		<g>
			<path d="M453.9,94c0.1,0.6-0.1,1.8,0.2,2.3c-0.1,0.5,0.1,0.7,0.6,0.4c0.7,0,0.8,0,0.2-0.1c-1-0.3-2.1,0-3.1,0.3
				c-3.2,1-6,1.1-9.3,0.5c0,1.1,0,2.1,0,3.2c1.8-0.7,3.6-1.5,5.4-2.3c1.7-0.7,4.5-2.4,6.4-2.4c-0.5-0.3-1-0.5-1.4-0.8
				c0,0.4,0.1,0.9,0.1,1.3c0.3-0.5,0.5-1,0.8-1.4c-0.2,0.1-2.4,0.4-3.1,0.7c-1.6,0.6-2.9,1.4-4.7,1.4c0,1.1,0,2.2,0,3.3
				c0.5-0.1,1.7,1.4,2.2,1.7c0.8,0.3,1.5,0.4,2.3,0c1.8-0.8,2.1-4,3.8-4.6c2-0.7,1.1-3.9-0.9-3.2c-1.9,0.7-2.5,2.3-3.6,3.8
				c-0.8,1.1-0.5,0.5-1.5-0.3c-0.7-0.5-1.3-0.8-2.2-0.8c-2.1,0.2-2.2,3.3,0,3.3c1.6,0,2.9-0.4,4.4-1c0.8-0.3,1.5-0.7,2.3-0.9
				c0.4-0.1,1.5-0.1,2-0.3c2-0.8,1.7-3.1,0.9-4.8c-0.2-0.5-0.9-0.8-1.4-0.8c-2,0-4.1,1.2-5.9,1.9c-2.3,0.9-4.5,2-6.8,2.9
				c-1.4,0.5-1.8,2.9,0,3.2c2,0.3,4,0.7,6,0.6c2.2-0.1,4.1-1.1,6.2-1.3c1.2-0.1,2.3,0.4,3.2-0.8c1-1.3,0.5-3.6,0.3-5.1
				C457,91.9,453.7,91.9,453.9,94L453.9,94z"/>
		</g>
	</g>
	<g>
		<g>
			<path d="M454.2,101.1c0,1.6,0,3.1,0,4.7c1-0.3,2.1-0.6,3.1-0.8c-1.2-1.7-2.8-2.1-4.9-2.2c-3.2-0.2-6.3-0.6-9.4-1.2
				c0.2,0.9,0.5,1.9,0.7,2.8c1.2-1.3,3.4-1.1,5.1-1.2c1.1-0.1,4.5-0.7,5-0.3c-0.3-0.5-0.5-1-0.8-1.4c0.1,1.6,0.2,3.3,0.1,4.9
				c1.1-0.1,2.2-0.3,3.3-0.4c-0.1-0.6-0.1-2.6-0.6-3.6c-0.3-0.5-0.9-0.9-1.4-0.8c-1.5,0.1-2.9-0.1-4.4,0c-1.7,0.2-3.4,0.5-5.1,0.2
				c-2.1-0.3-3,2.9-0.9,3.2c1.8,0.3,3.4,0.2,5.2,0c1.8-0.2,3.5,0,5.3-0.1c-0.5-0.3-1-0.5-1.4-0.8c0.2,0.3,0.1,2.1,0.3,2.9
				c0.4,1.9,3.2,1.4,3.3-0.4c0.1-1.9,0.6-6-1.7-6.7c-1-0.3-2.4,0-3.4,0.1c-1.5,0.1-3.1,0.2-4.6,0.3c-2,0.2-4,0.4-5.4,2
				c-0.7,0.9-0.6,2.5,0.7,2.8c2,0.4,4,0.7,6.1,1c1.4,0.2,5.4-0.3,6.2,0.9c0.9,1.3,3.1,0.9,3.1-0.8c0-1.6,0-3.1,0-4.7
				C457.5,99,454.2,99,454.2,101.1L454.2,101.1z"/>
		</g>
	</g>
	<g>
		<g>
			<path d="M451.7,101.1c-1.1,0.1-2.5,0-3.6,0.4c-0.7,0.3-1.1,0.7-1.9,0.8c-0.7,0.1-1.8,0.2-2.4,0.1c0.2,0.2,0.4,0.4,0.6,0.6
				c0,0,0-0.1,0-0.1c-0.1,0.3-0.3,0.6-0.4,0.9c0,0,0.1,0,0.1-0.1c0.8-0.6,0-2.1-0.8-1.4c0,0-0.1,0-0.1,0.1c-0.3,0.2-0.5,0.5-0.4,0.9
				c0,0,0,0.1,0,0.1c0.1,0.3,0.3,0.5,0.6,0.6c1.2,0.3,3.2,0.2,4.4-0.1c0.5-0.1,0.7-0.6,1.2-0.8c0.8-0.4,2-0.2,2.9-0.3
				C452.7,102.7,452.7,101,451.7,101.1L451.7,101.1z"/>
		</g>
	</g>
	<g>
		<g>
			<path d="M455.6,102.8c-0.4,0-0.8,0.1-1.1,0.1c-1.1,0.1-1.1,1.7,0,1.7c0.4,0,0.8-0.1,1.1-0.1C456.6,104.4,456.6,102.7,455.6,102.8
				L455.6,102.8z"/>
		</g>
	</g>
	<g>
		<g>
			<path d="M456.3,106.9c-5,0.4-9.9,0.8-14.9,1.2c-1.7,0.1-2.4,2.9-0.4,3.3c2.6,0.5,5.1,0.9,7.7,1.4c2.1,0.4,4.4,1.1,6.5,1
				c0.6,0,1.2-0.3,1.4-0.8c0.7-1.4,1.3-3.9-0.4-4.8c-1.2-0.6-2.9,0-4.1,0.1c-2.1,0.2-4.1,0.1-6.2,0.1c-1.6,0-4.4-0.1-4.2,2.4
				c0.3,2.9,4.2,2.2,6,2.4c2.4,0.3,5.5,2.2,7.8,0.4c1.2-1,1.6-3.7,0.3-4.8c-1.3-1.1-3.8-0.3-4.2,1.4c-0.5,1.8,1.3,2.9,2.9,2.6
				c1.4-0.3,1.6-2.3,0.4-3c-0.7-0.4-1.2-0.5-2-0.5c-2.1,0.1-2.1,3.4,0,3.3c0.1,0,0.2,0,0.3,0.1c0.1-1,0.3-2,0.4-3
				c0.4,0.2,0.8,0.4,1.2,0.6c-0.1,0.5-0.3,1.1-0.4,1.6c0.6-0.7-9.7-2.2-9.6-2c0,0.6,0,1.1,0,1.7c-0.4,1,9.5-0.5,10-0.2
				c-0.3-0.5-0.5-1-0.8-1.4c0,0.5,0,1.1-0.2,1.5c0.5-0.3,1-0.5,1.4-0.8c-2.2,0.1-4.6-0.7-6.7-1.1c-2.2-0.4-4.4-0.8-6.5-1.2
				c-0.1,1.1-0.3,2.2-0.4,3.3c5-0.4,9.9-0.8,14.9-1.2C458.5,110.1,458.5,106.7,456.3,106.9L456.3,106.9z"/>
		</g>
	</g>
	<g>
		<g>
			<path d="M455.9,113.4c-4.3,0.1-10.1,0.2-14,2.5c-2.6,1.6-0.9,4.1,1.1,5.2c3.2,1.7,7.5,3,11.1,2.3c3.1-0.6,3.1-4.8,2.2-7.2
				c-0.3-0.8-0.8-1.1-1.6-1.2c-2.3-0.3-3.3,3-3.7,4.7c-0.1,0.3-0.2,0.6-0.4,0.9c1.1-0.1,1.3-0.3,0.7-0.7c-0.1-0.4-1.1-1.3-1.4-1.6
				c-0.7-0.9-1.4-1.9-2.3-2.6c-1.9-1.3-4.6-0.1-4.5,2.5c0.3,3.8,6.2,4,8.9,4.3c2.9,0.3,4.7-1.8,3.6-4.6c-0.3-0.8-1-2.4-1.7-3
				c-0.9-0.8-1.6-0.3-2.7,0c-2.3,0.7-8.3-0.5-8.4,3.4c0,1.3,0.6,2.2,1.9,2.5c1.3,0.4,2.7,0.3,4,0.6c1.3,0.3,2.6,0.8,3.9,1.3
				c0.7,0.3,1.5-0.2,1.9-0.8c2.7-4.1-4.4-5.3-6.8-5.6c-2.1-0.3-2.1,3.1,0,3.3c0.9,0.1,1.8,0.3,2.6,0.6c0.8,0.2,1,0.5,1.3,0
				c0.6-0.3,1.3-0.5,1.9-0.8c-1.4-0.6-2.9-1.1-4.4-1.4c-1.3-0.3-2.7-0.3-3.9-0.6c0.4,0.4,0.8,0.8,1.2,1.2c0.1,0.3,3.9-0.1,4.3-0.1
				c0.6-0.1,1.3-0.3,1.8-0.6c0.8-0.4,1.2,0-0.2-0.3c-0.4-0.4-0.8-0.8-1.2-1.2c0.3,0.8,1.1,1.5,1.2,2.3c0.4,0.5,0.4,0.7-0.1,0.4
				c-0.4-0.2-0.8-0.2-1.3-0.3c-0.9-0.2-1.7-0.3-2.6-0.4c-0.6-0.1-1.2-0.2-1.7-0.2c-1.1-0.2-1.3-0.2-0.7,0.2c0,0.2,0.9,1,1,1.1
				c0.7,0.8,1.3,1.8,2.1,2.5c1.1,1.1,2.7,1.9,4.1,0.7c0.5-0.5,0.8-1.3,1.1-2c0.2-0.5,0.4-1,0.5-1.5c0.1-0.3,0.2-0.5,0.3-0.8
				c0.4-0.5,0.3-0.6-0.2-0.2c-0.5-0.4-1.1-0.8-1.6-1.2c0.3,0.7,0.5,2.9,0.2,3.2c-0.1,0.1-1.8-0.1-2.2-0.1c-2.5-0.2-4.1-1.3-6.4-1.9
				c-0.8-0.7-1-0.7-0.7,0c0.1,0.6,0.4,0.7,1.1,0.1c0.9-0.1,2-0.6,2.9-0.8c2.6-0.6,5.2-0.7,7.9-0.8C458,116.7,458,113.4,455.9,113.4
				L455.9,113.4z"/>
		</g>
	</g>
</g>
<path fill="#27AAE1" stroke="#000000" stroke-width="3.3239" stroke-miterlimit="10" d="M152.9,243.2c0,0-2.5-1-11.2,5
	c-7.3,5.1-22.4,17.5-35.2,38.2c-12.1,19.5-10,27.4-25.3,48.5c-11.8,16.3-19.8,21-22.8,22.6c-12.3,6.6-26,7.7-32.8,7.8
	c-14.4,0.2-19.6-3.7-22.5-0.4c-5,5.8,3.9,25.9,18.1,38.1c7.2,6.2,17.6,10.8,38.3,20c10.9,4.9,9.9,3.9,13.1,5.7
	c19.2,10.9,17.4,23.3,32,32.6c12.6,8.1,14.2,9.8,39.6,8.8c14.8-0.6,24.1,9.5,26.5,5.8c0.5-0.8,1.3-0.9,3.4-5.6
	c2.6-5.7,3.9-9.7,6.4-15.5c2.2-5.1-4.9-23.5,0.3-48.2c2.3-11.1,5.3-22.5,9-31.6c5.7-13.8,1.4-3.5,5.7-13.8
	c3.3-7.8,6.9-33.9,9.2-39.4c6.1-14.7-11.6-42.1-15.3-47.2c-1.2-1.7-16.1-12.2-26.9-22.6C158.4,248.2,154.2,244.7,152.9,243.2z"/>
</svg>
