<?xml version="1.0" encoding="utf-8"?>
<!-- Generator: Adobe Illustrator 18.1.0, SVG Export Plug-In . SVG Version: 6.00 Build 0)  -->
<!DOCTYPE svg PUBLIC "-//W3C//DTD SVG 1.1//EN" "http://www.w3.org/Graphics/SVG/1.1/DTD/svg11.dtd">
<svg version="1.1" id="Layer_1" xmlns="http://www.w3.org/2000/svg" xmlns:xlink="http://www.w3.org/1999/xlink" x="0px" y="0px"
	 viewBox="0 0 600 600" enable-background="new 0 0 600 600" xml:space="preserve">
<symbol  id="Brown_Hair_1" viewBox="-8.1 -3.4 16.2 6.8">
	<g>
		<path fill="#7E5629" d="M-8.1,2.5c0,0,10.4-0.9,16.2-5.9C3.6,2-5.5,4.9-8.1,2.5z"/>
	</g>
</symbol>
<symbol  id="Brown_Hair_4" viewBox="-11.3 -7.7 22.6 15.3">
	<path fill="#7E5629" d="M-11.3,6.9c0,0,5.6,2.6,10.6-1.9c5-4.6,5.8-10.2,12-12.7C4.7-6.6,2.2,0.8-1,3.9C-6.1,8.8-10.8,6.9-11.3,6.9
		z"/>
</symbol>
<g>
	<path fill="#006838" stroke="#000000" stroke-width="3.342" stroke-miterlimit="10" d="M314.3,212.8c3.7-3.1,9.2-2.1,17.8-0.6
		c4.1,0.7,9.5,1.8,16.3,5.1c10.1,4.9,15.2,10.7,24.5,17.6c13.1,9.5,23.1,20.7,36.1,30c0.2,0.1,10.9,5.3,22.7,14.3
		c3.4,2.5,6.9,5.5,8.1,10.3c1.4,5.3-0.3,11.9-3.5,12.9c-2.1,0.6-3.2-1.7-9.6-5.3c-4.4-2.4-8-4.4-12.4-4.1c-4.5,0.4-4.8,2.8-8.2,3.1
		c-6.4,0.5-15.1-8.8-20-11.9c-4.5-2.9-10.3-5.5-17.5-11.9c-3.6-3.2-5.3-4.1-6.8-5.4c-3.1-2.5-8.5-5.5-14,3.9
		c-3.6,6.1-1.6,19-1.5,26.2c0.1,4.8,0.1,17.1,2.9,26c0,0,0.4,1.9,2.8,9.3l1.7,5.6c-0.8,2.1-7.5-0.1-17.8,0.6
		c-10.4,0.7-11.6,2.8-16.7,1.7c-5.7-1.2-6.2-3.6-12.8-5.9c-5.6-1.9-12.5-1.3-14.4-0.7c-5.6,1.7-6.3,3.3-12.6,5.7
		c-1.8,0.7-0.8-0.1-5.9,0.8c-8.4,1.5-13.8,1.7-18.9,1.2c-4.7-0.5-5.4-1.2-5.7-1.5c-2.5-3,0.2-7.9,2.2-17.8
		c0.6-3.2,2.5-10.5-0.2-19.4c-1-3.5-1.3-8.9-6.2-17.3c-5.8-9.9-7.7-12.6-10.7-15.7c-2-2.1,0,0-8.6-7.9c-8.4-7.8-7.8-6.7-12.4-11.5
		c-4-4.2-15.2-15.4-17.6-19.1c-1.8-2.9-26.8-40.1-31.8-45.3c-2.8-2.9-19.4-30.5-20.2-31.6c-3.2-4.3,12.6-4.5,17-6.4
		c1.4-0.7,8.5-15.2,9.4-13.9c4.7,6.9,11.7,21.1,19.3,31.9c6.5,9.1,5.1,5.8,13.7,18.6c7.6,11.4,18.4,21.8,21.9,25.2
		c9.8,9.2,14.9,13.7,23.8,9.5c3.6-1.7,7.6-3,16-5c10-2.4,11.7-1.7,12.8-1c3.7,2.6,0.9,7.5,4.9,12.1c4,4.7,11,4.6,13.5,4.6
		c2.7,0,8.1-0.1,12.1-3.8C312.8,221.3,310.1,216.3,314.3,212.8z"/>
	<polygon fill="#FFDE17" stroke="#000000" stroke-width="3.342" stroke-miterlimit="10" points="311.4,247.2 333.2,268.2 313,299.5 
		270.3,301 248.1,271.6 269.1,248.7 	"/>
	<polygon fill="#FFFFFF" stroke="#000000" stroke-width="3.342" stroke-miterlimit="10" points="317.6,268.7 304.9,288.7 
		279.6,289.5 263.6,270.5 270.6,260.9 309,259.6 	"/>
	<path fill="#2E3192" stroke="#000000" stroke-width="3.342" stroke-miterlimit="10" d="M433.4,303.3c1.1,3.7-3.2,10.3-11.1,18.8
		c-17.1,18.2-19.4,15.9-26.4,25.4c-6.7,9.2-7.9,16.1-17.6,23.4c-4.2,3.2-7.1,4.4-9.9,3.7c-5.5-1.4-7.5-9.4-8.8-14.2
		c-1.4-5.5-3.2-12.1,0.5-17.3c2.9-4,7.5-5.1,10.9-6c7.5-1.9,9.5,0.8,13.4-0.5c11.3-3.8,5.2-32.6,18.8-39.6
		c5.6-2.9,11.8-2.6,14.9-1.9C421.3,295.9,431.9,298.1,433.4,303.3z"/>
	<path fill="#FFDE17" stroke="#000000" stroke-width="3.342" stroke-miterlimit="10" d="M352.8,341.1c1.3,4.1,2.5,8,3.8,12.1
		l-36.1,1.2l-4.4-13.2L352.8,341.1z"/>
	<polygon fill="#FFDE17" stroke="#000000" stroke-width="3.342" stroke-miterlimit="10" points="275.5,343.3 276,358.1 243.2,357 
		246.6,343.6 	"/>
	<path fill="#ED1C24" stroke="#000000" stroke-width="3.342" stroke-miterlimit="10" d="M315.1,343.5c0.5,0.8,4.5,7.6,1.6,14.4
		c-3.8,8.7-15.8,9.4-18.1,9.5c-2.7,0.1-15.7,0.4-20.9-9.3c-0.2-0.4-4.2-7.9-0.5-15c5.1-10,19.7-8.6,21.4-8.5
		C301.3,334.8,310.5,335.7,315.1,343.5z"/>
	<path fill="#FFFFFF" stroke="#000000" stroke-width="3.342" stroke-miterlimit="10" d="M306.3,345.9c2.2,3.1,2,7.6-0.2,10.6
		c-3.6,4.7-11.4,4-15.6,0.5c-2.3-1.9-5-5.9-3.7-9.3c1.3-3.5,5.7-4.4,7.6-4.7C296.2,342.7,302.9,341.4,306.3,345.9z"/>
	<path fill="#006838" stroke="#000000" stroke-width="3.342" stroke-miterlimit="10" d="M356.7,355.5c0,0,3.7,9.3,7,19.8
		c0.6,1.8,2.9,9.7,4.4,14.3c9.1,28.3,8,57.2,11.2,59.8c4.3,3.7,4.9,6.5,6.3,11.9c1.6,6.5,1.8,10.1,2.2,16.1c0.2,3.1,1.7,5.3,1.4,7.1
		c-0.5,2.9-5.1,4.3-8.1,5.3c-1.8,0.6-9.2,1.9-15.1,1.8c-6.4-0.2-14.1-2.9-14.1-2.9l-0.1-2.2c0,0-0.9-7.5-2.4-11.2
		c-4.3-11-9.7-18.2-17.2-26.2c-23.2-25-25-38.7-30.1-40.3c0,0-8.7,14-32.7,45.1c-7.2,9.4-13.1,15.9-13.1,25.5c0,5.7,2.1,11-1.2,14.5
		c-0.7,0.8-2.1,1.8-10.5,2.6c-15.2,1.4-19.8-1.2-21.2-2.1c-1.6-0.9-4.4-2.8-4.7-5.5c-0.2-2.5-0.7-4.6-0.3-7.7
		c1-7.6,0.4-9.7,4.2-16.7c1.7-3.1,2.8-7.1,4.3-10.8c3.3-7.8-1.3-29.5,2.6-50.3c2.1-11.5-0.2-20.6,3.3-24.4
		c6.2-6.4,10.2-20.1,10.2-20.1s29.6-2.3,32.7-0.2c8.4,5.6,7.3,8.8,22.6,8.3c13.2-0.5,18.1-9.5,21.6-10.6
		C331.9,353,356.7,355.5,356.7,355.5z"/>
	<path stroke="#000000" stroke-width="3.342" stroke-miterlimit="10" d="M393.7,496.7c-0.3-5.4-0.1-9.8-2.6-11
		c-1.4-0.7-2.7,0.1-6.1,1.3c-4,1.4-8.1,2.9-12.1,3.2c-6.6,0.4-19.1-0.6-20,0.7c-3.5,4.4,4.6,16.6,10.3,25.3
		c8.4,12.7,10.9,12.7,12.3,19.1c1.3,5.8-0.5,7,0.7,20c0.8,9.4,2.1,12,2.7,13.3c1.1,2.2,2.9,4.8,11.5,11.3c8.8,6.6,13.2,10,17.1,11.1
		c1.1,0.3,13.9,3.7,22.7-3.6c1.5-1.2,4.1-3.4,4.8-6.8c0.3-1.4,0.8-5.6-6.6-14.3c-7.5-8.9-12.2-9.3-21.8-19.3
		c-3.7-3.9-5.6-5.9-6.9-8.6c-3.2-6.4-1.1-9.4-2.4-22.2C396,504.7,394.3,506.7,393.7,496.7z"/>
	<path stroke="#000000" stroke-width="3.342" stroke-miterlimit="10" d="M250.5,510.4c2.7-5.6,7.3-15.3,4.4-18
		c-1.5-1.3-3.6,0.1-10.5,1.5c-7.5,1.4-15.6,3-21.2-1c-3.6-2.5-3.7-5.6-5.2-5.4c-4.3,0.5-5,23.7-5.2,28.6c-0.7,20.1,2,21.3-0.7,28.4
		c-2,5.2-3.7,5.4-20.3,23.5c-12,13-14.7,16.9-13.8,21c1.4,6.1,9.4,8.9,11.4,9.6c9.6,3.4,18.5-1,19.9-1.8c5.2-2.7,4.5-4.6,15.1-14.4
		c7.8-7.2,8.5-6.5,9.7-9.2c2.4-5.3-0.1-8.7-0.2-22.2c0-4.4-0.1-6.4,0.3-8.9C236,530.2,242.7,526.6,250.5,510.4z"/>
	<path fill="#27AAE1" stroke="#000000" stroke-width="3.342" stroke-miterlimit="10" d="M202.3,238.6c0,0-2.8,3.4-11.4,9.3
		c-7.2,5.1-22.2,17.4-34.9,37.9c-12,19.3-9.9,27.2-25.1,48.1c-11.7,16.2-19.6,20.8-22.6,22.4c-12.2,6.5-25.8,7.6-32.5,7.7
		c-14.4,0.4-19.4-3.5-22.3-0.2c-5,5.8,3.9,25.7,18,37.8c7.1,6.2,17.5,10.7,38,19.8c10.8,4.9,9.8,3.9,13,5.7
		c19.1,10.8,17.3,23.1,31.8,32.3c12.5,8,14.1,9.7,39.3,8.7c14.7-0.6,23.9,9.4,26.3,5.8c0.5-0.8,1.3-0.9,3.4-5.6
		c2.6-5.7,3.9-9.6,6.4-15.4c2.2-5.1-4.9-23.3,0.3-47.8c2.3-11,5.3-22.3,8.9-31.4c5.7-13.7,1.4-3.5,5.7-13.7
		c3.3-7.7,6.8-33.6,9.1-39.1c6.1-14.6-11.5-41.8-15.2-46.8c-1.2-1.7-14.9-14.6-25.5-24.9C208.6,245.4,203.6,240.1,202.3,238.6z"/>
	<path fill="#27AAE1" stroke="#000000" stroke-width="3.342" stroke-miterlimit="10" d="M259.9,471.7c1.4,1.4,26.8-10.1,43.3-9.8
		c24.9,0.5,42.6,12,44.6,9c2.3-3.2-9.5-10.3-23.4-29.4c-6.5-8.9-19.3-32.6-22-32.5c-2.4,0-12.8,18.7-23.6,32.7
		C267.6,456.1,258.7,470.6,259.9,471.7z"/>
	<path fill="#27AAE1" stroke="#000000" stroke-width="3.342" stroke-miterlimit="10" d="M386.9,457.4c6.6,6.6,14.3-9.8,30.1-16.1
		c15.8-6.2,19.8,2.4,33.3-2.8c19.2-7.4,13.6-26,35.9-40.2c3.8-2.4,15.4-6.4,38.5-14.7c19.1-6.7,21.9-7.1,23-10.2
		c4-11.1-26.4-22.6-57.7-60.4c-18.1-21.7-16.3-28-34.3-44.6c-11.6-10.6-22-16.9-42.8-29.2c-16.6-9.8-28.4-15.5-42.4-19.1
		c-8.1-2.2-24.6-2.5-24.6-2.5s7.7,6.8,24,18.2c23.4,16.3,19.5,16.7,37.7,28.8c20.1,13.5,30,16.4,31.5,26.2c0.8,5.1-1.1,9.1-4,15.2
		c-4.7,10-9.6,12.4-23.6,27c-11.4,11.9-17.2,17.9-20.3,22.9c-4.3,6.7-6.5,12.4-13.4,16.1s-14.1-0.6-13.2,3.8
		c1.2,6.2,9.2,20.3,10.9,49.2c0.4,6.8,1.1,14.1,2.9,22.4C379.4,452,382.9,453.4,386.9,457.4z"/>
	<g>
		<path fill="#27AAE1" stroke="#000000" stroke-width="3.342" stroke-miterlimit="10" d="M353.6,264.8c5.8-4.5,11.7,6.3,27.4,16.3
			c11.6,7.3,20.2,9,20.2,12.8c0,2.6,0,2.6-3,7.5c-5.6,9.4-2.5,25.6-10.9,33.4c-5.9,5.4-15.4-1.7-23.2,4.8c-7,5.8-7.8,14.1-10.2,13.8
			c-2.1-0.2-2.7-7.2-3.6-13.2c-1.2-8.9-5-15-6.2-20.2c-2.1-8.9-1.9-16.4-1.4-19.3c0.4-2.7,0-15,2-22.9
			C347.1,268.5,351.3,266.7,353.6,264.8z"/>
	</g>
	<path fill="#E8B68A" stroke="#E8B68A" stroke-width="3.342" stroke-miterlimit="10" d="M285.1,219.3c0,0-1.5-16.6-2.9-26.3
		c0,0-8.3,4.6-30.8-3.2c-2.7-0.9-11.7-2.4-22.6-12.8c-5-4.8-6.1-11.4-7.2-15.9c-2.4-9.2,0.3-10.1,0.2-21.5c0,0,2.3-0.7-3.7-5.5
		c-0.8-0.6-4.6-0.4-5.5,0.1c-2,1.1-5.7,2.5-9.6,1.4c-6-1.6-8.3-7.4-9.7-10.9c-1.1-2.6-4.1-10.2-0.5-14c2.7-2.8,7.8-2.4,11.2-1.3
		c10.2,3.3,12.2,16,15.5,15.4c2.7-0.5-0.9-5.8,2.1-20.6c0.9-4.2,0.4-5.3,4.8-13.9c3-6.1,6.4-13.9,11.8-17.5
		c5.7-3.7,11.2-7.5,26.7-9.2c17-1.8,19.7-0.9,38.6-2.4c7.9-0.6,19.4-1,36.4,6.1c6.3,2.6,11.2,27.1,13.7,30.3
		c9.1,11.5,0.4,14.6,1.4,17.7c0,0.1,0.1,0.1,0.1,0.1c0.8,0.4,3.5-4,7.2-6.7c1.1-0.8,4.8-3.7,9.9-3.9c3.4-0.1,9.2,0.8,11.3,4.3
		c5.2,8.3-4.1,17-14.3,22.8c-10.6,6.1-5.6,31.4-9.9,40.2c-3.6,7.2-8.3,13-20.5,17.7c-14.7,5.7-28.5,7.2-34.6,4.3l0,0
		c-5.2,9.3-0.3,18.6-0.3,18.6c0.1,1.1,0.2,2.9,0.3,5.2c-1.3,1.1-3.7,2.7-6.9,3.7c-0.9,0.3-2,0.5-3.3,0.5
		C288.8,222.1,285.1,219.3,285.1,219.3z"/>
	<path fill="none" stroke="#C49A6C" stroke-width="3.342" stroke-miterlimit="10" d="M209.9,126.1c0.5-0.8-1.5-3.5-4.1-4.7
		c-3-1.4-6.5-0.7-6.7,0.2C198.7,123.2,208.9,127.5,209.9,126.1z"/>
	<path fill="none" stroke="#C49A6C" stroke-width="3.342" stroke-miterlimit="10" d="M361.5,122.9c-0.4-0.8,3-4,6.9-5.4
		c3.4-1.1,7.6-1.1,7.8-0.3C376.5,118.9,362.3,124.4,361.5,122.9z"/>
	<g>
		<path fill="#FFFFFF" stroke="#000000" stroke-width="3.342" stroke-miterlimit="10" d="M273.7,129.2c-3.1,1.9-6.1-2.9-14.4-2.6
			c-7.6,0.3-10.6,4.6-13.1,2.8c-3.2-2.2-0.6-10.6,2.4-20.4c2.4-7.8,4.5-11.2,7.7-13.5c1.3-1,3.9-2.8,6.7-2.3
			c1.3,0.2,4.5,1.3,8.1,10.6C271.7,105.4,279.5,125.6,273.7,129.2z"/>
		<path fill="#2E3192" stroke="#000000" stroke-width="3.342" stroke-miterlimit="10" d="M268.9,124c4.3-6.1,1.4-13.1,0.9-14.3
			c-0.2-0.5-4.1-9.2-10.5-8.8c-5.9,0.4-8.7,8.2-9.2,9.4c-2.1,5.9,2.1,17.5,9.8,16.7C265.3,126.5,265.6,128.6,268.9,124z"/>
		<path fill="#27AAE1" stroke="#000000" stroke-width="3.342" stroke-miterlimit="10" d="M259.9,126.6c3.6-0.4,4.9-1,4.9-5.2
			c0-1.9-1.2-6.8-4.8-6.7c-3.5,0.1-4.7,1.4-4.8,6C255.1,123.9,256.3,127,259.9,126.6z"/>
	</g>
	<g>
		<path fill="#FFFFFF" stroke="#000000" stroke-width="3.342" stroke-miterlimit="10" d="M332.8,127.3c-3.1,1.9-6.1-2.9-14.4-2.6
			c-7.6,0.3-10.6,4.6-13.1,2.8c-3.2-2.2-0.6-10.6,2.4-20.4c2.4-7.8,4.5-11.2,7.7-13.5c1.3-1,3.9-2.8,6.7-2.3
			c1.3,0.2,4.5,1.3,8.1,10.6C330.9,103.4,338.6,123.6,332.8,127.3z"/>
		<path fill="#2E3192" stroke="#000000" stroke-width="3.342" stroke-miterlimit="10" d="M328.1,122c4.3-6.1,1.4-13.1,0.9-14.3
			c-0.2-0.5-4.1-9.2-10.5-8.8c-5.9,0.4-8.7,8.2-9.2,9.4c-2.1,5.9,2.1,17.5,9.8,16.7C324.5,124.5,324.9,126.7,328.1,122z"/>
		<path fill="#27AAE1" stroke="#000000" stroke-width="3.342" stroke-miterlimit="10" d="M319,124.6c3.6-0.4,4.9-1,4.9-5.2
			c0-1.9-1.2-6.8-4.8-6.7c-3.5,0.1-4.7,1.4-4.8,6C314.2,121.9,315.4,125,319,124.6z"/>
	</g>
	<path fill="none" stroke="#000000" stroke-width="3.342" stroke-miterlimit="10" d="M271.8,79.6c-5.3-1.5-15.6,0.5-23,9.7"/>
	<path fill="none" stroke="#000000" stroke-width="3.342" stroke-miterlimit="10" d="M331.4,86.7c-0.2-5-10.8-8.6-23.8-8.1"/>
	<line fill="none" stroke="#000000" stroke-width="3.342" stroke-miterlimit="10" x1="266.3" y1="94.2" x2="266.3" y2="94.2"/>
	<g>
		<path fill="none" stroke="#C49A6C" stroke-width="3.342" stroke-miterlimit="10" d="M299.6,146.2c-0.5-0.5-4-3.4-8.5-2.7
			c-4,0.7-8.2,4.1-8.2,8.4c0.1,3.3,2.5,6,5,7.1c3.1,1.6,6.9,1.1,9.9-1.1"/>
	</g>
	<path fill="none" stroke="#BE1E2D" stroke-width="3.342" stroke-miterlimit="10" d="M341.6,163.6c-1.5-2.2-5.8-4.3-5.8-4.3
		s-3.4,4.9-5.8,8.1c-7.8,10.9-19.7,14.4-23.8,15.3c-6.4,1.5-11.6,1.2-16.6,0.8c-3.8-0.3-9.9-0.2-16.7-3.4c-3.7-1.7-7.3-3.5-12.9-7
		c-6-3.9-6.8-5.4-6.8-5.4c-4.1-3.7-5.2-4.5-5.2-4.5s-2,2.5-2.6,4.1"/>
	<path fill="#3C2415" stroke="#603913" stroke-width="3.342" stroke-miterlimit="10" d="M367.9,95.5c1.3-5,2.7-8.6,3.2-16.9
		c0.3-6.1,0.7-13.6-1.5-23.3c-1.9-8.5-3.6-16-9.9-22.7c-4.7-5-10.2-7.7-12.7-9c-3.3-1.7-6-2.6-11.4-4.4c-5-1.7-8.5-2.5-8-1.8
		c1.3,1.7,9.5,10,10.8,23.5c0.3,2.8,0.8,8.5-2.5,13.4c-3,4.4-7.5,5.6-7.1,7.3c0.5,2.1,7,0.2,12.2,4c1.7,1.2,2.5,2.6,6.4,12.8
		c4.5,12.1,4.4,13.3,7.1,19.2c1.4,3,4.5,9.3,4.5,9.3l0,0C358.8,107,365.3,105,367.9,95.5z"/>
	<path fill="#3C2415" stroke="#603913" stroke-width="3.342" stroke-miterlimit="10" d="M311.8,7c-4.2-1.9-11.1-4.5-21.4-5.8
		c-8.3-1.1-20.6-2.7-35.1,1.5c-6.4,1.9-27.7,7.9-37.2,26c-6.7,12.8-3.7,16.2-6,34.4c-0.5,4.3-17.2,9.7-10.6,36.1
		c0.8,3.1,2.5,6,3.5,7.8c3.4,6.1,10.4,16.1,13.8,14.9c3.2-1.2-1.1-10.8,3-25.2c1-3.5,3.6-12.2,11.1-19.8c6.2-6.3,12.7-8.8,16.5-10.3
		c7.2-2.8,10-2.2,30.9-3.7c25.2-1.9,24.4-2.7,30.1-1.9c6.9,1,8.7,1,15.1,0.7c5.3-0.2,9.4-6,10.3-7.7c4.8-9.6,0.8-19.9-0.8-24.2
		c-1.3-3.3-4-8.9-9.3-14.2C320.9,11.2,316.3,9,311.8,7z"/>
	<path fill="#FFF200" stroke="#000000" stroke-width="3.342" stroke-miterlimit="10" d="M309.8,213.4c-0.2-0.2,0,0.9-2.8-0.4
		c-2.3-1.1-2-0.9-2-0.9s0.2,3.5-0.7,6.3c-1.3,4-6.5,5.8-8.4,6.1c-2,0.3-9.7,0.7-12.2-2.7c-2.1-2.7-2.1-8.9-2.1-8.9l-6.9,0.2
		c0,0,1.9,9.6,4.9,12.9c3.8,4,8,4.4,11.1,4.6c2.9,0.2,9.4,0.7,14.5-3.7C309.7,223,311.6,215.2,309.8,213.4z"/>
	
		<use xlink:href="#Brown_Hair_4"  width="22.6" height="15.3" x="-11.3" y="-7.7" transform="matrix(-4.8571 -0.7869 0.486 -2.9993 275.346 46.3366)" overflow="visible"/>
	
		<use xlink:href="#Brown_Hair_4"  width="22.6" height="15.3" x="-11.3" y="-7.7" transform="matrix(-4.4892 -0.7274 0.4462 -2.7543 269.8396 29.1333)" overflow="visible" enable-background="new    "/>
	
		<use xlink:href="#Brown_Hair_1"  width="16.2" height="6.8" x="-8.1" y="-3.4" transform="matrix(-1.1146 -2.2036 2.2899 -1.1582 357.3843 50.6307)" overflow="visible"/>
	
		<use xlink:href="#Brown_Hair_1"  width="16.2" height="6.8" x="-8.1" y="-3.4" transform="matrix(-1.0936 -2.0994 2.08 -1.0835 358.2812 71.0253)" overflow="visible" enable-background="new    "/>
	<g>
		<path fill="#2E3192" stroke="#000000" stroke-width="3.342" stroke-miterlimit="10" d="M138.1,149.1c-13.4-8.1-7.2-51.7-28.8-54.4
			c-12-1.5-14.1-4.6-14-5.2c0.1-0.5,14.1,0.6,13.9-4c-0.2-4.3-15.1-4.5-15.1-3.9c-0.1,0.6,14.9-0.6,14.8-4.9
			c-0.1-3.7-16.3-1.7-16.3-1.8c0-0.1,15.9-3.1,15.8-4.9c-0.2-3-16.4-2.7-16.4-2.9c0-0.2,15.5,0.3,15.9-1.7
			c0.7-3.8-16.7-7.4-16.1-7.3c0.3,0,11.1,4.8,13.5,1.8c2.3-2.8-3.1-9.9-2.2-14c0.5-2.3,5.6-3.6,7-1.1c2.1,3.4,3.9,8.3,4,10.7
			c0.2,5.3,1.5,10.8,17.4,31.5c27.5,35.8,40.1,42.5,37.4,51.4C165.9,148.1,147.4,154.8,138.1,149.1z"/>
		<path fill="none" stroke="#000000" stroke-width="3.342" stroke-miterlimit="10" d="M91.6,58.3c0,3.2,0.1,6.3,0.2,9.1
			c0.1,2.9,0.3,5.6,0.4,7.9c0.2,2.5,0.4,4.8,0.7,6.6c0.6,4.7,1.5,7.5,2.4,7.5"/>
		<g>
			<g>
				<path d="M92.5,61.1c0,1.2-0.4,3.5,0.4,4.5c0.7,0.9,1.4,0.5,2.3,0.4c1.6-0.1,3.1,0.8,4.8,0.7c1.8,0,3.5-0.4,5.1-1
					c0.8-0.3,0.8-1.3,0-1.6c-2-0.7-3.8-1.6-5.8-2.3c-1.4-0.6-3.3-1.6-4.8-1.4c-0.4,0-0.7,0.2-0.8,0.6c-0.4,1.3-0.6,3,0.9,3.4
					c0.6,0.2,1.3,0,2,0.2c0.6,0.2,1.2,0.5,1.8,0.7c1.1,0.4,2.1,0.7,3.2,0.5c0.9-0.1,1.1-1.3,0.2-1.6c-2.1-0.8-4.3-1.8-6.5-2.2
					c-1-0.2-1.5,1.4-0.4,1.6c2.3,0.3,4.4,1.3,6.5,2.2c0.1-0.5,0.1-1.1,0.2-1.6c-1.7,0.2-3-0.7-4.6-1.2c-0.3-0.1-1.1-0.4-1.4-0.3
					c-0.7-0.2-0.8,0-0.4,0.4c0-0.6,0.1-1.1,0.2-1.7c-0.3,0.2-0.5,0.4-0.8,0.6c1.6-0.2,4,1.2,5.4,1.8c1.6,0.7,3.1,1.3,4.7,1.9
					c0-0.5,0-1.1,0-1.6c-2.8,0.9-5.2,1.1-7.9,0.3c-0.7-0.2-1.3-0.2-2-0.2c-0.9-0.1-0.3,0.4-0.4-0.4c-0.1-0.9-0.1-1.8,0-2.7
					C94.2,60,92.5,60,92.5,61.1L92.5,61.1z"/>
			</g>
		</g>
		<g>
			<g>
				<path d="M92.7,69.5c0.1,1.4,0.2,2.9,0.3,4.3c0.1,0.8,1.1,1.2,1.5,0.4c0.7-1.4,3.9-1.4,5.2-1.7c1.7-0.4,3.3-0.9,4.9-1.3
					c0.6-0.2,0.8-0.9,0.4-1.4c-1.5-1.7-3.8-1.4-5.8-1.3c-1.3,0-5.1-0.8-5.6,1C93.3,70.6,94,72,95.1,72c1.3,0.1,2.7-0.3,4-0.3
					c1.4,0.1,2.7,0,4.1-0.3c1-0.3,0.6-1.9-0.4-1.6c-1.6,0.4-3.1,0.2-4.7,0.2c-0.5,0-1,0-1.5,0.1c-0.2,0-1.8,0.1-1.3,0.2
					c2.4,0.5,6.7-1.4,8.6,0.8c0.1-0.5,0.2-0.9,0.4-1.4c-2.5,0.7-4.9,1.4-7.4,1.8c-1.6,0.2-2.9,0.5-3.7,2c0.5,0.1,1,0.3,1.5,0.4
					c-0.1-1.4-0.2-2.9-0.3-4.3C94.3,68.4,92.6,68.4,92.7,69.5L92.7,69.5z"/>
			</g>
		</g>
		<g>
			<g>
				<path d="M97.6,70.8c0.7,0,2.1-0.3,2.8,0c0.4,0.2,0.7,0.6,1.1,0.7c0.6,0.2,1.4,0.1,2,0.1c0.8,0,1.8,0.1,2.6-0.2
					c0.4-0.1,0.6-0.4,0.6-0.8v-0.1c0-0.3-0.2-0.6-0.4-0.7c0,0-0.1,0-0.1-0.1c-0.9-0.6-1.7,0.9-0.8,1.4c0,0,0.1,0,0.1,0.1
					c-0.1-0.2-0.3-0.5-0.4-0.7v0.1c0.2-0.3,0.4-0.5,0.6-0.8c-0.7,0.2-1.7,0.2-2.4,0.1c-0.5,0.1-1,0-1.5-0.3
					c-0.2-0.1-0.3-0.2-0.5-0.4c-1.1-0.4-2.4-0.2-3.6-0.2C96.6,69.2,96.6,70.8,97.6,70.8L97.6,70.8z"/>
			</g>
		</g>
		<g>
			<g>
				<path d="M94,72.8c0.4,0,0.8,0,1.2,0c1.1,0,1.1-1.7,0-1.7c-0.4,0-0.8,0-1.2,0C92.9,71.2,92.9,72.8,94,72.8L94,72.8z"/>
			</g>
		</g>
		<g>
			<g>
				<path d="M93.6,77.7c4.5,0,9,0,13.5,0c-0.1-0.5-0.1-1.1-0.2-1.6c-2.8,0.8-5.6,1.6-8.3,2.4c-0.7,0.2-1.4,0.3-2,0.6
					c-0.3,0-0.6,0.2-0.8,0.3c-0.3,0.3-0.4,0.3-0.4-0.2c-1.4-0.9,2.1-0.5,2.7-0.5c1.4,0,2.7-0.1,4.1-0.3c0.2,0,2-0.2,2-0.2
					c0-0.2-1.7-0.2-1.9-0.2c-0.9,0.1-1.7,0.4-2.5,0.7c-0.4,0.2-0.9,0.5-1.4,0.6c-0.5,0.4-1,0.3-1.5-0.2c-0.9-0.1-1.2-0.3-0.7-0.7
					c0.1,0.5,0.1,1,0.2,1.5c0.2-0.1,0.4-0.2,0.6-0.3c1.1-0.1,1.1-1.7,0-1.7c-0.7,0-0.9,0-1.5,0.5c-0.5,0.4-0.6,1.4,0.2,1.5
					c1.5,0.2,2.5-1.4,1.1-2.5c-1.2-1-2.4-0.1-2.6,1.2c-0.3,2.7,2.3,3,4.3,2.4c0.8-0.3,1.6-0.8,2.5-1c1-0.3,1.9-0.2,2.9-0.4
					c0.8-0.1,1.8-0.4,2.2-1.2c1.1-2.1-1.8-2-3-1.9c-2.4,0.2-4.7,0.4-7.1,0.3c-0.9,0-1.8-0.3-2.3,0.6c-0.6,1,0.2,3.3,1.3,3.6
					c1.4,0.4,4.4-1.1,5.6-1.5c2.3-0.7,4.6-1.3,6.8-2c0.9-0.3,0.7-1.6-0.2-1.6c-4.5,0-9,0-13.5,0C92.5,76.2,92.5,77.7,93.6,77.7
					L93.6,77.7z"/>
			</g>
		</g>
		<g>
			<g>
				<path d="M94.3,84.7c2.6-0.1,5.2-0.2,7.7,0.1c1.2,0.1,2.7,0.2,3.9,0.6c0.6,0.2,0.6,0.1,0.1-0.2c-0.7,0.3-1.5,0.6-2.2,0.9
					c-1.1,0.4-2.2,0.7-3.4,0.8c-0.2,0-5.3,0.9-4.4-1c0.3-0.5,3.9-0.7,4.5-0.8c0.7-0.1,4.7-0.1,1.8,0.6c-0.9,0.2-1.8,0.3-2.7,0.5
					c-1.3,0.2-3.6,0.5-1-0.1c0.9-0.2,1.9-0.4,2.9-0.5c0.8,0.2,1.4,0.1,1.9-0.4c-0.1,0-0.1,0-0.2,0c-1.2,0.1-2.5,0.4-3.6,0.7
					c-0.6,0.2-1.2,0.3-1.8,0.5c0.1,0.7,0.5,0.8,1.1,0.3c1,0,2.2-0.5,3.2-0.6c1.1-0.1,0.6-1.7-0.4-1.6c-1.6,0.2-7.2,0.8-5.1,3.6
					c0.2,0.2,0.6,0.3,0.8,0.2c2.3-0.8,4.6-1,6.8-1.6c0.7-0.2,1.2-0.3,1.4-1.1c0.4-2.3-3.4-1.9-4.6-1.7c-1.4,0.2-6.5,0.1-6.1,2.8
					c0.6,2.7,5.9,0.9,7.2,0.6s4.2-1.5,2.6-3.2c-0.8-0.9-2.4-0.9-3.5-0.8c-1.8,0.2-3.6,0.5-5.4,0.6c-2.2,0.1-2.4,3-0.9,4.4
					c1.6,1.5,6.4,0.1,8.1-0.4c1-0.3,6.2-1.7,4.1-3.7c-1-1-3.7-0.9-5.1-1c-2.7-0.3-5.5-0.3-8.1-0.2C93.2,83.1,93.2,84.7,94.3,84.7
					L94.3,84.7z"/>
			</g>
		</g>
	</g>
</g>
</svg>
