<?xml version="1.0" encoding="utf-8"?>
<!-- Generator: Adobe Illustrator 18.1.0, SVG Export Plug-In . SVG Version: 6.00 Build 0)  -->
<!DOCTYPE svg PUBLIC "-//W3C//DTD SVG 1.1//EN" "http://www.w3.org/Graphics/SVG/1.1/DTD/svg11.dtd">
<svg version="1.1" id="Layer_1" xmlns="http://www.w3.org/2000/svg" xmlns:xlink="http://www.w3.org/1999/xlink" x="0px" y="0px"
	 viewBox="0 0 200 200" enable-background="new 0 0 200 200" xml:space="preserve">
<symbol  id="Brown_Hair_1" viewBox="-8.1 -3.4 16.2 6.8">
	<g>
		<path fill="#7E5629" d="M-8.1,2.5c0,0,10.4-0.9,16.2-5.9C3.6,2-5.5,4.9-8.1,2.5z"/>
	</g>
</symbol>
<symbol  id="Brown_Hair_4" viewBox="-11.3 -7.7 22.6 15.3">
	<path fill="#7E5629" d="M-11.3,6.9c0,0,5.6,2.6,10.6-1.9c5-4.6,5.8-10.2,12-12.7C4.7-6.6,2.2,0.8-1,3.9C-6.1,8.8-10.8,6.9-11.3,6.9
		z"/>
</symbol>
<path fill="#006838" stroke="#000000" stroke-miterlimit="10" d="M104.8,70.9c1.2-1,3.1-0.7,5.9-0.2c1.4,0.2,3.2,0.6,5.4,1.7
	c3.4,1.6,5.1,3.6,8.2,5.9c4.4,3.2,7.7,6.9,12,10c0.1,0,3.6,1.8,7.6,4.8c1.1,0.8,2.3,1.8,2.7,3.4c0.5,1.8-0.1,4-1.2,4.3
	c-0.7,0.2-1.1-0.6-3.2-1.8c-1.5-0.8-2.7-1.5-4.1-1.4c-1.5,0.1-1.6,0.9-2.7,1c-2.1,0.2-5-2.9-6.7-4c-1.5-1-3.4-1.8-5.8-4
	c-1.2-1.1-1.8-1.4-2.3-1.8c-1-0.8-2.8-1.8-4.7,1.3c-1.2,2-0.5,6.3-0.5,8.7c0,1.6,0,5.7,1,8.7c0,0,0.1,0.6,0.9,3.1l0.6,1.9
	c-0.3,0.7-2.5,0-5.9,0.2c-3.5,0.2-3.9,0.9-5.6,0.6c-1.9-0.4-2.1-1.2-4.3-2c-1.9-0.6-4.2-0.4-4.8-0.2c-1.9,0.6-2.1,1.1-4.2,1.9
	c-0.6,0.2-0.3,0-2,0.3c-2.8,0.5-4.6,0.6-6.3,0.4c-1.6-0.2-1.8-0.4-1.9-0.5c-0.8-1,0.1-2.6,0.7-5.9c0.2-1.1,0.8-3.5-0.1-6.5
	c-0.3-1.2-0.4-3-2.1-5.8c-1.9-3.3-2.6-4.2-3.6-5.2c-0.7-0.7,0,0-2.9-2.6c-2.8-2.6-2.6-2.2-4.1-3.8c-1.3-1.4-5.1-5.1-5.9-6.4
	c-0.6-1-8.9-13.4-10.6-15.1c-0.9-1-6.5-10.1-6.7-10.5c-1.5-2.2,4.5-0.8,3.8-0.8c-3.2-0.1,0.9-1.4,3.5-2.3c2.1-0.7,0.6-5.5,1.4-3.7
	c1.1,2.5,3.9,7,6.4,10.6c2.2,3,1.7,1.9,4.6,6.2c2.5,3.8,6.1,7.3,7.3,8.4c3.3,3.1,5,4.6,7.9,3.2c1.2-0.6,2.5-1,5.3-1.7
	c3.3-0.8,3.9-0.6,4.3-0.3c1.2,0.9,0.3,2.5,1.6,4c1.3,1.6,3.7,1.5,4.5,1.5c0.9,0,2.7,0,4-1.3C104.3,73.8,103.4,72.1,104.8,70.9z"/>
<polygon fill="#FFDE17" stroke="#000000" stroke-miterlimit="10" points="103.8,82.4 111.1,89.4 104.3,99.8 90.1,100.3 82.7,90.5 
	89.7,82.9 "/>
<polygon fill="#FFFFFF" stroke="#000000" stroke-miterlimit="10" points="105.9,89.6 101.6,96.2 93.2,96.5 87.9,90.2 90.2,87 
	103,86.5 "/>
<path stroke="#000000" stroke-miterlimit="10" d="M144.5,101.1c0.4,1.2-1.1,3.4-3.7,6.3c-5.7,6.1-6.5,5.3-8.8,8.5
	c-2.2,3.1-2.6,5.4-5.9,7.8c-1.4,1.1-2.4,1.5-3.3,1.2c-1.8-0.5-2.5-3.1-2.9-4.7c-0.5-1.8-1.1-4,0.2-5.8c1-1.3,2.5-1.7,3.6-2
	c2.5-0.6,3.2,0.3,4.5-0.2c3.8-1.3,1.7-10.9,6.3-13.2c1.9-1,3.9-0.9,5-0.6C140.4,98.6,144,99.4,144.5,101.1z"/>
<path stroke="#000000" stroke-miterlimit="10" d="M56.4,46.4c1.5-4.2-8.9-6.9-9.1-12c-0.1-2.6,2.1-3.4,1.6-6.4s-3.1-4.6-3.4-4.7
	c-2.3-1.4-6.1-1.7-7.5,0.1c-1,1.2-0.7,2.8-0.5,4c0.5,3.4,2.1,4.4,3.9,7.8c0.8,1.5,0.3,1,3.8,11.2c1.1,3.2,1.6,4.7,3,5.2
	c2,0.7,4.8-0.3,5.5-0.8C54.3,50.2,55.8,48.3,56.4,46.4z"/>
<path fill="#FFDE17" stroke="#000000" stroke-miterlimit="10" d="M117.6,113.7c0.4,1.4,0.8,2.7,1.3,4l-12,0.4l-1.5-4.4H117.6z"/>
<polygon fill="#FFDE17" stroke="#000000" stroke-miterlimit="10" points="91.8,114.4 92,119.4 81.1,119 82.2,114.5 "/>
<path fill="#ED1C24" stroke="#000000" stroke-miterlimit="10" d="M105,114.5c0.2,0.3,1.5,2.5,0.5,4.8c-1.3,2.9-5.3,3.1-6,3.2
	c-0.9,0-5.2,0.1-7-3.1c-0.1-0.1-1.4-2.6-0.2-5c1.7-3.3,6.6-2.9,7.1-2.8C100.4,111.6,103.5,111.9,105,114.5z"/>
<path fill="#FFFFFF" stroke="#000000" stroke-miterlimit="10" d="M102.1,115.3c0.7,1,0.7,2.5-0.1,3.5c-1.2,1.6-3.8,1.3-5.2,0.2
	c-0.8-0.6-1.7-2-1.2-3.1c0.4-1.2,1.9-1.5,2.5-1.6C98.7,114.2,101,113.8,102.1,115.3z"/>
<path fill="#006838" stroke="#000000" stroke-miterlimit="10" d="M118.9,118.5c0,0,1.2,3.1,2.3,6.6c0.2,0.6,1,3.2,1.5,4.8
	c3,9.4,2.7,19.1,3.7,19.9c1.4,1.2,1.6,2.2,2.1,4c0.5,2.2,0.6,3.4,0.7,5.4c0.1,1,0.6,1.8,0.5,2.4c-0.2,1-1.7,1.4-2.7,1.8
	c-0.6,0.2-3.1,0.6-5,0.6c-2.1-0.1-4.7-1-4.7-1v-0.7c0,0-0.3-2.5-0.8-3.7c-1.4-3.7-3.2-6.1-5.7-8.7c-7.7-8.3-8.3-12.9-10-13.4
	c0,0-2.9,4.7-10.9,15c-2.4,3.1-4.4,5.3-4.4,8.5c0,1.9,0.7,3.7-0.4,4.8c-0.2,0.3-0.7,0.6-3.5,0.9c-5.1,0.5-6.6-0.4-7.1-0.7
	s-1.5-0.9-1.6-1.8c-0.1-0.8-0.2-1.5-0.1-2.6c0.3-2.5,0.1-3.2,1.4-5.6c0.6-1,0.9-2.4,1.4-3.6c1.1-2.6-0.4-9.8,0.9-16.8
	c0.7-3.8-0.1-6.9,1.1-8.1c2.1-2.1,3.4-6.7,3.4-6.7s9.9-0.8,10.9-0.1c2.8,1.9,2.4,2.9,7.5,2.8c4.4-0.2,6-3.2,7.2-3.5
	C110.6,117.7,118.9,118.5,118.9,118.5z"/>
<path stroke="#000000" stroke-miterlimit="10" d="M131.2,165.6c-0.1-1.8,0-3.3-0.9-3.7c-0.5-0.2-0.9,0-2,0.4c-1.3,0.5-2.7,1-4,1.1
	c-2.2,0.1-6.4-0.2-6.7,0.2c-1.2,1.5,1.5,5.5,3.4,8.4c2.8,4.2,3.6,4.2,4.1,6.4c0.4,1.9-0.2,2.3,0.2,6.7c0.3,3.1,0.7,4,0.9,4.4
	c0.4,0.7,1,1.6,3.8,3.8c2.9,2.2,4.4,3.3,5.7,3.7c0.4,0.1,4.6,1.2,7.6-1.2c0.5-0.4,1.4-1.1,1.6-2.3c0.1-0.5,0.3-1.9-2.2-4.8
	c-2.5-3-4.1-3.1-7.3-6.4c-1.2-1.3-1.9-2-2.3-2.9c-1.1-2.1-0.4-3.1-0.8-7.4C132,168.2,131.4,168.9,131.2,165.6z"/>
<path stroke="#000000" stroke-miterlimit="10" d="M83.5,170.1c0.9-1.9,2.4-5.1,1.5-6c-0.5-0.4-1.2,0-3.5,0.5c-2.5,0.5-5.2,1-7.1-0.3
	c-1.2-0.8-1.2-1.9-1.7-1.8c-1.4,0.2-1.7,7.9-1.7,9.5c-0.2,6.7,0.7,7.1-0.2,9.5c-0.7,1.7-1.2,1.8-6.8,7.8c-4,4.3-4.9,5.6-4.6,7
	c0.5,2,3.1,3,3.8,3.2c3.2,1.1,6.2-0.3,6.6-0.6c1.7-0.9,1.5-1.5,5-4.8c2.6-2.4,2.8-2.2,3.2-3.1c0.8-1.8,0-2.9-0.1-7.4
	c0-1.5,0-2.1,0.1-3C78.7,176.7,80.9,175.5,83.5,170.1z"/>
<path fill="#27AAE1" stroke="#000000" stroke-miterlimit="10" d="M67.4,79.5c0,0-0.9,1.1-3.8,3.1c-2.4,1.7-7.4,5.8-11.6,12.6
	c-4,6.4-3.3,9.1-8.4,16c-3.9,5.4-6.5,6.9-7.5,7.5c-4.1,2.2-8.6,2.5-10.8,2.6c-4.8,0.1-6.5-1.2-7.4-0.1c-1.7,1.9,1.3,8.6,6,12.6
	c2.4,2.1,5.8,3.6,12.7,6.6c3.6,1.6,3.3,1.3,4.3,1.9c6.4,3.6,5.8,7.7,10.6,10.8c4.2,2.7,4.7,3.2,13.1,2.9c4.9-0.2,8,3.1,8.8,1.9
	c0.2-0.3,0.4-0.3,1.1-1.9c0.9-1.9,1.3-3.2,2.1-5.1c0.7-1.7-1.6-7.8,0.1-15.9c0.8-3.7,1.8-7.4,3-10.5c1.9-4.6,0.5-1.2,1.9-4.6
	c1.1-2.6,2.3-11.2,3-13c2-4.9-3.8-13.9-5.1-15.6c-0.4-0.6-5-4.9-8.5-8.3C69.5,81.8,67.9,80,67.4,79.5z"/>
<path fill="#27AAE1" stroke="#000000" stroke-miterlimit="10" d="M86.6,157.2c0.5,0.5,8.9-3.4,14.4-3.3c8.3,0.2,14.2,4,14.9,3
	c0.8-1.1-3.2-3.4-7.8-9.8c-2.2-3-6.4-10.9-7.3-10.8c-0.8,0-4.3,6.2-7.9,10.9C89.2,152,86.2,156.9,86.6,157.2z"/>
<path fill="#27AAE1" stroke="#000000" stroke-miterlimit="10" d="M129,152.5c2.2,2.2,4.8-3.3,10-5.4c5.3-2.1,6.6,0.8,11.1-0.9
	c6.4-2.5,4.5-8.7,12-13.4c1.3-0.8,5.1-2.1,12.8-4.9c6.4-2.2,7.3-2.4,7.7-3.4c1.3-3.7-8.8-7.5-19.2-20.1c-6-7.2-5.4-9.3-11.4-14.9
	c-3.9-3.5-7.3-5.6-14.3-9.7c-5.5-3.3-9.5-5.2-14.1-6.4c-2.7-0.7-8.2-0.8-8.2-0.8s2.6,2.3,8,6.1c7.8,5.4,6.5,5.6,12.6,9.6
	c6.7,4.5,10,5.5,10.5,8.7c0.3,1.7-0.4,3-1.3,5.1c-1.6,3.3-3.2,4.1-7.9,9c-3.8,4-5.7,6-6.8,7.6c-1.4,2.2-2.2,4.1-4.5,5.4
	s-4.7-0.2-4.4,1.3c0.4,2.1,3.1,6.8,3.6,16.4c0.1,2.3,0.4,4.7,1,7.5C126.5,150.7,127.6,151.1,129,152.5z"/>
<g>
	<path fill="#27AAE1" stroke="#000000" stroke-miterlimit="10" d="M117.9,88.3c1.9-1.5,3.9,2.1,9.1,5.4c3.9,2.4,6.7,3,6.7,4.3
		c0,0.9,0,0.9-1,2.5c-1.9,3.1-0.8,8.5-3.6,11.1c-2,1.8-5.1-0.6-7.7,1.6c-2.3,1.9-2.6,4.7-3.4,4.6c-0.7-0.1-0.9-2.4-1.2-4.4
		c-0.4-3-1.7-5-2.1-6.7c-0.7-3-0.6-5.5-0.5-6.4s0-5,0.7-7.6C115.7,89.5,117.1,88.9,117.9,88.3z"/>
</g>
<path fill="#C49A6C" stroke="#C49A6C" stroke-miterlimit="10" d="M95,73.1c0,0-0.5-5.5-1-8.8c0,0-2.8,1.5-10.3-1.1
	c-0.9-0.3-3.9-0.8-7.5-4.3c-1.7-1.6-2-3.8-2.4-5.3c-0.8-3.1,0.1-3.4,0.1-7.2c0,0,0.8-0.2-1.2-1.8c-0.3-0.2-1.5-0.1-1.8,0
	c-0.7,0.4-1.9,0.8-3.2,0.5c-2-0.5-2.8-2.5-3.2-3.6c-0.4-0.9-1.4-3.4-0.2-4.7c0.9-0.9,2.6-0.8,3.7-0.4c3.4,1.1,4.1,5.3,5.2,5.1
	c0.9-0.2-0.3-1.9,0.7-6.9c0.3-1.4,0.1-1.8,1.6-4.6c1-2,2.1-4.6,3.9-5.8c1.9-1.2,3.7-2.5,8.9-3.1c5.7-0.6,6.6-0.3,12.9-0.8
	c2.6-0.2,6.5-0.3,12.1,2c2.1,0.9,3.7,9,4.6,10.1c3,3.8,0.1,4.9,0.5,5.9l0,0c0.3,0.1,1.2-1.3,2.4-2.2c0.4-0.3,1.6-1.2,3.3-1.3
	c1.1,0,3.1,0.3,3.8,1.4c1.7,2.8-1.4,5.7-4.8,7.6c-3.5,2-1.9,10.5-3.3,13.4c-1.2,2.4-2.8,4.3-6.8,5.9c-4.9,1.9-9.5,2.4-11.5,1.4l0,0
	c-1.7,3.1-0.1,6.2-0.1,6.2c0,0.4,0.1,1,0.1,1.7c-0.4,0.4-1.2,0.9-2.3,1.2C98.8,74,98.4,74,98,74C96.3,74,95,73.1,95,73.1z"/>
<path fill="none" stroke="#A97C50" stroke-miterlimit="10" d="M70,42c0.2-0.3-0.5-1.2-1.4-1.6c-1-0.5-2.2-0.2-2.2,0.1
	C66.2,41.1,69.6,42.5,70,42z"/>
<path fill="none" stroke="#A97C50" stroke-miterlimit="10" d="M120.5,41c-0.1-0.3,1-1.3,2.3-1.8c1.1-0.4,2.5-0.4,2.6-0.1
	C125.5,39.6,120.8,41.5,120.5,41z"/>
<g>
	<path fill="#FFFFFF" stroke="#000000" stroke-miterlimit="10" d="M91.2,43.1c-1,0.6-2-1-4.8-0.9c-2.5,0.1-3.5,1.5-4.4,0.9
		c-1.1-0.7-0.2-3.5,0.8-6.8c0.8-2.6,1.5-3.7,2.6-4.5c0.4-0.3,1.3-0.9,2.2-0.8c0.4,0.1,1.5,0.4,2.7,3.5
		C90.6,35.1,93.2,41.9,91.2,43.1z"/>
	<path fill="#2E3192" stroke="#000000" stroke-miterlimit="10" d="M89.6,41.3c1.4-2,0.5-4.4,0.3-4.8c-0.1-0.2-1.4-3.1-3.5-2.9
		c-2,0.1-2.9,2.7-3.1,3.1c-0.7,2,0.7,5.8,3.3,5.6C88.4,42.2,88.5,42.9,89.6,41.3z"/>
	<path fill="#27AAE1" stroke="#000000" stroke-miterlimit="10" d="M86.6,42.2c1.2-0.1,1.6-0.3,1.6-1.7c0-0.6-0.4-2.3-1.6-2.2
		c-1.2,0-1.6,0.5-1.6,2C85,41.3,85.4,42.3,86.6,42.2z"/>
</g>
<g>
	<path fill="#FFFFFF" stroke="#000000" stroke-miterlimit="10" d="M110.9,42.4c-1,0.6-2-1-4.8-0.9c-2.5,0.1-3.5,1.5-4.4,0.9
		c-1.1-0.7-0.2-3.5,0.8-6.8c0.8-2.6,1.5-3.7,2.6-4.5c0.4-0.3,1.3-0.9,2.2-0.8c0.4,0.1,1.5,0.4,2.7,3.5
		C110.3,34.5,112.9,41.2,110.9,42.4z"/>
	<path fill="#2E3192" stroke="#000000" stroke-miterlimit="10" d="M109.4,40.7c1.4-2,0.5-4.4,0.3-4.8c-0.1-0.2-1.4-3.1-3.5-2.9
		c-2,0.1-2.9,2.7-3.1,3.1c-0.7,2,0.7,5.8,3.3,5.6C108.2,41.5,108.3,42.2,109.4,40.7z"/>
	<path fill="#27AAE1" stroke="#000000" stroke-miterlimit="10" d="M106.3,41.5c1.2-0.1,1.6-0.3,1.6-1.7c0-0.6-0.4-2.3-1.6-2.2
		c-1.2,0-1.6,0.5-1.6,2C104.7,40.6,105.1,41.7,106.3,41.5z"/>
</g>
<path fill="none" stroke="#000000" stroke-miterlimit="10" d="M90.6,26.5c-1.8-0.5-5.2,0.2-7.7,3.2"/>
<path fill="none" stroke="#000000" stroke-miterlimit="10" d="M110.5,28.9c-0.1-1.7-3.6-2.9-7.9-2.7"/>
<line fill="none" stroke="#000000" stroke-miterlimit="10" x1="88.8" y1="31.4" x2="88.8" y2="31.4"/>
<g>
	<path fill="none" stroke="#A97C50" stroke-miterlimit="10" d="M99.9,48.7c-0.2-0.2-1.3-1.1-2.8-0.9c-1.3,0.2-2.7,1.4-2.7,2.8
		c0,1.1,0.8,2,1.7,2.4c1,0.5,2.3,0.4,3.3-0.4"/>
</g>
<path fill="none" stroke="#BE1E2D" stroke-miterlimit="10" d="M113.9,54.5c-0.5-0.7-1.9-1.4-1.9-1.4s-1.1,1.6-1.9,2.7
	c-2.6,3.6-6.6,4.8-7.9,5.1c-2.1,0.5-3.9,0.4-5.5,0.3c-1.3-0.1-3.3-0.1-5.6-1.1c-1.2-0.6-2.4-1.2-4.3-2.3c-2-1.3-2.3-1.8-2.3-1.8
	c-1.4-1.2-1.7-1.5-1.7-1.5s-0.7,0.8-0.9,1.4"/>
<path fill="#3C2415" stroke="#603913" stroke-miterlimit="10" d="M122.6,31.8c0.4-1.7,0.9-2.9,1.1-5.6c0.1-2,0.2-4.5-0.5-7.8
	c-0.6-2.8-1.2-5.3-3.3-7.6c-1.6-1.7-3.4-2.6-4.2-3c-1.1-0.6-2-0.9-3.8-1.5c-1.7-0.6-2.8-0.8-2.7-0.6c0.4,0.6,3.2,3.3,3.6,7.8
	c0.1,0.9,0.3,2.8-0.8,4.5c-1,1.5-2.5,1.9-2.4,2.4c0.2,0.7,2.3,0.1,4.1,1.3c0.6,0.4,0.8,0.9,2.1,4.3c1.5,4,1.5,4.4,2.4,6.4
	c0.5,1,1.5,3.1,1.5,3.1l0,0C119.6,35.7,121.8,35,122.6,31.8z"/>
<path fill="#3C2415" stroke="#603913" stroke-miterlimit="10" d="M103.9,2.3c-1.4-0.6-3.7-1.5-7.1-1.9C94,0,89.9-0.5,85.1,0.9
	C83,1.5,75.9,3.5,72.7,9.6c-2.2,4.3-1.2,5.4-2,11.5c-0.2,1.4-5.7,3.2-3.5,12c0.3,1,0.8,2,1.2,2.6c1.1,2,3.5,5.4,4.6,5
	s-0.4-3.6,1-8.4c0.3-1.2,1.2-4.1,3.7-6.6c2.1-2.1,4.2-2.9,5.5-3.4c2.4-0.9,3.3-0.7,10.3-1.2c8.4-0.6,8.1-0.9,10-0.6
	c2.3,0.3,2.9,0.3,5,0.2c1.8-0.1,3.1-2,3.4-2.6c1.6-3.2,0.3-6.6-0.3-8.1c-0.4-1.1-1.3-3-3.1-4.7C107,3.7,105.4,3,103.9,2.3z"/>
<path fill="#FFF200" stroke="#000000" stroke-miterlimit="10" d="M103.3,71.1c-0.1-0.1,0,0.3-0.9-0.1c-0.8-0.4-0.7-0.3-0.7-0.3
	s0.1,1.2-0.2,2.1c-0.4,1.3-2.2,1.9-2.8,2c-0.7,0.1-3.2,0.2-4.1-0.9c-0.7-0.9-0.7-3-0.7-3L91.6,71c0,0,0.6,3.2,1.6,4.3
	c1.3,1.3,2.7,1.5,3.7,1.5c1,0.1,3.1,0.2,4.8-1.2C103.2,74.3,103.9,71.7,103.3,71.1z"/>
<use xlink:href="#Brown_Hair_4"  width="22.6" height="15.3" x="-11.3" y="-7.7" transform="matrix(-1.6091 -0.2607 0.161 -0.9936 91.7658 15.5455)" overflow="visible"/>
<use xlink:href="#Brown_Hair_4"  width="22.6" height="15.3" x="-11.3" y="-7.7" transform="matrix(-1.4872 -0.241 0.1478 -0.9125 89.9317 9.8028)" overflow="visible" enable-background="new    "/>
<use xlink:href="#Brown_Hair_1"  width="16.2" height="6.8" x="-8.1" y="-3.4" transform="matrix(-0.3715 -0.7345 0.7633 -0.3861 119.1279 16.8769)" overflow="visible"/>
<use xlink:href="#Brown_Hair_1"  width="16.2" height="6.8" x="-8.1" y="-3.4" transform="matrix(-0.3645 -0.6998 0.6933 -0.3612 119.4269 23.6751)" overflow="visible" enable-background="new    "/>
</svg>
