<?xml version="1.0" encoding="utf-8"?>
<!-- Generator: Adobe Illustrator 18.1.0, SVG Export Plug-In . SVG Version: 6.00 Build 0)  -->
<!DOCTYPE svg PUBLIC "-//W3C//DTD SVG 1.1//EN" "http://www.w3.org/Graphics/SVG/1.1/DTD/svg11.dtd">
<svg version="1.1" id="Layer_1" xmlns="http://www.w3.org/2000/svg" xmlns:xlink="http://www.w3.org/1999/xlink" x="0px" y="0px"
	 viewBox="0 0 200 200" enable-background="new 0 0 200 200" xml:space="preserve">
<symbol  id="Brown_Hair_1" viewBox="-8.1 -3.4 16.2 6.8">
	<g>
		<path fill="#7E5629" d="M-8.1,2.5c0,0,10.4-0.9,16.2-5.9C3.6,2-5.5,4.9-8.1,2.5z"/>
	</g>
</symbol>
<symbol  id="Brown_Hair_4" viewBox="-11.3 -7.7 22.6 15.3">
	<path fill="#7E5629" d="M-11.3,6.9c0,0,5.6,2.6,10.6-1.9c5-4.6,5.8-10.2,12-12.7C4.7-6.6,2.2,0.8-1,3.9C-6.1,8.8-10.8,6.9-11.3,6.9
		z"/>
</symbol>
<path fill="#27AAE1" stroke="#000000" stroke-miterlimit="10" d="M129.1,152.2c2.2,2.2,4.8-3.3,10.1-5.4c5.3-2.1,6.7,0.8,11.2-0.9
	c6.5-2.5,4.6-8.7,12-13.5c1.3-0.8,5.2-2.2,12.9-4.9c6.4-2.3,7.4-2.4,7.7-3.4c1.3-3.7-8.8-7.6-19.4-20.3c-6.1-7.3-5.5-9.4-11.5-14.9
	c-3.9-3.6-7.4-5.7-14.3-9.8c-5.6-3.3-9-3.5-13.7-4.7c-2.7-0.7-9.1,3-9.1,3s3-3.2,8.4,0.6c7.8,5.5-0.5,8.5-4.5,14.7
	c-3.9,6.1-2.5,14.2-2,17.5c0.3,1.7,4.4,13.3,4.7,14.8c0.4,2.1,3.1,6.8,3.7,16.5c0.1,2.3,0.4,4.7,1,7.5
	C126.6,150.4,127.8,150.9,129.1,152.2z"/>
<path fill="#006838" stroke="#000000" stroke-miterlimit="10" d="M105.1,71.8c1.3-1,3.1-0.7,6-0.2c1.4,0.3,3.5,0.5,5.8,0.9
	c3.8,0.7,6.1,1.5,9.7,0c4-1.7,9.7-5.7,13.4-8c0.1,0,3.7-7.2,6.3-9.4c1.1-0.9,1.9,2.5,3.3,3.4c1.1,0.7,4.6,2,5.1,2.5
	c0,0-0.6,0.3-1.3,1.2c-1.1,1.2-3.7,5.4-5,6.6c-1.1,1-4,4.8-4.7,5.7c-1.3,1.7-4.3,2.9-6.3,3.9c-1.6,0.8-6.1,2.8-8.6,3.8
	c-1.5,0.6-7.3,7.5-7.8,7.9c-0.7,0.7-1,2.3-2.6,5.7c-1,2.1-1.4,2.2-1.9,4c-0.5,1.5-0.1,8.2,0.2,9.1c0,0,0.1,0.3,0.9,3.1l0.5,1.9
	c-0.3,0.7-2.5,0-6,0.2s-3.9,0.9-5.6,0.5c-1.9-0.4-2.1-1.2-4.3-2c-1.9-0.6-4.2-0.5-4.8-0.3c-1.9,0.5-2.1,1.1-4.2,1.9
	c-0.6,0.2-0.3,0-2,0.3c-2.9,0.5-4.6,0.5-6.3,0.4c-1.6-0.2-1.8-0.4-1.9-0.5c-0.8-1,0.1-2.7,0.8-6c0.2-1.1,0.8-3.5,0-6.5
	c-0.3-1.2-1.3-2.2-2.9-5c-1.9-3.3-1.7-3.4-2.3-5.2c-0.3-0.9-0.4-0.9-3.3-3.6c-2.8-2.6-2.6-2.3-4.1-3.9c-1.3-1.4-4.2-5-6.5-4.9
	c-1.1,0-13.2-3-14.9-4.7c-0.9-1-7.3-10.3-7.6-10.7c-1.4-2.2,0.4-3.9,1-4.4c1.9-1.7,2.4-1.4,3.8-3c1.5-1.7,2.1-3.8,2.8-1.9
	c0.4,0.9,5.5,11.3,7.2,12.1c2.9,1.3,16.3,5.7,17.9,6.2c3.5,1,5.1,1.7,8.3,0.9c1.3-0.3,2.6-1,5.4-1.6c3.4-0.8,3.9-0.6,4.3-0.3
	c1.2,0.9,0.3,2.5,1.6,4.1c1.3,1.6,3.7,1.6,4.5,1.6c0.9,0,2.7,0,4.1-1.2C104.6,74.6,103.7,73,105.1,71.8z"/>
<polygon fill="#FFDE17" stroke="#000000" stroke-miterlimit="10" points="107.1,81.8 114.5,88.8 107.7,99.3 93.3,99.8 85.9,89.9 
	92.9,82.2 "/>
<polygon fill="#FFFFFF" stroke="#000000" stroke-miterlimit="10" points="109.2,89 105,95.7 96.5,95.9 91.1,89.6 93.5,86.3 
	106.3,85.9 "/>
<path fill="#FFDE17" stroke="#000000" stroke-miterlimit="10" d="M117.7,113.2c0.4,1.4,0.8,2.7,1.3,4.1l-12.1,0.4l-1.5-4.4
	L117.7,113.2z"/>
<polygon fill="#FFDE17" stroke="#000000" stroke-miterlimit="10" points="91.8,114 92,118.9 81,118.5 82.1,114 "/>
<path fill="#ED1C24" stroke="#000000" stroke-miterlimit="10" d="M105.1,114c0.2,0.3,1.5,2.6,0.5,4.8c-1.3,2.9-5.3,3.2-6.1,3.2
	c-0.9,0-5.3,0.1-7-3.1c-0.1-0.1-1.4-2.7-0.2-5c1.7-3.4,6.6-2.9,7.2-2.9C100.4,111.1,103.5,111.4,105.1,114z"/>
<path fill="#FFFFFF" stroke="#000000" stroke-miterlimit="10" d="M102.1,114.9c0.7,1,0.7,2.6-0.1,3.6c-1.2,1.6-3.8,1.3-5.2,0.2
	c-0.8-0.6-1.7-2-1.2-3.1c0.4-1.2,1.9-1.5,2.6-1.6C98.7,113.8,101,113.3,102.1,114.9z"/>
<path fill="#006838" stroke="#000000" stroke-miterlimit="10" d="M119,118c0,0,1.2,3.1,2.4,6.7c0.2,0.6,1,3.3,1.5,4.8
	c3.1,9.5,2.7,19.2,3.8,20.1c1.4,1.2,1.6,2.2,2.1,4c0.5,2.2,0.6,3.4,0.7,5.4c0.1,1,0.6,1.8,0.5,2.4c-0.2,1-1.7,1.4-2.7,1.8
	c-0.6,0.2-3.1,0.6-5.1,0.6c-2.1-0.1-4.7-1-4.7-1v-0.7c0,0-0.3-2.5-0.8-3.8c-1.4-3.7-3.3-6.1-5.8-8.8c-7.8-8.4-8.4-13-10.1-13.5
	c0,0-2.9,4.7-11,15.1c-2.4,3.2-4.4,5.3-4.4,8.5c0,1.9,0.7,3.7-0.4,4.9c-0.2,0.3-0.7,0.6-3.5,0.9c-5.1,0.5-6.7-0.4-7.1-0.7
	c-0.5-0.3-1.5-0.9-1.6-1.8c-0.1-0.8-0.2-1.5-0.1-2.6c0.3-2.6,0.1-3.3,1.4-5.6c0.6-1,0.9-2.4,1.4-3.6c1.1-2.6-0.4-9.9,0.9-16.9
	c0.7-3.9-0.1-6.9,1.1-8.2c2.1-2.2,3.4-6.8,3.4-6.8s9.9-0.8,11-0.1c2.8,1.9,2.5,3,7.6,2.8c4.4-0.2,6.1-3.2,7.3-3.6
	C110.7,117.2,119,118,119,118z"/>
<path stroke="#000000" stroke-miterlimit="10" d="M131.4,165.4c-0.1-1.8,0-3.3-0.9-3.7c-0.5-0.2-0.9,0-2,0.4c-1.3,0.5-2.7,1-4.1,1.1
	c-2.2,0.1-6.4-0.2-6.7,0.2c-1.2,1.5,1.5,5.6,3.5,8.5c2.8,4.3,3.7,4.3,4.1,6.4c0.4,1.9-0.2,2.4,0.2,6.7c0.3,3.2,0.7,4,0.9,4.5
	c0.4,0.7,1,1.6,3.9,3.8c3,2.2,4.4,3.4,5.7,3.7c0.4,0.1,4.7,1.2,7.6-1.2c0.5-0.4,1.4-1.1,1.6-2.3c0.1-0.5,0.3-1.9-2.2-4.8
	c-2.5-3-4.1-3.1-7.3-6.5c-1.2-1.3-1.9-2-2.3-2.9c-1.1-2.2-0.4-3.2-0.8-7.5C132.2,168.1,131.6,168.7,131.4,165.4z"/>
<path stroke="#000000" stroke-miterlimit="10" d="M83.4,170c0.9-1.9,2.5-5.1,1.5-6c-0.5-0.4-1.2,0-3.5,0.5c-2.5,0.5-5.2,1-7.1-0.3
	c-1.2-0.8-1.2-1.9-1.7-1.8c-1.4,0.2-1.7,7.9-1.7,9.6c-0.2,6.8,0.7,7.2-0.2,9.5c-0.7,1.7-1.2,1.8-6.8,7.9c-4,4.4-4.9,5.7-4.6,7.1
	c0.5,2,3.2,3,3.8,3.2c3.2,1.1,6.2-0.3,6.7-0.6c1.7-0.9,1.5-1.5,5.1-4.8c2.6-2.4,2.9-2.2,3.3-3.1c0.8-1.8,0-2.9-0.1-7.5
	c0-1.5,0-2.2,0.1-3C78.5,176.6,80.8,175.4,83.4,170z"/>
<path fill="#27AAE1" stroke="#000000" stroke-miterlimit="10" d="M86.5,157c0.5,0.5,9-3.4,14.5-3.3c8.3,0.2,14.3,4,15,3
	c0.8-1.1-3.2-3.5-7.8-9.8c-2.2-3-6.5-10.9-7.4-10.9c-0.8,0-4.3,6.3-7.9,11C89.1,151.8,86.1,156.6,86.5,157z"/>
<path fill="#C49A6C" stroke="#C49A6C" stroke-miterlimit="10" d="M96.1,73.5c0,0-0.5-5.6-1-8.8c0,0-2.8,1.5-10.3-1.1
	c-0.9-0.3-3.9-0.8-7.6-4.3c-1.7-1.6-2-3.8-2.4-5.3c-0.8-3.1,0.1-3.4,0.1-7.2c0,0,0.8-0.2-1.2-1.8c-0.3-0.2-1.5-0.1-1.8,0
	c-0.7,0.4-1.9,0.8-3.2,0.5c-2-0.5-2.8-2.5-3.3-3.7c-0.4-0.9-1.4-3.4-0.2-4.7c0.9-0.9,2.6-0.8,3.8-0.4c3.4,1.1,4.1,5.4,5.2,5.2
	c0.9-0.2-0.3-1.9,0.7-6.9c0.3-1.4,0.1-1.8,1.6-4.7c1-2,2.1-4.7,4-5.9c1.9-1.2,3.8-2.5,8.9-3.1c5.7-0.6,6.6-0.3,12.9-0.8
	c2.7-0.2,6.5-0.3,12.2,2c2.1,0.9,3.8,9.1,4.6,10.1c3.1,3.9,0.1,4.9,0.5,5.9l0,0c0.3,0.1,1.2-1.3,2.4-2.3c0.4-0.3,1.6-1.2,3.3-1.3
	c1.1,0,3.1,0.3,3.8,1.4c1.7,2.8-1.4,5.7-4.8,7.6c-3.6,2-1.9,10.5-3.3,13.5c-1.2,2.4-2.8,4.4-6.9,5.9c-4.9,1.9-9.5,2.4-11.6,1.4l0,0
	c-1.7,3.1-0.1,6.2-0.1,6.2c0,0.4,0.1,1,0.1,1.7c-0.4,0.4-1.2,0.9-2.3,1.2c-0.3,0.1-0.7,0.2-1.1,0.2C97.4,74.4,96.1,73.5,96.1,73.5z"
	/>
<path fill="none" stroke="#A97C50" stroke-miterlimit="10" d="M70.9,42.2c0.2-0.3-0.5-1.2-1.4-1.6c-1-0.5-2.2-0.2-2.3,0.1
	C67.2,41.3,70.6,42.7,70.9,42.2z"/>
<path fill="none" stroke="#A97C50" stroke-miterlimit="10" d="M121.7,41.2c-0.1-0.3,1-1.3,2.3-1.8c1.1-0.4,2.6-0.4,2.6-0.1
	C126.8,39.8,122,41.7,121.7,41.2z"/>
<g>
	<path fill="#FFFFFF" stroke="#000000" stroke-miterlimit="10" d="M92.3,43.3c-1,0.6-2-1-4.8-0.9c-2.6,0.1-3.6,1.5-4.4,0.9
		c-1.1-0.7-0.2-3.6,0.8-6.9c0.8-2.6,1.5-3.8,2.6-4.5c0.4-0.3,1.3-0.9,2.3-0.8c0.4,0.1,1.5,0.4,2.7,3.6
		C91.6,35.3,94.2,42.1,92.3,43.3z"/>
	<path fill="#2E3192" stroke="#000000" stroke-miterlimit="10" d="M90.7,41.5c1.4-2,0.5-4.4,0.3-4.8c-0.1-0.2-1.4-3.1-3.5-3
		c-2,0.1-2.9,2.8-3.1,3.2c-0.7,2,0.7,5.9,3.3,5.6C89.5,42.4,89.6,43.1,90.7,41.5z"/>
	<path fill="#27AAE1" stroke="#000000" stroke-miterlimit="10" d="M87.6,42.4c1.2-0.1,1.6-0.3,1.6-1.7c0-0.6-0.4-2.3-1.6-2.3
		s-1.6,0.5-1.6,2C86,41.5,86.4,42.5,87.6,42.4z"/>
</g>
<g>
	<path fill="#FFFFFF" stroke="#000000" stroke-miterlimit="10" d="M112.1,42.6c-1,0.6-2-1-4.8-0.9c-2.6,0.1-3.6,1.5-4.4,0.9
		c-1.1-0.7-0.2-3.6,0.8-6.9c0.8-2.6,1.5-3.8,2.6-4.5c0.4-0.3,1.3-0.9,2.3-0.8c0.4,0.1,1.5,0.4,2.7,3.6
		C111.5,34.7,114.1,41.4,112.1,42.6z"/>
	<path fill="#2E3192" stroke="#000000" stroke-miterlimit="10" d="M110.5,40.9c1.4-2,0.5-4.4,0.3-4.8c-0.1-0.2-1.4-3.1-3.5-3
		c-2,0.1-2.9,2.8-3.1,3.2c-0.7,2,0.7,5.9,3.3,5.6C109.3,41.7,109.4,42.4,110.5,40.9z"/>
	<path fill="#27AAE1" stroke="#000000" stroke-miterlimit="10" d="M107.5,41.7c1.2-0.1,1.6-0.3,1.6-1.7c0-0.6-0.4-2.3-1.6-2.3
		s-1.6,0.5-1.6,2C105.9,40.8,106.3,41.9,107.5,41.7z"/>
</g>
<path fill="none" stroke="#000000" stroke-miterlimit="10" d="M91.6,26.7c-1.8-0.5-5.2,0.2-7.7,3.3"/>
<path fill="none" stroke="#000000" stroke-miterlimit="10" d="M111.7,29c-0.1-1.7-3.6-2.9-8-2.7"/>
<line fill="none" stroke="#000000" stroke-miterlimit="10" x1="89.8" y1="31.6" x2="89.8" y2="31.6"/>
<g>
	<path fill="none" stroke="#A97C50" stroke-miterlimit="10" d="M100.9,49c-0.2-0.2-1.3-1.1-2.9-0.9c-1.3,0.2-2.8,1.4-2.8,2.8
		c0,1.1,0.8,2,1.7,2.4c1,0.5,2.3,0.4,3.3-0.4"/>
</g>
<path fill="none" stroke="#BE1E2D" stroke-miterlimit="10" d="M115.1,54.8c-0.5-0.7-1.9-1.4-1.9-1.4s-1.1,1.6-1.9,2.7
	c-2.6,3.7-6.6,4.8-8,5.1c-2.2,0.5-3.9,0.4-5.6,0.3c-1.3-0.1-3.3-0.1-5.6-1.1c-1.2-0.6-2.5-1.2-4.3-2.4c-2-1.3-2.3-1.8-2.3-1.8
	c-1.4-1.2-1.7-1.5-1.7-1.5s-0.7,0.8-0.9,1.4"/>
<path fill="#3C2415" stroke="#603913" stroke-miterlimit="10" d="M123.9,32c0.4-1.7,0.9-2.9,1.1-5.7c0.1-2,0.2-4.6-0.5-7.8
	c-0.6-2.9-1.2-5.4-3.3-7.6c-1.6-1.7-3.4-2.6-4.3-3c-1.1-0.6-2-0.9-3.8-1.5c-1.7-0.6-2.9-0.8-2.7-0.6c0.4,0.6,3.2,3.4,3.6,7.9
	c0.1,0.9,0.3,2.9-0.8,4.5c-1,1.5-2.5,1.9-2.4,2.5c0.2,0.7,2.4,0.1,4.1,1.3c0.6,0.4,0.8,0.9,2.1,4.3c1.5,4.1,1.5,4.5,2.4,6.5
	c0.5,1,1.5,3.1,1.5,3.1l0,0C120.8,35.9,123,35.2,123.9,32z"/>
<path fill="#3C2415" stroke="#603913" stroke-miterlimit="10" d="M105.1,2.3c-1.4-0.6-3.7-1.5-7.2-1.9C95.1,0,91-0.5,86.1,0.9
	C84,1.5,76.9,3.6,73.7,9.6c-2.3,4.3-1.2,5.4-2,11.5c-0.2,1.4-5.8,3.3-3.6,12.1c0.3,1,0.8,2,1.2,2.6c1.1,2,3.5,5.4,4.6,5
	s-0.4-3.6,1-8.4c0.3-1.2,1.2-4.1,3.7-6.7c2.1-2.1,4.3-3,5.5-3.5c2.4-0.9,3.4-0.7,10.3-1.2c8.4-0.6,8.2-0.9,10.1-0.6
	c2.3,0.3,2.9,0.3,5.1,0.2c1.8-0.1,3.2-2,3.5-2.6c1.6-3.2,0.3-6.7-0.3-8.1c-0.4-1.1-1.3-3-3.1-4.8C108.1,3.7,106.6,3,105.1,2.3z"/>
<path fill="#FFF200" stroke="#000000" stroke-miterlimit="10" d="M104.4,71.5c-0.1-0.1,0,0.3-0.9-0.1c-0.8-0.4-0.7-0.3-0.7-0.3
	s0.1,1.2-0.2,2.1c-0.4,1.3-2.2,1.9-2.8,2c-0.7,0.1-3.3,0.2-4.1-0.9c-0.7-0.9-0.7-3-0.7-3l-2.3,0.1c0,0,0.6,3.2,1.6,4.3
	c1.3,1.3,2.7,1.5,3.7,1.5c1,0.1,3.2,0.2,4.9-1.2C104.3,74.7,105,72.1,104.4,71.5z"/>
<use xlink:href="#Brown_Hair_4"  width="22.6" height="15.3" x="-11.3" y="-7.7" transform="matrix(-1.6182 -0.2622 0.1619 -0.9992 92.8248 15.6167)" overflow="visible"/>
<use xlink:href="#Brown_Hair_4"  width="22.6" height="15.3" x="-11.3" y="-7.7" transform="matrix(-1.4956 -0.2424 0.1486 -0.9177 90.9803 9.8418)" overflow="visible" enable-background="new    "/>
<use xlink:href="#Brown_Hair_1"  width="16.2" height="6.8" x="-8.1" y="-3.4" transform="matrix(-0.3736 -0.7387 0.7676 -0.3883 120.3416 16.9559)" overflow="visible"/>
<use xlink:href="#Brown_Hair_1"  width="16.2" height="6.8" x="-8.1" y="-3.4" transform="matrix(-0.3666 -0.7038 0.6972 -0.3632 120.6423 23.7925)" overflow="visible" enable-background="new    "/>
<g>
	<path fill="#2E3192" stroke="#000000" stroke-miterlimit="10" d="M40.6,61c-4.6-2.6-3.1-17.2-10.4-17.8c-4.1-0.3-4.8-1.3-4.8-1.5
		s4.7,0,4.6-1.5c-0.1-1.4-5.1-1.3-5.1-1.1s5-0.4,4.9-1.8c-0.1-1.2-5.5-0.3-5.5-0.4s5.3-1.2,5.2-1.9c-0.1-1-5.5-0.7-5.5-0.7
		s5.2-0.1,5.3-0.8c0.2-1.3-5.7-2.2-5.5-2.2c0.1,0,3.8,1.4,4.6,0.4c0.7-1-1.2-3.3-0.9-4.7c0.1-0.8,1.8-1.3,2.4-0.5
		c0.8,1.1,1.4,2.7,1.5,3.5c0.1,1.8,0.6,3.6,6.3,10.3C47.4,51.9,51.7,53.9,51,57C49.9,60.3,43.8,62.8,40.6,61z"/>
	<path fill="none" stroke="#000000" stroke-miterlimit="10" d="M23.7,31.3c0,1.1,0.1,2.1,0.2,3c0.1,1,0.2,1.8,0.3,2.7
		c0.1,0.8,0.2,1.6,0.3,2.2c0.3,1.6,0.6,2.5,0.9,2.5"/>
	<g>
		<g>
			<path d="M24.1,32.2c0,0.7-0.1,1.6,0.7,1.7c0.4,0,0.6,0,0.9,0C26,34,26.3,34,26.6,34c0.6,0,1.2-0.2,1.7-0.4c0.3-0.1,0.3-0.5,0-0.5
				c-0.7-0.2-1.4-0.5-2.1-0.7c-0.5-0.2-1.1-0.4-1.6-0.4c-0.1,0-0.2,0.1-0.2,0.2c-0.1,0.4-0.2,1,0.3,1.1c0.2,0,0.5,0,0.7,0.1
				s0.4,0.2,0.7,0.2c0.4,0.1,0.7,0.1,1,0.1s0.2-0.5,0-0.5c-0.8-0.3-1.5-0.6-2.3-0.6c-0.4,0-0.4,0.5,0,0.6c0.7,0.1,1.4,0.4,2.1,0.6
				c0-0.2,0-0.4,0-0.5c-0.6,0.1-1.1-0.3-1.6-0.4c-0.1,0-0.3,0-0.4,0c-0.2-0.1,0-0.1,0.2-0.1c0.4,0,1,0.3,1.4,0.5
				c0.5,0.2,1,0.4,1.6,0.6c0-0.2,0-0.4,0-0.5c-0.4,0.2-0.9,0.3-1.3,0.3c-0.6,0.1-1-0.1-1.5-0.2c-0.2,0-0.5,0.1-0.6,0.1
				c-0.2,0,0.1,0,0.1,0c-0.1-0.1-0.1-0.9-0.1-1.1C24.6,31.8,24.1,31.8,24.1,32.2L24.1,32.2z"/>
		</g>
	</g>
	<g>
		<g>
			<path d="M24.3,35c0.1,0.5,0.1,1,0.2,1.4c0,0.2,0.4,0.4,0.5,0.1c0.2-0.5,1.3-0.5,1.7-0.6c0.6-0.1,1.1-0.3,1.6-0.5
				c0.2-0.1,0.3-0.3,0.1-0.5c-0.5-0.5-1.3-0.4-1.9-0.4c-0.4,0-1.7-0.2-1.9,0.4c-0.1,0.4,0.2,0.8,0.5,0.8c0.4,0,0.9-0.2,1.3-0.2
				c0.5,0,0.9,0,1.4-0.2c0.3-0.1,0.2-0.6-0.1-0.5c-0.5,0.2-1,0.1-1.6,0.1c-0.3,0-0.9,0.1-1,0.1c0.8,0,2.3-0.5,2.9,0.1
				c0-0.2,0.1-0.3,0.1-0.5c-0.8,0.3-1.6,0.5-2.4,0.7c-0.5,0.1-1,0.2-1.3,0.7c0.2,0,0.3,0.1,0.5,0.1c-0.1-0.5-0.1-1-0.2-1.4
				C24.8,34.7,24.2,34.7,24.3,35L24.3,35z"/>
		</g>
	</g>
	<g>
		<g>
			<path d="M26,35.4c0.3,0,0.6-0.1,0.8,0c0.2,0,0.3,0.2,0.5,0.2c0.4,0.1,1.1,0,1.5-0.1c0.1,0,0.2-0.1,0.2-0.3l0,0
				c0-0.1-0.1-0.2-0.1-0.2l0,0c-0.3-0.2-0.6,0.3-0.3,0.5l0,0c0-0.1-0.1-0.2-0.1-0.2l0,0c0.1-0.1,0.1-0.2,0.2-0.3
				c-0.2,0.1-0.6,0.1-0.8,0.1c-0.3,0-0.4,0-0.6-0.1c-0.4-0.2-0.9-0.1-1.3,0C25.6,34.9,25.6,35.4,26,35.4L26,35.4z"/>
		</g>
	</g>
	<g>
		<g>
			<path d="M24.7,36.1c0.1,0,0.3,0,0.4,0c0.4,0,0.4-0.6,0-0.6c-0.1,0-0.3,0-0.4,0C24.4,35.6,24.4,36.1,24.7,36.1L24.7,36.1z"/>
		</g>
	</g>
	<g>
		<g>
			<path d="M24.7,37.8c1.5-0.1,3-0.1,4.5-0.2c0-0.2,0-0.4-0.1-0.5c-0.9,0.3-1.8,0.6-2.8,0.9c-0.2,0.1-0.5,0.1-0.7,0.2
				c-0.1,0-0.2,0.1-0.3,0.1c-0.1,0.1-0.1,0.1-0.1-0.1c0-0.1,0-0.2-0.1-0.2c-0.1-0.1-0.1-0.1,0.1,0c0.2-0.1,0.7,0,0.9,0
				c0.4,0,0.7-0.1,1.1-0.1c0.1,0,0.9-0.2,0.9-0.1c-0.1-0.1-0.5,0-0.6,0c-0.3,0-0.5,0.1-0.7,0.2c-0.2,0.1-0.4,0.2-0.5,0.3
				c-0.2,0.1-0.3,0.1-0.5,0c-0.3,0-0.4-0.1-0.3-0.3c0.1,0.2,0.1,0.3,0.2,0.5c0,0,0.1,0,0.1-0.1c0.4,0,0.4-0.6,0-0.6
				c-0.3,0-0.3,0.1-0.5,0.2c-0.2,0.2,0,0.5,0.2,0.5c0.5,0.1,0.7-0.6,0.2-0.9c-0.5-0.3-0.9,0.2-0.8,0.7c0.1,0.8,0.9,0.7,1.6,0.5
				c0.2-0.1,0.5-0.2,0.7-0.3c0.3-0.1,0.7-0.1,1-0.2c0.2-0.1,0.5-0.2,0.7-0.4c0.3-0.7-0.7-0.6-1.1-0.6c-0.8,0.1-1.5,0.2-2.3,0.2
				C25.2,37.5,24.9,37.4,24.7,37.8c-0.2,0.2,0.1,1,0.5,1.1c0.4,0.1,1.5-0.4,1.9-0.6c0.8-0.3,1.5-0.5,2.3-0.8
				c0.3-0.1,0.3-0.6-0.1-0.5c-1.5,0.1-3,0.1-4.5,0.2C24.3,37.3,24.3,37.8,24.7,37.8L24.7,37.8z"/>
		</g>
	</g>
	<g>
		<g>
			<path d="M25,40.1c0.8-0.1,1.6-0.1,2.4-0.1c0.4,0,0.7,0.1,1.1,0.1c0.5,0.2,0.7,0.2,0.4,0c-0.2,0.1-0.5,0.2-0.7,0.3
				c-0.6,0.2-1.6,0.6-2.2,0.5c-0.4-0.1-0.5-0.2-0.3-0.5c0.1,0,0.2,0,0.3,0c0.2-0.1,0.6-0.1,0.9-0.2c0.3-0.1,1.2-0.3,0.7,0.1
				c-0.2,0.1-0.9,0.2-1.1,0.2c-0.6,0-0.2,0,0.1-0.1c0.3-0.1,0.6-0.1,0.9-0.2c0.3,0,0.6-0.1,0.9-0.2c-0.2,0-0.4,0.1-0.6,0.1
				c-0.3,0.1-0.6,0.1-0.9,0.2c-0.2,0.1-0.4,0.1-0.6,0.2c0,0.2,0.2,0.3,0.4,0.1c0.3,0,0.7-0.2,1.1-0.3s0.2-0.6-0.1-0.5
				c-0.5,0.1-2.4,0.4-1.7,1.3c0.1,0.1,0.2,0.1,0.3,0.1c0.7-0.3,1.4-0.5,2.1-0.6c0.3-0.1,0.6-0.1,0.7-0.4c0.1-0.8-1.2-0.6-1.6-0.5
				c-0.5,0.1-2.1,0.1-2,1c0.1,1,1.9,0.3,2.3,0.2s1.5-0.5,1-1.1c-0.3-0.3-0.9-0.3-1.2-0.3c-0.2,0-0.5,0.1-0.7,0.1
				c-0.4,0.1-0.8,0.1-1.2,0.1c-0.6,0.1-0.5,0.9-0.2,1.4c0.5,0.7,2.2,0.1,2.8-0.1c0.3-0.1,2.1-0.7,1.3-1.3c-0.3-0.3-1.3-0.2-1.7-0.2
				c-0.9-0.1-1.8,0-2.7,0.1C24.6,39.5,24.6,40.1,25,40.1L25,40.1z"/>
		</g>
	</g>
</g>
<g>
	<path fill="#2E3192" stroke="#000000" stroke-miterlimit="10" d="M154.8,61.2c4.3-3.1,1-17.5,8.2-18.9c4-0.8,4.6-1.9,4.6-2.1
		c0-0.2-4.7,0.6-4.8-1c0-1.4,4.9-1.9,5-1.7c0,0.2-5,0.2-5.1-1.2c0-1.2,5.4-1,5.4-1s-5.4-0.6-5.4-1.2c0-1,5.4-1.3,5.4-1.4
		c0-0.1-5.2,0.5-5.4-0.2c-0.3-1.2,5.4-2.9,5.2-2.9c-0.1,0-3.6,1.9-4.5,0.9c-0.8-0.9,0.8-3.4,0.4-4.7c-0.2-0.8-1.9-1.1-2.4-0.2
		c-0.6,1.2-1.1,2.9-1,3.7c0.1,1.8-0.2,3.6-5,10.9c-8.2,12.7-12.3,15.2-11.2,18.2C145.5,61.6,151.8,63.4,154.8,61.2z"/>
	<path fill="none" stroke="#000000" stroke-miterlimit="10" d="M167.9,29.7c0.1,1.1,0.1,1.3,0.2,2.3c0,1,0.2,3.1,0.2,3.9
		s-0.1,0.5-0.1,1.2c-0.1,1.7-0.3,2.7-0.6,2.7"/>
	<g>
		<g>
			<path d="M167.3,30.7c0,0.2,0,0.6,0.1,0.8c0,0.2,0,0.2,0.2,0.1c0.2,0,0.3,0,0.1,0c-0.3-0.1-0.7,0-1,0.1c-1.1,0.3-2,0.4-3.1,0.2
				c0,0.4,0,0.7,0,1.1c0.6-0.2,1.2-0.5,1.8-0.8c0.6-0.2,1.5-0.8,2.1-0.8c-0.2-0.1-0.3-0.2-0.5-0.3c0,0.1,0,0.3,0,0.4
				c0.1-0.2,0.2-0.3,0.3-0.5c-0.1,0-0.8,0.1-1,0.2c-0.5,0.2-1,0.5-1.6,0.5c0,0.4,0,0.7,0,1.1c0.2,0,0.6,0.5,0.7,0.6
				c0.3,0.1,0.5,0.1,0.8,0c0.6-0.3,0.7-1.3,1.3-1.5c0.7-0.2,0.4-1.3-0.3-1.1c-0.6,0.2-0.8,0.8-1.2,1.3c-0.3,0.4-0.2,0.2-0.5-0.1
				c-0.2-0.2-0.4-0.3-0.7-0.3c-0.7,0.1-0.7,1.1,0,1.1c0.5,0,1-0.1,1.5-0.3c0.3-0.1,0.5-0.2,0.8-0.3c0.1,0,0.5,0,0.7-0.1
				c0.7-0.3,0.6-1,0.3-1.6c-0.1-0.2-0.3-0.3-0.5-0.3c-0.7,0-1.4,0.4-2,0.6c-0.8,0.3-1.5,0.7-2.3,1c-0.5,0.2-0.6,1,0,1.1
				c0.7,0.1,1.3,0.2,2,0.2s1.4-0.4,2.1-0.4c0.4,0,0.8,0.1,1.1-0.3c0.3-0.4,0.2-1.2,0.1-1.7C168.3,30,167.2,30,167.3,30.7L167.3,30.7
				z"/>
		</g>
	</g>
	<g>
		<g>
			<path d="M167.4,33.1c0,0.5,0,1,0,1.6c0.3-0.1,0.7-0.2,1-0.3c-0.4-0.6-0.9-0.7-1.6-0.7c-1.1-0.1-2.1-0.2-3.1-0.4
				c0.1,0.3,0.2,0.6,0.2,0.9c0.4-0.4,1.1-0.4,1.7-0.4c0.4,0,1.5-0.2,1.7-0.1c-0.1-0.2-0.2-0.3-0.3-0.5c0,0.5,0.1,1.1,0,1.6
				c0.4,0,0.7-0.1,1.1-0.1c0-0.2,0-0.9-0.2-1.2C167.8,33.3,167.6,33.2,167.4,33.1c-0.5,0.1-1,0.1-1.5,0.1c-0.6,0.1-1.1,0.2-1.7,0.1
				c-0.7-0.1-1,1-0.3,1.1c0.6,0.1,1.1,0.1,1.7,0c0.6-0.1,1.2,0,1.8,0c-0.2-0.1-0.3-0.2-0.5-0.3c0.1,0.1,0,0.7,0.1,1
				c0.1,0.6,1.1,0.5,1.1-0.1s0.2-2-0.6-2.2c-0.3-0.1-0.8,0-1.1,0c-0.5,0-1,0.1-1.5,0.1c-0.7,0.1-1.3,0.1-1.8,0.7
				c-0.2,0.3-0.2,0.8,0.2,0.9c0.7,0.1,1.3,0.2,2,0.3c0.5,0.1,1.8-0.1,2.1,0.3c0.3,0.4,1,0.3,1-0.3c0-0.5,0-1,0-1.6
				C168.5,32.4,167.4,32.4,167.4,33.1L167.4,33.1z"/>
		</g>
	</g>
	<g>
		<g>
			<path d="M166.5,33.1c-0.4,0-0.8,0-1.2,0.1c-0.2,0.1-0.4,0.2-0.6,0.3c-0.2,0-0.6,0.1-0.8,0c0.1,0.1,0.1,0.1,0.2,0.2l0,0
				c0,0.1-0.1,0.2-0.1,0.3l0,0c0.3-0.2,0-0.7-0.3-0.5l0,0c-0.1,0.1-0.2,0.2-0.1,0.3l0,0c0,0.1,0.1,0.2,0.2,0.2
				c0.4,0.1,1.1,0.1,1.5,0c0.2,0,0.2-0.2,0.4-0.3c0.3-0.1,0.7-0.1,1-0.1C166.9,33.6,166.9,33,166.5,33.1L166.5,33.1z"/>
		</g>
	</g>
	<g>
		<g>
			<path d="M167.8,33.6c-0.1,0-0.3,0-0.4,0c-0.4,0-0.4,0.6,0,0.6c0.1,0,0.3,0,0.4,0C168.2,34.2,168.2,33.6,167.8,33.6L167.8,33.6z"
				/>
		</g>
	</g>
	<g>
		<g>
			<path d="M168.1,35c-1.7,0.1-3.3,0.3-5,0.4c-0.6,0-0.8,1-0.1,1.1c0.9,0.2,1.7,0.3,2.6,0.5c0.7,0.1,1.5,0.4,2.2,0.3
				c0.2,0,0.4-0.1,0.5-0.3c0.2-0.5,0.4-1.3-0.1-1.6c-0.4-0.2-1,0-1.4,0c-0.7,0.1-1.4,0-2.1,0c-0.5,0-1.5,0-1.4,0.8
				c0.1,1,1.4,0.7,2,0.8c0.8,0.1,1.8,0.7,2.6,0.1c0.4-0.3,0.5-1.2,0.1-1.6c-0.4-0.4-1.3-0.1-1.4,0.5c-0.2,0.6,0.4,1,1,0.9
				c0.5-0.1,0.5-0.8,0.1-1c-0.2-0.1-0.4-0.2-0.7-0.2c-0.7,0-0.7,1.1,0,1.1h0.1c0-0.3,0.1-0.7,0.1-1c0.1,0.1,0.3,0.1,0.4,0.2
				c0,0.2-0.1,0.4-0.1,0.5c0.2-0.2-3.2-0.7-3.2-0.7c0,0.2,0,0.4,0,0.6c-0.1,0.3,3.2-0.2,3.3-0.1c-0.1-0.2-0.2-0.3-0.3-0.5
				c0,0.2,0,0.4-0.1,0.5c0.2-0.1,0.3-0.2,0.5-0.3c-0.7,0-1.5-0.2-2.2-0.4c-0.7-0.1-1.5-0.3-2.2-0.4c0,0.4-0.1,0.7-0.1,1.1
				c1.7-0.1,3.3-0.3,5-0.4C168.8,36.1,168.8,34.9,168.1,35L168.1,35z"/>
		</g>
	</g>
	<g>
		<g>
			<path d="M167.9,37.2c-1.4,0-3.4,0.1-4.7,0.8c-0.9,0.5-0.3,1.4,0.4,1.7c1.1,0.6,2.5,1,3.7,0.8c1-0.2,1-1.6,0.7-2.4
				c-0.1-0.3-0.3-0.4-0.5-0.4c-0.8-0.1-1.1,1-1.2,1.6c0,0.1-0.1,0.2-0.1,0.3c0.4,0,0.4-0.1,0.2-0.2c0-0.1-0.4-0.4-0.5-0.5
				c-0.2-0.3-0.5-0.6-0.8-0.9c-0.6-0.4-1.5,0-1.5,0.8c0.1,1.3,2.1,1.3,3,1.4c1,0.1,1.6-0.6,1.2-1.5c-0.1-0.3-0.3-0.8-0.6-1
				c-0.3-0.3-0.5-0.1-0.9,0c-0.8,0.2-2.8-0.2-2.8,1.1c0,0.4,0.2,0.7,0.6,0.8c0.4,0.1,0.9,0.1,1.3,0.2c0.4,0.1,0.9,0.3,1.3,0.4
				c0.2,0.1,0.5-0.1,0.6-0.3c0.9-1.4-1.5-1.8-2.3-1.9c-0.7-0.1-0.7,1,0,1.1c0.3,0,0.6,0.1,0.9,0.2c0.3,0.1,0.3,0.2,0.4,0
				c0.2-0.1,0.4-0.2,0.6-0.3c-0.5-0.2-1-0.4-1.5-0.5c-0.4-0.1-0.9-0.1-1.3-0.2c0.1,0.1,0.3,0.3,0.4,0.4c0,0.1,1.3,0,1.4,0
				c0.2,0,0.4-0.1,0.6-0.2c0.3-0.1,0.4,0-0.1-0.1c-0.1-0.1-0.3-0.3-0.4-0.4c0.1,0.3,0.4,0.5,0.4,0.8c0.1,0.2,0.1,0.2,0,0.1
				c-0.1-0.1-0.3-0.1-0.4-0.1c-0.3-0.1-0.6-0.1-0.9-0.1c-0.2,0-0.4-0.1-0.6-0.1c-0.4-0.1-0.4-0.1-0.2,0.1c0,0.1,0.3,0.3,0.3,0.4
				c0.2,0.3,0.4,0.6,0.7,0.8c0.4,0.4,0.9,0.6,1.4,0.2c0.2-0.2,0.3-0.4,0.4-0.7c0.1-0.2,0.1-0.3,0.2-0.5c0-0.1,0.1-0.2,0.1-0.3
				c0.1-0.2,0.1-0.2-0.1-0.1c-0.2-0.1-0.4-0.3-0.5-0.4c0.1,0.2,0.2,1,0.1,1.1c0,0-0.6,0-0.7,0c-0.8-0.1-1.4-0.4-2.1-0.6
				c-0.3-0.2-0.3-0.2-0.2,0c0,0.2,0.1,0.2,0.4,0c0.3,0,0.7-0.2,1-0.3c0.9-0.2,1.7-0.2,2.6-0.3C168.6,38.3,168.6,37.2,167.9,37.2
				L167.9,37.2z"/>
		</g>
	</g>
</g>
<path fill="#27AAE1" stroke="#000000" stroke-miterlimit="10" d="M67.2,80.3c0,0-0.8-0.3-3.7,1.7C61,83.7,56,87.8,51.7,94.7
	c-4,6.5-3.3,9.1-8.4,16.1c-3.9,5.4-6.6,7-7.6,7.5c-4.1,2.2-8.6,2.6-10.9,2.6c-4.8,0.1-6.5-1.2-7.5-0.1c-1.7,1.9,1.3,8.6,6,12.7
	c2.4,2.1,5.9,3.6,12.7,6.7c3.6,1.6,3.3,1.3,4.4,1.9c6.4,3.6,5.8,7.7,10.6,10.8c4.2,2.7,4.7,3.3,13.2,2.9c4.9-0.2,8,3.2,8.8,1.9
	c0.2-0.3,0.4-0.3,1.1-1.9c0.9-1.9,1.3-3.2,2.1-5.2c0.7-1.7-1.6-7.8,0.1-16c0.8-3.7,1.8-7.5,3-10.5c1.9-4.6,0.5-1.2,1.9-4.6
	c1.1-2.6,2.3-11.3,3.1-13.1c2-4.9-3.9-14-5.1-15.7c-0.4-0.6-5.4-4.1-8.9-7.5C69,82,67.6,80.8,67.2,80.3z"/>
</svg>
