<?xml version="1.0" encoding="utf-8"?>
<!-- Generator: Adobe Illustrator 18.1.0, SVG Export Plug-In . SVG Version: 6.00 Build 0)  -->
<!DOCTYPE svg PUBLIC "-//W3C//DTD SVG 1.1//EN" "http://www.w3.org/Graphics/SVG/1.1/DTD/svg11.dtd">
<svg version="1.1" id="Layer_1" xmlns="http://www.w3.org/2000/svg" xmlns:xlink="http://www.w3.org/1999/xlink" x="0px" y="0px"
	 viewBox="0 0 503.3 608" enable-background="new 0 0 503.3 608" xml:space="preserve">
<symbol  id="Brown_Hair_1" viewBox="-8.1 -3.4 16.2 6.8">
	<g>
		<path fill="#7E5629" d="M-8.1,2.5c0,0,10.4-0.9,16.2-5.9C3.6,2-5.5,4.9-8.1,2.5z"/>
	</g>
</symbol>
<symbol  id="Brown_Hair_4" viewBox="-11.3 -7.7 22.7 15.4">
	<path fill="#7E5629" d="M-11.3,7c0,0,5.6,2.6,10.6-1.9c5-4.6,5.8-10.2,12-12.7C4.7-6.5,2.2,0.9-1,4C-6.1,8.9-10.8,7-11.3,7z"/>
</symbol>
<path fill="#006838" stroke="#000000" stroke-width="3.3239" stroke-miterlimit="10" d="M266.1,216.1c3.7-3.1,9.3-2.1,17.9-0.6
	c4.1,0.7,9.6,1.8,16.4,5.1c10.2,4.9,15.3,10.8,24.7,17.7c13.2,9.6,23.3,20.9,36.4,30.2c0.2,0.1,11,5.3,22.9,14.4
	c3.4,2.5,7,5.5,8.2,10.4c1.4,5.3-0.3,12-3.5,13c-2.1,0.6-3.2-1.7-9.7-5.3c-4.4-2.4-8.1-4.4-12.5-4.1c-4.5,0.4-4.8,2.8-8.3,3.1
	c-6.5,0.5-15.2-8.9-20.2-12c-4.5-2.9-10.4-5.5-17.6-12c-3.6-3.2-5.3-4.1-6.9-5.4c-3.1-2.5-8.6-5.5-14.1,3.9
	c-3.6,6.1-1.6,19.1-1.5,26.4c0.1,4.8,0.1,17.2,2.9,26.2c0,0,0.4,1.9,2.8,9.4l1.7,5.6c-0.8,2.1-7.6-0.1-17.9,0.6
	c-10.5,0.7-11.7,2.8-16.8,1.7c-5.7-1.2-6.2-3.6-12.9-5.9c-5.6-1.9-12.6-1.3-14.5-0.7c-5.6,1.7-6.3,3.3-12.7,5.7
	c-1.8,0.7-0.8-0.1-5.9,0.8c-8.5,1.5-13.9,1.7-19,1.2c-4.7-0.5-5.4-1.2-5.7-1.5c-2.5-3,0.2-8,2.2-17.9c0.6-3.2,2.5-10.6-0.2-19.6
	c-1-3.5-1.3-9-6.2-17.4c-5.8-10-7.8-12.7-10.8-15.8c-2-2.1,0,0-8.7-8c-8.5-7.9-7.9-6.8-12.5-11.6c-4-4.2-15.3-15.5-17.7-19.3
	c-1.8-2.9-27-40.4-32-45.7c-2.8-2.9-19.6-30.6-20.4-31.8c-4.4-6.6,13.6-2.3,11.6-2.3c-9.6-0.3,2.7-4.2,10.7-6.9
	c6.5-2.1,1.8-16.7,4.2-11.3c3.4,7.7,11.8,21.3,19.5,32.2c6.6,9.2,5.1,5.8,13.8,18.7c7.7,11.5,18.5,22,22.1,25.4
	c9.9,9.3,15,13.8,24,9.6c3.6-1.7,7.7-3,16.1-5c10.1-2.4,11.8-1.7,12.9-1c3.7,2.6,0.9,7.6,4.9,12.2c4,4.7,11.1,4.6,13.6,4.6
	c2.7,0,8.2-0.1,12.2-3.8C264.6,224.7,261.8,219.6,266.1,216.1z"/>
<polygon fill="#FFDE17" stroke="#000000" stroke-width="3.3239" stroke-miterlimit="10" points="263.1,250.8 285.1,272 264.8,303.5 
	221.7,305 199.3,275.4 220.5,252.3 "/>
<polygon fill="#FFFFFF" stroke="#000000" stroke-width="3.3239" stroke-miterlimit="10" points="269.4,272.5 256.6,292.6 
	231.1,293.4 215,274.3 222,264.6 260.7,263.3 "/>
<path stroke="#000000" stroke-width="3.3239" stroke-miterlimit="10" d="M386.1,307.3c1.1,3.7-3.2,10.4-11.2,18.9
	c-17.2,18.3-19.6,16-26.6,25.6c-6.8,9.3-8,16.2-17.7,23.6c-4.2,3.2-7.2,4.4-10,3.7c-5.5-1.4-7.6-9.5-8.9-14.3
	c-1.4-5.5-3.2-12.2,0.5-17.4c2.9-4,7.6-5.1,11-6c7.6-1.9,9.6,0.8,13.5-0.5c11.4-3.8,5.2-32.9,18.9-39.9c5.6-2.9,11.9-2.6,15-1.9
	C373.9,299.9,384.6,302.1,386.1,307.3z"/>
<path stroke="#000000" stroke-width="3.3239" stroke-miterlimit="10" d="M119.9,142c4.5-12.8-27-21-27.6-36.3
	c-0.3-7.8,6.4-10.3,4.8-19.3c-1.6-9-9.4-13.8-10.3-14.3c-7.1-4.2-18.3-5.2-22.8,0.4c-2.9,3.5-2.2,8.4-1.6,12.1
	c1.5,10.2,6.4,13.4,11.8,23.5c2.4,4.4,1,3.1,11.5,33.8c3.3,9.8,4.9,14.2,9.1,15.6c6,2.1,14.6-0.8,16.6-2.3
	C113.6,153.5,117.9,147.7,119.9,142z"/>
<path fill="#FFDE17" stroke="#000000" stroke-width="3.3239" stroke-miterlimit="10" d="M304.9,345.4c1.3,4.1,2.5,8.1,3.8,12.2
	l-36.4,1.2l-4.4-13.3L304.9,345.4z"/>
<polygon fill="#FFDE17" stroke="#000000" stroke-width="3.3239" stroke-miterlimit="10" points="227,347.6 227.5,362.6 194.4,361.4 
	197.8,347.9 "/>
<path fill="#ED1C24" stroke="#000000" stroke-width="3.3239" stroke-miterlimit="10" d="M266.9,347.8c0.5,0.8,4.5,7.7,1.6,14.5
	c-3.8,8.8-15.9,9.5-18.2,9.6c-2.7,0.1-15.8,0.4-21.1-9.4c-0.2-0.4-4.2-8-0.5-15.1c5.1-10.1,19.9-8.7,21.6-8.6
	C253,339.1,262.2,340,266.9,347.8z"/>
<path fill="#FFFFFF" stroke="#000000" stroke-width="3.3239" stroke-miterlimit="10" d="M258,350.3c2.2,3.1,2,7.7-0.2,10.7
	c-3.6,4.7-11.5,4-15.7,0.5c-2.3-1.9-5-5.9-3.7-9.4c1.3-3.5,5.7-4.4,7.7-4.7C247.8,347,254.6,345.7,258,350.3z"/>
<path fill="#006838" stroke="#000000" stroke-width="3.3239" stroke-miterlimit="10" d="M308.8,359.9c0,0,3.7,9.4,7.1,20
	c0.6,1.8,2.9,9.8,4.4,14.4c9.2,28.5,8.1,57.6,11.3,60.3c4.3,3.7,4.9,6.6,6.3,12c1.6,6.6,1.8,10.2,2.2,16.2c0.2,3.1,1.7,5.3,1.4,7.2
	c-0.5,2.9-5.1,4.3-8.2,5.3c-1.8,0.6-9.3,1.9-15.2,1.8c-6.4-0.2-14.2-2.9-14.2-2.9l-0.1-2.2c0,0-0.9-7.6-2.4-11.3
	c-4.3-11.1-9.8-18.3-17.3-26.4c-23.4-25.2-25.2-39-30.3-40.6c0,0-8.8,14.1-33,45.5c-7.3,9.5-13.2,16-13.2,25.7
	c0,5.7,2.1,11.1-1.2,14.6c-0.7,0.8-2.1,1.8-10.6,2.6c-15.3,1.4-20-1.2-21.4-2.1c-1.6-0.9-4.4-2.8-4.7-5.5c-0.2-2.5-0.7-4.6-0.3-7.8
	c1-7.7,0.4-9.8,4.2-16.8c1.7-3.1,2.8-7.2,4.3-10.9c3.3-7.9-1.3-29.7,2.6-50.7c2.1-11.6-0.2-20.8,3.3-24.6
	c6.2-6.5,10.3-20.3,10.3-20.3s29.8-2.3,33-0.2c8.5,5.6,7.4,8.9,22.8,8.4c13.3-0.5,18.2-9.6,21.8-10.7
	C283.8,357.4,308.8,359.9,308.8,359.9z"/>
<path stroke="#000000" stroke-width="3.3239" stroke-miterlimit="10" d="M346.1,502.2c-0.3-5.4-0.1-9.9-2.6-11.1
	c-1.4-0.7-2.7,0.1-6.1,1.3c-4,1.4-8.2,2.9-12.2,3.2c-6.7,0.4-19.2-0.6-20.2,0.7c-3.5,4.4,4.6,16.7,10.4,25.5
	c8.5,12.8,11,12.8,12.4,19.2c1.3,5.8-0.5,7.1,0.7,20.2c0.8,9.5,2.1,12.1,2.7,13.4c1.1,2.2,2.9,4.8,11.6,11.4
	c8.9,6.7,13.3,10.1,17.2,11.2c1.1,0.3,14,3.7,22.9-3.6c1.5-1.2,4.1-3.4,4.8-6.9c0.3-1.4,0.8-5.6-6.7-14.4c-7.6-9-12.3-9.4-22-19.5
	c-3.7-3.9-5.6-5.9-7-8.7c-3.2-6.5-1.1-9.5-2.4-22.4C348.4,510.3,346.7,512.3,346.1,502.2z"/>
<path stroke="#000000" stroke-width="3.3239" stroke-miterlimit="10" d="M201.8,516.1c2.7-5.6,7.4-15.4,4.4-18.1
	c-1.5-1.3-3.6,0.1-10.6,1.5c-7.6,1.4-15.7,3-21.4-1c-3.6-2.5-3.7-5.6-5.2-5.4c-4.3,0.5-5,23.9-5.2,28.8c-0.7,20.3,2,21.5-0.7,28.6
	c-2,5.2-3.7,5.4-20.5,23.7c-12.1,13.1-14.8,17-13.9,21.2c1.4,6.1,9.5,9,11.5,9.7c9.7,3.4,18.6-1,20.1-1.8c5.2-2.7,4.5-4.6,15.2-14.5
	c7.9-7.3,8.6-6.6,9.8-9.3c2.4-5.3-0.1-8.8-0.2-22.4c0-4.4-0.1-6.5,0.3-9C187.1,536,193.9,532.4,201.8,516.1z"/>
<path fill="#27AAE1" stroke="#000000" stroke-width="3.3239" stroke-miterlimit="10" d="M153.2,242.1c0,0-2.8,3.4-11.5,9.4
	c-7.3,5.1-22.4,17.5-35.2,38.2c-12.1,19.5-10,27.4-25.3,48.5c-11.8,16.3-19.8,21-22.8,22.6c-12.3,6.6-26,7.7-32.8,7.8
	C11.1,369,6,365.1,3.1,368.4c-5,5.8,3.9,25.9,18.1,38.1c7.2,6.2,17.6,10.8,38.3,20c10.9,4.9,9.9,3.9,13.1,5.7
	c19.2,10.9,17.4,23.3,32,32.6c12.6,8.1,14.2,9.8,39.6,8.8c14.8-0.6,24.1,9.5,26.5,5.8c0.5-0.8,1.3-0.9,3.4-5.6
	c2.6-5.7,3.9-9.7,6.4-15.5c2.2-5.1-4.9-23.5,0.3-48.2c2.3-11.1,5.3-22.5,9-31.6c5.7-13.8,1.4-3.5,5.7-13.8
	c3.3-7.8,6.9-33.9,9.2-39.4c6.1-14.7-11.6-42.1-15.3-47.2c-1.2-1.7-15-14.7-25.7-25.1C159.5,249,154.5,243.6,153.2,242.1z"/>
<path fill="#27AAE1" stroke="#000000" stroke-width="3.3239" stroke-miterlimit="10" d="M211.2,477c1.4,1.4,27-10.2,43.6-9.9
	c25.1,0.5,42.9,12.1,45,9.1c2.3-3.2-9.6-10.4-23.6-29.6c-6.6-9-19.5-32.9-22.2-32.8c-2.4,0-12.9,18.8-23.8,33
	C219,461.3,210,475.9,211.2,477z"/>
<path fill="#27AAE1" stroke="#000000" stroke-width="3.3239" stroke-miterlimit="10" d="M339.2,462.6c6.7,6.7,14.4-9.9,30.3-16.2
	c15.9-6.2,20,2.4,33.6-2.8c19.4-7.5,13.7-26.2,36.2-40.5c3.8-2.4,15.5-6.5,38.8-14.8c19.3-6.8,22.1-7.2,23.2-10.3
	c4-11.2-26.6-22.8-58.2-60.9c-18.2-21.9-16.4-28.2-34.6-44.9c-11.7-10.7-22.2-17-43.1-29.4c-16.7-9.9-28.6-15.6-42.7-19.3
	c-8.2-2.2-24.8-2.5-24.8-2.5s7.8,6.9,24.2,18.3c23.6,16.4,19.7,16.8,38,29c20.3,13.6,30.2,16.5,31.7,26.4c0.8,5.1-1.1,9.2-4,15.3
	c-4.7,10.1-9.7,12.5-23.8,27.2c-11.5,12-17.3,18-20.5,23.1c-4.3,6.8-6.6,12.5-13.5,16.2c-6.9,3.7-14.2-0.6-13.3,3.8
	c1.2,6.2,9.3,20.5,11,49.6c0.4,6.9,1.1,14.2,2.9,22.6C331.7,457.2,335.2,458.6,339.2,462.6z"/>
<g>
	<path fill="#27AAE1" stroke="#000000" stroke-width="3.3239" stroke-miterlimit="10" d="M305.7,268.5c5.8-4.5,11.8,6.3,27.6,16.4
		c11.7,7.4,20.4,9.1,20.4,12.9c0,2.6,0,2.6-3,7.6c-5.6,9.5-2.5,25.8-11,33.7c-5.9,5.4-15.5-1.7-23.4,4.8
		c-7.1,5.8-7.9,14.2-10.3,13.9c-2.1-0.2-2.7-7.3-3.6-13.3c-1.2-9-5-15.1-6.2-20.4c-2.1-9-1.9-16.5-1.4-19.5c0.4-2.7,0-15.1,2-23.1
		C299.1,272.3,303.4,270.4,305.7,268.5z"/>
</g>
<path fill="#E8B68A" stroke="#E8B68A" stroke-width="3.3239" stroke-miterlimit="10" d="M236.6,222.7c0,0-1.5-16.7-2.9-26.5
	c0,0-8.4,4.6-31-3.2c-2.7-0.9-11.8-2.4-22.8-12.9c-5-4.8-6.1-11.5-7.3-16c-2.4-9.3,0.3-10.2,0.2-21.7c0,0,2.3-0.7-3.7-5.5
	c-0.8-0.6-4.6-0.4-5.5,0.1c-2,1.1-5.7,2.5-9.7,1.4c-6-1.6-8.4-7.5-9.8-11c-1.1-2.6-4.1-10.3-0.5-14.1c2.7-2.8,7.9-2.4,11.3-1.3
	c10.3,3.3,12.3,16.1,15.6,15.5c2.7-0.5-0.9-5.8,2.1-20.8c0.9-4.2,0.4-5.3,4.8-14c3-6.1,6.4-14,11.9-17.6c5.7-3.7,11.3-7.6,26.9-9.3
	c17.1-1.8,19.9-0.9,38.9-2.4c8-0.6,19.6-1,36.7,6.1c6.3,2.6,11.3,27.3,13.8,30.5c9.2,11.6,0.4,14.7,1.4,17.8c0,0.1,0.1,0.1,0.1,0.1
	c0.8,0.4,3.5-4,7.3-6.8c1.1-0.8,4.8-3.7,10-3.9c3.4-0.1,9.3,0.8,11.4,4.3c5.2,8.4-4.1,17.1-14.4,23c-10.7,6.1-5.6,31.6-10,40.5
	c-3.6,7.3-8.4,13.1-20.7,17.8c-14.8,5.7-28.7,7.3-34.9,4.3c0,0,0,0,0,0c-5.2,9.4-0.3,18.7-0.3,18.7c0.1,1.1,0.2,2.9,0.3,5.2
	c-1.3,1.1-3.7,2.7-7,3.7c-0.9,0.3-2,0.5-3.3,0.5C240.4,225.5,236.6,222.7,236.6,222.7z"/>
<path fill="none" stroke="#C49A6C" stroke-width="3.3239" stroke-miterlimit="10" d="M160.8,128.7c0.5-0.8-1.5-3.5-4.1-4.7
	c-3-1.4-6.6-0.7-6.8,0.2C149.6,125.8,159.8,130.1,160.8,128.7z"/>
<path fill="none" stroke="#C49A6C" stroke-width="3.3239" stroke-miterlimit="10" d="M313.6,125.5c-0.4-0.8,3-4,7-5.4
	c3.4-1.1,7.7-1.1,7.9-0.3C328.8,121.5,314.4,127,313.6,125.5z"/>
<g>
	<path fill="#FFFFFF" stroke="#000000" stroke-width="3.3239" stroke-miterlimit="10" d="M225.1,131.9c-3.1,1.9-6.1-2.9-14.5-2.6
		c-7.7,0.3-10.7,4.6-13.2,2.8c-3.2-2.2-0.6-10.7,2.4-20.6c2.4-7.9,4.5-11.3,7.8-13.6c1.3-1,3.9-2.8,6.8-2.3
		c1.3,0.2,4.5,1.3,8.2,10.7C223.1,107.9,231,128.2,225.1,131.9z"/>
	<path fill="#2E3192" stroke="#000000" stroke-width="3.3239" stroke-miterlimit="10" d="M220.3,126.6c4.3-6.1,1.4-13.2,0.9-14.4
		c-0.2-0.5-4.1-9.3-10.6-8.9c-5.9,0.4-8.8,8.3-9.3,9.5c-2.1,5.9,2.1,17.6,9.9,16.8C216.7,129.1,217,131.3,220.3,126.6z"/>
	<path fill="#27AAE1" stroke="#000000" stroke-width="3.3239" stroke-miterlimit="10" d="M211.2,129.2c3.6-0.4,4.9-1,4.9-5.2
		c0-1.9-1.2-6.9-4.8-6.8c-3.5,0.1-4.7,1.4-4.8,6C206.4,126.5,207.6,129.6,211.2,129.2z"/>
</g>
<g>
	<path fill="#FFFFFF" stroke="#000000" stroke-width="3.3239" stroke-miterlimit="10" d="M284.7,129.9c-3.1,1.9-6.1-2.9-14.5-2.6
		c-7.7,0.3-10.7,4.6-13.2,2.8c-3.2-2.2-0.6-10.7,2.4-20.6c2.4-7.9,4.5-11.3,7.8-13.6c1.3-1,3.9-2.8,6.8-2.3
		c1.3,0.2,4.5,1.3,8.2,10.7C282.8,105.9,290.6,126.2,284.7,129.9z"/>
	<path fill="#2E3192" stroke="#000000" stroke-width="3.3239" stroke-miterlimit="10" d="M280,124.6c4.3-6.1,1.4-13.2,0.9-14.4
		c-0.2-0.5-4.1-9.3-10.6-8.9c-5.9,0.4-8.8,8.3-9.3,9.5c-2.1,5.9,2.1,17.6,9.9,16.8C276.3,127.1,276.7,129.3,280,124.6z"/>
	<path fill="#27AAE1" stroke="#000000" stroke-width="3.3239" stroke-miterlimit="10" d="M270.8,127.2c3.6-0.4,4.9-1,4.9-5.2
		c0-1.9-1.2-6.9-4.8-6.8c-3.5,0.1-4.7,1.4-4.8,6C266,124.5,267.2,127.6,270.8,127.2z"/>
</g>
<path fill="none" stroke="#000000" stroke-width="3.3239" stroke-miterlimit="10" d="M223.2,81.9c-5.3-1.5-15.7,0.5-23.2,9.8"/>
<path fill="none" stroke="#000000" stroke-width="3.3239" stroke-miterlimit="10" d="M283.3,89c-0.2-5-10.9-8.7-24-8.2"/>
<line fill="none" stroke="#000000" stroke-width="3.3239" stroke-miterlimit="10" x1="217.7" y1="96.6" x2="217.7" y2="96.6"/>
<g>
	<path fill="none" stroke="#C49A6C" stroke-width="3.3239" stroke-miterlimit="10" d="M251.2,149c-0.5-0.5-4-3.4-8.6-2.7
		c-4,0.7-8.3,4.1-8.3,8.5c0.1,3.3,2.5,6,5,7.2c3.1,1.6,7,1.1,10-1.1"/>
</g>
<path fill="none" stroke="#BE1E2D" stroke-width="3.3239" stroke-miterlimit="10" d="M293.6,166.5c-1.5-2.2-5.8-4.3-5.8-4.3
	s-3.4,4.9-5.8,8.2c-7.9,11-19.9,14.5-24,15.4c-6.5,1.5-11.7,1.2-16.7,0.8c-3.8-0.3-10-0.2-16.8-3.4c-3.7-1.7-7.4-3.5-13-7.1
	c-6-3.9-6.9-5.4-6.9-5.4c-4.1-3.7-5.2-4.5-5.2-4.5s-2,2.5-2.6,4.1"/>
<path fill="#3C2415" stroke="#603913" stroke-width="3.3239" stroke-miterlimit="10" d="M320.1,97.9c1.3-5,2.7-8.7,3.2-17
	c0.3-6.1,0.7-13.7-1.5-23.5c-1.9-8.6-3.6-16.1-10-22.9c-4.7-5-10.3-7.8-12.8-9.1c-3.3-1.7-6-2.6-11.5-4.4c-5-1.7-8.6-2.5-8.1-1.8
	c1.3,1.7,9.6,10.1,10.9,23.7c0.3,2.8,0.8,8.6-2.5,13.5c-3,4.4-7.6,5.6-7.2,7.4c0.5,2.1,7.1,0.2,12.3,4c1.7,1.2,2.5,2.6,6.4,12.9
	c4.5,12.2,4.4,13.4,7.2,19.4c1.4,3,4.5,9.4,4.5,9.4v0C310.9,109.5,317.5,107.5,320.1,97.9z"/>
<path fill="#3C2415" stroke="#603913" stroke-width="3.3239" stroke-miterlimit="10" d="M263.5,8.7c-4.2-1.9-11.2-4.5-21.6-5.8
	c-8.4-1.1-20.8-2.7-35.4,1.5c-6.5,1.9-27.9,8-37.5,26.2c-6.8,12.9-3.7,16.3-6,34.7c-0.5,4.3-17.3,9.8-10.7,36.4
	c0.8,3.1,2.5,6,3.5,7.9c3.4,6.1,10.5,16.2,13.9,15c3.2-1.2-1.1-10.9,3-25.4c1-3.5,3.6-12.3,11.2-20c6.2-6.3,12.8-8.9,16.6-10.4
	c7.3-2.8,10.1-2.2,31.1-3.7c25.4-1.9,24.6-2.7,30.3-1.9c7,1,8.8,1,15.2,0.7c5.3-0.2,9.5-6,10.4-7.8c4.8-9.7,0.8-20.1-0.8-24.4
	c-1.3-3.3-4-9-9.4-14.3C272.7,12.9,268.1,10.7,263.5,8.7z"/>
<path fill="#FFF200" stroke="#000000" stroke-width="3.3239" stroke-miterlimit="10" d="M261.5,216.7c-0.2-0.2,0,0.9-2.8-0.4
	c-2.3-1.1-2-0.9-2-0.9s0.2,3.5-0.7,6.3c-1.3,4-6.6,5.8-8.5,6.1c-2,0.3-9.8,0.7-12.3-2.7c-2.1-2.7-2.1-9-2.1-9l-7,0.2
	c0,0,1.9,9.7,4.9,13c3.8,4,8.1,4.4,11.2,4.6c2.9,0.2,9.5,0.7,14.6-3.7C261.4,226.4,263.3,218.5,261.5,216.7z"/>
<use xlink:href="#Brown_Hair_4"  width="22.7" height="15.4" x="-11.3" y="-7.7" transform="matrix(-4.8784 -0.7904 0.4881 -3.0125 227.0463 48.3859)" overflow="visible"/>
<use xlink:href="#Brown_Hair_4"  width="22.7" height="15.4" x="-11.3" y="-7.7" transform="matrix(-4.5089 -0.7306 0.4482 -2.7664 221.4782 31.0445)" overflow="visible"/>
<use xlink:href="#Brown_Hair_1"  width="16.2" height="6.8" x="-8.1" y="-3.4" transform="matrix(-1.1233 -2.2209 2.3079 -1.1673 309.4852 52.673)" overflow="visible"/>
<use xlink:href="#Brown_Hair_1"  width="16.2" height="6.8" x="-8.1" y="-3.4" transform="matrix(-1.1022 -2.1159 2.0963 -1.092 310.3891 73.2277)" overflow="visible"/>
</svg>
