<?xml version="1.0" encoding="utf-8"?>
<!-- Generator: Adobe Illustrator 18.1.0, SVG Export Plug-In . SVG Version: 6.00 Build 0)  -->
<!DOCTYPE svg PUBLIC "-//W3C//DTD SVG 1.1//EN" "http://www.w3.org/Graphics/SVG/1.1/DTD/svg11.dtd">
<svg version="1.1" id="Layer_1" xmlns="http://www.w3.org/2000/svg" xmlns:xlink="http://www.w3.org/1999/xlink" x="0px" y="0px"
	 viewBox="0 0 200 200" enable-background="new 0 0 200 200" xml:space="preserve">
<symbol  id="Brown_Hair_1" viewBox="-8.1 -3.4 16.2 6.8">
	<g>
		<path fill="#7E5629" d="M-8.1,2.5c0,0,10.4-0.9,16.2-5.9C3.6,2-5.5,4.9-8.1,2.5z"/>
	</g>
</symbol>
<symbol  id="Brown_Hair_4" viewBox="-11.3 -7.7 22.6 15.3">
	<path fill="#7E5629" d="M-11.3,6.9c0,0,5.6,2.6,10.6-1.9c5-4.6,5.8-10.2,12-12.7C4.7-6.6,2.2,0.8-1,3.9C-6.1,8.8-10.8,6.9-11.3,6.9
		z"/>
</symbol>
<path fill="#006838" stroke="#000000" stroke-miterlimit="10" d="M93.4,71.7c-1.3-1-3.1-0.6-6,0C86,72,84.2,72.4,82,73.6
	c-3.3,1.8-4.9,3.8-8,6.1c-4.3,3.3-7.5,7.2-11.8,10.4c-0.1,0-3.6,1.9-7.4,5c-1.1,0.9-2.3,1.9-2.6,3.6c-0.4,1.8,0.2,4,1.3,4.3
	c0.7,0.2,1.1-0.6,3.2-1.9c1.4-0.9,2.6-1.6,4.1-1.5s1.6,0.9,2.8,0.9c2.2,0.1,4.9-3.1,6.6-4.2c1.5-1,3.4-1.9,5.7-4.2
	c1.2-1.1,1.7-1.4,2.2-1.9c1-0.9,2.8-1.9,4.7,1.2c1.3,2,0.8,6.3,0.8,8.7c0,1.6,0.1,5.7-0.7,8.7c0,0-0.1,0.7-0.8,3.2l-0.5,1.9
	c0.3,0.7,2.5-0.1,6,0s3.9,0.8,5.6,0.4c1.9-0.5,2-1.3,4.2-2.1c1.8-0.7,4.2-0.6,4.8-0.4c1.9,0.5,2.1,1,4.3,1.8c0.6,0.2,0.3,0,2,0.2
	c2.9,0.4,4.6,0.4,6.3,0.2c1.6-0.2,1.8-0.5,1.9-0.6c0.8-1-0.2-2.7-0.9-5.9c-0.2-1-0.9-3.5-0.2-6.5c0.3-1.2,0.3-3,1.9-5.8
	c1.8-3.4,2.5-4.3,3.4-5.3c0.7-0.7,0,0,2.8-2.8c2.7-2.7,2.6-2.4,4-4c1.3-1.5,4.9-5.3,5.6-6.6c0.6-1,8.5-13.7,10.1-15.5
	c0.9-1,6.2-10.4,6.4-10.8c1.4-2.3-4.6-0.6-3.9-0.6c3.2-0.2-0.9-1.4-3.7-2.2c-2.2-0.6-0.8-5.5-1.5-3.7c-1,2.6-3.7,7.2-6.1,10.9
	c-2.1,3.2-1.6,2-4.4,6.4c-2.4,3.9-5.9,7.5-7.1,8.7c-3.2,3.2-4.8,4.7-7.9,3.5c-1.2-0.5-2.6-0.9-5.4-1.5c-3.4-0.7-4-0.4-4.3-0.2
	c-1.2,0.9-0.2,2.5-1.5,4.1s-3.6,1.7-4.5,1.7s-2.7,0.1-4.1-1.1C94,74.5,94.9,72.8,93.4,71.7z"/>
<polygon fill="#FFDE17" stroke="#000000" stroke-miterlimit="10" points="94.8,83.2 87.8,90.5 94.8,100.7 109.2,100.7 116.3,90.6 
	109,83.2 "/>
<polygon fill="#FFFFFF" stroke="#000000" stroke-miterlimit="10" points="93,90.4 97.5,97 105.9,97 111,90.4 108.6,87.3 95.8,87.3 
	"/>
<path stroke="#000000" stroke-miterlimit="10" d="M54.6,103.3c-0.3,1.2,1.2,3.4,3.9,6.1c5.9,5.9,6.7,5.1,9.1,8.2
	c2.4,3,2.8,5.3,6.1,7.6c1.4,1,2.5,1.4,3.4,1.1c1.8-0.5,2.4-3.3,2.8-4.8c0.4-1.8,0.9-4.1-0.4-5.8c-1-1.3-2.6-1.6-3.7-1.9
	c-2.5-0.5-3.2,0.4-4.5,0c-3.9-1.1-2.1-10.9-6.7-13.1c-1.9-0.9-4-0.7-5-0.5C58.6,100.7,55,101.6,54.6,103.3z"/>
<path stroke="#000000" stroke-miterlimit="10" d="M141.2,45.4c-1.7-4.2,8.7-7.3,8.8-12.4c0-2.6-2.2-3.4-1.8-6.4s3-4.7,3.3-4.8
	c2.3-1.5,6-1.9,7.6-0.1c1,1.1,0.8,2.8,0.7,4c-0.4,3.4-2,4.5-3.7,7.9c-0.7,1.5-0.3,1-3.5,11.4c-1,3.3-1.5,4.7-2.9,5.3
	c-2,0.8-4.9-0.1-5.5-0.6C143.4,49.2,141.9,47.3,141.2,45.4z"/>
<path fill="#FFDE17" stroke="#000000" stroke-miterlimit="10" d="M82,115c-0.4,1.4-0.7,2.7-1.1,4.1H93l1.3-4.5L82,115z"/>
<polygon fill="#FFDE17" stroke="#000000" stroke-miterlimit="10" points="107.9,114.9 107.9,119.9 118.9,119.2 117.6,114.7 "/>
<path fill="#ED1C24" stroke="#000000" stroke-miterlimit="10" d="M94.7,115.4c-0.2,0.3-1.4,2.6-0.4,4.8c1.4,2.9,5.4,3,6.1,3
	c0.9,0,5.2,0,6.9-3.4c0.1-0.1,1.3-2.7,0-5c-1.8-3.3-6.7-2.7-7.3-2.6C99.2,112.4,96.1,112.8,94.7,115.4z"/>
<path fill="#FFFFFF" stroke="#000000" stroke-miterlimit="10" d="M97.6,116.2c-0.7,1.1-0.6,2.6,0.2,3.6c1.2,1.5,3.9,1.2,5.2,0
	c0.8-0.7,1.6-2,1.1-3.2c-0.5-1.1-2-1.4-2.6-1.5C101,114.9,98.7,114.6,97.6,116.2z"/>
<path fill="#006838" stroke="#000000" stroke-miterlimit="10" d="M80.9,119.9c0,0-1.1,3.2-2.2,6.7c-0.2,0.6-0.9,3.3-1.3,4.8
	c-2.7,9.6-2.1,19.2-3.1,20.2c-1.4,1.3-1.6,2.3-2,4.1c-0.5,2.2-0.5,3.4-0.6,5.4c0,1-0.5,1.8-0.4,2.4c0.2,0.9,1.7,1.4,2.8,1.7
	c0.6,0.2,3.1,0.5,5.1,0.4c2.1-0.1,4.7-1.1,4.7-1.1v-0.7c0,0,0.2-2.5,0.7-3.8c1.3-3.7,3.1-6.2,5.4-9c7.5-8.6,7.9-13.2,9.6-13.8
	c0,0,3.1,4.6,11.5,14.7c2.6,3.1,4.6,5.1,4.6,8.4c0,1.9-0.6,3.7,0.6,4.8c0.3,0.3,0.7,0.6,3.6,0.7c5.1,0.3,6.6-0.6,7.1-0.9
	c0.5-0.3,1.5-1,1.5-1.9c0-0.8,0.2-1.5,0-2.6c-0.4-2.6-0.3-3.3-1.6-5.5c-0.6-1-1-2.4-1.6-3.6c-1.2-2.6,0.1-9.9-1.4-16.8
	c-0.8-3.8-0.2-6.9-1.4-8.1c-2.2-2.1-3.6-6.6-3.6-6.6s-9.9-0.4-11,0.3c-2.8,2-2.4,3.1-7.5,3.1c-4.5,0-6.1-3-7.4-3.3
	C89.1,118.8,80.9,119.9,80.9,119.9z"/>
<path stroke="#000000" stroke-miterlimit="10" d="M70.1,167.6c0.1-1.8-0.1-3.3,0.7-3.7c0.4-0.2,0.9,0,2.1,0.4
	c1.3,0.4,2.8,0.9,4.1,0.9c2.2,0.1,6.4-0.4,6.7,0c1.2,1.4-1.3,5.6-3.2,8.6c-2.7,4.4-3.5,4.4-3.9,6.5c-0.4,1.9,0.2,2.4,0,6.7
	c-0.2,3.2-0.5,4.1-0.7,4.5c-0.4,0.8-0.9,1.6-3.7,3.9c-2.9,2.3-4.3,3.5-5.6,3.9c-0.4,0.1-4.6,1.4-7.6-0.9c-0.5-0.4-1.4-1.1-1.7-2.2
	c-0.1-0.4-0.3-1.9,2.1-4.8c2.4-3.1,4-3.3,7.1-6.7c1.2-1.3,1.8-2,2.2-3c1-2.2,0.3-3.2,0.6-7.4C69.4,170.3,70,170.9,70.1,167.6z"/>
<path stroke="#000000" stroke-miterlimit="10" d="M118.2,170.6c-1-1.9-2.6-5-1.7-6c0.5-0.5,1.2,0,3.6,0.4c2.5,0.4,5.2,0.8,7.1-0.6
	c1.2-0.9,1.2-1.9,1.7-1.9c1.4,0.1,1.9,7.9,2.1,9.5c0.5,6.7-0.4,7.2,0.6,9.5c0.7,1.7,1.3,1.8,7.1,7.6c4.2,4.2,5.1,5.5,4.8,6.9
	c-0.4,2.1-3.1,3.1-3.7,3.4c-3.2,1.3-6.2-0.1-6.7-0.4c-1.8-0.8-1.5-1.5-5.2-4.6c-2.7-2.3-2.9-2.1-3.4-3c-0.8-1.7-0.1-2.9-0.2-7.4
	c0-1.5-0.1-2.2-0.2-3C123.3,177.1,120.9,176,118.2,170.6z"/>
<path fill="#27AAE1" stroke="#000000" stroke-miterlimit="10" d="M131.2,79.1c0,0,1,1.1,3.9,3c2.5,1.6,7.6,5.6,12.1,12.3
	c4.2,6.3,3.6,9,8.9,15.8c4.1,5.3,6.8,6.7,7.8,7.3c4.2,2.1,8.7,2.3,11,2.2c4.8-0.1,6.5-1.4,7.4-0.4c1.7,1.9-1,8.7-5.6,12.9
	c-2.3,2.1-5.7,3.8-12.5,7.1c-3.6,1.7-3.3,1.4-4.3,2.1c-6.2,3.9-5.5,7.9-10.3,11.2c-4.1,2.8-4.6,3.4-13.1,3.4c-4.9,0-7.9,3.4-8.7,2.2
	c-0.2-0.3-0.4-0.3-1.2-1.8c-0.9-1.9-1.4-3.2-2.3-5c-0.8-1.7,1.4-7.8-0.6-16c-0.9-3.7-2-7.4-3.4-10.4c-2.1-4.5-0.5-1.2-2.1-4.5
	c-1.2-2.6-2.7-11.2-3.5-13c-2.2-4.8,3.4-14.1,4.6-15.9c0.4-0.6,4.8-5,8.3-8.6C129.2,81.4,130.8,79.6,131.2,79.1z"/>
<path fill="#27AAE1" stroke="#000000" stroke-miterlimit="10" d="M114.6,157.7c-0.5,0.5-9.1-3.1-14.6-2.8
	c-8.3,0.5-14.1,4.5-14.8,3.6c-0.8-1.1,3.1-3.6,7.5-10.1c2.1-3.1,6.1-11.1,7-11.2c0.8,0,4.5,6.1,8.3,10.7
	C111.8,152.6,115,157.4,114.6,157.7z"/>
<path fill="#27AAE1" stroke="#000000" stroke-miterlimit="10" d="M71.9,154.4c-2.2,2.3-4.9-3.1-10.3-5c-5.3-1.9-6.6,1-11.2-0.6
	c-6.5-2.3-4.8-8.6-12.5-13.1c-1.3-0.8-5.2-2-13.1-4.5c-6.5-2.1-7.4-2.2-7.8-3.2c-1.5-3.7,8.6-7.9,18.6-20.9c5.8-7.5,5.1-9.6,11-15.3
	c3.8-3.7,7.2-5.9,14-10.3c5.4-3.5,9.3-5.5,14-6.9c2.7-0.8,8.2-1.1,8.2-1.1S80.3,76,75,79.9c-7.7,5.7-6.3,5.8-12.3,10.1
	c-6.6,4.7-9.9,5.8-10.3,9.1c-0.2,1.7,0.5,3.1,1.5,5c1.7,3.3,3.4,4.1,8.2,8.8c4,3.9,5.9,5.8,7.1,7.4c1.5,2.2,2.4,4.1,4.6,5.2
	c2.3,1.2,4.7-0.4,4.5,1.1c-0.3,2.1-2.9,6.9-3.1,16.6c-0.1,2.3-0.2,4.7-0.7,7.5C74.3,152.5,73.2,153,71.9,154.4z"/>
<g>
	<path fill="#27AAE1" stroke="#000000" stroke-miterlimit="10" d="M80.9,89.5c-2-1.4-3.9,2.2-9,5.7c-3.8,2.6-6.7,3.3-6.6,4.5
		c0,0.9,0,0.9,1.1,2.5c2,3.1,1.1,8.5,4.1,11.1c2,1.7,5.1-0.7,7.8,1.3c2.4,1.9,2.8,4.6,3.6,4.5c0.7-0.1,0.8-2.5,1-4.5
		c0.3-3,1.5-5.1,1.8-6.8c0.6-3,0.5-5.5,0.3-6.5c-0.2-0.9-0.2-5-0.9-7.6C83.1,90.7,81.7,90.1,80.9,89.5z"/>
</g>
<path fill="#C49A6C" stroke="#C49A6C" stroke-miterlimit="10" d="M103.3,73.5c0,0,0.3-5.6,0.7-8.8c0,0,2.9,1.4,10.3-1.4
	c0.9-0.3,3.9-0.9,7.4-4.6c1.6-1.7,1.9-3.9,2.2-5.4c0.7-3.1-0.2-3.4-0.3-7.2c0,0-0.8-0.2,1.2-1.9c0.3-0.2,1.5-0.2,1.8,0
	c0.7,0.3,1.9,0.8,3.3,0.3c2-0.6,2.7-2.6,3.1-3.8c0.3-0.9,1.3-3.5,0-4.7c-0.9-0.9-2.7-0.7-3.8-0.3c-3.4,1.2-3.9,5.5-5,5.3
	c-0.9-0.1,0.2-1.9-0.9-6.9c-0.3-1.4-0.2-1.7-1.7-4.6c-1.1-2-2.3-4.6-4.2-5.7c-2-1.2-3.8-2.4-9-2.8c-5.7-0.4-6.6-0.1-12.9-0.4
	c-2.7-0.1-6.5-0.1-12.1,2.5c-2.1,0.9-3.5,9.2-4.3,10.3c-2.9,4,0,4.9-0.3,5.9l0,0c-0.2,0.1-1.2-1.3-2.5-2.2c-0.4-0.3-1.7-1.2-3.4-1.2
	c-1.1,0-3.1,0.4-3.8,1.6c-1.6,2.9,1.6,5.6,5,7.5c3.6,1.9,2.2,10.4,3.8,13.4c1.3,2.4,2.9,4.3,7.1,5.7c5,1.7,9.6,2.1,11.7,1l0,0
	c1.8,3.1,0.3,6.2,0.3,6.2c0,0.4,0,1,0,1.7c0.4,0.4,1.3,0.8,2.4,1.2c0.3,0.1,0.7,0.1,1.1,0.1C102.1,74.5,103.3,73.5,103.3,73.5z"/>
<path fill="none" stroke="#A97C50" stroke-miterlimit="10" d="M127.5,41.4c-0.2-0.3,0.4-1.2,1.3-1.6c1-0.5,2.2-0.3,2.3,0
	C131.1,40.4,127.8,41.9,127.5,41.4z"/>
<path fill="none" stroke="#A97C50" stroke-miterlimit="10" d="M76.7,42.1c0.1-0.3-1-1.3-2.4-1.7c-1.1-0.3-2.6-0.3-2.6,0
	C71.6,40.9,76.4,42.6,76.7,42.1z"/>
<g>
	<path fill="#FFFFFF" stroke="#000000" stroke-miterlimit="10" d="M106.1,43.2c1,0.6,2-1,4.8-1c2.6,0,3.6,1.4,4.4,0.8
		c1-0.8,0.1-3.6-1-6.8c-0.9-2.6-1.6-3.7-2.7-4.4c-0.5-0.3-1.3-0.9-2.3-0.7c-0.4,0.1-1.5,0.5-2.6,3.6
		C106.5,35.3,104.1,42.1,106.1,43.2z"/>
	<path fill="#2E3192" stroke="#000000" stroke-miterlimit="10" d="M107.7,41.4c-1.5-2-0.6-4.4-0.5-4.8c0.1-0.2,1.3-3.1,3.4-3.1
		c2,0.1,3,2.7,3.2,3.1c0.8,1.9-0.5,5.9-3.1,5.7C108.9,42.2,108.8,42.9,107.7,41.4z"/>
	<path fill="#27AAE1" stroke="#000000" stroke-miterlimit="10" d="M110.7,42.2c-1.2-0.1-1.6-0.3-1.7-1.7c0-0.6,0.3-2.3,1.5-2.3
		s1.6,0.4,1.7,2C112.3,41.2,111.9,42.3,110.7,42.2z"/>
</g>
<g>
	<path fill="#FFFFFF" stroke="#000000" stroke-miterlimit="10" d="M86.3,43.2c1,0.6,2-1,4.8-1c2.6,0,3.6,1.4,4.4,0.8
		c1-0.8,0.1-3.6-1-6.8c-0.9-2.6-1.6-3.7-2.7-4.4c-0.5-0.3-1.3-0.9-2.3-0.7c-0.4,0.1-1.5,0.5-2.6,3.6C86.7,35.3,84.3,42.1,86.3,43.2z
		"/>
	<path fill="#2E3192" stroke="#000000" stroke-miterlimit="10" d="M87.8,41.4c-1.5-2-0.6-4.4-0.5-4.8c0.1-0.2,1.3-3.1,3.4-3.1
		c2,0.1,3,2.7,3.2,3.1c0.8,1.9-0.5,5.9-3.1,5.7C89.1,42.2,89,42.9,87.8,41.4z"/>
	<path fill="#27AAE1" stroke="#000000" stroke-miterlimit="10" d="M90.9,42.2c-1.2-0.1-1.6-0.3-1.7-1.7c0-0.6,0.3-2.3,1.5-2.3
		s1.6,0.4,1.7,2C92.4,41.2,92.1,42.3,90.9,42.2z"/>
</g>
<path fill="none" stroke="#000000" stroke-miterlimit="10" d="M106.2,26.6c1.7-0.6,5.2,0,7.8,3"/>
<path fill="none" stroke="#000000" stroke-miterlimit="10" d="M86.3,29.6c0-1.7,3.5-3,7.9-3"/>
<line fill="none" stroke="#000000" stroke-width="3.3452" stroke-miterlimit="10" x1="108.2" y1="31.4" x2="108.2" y2="31.4"/>
<path fill="none" stroke="#BE1E2D" stroke-miterlimit="10" d="M83.8,55.5c0.5-0.7,1.9-1.5,1.9-1.5s1.2,1.6,2,2.7
	c2.8,3.6,6.7,4.6,8.1,4.8c2.2,0.4,3.9,0.3,5.5,0.1c1.3-0.1,3.3-0.2,5.5-1.3c1.2-0.6,2.4-1.3,4.2-2.5c2-1.4,2.2-1.9,2.2-1.9
	c1.3-1.3,1.7-1.6,1.7-1.6s0.7,0.8,0.9,1.4"/>
<path fill="#3C2415" stroke="#603913" stroke-miterlimit="10" d="M74.2,33c-0.5-1.6-1-2.9-1.2-5.6c-0.2-2-0.4-4.6,0.2-7.8
	c0.6-2.9,1-5.4,3.1-7.7c1.5-1.7,3.4-2.7,4.2-3.2c1.1-0.6,2-0.9,3.8-1.6c1.6-0.6,2.8-0.9,2.7-0.7c-0.4,0.6-3.1,3.5-3.4,8
	c-0.1,0.9-0.2,2.9,1,4.5c1.1,1.4,2.6,1.8,2.5,2.4C87,22,84.7,21.5,83,22.8c-0.5,0.4-0.8,0.9-2,4.4c-1.4,4.1-1.3,4.5-2.2,6.5
	c-0.4,1-1.4,3.2-1.4,3.2l0,0C77.4,36.8,75.1,36.2,74.2,33z"/>
<path fill="#3C2415" stroke="#603913" stroke-miterlimit="10" d="M92,2.8c1.4-0.7,3.7-1.6,7.1-2.2c2.8-0.5,6.9-1.1,11.8,0.1
	c2.2,0.5,9.3,2.4,12.8,8.3c2.4,4.2,1.4,5.4,2.4,11.5c0.2,1.4,5.9,3.1,4,12c-0.2,1.1-0.8,2-1.1,2.7c-1.1,2.1-3.3,5.5-4.5,5.1
	c-1.1-0.3,0.2-3.7-1.3-8.4c-0.4-1.2-1.3-4.1-4-6.5c-2.1-2-4.4-2.8-5.6-3.3c-2.5-0.9-3.4-0.6-10.4-0.9c-8.5-0.4-8.2-0.6-10.1-0.3
	c-2.3,0.4-2.9,0.4-5,0.4c-1.8,0-3.2-1.9-3.6-2.5c-1.7-3.2-0.5-6.6,0-8.1c0.4-1.1,1.2-3,3-4.8C89,4.2,90.5,3.5,92,2.8z"/>
<path fill="#FFF200" stroke="#000000" stroke-miterlimit="10" d="M95,71.8c0.1-0.1,0,0.3,0.9-0.2c0.8-0.4,0.7-0.3,0.7-0.3
	s0,1.2,0.3,2.1c0.5,1.3,2.3,1.9,2.9,1.9c0.7,0.1,3.3,0.1,4.1-1c0.7-0.9,0.6-3,0.6-3h2.3c0,0-0.5,3.3-1.5,4.4
	c-1.2,1.4-2.6,1.6-3.7,1.7c-1,0.1-3.2,0.3-4.9-1.1C95.1,75.1,94.4,72.4,95,71.8z"/>
<use xlink:href="#Brown_Hair_4"  width="22.6" height="15.3" x="-11.3" y="-7.7" transform="matrix(1.6073 -0.316 -0.1952 -0.9925 104.6495 15.6122)" overflow="visible"/>
<use xlink:href="#Brown_Hair_4"  width="22.6" height="15.3" x="-11.3" y="-7.7" transform="matrix(1.4856 -0.2921 -0.1791 -0.9115 106.2984 9.7828)" overflow="visible" enable-background="new    "/>
<use xlink:href="#Brown_Hair_1"  width="16.2" height="6.8" x="-8.1" y="-3.4" transform="matrix(0.3484 -0.7502 -0.7797 -0.3621 77.2127 17.8704)" overflow="visible"/>
<use xlink:href="#Brown_Hair_1"  width="16.2" height="6.8" x="-8.1" y="-3.4" transform="matrix(0.3426 -0.7151 -0.7085 -0.3394 77.1412 24.7084)" overflow="visible" enable-background="new    "/>
<g>
	<path fill="none" stroke="#A97C50" stroke-miterlimit="10" d="M101,48.8c-0.2-0.1-1.5-0.9-3-0.4c-1.3,0.4-2.5,1.8-2.3,3.2
		c0.2,1.1,1.1,1.8,2,2.1c1.1,0.3,2.4,0,3.2-0.9"/>
</g>
</svg>
