<?xml version="1.0" encoding="utf-8"?>
<!-- Generator: Adobe Illustrator 18.1.0, SVG Export Plug-In . SVG Version: 6.00 Build 0)  -->
<!DOCTYPE svg PUBLIC "-//W3C//DTD SVG 1.1//EN" "http://www.w3.org/Graphics/SVG/1.1/DTD/svg11.dtd">
<svg version="1.1" id="Layer_1" xmlns="http://www.w3.org/2000/svg" xmlns:xlink="http://www.w3.org/1999/xlink" x="0px" y="0px"
	 viewBox="0 0 151.4 182.3" enable-background="new 0 0 151.4 182.3" xml:space="preserve">
<path fill="#ED1C24" stroke="#000000" stroke-miterlimit="10" d="M81.3,65.3c1.1-0.9,2.8-0.6,5.4,0c1.2,0.3,2.9,0.6,4.9,1.7
	c3,1.6,4.5,3.4,7.3,5.5c3.9,3,6.9,6.5,10.7,9.4c0.1,0,3.3,1.7,6.8,4.5c1,0.8,2,1.7,2.4,3.2c0.4,1.6-0.2,3.6-1.2,3.9
	c-0.6,0.2-1-0.6-2.9-1.7c-1.3-0.8-2.4-1.4-3.7-1.3c-1.4,0.1-1.5,0.8-2.5,0.9c-1.9,0.1-4.5-2.8-6-3.8c-1.3-0.9-3.1-1.7-5.2-3.7
	c-1.1-1-1.6-1.3-2-1.7c-0.9-0.8-2.5-1.7-4.3,1.1c-1.1,1.8-0.6,5.7-0.7,7.9c0,1.5-0.1,5.2,0.7,7.9c0,0,0.1,0.6,0.8,2.8l0.5,1.7
	c-0.2,0.6-2.3-0.1-5.4,0c-3.1,0.1-3.5,0.7-5.1,0.4c-1.7-0.4-1.8-1.1-3.8-1.9c-1.7-0.6-3.8-0.5-4.3-0.3c-1.7,0.5-1.9,1-3.9,1.6
	c-0.6,0.2-0.3,0-1.8,0.2c-2.6,0.4-4.2,0.4-5.7,0.2c-1.4-0.2-1.6-0.4-1.7-0.5c-0.7-0.9,0.1-2.4,0.8-5.4c0.2-0.9,0.8-3.2,0.1-5.9
	c-0.3-1.1-0.3-2.7-1.7-5.3c-1.7-3-2.2-3.9-3.1-4.8c-0.6-0.6,0,0-2.5-2.5c-2.5-2.4-2.3-2.1-3.7-3.6c-1.2-1.3-4.5-4.8-5.2-6
	c-0.5-0.9-7.8-12.4-9.3-14c-0.8-0.9-5.7-9.4-5.9-9.7c-1.3-2,4.1-0.6,3.5-0.6c-2.9-0.2,0.8-1.3,3.3-2c2-0.6,0.7-5,1.4-3.4
	c1,2.3,3.4,6.5,5.6,9.8c1.9,2.8,1.5,1.8,4,5.7c2.2,3.5,5.4,6.8,6.5,7.8c2.9,2.9,4.4,4.3,7.1,3.1c1.1-0.5,2.3-0.8,4.9-1.4
	c3.1-0.6,3.6-0.4,3.9-0.2c1.1,0.8,0.2,2.3,1.4,3.7c1.2,1.4,3.3,1.5,4.1,1.5c0.8,0,2.5,0.1,3.7-1C80.8,67.9,80,66.3,81.3,65.3z"/>
<polygon stroke="#000000" stroke-miterlimit="10" points="80.1,75.7 86.5,82.3 80.2,91.6 67.2,91.7 60.7,82.6 67.3,75.8 "/>
<polygon fill="#FFFFFF" stroke="#000000" stroke-miterlimit="10" points="81.8,82.3 77.8,88.2 70.1,88.3 65.5,82.4 67.6,79.5 
	79.3,79.5 "/>
<path fill="#FFFFFF" stroke="#000000" stroke-miterlimit="10" d="M116.7,93.7c0.3,1.1-1,3.1-3.5,5.6c-5.3,5.4-6,4.7-8.2,7.5
	c-2.1,2.8-2.5,4.8-5.5,7c-1.3,0.9-2.2,1.3-3,1c-1.6-0.5-2.2-2.9-2.6-4.4c-0.4-1.7-0.9-3.7,0.3-5.2c0.9-1.2,2.3-1.5,3.4-1.7
	c2.3-0.5,2.9,0.3,4,0c3.5-1.1,1.8-9.8,6-11.9c1.7-0.8,3.6-0.7,4.5-0.4C113,91.4,116.2,92.1,116.7,93.7z"/>
<path fill="#F7941E" stroke="#000000" stroke-miterlimit="10" d="M91.9,104.5c0.3,1.2,0.7,2.5,1,3.7l-11,0.1l-1.2-4L91.9,104.5z"/>
<polygon fill="#F7941E" stroke="#000000" stroke-miterlimit="10" points="68.5,104.6 68.5,109.1 58.6,108.5 59.7,104.4 "/>
<path stroke="#000000" stroke-miterlimit="10" d="M80.5,104.9c0.1,0.3,1.3,2.4,0.4,4.4c-1.2,2.6-4.8,2.7-5.5,2.7c-0.8,0-4.7,0-6.3-3
	c-0.1-0.1-1.2-2.4,0-4.6c1.6-3,6.1-2.5,6.6-2.4C76.3,102.2,79.1,102.6,80.5,104.9z"/>
<path fill="#FFFFFF" stroke="#000000" stroke-miterlimit="10" d="M77.8,105.6c0.6,1,0.5,2.3-0.1,3.2c-1.1,1.4-3.5,1.1-4.7,0
	c-0.7-0.6-1.5-1.8-1-2.9c0.4-1,1.8-1.3,2.4-1.4C74.7,104.5,76.8,104.2,77.8,105.6z"/>
<path fill="#ED1C24" stroke="#000000" stroke-miterlimit="10" d="M93,108.9c0,0,1,2.8,2,6.1c0.2,0.5,0.8,3,1.2,4.4
	c2.5,8.7,2,17.4,2.9,18.2c1.3,1.1,1.4,2,1.8,3.7c0.4,2,0.5,3.1,0.5,4.9c0,0.9,0.5,1.6,0.4,2.2c-0.2,0.9-1.6,1.3-2.5,1.5
	c-0.5,0.2-2.8,0.5-4.6,0.4c-1.9-0.1-4.2-1-4.2-1l0-0.7c0,0-0.2-2.3-0.6-3.4c-1.2-3.4-2.8-5.6-5-8.1c-6.8-7.8-7.3-11.9-8.8-12.4
	c0,0-2.7,4.2-10.3,13.4c-2.3,2.8-4.1,4.7-4.2,7.6c0,1.7,0.5,3.4-0.5,4.4c-0.2,0.2-0.6,0.5-3.2,0.7c-4.6,0.3-6-0.5-6.4-0.8
	c-0.5-0.3-1.3-0.9-1.4-1.7c0-0.8-0.2-1.4,0-2.3c0.4-2.3,0.2-3,1.4-5c0.5-0.9,0.9-2.2,1.4-3.2c1.1-2.3-0.2-8.9,1.2-15.2
	c0.7-3.5,0.1-6.3,1.2-7.4c1.9-1.9,3.2-6,3.2-6s9-0.4,9.9,0.2c2.5,1.7,2.2,2.7,6.8,2.7c4,0,5.5-2.7,6.6-3.1
	C85.5,108,93,108.9,93,108.9z"/>
<path stroke="#000000" stroke-miterlimit="10" d="M103.1,152c-0.1-1.6,0-3-0.7-3.4c-0.4-0.2-0.8,0-1.9,0.4c-1.2,0.4-2.5,0.8-3.7,0.9
	c-2,0.1-5.8-0.3-6.1,0c-1.1,1.3,1.2,5.1,2.9,7.7c2.5,3.9,3.2,3.9,3.6,5.9c0.3,1.8-0.2,2.1,0,6.1c0.2,2.8,0.5,3.7,0.7,4
	c0.3,0.7,0.8,1.5,3.4,3.5c2.6,2.1,3.9,3.1,5.1,3.5c0.3,0.1,4.2,1.2,6.9-0.9c0.4-0.4,1.3-1,1.5-2c0.1-0.4,0.3-1.7-1.9-4.4
	c-2.2-2.8-3.6-2.9-6.5-6c-1.1-1.2-1.6-1.8-2-2.7c-0.9-2-0.3-2.9-0.6-6.7C103.7,154.5,103.2,155,103.1,152z"/>
<path stroke="#000000" stroke-miterlimit="10" d="M59.6,155c0.9-1.7,2.4-4.6,1.5-5.4c-0.4-0.4-1.1,0-3.2,0.4
	c-2.3,0.4-4.8,0.8-6.4-0.5c-1.1-0.8-1.1-1.7-1.5-1.7c-1.3,0.1-1.7,7.2-1.8,8.6c-0.4,6.1,0.4,6.5-0.4,8.6c-0.6,1.5-1.2,1.6-6.4,7
	c-3.7,3.9-4.6,5-4.3,6.3c0.4,1.8,2.8,2.8,3.4,3c2.9,1.1,5.6-0.1,6.1-0.4c1.6-0.8,1.4-1.3,4.7-4.3c2.4-2.1,2.6-1.9,3-2.7
	c0.7-1.6,0.1-2.6,0.1-6.7c0-1.3,0-2,0.1-2.7C55,160.9,57,159.9,59.6,155z"/>
<path fill="#21409A" stroke="#000000" stroke-miterlimit="10" d="M47.1,72.2c0,0-0.9,1-3.5,2.7c-2.2,1.5-6.9,5.1-10.9,11.2
	c-3.8,5.8-3.2,8.2-8,14.4c-3.7,4.8-6.1,6.2-7,6.6c-3.7,1.9-7.9,2.1-9.9,2.1c-4.3,0-5.9-1.3-6.8-0.3c-1.6,1.7,1,7.8,5.1,11.6
	c2.1,1.9,5.2,3.4,11.3,6.3c3.3,1.6,2.9,1.3,3.9,1.8c5.7,3.4,5.1,7.1,9.4,10.1c3.7,2.5,4.2,3.1,11.8,3c4.5-0.1,7.2,3.1,7.9,2
	c0.2-0.2,0.4-0.3,1.1-1.7c0.8-1.7,1.3-2.9,2-4.6c0.7-1.5-1.3-7.1,0.5-14.5c0.8-3.3,1.8-6.7,3-9.4c1.8-4.1,0.4-1.1,1.8-4.1
	c1-2.3,2.3-10.1,3.1-11.8c2-4.4-3.2-12.7-4.2-14.3c-0.4-0.5-4.4-4.5-7.5-7.7C49,74.4,47.5,72.7,47.1,72.2z"/>
<path fill="#21409A" stroke="#000000" stroke-miterlimit="10" d="M62.7,143.4c0.4,0.4,8.2-2.9,13.2-2.6c7.5,0.4,12.8,4,13.5,3.1
	c0.7-1-2.8-3.2-6.9-9.1c-1.9-2.7-5.6-10-6.4-10.1c-0.7,0-4,5.5-7.4,9.7C65.2,138.7,62.3,143,62.7,143.4z"/>
<path fill="#21409A" stroke="#000000" stroke-miterlimit="10" d="M101.3,140c2,2.1,4.4-2.9,9.2-4.6c4.8-1.8,6,0.9,10.1-0.6
	c5.9-2.1,4.3-7.8,11.2-11.9c1.2-0.7,4.7-1.8,11.8-4.1c5.9-1.9,6.7-2,7.1-2.9c1.3-3.3-7.8-7.1-17-18.8c-5.3-6.7-4.7-8.6-10.1-13.8
	c-3.4-3.3-6.5-5.3-12.7-9.2c-4.9-3.1-8.5-4.9-12.7-6.2c-2.5-0.7-7.4-1-7.4-1s2.3,2.1,7.1,5.7c7,5.1,5.8,5.2,11.2,9
	c6,4.3,9,5.2,9.3,8.2c0.2,1.5-0.4,2.8-1.3,4.6c-1.5,3-3,3.7-7.4,8c-3.6,3.5-5.3,5.3-6.4,6.8c-1.4,2-2.1,3.7-4.2,4.8
	c-2.1,1.1-4.3-0.3-4,1c0.3,1.9,2.6,6.3,2.9,15c0.1,2.1,0.2,4.3,0.7,6.8C99.1,138.4,100.1,138.8,101.3,140z"/>
<g>
	<path fill="#21409A" stroke="#000000" stroke-miterlimit="10" d="M92.8,81.4c1.8-1.3,3.5,2,8.2,5.2c3.5,2.3,6.1,2.9,6,4
		c0,0.8,0,0.8-1,2.3c-1.8,2.8-0.9,7.7-3.6,10c-1.8,1.6-4.7-0.6-7.1,1.2c-2.2,1.7-2.5,4.2-3.2,4.1c-0.6-0.1-0.8-2.2-1-4
		c-0.3-2.7-1.4-4.6-1.7-6.2c-0.6-2.7-0.4-5-0.3-5.9c0.1-0.8,0.1-4.5,0.8-6.9C90.8,82.5,92.1,81.9,92.8,81.4z"/>
</g>
<path fill="#C49A6C" stroke="#C49A6C" stroke-miterlimit="10" d="M72.4,67.1c0,0-0.3-5-0.7-8c0,0-2.6,1.3-9.3-1.2
	c-0.8-0.3-3.5-0.8-6.7-4.1c-1.5-1.5-1.7-3.5-2.1-4.9c-0.6-2.8,0.2-3.1,0.2-6.5c0,0,0.7-0.2-1.1-1.7c-0.2-0.2-1.4-0.2-1.7,0
	c-0.6,0.3-1.7,0.7-2.9,0.3c-1.8-0.5-2.5-2.3-2.9-3.4c-0.3-0.8-1.2-3.1,0-4.2c0.8-0.8,2.4-0.7,3.4-0.3c3.1,1.1,3.6,4.9,4.6,4.8
	c0.8-0.1-0.2-1.7,0.8-6.2c0.3-1.3,0.2-1.6,1.5-4.2c1-1.8,2-4.2,3.7-5.2c1.8-1.1,3.5-2.2,8.1-2.6c5.2-0.4,6-0.1,11.7-0.4
	c2.4-0.1,5.9-0.1,11,2.1c1.9,0.8,3.2,8.3,3.9,9.3c2.7,3.6,0,4.4,0.3,5.4c0,0,0,0,0,0c0.2,0.1,1.1-1.2,2.2-2c0.3-0.2,1.5-1.1,3-1.1
	c1,0,2.8,0.3,3.4,1.4c1.5,2.6-1.4,5.1-4.5,6.8c-3.3,1.7-1.9,9.4-3.3,12.1c-1.1,2.2-2.6,3.9-6.4,5.2c-4.5,1.6-8.7,2-10.5,1
	c0,0,0,0,0,0c-1.6,2.8-0.2,5.6-0.2,5.6c0,0.3,0,0.9,0,1.6c-0.4,0.3-1.1,0.8-2.1,1.1c-0.3,0.1-0.6,0.1-1,0.1
	C73.5,67.9,72.4,67.1,72.4,67.1z"/>
<path fill="none" stroke="#A97C50" stroke-miterlimit="10" d="M50.3,38.2c0.2-0.2-0.4-1.1-1.2-1.5c-0.9-0.4-2-0.3-2.1,0
	C47,37.2,50,38.6,50.3,38.2z"/>
<path fill="none" stroke="#A97C50" stroke-miterlimit="10" d="M96.3,38.5c-0.1-0.2,0.9-1.2,2.1-1.6c1-0.3,2.3-0.3,2.4,0
	C100.9,37.4,96.5,38.9,96.3,38.5z"/>
<g>
	<path fill="#FFFFFF" stroke="#000000" stroke-miterlimit="10" d="M69.6,39.7c-0.9,0.6-1.8-0.9-4.3-0.9c-2.3,0-3.3,1.3-4,0.7
		c-0.9-0.7-0.1-3.2,0.9-6.2c0.8-2.4,1.5-3.4,2.4-4c0.4-0.3,1.2-0.8,2.1-0.6c0.4,0.1,1.3,0.4,2.4,3.3C69.2,32.4,71.4,38.6,69.6,39.7z
		"/>
	<path fill="#3C2415" stroke="#000000" stroke-miterlimit="10" d="M68.2,38c1.3-1.8,0.5-4,0.4-4.3c-0.1-0.1-1.2-2.8-3.1-2.8
		c-1.8,0.1-2.7,2.4-2.9,2.8c-0.7,1.8,0.5,5.3,2.9,5.1C67.1,38.7,67.2,39.4,68.2,38z"/>
	<path fill="#603913" stroke="#000000" stroke-miterlimit="10" d="M65.5,38.8c1.1-0.1,1.5-0.3,1.5-1.5c0-0.6-0.3-2.1-1.4-2.1
		c-1.1,0-1.4,0.4-1.5,1.8C64,37.9,64.4,38.8,65.5,38.8z"/>
</g>
<g>
	<path fill="#FFFFFF" stroke="#000000" stroke-miterlimit="10" d="M87.6,39.5c-0.9,0.6-1.8-0.9-4.3-0.9c-2.3,0-3.3,1.3-4,0.7
		c-0.9-0.7-0.1-3.2,0.9-6.2c0.8-2.4,1.5-3.4,2.4-4c0.4-0.3,1.2-0.8,2.1-0.6C85,28.6,86,29,87,31.8C87.2,32.3,89.4,38.5,87.6,39.5z"
		/>
	<path fill="#3C2415" stroke="#000000" stroke-miterlimit="10" d="M86.2,37.9c1.3-1.8,0.5-4,0.4-4.3c-0.1-0.1-1.2-2.8-3.1-2.8
		c-1.8,0.1-2.7,2.4-2.9,2.8c-0.7,1.8,0.5,5.3,2.9,5.1C85.1,38.6,85.2,39.3,86.2,37.9z"/>
	<path fill="#603913" stroke="#000000" stroke-miterlimit="10" d="M83.4,38.6c1.1-0.1,1.5-0.3,1.5-1.5c0-0.6-0.3-2.1-1.4-2.1
		c-1.1,0-1.4,0.4-1.5,1.8C82,37.8,82.3,38.7,83.4,38.6z"/>
</g>
<path fill="none" stroke="#000000" stroke-miterlimit="10" d="M69.5,24.6c-1.6-0.5-4.7,0-7,2.8"/>
<path fill="none" stroke="#000000" stroke-miterlimit="10" d="M87.5,27.2c0-1.5-3.2-2.7-7.1-2.7"/>
<line fill="none" stroke="#000000" stroke-miterlimit="10" x1="67.7" y1="29" x2="67.7" y2="29"/>
<g>
	<path fill="none" stroke="#A97C50" stroke-miterlimit="10" d="M77.1,44.7c-0.2-0.1-1.3-0.9-2.7-0.4c-1.2,0.4-2.3,1.6-2.1,2.9
		c0.2,1,1,1.7,1.8,1.9c1,0.3,2.1,0,2.9-0.8"/>
</g>
<path fill="none" stroke="#BE1E2D" stroke-miterlimit="10" d="M89.9,50.6c-0.4-0.7-1.7-1.3-1.7-1.3s-1.1,1.4-1.8,2.4
	c-2.5,3.2-6.1,4.2-7.3,4.5c-2,0.4-3.5,0.3-5,0.1c-1.2-0.1-3-0.1-5-1.2c-1.1-0.6-2.2-1.1-3.8-2.2c-1.8-1.2-2-1.7-2-1.7
	c-1.2-1.2-1.5-1.4-1.5-1.4S61,50.5,60.8,51"/>
<path stroke="#000000" stroke-miterlimit="10" d="M98.5,30.2c0.4-1.5,0.9-2.6,1.1-5.1c0.1-1.8,0.3-4.1-0.3-7.1c-0.5-2.6-1-4.9-2.8-7
	c-1.4-1.5-3-2.4-3.8-2.8c-1-0.5-1.8-0.8-3.4-1.4c-1.5-0.5-2.6-0.8-2.4-0.6c0.4,0.5,2.8,3.1,3.1,7.2c0.1,0.8,0.2,2.6-0.9,4
	c-1,1.3-2.3,1.6-2.2,2.2c0.1,0.6,2.1,0.1,3.7,1.3c0.5,0.4,0.7,0.8,1.8,3.9c1.3,3.7,1.2,4.1,2,5.9c0.4,0.9,1.3,2.9,1.3,2.9v0
	C95.6,33.6,97.6,33.1,98.5,30.2z"/>
<path stroke="#000000" stroke-miterlimit="10" d="M82.2,2.9c-1.3-0.6-3.3-1.4-6.5-1.9c-2.5-0.4-6.2-1-10.6,0.2
	c-2,0.5-8.4,2.2-11.5,7.6c-2.1,3.8-1.2,4.9-2.1,10.4C51.3,20.4,46.2,22,48,30c0.2,1,0.7,1.8,1,2.4c1,1.9,3,5,4.1,4.6
	c1-0.3-0.2-3.3,1.1-7.6c0.3-1.1,1.2-3.7,3.5-5.9c1.9-1.8,3.9-2.6,5.1-3c2.2-0.8,3.1-0.6,9.4-0.9c7.7-0.4,7.4-0.6,9.1-0.3
	c2.1,0.3,2.6,0.4,4.6,0.3c1.6,0,2.9-1.7,3.2-2.3c1.5-2.9,0.4-6-0.1-7.3c-0.4-1-1.1-2.7-2.7-4.4C84.9,4.2,83.5,3.6,82.2,2.9z"/>
<path fill="#F7941E" stroke="#000000" stroke-miterlimit="10" d="M79.9,65.5c0-0.1,0,0.3-0.8-0.1c-0.7-0.4-0.6-0.3-0.6-0.3
	s0,1-0.3,1.9c-0.4,1.2-2,1.7-2.6,1.8c-0.6,0.1-2.9,0.1-3.7-0.9c-0.6-0.8-0.6-2.7-0.6-2.7l-2.1,0c0,0,0.5,2.9,1.4,3.9
	c1.1,1.2,2.4,1.4,3.3,1.5c0.9,0.1,2.9,0.3,4.4-1C79.8,68.4,80.4,66,79.9,65.5z"/>
<path fill="#FFFFFF" stroke="#000000" stroke-miterlimit="10" d="M29.5,46.5C25.4,44,27.3,30.8,20.7,30c-3.6-0.5-4.3-1.4-4.3-1.6
	c0-0.1,4.3,0.2,4.2-1.2c-0.1-1.3-4.6-1.3-4.6-1.2c0,0.2,4.5-0.2,4.5-1.5c0-1.1-4.9-0.5-4.9-0.6c0,0,4.8-0.9,4.8-1.5
	c0-0.9-5-0.8-5-0.9c0-0.1,4.7,0.1,4.8-0.5c0.2-1.1-5-2.2-4.9-2.2c0.1,0,3.4,1.4,4.1,0.5c0.7-0.8-0.9-3-0.7-4.2
	c0.1-0.7,1.7-1.1,2.1-0.3c0.6,1,1.2,2.5,1.2,3.2c0,1.6,0.4,3.3,5.3,9.5c8.3,10.9,12.2,12.9,11.4,15.6C37.9,46.2,32.3,48.2,29.5,46.5
	z"/>
<path fill="none" stroke="#000000" stroke-miterlimit="10" d="M15.4,19c0,1,0,1.9,0,2.8c0,0.9,0.1,1.7,0.1,2.4
	c0.1,0.8,0.1,1.4,0.2,2c0.2,1.4,0.4,2.3,0.7,2.3"/>
<g>
	<g>
		<path d="M15.6,19.8c0,0.3-0.1,1,0.1,1.4c0.2,0.3,0.4,0.1,0.7,0.1c0.5,0,0.9,0.2,1.4,0.2c0.5,0,1-0.1,1.5-0.3
			c0.2-0.1,0.2-0.4,0-0.5c-0.6-0.2-1.2-0.5-1.7-0.7c-0.4-0.2-1-0.5-1.4-0.4c-0.1,0-0.2,0.1-0.2,0.2c-0.1,0.4-0.2,0.9,0.3,1
			c0.2,0.1,0.4,0,0.6,0.1c0.2,0,0.4,0.1,0.5,0.2c0.3,0.1,0.6,0.2,1,0.2c0.3,0,0.3-0.4,0.1-0.5c-0.6-0.3-1.3-0.6-2-0.7
			c-0.3,0-0.5,0.4-0.1,0.5c0.7,0.1,1.3,0.4,2,0.7c0-0.2,0-0.3,0.1-0.5c-0.5,0.1-0.9-0.2-1.4-0.4c-0.1,0-0.3-0.1-0.4-0.1
			c-0.2-0.1-0.2,0-0.1,0.1c0-0.2,0-0.3,0-0.5c-0.1,0.1-0.2,0.1-0.2,0.2c0.5,0,1.2,0.4,1.6,0.5c0.5,0.2,0.9,0.4,1.4,0.6
			c0-0.2,0-0.3,0-0.5c-0.8,0.3-1.6,0.3-2.4,0.1c-0.2-0.1-0.4,0-0.6-0.1c-0.3,0-0.1,0.1-0.1-0.1c0-0.3,0-0.6,0-0.8
			C16.2,19.5,15.7,19.5,15.6,19.8L15.6,19.8z"/>
	</g>
</g>
<g>
	<g>
		<path d="M15.7,22.4c0,0.4,0.1,0.9,0.1,1.3c0,0.2,0.3,0.4,0.5,0.1c0.2-0.4,1.2-0.4,1.6-0.5c0.5-0.1,1-0.3,1.5-0.4
			c0.2-0.1,0.2-0.3,0.1-0.4C19,22,18.3,22,17.7,22.1c-0.4,0-1.5-0.2-1.7,0.3c-0.1,0.3,0.1,0.7,0.5,0.8c0.4,0,0.8-0.1,1.2-0.1
			c0.4,0,0.8,0,1.2-0.1c0.3-0.1,0.2-0.6-0.1-0.5c-0.5,0.1-0.9,0.1-1.4,0.1c-0.2,0-0.3,0-0.5,0c-0.1,0-0.5,0-0.4,0.1
			c0.7,0.1,2-0.4,2.6,0.2c0-0.1,0.1-0.3,0.1-0.4c-0.7,0.2-1.5,0.4-2.2,0.5c-0.5,0.1-0.9,0.1-1.1,0.6c0.2,0,0.3,0.1,0.5,0.1
			c0-0.4-0.1-0.9-0.1-1.3C16.2,22,15.7,22,15.7,22.4L15.7,22.4z"/>
	</g>
</g>
<g>
	<g>
		<path d="M17.2,22.8c0.2,0,0.6-0.1,0.8,0c0.1,0,0.2,0.2,0.3,0.2c0.2,0.1,0.4,0,0.6,0c0.2,0,0.5,0,0.8-0.1c0.1,0,0.2-0.1,0.2-0.2
			c0,0,0,0,0,0c0-0.1-0.1-0.2-0.1-0.2c0,0,0,0,0,0c-0.3-0.2-0.5,0.3-0.3,0.4c0,0,0,0,0,0c0-0.1-0.1-0.1-0.1-0.2c0,0,0,0,0,0
			c0.1-0.1,0.1-0.2,0.2-0.2c-0.2,0.1-0.5,0.1-0.7,0c-0.2,0-0.3,0-0.5-0.1c0,0-0.1-0.1-0.1-0.1c-0.3-0.1-0.7,0-1.1,0
			C16.9,22.3,16.9,22.8,17.2,22.8L17.2,22.8z"/>
	</g>
</g>
<g>
	<g>
		<path d="M16.1,23.4c0.1,0,0.2,0,0.3,0c0.3,0,0.3-0.5,0-0.5c-0.1,0-0.2,0-0.3,0C15.8,22.9,15.8,23.4,16.1,23.4L16.1,23.4z"/>
	</g>
</g>
<g>
	<g>
		<path d="M16,24.9c1.4,0,2.7,0,4.1,0c0-0.2,0-0.3-0.1-0.5c-0.8,0.2-1.7,0.5-2.5,0.7c-0.2,0.1-0.4,0.1-0.6,0.2c-0.1,0-0.2,0-0.3,0.1
			c-0.1,0.1-0.1,0.1-0.1-0.1c-0.4-0.3,0.6-0.1,0.8-0.1c0.4,0,0.8,0,1.2-0.1c0,0,0.6,0,0.6-0.1c0-0.1-0.5-0.1-0.6-0.1
			c-0.3,0-0.5,0.1-0.8,0.2c-0.1,0.1-0.3,0.2-0.4,0.2c-0.2,0.1-0.3,0.1-0.5-0.1c-0.3,0-0.4-0.1-0.2-0.2c0,0.2,0,0.3,0.1,0.5
			c0.1,0,0.1-0.1,0.2-0.1c0.3,0,0.3-0.5,0-0.5c-0.2,0-0.3,0-0.4,0.1c-0.1,0.1-0.2,0.4,0.1,0.5c0.5,0.1,0.8-0.4,0.3-0.7
			c-0.4-0.3-0.7,0-0.8,0.4c-0.1,0.8,0.7,0.9,1.3,0.7c0.3-0.1,0.5-0.2,0.7-0.3c0.3-0.1,0.6-0.1,0.9-0.1c0.2,0,0.5-0.1,0.7-0.3
			c0.3-0.6-0.5-0.6-0.9-0.6c-0.7,0-1.4,0.1-2.2,0.1C16.4,24.6,16.2,24.5,16,24.9c-0.2,0.2,0.1,0.9,0.4,1c0.4,0.1,1.3-0.3,1.7-0.4
			c0.7-0.2,1.4-0.4,2.1-0.6c0.3-0.1,0.2-0.5-0.1-0.5c-1.4,0-2.7,0-4.1,0C15.7,24.4,15.7,24.9,16,24.9L16,24.9z"/>
	</g>
</g>
<g>
	<g>
		<path d="M16.2,27c0.8,0,1.6,0,2.3,0c0.4,0,0.8,0.1,1.2,0.2c0.2,0.1,0.2,0,0-0.1c-0.2,0.1-0.4,0.2-0.7,0.3c-0.3,0.1-0.7,0.2-1,0.3
			c-0.1,0-1.6,0.3-1.3-0.3c0.1-0.2,1.2-0.2,1.4-0.2c0.2,0,1.4,0,0.5,0.2c-0.3,0.1-0.5,0.1-0.8,0.1c-0.4,0.1-1.1,0.2-0.3,0
			c0.3-0.1,0.6-0.1,0.9-0.2c0.2,0.1,0.4,0,0.6-0.1c0,0,0,0-0.1,0c-0.4,0-0.7,0.1-1.1,0.2c-0.2,0-0.4,0.1-0.5,0.2
			c0,0.2,0.2,0.2,0.3,0.1c0.3,0,0.7-0.2,1-0.2c0.3,0,0.2-0.5-0.1-0.5C18,27,16.3,27.2,16.9,28c0.1,0.1,0.2,0.1,0.2,0.1
			c0.7-0.2,1.4-0.3,2.1-0.5c0.2-0.1,0.4-0.1,0.4-0.3c0.1-0.7-1-0.6-1.4-0.5c-0.4,0.1-2,0-1.8,0.8c0.2,0.8,1.8,0.3,2.2,0.2
			c0.4-0.1,1.3-0.4,0.8-1c-0.2-0.3-0.7-0.3-1.1-0.3c-0.6,0-1.1,0.2-1.6,0.2c-0.7,0-0.7,0.9-0.3,1.3c0.5,0.5,1.9,0,2.5-0.1
			c0.3-0.1,1.9-0.5,1.2-1.1c-0.3-0.3-1.1-0.3-1.5-0.3c-0.8-0.1-1.7-0.1-2.5,0C15.9,26.5,15.9,27,16.2,27L16.2,27z"/>
	</g>
</g>
</svg>
