<?xml version="1.0" encoding="utf-8"?>
<!-- Generator: Adobe Illustrator 18.1.0, SVG Export Plug-In . SVG Version: 6.00 Build 0)  -->
<!DOCTYPE svg PUBLIC "-//W3C//DTD SVG 1.1//EN" "http://www.w3.org/Graphics/SVG/1.1/DTD/svg11.dtd">
<svg version="1.1" xmlns="http://www.w3.org/2000/svg" xmlns:xlink="http://www.w3.org/1999/xlink" x="0px" y="0px"
	 viewBox="0 0 200 200" enable-background="new 0 0 200 200" xml:space="preserve">
<g id="Layer_1">
	<path fill="#E8B68A" stroke="#E8B68A" stroke-miterlimit="10" d="M103.6,73.8c0,0,0.3-5.5,0.7-8.8c0,0,2.9,1.4,10.2-1.4
		c0.9-0.3,3.8-0.9,7.4-4.5c1.6-1.6,1.9-3.8,2.2-5.4c0.7-3.1-0.2-3.4-0.3-7.1c0,0-0.8-0.2,1.2-1.9c0.2-0.2,1.5-0.2,1.9,0
		c0.7,0.3,1.9,0.8,3.2,0.3c2-0.5,2.6-2.6,3.1-3.7c0.3-0.9,1.2-3.4,0-4.6c-0.9-0.9-2.6-0.7-3.7-0.3c-3.4,1.2-3.8,5.5-4.9,5.3
		c-0.9-0.1,0.2-1.9-1-6.8c-0.3-1.4-0.2-1.8-1.8-4.6c-1.1-2-2.3-4.5-4.1-5.7c-2-1.2-3.8-2.4-9-2.7c-5.7-0.4-6.6-0.1-12.9-0.3
		c-2.6-0.1-6.5-0.1-12.1,2.4c-2.1,1-3.4,9.1-4.3,10.2c-2.9,4,0,4.8-0.2,5.9l0,0c-0.2,0.1-1.2-1.3-2.4-2.2c-0.3-0.2-1.6-1.2-3.3-1.2
		c-1.1,0-3.1,0.3-3.7,1.5c-1.6,2.9,1.5,5.6,4.9,7.5c3.6,1.9,2.2,10.3,3.7,13.3c1.2,2.4,2.9,4.2,7,5.7c4.9,1.8,9.6,2.1,11.5,1l0,0
		c1.9,3.1,0.3,6.2,0.3,6.2c0,0.3,0,1,0,1.8c0.4,0.3,1.2,0.9,2.3,1.1c0.3,0.1,0.7,0.1,1.1,0.1C102.4,74.8,103.6,73.8,103.6,73.8z"/>
	<path fill="#ED1C24" stroke="#000000" stroke-miterlimit="10" d="M94.3,72.1c-1.3-1-3.1-0.5-5.9,0c-1.3,0.3-3.2,0.7-5.4,1.9
		c-3.3,1.8-4.9,3.7-8,6.2c-4.3,3.3-7.5,7.1-11.7,10.3c-0.1,0-3.5,1.9-7.4,5.1c-1.1,0.9-2.2,1.9-2.6,3.5c-0.4,1.8,0.2,4,1.3,4.3
		c0.7,0.2,1.1-0.7,3.2-1.9c1.4-0.9,2.6-1.5,4.1-1.4c1.5,0.1,1.6,0.9,2.7,0.9c2.1,0.1,4.7-3.6,6.4-4.7c1.4-1,3.5-1.4,5.8-3.6
		c1.1-1.1,1.3-1,2.3-1.4c1-0.5,2.5-2.5,4.5,0.5c1.2,2,1,6.7,1.1,8.7c0.1,1.6,0,5.9-0.8,8.9c0,0-0.1,0.5-0.8,3.1l-0.4,1.9
		c0.3,0.7,2.5-0.1,5.9,0c3.4,0.1,3.8,0.8,5.6,0.3c1.9-0.4,2-1.3,4.2-2.1c1.9-0.7,4.2-0.5,4.7-0.4c1.9,0.4,2.1,1,4.3,1.8
		c0.7,0.2,0.3,0,2,0.2c2.9,0.4,4.6,0.4,6.3,0.2c1.5-0.2,1.8-0.4,1.9-0.5c0.8-1-0.8-2.6-1.4-5.9c-0.2-1-0.3-3.7-0.3-6.8
		c0-1.8-0.3-3.3,1-6.2c1.8-3.8,3.1-3.6,4.2-4.1c1.3-0.5,3.6,1.2,8.1,4.8c3.7,2.9,4.7,4.1,6.8,4.3c1.2,0.1,2.1-0.1,3.7,0.3
		c0.8,0.2,2.4,0.8,3.5,2.2c0.9,1.1,0.9,1.9,1.3,1.9c0.8,0,1.4-1.8,1.6-3.2c0.1-0.4,0.2-1.6-0.2-3c-0.7-2.2-2.4-3.3-4.1-4.4
		c0,0-0.5-0.4-8.4-6.2c-3.3-2.4-2.6-2.2-6.7-5.2c-4.2-3.1-4.5-3.1-6.2-4.6c-2.4-2.3-2.5-3.2-4.4-4.3c-1.2-0.7-2.5-0.9-5.4-1.4
		c-3.4-0.7-4-0.4-4.3-0.2c-1.2,0.9-0.2,2.5-1.4,4.1c-1.3,1.5-3.6,1.6-4.4,1.6c-0.9,0-2.7,0.1-4.1-1.1C94.9,74.9,95.8,73.2,94.3,72.1
		z"/>
	<polygon stroke="#000000" stroke-miterlimit="10" points="94.7,83.2 87.7,90.5 94.7,100.6 109,100.6 116.1,90.6 108.8,83.2 	"/>
	<polygon fill="#FFFFFF" stroke="#000000" stroke-miterlimit="10" points="92.9,90.5 97.3,97 105.7,97 110.9,90.5 108.5,87.3 
		95.6,87.3 	"/>
	<path fill="#FFFFFF" stroke="#000000" stroke-miterlimit="10" d="M55.1,104.1c-0.3,1.2,0.7,2.5,3.3,5.2c5.8,5.8,6.7,5.1,9.1,8.1
		c2.4,3,2.9,5.3,6.2,7.6c1.4,1,2.4,1.3,3.3,1.1c1.8-0.5,2.4-3.2,2.7-4.8c0.4-1.9,0.9-4.1-0.3-5.7c-1-1.3-2.5-1.6-3.7-1.9
		c-2.5-0.5-3.2,0.3-4.4,0c-3.8-1.1-2.1-10.8-6.7-13c-1.9-0.9-4.4-0.5-5.5-0.2C58.1,100.8,55.7,102.4,55.1,104.1z"/>
	<path fill="#FFFFFF" stroke="#000000" stroke-miterlimit="10" d="M136.1,100.3c-4.2,1.6-2.5,10.8-7,13c-2.3,1.1-4-0.5-6.5,1.1
		c-2.5,1.6-3,4.7-3,5.1c-0.3,2.7,0.9,6.3,3.2,6.8c1.4,0.4,2.9-0.4,3.8-1.1c2.9-1.9,3.2-3.7,5.6-6.7c1-1.3,0.8-0.8,8.7-8
		c2.5-2.3,3.6-3.4,3.5-4.8c-0.1-2.1-2.3-4.4-3-4.7C140.6,100.4,138,99.5,136.1,100.3z"/>
	<path fill="#F7941E" stroke="#000000" stroke-miterlimit="10" d="M81.9,114.9c-0.3,1.3-0.8,2.7-1.1,4.1h12.1l1.3-4.4L81.9,114.9z"
		/>
	<polygon fill="#F7941E" stroke="#000000" stroke-miterlimit="10" points="107.7,114.8 107.7,119.7 118.6,119 117.4,114.6 	"/>
	<path stroke="#000000" stroke-miterlimit="10" d="M94.5,115.3c-0.1,0.3-1.4,2.6-0.3,4.8c1.3,2.9,5.4,3,6.2,3c0.9,0,5.2,0,6.8-3.3
		c0.1-0.1,1.3-2.6,0-5.1c-1.8-3.3-6.7-2.6-7.3-2.6C99,112.3,96,112.7,94.5,115.3z"/>
	<path fill="#FFFFFF" stroke="#000000" stroke-miterlimit="10" d="M97.5,116c-0.7,1.1-0.5,2.5,0.2,3.5c1.2,1.5,3.8,1.2,5.2,0
		c0.8-0.7,1.5-2,1.1-3.2c-0.4-1.1-2-1.4-2.6-1.4C100.8,114.8,98.6,114.5,97.5,116z"/>
	<path fill="#ED1C24" stroke="#000000" stroke-miterlimit="10" d="M81.3,119.3c0,0-1.6,3.6-2.6,7.1c-0.2,0.5-0.9,3.3-1.3,4.8
		c-2.7,9.6-2.1,19.1-3.1,20.1c-1.4,1.3-1.5,2.2-2,4.1c-0.4,2.2-0.4,3.4-0.5,5.4c0,1-0.5,1.8-0.3,2.4c0.2,1,1.8,1.4,2.7,1.6
		c0.5,0.2,3.1,0.5,5.1,0.4c2.1-0.1,4.6-1.1,4.6-1.1v-0.8c0,0,0.2-2.5,0.7-3.7c1.3-3.7,3.1-6.2,5.4-8.9c7.5-8.6,7.9-13.2,9.6-13.7
		c0,0,3.1,4.6,11.4,14.7c2.5,3.1,4.5,5.2,4.6,8.4c0,1.9-0.5,3.7,0.5,4.8c0.2,0.2,0.7,0.5,3.5,0.8c5.1,0.3,6.6-0.7,7-0.9
		c0.5-0.3,1.4-1,1.4-1.9s0.2-1.5,0-2.5c-0.4-2.5-0.2-3.2-1.5-5.5c-0.5-1-1-2.3-1.5-3.5c-1.2-2.5,0.1-9.8-1.4-16.7
		c-0.9-3.8-0.1-6.9-1.4-8.1c-2.1-2.1-3.6-6.6-3.6-6.6s-9.9-0.4-10.9,0.3c-2.7,2-2.3,3.1-7.5,3.1c-4.4,0-6.2-3-7.4-3.3
		C89,118.6,81.3,119.3,81.3,119.3z"/>
	<path stroke="#000000" stroke-miterlimit="10" d="M70,167.2c0-1.8-0.1-3.3,0.8-3.7c0.4-0.2,0.9,0,2.1,0.3c1.3,0.4,2.7,0.9,4.1,0.9
		c2.2,0.1,6.4-0.4,6.7,0c1.2,1.4-1.3,5.6-3.2,8.6c-2.6,4.3-3.5,4.4-3.8,6.5c-0.3,2,0.2,2.3,0,6.7c-0.2,3.2-0.5,4.1-0.8,4.4
		c-0.3,0.8-0.9,1.6-3.7,3.8c-2.9,2.3-4.3,3.5-5.6,3.8c-0.3,0.1-4.6,1.4-7.6-0.9c-0.5-0.3-1.4-1.1-1.6-2.2c-0.1-0.4-0.3-1.9,2.1-4.8
		c2.4-3.1,4-3.2,7-6.7c1.2-1.3,1.8-2,2.2-3c1-2.2,0.2-3.2,0.5-7.4C69.3,170,70,170.5,70,167.2z"/>
	<path stroke="#000000" stroke-miterlimit="10" d="M117.9,170.2c-1-1.9-2.6-5.1-1.6-5.9c0.4-0.4,1.2,0,3.5,0.3
		c2.5,0.4,5.3,0.8,7-0.5c1.2-0.9,1.2-1.9,1.6-1.9c1.4,0.1,2,7.8,2.1,9.5c0.4,6.7-0.4,7.1,0.5,9.5c0.7,1.6,1.3,1.8,7,7.6
		c4.2,4.2,5.1,5.5,4.8,6.8c-0.3,2.1-3.1,3.1-3.7,3.3c-3.2,1.2-6.2-0.1-6.7-0.3c-1.8-0.9-1.5-1.4-5.2-4.6c-2.6-2.3-2.9-2.1-3.3-3
		c-0.9-1.8-0.1-2.9-0.2-7.4c0-1.4,0-2.2-0.2-3C123,176.6,120.7,175.5,117.9,170.2z"/>
	<path fill="#21409A" stroke="#000000" stroke-miterlimit="10" d="M118.1,74.4c0,0,9.7,2,17,7.3c2.4,1.8,7.6,5.5,12.1,12.2
		c4.2,6.3,3.6,8.9,8.9,15.7c4.1,5.3,6.8,6.7,7.8,7.3c4.2,2.1,8.7,2.3,11,2.2c4.7-0.1,6.5-1.4,7.4-0.3c1.8,1.9-1,8.6-5.6,12.8
		c-2.3,2.1-5.7,3.7-12.4,7c-3.5,1.8-3.2,1.4-4.3,2.1c-6.3,3.8-5.5,7.9-10.2,11.1c-4.1,2.7-4.6,3.4-13,3.3c-4.9,0-8.1,3-9.1,2
		c-0.9-0.9,0.3,1.2-0.8-1.5c-0.7-2-1.4-3.2-2.3-5.1c-0.8-1.6,1.3-7.8-0.7-15.9c-0.9-3.6-1.1-7.7-1.1-7.7s2-0.5,4.1-1.5
		c2.7-1.3,3.5-3.7,5.2-6.5c4.3-7,8.5-5.7,12.4-12.8c1.3-2.4,2.5-4.5,2.1-7c-0.4-2.3-2-3.7-8.1-8.6c-4.3-3.3-6.2-5.1-8.9-6.7
		C123.9,80.5,117.7,75,118.1,74.4z"/>
	<g>
		<path fill="#27AAE1" stroke="#000000" stroke-miterlimit="10" d="M120.5,91c2-1.4,3.5,0.9,8.6,4.4c3.7,2.6,6.6,3.4,6.5,4.6
			c0,0.9-1,0.5-1.6,2.3c-1.2,3.4-1.1,7.9-4.1,10.3c-2.1,1.6-4.8-0.4-7.6,1.5c-2.4,1.8-2.7,4.7-3.5,4.6c-0.7-0.1-0.8-2.4-0.9-4.4
			c-0.2-3-1.3-5.1-1.6-6.8c-0.5-3-0.3-5.5-0.1-6.5c0.2-0.9,1.5-2.4,2.5-5.1C119.2,94,119.7,91.6,120.5,91z"/>
	</g>
	<path fill="#21409A" stroke="#000000" stroke-miterlimit="10" d="M114.4,157.4c-0.4,0.4-9-3.1-14.5-2.7c-8.2,0.4-14.1,4.5-14.7,3.5
		c-0.8-1.1,3.1-3.5,7.5-10c2.1-3.1,6-11.1,7-11.1c0.8,0,4.5,6,8.2,10.7C111.7,152.3,114.7,157,114.4,157.4z"/>
	<path fill="#21409A" stroke="#000000" stroke-miterlimit="10" d="M71.9,154c-2.2,2.3-4.8-3.1-10.2-5.1c-5.3-1.9-6.6,1-11.1-0.5
		c-6.5-2.2-4.8-8.5-12.4-13c-1.3-0.8-5.2-2-13-4.4c-6.5-2.1-7.4-2.1-7.8-3.2c-1.4-3.6,8.6-7.8,18.6-20.8c5.7-7.5,5.2-9.6,11-15.2
		c3.7-3.6,7.1-5.8,14-10.2c5.4-3.5,9.2-5.5,14-6.8c2.7-0.8,8.1-1.1,8.1-1.1s-2.5,2.4-7.8,6.3c-7.7,5.7-6.5,5.7-12.3,10
		c-6.6,4.7-9.8,5.8-10.2,9.1c-0.2,1.6,0.4,3.1,1.4,5.1c1.6,3.3,3.3,4.1,8.1,8.7c4,3.8,5.9,5.7,7,7.4c1.5,2.2,2.3,4.1,4.6,5.2
		c2.3,1.1,4.7-0.3,4.4,1.1c-0.3,2.1-2.9,6.9-3.1,16.5c0,2.3-0.2,4.7-0.8,7.5C74.3,152.2,73.2,152.7,71.9,154z"/>
	<g>
		<path fill="#21409A" stroke="#000000" stroke-miterlimit="10" d="M120.5,91c2.3-0.5,3.5,0.9,8.6,4.4c3.7,2.6,6.6,3.4,6.5,4.6
			c0,0.9-1,0.5-1.6,2.3c-1.2,3.4-1.1,7.9-4.1,10.3c-2.1,1.6-4.8-0.4-7.6,1.5c-2.4,1.8-2.7,4.7-3.5,4.6c-0.7-0.1-0.8-2.4-0.9-4.4
			c-0.2-3-1.3-5.1-1.6-6.8c-0.5-3-0.2-5.5-0.3-6.5c-0.2-1.5-0.2-5.1,1.3-7.1C118.4,92.2,119.5,91.3,120.5,91z"/>
	</g>
	<g>
		<path fill="#21409A" stroke="#000000" stroke-miterlimit="10" d="M82.3,90c-0.5-0.2-5.1,1.6-10.4,5.2c-3.8,2.5-6.6,3.2-6.6,4.5
			c0,0.9,0,0.9,1.1,2.5c2,3.1,1.1,8.5,4.1,11c2,1.8,5.2-0.8,7.8,1.3c2.4,1.9,2.7,4.6,3.5,4.5c0.7-0.1,0.9-2.4,1-4.4
			c0.3-3,1.4-5.1,1.9-6.8c0.5-3,0.4-5.5,0.2-6.5c-0.2-0.9,0.4-4.9-0.4-7.5C83.6,91.7,83.2,90.5,82.3,90z"/>
	</g>
	<path fill="#F7941E" stroke="#000000" stroke-miterlimit="10" d="M94.8,71.9c0-0.1,0,0.3,0.9-0.1c0.8-0.4,0.7-0.3,0.7-0.3
		s0,1.1,0.3,2.1c0.4,1.3,2.2,1.9,2.9,2s3.2,0.1,4.1-1c0.7-0.9,0.7-3,0.7-3h2.3c0,0-0.5,3.2-1.4,4.3c-1.2,1.4-2.6,1.5-3.6,1.6
		s-3.1,0.3-4.8-1.1C94.9,75.1,94.3,72.6,94.8,71.9z"/>
	<path fill="none" stroke="#C49A6C" stroke-miterlimit="10" d="M127.7,41.8c-0.2-0.2,0.4-1.2,1.3-1.6c1-0.4,2.2-0.3,2.3,0
		C131.3,40.8,128,42.3,127.7,41.8z"/>
	<path fill="none" stroke="#C49A6C" stroke-miterlimit="10" d="M77.1,42.4c0.1-0.2-1-1.3-2.4-1.6c-1.1-0.3-2.5-0.3-2.6,0
		C72.1,41.3,76.9,43,77.1,42.4z"/>
	<g>
		<path fill="#FFFFFF" stroke="#000000" stroke-miterlimit="10" d="M106.5,43.7c1,0.5,2-1,4.7-1c2.5,0,3.6,1.4,4.4,0.8
			c1-0.8,0.1-3.5-1-6.8c-0.9-2.6-1.6-3.6-2.7-4.4c-0.4-0.3-1.3-0.9-2.3-0.7c-0.4,0.1-1.4,0.4-2.6,3.6
			C106.8,35.6,104.5,42.4,106.5,43.7z"/>
		<path fill="#3C2415" stroke="#000000" stroke-miterlimit="10" d="M108,41.8c-1.5-2-0.7-4.4-0.4-4.7c0.1-0.1,1.3-3.1,3.4-3.1
			c2,0.1,3,2.6,3.2,3.1c0.8,1.9-0.5,5.8-3.1,5.6C109.2,42.6,109.1,43.3,108,41.8z"/>
		<path fill="#603913" stroke="#000000" stroke-miterlimit="10" d="M111,42.6c-1.2-0.1-1.6-0.3-1.6-1.6c0-0.7,0.3-2.3,1.5-2.3
			c1.2,0,1.5,0.4,1.6,2C112.5,41.7,112.2,42.7,111,42.6z"/>
	</g>
	<g>
		<path fill="#FFFFFF" stroke="#000000" stroke-miterlimit="10" d="M86.7,43.7c1,0.5,2-1,4.7-1c2.5,0,3.6,1.4,4.4,0.8
			c1-0.8,0.1-3.5-1-6.8C94,34,93.2,33,92.1,32.2c-0.4-0.3-1.3-0.9-2.3-0.7c-0.4,0.1-1.4,0.4-2.6,3.6C87.1,35.6,84.7,42.4,86.7,43.7z
			"/>
		<path fill="#3C2415" stroke="#000000" stroke-miterlimit="10" d="M88.2,41.8c-1.5-2-0.7-4.4-0.4-4.7c0.1-0.1,1.3-3.1,3.4-3.1
			c2,0.1,3,2.6,3.2,3.1c0.8,1.9-0.5,5.8-3.1,5.6C89.4,42.6,89.3,43.3,88.2,41.8z"/>
		<path fill="#603913" stroke="#000000" stroke-miterlimit="10" d="M91.3,42.6c-1.2-0.1-1.6-0.3-1.6-1.6c0-0.7,0.3-2.3,1.5-2.3
			s1.5,0.4,1.6,2C92.9,41.7,92.5,42.7,91.3,42.6z"/>
	</g>
	<path fill="none" stroke="#000000" stroke-miterlimit="10" d="M106.5,27c1.8-0.5,5.2,0,7.8,3"/>
	<path fill="none" stroke="#000000" stroke-miterlimit="10" d="M86.7,30c0-1.6,3.5-3,7.8-3"/>
	<line fill="none" stroke="#000000" stroke-miterlimit="10" x1="108.5" y1="29.7" x2="108.5" y2="29.7"/>
	<g>
		<path fill="none" stroke="#C49A6C" stroke-miterlimit="10" d="M101.4,49.1c-0.2-0.1-1.5-0.9-3-0.4c-1.3,0.4-2.5,1.8-2.3,3.2
			c0.2,1.1,1.1,1.9,2,2.1c1.1,0.3,2.3,0,3.2-0.9"/>
	</g>
	<path fill="none" stroke="#BE1E2D" stroke-miterlimit="10" d="M84.2,55.7c0.4-0.8,1.9-1.4,1.9-1.4s1.2,1.5,2,2.6
		c2.7,3.5,6.7,4.5,8.1,4.8c2.2,0.4,3.8,0.2,5.5,0.1c1.3-0.1,3.3-0.2,5.5-1.3c1.2-0.7,2.4-1.2,4.2-2.5c2-1.3,2.2-1.9,2.2-1.9
		c1.3-1.3,1.6-1.5,1.6-1.5s0.7,0.8,0.9,1.3"/>
	<path stroke="#000000" stroke-miterlimit="10" d="M74.7,33.4c-0.4-1.6-1-2.9-1.2-5.6c-0.2-2-0.3-4.5,0.2-7.8c0.5-2.9,1-5.4,3.1-7.7
		c1.5-1.6,3.3-2.7,4.2-3.2c1.1-0.5,2-0.9,3.7-1.5c1.6-0.5,2.9-0.9,2.6-0.7c-0.4,0.5-3.1,3.4-3.3,7.9c-0.1,0.9-0.2,2.9,1,4.4
		c1.1,1.4,2.5,1.8,2.4,2.3c-0.1,0.7-2.3,0.1-4.1,1.4c-0.5,0.4-0.8,0.9-2,4.3c-1.3,4.1-1.3,4.5-2.2,6.5c-0.4,1-1.4,3.2-1.4,3.2l0,0
		C77.8,37.2,75.6,36.5,74.7,33.4z"/>
	<path stroke="#000000" stroke-miterlimit="10" d="M92.4,3.3c1.4-0.7,3.6-1.6,7-2.2c2.7-0.4,6.8-1.1,11.7,0.1
		c2.2,0.5,9.3,2.3,12.6,8.2c2.4,4.2,1.4,5.4,2.3,11.4c0.2,1.4,5.8,3.1,4,11.9c-0.2,1.1-0.8,2-1.1,2.6c-1,2.1-3.3,5.5-4.4,5.2
		c-1.1-0.3,0.2-3.6-1.3-8.4c-0.3-1.1-1.3-4.1-4-6.5c-2.1-2-4.3-2.9-5.6-3.3c-2.4-0.9-3.4-0.5-10.3-0.9c-8.5-0.3-8.1-0.7-10-0.3
		c-2.3,0.5-2.8,0.5-5,0.5c-1.8,0-3.2-1.9-3.5-2.4c-1.6-3.2-0.5-6.6,0-8c0.3-1.1,1.2-3,3-4.8C89.3,4.8,90.9,4.1,92.4,3.3z"/>
</g>
<g id="Layer_2">
	<g>
		<g>
			<g>
				<path fill="#FFDE11" d="M135.5,86.8c0.1-0.7,1.1-1.7,1.6-1.8c0.6-0.2,0.8,0.1,0.9,0c0.1-0.1,0,0,0-0.6c0-0.8,1.2-1.7,2.2-2
					c1.3-0.4,3.3-0.1,3.9,1.1c0.3,0.7,0,1.5-0.1,1.7c-0.5,1-1.6,1.5-2.5,1.5c-1.1,0-1.3-0.6-2.3-0.6c-1,0.1-2.8,0.6-3.2,1.4
					c-0.1,0.3,0,0.6-0.1,0.6C135.8,88.2,135.3,87.5,135.5,86.8L135.5,86.8z"/>
				<path fill="none" stroke="#231F20" stroke-width="0.3562" stroke-miterlimit="10" d="M135.5,86.8c0.1-0.7,1.1-1.7,1.6-1.8
					c0.6-0.2,0.8,0.1,0.9,0c0.1-0.1,0,0,0-0.6c0-0.8,1.2-1.7,2.2-2c1.3-0.4,3.3-0.1,3.9,1.1c0.3,0.7,0,1.5-0.1,1.7
					c-0.5,1-1.6,1.5-2.5,1.5c-1.1,0-1.3-0.6-2.3-0.6c-1,0.1-2.8,0.6-3.2,1.4c-0.1,0.3,0,0.6-0.1,0.6
					C135.8,88.2,135.3,87.5,135.5,86.8L135.5,86.8z"/>
				<path fill="#FFDE11" d="M134.2,82.2c-0.6,0.5-0.6,1.6,0.1,2c0.6,0.4,1.4,0.3,1.8-0.3c0.3-0.5,0.2-1.1-0.1-1.6
					C135.5,81.9,134.7,81.8,134.2,82.2L134.2,82.2z"/>
				<path fill="none" stroke="#231F20" stroke-width="0.3562" stroke-miterlimit="10" d="M134.2,82.2c-0.6,0.5-0.6,1.6,0.1,2
					c0.6,0.4,1.4,0.3,1.8-0.3c0.3-0.5,0.2-1.1-0.1-1.6C135.5,81.9,134.7,81.8,134.2,82.2L134.2,82.2z"/>
				<path fill="#FFDE11" d="M124.1,87.2c-0.4-1,0.6-2.5,0.6-2.5c0.1-0.2,0.2-0.4,0.3-0.4c0.5-0.6,1.2-0.8,1.6-0.8
					c1-0.2,2.3-0.3,2.9-0.1c0.8,0.3,1.1,0.9,1.3,1.5c0.2,0.6-0.4,1.1-0.1,1.4c0.2,0.3,0.8-0.2,1.5,0.1c0.5,0.2,1,0.7,1.1,1.2
					c0.1,0.4-0.1,0.7-0.2,0.9C132.1,90,125,89.2,124.1,87.2L124.1,87.2z"/>
				<path fill="none" stroke="#231F20" stroke-width="0.3562" stroke-miterlimit="10" d="M124.1,87.2c-0.4-1,0.6-2.5,0.6-2.5
					c0.1-0.2,0.2-0.4,0.3-0.4c0.5-0.6,1.2-0.8,1.6-0.8c1-0.2,2.3-0.3,2.9-0.1c0.8,0.3,1.1,0.9,1.3,1.5c0.2,0.6-0.4,1.1-0.1,1.4
					c0.2,0.3,0.8-0.2,1.5,0.1c0.5,0.2,1,0.7,1.1,1.2c0.1,0.4-0.1,0.7-0.2,0.9C132.1,90,125,89.2,124.1,87.2L124.1,87.2z"/>
				<path fill="#FCEE23" d="M126.1,82.5c1-0.3,1.6,0.6,2.2,0.3c0.5-0.3,0.1-1.2,0.6-1.9c0.6-0.8,2-0.7,2.8-0.5
					c0.1,0,1.9,0.6,2.3,2.1c0.1,0.3,0.5,1,0.1,1.5c-0.5,0.6-1.3,0.4-1.7,1c-0.3,0.4-0.3,0.7-0.6,1.1c0,0-0.6,0-0.8,0.1
					c-0.7,0.4,0.1-0.9-0.4-2c-0.5-1.1-2.6-0.7-2.7-0.7c-1.6,0.2-2.5,1.4-2.9,1.1c-0.1-0.1-0.1-0.4,0-0.7
					C124.9,83.4,125.4,82.7,126.1,82.5L126.1,82.5z"/>
				<path fill="none" stroke="#231F20" stroke-width="0.3562" stroke-miterlimit="10" d="M126.1,82.5c1-0.3,1.6,0.6,2.2,0.3
					c0.5-0.3,0.1-1.2,0.6-1.9c0.6-0.8,2-0.7,2.8-0.5c0.1,0,1.9,0.6,2.3,2.1c0.1,0.3,0.5,1,0.1,1.5c-0.5,0.6-1.3,0.4-1.7,1
					c-0.3,0.4-0.3,0.7-0.6,1.1c0,0-0.6,0-0.8,0.1c-0.7,0.4,0.1-0.9-0.4-2c-0.5-1.1-2.6-0.7-2.7-0.7c-1.6,0.2-2.5,1.4-2.9,1.1
					c-0.1-0.1-0.1-0.4,0-0.7C124.9,83.4,125.4,82.7,126.1,82.5L126.1,82.5z"/>
				<path fill="#FFDE11" d="M124.2,83.5c-0.4-0.4-1,0.2-1.6-0.2c-0.5-0.3-0.7-1-0.6-1.6c0.1-0.9,0.9-1.6,1.8-1.5
					c0.7,0.1,1.1,0.6,1.2,0.7c0-0.3,0-0.9,0.4-1.4c0,0,0.1-0.2,0.3-0.3c0.5-0.5,1.5-0.8,2.5-0.7c0.8,0.1,2.2,0.7,2.4,1.8
					c0.2,1.2-1.2,2.4-2.4,2.5c-1,0.1-1.4-0.6-2.2-0.3c-1,0.4-1.1,2.3-1.4,2.2C124.4,84.9,124.7,83.9,124.2,83.5L124.2,83.5z"/>
				<path fill="none" stroke="#231F20" stroke-width="0.3562" stroke-miterlimit="10" d="M124.2,83.5c-0.4-0.4-1,0.2-1.6-0.2
					c-0.5-0.3-0.7-1-0.6-1.6c0.1-0.9,0.9-1.6,1.8-1.5c0.7,0.1,1.1,0.6,1.2,0.7c0-0.3,0-0.9,0.4-1.4c0,0,0.1-0.2,0.3-0.3
					c0.5-0.5,1.5-0.8,2.5-0.7c0.8,0.1,2.2,0.7,2.4,1.8c0.2,1.2-1.2,2.4-2.4,2.5c-1,0.1-1.4-0.6-2.2-0.3c-1,0.4-1.1,2.3-1.4,2.2
					C124.4,84.9,124.7,83.9,124.2,83.5L124.2,83.5z"/>
				<path fill="#FCEE23" d="M126.7,77.4c0.8-0.3,1.5,0.5,2.1,0.1c0.5-0.3,0.1-1.1,0.6-1.7c0.7-0.7,2.1-0.4,2.3-0.4
					c1.4,0.3,2.5,1.4,2.4,1.8c-0.2,0.6-2.3-0.2-3.3,0.9c-0.4,0.5-0.3,0.9-0.8,1.1c-0.7,0.3-1.4-0.8-2.5-0.7c-1,0-1.6,0.9-1.8,0.7
					C125.4,79,125.9,77.8,126.7,77.4L126.7,77.4z"/>
				<path fill="none" stroke="#231F20" stroke-width="0.3562" stroke-miterlimit="10" d="M126.7,77.4c0.8-0.3,1.5,0.5,2.1,0.1
					c0.5-0.3,0.1-1.1,0.6-1.7c0.7-0.7,2.1-0.4,2.3-0.4c1.4,0.3,2.5,1.4,2.4,1.8c-0.2,0.6-2.3-0.2-3.3,0.9c-0.4,0.5-0.3,0.9-0.8,1.1
					c-0.7,0.3-1.4-0.8-2.5-0.7c-1,0-1.6,0.9-1.8,0.7C125.4,79,125.9,77.8,126.7,77.4L126.7,77.4z"/>
				<path fill="#FFDE11" d="M130.4,80.3c0.5,0.5,1.2,0.1,2,0.6c0.6,0.4,0.5,0.8,1.1,1.2c0.8,0.5,1.6,0.3,1.9,0.3
					c0.4-0.1,1.3-0.2,1.8-1c0.3-0.4,0.5-1.4,0.2-1.7c-0.4-0.3-1,0.5-1.6,0.1c-0.7-0.4-0.2-1.5-1.1-2.3c-0.3-0.3-0.6-0.4-0.9-0.4
					c-1.4-0.4-3.3,0.2-3.7,1.5C129.9,79.1,129.9,79.8,130.4,80.3L130.4,80.3z"/>
				<path fill="none" stroke="#231F20" stroke-width="0.3562" stroke-miterlimit="10" d="M130.4,80.3c0.5,0.5,1.2,0.1,2,0.6
					c0.6,0.4,0.5,0.8,1.1,1.2c0.8,0.5,1.6,0.3,1.9,0.3c0.4-0.1,1.3-0.2,1.8-1c0.3-0.4,0.5-1.4,0.2-1.7c-0.4-0.3-1,0.5-1.6,0.1
					c-0.7-0.4-0.2-1.5-1.1-2.3c-0.3-0.3-0.6-0.4-0.9-0.4c-1.4-0.4-3.3,0.2-3.7,1.5C129.9,79.1,129.9,79.8,130.4,80.3L130.4,80.3z"/>
				<g>
					<g>
						<g>
							<defs>
								
									<rect id="SVGID_1_" x="107.5" y="80.9" transform="matrix(0.1063 -0.9943 0.9943 0.1063 19.3329 223.6243)" width="53.1" height="40.4"/>
							</defs>
							<clipPath id="SVGID_2_">
								<use xlink:href="#SVGID_1_"  overflow="visible"/>
							</clipPath>
							<path clip-path="url(#SVGID_2_)" fill="#F8ED34" d="M133.6,76c0.4-0.9,1.6-1.1,2.1-1.2c0.5-0.1,1.8-0.3,2.5,0.4
								c0.7,0.7,0.3,1.9,0.8,2.1c0.3,0.1,0.5-0.4,1-0.4c0.4,0,0.9,0.3,1,0.7c0.1,0.4-0.2,0.8-0.5,1.1c-0.9,0.7-2.1-0.1-2.8,0.6
								c-0.2,0.2-0.2,0.4-0.5,0.6c-0.4,0.2-1.1,0.3-1.5,0c-0.7-0.5-0.1-1.4-0.8-2.1c-0.5-0.5-1-0.4-1.3-0.9
								C133.4,76.5,133.6,76.1,133.6,76L133.6,76z"/>
						</g>
					</g>
					<g>
						<g>
							<defs>
								
									<rect id="SVGID_3_" x="107.5" y="80.9" transform="matrix(0.1063 -0.9943 0.9943 0.1063 19.3329 223.6243)" width="53.1" height="40.4"/>
							</defs>
							<clipPath id="SVGID_4_">
								<use xlink:href="#SVGID_3_"  overflow="visible"/>
							</clipPath>
							<path clip-path="url(#SVGID_4_)" fill="none" stroke="#231F20" stroke-width="0.3562" stroke-miterlimit="10" d="M133.6,76
								c0.4-0.9,1.6-1.1,2.1-1.2c0.5-0.1,1.8-0.3,2.5,0.4c0.7,0.7,0.3,1.9,0.8,2.1c0.3,0.1,0.5-0.4,1-0.4c0.4,0,0.9,0.3,1,0.7
								c0.1,0.4-0.2,0.8-0.5,1.1c-0.9,0.7-2.1-0.1-2.8,0.6c-0.2,0.2-0.2,0.4-0.5,0.6c-0.4,0.2-1.1,0.3-1.5,0
								c-0.7-0.5-0.1-1.4-0.8-2.1c-0.5-0.5-1-0.4-1.3-0.9C133.4,76.5,133.6,76.1,133.6,76L133.6,76z"/>
						</g>
					</g>
				</g>
				<path fill="#F8ED34" d="M132.7,88.9c0.4,0.6,2.9,0.4,3.1-0.2c0,0,0.2,0.2,0.2,0c-0.1-0.7-0.6-1-0.6-1.5
					c-0.1-0.6,0.4-1.2,0.8-1.6c0.6-0.5,1-0.6,1-0.8c0-0.4-0.8-0.7-1.5-0.8c-0.7-0.1-1.2,0.1-1.8,0.3c-0.8,0.3-1.2,0.4-1.6,0.8
					c-0.3,0.4-0.6,1.1-0.3,1.5c0.3,0.5,0.9,0.3,1.2,0.8C133.5,87.9,132.4,88.4,132.7,88.9L132.7,88.9z"/>
				<path fill="none" stroke="#231F20" stroke-width="0.3562" stroke-miterlimit="10" d="M132.7,88.9c0.4,0.6,2.9,0.4,3.1-0.2
					c0,0,0.2,0.2,0.2,0c-0.1-0.7-0.6-1-0.6-1.5c-0.1-0.6,0.4-1.2,0.8-1.6c0.6-0.5,1-0.6,1-0.8c0-0.4-0.8-0.7-1.5-0.8
					c-0.7-0.1-1.2,0.1-1.8,0.3c-0.8,0.3-1.2,0.4-1.6,0.8c-0.3,0.4-0.6,1.1-0.3,1.5c0.3,0.5,0.9,0.3,1.2,0.8
					C133.5,87.9,132.4,88.4,132.7,88.9L132.7,88.9z"/>
				<path fill="#FCEE23" d="M136.6,87c0.5-0.4,1-0.5,1.8-0.7c0.7-0.1,1-0.1,1.5-0.1c0.2,0,1.8,0.1,2,1.4c0,0.1,0.3,0.9-0.1,1.3
					c-0.4,0.4-1.1-0.1-2.5-0.2c-1.8-0.1-3,0.6-3.3,0.1c-0.1-0.2,0-0.4-0.1-0.7C135.8,87.5,136.4,87.1,136.6,87L136.6,87z"/>
				<path fill="none" stroke="#231F20" stroke-width="0.3562" stroke-miterlimit="10" d="M136.6,87c0.5-0.4,1-0.5,1.8-0.7
					c0.7-0.1,1-0.1,1.5-0.1c0.2,0,1.8,0.1,2,1.4c0,0.1,0.3,0.9-0.1,1.3c-0.4,0.4-1.1-0.1-2.5-0.2c-1.8-0.1-3,0.6-3.3,0.1
					c-0.1-0.2,0-0.4-0.1-0.7C135.8,87.5,136.4,87.1,136.6,87L136.6,87z"/>
				<path fill="#FFDE11" d="M141.3,89c0-0.2,0.5-0.5,0.7-0.5c0.7-0.2,1.3,0.2,1.4,0.3c0.3,0.2,1.2,0.9,1,1.1
					C144.2,90.3,141.2,89.4,141.3,89L141.3,89z"/>
				<path fill="none" stroke="#231F20" stroke-width="0.3562" stroke-miterlimit="10" d="M141.3,89c0-0.2,0.5-0.5,0.7-0.5
					c0.7-0.2,1.3,0.2,1.4,0.3c0.3,0.2,1.2,0.9,1,1.1C144.2,90.3,141.2,89.4,141.3,89L141.3,89z"/>
				<path fill="#FFDE11" d="M144.1,85.4c0.3,0,1.2-0.1,2.2,0.4c0.4,0.2,1.2,0.6,1.4,1.3c0.4,1-0.3,1.9,0,2.2
					c0.2,0.2,0.5-0.2,1.1-0.2c0.6,0,1.3,0.4,1.2,0.6c0,0.5-3.1,1.3-5.7,0.2c-0.5-0.2-1-1.5-2.1-1.5c-0.8,0-0.8-0.9-0.7-1.5
					C141.8,86,143.3,85.5,144.1,85.4L144.1,85.4z"/>
				<path fill="none" stroke="#231F20" stroke-width="0.3562" stroke-miterlimit="10" d="M144.1,85.4c0.3,0,1.2-0.1,2.2,0.4
					c0.4,0.2,1.2,0.6,1.4,1.3c0.4,1-0.3,1.9,0,2.2c0.2,0.2,0.5-0.2,1.1-0.2c0.6,0,1.3,0.4,1.2,0.6c0,0.5-3.1,1.3-5.7,0.2
					c-0.5-0.2-1-1.5-2.1-1.5c-0.8,0-0.8-0.9-0.7-1.5C141.8,86,143.3,85.5,144.1,85.4L144.1,85.4z"/>
				<path fill="#FFDE11" d="M144.6,81.3c0.3-0.4,2.6,0.3,2.9,1.7c0.2,0.8-0.4,1.2,0,1.9c0.4,0.7,1.2,0.5,1.5,1.2
					c0.4,0.8,0,2.1-0.8,2.3c-0.4,0.1-0.7,0-0.8-0.1c-1.1-0.4-0.8-1.7-1.9-2.5c-0.9-0.7-2.1-0.1-2.2-0.5c-0.1-0.5,1.5-1,1.9-1.9
					C145.7,82.6,144.3,81.6,144.6,81.3L144.6,81.3z"/>
				<path fill="none" stroke="#231F20" stroke-width="0.3562" stroke-miterlimit="10" d="M144.6,81.3c0.3-0.4,2.6,0.3,2.9,1.7
					c0.2,0.8-0.4,1.2,0,1.9c0.4,0.7,1.2,0.5,1.5,1.2c0.4,0.8,0,2.1-0.8,2.3c-0.4,0.1-0.7,0-0.8-0.1c-1.1-0.4-0.8-1.7-1.9-2.5
					c-0.9-0.7-2.1-0.1-2.2-0.5c-0.1-0.5,1.5-1,1.9-1.9C145.7,82.6,144.3,81.6,144.6,81.3L144.6,81.3z"/>
				<path fill="#FFDE11" d="M140,78.8c-0.2-0.5,1-1.5,1.8-1.8c1.4-0.7,2.9,0.2,3.2,0.4c0.4,0.3,1.4,0.8,1.5,1.7
					c0.1,0.9-0.6,1.5-0.3,1.8c0.2,0.2,0.5-0.1,1,0c0.8,0.2,1,1.4,1.1,2c0,0.6-0.3,2.2-0.5,2.3c-0.8,0.5-0.5-2.4-1.3-3.3
					c-0.5-0.5-0.9,0-1.9-0.5c-0.6-0.3-1,0-1.5,0c-0.6,0-0.6,0.2-0.9,0.1c-0.3-0.1,0.1-1.1-0.4-1.9C141.4,79,140.2,79.3,140,78.8
					L140,78.8z"/>
				<path fill="none" stroke="#231F20" stroke-width="0.3562" stroke-miterlimit="10" d="M140,78.8c-0.2-0.5,1-1.5,1.8-1.8
					c1.4-0.7,2.9,0.2,3.2,0.4c0.4,0.3,1.4,0.8,1.5,1.7c0.1,0.9-0.6,1.5-0.3,1.8c0.2,0.2,0.5-0.1,1,0c0.8,0.2,1,1.4,1.1,2
					c0,0.6-0.3,2.2-0.5,2.3c-0.8,0.5-0.5-2.4-1.3-3.3c-0.5-0.5-0.9,0-1.9-0.5c-0.6-0.3-1,0-1.5,0c-0.6,0-0.6,0.2-0.9,0.1
					c-0.3-0.1,0.1-1.1-0.4-1.9C141.4,79,140.2,79.3,140,78.8L140,78.8z"/>
				<path fill="#FCEE23" d="M147.8,85c0-0.4,0.1-1.7,0.4-1.9c0.8-0.3,2.2,0.9,2.6,1.1c0.9,0.5,2.1,1.6,1.9,2.5
					c-0.1,0.6-0.7,0.8-0.6,1.1c0.1,0.4,1,0.2,1.6,0.8c0.5,0.5,0.7,1.4,0.4,1.9c-0.7,1-3.8,0.6-4.6-0.8c-0.1-0.2-0.2-0.5-0.5-0.7
					c-0.6-0.3-1.1,0.3-1.3,0c-0.1-0.2-0.3-0.7-0.1-0.9c0.6-0.6,0.9-0.1,1.3-0.6c0.3-0.4,0.4-0.6,0.2-1.3
					C148.8,85.3,147.8,85.6,147.8,85L147.8,85z"/>
				<path fill="none" stroke="#231F20" stroke-width="0.3562" stroke-miterlimit="10" d="M147.8,85c0-0.4,0.1-1.7,0.4-1.9
					c0.8-0.3,2.2,0.9,2.6,1.1c0.9,0.5,2.1,1.6,1.9,2.5c-0.1,0.6-0.7,0.8-0.6,1.1c0.1,0.4,1,0.2,1.6,0.8c0.5,0.5,0.7,1.4,0.4,1.9
					c-0.7,1-3.8,0.6-4.6-0.8c-0.1-0.2-0.2-0.5-0.5-0.7c-0.6-0.3-1.1,0.3-1.3,0c-0.1-0.2-0.3-0.7-0.1-0.9c0.6-0.6,0.9-0.1,1.3-0.6
					c0.3-0.4,0.4-0.6,0.2-1.3C148.8,85.3,147.8,85.6,147.8,85L147.8,85z"/>
				<path fill="#FCEE23" d="M137.3,80.8c0.5-0.6-0.3-0.8,0.1-1.5c0.4-0.7,2.2-0.5,2.8-0.5c0.2,0,2.2,0,2.7,1.1
					c0.3,0.7,0,1.4,0.2,1.5c0.3,0.1,0.5-0.6,1.1-0.6c0.6,0,1.1,0.7,1.3,1.3c0.2,0.6,0.4,1.6-0.2,2.1c-0.3,0.2-0.7,0.3-1,0.2
					c-0.8-0.2-0.6-1.2-1.4-1.7c-0.9-0.5-2.8-0.4-3.8,0.1c-0.9,0.5-0.4,1.9-1.2,2.2c-0.3,0.1-0.7,0-0.9,0c-0.8-0.2-1.1-0.9-1.1-1
					c-0.2-0.6-0.2-1.3,0.2-1.8C136.7,81.6,136.9,81.3,137.3,80.8L137.3,80.8z"/>
				<path fill="none" stroke="#231F20" stroke-width="0.3562" stroke-miterlimit="10" d="M137.3,80.8c0.5-0.6-0.3-0.8,0.1-1.5
					c0.4-0.7,2.2-0.5,2.8-0.5c0.2,0,2.2,0,2.7,1.1c0.3,0.7,0,1.4,0.2,1.5c0.3,0.1,0.5-0.6,1.1-0.6c0.6,0,1.1,0.7,1.3,1.3
					c0.2,0.6,0.4,1.6-0.2,2.1c-0.3,0.2-0.7,0.3-1,0.2c-0.8-0.2-0.6-1.2-1.4-1.7c-0.9-0.5-2.8-0.4-3.8,0.1c-0.9,0.5-0.4,1.9-1.2,2.2
					c-0.3,0.1-0.7,0-0.9,0c-0.8-0.2-1.1-0.9-1.1-1c-0.2-0.6-0.2-1.3,0.2-1.8C136.7,81.6,136.9,81.3,137.3,80.8L137.3,80.8z"/>
				<path fill="#FCEE23" d="M116,86.7c-0.3-0.6,0-1.5,0.5-1.9c0.7-0.6,1.6,0.2,2.4-0.4s0.4-1.6,1.4-2.3c0.5-0.4,1.3-0.5,1.6-0.2
					c0.4,0.3,0,0.9,0.4,1.3c0.5,0.5,1.3,0,1.9,0.5c0.4,0.3,0.4,0.9,0.5,1.8c0,0.6,0.1,1-0.1,1.3c-0.4,0.6-1.4,0.7-2,0.7
					C118.4,87.4,116.3,87.4,116,86.7L116,86.7z"/>
				<g>
					<g>
						<g>
							<defs>
								
									<rect id="SVGID_5_" x="107.5" y="80.9" transform="matrix(0.1063 -0.9943 0.9943 0.1063 19.3329 223.6243)" width="53.1" height="40.4"/>
							</defs>
							<clipPath id="SVGID_6_">
								<use xlink:href="#SVGID_5_"  overflow="visible"/>
							</clipPath>
							<path clip-path="url(#SVGID_6_)" fill="none" stroke="#231F20" stroke-width="0.3562" stroke-miterlimit="10" d="M116,86.7
								c-0.3-0.6,0-1.5,0.5-1.9c0.7-0.6,1.6,0.2,2.4-0.4s0.4-1.6,1.4-2.3c0.5-0.4,1.3-0.5,1.6-0.2c0.4,0.3,0,0.9,0.4,1.3
								c0.5,0.5,1.3,0,1.9,0.5c0.4,0.3,0.4,0.9,0.5,1.8c0,0.6,0.1,1-0.1,1.3c-0.4,0.6-1.4,0.7-2,0.7C118.4,87.4,116.3,87.4,116,86.7
								L116,86.7z"/>
						</g>
					</g>
				</g>
				<path fill="#EC2227" d="M115.8,87l-0.6,13.1c0,0-1.1,17.6-1.7,24.9l35.2,3.8c1.4-6.7,3.6-19.8,3.6-19.8l2.7-17.8
					c0,0-3.5-0.8-4.6-0.8c-1.4-0.1-4,0.4-5.4,0.1c-1.5-0.2-3.9-1.2-5.7-1.4c-1.7-0.2-5.2,0.4-6.8,0.1c-1.4-0.3-4.1-1.6-5.5-1.7
					c-2-0.1-6,0.4-8,0.2C118.1,87.7,115.8,87,115.8,87L115.8,87z"/>
				<g>
					<g>
						<g>
							<defs>
								
									<rect id="SVGID_7_" x="107.5" y="80.9" transform="matrix(0.1063 -0.9943 0.9943 0.1063 19.3329 223.6243)" width="53.1" height="40.4"/>
							</defs>
							<clipPath id="SVGID_8_">
								<use xlink:href="#SVGID_7_"  overflow="visible"/>
							</clipPath>
							<path clip-path="url(#SVGID_8_)" fill="none" stroke="#EC2227" stroke-width="2.85" stroke-miterlimit="10" d="M115.8,87
								l-0.6,13.1c0,0-1.1,17.6-1.7,24.9l35.2,3.8c1.4-6.7,3.6-19.8,3.6-19.8l2.7-17.8c0,0-3.5-0.8-4.6-0.8c-1.4-0.1-4,0.4-5.4,0.1
								c-1.5-0.2-3.9-1.2-5.7-1.4c-1.7-0.2-5.2,0.4-6.8,0.1c-1.4-0.3-4.1-1.6-5.5-1.7c-2-0.1-6,0.4-8,0.2
								C118.1,87.7,115.8,87,115.8,87L115.8,87z"/>
						</g>
					</g>
				</g>
				<polygon fill="#FFFFFF" points="115.3,125.6 113.1,125.4 117,87.3 119.3,87.7 				"/>
				<g>
					<g>
						<g>
							<defs>
								
									<rect id="SVGID_9_" x="107.5" y="80.9" transform="matrix(0.1063 -0.9943 0.9943 0.1063 19.3329 223.6243)" width="53.1" height="40.4"/>
							</defs>
							<clipPath id="SVGID_10_">
								<use xlink:href="#SVGID_9_"  overflow="visible"/>
							</clipPath>
							<polygon clip-path="url(#SVGID_10_)" fill="none" stroke="#FFFFFF" stroke-width="0.3562" stroke-miterlimit="10" points="
								115.3,125.6 113.1,125.4 117,87.3 119.3,87.7 							"/>
						</g>
					</g>
				</g>
				<polygon fill="#FFFFFF" points="119.3,126 117.2,125.8 121.3,87.7 123.4,87.6 				"/>
				<g>
					<g>
						<g>
							<defs>
								
									<rect id="SVGID_11_" x="107.5" y="80.9" transform="matrix(0.1063 -0.9943 0.9943 0.1063 19.3329 223.6243)" width="53.1" height="40.4"/>
							</defs>
							<clipPath id="SVGID_12_">
								<use xlink:href="#SVGID_11_"  overflow="visible"/>
							</clipPath>
							<polygon clip-path="url(#SVGID_12_)" fill="none" stroke="#FFFFFF" stroke-width="0.3562" stroke-miterlimit="10" points="
								119.3,126 117.2,125.8 121.3,87.7 123.4,87.6 							"/>
						</g>
					</g>
				</g>
				<polygon fill="#FFFFFF" points="123.4,126.5 121.3,126.2 125.4,87.5 127.5,87.6 				"/>
				<g>
					<g>
						<g>
							<defs>
								
									<rect id="SVGID_13_" x="107.5" y="80.9" transform="matrix(0.1063 -0.9943 0.9943 0.1063 19.3329 223.6243)" width="53.1" height="40.4"/>
							</defs>
							<clipPath id="SVGID_14_">
								<use xlink:href="#SVGID_13_"  overflow="visible"/>
							</clipPath>
							<polygon clip-path="url(#SVGID_14_)" fill="none" stroke="#FFFFFF" stroke-width="0.3562" stroke-miterlimit="10" points="
								123.4,126.5 121.3,126.2 125.4,87.5 127.5,87.6 							"/>
						</g>
					</g>
				</g>
				<polygon fill="#FFFFFF" points="127.4,126.9 125.3,126.7 129.4,88.3 131.4,89 				"/>
				<g>
					<g>
						<g>
							<defs>
								
									<rect id="SVGID_15_" x="107.5" y="80.9" transform="matrix(0.1063 -0.9943 0.9943 0.1063 19.3329 223.6243)" width="53.1" height="40.4"/>
							</defs>
							<clipPath id="SVGID_16_">
								<use xlink:href="#SVGID_15_"  overflow="visible"/>
							</clipPath>
							<polygon clip-path="url(#SVGID_16_)" fill="none" stroke="#FFFFFF" stroke-width="0.3562" stroke-miterlimit="10" points="
								127.4,126.9 125.3,126.7 129.4,88.3 131.4,89 							"/>
						</g>
					</g>
				</g>
				<polygon fill="#FFFFFF" points="131.3,127.3 129.3,127.1 133.3,89.3 135.5,89.1 				"/>
				<g>
					<g>
						<g>
							<defs>
								
									<rect id="SVGID_17_" x="107.5" y="80.9" transform="matrix(0.1063 -0.9943 0.9943 0.1063 19.3329 223.6243)" width="53.1" height="40.4"/>
							</defs>
							<clipPath id="SVGID_18_">
								<use xlink:href="#SVGID_17_"  overflow="visible"/>
							</clipPath>
							<polygon clip-path="url(#SVGID_18_)" fill="none" stroke="#FFFFFF" stroke-width="0.3562" stroke-miterlimit="10" points="
								131.3,127.3 129.3,127.1 133.3,89.3 135.5,89.1 							"/>
						</g>
					</g>
				</g>
				<polygon fill="#FFFFFF" points="135.5,127.8 133.4,127.6 137.4,89.1 139.6,89.2 				"/>
				<g>
					<g>
						<g>
							<defs>
								
									<rect id="SVGID_19_" x="107.5" y="80.9" transform="matrix(0.1063 -0.9943 0.9943 0.1063 19.3329 223.6243)" width="53.1" height="40.4"/>
							</defs>
							<clipPath id="SVGID_20_">
								<use xlink:href="#SVGID_19_"  overflow="visible"/>
							</clipPath>
							<polygon clip-path="url(#SVGID_20_)" fill="none" stroke="#FFFFFF" stroke-width="0.3562" stroke-miterlimit="10" points="
								135.5,127.8 133.4,127.6 137.4,89.1 139.6,89.2 							"/>
						</g>
					</g>
				</g>
				<polygon fill="#FFFFFF" points="139.6,128.2 137.5,128 141.6,89.6 143.6,90.2 				"/>
				<g>
					<g>
						<g>
							<defs>
								
									<rect id="SVGID_21_" x="107.5" y="80.9" transform="matrix(0.1063 -0.9943 0.9943 0.1063 19.3329 223.6243)" width="53.1" height="40.4"/>
							</defs>
							<clipPath id="SVGID_22_">
								<use xlink:href="#SVGID_21_"  overflow="visible"/>
							</clipPath>
							<polygon clip-path="url(#SVGID_22_)" fill="none" stroke="#FFFFFF" stroke-width="0.3562" stroke-miterlimit="10" points="
								139.6,128.2 137.5,128 141.6,89.6 143.6,90.2 							"/>
						</g>
					</g>
				</g>
				<polygon fill="#FFFFFF" points="143.7,128.6 141.6,128.4 145.7,90.6 147.8,90.5 				"/>
				<g>
					<g>
						<g>
							<defs>
								
									<rect id="SVGID_23_" x="107.5" y="80.9" transform="matrix(0.1063 -0.9943 0.9943 0.1063 19.3329 223.6243)" width="53.1" height="40.4"/>
							</defs>
							<clipPath id="SVGID_24_">
								<use xlink:href="#SVGID_23_"  overflow="visible"/>
							</clipPath>
							<polygon clip-path="url(#SVGID_24_)" fill="none" stroke="#FFFFFF" stroke-width="0.3562" stroke-miterlimit="10" points="
								143.7,128.6 141.6,128.4 145.7,90.6 147.8,90.5 							"/>
						</g>
					</g>
				</g>
				<polygon fill="#FFFFFF" points="147.7,129.1 145.7,128.9 149.8,90.4 151.8,90.6 				"/>
				<g>
					<g>
						<g>
							<defs>
								
									<rect id="SVGID_25_" x="107.5" y="80.9" transform="matrix(0.1063 -0.9943 0.9943 0.1063 19.3329 223.6243)" width="53.1" height="40.4"/>
							</defs>
							<clipPath id="SVGID_26_">
								<use xlink:href="#SVGID_25_"  overflow="visible"/>
							</clipPath>
							<polygon clip-path="url(#SVGID_26_)" fill="none" stroke="#FFFFFF" stroke-width="0.3562" stroke-miterlimit="10" points="
								147.7,129.1 145.7,128.9 149.8,90.4 151.8,90.6 							"/>
						</g>
					</g>
				</g>
				<polygon fill="#FFFFFF" points="152.4,109.8 150.3,121.9 153.6,90.9 155,91.2 				"/>
				<g>
					<g>
						<g>
							<defs>
								
									<rect id="SVGID_27_" x="107.5" y="80.9" transform="matrix(0.1063 -0.9943 0.9943 0.1063 19.3329 223.6243)" width="53.1" height="40.4"/>
							</defs>
							<clipPath id="SVGID_28_">
								<use xlink:href="#SVGID_27_"  overflow="visible"/>
							</clipPath>
							<polygon clip-path="url(#SVGID_28_)" fill="none" stroke="#FFFFFF" stroke-width="0.3562" stroke-miterlimit="10" points="
								152.4,109.8 150.3,121.9 153.6,90.9 155,91.2 							"/>
						</g>
					</g>
				</g>
				
					<text transform="matrix(0.9943 0.1063 -0.1063 0.9943 121.1155 99.1937)" fill="#231F20" font-family="'Monaco'" font-size="6.4875">POPCORN</text>
				<g>
					<g>
						<g>
							<defs>
								
									<rect id="SVGID_29_" x="107.5" y="80.9" transform="matrix(0.1063 -0.9943 0.9943 0.1063 19.3329 223.6243)" width="53.1" height="40.4"/>
							</defs>
							<clipPath id="SVGID_30_">
								<use xlink:href="#SVGID_29_"  overflow="visible"/>
							</clipPath>
							<g clip-path="url(#SVGID_30_)">
								
									<text transform="matrix(0.9943 0.1063 -0.1063 0.9943 121.1157 99.1935)" fill="none" stroke="#231F20" stroke-width="0.3563" stroke-miterlimit="10" font-family="'Monaco'" font-size="6.4875">POPCORN</text>
							</g>
						</g>
					</g>
				</g>
			</g>
		</g>
	</g>
</g>
</svg>
