<?xml version="1.0" encoding="utf-8"?>
<!-- Generator: Adobe Illustrator 18.1.0, SVG Export Plug-In . SVG Version: 6.00 Build 0)  -->
<!DOCTYPE svg PUBLIC "-//W3C//DTD SVG 1.1//EN" "http://www.w3.org/Graphics/SVG/1.1/DTD/svg11.dtd">
<svg version="1.1" id="Layer_1" xmlns="http://www.w3.org/2000/svg" xmlns:xlink="http://www.w3.org/1999/xlink" x="0px" y="0px"
	 viewBox="0 0 151.1 182.3" enable-background="new 0 0 151.1 182.3" xml:space="preserve">
<path fill="#21409A" stroke="#000000" stroke-miterlimit="10" d="M101.1,140c2,2.1,4.4-2.9,9.2-4.6c4.8-1.8,6,0.9,10.1-0.6
	c5.9-2.1,4.3-7.8,11.2-11.9c1.2-0.7,4.7-1.8,11.8-4.1c5.9-1.9,6.7-2,7.1-2.9c1.3-3.3-7.8-7.1-17-18.8c-5.3-6.7-4.7-8.6-10.1-13.8
	c-3.4-3.3-6.5-5.3-12.7-9.2c-4.9-3.1-8.5-4.9-12.7-6.2c-2.5-0.7-7.4-1-7.4-1s7.1-0.3,7.1,5.7c0,5.9-6.8,9.8-8.5,16.2
	c-1.6,5.9,2.1,12.5,2.5,15.5c0.2,1.5,3.1,9.3,3.3,10.6c0.3,1.9,2.6,6.3,2.9,15c0.1,2.1,0.2,4.3,0.7,6.8
	C98.9,138.4,99.9,138.8,101.1,140z"/>
<path fill="#ED1C24" stroke="#000000" stroke-miterlimit="10" d="M81.7,65.7c1.2-0.9,2.8-0.5,5.4,0.1c1.2,0.3,3.1,0.6,5.2,1
	c3.4,0.7,5.4,1.6,8.7,0.3c3.7-1.4,9-4.8,12.4-6.7c0.1,0,3.6-6.3,6.1-8.3c1-0.8,1.6,2.3,2.9,3.2c1,0.7,4.1,2,4.5,2.5
	c0,0-0.5,0.3-1.2,1c-1.1,1.1-3.5,4.7-4.7,5.8c-1,0.9-3.8,4.1-4.5,5c-1.2,1.5-4,2.5-5.8,3.3c-1.5,0.6-5.6,2.3-8,3.1
	c-1.4,0.5-6.9,6.4-7.4,6.9c-0.7,0.6-1,2-2.6,5c-1,1.9-1.3,2-1.9,3.5c-0.5,1.4-0.5,5.5-0.1,8.3c0,0,0.1,0.2,0.7,2.9l0.4,1.7
	c-0.3,0.6-2.3-0.1-5.4-0.1c-3.2,0.1-3.5,0.7-5.1,0.3c-1.7-0.5-1.8-1.2-3.8-2c-1.7-0.6-3.8-0.6-4.3-0.4c-1.7,0.4-1.9,0.9-3.9,1.5
	c-0.6,0.2-0.3,0-1.8,0.2c-2.6,0.3-4.2,0.3-5.7,0.1c-1.4-0.2-1.6-0.4-1.7-0.5c-0.7-0.9,0.2-2.4,0.9-5.4c0.2-0.9,0.9-3.2,0.2-5.9
	c-0.3-1.1-1.1-2.1-2.4-4.6c-1.6-3.1-1.4-3.1-1.9-4.7c-0.3-0.8-0.3-0.8-2.8-3.4c-2.4-2.5-2.3-2.2-3.6-3.7c-1.1-1.3-3.6-4.6-5.7-4.6
	c-1,0-11.8-3.2-13.3-4.8c-0.8-0.9-6.2-9.6-6.4-10c-1.2-2,0.6-3.5,1-3.9c1.8-1.4,2.2-1.2,3.5-2.5c1.4-1.5,2-3.3,2.6-1.6
	c0.3,0.8,4.6,10.5,6,11.2c2.6,1.3,14.5,5.8,15.9,6.3c3.1,1.1,4.6,1.8,7.5,1.1c1.2-0.3,2.3-0.8,4.9-1.3c3.1-0.6,3.6-0.3,3.9-0.1
	c1.1,0.8,0.2,2.3,1.3,3.7c1.1,1.5,3.3,1.5,4,1.6c0.8,0,2.5,0.1,3.7-1C81.2,68.2,80.4,66.7,81.7,65.7z"/>
<path fill="#F7941E" stroke="#000000" stroke-miterlimit="10" d="M91.7,104.5c0.3,1.2,0.7,2.5,1,3.7l-11,0.1l-1.2-4L91.7,104.5z"/>
<polygon fill="#F7941E" stroke="#000000" stroke-miterlimit="10" points="68.3,104.6 68.3,109.1 58.3,108.5 59.5,104.4 "/>
<path stroke="#000000" stroke-miterlimit="10" d="M80.3,104.9c0.1,0.3,1.3,2.4,0.4,4.4c-1.2,2.6-4.8,2.7-5.5,2.7c-0.8,0-4.7,0-6.3-3
	c-0.1-0.1-1.2-2.4,0-4.6c1.6-3,6.1-2.5,6.6-2.4C76.1,102.2,78.9,102.6,80.3,104.9z"/>
<path fill="#FFFFFF" stroke="#000000" stroke-miterlimit="10" d="M77.6,105.6c0.6,1,0.5,2.3-0.1,3.2c-1.1,1.4-3.5,1.1-4.7,0
	c-0.7-0.6-1.5-1.8-1-2.9c0.4-1,1.8-1.3,2.4-1.4C74.5,104.5,76.6,104.2,77.6,105.6z"/>
<path fill="#ED1C24" stroke="#000000" stroke-miterlimit="10" d="M92.8,108.9c0,0,1,2.8,2,6.1c0.2,0.5,0.8,3,1.2,4.4
	c2.5,8.7,2,17.4,2.9,18.2c1.3,1.1,1.4,2,1.8,3.7c0.4,2,0.5,3.1,0.5,4.9c0,0.9,0.5,1.6,0.4,2.2c-0.2,0.9-1.6,1.3-2.5,1.5
	c-0.5,0.2-2.8,0.5-4.6,0.4c-1.9-0.1-4.2-1-4.2-1l0-0.7c0,0-0.2-2.3-0.6-3.4c-1.2-3.4-2.8-5.6-5-8.1c-6.8-7.8-7.3-11.9-8.8-12.4
	c0,0-2.7,4.2-10.3,13.4c-2.3,2.8-4.1,4.7-4.2,7.6c0,1.7,0.5,3.4-0.5,4.4c-0.2,0.2-0.6,0.5-3.2,0.7c-4.6,0.3-6-0.5-6.4-0.8
	c-0.5-0.3-1.3-0.9-1.4-1.7c0-0.8-0.2-1.4,0-2.3c0.4-2.3,0.2-3,1.4-5c0.5-0.9,0.9-2.2,1.4-3.2c1.1-2.3-0.2-8.9,1.2-15.2
	c0.7-3.5,0.1-6.3,1.2-7.4c1.9-1.9,3.2-6,3.2-6s9-0.4,9.9,0.2c2.5,1.7,2.2,2.7,6.8,2.7c4,0,5.5-2.7,6.6-3.1
	C85.3,108,92.8,108.9,92.8,108.9z"/>
<path stroke="#000000" stroke-miterlimit="10" d="M102.9,152c-0.1-1.6,0-3-0.7-3.4c-0.4-0.2-0.8,0-1.9,0.4c-1.2,0.4-2.5,0.8-3.7,0.9
	c-2,0.1-5.8-0.3-6.1,0c-1.1,1.3,1.2,5.1,2.9,7.7c2.5,3.9,3.2,3.9,3.6,5.9c0.3,1.8-0.2,2.1,0,6.1c0.2,2.8,0.5,3.7,0.7,4
	c0.3,0.7,0.8,1.5,3.4,3.5c2.6,2.1,3.9,3.1,5.1,3.5c0.3,0.1,4.2,1.2,6.9-0.9c0.4-0.4,1.3-1,1.5-2c0.1-0.4,0.3-1.7-1.9-4.4
	c-2.2-2.8-3.6-2.9-6.5-6c-1.1-1.2-1.6-1.8-2-2.7c-0.9-2-0.3-2.9-0.6-6.7C103.5,154.5,103,155,102.9,152z"/>
<path stroke="#000000" stroke-miterlimit="10" d="M59.3,155c0.9-1.7,2.4-4.6,1.5-5.4c-0.4-0.4-1.1,0-3.2,0.4
	c-2.3,0.4-4.8,0.8-6.4-0.5c-1.1-0.8-1.1-1.7-1.5-1.7c-1.3,0.1-1.7,7.2-1.8,8.6c-0.4,6.1,0.4,6.5-0.4,8.6c-0.6,1.5-1.2,1.6-6.4,7
	c-3.7,3.9-4.6,5-4.3,6.3c0.4,1.8,2.8,2.8,3.4,3c2.9,1.1,5.6-0.1,6.1-0.4c1.6-0.8,1.4-1.3,4.7-4.3c2.4-2.1,2.6-1.9,3-2.7
	c0.7-1.6,0.1-2.6,0.1-6.7c0-1.3,0-2,0.1-2.7C54.8,160.9,56.8,159.9,59.3,155z"/>
<path fill="#21409A" stroke="#000000" stroke-miterlimit="10" d="M47.1,71.8c0,0-0.9,1-3.5,2.7c-2.2,1.5-6.9,5.1-10.9,11.2
	c-3.8,5.8-3.2,8.2-8,14.4c-3.7,4.8-6.1,6.2-7,6.6c-3.7,1.9-7.9,2.1-9.9,2.1c-4.3,0-5.9-1.3-6.8-0.3c-1.6,1.7,1,7.8,5.1,11.6
	c2.1,1.9,5.2,3.4,11.3,6.3c3.3,1.6,2.9,1.3,3.9,1.8c5.7,3.4,5.1,7.1,9.4,10.1c3.7,2.5,4.2,3.1,11.8,3c4.5-0.1,7.2,3.1,7.9,2
	c0.2-0.2,0.4-0.3,1.1-1.7c0.8-1.7,1.3-2.9,2-4.6c0.7-1.5-1.3-7.1,0.5-14.5c0.8-3.3,1.8-6.7,3-9.4c1.8-4.1,0.4-1.1,1.8-4.1
	c1-2.3,2.3-10.1,3.1-11.8c2-4.4-3.2-12.7-4.2-14.3c-0.4-0.5-4.4-4.5-7.5-7.7C49,73.9,47.5,72.3,47.1,71.8z"/>
<path fill="#21409A" stroke="#000000" stroke-miterlimit="10" d="M62.5,143.4c0.4,0.4,8.2-2.9,13.2-2.6c7.5,0.4,12.8,4,13.5,3.1
	c0.7-1-2.8-3.2-6.9-9.1c-1.9-2.7-5.6-10-6.4-10.1c-0.7,0-4,5.5-7.4,9.7C65,138.7,62.1,143,62.5,143.4z"/>
<path fill="#C49A6C" stroke="#C49A6C" stroke-miterlimit="10" d="M74.2,67.1c0,0-0.3-5-0.7-8c0,0-2.6,1.3-9.3-1.2
	c-0.8-0.3-3.5-0.8-6.7-4.1c-1.5-1.5-1.7-3.5-2.1-4.9c-0.6-2.8,0.2-3.1,0.2-6.5c0,0,0.7-0.2-1.1-1.7c-0.2-0.2-1.4-0.2-1.7,0
	c-0.6,0.3-1.7,0.7-2.9,0.3c-1.8-0.5-2.5-2.3-2.9-3.4c-0.3-0.8-1.2-3.1,0-4.2c0.8-0.8,2.4-0.7,3.4-0.3c3.1,1.1,3.6,4.9,4.6,4.8
	c0.8-0.1-0.2-1.7,0.8-6.2c0.3-1.3,0.2-1.6,1.5-4.2c1-1.8,2-4.2,3.7-5.2c1.8-1.1,3.5-2.2,8.1-2.6c5.2-0.4,6-0.1,11.7-0.4
	c2.4-0.1,5.9-0.1,11,2.1c1.9,0.8,3.2,8.3,3.9,9.3c2.7,3.6,0,4.4,0.3,5.4c0,0,0,0,0,0c0.2,0.1,1.1-1.2,2.2-2c0.3-0.2,1.5-1.1,3-1.1
	c1,0,2.8,0.3,3.4,1.4c1.5,2.6-1.4,5.1-4.5,6.8c-3.3,1.7-1.9,9.4-3.3,12.1c-1.1,2.2-2.6,3.9-6.4,5.2c-4.5,1.6-8.7,2-10.5,1
	c0,0,0,0,0,0c-1.6,2.8-0.2,5.6-0.2,5.6c0,0.3,0,0.9,0,1.6c-0.4,0.3-1.1,0.8-2.1,1.1c-0.3,0.1-0.6,0.1-1,0.1
	C75.3,67.9,74.2,67.1,74.2,67.1z"/>
<path fill="none" stroke="#A97C50" stroke-miterlimit="10" d="M52.1,38.2c0.2-0.2-0.4-1.1-1.2-1.5c-0.9-0.4-2-0.3-2.1,0
	C48.8,37.2,51.8,38.6,52.1,38.2z"/>
<path fill="none" stroke="#A97C50" stroke-miterlimit="10" d="M98.1,38.5c-0.1-0.2,0.9-1.2,2.1-1.6c1-0.3,2.3-0.3,2.4,0
	C102.7,37.4,98.3,38.9,98.1,38.5z"/>
<g>
	<path fill="#FFFFFF" stroke="#000000" stroke-miterlimit="10" d="M71.4,39.7c-0.9,0.6-1.8-0.9-4.3-0.9c-2.3,0-3.3,1.3-4,0.7
		c-0.9-0.7-0.1-3.2,0.9-6.2c0.8-2.4,1.5-3.4,2.4-4c0.4-0.3,1.2-0.8,2.1-0.6c0.4,0.1,1.3,0.4,2.4,3.3C71,32.4,73.2,38.6,71.4,39.7z"
		/>
	<path fill="#3C2415" stroke="#000000" stroke-miterlimit="10" d="M70,38c1.3-1.8,0.5-4,0.4-4.3c-0.1-0.1-1.2-2.8-3.1-2.8
		c-1.8,0.1-2.7,2.4-2.9,2.8c-0.7,1.8,0.5,5.3,2.9,5.1C68.9,38.7,69,39.4,70,38z"/>
	<path fill="#603913" stroke="#000000" stroke-miterlimit="10" d="M67.2,38.8c1.1-0.1,1.5-0.3,1.5-1.5c0-0.6-0.3-2.1-1.4-2.1
		c-1.1,0-1.4,0.4-1.5,1.8C65.8,37.9,66.2,38.8,67.2,38.8z"/>
</g>
<g>
	<path fill="#FFFFFF" stroke="#000000" stroke-miterlimit="10" d="M89.4,39.5c-0.9,0.6-1.8-0.9-4.3-0.9c-2.3,0-3.3,1.3-4,0.7
		c-0.9-0.7-0.1-3.2,0.9-6.2c0.8-2.4,1.5-3.4,2.4-4c0.4-0.3,1.2-0.8,2.1-0.6c0.4,0.1,1.3,0.4,2.4,3.3C89,32.3,91.2,38.5,89.4,39.5z"
		/>
	<path fill="#3C2415" stroke="#000000" stroke-miterlimit="10" d="M88,37.9c1.3-1.8,0.5-4,0.4-4.3c-0.1-0.1-1.2-2.8-3.1-2.8
		c-1.8,0.1-2.7,2.4-2.9,2.8c-0.7,1.8,0.5,5.3,2.9,5.1C86.9,38.6,86.9,39.3,88,37.9z"/>
	<path fill="#603913" stroke="#000000" stroke-miterlimit="10" d="M85.2,38.6c1.1-0.1,1.5-0.3,1.5-1.5c0-0.6-0.3-2.1-1.4-2.1
		c-1.1,0-1.4,0.4-1.5,1.8C83.8,37.8,84.1,38.7,85.2,38.6z"/>
</g>
<path fill="none" stroke="#000000" stroke-miterlimit="10" d="M71.2,24.6c-1.6-0.5-4.7,0-7,2.8"/>
<path fill="none" stroke="#000000" stroke-miterlimit="10" d="M89.3,27.2c0-1.5-3.2-2.7-7.1-2.7"/>
<line fill="none" stroke="#000000" stroke-miterlimit="10" x1="69.5" y1="29" x2="69.5" y2="29"/>
<g>
	<path fill="none" stroke="#A97C50" stroke-miterlimit="10" d="M78.9,44.7c-0.2-0.1-1.3-0.9-2.7-0.4c-1.2,0.4-2.3,1.6-2.1,2.9
		c0.2,1,1,1.7,1.8,1.9c1,0.3,2.1,0,2.9-0.8"/>
</g>
<path fill="none" stroke="#BE1E2D" stroke-miterlimit="10" d="M91.7,50.6c-0.4-0.7-1.7-1.3-1.7-1.3s-1.1,1.4-1.8,2.4
	c-2.5,3.2-6.1,4.2-7.3,4.5c-2,0.4-3.5,0.3-5,0.1c-1.2-0.1-3-0.1-5-1.2c-1.1-0.6-2.2-1.1-3.8-2.2c-1.8-1.2-2-1.7-2-1.7
	c-1.2-1.2-1.5-1.4-1.5-1.4s-0.6,0.7-0.8,1.2"/>
<path stroke="#000000" stroke-miterlimit="10" d="M100.2,30.2c0.4-1.5,0.9-2.6,1.1-5.1c0.1-1.8,0.3-4.1-0.3-7.1
	c-0.5-2.6-1-4.9-2.8-7c-1.4-1.5-3-2.4-3.8-2.8c-1-0.5-1.8-0.8-3.4-1.4c-1.5-0.5-2.6-0.8-2.4-0.6c0.4,0.5,2.8,3.1,3.1,7.2
	c0.1,0.8,0.2,2.6-0.9,4c-1,1.3-2.3,1.6-2.2,2.2c0.1,0.6,2.1,0.1,3.7,1.3c0.5,0.4,0.7,0.8,1.8,3.9c1.3,3.7,1.2,4.1,2,5.9
	c0.4,0.9,1.3,2.9,1.3,2.9v0C97.4,33.6,99.4,33.1,100.2,30.2z"/>
<path stroke="#000000" stroke-miterlimit="10" d="M84,2.9c-1.3-0.6-3.3-1.4-6.5-1.9C75,0.6,71.3,0,66.9,1.2c-2,0.5-8.4,2.2-11.5,7.6
	c-2.1,3.8-1.2,4.9-2.1,10.4C53.1,20.4,48,22,49.8,30c0.2,1,0.7,1.8,1,2.4c1,1.9,3,5,4.1,4.6c1-0.3-0.2-3.3,1.1-7.6
	c0.3-1.1,1.2-3.7,3.5-5.9c1.9-1.8,3.9-2.6,5.1-3c2.2-0.8,3.1-0.6,9.4-0.9c7.7-0.4,7.4-0.6,9.1-0.3c2.1,0.3,2.6,0.4,4.6,0.3
	c1.6,0,2.9-1.7,3.2-2.3c1.5-2.9,0.4-6-0.1-7.3c-0.4-1-1.1-2.7-2.7-4.4C86.7,4.2,85.3,3.6,84,2.9z"/>
<g>
	<path fill="#FFFFFF" stroke="#000000" stroke-miterlimit="10" d="M126.1,58.5c4-2.6,1.6-15.7,8.1-16.8c3.6-0.6,4.2-1.5,4.2-1.7
		c0-0.1-4.3,0.3-4.3-1c0-1.3,4.5-1.5,4.5-1.3c0,0.2-4.5,0-4.5-1.3c0-1.1,4.9-0.7,4.9-0.7c0,0-4.8-0.7-4.8-1.3c0-0.9,4.9-1,4.9-1.1
		c0-0.1-4.7,0.3-4.8-0.3c-0.2-1.1,5-2.4,4.8-2.4c-0.1,0-3.3,1.6-4.1,0.7c-0.7-0.8,0.8-3,0.5-4.3c-0.2-0.7-1.7-1-2.2-0.3
		c-0.6,1-1.1,2.6-1.1,3.3c0,1.6-0.3,3.3-4.9,9.7c-7.9,11.2-11.7,13.3-10.8,16C117.7,58.5,123.3,60.3,126.1,58.5z"/>
	<path fill="none" stroke="#000000" stroke-miterlimit="10" d="M139.2,30.5c0,1,0.1,1.2,0.1,2.1c0,0.9,0,2.8,0,3.5
		c0,0.8-0.1,0.5-0.2,1.1c-0.1,1.5-0.4,2.4-0.6,2.4"/>
	<g>
		<g>
			<path d="M138.6,31.4c0,0.2,0,0.4,0,0.5c-0.1,0.3,0,0.3,0.2,0.3c0.2,0,0.2,0,0,0c-0.3-0.1-0.7,0-1,0.1c-1,0.3-1.8,0.2-2.8,0
				c0,0.3,0,0.6,0,1c0.6-0.2,1.2-0.4,1.8-0.7c0.5-0.2,1.3-0.6,1.8-0.6c-0.2-0.1-0.3-0.2-0.5-0.4c0.1,0.1,0.1,0.4,0.1,0.5
				c0.1-0.1,0.2-0.3,0.2-0.4c-0.1,0-0.7,0.1-0.9,0.2c-0.5,0.2-0.9,0.4-1.4,0.3c0,0.3,0,0.7,0,1c0.1,0,0.4,0.4,0.6,0.5
				c0.2,0.1,0.4,0.2,0.7,0.1c0.6-0.2,0.7-1.2,1.2-1.3c0.6-0.2,0.4-1.2-0.3-1c-0.5,0.1-1,0.7-1.2,1.2c0,0.1-0.1,0.1-0.1,0.2
				c0.2,0.1,0.2,0.1,0.1,0c-0.1-0.1-0.2-0.2-0.3-0.3c-0.2-0.2-0.4-0.3-0.7-0.3c-0.6,0-0.6,1,0,1c0.5,0,0.9-0.1,1.3-0.3
				c0.4-0.2,0.8-0.2,1.3-0.3c0.6-0.2,0.6-0.8,0.4-1.3c-0.1-0.2-0.2-0.4-0.5-0.4c-0.6,0-1.2,0.3-1.8,0.5c-0.7,0.3-1.4,0.5-2.1,0.8
				c-0.4,0.1-0.5,0.9,0,1c0.6,0.1,1.2,0.2,1.8,0.2c0.7,0,1.4-0.3,2.1-0.3c1,0,1-0.8,0.9-1.7C139.5,30.7,138.5,30.7,138.6,31.4
				L138.6,31.4z"/>
		</g>
	</g>
	<g>
		<g>
			<path d="M138.6,33.5c0,0.5,0,0.9-0.1,1.4c0.3-0.1,0.6-0.2,0.9-0.3c-0.3-0.5-0.8-0.7-1.4-0.7c-1-0.1-1.9-0.3-2.8-0.5
				c0.1,0.3,0.1,0.6,0.2,0.8c0.4-0.4,1.1-0.3,1.5-0.3c0.3,0,1.3-0.1,1.5,0c-0.1-0.1-0.2-0.3-0.2-0.4c0,0.5,0,1,0,1.5
				c0.3,0,0.7-0.1,1-0.1c0-0.2,0-0.8-0.1-1.1C139,33.7,138.8,33.6,138.6,33.5c-0.4,0.1-0.8,0-1.3,0c-0.5,0-1,0.1-1.5,0
				c-0.6-0.1-0.9,0.8-0.3,1c0.5,0.1,1,0.1,1.6,0.1c0.5,0,1.1,0,1.6,0c-0.1-0.1-0.3-0.2-0.4-0.2c0,0,0,0.6,0,0.9
				c0.1,0.6,0.9,0.4,1-0.1c0.1-0.6,0.3-1.8-0.4-2c-0.3-0.1-0.7,0-1,0c-0.5,0-0.9,0-1.4,0c-0.6,0-1.2,0.1-1.6,0.6
				c-0.2,0.3-0.2,0.7,0.2,0.8c0.6,0.1,1.2,0.3,1.8,0.4c0.4,0.1,1.6,0,1.8,0.4c0.3,0.4,0.9,0.2,0.9-0.3c0-0.5,0-0.9,0.1-1.4
				C139.6,32.9,138.6,32.9,138.6,33.5L138.6,33.5z"/>
		</g>
	</g>
	<g>
		<g>
			<path d="M137.8,33.4c-0.3,0-0.8,0-1.1,0.1c0,0-0.1,0.1-0.1,0.1c-0.1,0.1-0.3,0.1-0.4,0.1c-0.2,0-0.5,0-0.7,0
				c0.1,0.1,0.1,0.1,0.2,0.2c0,0,0,0,0,0c0,0.1-0.1,0.2-0.1,0.3c0,0,0,0,0,0c0.3-0.2,0-0.6-0.3-0.4c0,0,0,0,0,0
				c-0.1,0.1-0.1,0.2-0.1,0.3c0,0,0,0,0,0c0,0.1,0.1,0.2,0.2,0.2c0.4,0.1,1,0.1,1.3,0c0.2,0,0.2-0.2,0.4-0.2c0.2-0.1,0.6,0,0.9,0
				C138.1,33.9,138.1,33.4,137.8,33.4L137.8,33.4z"/>
		</g>
	</g>
	<g>
		<g>
			<path d="M139,34c-0.1,0-0.2,0-0.3,0c-0.3,0-0.3,0.5,0,0.5c0.1,0,0.2,0,0.3,0C139.3,34.5,139.3,34,139,34L139,34z"/>
		</g>
	</g>
	<g>
		<g>
			<path d="M139.1,35.3c-1.5,0.1-3,0.1-4.5,0.2c-0.5,0-0.7,0.9-0.1,1c0.8,0.2,1.5,0.3,2.3,0.5c0.6,0.1,1.3,0.4,1.9,0.4
				c0.2,0,0.3-0.1,0.4-0.2c0.2-0.4,0.4-1.2-0.1-1.5c-0.3-0.2-0.9,0-1.2,0c-0.6,0-1.2,0-1.9,0c-0.5,0-1.3-0.1-1.3,0.7
				c0.1,0.9,1.2,0.7,1.8,0.8c0.7,0.1,1.6,0.7,2.3,0.2c0.4-0.3,0.5-1.1,0.1-1.4c-1-0.9-2,1.5-0.4,1.2c0.5-0.1,0.5-0.7,0.1-0.9
				c-0.2-0.1-0.3-0.2-0.6-0.2c-0.6,0-0.6,1,0,1c0,0,0.1,0,0.1,0c0-0.3,0.1-0.6,0.1-0.9c0.1,0.1,0.2,0.1,0.4,0.2
				c0,0.2-0.1,0.3-0.1,0.5c0,0.1-1.4-0.5-1.7-0.6c-0.2,0-0.4-0.1-0.6-0.1c-0.1,0-0.2,0-0.3,0c-0.5,0.4-0.6,0.6-0.2,0.6
				c0.3,0.2,1.1,0.1,1.5,0.1c0.3,0,1.3-0.1,1.3-0.1c-0.1-0.1-0.2-0.3-0.2-0.4c0,0.2,0,0.3-0.1,0.5c0.1-0.1,0.3-0.2,0.4-0.2
				c-0.7,0-1.4-0.3-2-0.4c-0.7-0.1-1.3-0.3-2-0.4c0,0.3-0.1,0.7-0.1,1c1.5-0.1,3-0.1,4.5-0.2C139.8,36.2,139.8,35.2,139.1,35.3
				L139.1,35.3z"/>
		</g>
	</g>
	<g>
		<g>
			<path d="M138.9,37.2c-1.3,0-3.1-0.1-4.2,0.6c-0.8,0.5-0.3,1.2,0.3,1.6c0.9,0.5,2.2,1,3.3,0.8c0.9-0.2,1-1.4,0.7-2.2
				c-0.1-0.2-0.2-0.3-0.3-0.3c-0.7-0.1-1.1,0.6-1.2,1.2c0,0.1-0.1,0.2-0.1,0.3c0.3,0,0.3,0,0.1-0.1c0-0.2-0.3-0.4-0.4-0.5
				c-0.2-0.3-0.4-0.6-0.7-0.8c-0.6-0.4-1.4,0-1.4,0.7c0.1,1.1,1.8,1.2,2.6,1.4c0.8,0.1,1.5-0.4,1.2-1.3c-0.1-0.3-0.2-0.7-0.4-0.9
				c-0.3-0.3-0.4-0.2-0.8-0.2c-0.6,0.1-1.1,0-1.7,0.1c-0.4,0.1-0.9,0.3-0.9,0.8c0,0.4,0.1,0.6,0.4,0.8c0.3,0.2,0.7,0.1,1,0.2
				c0.5,0.1,0.9,0.3,1.3,0.5c0.3,0.1,0.5,0.1,0.7-0.2c0.8-1.1-1.2-1.6-1.9-1.7c-0.6-0.1-0.9,0.9-0.3,1c0.1,0,1.2,0.4,1.3,0.3
				c0.2-0.1,0.5-0.1,0.7-0.2c-0.4-0.2-0.8-0.4-1.3-0.5c-0.4-0.1-0.9-0.1-1.3-0.3c0.1,0.1,0.2,0.2,0.3,0.3c-0.2,0.1-0.2,0.1,0.1,0.1
				c0.1,0,0.3,0,0.4,0c0.3,0,0.5,0,0.7,0c0.2,0,0.4-0.1,0.6-0.2c0.3-0.1,0.3,0-0.1-0.1c-0.1-0.1-0.2-0.2-0.3-0.3
				c0.1,0.2,0.3,0.5,0.3,0.7c0.1,0.2,0.1,0.2-0.2,0c-0.2-0.1-0.5-0.1-0.8-0.2c-0.1,0-1-0.2-1-0.1c0,0,0.2,0.3,0.3,0.3
				c0.2,0.3,0.4,0.6,0.6,0.8c0.3,0.4,0.8,0.7,1.2,0.3c0.2-0.2,0.3-0.4,0.4-0.6c0.1-0.1,0.1-0.3,0.2-0.4c0-0.1,0.1-0.2,0.1-0.2
				c0.1-0.2,0.1-0.2-0.2-0.1c-0.1-0.1-0.2-0.2-0.3-0.3c0.1,0.2,0.1,0.9,0,0.9c0,0-0.6-0.1-0.7-0.1c-0.7-0.1-1.2-0.4-1.8-0.6
				c-0.2-0.2-0.3-0.2-0.2,0c0,0.2,0.1,0.2,0.3,0c0.3,0,0.6-0.2,0.9-0.2c0.8-0.1,1.6-0.1,2.4-0.1C139.5,38.2,139.6,37.2,138.9,37.2
				L138.9,37.2z"/>
		</g>
	</g>
</g>
<path fill="#FFFFFF" stroke="#000000" stroke-miterlimit="10" d="M24.3,53.5C20.2,51,22.1,37.8,15.5,37c-3.6-0.5-4.3-1.4-4.3-1.6
	c0-0.1,4.3,0.2,4.2-1.2c-0.1-1.3-4.6-1.3-4.6-1.2c0,0.2,4.5-0.2,4.5-1.5c0-1.1-4.9-0.5-4.9-0.6c0,0,4.8-0.9,4.8-1.5
	c0-0.9-5-0.8-5-0.9c0-0.1,4.7,0.1,4.8-0.5c0.2-1.1-5-2.2-4.9-2.2c0.1,0,3.4,1.4,4.1,0.5c0.7-0.8-0.9-3-0.7-4.2
	c0.1-0.7,1.7-1.1,2.1-0.3c0.6,1,1.2,2.5,1.2,3.2c0,1.6,0.4,3.3,5.3,9.5c8.3,10.9,12.2,12.9,11.4,15.6C32.7,53.2,27.1,55.2,24.3,53.5
	z"/>
<path fill="none" stroke="#000000" stroke-miterlimit="10" d="M10.2,26c0,1,0,1.9,0,2.8c0,0.9,0.1,1.7,0.1,2.4
	c0.1,0.8,0.1,1.4,0.2,2c0.2,1.4,0.4,2.3,0.7,2.3"/>
<g>
	<g>
		<path d="M10.4,26.8c0,0.3-0.1,1,0.1,1.4c0.2,0.3,0.4,0.1,0.7,0.1c0.5,0,0.9,0.2,1.4,0.2c0.5,0,1-0.1,1.5-0.3
			c0.2-0.1,0.2-0.4,0-0.5c-0.6-0.2-1.2-0.5-1.7-0.7c-0.4-0.2-1-0.5-1.4-0.4c-0.1,0-0.2,0.1-0.2,0.2c-0.1,0.4-0.2,0.9,0.3,1
			c0.2,0.1,0.4,0,0.6,0.1c0.2,0,0.4,0.1,0.5,0.2c0.3,0.1,0.6,0.2,1,0.2c0.3,0,0.3-0.4,0.1-0.5c-0.6-0.3-1.3-0.6-2-0.7
			c-0.3,0-0.5,0.4-0.1,0.5c0.7,0.1,1.3,0.4,2,0.7c0-0.2,0-0.3,0.1-0.5c-0.5,0.1-0.9-0.2-1.4-0.4c-0.1,0-0.3-0.1-0.4-0.1
			c-0.2-0.1-0.2,0-0.1,0.1c0-0.2,0-0.3,0-0.5C11.2,27,11.1,27,11,27.1c0.5,0,1.2,0.4,1.6,0.5c0.5,0.2,0.9,0.4,1.4,0.6
			c0-0.2,0-0.3,0-0.5c-0.8,0.3-1.6,0.3-2.4,0.1c-0.2-0.1-0.4,0-0.6-0.1c-0.3,0-0.1,0.1-0.1-0.1c0-0.3,0-0.6,0-0.8
			C10.9,26.5,10.4,26.5,10.4,26.8L10.4,26.8z"/>
	</g>
</g>
<g>
	<g>
		<path d="M10.5,29.4c0,0.4,0.1,0.9,0.1,1.3c0,0.2,0.3,0.4,0.5,0.1c0.2-0.4,1.2-0.4,1.6-0.5c0.5-0.1,1-0.3,1.5-0.4
			c0.2-0.1,0.2-0.3,0.1-0.4c-0.4-0.5-1.1-0.4-1.7-0.4c-0.4,0-1.5-0.2-1.7,0.3c-0.1,0.3,0.1,0.7,0.5,0.8c0.4,0,0.8-0.1,1.2-0.1
			c0.4,0,0.8,0,1.2-0.1c0.3-0.1,0.2-0.6-0.1-0.5c-0.5,0.1-0.9,0.1-1.4,0.1c-0.2,0-0.3,0-0.5,0c-0.1,0-0.5,0-0.4,0.1
			c0.7,0.1,2-0.4,2.6,0.2c0-0.1,0.1-0.3,0.1-0.4c-0.7,0.2-1.5,0.4-2.2,0.5c-0.5,0.1-0.9,0.1-1.1,0.6c0.2,0,0.3,0.1,0.5,0.1
			c0-0.4-0.1-0.9-0.1-1.3C11,29,10.5,29,10.5,29.4L10.5,29.4z"/>
	</g>
</g>
<g>
	<g>
		<path d="M12,29.8c0.2,0,0.6-0.1,0.8,0c0.1,0,0.2,0.2,0.3,0.2c0.2,0.1,0.4,0,0.6,0c0.2,0,0.5,0,0.8-0.1c0.1,0,0.2-0.1,0.2-0.2
			c0,0,0,0,0,0c0-0.1-0.1-0.2-0.1-0.2c0,0,0,0,0,0c-0.3-0.2-0.5,0.3-0.3,0.4c0,0,0,0,0,0c0-0.1-0.1-0.1-0.1-0.2c0,0,0,0,0,0
			c0.1-0.1,0.1-0.2,0.2-0.2c-0.2,0.1-0.5,0.1-0.7,0c-0.2,0-0.3,0-0.5-0.1c0,0-0.1-0.1-0.1-0.1c-0.3-0.1-0.7,0-1.1,0
			C11.7,29.3,11.7,29.8,12,29.8L12,29.8z"/>
	</g>
</g>
<g>
	<g>
		<path d="M10.9,30.4c0.1,0,0.2,0,0.3,0c0.3,0,0.3-0.5,0-0.5c-0.1,0-0.2,0-0.3,0C10.6,29.9,10.6,30.4,10.9,30.4L10.9,30.4z"/>
	</g>
</g>
<g>
	<g>
		<path d="M10.8,31.9c1.4,0,2.7,0,4.1,0c0-0.2,0-0.3-0.1-0.5c-0.8,0.2-1.7,0.5-2.5,0.7c-0.2,0.1-0.4,0.1-0.6,0.2
			c-0.1,0-0.2,0-0.3,0.1c-0.1,0.1-0.1,0.1-0.1-0.1c-0.4-0.3,0.6-0.1,0.8-0.1c0.4,0,0.8,0,1.2-0.1c0,0,0.6,0,0.6-0.1
			c0-0.1-0.5-0.1-0.6-0.1c-0.3,0-0.5,0.1-0.8,0.2c-0.1,0.1-0.3,0.2-0.4,0.2c-0.2,0.1-0.3,0.1-0.5-0.1c-0.3,0-0.4-0.1-0.2-0.2
			c0,0.2,0,0.3,0.1,0.5c0.1,0,0.1-0.1,0.2-0.1c0.3,0,0.3-0.5,0-0.5c-0.2,0-0.3,0-0.4,0.1c-0.1,0.1-0.2,0.4,0.1,0.5
			c0.5,0.1,0.8-0.4,0.3-0.7c-0.4-0.3-0.7,0-0.8,0.4c-0.1,0.8,0.7,0.9,1.3,0.7c0.3-0.1,0.5-0.2,0.7-0.3c0.3-0.1,0.6-0.1,0.9-0.1
			c0.2,0,0.5-0.1,0.7-0.3c0.3-0.6-0.5-0.6-0.9-0.6c-0.7,0-1.4,0.1-2.2,0.1C11.2,31.6,10.9,31.5,10.8,31.9c-0.2,0.2,0.1,0.9,0.4,1
			c0.4,0.1,1.3-0.3,1.7-0.4c0.7-0.2,1.4-0.4,2.1-0.6c0.3-0.1,0.2-0.5-0.1-0.5c-1.4,0-2.7,0-4.1,0C10.5,31.4,10.5,31.9,10.8,31.9
			L10.8,31.9z"/>
	</g>
</g>
<g>
	<g>
		<path d="M11,34c0.8,0,1.6,0,2.3,0c0.4,0,0.8,0.1,1.2,0.2c0.2,0.1,0.2,0,0-0.1c-0.2,0.1-0.4,0.2-0.7,0.3c-0.3,0.1-0.7,0.2-1,0.3
			c-0.1,0-1.6,0.3-1.3-0.3c0.1-0.2,1.2-0.2,1.4-0.2c0.2,0,1.4,0,0.5,0.2c-0.3,0.1-0.5,0.1-0.8,0.1c-0.4,0.1-1.1,0.2-0.3,0
			c0.3-0.1,0.6-0.1,0.9-0.2c0.2,0.1,0.4,0,0.6-0.1c0,0,0,0-0.1,0c-0.4,0-0.7,0.1-1.1,0.2c-0.2,0-0.4,0.1-0.5,0.2
			c0,0.2,0.2,0.2,0.3,0.1c0.3,0,0.7-0.2,1-0.2c0.3,0,0.2-0.5-0.1-0.5c-0.5,0.1-2.2,0.2-1.5,1.1c0.1,0.1,0.2,0.1,0.2,0.1
			c0.7-0.2,1.4-0.3,2.1-0.5c0.2-0.1,0.4-0.1,0.4-0.3c0.1-0.7-1-0.6-1.4-0.5c-0.4,0.1-2,0-1.8,0.8c0.2,0.8,1.8,0.3,2.2,0.2
			c0.4-0.1,1.3-0.4,0.8-1c-0.2-0.3-0.7-0.3-1.1-0.3c-0.6,0-1.1,0.2-1.6,0.2c-0.7,0-0.7,0.9-0.3,1.3c0.5,0.5,1.9,0,2.5-0.1
			c0.3-0.1,1.9-0.5,1.2-1.1c-0.3-0.3-1.1-0.3-1.5-0.3c-0.8-0.1-1.7-0.1-2.5,0C10.7,33.5,10.7,34,11,34L11,34z"/>
	</g>
</g>
<path fill="#F7941E" stroke="#000000" stroke-miterlimit="10" d="M81.7,65.5c0-0.1,0,0.3-0.8-0.1c-0.7-0.4-0.6-0.3-0.6-0.3
	s0,1-0.3,1.9c-0.4,1.2-2,1.7-2.6,1.8c-0.6,0.1-2.9,0.1-3.7-0.9c-0.6-0.8-0.6-2.7-0.6-2.7l-2.1,0c0,0,0.5,2.9,1.4,3.9
	c1.1,1.2,2.4,1.4,3.3,1.5c0.9,0.1,2.9,0.3,4.4-1C81.6,68.4,82.2,66,81.7,65.5z"/>
<g>
	<ellipse fill="#39B54A" stroke="#39B54A" stroke-miterlimit="10" cx="76.7" cy="85.1" rx="11.8" ry="11.4"/>
	<polygon fill="#39B54A" stroke="#000000" stroke-miterlimit="10" points="83.3,93.7 76.7,90.4 70.2,93.8 71.4,86.7 66,81.8 
		73.3,80.7 76.6,74.2 79.9,80.6 87.3,81.6 82,86.6 	"/>
</g>
</svg>
