<?xml version="1.0" encoding="utf-8"?>
<!-- Generator: Adobe Illustrator 18.1.0, SVG Export Plug-In . SVG Version: 6.00 Build 0)  -->
<!DOCTYPE svg PUBLIC "-//W3C//DTD SVG 1.1//EN" "http://www.w3.org/Graphics/SVG/1.1/DTD/svg11.dtd">
<svg version="1.1" id="Layer_1" xmlns="http://www.w3.org/2000/svg" xmlns:xlink="http://www.w3.org/1999/xlink" x="0px" y="0px"
	 viewBox="0 0 200 200" enable-background="new 0 0 200 200" xml:space="preserve">
<path fill="#ED1C24" stroke="#000000" stroke-miterlimit="10" d="M106.1,71.6c1.2-1,3.1-0.7,5.9,0c1.3,0.3,3.2,0.7,5.4,1.9
	c3.3,1.8,4.9,3.7,8,6c4.3,3.3,7.6,7.1,11.7,10.3c0.1,0,3.6,1.9,7.5,4.9c1.1,0.9,2.2,1.9,2.6,3.5c0.4,1.8-0.2,3.9-1.3,4.3
	c-0.7,0.2-1.1-0.7-3.2-1.9c-1.4-0.9-2.6-1.5-4.1-1.4c-1.5,0.1-1.6,0.9-2.7,1c-2.1,0.1-4.9-3.1-6.6-4.2c-1.4-1-3.4-1.9-5.7-4.1
	c-1.2-1.1-1.8-1.4-2.2-1.9c-1-0.9-2.7-1.9-4.7,1.2c-1.2,2-0.7,6.3-0.8,8.7c0,1.6-0.1,5.7,0.8,8.7c0,0,0.1,0.7,0.9,3.1l0.5,1.9
	c-0.2,0.7-2.5-0.1-5.9,0c-3.4,0.1-3.8,0.8-5.6,0.4c-1.9-0.4-2-1.2-4.2-2.1c-1.9-0.7-4.2-0.5-4.7-0.3c-1.9,0.5-2.1,1.1-4.3,1.8
	c-0.7,0.2-0.3,0-2,0.2c-2.9,0.4-4.6,0.4-6.3,0.2c-1.5-0.2-1.8-0.4-1.9-0.5c-0.8-1,0.1-2.6,0.9-5.9c0.2-1,0.9-3.5,0.1-6.5
	c-0.3-1.2-0.3-3-1.9-5.8c-1.9-3.3-2.4-4.3-3.4-5.3c-0.7-0.7,0,0-2.7-2.7c-2.7-2.6-2.5-2.3-4.1-3.9c-1.3-1.4-4.9-5.3-5.7-6.6
	c-0.5-1-8.6-13.6-10.2-15.4c-0.9-1-6.3-10.3-6.5-10.6c-1.4-2.2,4.5-0.7,3.8-0.7c-3.2-0.2,0.9-1.4,3.6-2.2c2.2-0.7,0.8-5.5,1.5-3.7
	c1.1,2.5,3.7,7.1,6.1,10.8c2.1,3.1,1.6,2,4.4,6.3c2.4,3.8,5.9,7.5,7.1,8.6c3.2,3.2,4.8,4.7,7.8,3.4c1.2-0.5,2.5-0.9,5.4-1.5
	c3.4-0.7,3.9-0.4,4.3-0.2c1.2,0.9,0.2,2.5,1.5,4.1c1.3,1.5,3.6,1.6,4.5,1.6c0.9,0,2.7,0.1,4.1-1.1C105.6,74.5,104.7,72.7,106.1,71.6
	z"/>
<polygon stroke="#000000" stroke-miterlimit="10" points="104.8,83 111.8,90.3 104.9,100.5 90.7,100.6 83.5,90.6 90.8,83.2 "/>
<polygon fill="#FFFFFF" stroke="#000000" stroke-miterlimit="10" points="106.7,90.3 102.3,96.8 93.9,96.9 88.8,90.4 91.1,87.2 
	103.9,87.2 "/>
<path fill="#FFFFFF" stroke="#000000" stroke-miterlimit="10" d="M145,102.8c0.3,1.2-1.1,3.4-3.8,6.1c-5.8,5.9-6.6,5.2-9,8.2
	c-2.3,3.1-2.7,5.3-6,7.7c-1.4,1-2.4,1.4-3.3,1.1c-1.8-0.5-2.4-3.2-2.9-4.8c-0.4-1.9-1-4.1,0.3-5.7c1-1.3,2.5-1.6,3.7-1.9
	c2.5-0.5,3.2,0.3,4.4,0c3.8-1.2,2-10.8,6.6-13.1c1.9-0.9,3.9-0.8,4.9-0.4C140.9,100.3,144.4,101,145,102.8z"/>
<path fill="#F7941E" stroke="#000000" stroke-miterlimit="10" d="M117.8,114.6c0.3,1.3,0.8,2.7,1.1,4.1l-12.1,0.1l-1.3-4.4
	L117.8,114.6z"/>
<polygon fill="#F7941E" stroke="#000000" stroke-miterlimit="10" points="92.1,114.8 92.1,119.7 81.2,119 82.4,114.5 "/>
<path stroke="#000000" stroke-miterlimit="10" d="M105.3,115.1c0.1,0.3,1.4,2.6,0.4,4.8c-1.3,2.9-5.3,3-6,3c-0.9,0-5.2,0-6.9-3.3
	c-0.1-0.1-1.3-2.6,0-5c1.8-3.3,6.7-2.7,7.2-2.6C100.7,112.1,103.7,112.6,105.3,115.1z"/>
<path fill="#FFFFFF" stroke="#000000" stroke-miterlimit="10" d="M102.3,115.9c0.7,1.1,0.5,2.5-0.1,3.5c-1.2,1.5-3.8,1.2-5.2,0
	c-0.8-0.7-1.6-2-1.1-3.2c0.4-1.1,2-1.4,2.6-1.5C98.9,114.6,101.2,114.3,102.3,115.9z"/>
<path fill="#ED1C24" stroke="#000000" stroke-miterlimit="10" d="M119,119.5c0,0,1.1,3.1,2.2,6.7c0.2,0.5,0.9,3.3,1.3,4.8
	c2.7,9.5,2.2,19.1,3.2,20c1.4,1.2,1.5,2.2,2,4.1c0.4,2.2,0.5,3.4,0.5,5.4c0,1,0.5,1.8,0.4,2.4c-0.2,1-1.8,1.4-2.7,1.6
	c-0.5,0.2-3.1,0.5-5,0.4c-2.1-0.1-4.6-1.1-4.6-1.1V163c0,0-0.2-2.5-0.7-3.7c-1.3-3.7-3.1-6.1-5.5-8.9c-7.5-8.6-8-13.1-9.7-13.6
	c0,0-3,4.6-11.3,14.7c-2.5,3.1-4.5,5.2-4.6,8.3c0,1.9,0.5,3.7-0.5,4.8c-0.2,0.2-0.7,0.5-3.5,0.8c-5,0.3-6.6-0.5-7-0.9
	c-0.5-0.3-1.4-1-1.5-1.9c0-0.9-0.2-1.5,0-2.5c0.4-2.5,0.2-3.3,1.5-5.5c0.5-1,1-2.4,1.5-3.5c1.2-2.5-0.2-9.8,1.3-16.7
	c0.8-3.8,0.1-6.9,1.3-8.1c2.1-2.1,3.5-6.6,3.5-6.6S91,119.4,92,120c2.7,1.9,2.4,3,7.5,3c4.4,0,6-3,7.2-3.4
	C110.8,118.5,119,119.5,119,119.5z"/>
<path stroke="#000000" stroke-miterlimit="10" d="M130.1,166.8c-0.1-1.8,0-3.3-0.8-3.7c-0.4-0.2-0.9,0-2.1,0.4
	c-1.3,0.4-2.7,0.9-4.1,1c-2.2,0.1-6.4-0.3-6.7,0c-1.2,1.4,1.3,5.6,3.2,8.4c2.7,4.3,3.5,4.3,3.9,6.5c0.3,2-0.2,2.3,0,6.7
	c0.2,3.1,0.5,4.1,0.8,4.4c0.3,0.8,0.9,1.6,3.7,3.8c2.9,2.3,4.3,3.4,5.6,3.8c0.3,0.1,4.6,1.3,7.6-1c0.4-0.4,1.4-1.1,1.6-2.2
	c0.1-0.4,0.3-1.9-2.1-4.8c-2.4-3.1-3.9-3.2-7.1-6.6c-1.2-1.3-1.8-2-2.2-3c-1-2.2-0.3-3.2-0.7-7.4C130.7,169.5,130.2,170,130.1,166.8
	z"/>
<path stroke="#000000" stroke-miterlimit="10" d="M82.3,170c1-1.9,2.6-5,1.6-5.9c-0.4-0.4-1.2,0-3.5,0.4c-2.5,0.4-5.3,0.9-7-0.5
	c-1.2-0.9-1.2-1.9-1.6-1.9c-1.4,0.1-1.9,7.9-2,9.4c-0.4,6.7,0.4,7.1-0.4,9.4c-0.7,1.6-1.3,1.8-7,7.7c-4.1,4.3-5,5.5-4.7,6.9
	c0.4,2,3.1,3.1,3.7,3.3c3.2,1.2,6.1-0.1,6.7-0.4c1.8-0.9,1.5-1.4,5.2-4.7c2.6-2.3,2.9-2.1,3.3-3c0.8-1.8,0.1-2.9,0.1-7.4
	c0-1.4,0-2.2,0.1-3C77.3,176.5,79.5,175.4,82.3,170z"/>
<path fill="#21409A" stroke="#000000" stroke-miterlimit="10" d="M68.6,79.2c0,0-1,1.1-3.8,3c-2.4,1.6-7.6,5.6-12,12.3
	c-4.2,6.4-3.5,9-8.8,15.8c-4.1,5.3-6.7,6.8-7.7,7.2c-4.1,2.1-8.7,2.3-10.9,2.3c-4.7,0-6.5-1.4-7.5-0.3c-1.8,1.9,1.1,8.6,5.6,12.7
	c2.3,2.1,5.7,3.7,12.4,6.9c3.6,1.8,3.2,1.4,4.3,2c6.3,3.7,5.6,7.8,10.3,11.1c4.1,2.7,4.6,3.4,12.9,3.3c4.9-0.1,7.9,3.4,8.7,2.2
	c0.2-0.2,0.4-0.3,1.2-1.9c0.9-1.9,1.4-3.2,2.2-5c0.8-1.6-1.4-7.8,0.5-15.9c0.9-3.6,2-7.4,3.3-10.3c2-4.5,0.4-1.2,2-4.5
	c1.1-2.5,2.5-11.1,3.4-12.9c2.2-4.8-3.5-13.9-4.6-15.7c-0.4-0.5-4.8-4.9-8.2-8.4C70.7,81.6,69.1,79.8,68.6,79.2z"/>
<path fill="#21409A" stroke="#000000" stroke-miterlimit="10" d="M85.7,157.3c0.4,0.4,9-3.2,14.5-2.9c8.2,0.4,14,4.4,14.8,3.4
	c0.8-1.1-3.1-3.5-7.6-10c-2.1-3-6.1-11-7-11.1c-0.8,0-4.4,6-8.1,10.6C88.5,152.2,85.3,156.9,85.7,157.3z"/>
<path fill="#21409A" stroke="#000000" stroke-miterlimit="10" d="M128.1,153.6c2.2,2.3,4.8-3.2,10.1-5c5.3-2,6.6,1,11.1-0.7
	c6.5-2.3,4.7-8.6,12.3-13.1c1.3-0.8,5.2-2,12.9-4.5c6.5-2.1,7.4-2.2,7.8-3.2c1.4-3.6-8.6-7.8-18.7-20.6c-5.8-7.4-5.2-9.4-11.1-15.1
	c-3.7-3.6-7.1-5.8-13.9-10.1c-5.4-3.4-9.3-5.4-13.9-6.8c-2.7-0.8-8.1-1.1-8.1-1.1s2.5,2.3,7.8,6.3c7.7,5.6,6.4,5.7,12.3,9.9
	c6.6,4.7,9.9,5.7,10.2,9c0.2,1.6-0.4,3.1-1.4,5c-1.6,3.3-3.3,4.1-8.1,8.8c-3.9,3.8-5.8,5.8-7,7.5c-1.5,2.2-2.3,4.1-4.6,5.3
	c-2.3,1.2-4.7-0.3-4.4,1.1c0.3,2.1,2.9,6.9,3.2,16.5c0.1,2.3,0.2,4.7,0.8,7.5C125.7,151.8,126.8,152.3,128.1,153.6z"/>
<g>
	<path fill="#21409A" stroke="#000000" stroke-miterlimit="10" d="M118.8,89.3c2-1.4,3.8,2.2,9,5.7c3.8,2.5,6.7,3.2,6.6,4.4
		c0,0.9,0,0.9-1.1,2.5c-2,3.1-1,8.4-3.9,11c-2,1.8-5.2-0.7-7.8,1.3c-2.4,1.9-2.7,4.6-3.5,4.5c-0.7-0.1-0.9-2.4-1.1-4.4
		c-0.3-3-1.5-5-1.9-6.8c-0.7-3-0.4-5.5-0.3-6.5c0.1-0.9,0.1-4.9,0.9-7.6C116.6,90.5,118,89.9,118.8,89.3z"/>
</g>
<path fill="#E8B68A" stroke="#E8B68A" stroke-miterlimit="10" d="M96.4,73.6c0,0-0.3-5.5-0.8-8.8c0,0-2.9,1.4-10.2-1.3
	c-0.9-0.3-3.8-0.9-7.4-4.5c-1.6-1.6-1.9-3.8-2.3-5.4c-0.7-3.1,0.2-3.4,0.2-7.1c0,0,0.8-0.2-1.2-1.9c-0.2-0.2-1.5-0.2-1.9,0
	C72.2,45,71,45.4,69.7,45c-2-0.5-2.7-2.5-3.2-3.7c-0.3-0.9-1.3-3.4,0-4.6c0.9-0.9,2.6-0.8,3.7-0.3c3.4,1.2,3.9,5.4,5,5.3
	c0.9-0.1-0.2-1.9,0.9-6.8c0.3-1.4,0.2-1.8,1.6-4.6c1.1-2,2.2-4.6,4.1-5.7c2-1.2,3.8-2.4,8.9-2.9c5.7-0.4,6.6-0.1,12.8-0.4
	c2.6-0.1,6.5-0.1,12.1,2.3c2.1,0.9,3.5,9.1,4.3,10.2c3,3.9,0,4.8,0.3,5.9l0,0c0.2,0.1,1.2-1.3,2.4-2.2c0.3-0.2,1.6-1.2,3.3-1.2
	c1.1,0,3.1,0.3,3.7,1.5c1.6,2.9-1.5,5.6-4.9,7.5c-3.6,1.9-2.1,10.3-3.6,13.3c-1.2,2.4-2.9,4.3-7,5.7c-4.9,1.8-9.5,2.2-11.5,1.1l0,0
	c-1.8,3.1-0.2,6.1-0.2,6.1c0,0.3,0,1,0,1.8c-0.4,0.3-1.2,0.9-2.3,1.2c-0.3,0.1-0.7,0.1-1.1,0.1C97.6,74.5,96.4,73.6,96.4,73.6z"/>
<path fill="none" stroke="#A97C50" stroke-miterlimit="10" d="M72.1,41.9c0.2-0.2-0.4-1.2-1.3-1.6c-1-0.4-2.2-0.3-2.3,0
	C68.5,40.8,71.8,42.3,72.1,41.9z"/>
<path fill="none" stroke="#A97C50" stroke-miterlimit="10" d="M122.6,42.2c-0.1-0.2,1-1.3,2.3-1.8c1.1-0.3,2.5-0.3,2.6,0
	C127.6,41,122.8,42.7,122.6,42.2z"/>
<g>
	<path fill="#FFFFFF" stroke="#000000" stroke-miterlimit="10" d="M93.3,43.6c-1,0.7-2-1-4.7-1c-2.5,0-3.6,1.4-4.4,0.8
		c-1-0.8-0.1-3.5,1-6.8c0.9-2.6,1.6-3.7,2.6-4.4c0.4-0.3,1.3-0.9,2.3-0.7c0.4,0.1,1.4,0.4,2.6,3.6C92.9,35.5,95.3,42.3,93.3,43.6z"
		/>
	<path fill="#3C2415" stroke="#000000" stroke-miterlimit="10" d="M91.8,41.7c1.4-2,0.5-4.4,0.4-4.7c-0.1-0.1-1.3-3.1-3.4-3.1
		c-2,0.1-3,2.6-3.2,3.1c-0.8,2,0.5,5.8,3.2,5.6C90.6,42.5,90.7,43.2,91.8,41.7z"/>
	<path fill="#603913" stroke="#000000" stroke-miterlimit="10" d="M88.8,42.6c1.2-0.1,1.6-0.3,1.6-1.6c0-0.7-0.3-2.3-1.5-2.3
		c-1.2,0-1.5,0.4-1.6,2C87.2,41.6,87.6,42.6,88.8,42.6z"/>
</g>
<g>
	<path fill="#FFFFFF" stroke="#000000" stroke-miterlimit="10" d="M113.1,43.3c-1,0.7-2-1-4.7-1c-2.5,0-3.6,1.4-4.4,0.8
		c-1-0.8-0.1-3.5,1-6.8c0.9-2.6,1.6-3.7,2.6-4.4c0.4-0.3,1.3-0.9,2.3-0.7c0.3,0.1,1.4,0.5,2.5,3.6C112.6,35.4,115,42.2,113.1,43.3z"
		/>
	<path fill="#3C2415" stroke="#000000" stroke-miterlimit="10" d="M111.5,41.6c1.4-2,0.5-4.4,0.4-4.7c-0.1-0.1-1.3-3.1-3.4-3.1
		c-2,0.1-3,2.6-3.2,3.1c-0.8,2,0.5,5.8,3.2,5.6C110.3,42.3,110.4,43.1,111.5,41.6z"/>
	<path fill="#603913" stroke="#000000" stroke-miterlimit="10" d="M108.4,42.3c1.2-0.1,1.6-0.3,1.6-1.6c0-0.7-0.3-2.3-1.5-2.3
		c-1.2,0-1.5,0.4-1.6,2C106.9,41.5,107.2,42.5,108.4,42.3z"/>
</g>
<path fill="none" stroke="#000000" stroke-miterlimit="10" d="M93.2,27c-1.8-0.5-5.2,0-7.7,3.1"/>
<path fill="none" stroke="#000000" stroke-miterlimit="10" d="M112.9,29.8c0-1.6-3.5-3-7.8-3"/>
<line fill="none" stroke="#000000" stroke-miterlimit="10" x1="91.2" y1="31.8" x2="91.2" y2="31.8"/>
<g>
	<path fill="none" stroke="#A97C50" stroke-miterlimit="10" d="M101.5,49c-0.2-0.1-1.4-1-3-0.4c-1.3,0.4-2.5,1.8-2.3,3.2
		c0.2,1.1,1.1,1.9,2,2.1c1.1,0.3,2.3,0,3.2-0.9"/>
</g>
<path fill="none" stroke="#BE1E2D" stroke-miterlimit="10" d="M115.6,55.5c-0.4-0.8-1.9-1.4-1.9-1.4s-1.2,1.5-2,2.6
	c-2.7,3.5-6.7,4.6-8,4.9c-2.2,0.4-3.8,0.3-5.5,0.1c-1.3-0.1-3.3-0.1-5.5-1.3c-1.2-0.7-2.4-1.2-4.2-2.4c-2-1.3-2.2-1.9-2.2-1.9
	c-1.3-1.3-1.6-1.5-1.6-1.5s-0.9,0.8-1.1,1.3"/>
<path stroke="#000000" stroke-miterlimit="10" d="M125,33.1c0.4-1.6,1-2.9,1.2-5.6c0.1-2,0.3-4.5-0.3-7.8c-0.5-2.9-1.1-5.4-3.1-7.7
	c-1.5-1.6-3.3-2.6-4.2-3.1c-1.1-0.5-2-0.9-3.7-1.5c-1.6-0.5-2.9-0.9-2.6-0.7c0.4,0.5,3.1,3.4,3.4,7.9c0.1,0.9,0.2,2.9-1,4.4
	c-1.1,1.4-2.5,1.8-2.4,2.4c0.1,0.7,2.3,0.1,4.1,1.4c0.5,0.4,0.8,0.9,2,4.3c1.4,4.1,1.3,4.5,2.2,6.5c0.4,1,1.4,3.2,1.4,3.2l0,0
	C121.8,36.9,124,36.3,125,33.1z"/>
<path stroke="#000000" stroke-miterlimit="10" d="M107.1,3.2c-1.4-0.7-3.6-1.5-7.1-2.1C97.3,0.7,93.2,0,88.4,1.3
	c-2.2,0.5-9.2,2.4-12.6,8.3c-2.3,4.2-1.3,5.4-2.3,11.4c-0.2,1.3-5.8,3.1-3.8,11.8c0.2,1.1,0.8,2,1.1,2.6c1.1,2.1,3.3,5.5,4.5,5
	c1.1-0.3-0.2-3.6,1.2-8.3c0.3-1.2,1.3-4.1,3.8-6.5c2.1-2,4.3-2.9,5.6-3.3c2.4-0.9,3.4-0.7,10.3-1c8.4-0.4,8.1-0.7,10-0.3
	c2.3,0.3,2.9,0.4,5,0.3c1.8,0,3.2-1.9,3.5-2.5c1.6-3.2,0.4-6.6-0.1-8c-0.4-1.1-1.2-3-3-4.8C110.1,4.6,108.6,3.9,107.1,3.2z"/>
<path fill="#F7941E" stroke="#000000" stroke-miterlimit="10" d="M104.6,71.9c0-0.1,0,0.3-0.9-0.1c-0.8-0.4-0.7-0.3-0.7-0.3
	s0,1.1-0.3,2.1c-0.4,1.3-2.2,1.9-2.9,2s-3.2,0.1-4.1-1c-0.7-0.9-0.7-3-0.7-3h-2.3c0,0,0.5,3.2,1.5,4.3c1.2,1.3,2.6,1.5,3.6,1.6
	c1,0.1,3.2,0.3,4.8-1.1C104.5,75,105.2,72.4,104.6,71.9z"/>
<path fill="#FFFFFF" stroke="#000000" stroke-miterlimit="10" d="M49.3,51c-4.5-2.7-2.4-17.2-9.7-18.1c-3.9-0.5-4.7-1.5-4.7-1.8
	c0-0.1,4.7,0.2,4.6-1.3c-0.1-1.4-5-1.4-5-1.3c0,0.2,4.9-0.2,4.9-1.6c0-1.2-5.4-0.5-5.4-0.7c0,0,5.3-1,5.3-1.6c0-1-5.5-0.9-5.5-1
	c0-0.1,5.2,0.1,5.3-0.5c0.2-1.2-5.5-2.4-5.4-2.4s3.7,1.5,4.5,0.5c0.8-0.9-1-3.3-0.8-4.6c0.1-0.8,1.9-1.2,2.3-0.3
	c0.7,1.1,1.3,2.7,1.3,3.5c0,1.8,0.4,3.6,5.8,10.4c9.1,12,13.4,14.2,12.5,17.1C58.5,50.7,52.4,52.9,49.3,51z"/>
<path fill="none" stroke="#000000" stroke-miterlimit="10" d="M33.8,20.8c0,1.1,0,2.1,0,3.1s0.1,1.9,0.1,2.6
	c0.1,0.9,0.1,1.5,0.2,2.2c0.2,1.5,0.4,2.5,0.8,2.5"/>
<g>
	<g>
		<path d="M34.1,21.7c0,0.3-0.1,1.1,0.1,1.5c0.2,0.3,0.4,0.1,0.8,0.1c0.5,0,1,0.2,1.5,0.2c0.5,0,1.1-0.1,1.6-0.3
			c0.2-0.1,0.2-0.4,0-0.5c-0.7-0.2-1.3-0.5-1.9-0.8c-0.4-0.2-1.1-0.5-1.5-0.4c-0.1,0-0.2,0.1-0.2,0.2c-0.1,0.4-0.2,1,0.3,1.1
			c0.2,0.1,0.4,0,0.7,0.1c0.2,0,0.4,0.1,0.5,0.2c0.3,0.1,0.7,0.2,1.1,0.2c0.3,0,0.3-0.4,0.1-0.5c-0.7-0.3-1.4-0.7-2.2-0.8
			c-0.3,0-0.5,0.4-0.1,0.5c0.8,0.1,1.4,0.4,2.2,0.8c0-0.2,0-0.3,0.1-0.5c-0.5,0.1-1-0.2-1.5-0.4c-0.1,0-0.3-0.1-0.4-0.1
			c-0.2-0.1-0.2,0-0.1,0.1c0-0.2,0-0.3,0-0.5c-0.1,0.1-0.2,0.1-0.2,0.2c0.5,0,1.3,0.4,1.8,0.5c0.5,0.2,1,0.4,1.5,0.7
			c0-0.2,0-0.3,0-0.5c-0.9,0.3-1.8,0.3-2.6,0.1c-0.2-0.1-0.4,0-0.7-0.1c-0.3,0-0.1,0.1-0.1-0.1c0-0.3,0-0.7,0-0.9
			C34.7,21.4,34.2,21.4,34.1,21.7L34.1,21.7z"/>
	</g>
</g>
<g>
	<g>
		<path d="M34.2,24.6c0,0.4,0.1,1,0.1,1.4c0,0.2,0.3,0.4,0.5,0.1c0.2-0.4,1.3-0.4,1.8-0.5c0.5-0.1,1.1-0.3,1.6-0.4
			c0.2-0.1,0.2-0.3,0.1-0.4c-0.5-0.5-1.3-0.5-2-0.4c-0.4,0-1.6-0.2-1.9,0.3c-0.1,0.3,0.1,0.8,0.5,0.9c0.4,0,0.9-0.1,1.3-0.1
			c0.4,0,0.9,0,1.3-0.1c0.3-0.1,0.2-0.7-0.1-0.5c-0.5,0.1-1,0.1-1.5,0.1c-0.2,0-0.3,0-0.5,0c-0.1,0-0.5,0-0.4,0.1
			c0.8,0.1,2.2-0.4,2.9,0.2c0-0.1,0.1-0.3,0.1-0.4c-0.8,0.2-1.6,0.4-2.4,0.5c-0.5,0.1-1,0.1-1.2,0.7c0.2,0,0.3,0.1,0.5,0.1
			c0-0.4-0.1-1-0.1-1.4C34.7,24.1,34.2,24.1,34.2,24.6L34.2,24.6z"/>
	</g>
</g>
<g>
	<g>
		<path d="M35.8,25c0.2,0,0.7-0.1,0.9,0c0.1,0,0.2,0.2,0.3,0.2c0.2,0.1,0.4,0,0.7,0s0.5,0,0.9-0.1c0.1,0,0.2-0.1,0.2-0.2l0,0
			c0-0.1-0.1-0.2-0.1-0.2l0,0c-0.3-0.2-0.5,0.3-0.3,0.4l0,0c0-0.1-0.1-0.1-0.1-0.2l0,0c0.1-0.1,0.1-0.2,0.2-0.2
			c-0.2,0.1-0.5,0.1-0.8,0c-0.2,0-0.3,0-0.5-0.1L37,24.5c-0.3-0.1-0.8,0-1.2,0C35.5,24.5,35.5,25,35.8,25L35.8,25z"/>
	</g>
</g>
<g>
	<g>
		<path d="M34.6,25.7c0.1,0,0.2,0,0.3,0c0.3,0,0.3-0.5,0-0.5c-0.1,0-0.2,0-0.3,0C34.3,25.1,34.3,25.7,34.6,25.7L34.6,25.7z"/>
	</g>
</g>
<g>
	<g>
		<path d="M34.5,27.3c1.5,0,3,0,4.5,0c0-0.2,0-0.3-0.1-0.5C38,27,37,27.3,36.1,27.5c-0.2,0.1-0.4,0.1-0.7,0.2c-0.1,0-0.2,0-0.3,0.1
			c-0.1,0.1-0.1,0.1-0.1-0.1c-0.4-0.3,0.7-0.1,0.9-0.1c0.4,0,0.9,0,1.3-0.1c0,0,0.7,0,0.7-0.1c0-0.1-0.5-0.1-0.7-0.1
			c-0.3,0-0.5,0.1-0.9,0.2c-0.1,0.1-0.3,0.2-0.4,0.2c-0.2,0.1-0.3,0.1-0.5-0.1c-0.3,0-0.4-0.1-0.2-0.2c0,0.2,0,0.3,0.1,0.5
			c0.1,0,0.1-0.1,0.2-0.1c0.3,0,0.3-0.5,0-0.5c-0.2,0-0.3,0-0.4,0.1c-0.1,0.1-0.2,0.4,0.1,0.5c0.5,0.1,0.9-0.4,0.3-0.8
			c-0.4-0.3-0.8,0-0.9,0.4c-0.1,0.9,0.8,1,1.4,0.8c0.3-0.1,0.5-0.2,0.8-0.3c0.3-0.1,0.7-0.1,1-0.1c0.2,0,0.5-0.1,0.8-0.3
			c0.3-0.7-0.5-0.7-1-0.7c-0.8,0-1.5,0.1-2.4,0.1C34.9,27,34.7,26.9,34.5,27.3c-0.2,0.2,0.1,1,0.4,1.1c0.4,0.1,1.4-0.3,1.9-0.4
			c0.8-0.2,1.5-0.4,2.3-0.7c0.3-0.1,0.2-0.5-0.1-0.5c-1.5,0-3,0-4.5,0C34.2,26.8,34.2,27.3,34.5,27.3L34.5,27.3z"/>
	</g>
</g>
<g>
	<g>
		<path d="M34.7,29.6c0.9,0,1.8,0,2.5,0c0.4,0,0.9,0.1,1.3,0.2c0.2,0.1,0.2,0,0-0.1c-0.2,0.1-0.4,0.2-0.8,0.3
			c-0.3,0.1-0.8,0.2-1.1,0.3c-0.1,0-1.8,0.3-1.4-0.3c0.1-0.2,1.3-0.2,1.5-0.2c0.2,0,1.5,0,0.5,0.2c-0.3,0.1-0.5,0.1-0.9,0.1
			c-0.4,0.1-1.2,0.2-0.3,0c0.3-0.1,0.7-0.1,1-0.2c0.2,0.1,0.4,0,0.7-0.1c0,0,0,0-0.1,0c-0.4,0-0.8,0.1-1.2,0.2
			c-0.2,0-0.4,0.1-0.5,0.2c0,0.2,0.2,0.2,0.3,0.1c0.3,0,0.8-0.2,1.1-0.2c0.3,0,0.2-0.5-0.1-0.5c-0.5,0-2.4,0.2-1.8,1.1
			c0.1,0.1,0.2,0.1,0.2,0.1c0.8-0.2,1.5-0.3,2.3-0.5c0.2-0.1,0.4-0.1,0.4-0.3c0.1-0.8-1.1-0.7-1.5-0.5c-0.4,0.1-2.2,0-2,0.9
			c0.2,0.9,2,0.3,2.4,0.2c0.4-0.1,1.4-0.4,0.9-1.1c-0.2-0.3-0.8-0.3-1.2-0.3c-0.7,0-1.2,0.2-1.8,0.2c-0.8,0-0.8,1-0.3,1.4
			c0.5,0.5,2.1,0,2.7-0.1c0.3-0.1,2.1-0.5,1.3-1.2c-0.3-0.3-1.2-0.3-1.6-0.3c-0.9-0.1-1.9-0.1-2.7,0C34.4,29.1,34.4,29.6,34.7,29.6
			L34.7,29.6z"/>
	</g>
</g>
<g>
	
		<rect x="35.6" y="13.9" transform="matrix(-0.99 -0.1409 0.1409 -0.99 81.1264 59.5111)" fill="#808285" stroke="#000000" stroke-miterlimit="10" width="14.2" height="25.9"/>
	
		<rect x="37.9" y="18.6" transform="matrix(-0.99 -0.1409 0.1409 -0.99 80.8895 60.0267)" stroke="#000000" stroke-miterlimit="10" width="9.3" height="17"/>
</g>
</svg>
