<?xml version="1.0" encoding="utf-8"?>
<!-- Generator: Adobe Illustrator 18.1.0, SVG Export Plug-In . SVG Version: 6.00 Build 0)  -->
<!DOCTYPE svg PUBLIC "-//W3C//DTD SVG 1.1//EN" "http://www.w3.org/Graphics/SVG/1.1/DTD/svg11.dtd">
<svg version="1.1" id="Layer_1" xmlns="http://www.w3.org/2000/svg" xmlns:xlink="http://www.w3.org/1999/xlink" x="0px" y="0px"
	 viewBox="0 0 200 200" enable-background="new 0 0 200 200" xml:space="preserve">
<path fill="#21409A" stroke="#000000" stroke-miterlimit="10" d="M128,153.6c2.2,2.3,4.8-3.2,10.1-5c5.3-2,6.6,1,11.1-0.7
	c6.5-2.3,4.7-8.6,12.3-13.1c1.3-0.8,5.2-2,12.9-4.5c6.5-2.1,7.4-2.2,7.8-3.2c1.4-3.6-8.6-7.8-18.7-20.6c-5.8-7.4-5.2-9.4-11.1-15.1
	c-3.7-3.6-7.1-5.8-13.9-10.1c-5.4-3.4-9.3-5.4-13.9-6.8c-2.7-0.8-8.1-1.1-8.1-1.1s7.8-0.3,7.8,6.3c0,6.5-7.5,10.8-9.3,17.8
	c-1.8,6.5,2.3,13.7,2.7,17c0.2,1.6,3.4,10.2,3.6,11.6c0.3,2.1,2.9,6.9,3.2,16.5c0.1,2.3,0.2,4.7,0.8,7.5
	C125.6,151.8,126.7,152.3,128,153.6z"/>
<path fill="#ED1C24" stroke="#000000" stroke-miterlimit="10" d="M106.7,72.1c1.3-1,3.1-0.5,5.9,0.1c1.3,0.3,3.4,0.7,5.7,1.1
	c3.7,0.8,5.9,1.8,9.5,0.3c4.1-1.5,9.9-5.3,13.6-7.4c0.1,0,3.9-6.9,6.7-9.1c1.1-0.9,1.8,2.5,3.2,3.5c1.1,0.8,4.5,2.2,4.9,2.7
	c0,0-0.5,0.3-1.3,1.1c-1.2,1.2-3.8,5.2-5.2,6.4c-1.1,1-4.2,4.5-4.9,5.5c-1.3,1.6-4.4,2.7-6.4,3.6c-1.6,0.7-6.1,2.5-8.8,3.4
	c-1.5,0.5-7.6,7-8.1,7.6c-0.8,0.7-1.1,2.2-2.9,5.5c-1.1,2.1-1.4,2.2-2.1,3.8c-0.5,1.5-0.5,6-0.1,9.1c0,0,0.1,0.2,0.8,3.2l0.4,1.9
	c-0.3,0.7-2.5-0.1-5.9-0.1c-3.5,0.1-3.8,0.8-5.6,0.3c-1.9-0.5-2-1.3-4.2-2.2c-1.9-0.7-4.2-0.7-4.7-0.4c-1.9,0.4-2.1,1-4.3,1.6
	c-0.7,0.2-0.3,0-2,0.2c-2.9,0.3-4.6,0.3-6.3,0.1c-1.5-0.2-1.8-0.4-1.9-0.5c-0.8-1,0.2-2.6,1-5.9c0.2-1,1-3.5,0.2-6.5
	c-0.3-1.2-1.2-2.3-2.6-5c-1.8-3.4-1.5-3.4-2.1-5.2c-0.3-0.9-0.3-0.9-3.1-3.7c-2.6-2.7-2.5-2.4-3.9-4.1c-1.2-1.4-3.9-5-6.3-5
	c-1.1,0-12.9-3.5-14.6-5.3c-0.9-1-6.8-10.5-7-11c-1.3-2.2,0.7-3.8,1.1-4.3c2-1.5,2.4-1.3,3.8-2.7c1.5-1.6,2.2-3.6,2.9-1.8
	c0.3,0.9,5,11.5,6.6,12.3c2.9,1.4,15.9,6.4,17.4,6.9c3.4,1.2,5,2,8.2,1.2c1.3-0.3,2.5-0.9,5.4-1.4c3.4-0.7,3.9-0.3,4.3-0.1
	c1.2,0.9,0.2,2.5,1.4,4.1c1.2,1.6,3.6,1.6,4.4,1.8c0.9,0,2.7,0.1,4.1-1.1C106.2,74.8,105.3,73.2,106.7,72.1z"/>
<polygon stroke="#000000" stroke-miterlimit="10" points="107,83 114,90.3 107.1,100.5 92.8,100.6 85.7,90.6 92.9,83.2 "/>
<polygon fill="#FFFFFF" stroke="#000000" stroke-miterlimit="10" points="108.8,90.3 104.4,96.8 96,96.9 90.9,90.4 93.3,87.2 
	106.1,87.2 "/>
<path fill="#F7941E" stroke="#000000" stroke-miterlimit="10" d="M117.7,114.6c0.3,1.3,0.8,2.7,1.1,4.1l-12.1,0.1l-1.3-4.4
	L117.7,114.6z"/>
<polygon fill="#F7941E" stroke="#000000" stroke-miterlimit="10" points="92,114.8 92,119.7 81.1,119 82.4,114.5 "/>
<path stroke="#000000" stroke-miterlimit="10" d="M105.2,115.1c0.1,0.3,1.4,2.6,0.4,4.8c-1.3,2.9-5.3,3-6,3c-0.9,0-5.2,0-6.9-3.3
	c-0.1-0.1-1.3-2.6,0-5c1.8-3.3,6.7-2.7,7.2-2.6C100.6,112.1,103.7,112.6,105.2,115.1z"/>
<path fill="#FFFFFF" stroke="#000000" stroke-miterlimit="10" d="M102.2,115.9c0.7,1.1,0.5,2.5-0.1,3.5c-1.2,1.5-3.8,1.2-5.2,0
	c-0.8-0.7-1.6-2-1.1-3.2c0.4-1.1,2-1.4,2.6-1.5C98.8,114.6,101.2,114.3,102.2,115.9z"/>
<path fill="#ED1C24" stroke="#000000" stroke-miterlimit="10" d="M118.9,119.5c0,0,1.1,3.1,2.2,6.7c0.2,0.5,0.9,3.3,1.3,4.8
	c2.7,9.5,2.2,19.1,3.2,20c1.4,1.2,1.5,2.2,2,4.1c0.4,2.2,0.5,3.4,0.5,5.4c0,1,0.5,1.8,0.4,2.4c-0.2,1-1.8,1.4-2.7,1.6
	c-0.5,0.2-3.1,0.5-5,0.4c-2.1-0.1-4.6-1.1-4.6-1.1V163c0,0-0.2-2.5-0.7-3.7c-1.3-3.7-3.1-6.1-5.5-8.9c-7.5-8.6-8-13.1-9.7-13.6
	c0,0-3,4.6-11.3,14.7c-2.5,3.1-4.5,5.2-4.6,8.3c0,1.9,0.5,3.7-0.5,4.8c-0.2,0.2-0.7,0.5-3.5,0.8c-5,0.3-6.6-0.5-7-0.9
	c-0.5-0.3-1.4-1-1.5-1.9c0-0.9-0.2-1.5,0-2.5c0.4-2.5,0.2-3.3,1.5-5.5c0.5-1,1-2.4,1.5-3.5c1.2-2.5-0.2-9.8,1.3-16.7
	c0.8-3.8,0.1-6.9,1.3-8.1c2.1-2.1,3.5-6.6,3.5-6.6s9.9-0.4,10.9,0.2c2.7,1.9,2.4,3,7.5,3c4.4,0,6-3,7.2-3.4
	C110.7,118.5,118.9,119.5,118.9,119.5z"/>
<path stroke="#000000" stroke-miterlimit="10" d="M130,166.8c-0.1-1.8,0-3.3-0.8-3.7c-0.4-0.2-0.9,0-2.1,0.4c-1.3,0.4-2.7,0.9-4.1,1
	c-2.2,0.1-6.4-0.3-6.7,0c-1.2,1.4,1.3,5.6,3.2,8.4c2.7,4.3,3.5,4.3,3.9,6.5c0.3,2-0.2,2.3,0,6.7c0.2,3.1,0.5,4.1,0.8,4.4
	c0.3,0.8,0.9,1.6,3.7,3.8c2.9,2.3,4.3,3.4,5.6,3.8c0.3,0.1,4.6,1.3,7.6-1c0.4-0.4,1.4-1.1,1.6-2.2c0.1-0.4,0.3-1.9-2.1-4.8
	c-2.4-3.1-3.9-3.2-7.1-6.6c-1.2-1.3-1.8-2-2.2-3c-1-2.2-0.3-3.2-0.7-7.4C130.7,169.5,130.1,170,130,166.8z"/>
<path stroke="#000000" stroke-miterlimit="10" d="M82.2,170c1-1.9,2.6-5,1.6-5.9c-0.4-0.4-1.2,0-3.5,0.4c-2.5,0.4-5.3,0.9-7-0.5
	c-1.2-0.9-1.2-1.9-1.6-1.9c-1.4,0.1-1.9,7.9-2,9.4c-0.4,6.7,0.4,7.1-0.4,9.4c-0.7,1.6-1.3,1.8-7,7.7c-4.1,4.3-5,5.5-4.7,6.9
	c0.4,2,3.1,3.1,3.7,3.3c3.2,1.2,6.1-0.1,6.7-0.4c1.8-0.9,1.5-1.4,5.2-4.7c2.6-2.3,2.9-2.1,3.3-3c0.8-1.8,0.1-2.9,0.1-7.4
	c0-1.4,0-2.2,0.1-3C77.2,176.5,79.4,175.4,82.2,170z"/>
<path fill="#21409A" stroke="#000000" stroke-miterlimit="10" d="M68.8,78.8c0,0-1,1.1-3.8,3c-2.4,1.6-7.6,5.6-12,12.3
	c-4.2,6.4-3.5,9-8.8,15.8c-4.1,5.3-6.7,6.8-7.7,7.2c-4.1,2.1-8.7,2.3-10.9,2.3c-4.7,0-6.5-1.4-7.5-0.3c-1.8,1.9,1.1,8.6,5.6,12.7
	c2.3,2.1,5.7,3.7,12.4,6.9c3.6,1.8,3.2,1.4,4.3,2c6.3,3.7,5.6,7.8,10.3,11.1c4.1,2.7,4.6,3.4,12.9,3.3c4.9-0.1,7.9,3.4,8.7,2.2
	c0.2-0.2,0.4-0.3,1.2-1.9c0.9-1.9,1.4-3.2,2.2-5c0.8-1.6-1.4-7.8,0.5-15.9c0.9-3.6,2-7.4,3.3-10.3c2-4.5,0.4-1.2,2-4.5
	c1.1-2.5,2.5-11.1,3.4-12.9c2.2-4.8-3.5-13.9-4.6-15.7c-0.4-0.5-4.8-4.9-8.2-8.4C70.9,81.1,69.2,79.3,68.8,78.8z"/>
<path fill="#21409A" stroke="#000000" stroke-miterlimit="10" d="M85.7,157.3c0.4,0.4,9-3.2,14.5-2.9c8.2,0.4,14,4.4,14.8,3.4
	c0.8-1.1-3.1-3.5-7.6-10c-2.1-3-6.1-11-7-11.1c-0.8,0-4.4,6-8.1,10.6C88.4,152.2,85.2,156.9,85.7,157.3z"/>
<path fill="#E8B68A" stroke="#E8B68A" stroke-miterlimit="10" d="M98.5,73.6c0,0-0.3-5.5-0.8-8.8c0,0-2.9,1.4-10.2-1.3
	c-0.9-0.3-3.8-0.9-7.4-4.5c-1.6-1.6-1.9-3.8-2.3-5.4c-0.7-3.1,0.2-3.4,0.2-7.1c0,0,0.8-0.2-1.2-1.9c-0.2-0.2-1.5-0.2-1.9,0
	c-0.7,0.3-1.9,0.8-3.2,0.3c-2-0.5-2.7-2.5-3.2-3.7c-0.3-0.9-1.3-3.4,0-4.6c0.9-0.9,2.6-0.8,3.7-0.3c3.4,1.2,3.9,5.4,5,5.3
	c0.9-0.1-0.2-1.9,0.9-6.8c0.3-1.4,0.2-1.8,1.6-4.6c1.1-2,2.2-4.6,4.1-5.7c2-1.2,3.8-2.4,8.9-2.9c5.7-0.4,6.6-0.1,12.8-0.4
	c2.6-0.1,6.5-0.1,12.1,2.3c2.1,0.9,3.5,9.1,4.3,10.2c3,3.9,0,4.8,0.3,5.9l0,0c0.2,0.1,1.2-1.3,2.4-2.2c0.3-0.2,1.6-1.2,3.3-1.2
	c1.1,0,3.1,0.3,3.7,1.5c1.6,2.9-1.5,5.6-4.9,7.5c-3.6,1.9-2.1,10.3-3.6,13.3c-1.2,2.4-2.9,4.3-7,5.7c-4.9,1.8-9.5,2.2-11.5,1.1l0,0
	c-1.8,3.1-0.2,6.1-0.2,6.1c0,0.3,0,1,0,1.8c-0.4,0.3-1.2,0.9-2.3,1.2c-0.3,0.1-0.7,0.1-1.1,0.1C99.7,74.5,98.5,73.6,98.5,73.6z"/>
<path fill="none" stroke="#A97C50" stroke-miterlimit="10" d="M74.3,41.9c0.2-0.2-0.4-1.2-1.3-1.6c-1-0.4-2.2-0.3-2.3,0
	C70.7,40.8,73.9,42.3,74.3,41.9z"/>
<path fill="none" stroke="#A97C50" stroke-miterlimit="10" d="M124.7,42.2c-0.1-0.2,1-1.3,2.3-1.8c1.1-0.3,2.5-0.3,2.6,0
	C129.8,41,125,42.7,124.7,42.2z"/>
<g>
	<path fill="#FFFFFF" stroke="#000000" stroke-miterlimit="10" d="M95.4,43.6c-1,0.7-2-1-4.7-1c-2.5,0-3.6,1.4-4.4,0.8
		c-1-0.8-0.1-3.5,1-6.8c0.9-2.6,1.6-3.7,2.6-4.4c0.4-0.3,1.3-0.9,2.3-0.7c0.4,0.1,1.4,0.4,2.6,3.6C95,35.5,97.4,42.3,95.4,43.6z"/>
	<path fill="#3C2415" stroke="#000000" stroke-miterlimit="10" d="M93.9,41.7c1.4-2,0.5-4.4,0.4-4.7c-0.1-0.1-1.3-3.1-3.4-3.1
		c-2,0.1-3,2.6-3.2,3.1c-0.8,2,0.5,5.8,3.2,5.6C92.7,42.5,92.8,43.2,93.9,41.7z"/>
	<path fill="#603913" stroke="#000000" stroke-miterlimit="10" d="M90.8,42.6c1.2-0.1,1.6-0.3,1.6-1.6c0-0.7-0.3-2.3-1.5-2.3
		s-1.5,0.4-1.6,2C89.3,41.6,89.7,42.6,90.8,42.6z"/>
</g>
<g>
	<path fill="#FFFFFF" stroke="#000000" stroke-miterlimit="10" d="M115.2,43.3c-1,0.7-2-1-4.7-1c-2.5,0-3.6,1.4-4.4,0.8
		c-1-0.8-0.1-3.5,1-6.8c0.9-2.6,1.6-3.7,2.6-4.4c0.4-0.3,1.3-0.9,2.3-0.7c0.4,0.1,1.4,0.4,2.6,3.6C114.8,35.4,117.2,42.2,115.2,43.3
		z"/>
	<path fill="#3C2415" stroke="#000000" stroke-miterlimit="10" d="M113.7,41.6c1.4-2,0.5-4.4,0.4-4.7c-0.1-0.1-1.3-3.1-3.4-3.1
		c-2,0.1-3,2.6-3.2,3.1c-0.8,2,0.5,5.8,3.2,5.6C112.5,42.3,112.5,43.1,113.7,41.6z"/>
	<path fill="#603913" stroke="#000000" stroke-miterlimit="10" d="M110.6,42.3c1.2-0.1,1.6-0.3,1.6-1.6c0-0.7-0.3-2.3-1.5-2.3
		c-1.2,0-1.5,0.4-1.6,2C109.1,41.5,109.4,42.5,110.6,42.3z"/>
</g>
<path fill="none" stroke="#000000" stroke-miterlimit="10" d="M95.2,27c-1.8-0.5-5.2,0-7.7,3.1"/>
<path fill="none" stroke="#000000" stroke-miterlimit="10" d="M115.1,29.8c0-1.6-3.5-3-7.8-3"/>
<line fill="none" stroke="#000000" stroke-miterlimit="10" x1="93.4" y1="31.8" x2="93.4" y2="31.8"/>
<g>
	<path fill="none" stroke="#A97C50" stroke-miterlimit="10" d="M103.7,49c-0.2-0.1-1.4-1-3-0.4c-1.3,0.4-2.5,1.8-2.3,3.2
		c0.2,1.1,1.1,1.9,2,2.1c1.1,0.3,2.3,0,3.2-0.9"/>
</g>
<path fill="none" stroke="#BE1E2D" stroke-miterlimit="10" d="M117.7,55.5c-0.4-0.8-1.9-1.4-1.9-1.4s-1.2,1.5-2,2.6
	c-2.7,3.5-6.7,4.6-8,4.9c-2.2,0.4-3.8,0.3-5.5,0.1c-1.3-0.1-3.3-0.1-5.5-1.3c-1.2-0.7-2.4-1.2-4.2-2.4c-2-1.3-2.2-1.9-2.2-1.9
	c-1.3-1.3-1.6-1.5-1.6-1.5S86.2,55.4,86,56"/>
<path stroke="#000000" stroke-miterlimit="10" d="M127,33.1c0.4-1.6,1-2.9,1.2-5.6c0.1-2,0.3-4.5-0.3-7.8c-0.5-2.9-1.1-5.4-3.1-7.7
	c-1.5-1.6-3.3-2.6-4.2-3.1c-1.1-0.5-2-0.9-3.7-1.5c-1.6-0.5-2.9-0.9-2.6-0.7c0.4,0.5,3.1,3.4,3.4,7.9c0.1,0.9,0.2,2.9-1,4.4
	c-1.1,1.4-2.5,1.8-2.4,2.4c0.1,0.7,2.3,0.1,4.1,1.4c0.5,0.4,0.8,0.9,2,4.3c1.4,4.1,1.3,4.5,2.2,6.5c0.4,1,1.4,3.2,1.4,3.2l0,0
	C124,36.9,126.2,36.3,127,33.1z"/>
<path stroke="#000000" stroke-miterlimit="10" d="M109.3,3.2c-1.4-0.7-3.6-1.5-7.1-2.1C99.4,0.7,95.3,0,90.5,1.3
	c-2.2,0.5-9.2,2.4-12.6,8.3c-2.3,4.2-1.3,5.4-2.3,11.4c-0.2,1.3-5.8,3.1-3.8,11.8c0.2,1.1,0.8,2,1.1,2.6c1.1,2.1,3.3,5.5,4.5,5
	c1.1-0.3-0.2-3.6,1.2-8.3c0.3-1.2,1.3-4.1,3.8-6.5c2.1-2,4.3-2.9,5.6-3.3c2.4-0.9,3.4-0.7,10.3-1c8.4-0.4,8.1-0.7,10-0.3
	c2.3,0.3,2.9,0.4,5,0.3c1.8,0,3.2-1.9,3.5-2.5c1.6-3.2,0.4-6.6-0.1-8c-0.4-1.1-1.2-3-3-4.8C112.2,4.6,110.7,3.9,109.3,3.2z"/>
<g>
	<path fill="#FFFFFF" stroke="#000000" stroke-miterlimit="10" d="M155.5,64.2c4.4-2.9,1.8-17.2,8.9-18.4c3.9-0.7,4.6-1.6,4.6-1.9
		c0-0.1-4.7,0.3-4.7-1.1s4.9-1.6,4.9-1.4c0,0.2-4.9,0-4.9-1.4c0-1.2,5.4-0.8,5.4-0.8s-5.3-0.8-5.3-1.4c0-1,5.4-1.1,5.4-1.2
		s-5.2,0.3-5.3-0.3c-0.2-1.2,5.5-2.6,5.3-2.6c-0.1,0-3.6,1.8-4.5,0.8c-0.8-0.9,0.9-3.3,0.5-4.7c-0.2-0.8-1.9-1.1-2.4-0.3
		c-0.7,1.1-1.2,2.9-1.2,3.6c0,1.8-0.3,3.6-5.4,10.6c-8.7,12.3-12.8,14.6-11.8,17.6C146.2,64.2,152.4,66.2,155.5,64.2z"/>
	<path fill="none" stroke="#000000" stroke-miterlimit="10" d="M169.8,33.5c0,1.1,0.1,1.3,0.1,2.3c0,1,0,3.1,0,3.8
		c0,0.9-0.1,0.5-0.2,1.2c-0.1,1.6-0.4,2.6-0.7,2.6"/>
	<g>
		<g>
			<path d="M169.2,34.4c0,0.2,0,0.4,0,0.5c-0.1,0.3,0,0.3,0.2,0.3c0.2,0,0.2,0,0,0c-0.3-0.1-0.8,0-1.1,0.1c-1.1,0.3-2,0.2-3.1,0
				c0,0.3,0,0.7,0,1.1c0.7-0.2,1.3-0.4,2-0.8c0.5-0.2,1.4-0.7,2-0.7c-0.2-0.1-0.3-0.2-0.5-0.4c0.1,0.1,0.1,0.4,0.1,0.5
				c0.1-0.1,0.2-0.3,0.2-0.4c-0.1,0-0.8,0.1-1,0.2c-0.5,0.2-1,0.4-1.5,0.3c0,0.3,0,0.8,0,1.1c0.1,0,0.4,0.4,0.7,0.5s0.4,0.2,0.8,0.1
				c0.7-0.2,0.8-1.3,1.3-1.4c0.7-0.2,0.4-1.3-0.3-1.1c-0.5,0.1-1.1,0.8-1.3,1.3c0,0.1-0.1,0.1-0.1,0.2c0.2,0.1,0.2,0.1,0.1,0
				c-0.1-0.1-0.2-0.2-0.3-0.3c-0.2-0.2-0.4-0.3-0.8-0.3c-0.7,0-0.7,1.1,0,1.1c0.5,0,1-0.1,1.4-0.3c0.4-0.2,0.9-0.2,1.4-0.3
				c0.7-0.2,0.7-0.9,0.4-1.4c-0.1-0.2-0.2-0.4-0.5-0.4c-0.7,0-1.3,0.3-2,0.5c-0.8,0.3-1.5,0.5-2.3,0.9c-0.4,0.1-0.5,1,0,1.1
				c0.7,0.1,1.3,0.2,2,0.2c0.8,0,1.5-0.3,2.3-0.3c1.1,0,1.1-0.9,1-1.9C170.2,33.7,169.1,33.7,169.2,34.4L169.2,34.4z"/>
		</g>
	</g>
	<g>
		<g>
			<path d="M169.2,36.8c0,0.5,0,1-0.1,1.5c0.3-0.1,0.7-0.2,1-0.3c-0.3-0.5-0.9-0.8-1.5-0.8c-1.1-0.1-2.1-0.3-3.1-0.5
				c0.1,0.3,0.1,0.7,0.2,0.9c0.4-0.4,1.2-0.3,1.6-0.3c0.3,0,1.4-0.1,1.6,0c-0.1-0.1-0.2-0.3-0.2-0.4c0,0.5,0,1.1,0,1.6
				c0.3,0,0.8-0.1,1.1-0.1c0-0.2,0-0.9-0.1-1.2C169.6,37,169.4,36.9,169.2,36.8c-0.4,0.1-0.9,0-1.4,0s-1.1,0.1-1.6,0
				c-0.7-0.1-1,0.9-0.3,1.1c0.5,0.1,1.1,0.1,1.8,0.1c0.5,0,1.2,0,1.8,0c-0.1-0.1-0.3-0.2-0.4-0.2c0,0,0,0.7,0,1
				c0.1,0.7,1,0.4,1.1-0.1c0.1-0.7,0.3-2-0.4-2.2c-0.3-0.1-0.8,0-1.1,0c-0.5,0-1,0-1.5,0c-0.7,0-1.3,0.1-1.8,0.7
				c-0.2,0.3-0.2,0.8,0.2,0.9c0.7,0.1,1.3,0.3,2,0.4c0.4,0.1,1.8,0,2,0.4c0.3,0.4,1,0.2,1-0.3s0-1,0.1-1.5
				C170.3,36.1,169.2,36.1,169.2,36.8L169.2,36.8z"/>
		</g>
	</g>
	<g>
		<g>
			<path d="M168.3,36.6c-0.3,0-0.9,0-1.2,0.1l-0.1,0.1c-0.1,0.1-0.3,0.1-0.4,0.1c-0.2,0-0.5,0-0.8,0c0.1,0.1,0.1,0.1,0.2,0.2l0,0
				c0,0.1-0.1,0.2-0.1,0.3l0,0c0.3-0.2,0-0.7-0.3-0.4l0,0c-0.1,0.1-0.1,0.2-0.1,0.3l0,0c0,0.1,0.1,0.2,0.2,0.2
				c0.4,0.1,1.1,0.1,1.4,0c0.2,0,0.2-0.2,0.4-0.2c0.2-0.1,0.7,0,1,0C168.6,37.2,168.6,36.6,168.3,36.6L168.3,36.6z"/>
		</g>
	</g>
	<g>
		<g>
			<path d="M169.6,37.3c-0.1,0-0.2,0-0.3,0c-0.3,0-0.3,0.5,0,0.5c0.1,0,0.2,0,0.3,0C169.9,37.8,169.9,37.3,169.6,37.3L169.6,37.3z"
				/>
		</g>
	</g>
	<g>
		<g>
			<path d="M169.7,38.7c-1.6,0.1-3.3,0.1-4.9,0.2c-0.5,0-0.8,1-0.1,1.1c0.9,0.2,1.6,0.3,2.5,0.5c0.7,0.1,1.4,0.4,2.1,0.4
				c0.2,0,0.3-0.1,0.4-0.2c0.2-0.4,0.4-1.3-0.1-1.6c-0.3-0.2-1,0-1.3,0c-0.7,0-1.3,0-2.1,0c-0.5,0-1.4-0.1-1.4,0.8
				c0.1,1,1.3,0.8,2,0.9c0.8,0.1,1.8,0.8,2.5,0.2c0.4-0.3,0.5-1.2,0.1-1.5c-1.1-1-2.2,1.6-0.4,1.3c0.5-0.1,0.5-0.8,0.1-1
				c-0.2-0.1-0.3-0.2-0.7-0.2c-0.7,0-0.7,1.1,0,1.1h0.1c0-0.3,0.1-0.7,0.1-1c0.1,0.1,0.2,0.1,0.4,0.2c0,0.2-0.1,0.3-0.1,0.5
				c0,0.1-1.5-0.5-1.9-0.7c-0.2,0-0.4-0.1-0.7-0.1c-0.1,0-0.2,0-0.3,0c-0.5,0.4-0.7,0.7-0.2,0.7c0.3,0.2,1.2,0.1,1.6,0.1
				c0.3,0,1.4-0.1,1.4-0.1c-0.1-0.1-0.2-0.3-0.2-0.4c0,0.2,0,0.3-0.1,0.5c0.1-0.1,0.3-0.2,0.4-0.2c-0.8,0-1.5-0.3-2.2-0.4
				c-0.8-0.1-1.4-0.3-2.2-0.4c0,0.3-0.1,0.8-0.1,1.1c1.6-0.1,3.3-0.1,4.9-0.2C170.5,39.7,170.5,38.6,169.7,38.7L169.7,38.7z"/>
		</g>
	</g>
	<g>
		<g>
			<path d="M169.5,40.8c-1.4,0-3.4-0.1-4.6,0.7c-0.9,0.5-0.3,1.3,0.3,1.8c1,0.5,2.4,1.1,3.6,0.9c1-0.2,1.1-1.5,0.8-2.4
				c-0.1-0.2-0.2-0.3-0.3-0.3c-0.8-0.1-1.2,0.7-1.3,1.3c0,0.1-0.1,0.2-0.1,0.3c0.3,0,0.3,0,0.1-0.1c0-0.2-0.3-0.4-0.4-0.5
				c-0.2-0.3-0.4-0.7-0.8-0.9c-0.7-0.4-1.5,0-1.5,0.8c0.1,1.2,2,1.3,2.9,1.5c0.9,0.1,1.6-0.4,1.3-1.4c-0.1-0.3-0.2-0.8-0.4-1
				c-0.3-0.3-0.4-0.2-0.9-0.2c-0.7,0.1-1.2,0-1.9,0.1c-0.4,0.1-1,0.3-1,0.9c0,0.4,0.1,0.7,0.4,0.9c0.3,0.2,0.8,0.1,1.1,0.2
				c0.5,0.1,1,0.3,1.4,0.5c0.3,0.1,0.5,0.1,0.8-0.2c0.9-1.2-1.3-1.8-2.1-1.9c-0.7-0.1-1,1-0.3,1.1c0.1,0,1.3,0.4,1.4,0.3
				c0.2-0.1,0.5-0.1,0.8-0.2c-0.4-0.2-0.9-0.4-1.4-0.5c-0.4-0.1-1-0.1-1.4-0.3c0.1,0.1,0.2,0.2,0.3,0.3c-0.2,0.1-0.2,0.1,0.1,0.1
				c0.1,0,0.3,0,0.4,0c0.3,0,0.5,0,0.8,0c0.2,0,0.4-0.1,0.7-0.2c0.3-0.1,0.3,0-0.1-0.1c-0.1-0.1-0.2-0.2-0.3-0.3
				c0.1,0.2,0.3,0.5,0.3,0.8c0.1,0.2,0.1,0.2-0.2,0c-0.2-0.1-0.5-0.1-0.9-0.2c-0.1,0-1.1-0.2-1.1-0.1c0,0,0.2,0.3,0.3,0.3
				c0.2,0.3,0.4,0.7,0.7,0.9c0.3,0.4,0.9,0.8,1.3,0.3c0.2-0.2,0.3-0.4,0.4-0.7c0.1-0.1,0.1-0.3,0.2-0.4c0-0.1,0.1-0.2,0.1-0.2
				c0.1-0.2,0.1-0.2-0.2-0.1c-0.1-0.1-0.2-0.2-0.3-0.3c0.1,0.2,0.1,1,0,1c0,0-0.7-0.1-0.8-0.1c-0.8-0.1-1.3-0.4-2-0.7
				c-0.2-0.2-0.3-0.2-0.2,0c0,0.2,0.1,0.2,0.3,0c0.3,0,0.7-0.2,1-0.2c0.9-0.1,1.8-0.1,2.6-0.1C170.2,41.9,170.3,40.8,169.5,40.8
				L169.5,40.8z"/>
		</g>
	</g>
</g>
<path fill="#FFFFFF" stroke="#000000" stroke-miterlimit="10" d="M43.8,58.7c-4.5-2.7-2.4-17.2-9.7-18.1c-3.9-0.5-4.7-1.5-4.7-1.8
	c0-0.1,4.7,0.2,4.6-1.3c-0.1-1.4-5-1.4-5-1.3c0,0.2,4.9-0.2,4.9-1.6c0-1.2-5.4-0.5-5.4-0.7c0,0,5.3-1,5.3-1.6c0-1-5.5-0.9-5.5-1
	c0-0.1,5.2,0.1,5.3-0.5c0.2-1.2-5.5-2.4-5.4-2.4c0.1,0,3.7,1.5,4.5,0.5c0.8-0.9-1-3.3-0.8-4.6c0.1-0.8,1.9-1.2,2.3-0.3
	c0.7,1.1,1.3,2.7,1.3,3.5c0,1.8,0.4,3.6,5.8,10.4C50.5,49.8,54.7,52,53.9,55C53,58.4,46.8,60.6,43.8,58.7z"/>
<path fill="none" stroke="#000000" stroke-miterlimit="10" d="M28.3,28.5c0,1.1,0,2.1,0,3.1c0,1,0.1,1.9,0.1,2.6
	c0.1,0.9,0.1,1.5,0.2,2.2c0.2,1.5,0.4,2.5,0.8,2.5"/>
<g>
	<g>
		<path d="M28.5,29.4c0,0.3-0.1,1.1,0.1,1.5c0.2,0.3,0.4,0.1,0.8,0.1c0.5,0,1,0.2,1.5,0.2s1.1-0.1,1.6-0.3c0.2-0.1,0.2-0.4,0-0.5
			c-0.7-0.2-1.3-0.5-1.9-0.8c-0.4-0.2-1.1-0.5-1.5-0.4c-0.1,0-0.2,0.1-0.2,0.2c-0.1,0.4-0.2,1,0.3,1.1c0.2,0.1,0.4,0,0.7,0.1
			c0.2,0,0.4,0.1,0.5,0.2c0.3,0.1,0.7,0.2,1.1,0.2c0.3,0,0.3-0.4,0.1-0.5c-0.7-0.3-1.4-0.7-2.2-0.8c-0.3,0-0.5,0.4-0.1,0.5
			c0.8,0.1,1.4,0.4,2.2,0.8c0-0.2,0-0.3,0.1-0.5c-0.5,0.1-1-0.2-1.5-0.4c-0.1,0-0.3-0.1-0.4-0.1c-0.2-0.1-0.2,0-0.1,0.1
			c0-0.2,0-0.3,0-0.5c-0.2,0.1-0.3,0.1-0.4,0.2c0.5,0,1.3,0.4,1.8,0.5c0.5,0.2,1,0.4,1.5,0.7c0-0.2,0-0.3,0-0.5
			c-0.9,0.3-1.8,0.3-2.6,0.1c-0.2-0.1-0.4,0-0.7-0.1c-0.3,0-0.1,0.1-0.1-0.1c0-0.3,0-0.7,0-0.9C29.1,29.1,28.5,29.1,28.5,29.4
			L28.5,29.4z"/>
	</g>
</g>
<g>
	<g>
		<path d="M28.6,32.3c0,0.4,0.1,1,0.1,1.4c0,0.2,0.3,0.4,0.5,0.1c0.2-0.4,1.3-0.4,1.8-0.5c0.5-0.1,1.1-0.3,1.6-0.4
			c0.2-0.1,0.2-0.3,0.1-0.4c-0.4-0.5-1.2-0.4-1.9-0.4c-0.4,0-1.6-0.2-1.9,0.3c-0.1,0.3,0.1,0.8,0.5,0.9c0.4,0,0.9-0.1,1.3-0.1
			s0.9,0,1.3-0.1c0.3-0.1,0.2-0.7-0.1-0.5c-0.5,0.1-1,0.1-1.5,0.1c-0.2,0-0.3,0-0.5,0c-0.1,0-0.5,0-0.4,0.1c0.8,0.1,2.2-0.4,2.9,0.2
			c0-0.1,0.1-0.3,0.1-0.4c-0.8,0.2-1.6,0.4-2.4,0.5c-0.5,0.1-1,0.1-1.2,0.7c0.2,0,0.3,0.1,0.5,0.1c0-0.4-0.1-1-0.1-1.4
			C29.2,31.8,28.6,31.8,28.6,32.3L28.6,32.3z"/>
	</g>
</g>
<g>
	<g>
		<path d="M30.3,32.7c0.2,0,0.7-0.1,0.9,0c0.1,0,0.2,0.2,0.3,0.2c0.2,0.1,0.4,0,0.7,0c0.2,0,0.5,0,0.9-0.1c0.1,0,0.2-0.1,0.2-0.2
			l0,0c0-0.1-0.1-0.2-0.1-0.2l0,0c-0.3-0.2-0.5,0.3-0.3,0.4l0,0c0-0.1-0.1-0.1-0.1-0.2l0,0c0.1-0.1,0.1-0.2,0.2-0.2
			c-0.2,0.1-0.5,0.1-0.8,0c-0.2,0-0.3,0-0.5-0.1l-0.1-0.1c-0.3-0.1-0.8,0-1.2,0C30,32.1,30,32.7,30.3,32.7L30.3,32.7z"/>
	</g>
</g>
<g>
	<g>
		<path d="M29.1,33.4c0.1,0,0.2,0,0.3,0c0.3,0,0.3-0.5,0-0.5c-0.1,0-0.2,0-0.3,0C28.7,32.8,28.7,33.4,29.1,33.4L29.1,33.4z"/>
	</g>
</g>
<g>
	<g>
		<path d="M29,35c1.5,0,3,0,4.5,0c0-0.2,0-0.3-0.1-0.5c-0.9,0.2-1.9,0.5-2.7,0.8c-0.2,0.1-0.4,0.1-0.7,0.2c-0.1,0-0.2,0-0.3,0.1
			c-0.1,0.1-0.1,0.1-0.1-0.1c-0.4-0.3,0.7-0.1,0.9-0.1c0.4,0,0.9,0,1.3-0.1c0,0,0.7,0,0.7-0.1c0-0.1-0.5-0.1-0.7-0.1
			c-0.3,0-0.5,0.1-0.9,0.2c-0.1,0.1-0.3,0.2-0.4,0.2c-0.2,0.1-0.3,0.1-0.5-0.1c-0.3,0-0.4-0.1-0.2-0.2c0,0.2,0,0.3,0.1,0.5
			c0.1,0,0.1-0.1,0.2-0.1c0.3,0,0.3-0.5,0-0.5c-0.2,0-0.3,0-0.4,0.1c-0.1,0.1-0.2,0.4,0.1,0.5c0.5,0.1,0.9-0.4,0.3-0.8
			c-0.4-0.3-0.8,0-0.9,0.4c-0.1,0.9,0.8,1,1.4,0.8c0.3-0.1,0.5-0.2,0.8-0.3c0.3-0.1,0.7-0.1,1-0.1c0.2,0,0.5-0.1,0.8-0.3
			c0.3-0.7-0.5-0.7-1-0.7c-0.8,0-1.5,0.1-2.4,0.1C29.4,34.7,29.1,34.6,29,35c-0.2,0.2,0.1,1,0.4,1.1c0.4,0.1,1.4-0.3,1.9-0.4
			c0.8-0.2,1.5-0.4,2.3-0.7c0.3-0.1,0.2-0.5-0.1-0.5c-1.5,0-3,0-4.5,0C28.6,34.4,28.6,35,29,35L29,35z"/>
	</g>
</g>
<g>
	<g>
		<path d="M29.2,37.3c0.9,0,1.8,0,2.5,0c0.4,0,0.9,0.1,1.3,0.2c0.2,0.1,0.2,0,0-0.1c-0.2,0.1-0.4,0.2-0.8,0.3
			c-0.3,0.1-0.8,0.2-1.1,0.3c-0.1,0-1.8,0.3-1.4-0.3c0.1-0.2,1.3-0.2,1.5-0.2s1.5,0,0.5,0.2c-0.3,0.1-0.5,0.1-0.9,0.1
			c-0.4,0.1-1.2,0.2-0.3,0c0.3-0.1,0.7-0.1,1-0.2c0.2,0.1,0.4,0,0.7-0.1c0,0,0,0-0.1,0c-0.4,0-0.8,0.1-1.2,0.2
			c-0.2,0-0.4,0.1-0.5,0.2c0,0.2,0.2,0.2,0.3,0.1c0.3,0,0.8-0.2,1.1-0.2c0.3,0,0.2-0.5-0.1-0.5c-0.5,0.1-2.4,0.2-1.6,1.2
			c0.1,0.1,0.2,0.1,0.2,0.1c0.8-0.2,1.5-0.3,2.3-0.5C32.8,38,33,38,33,37.7c0.1-0.8-1.1-0.7-1.5-0.5s-2.2,0-2,0.9
			c0.2,0.9,2,0.3,2.4,0.2c0.4-0.1,1.4-0.4,0.9-1.1c-0.2-0.3-0.8-0.3-1.2-0.3c-0.7,0-1.2,0.2-1.8,0.2c-0.8,0-0.8,1-0.3,1.4
			c0.5,0.5,2.1,0,2.7-0.1c0.3-0.1,2.1-0.5,1.3-1.2c-0.3-0.3-1.2-0.3-1.6-0.3c-0.9-0.1-1.9-0.1-2.7,0C28.9,36.8,28.9,37.3,29.2,37.3
			L29.2,37.3z"/>
	</g>
</g>
<path fill="#F7941E" stroke="#000000" stroke-miterlimit="10" d="M106.7,71.9c0-0.1,0,0.3-0.9-0.1c-0.8-0.4-0.7-0.3-0.7-0.3
	s0,1.1-0.3,2.1c-0.4,1.3-2.2,1.9-2.9,2s-3.2,0.1-4.1-1c-0.7-0.9-0.7-3-0.7-3H95c0,0,0.5,3.2,1.5,4.3c1.2,1.3,2.6,1.5,3.6,1.6
	c1,0.1,3.2,0.3,4.8-1.1C106.6,75,107.3,72.4,106.7,71.9z"/>
</svg>
