<?xml version="1.0" encoding="utf-8"?>
<!-- Generator: Adobe Illustrator 18.1.0, SVG Export Plug-In . SVG Version: 6.00 Build 0)  -->
<!DOCTYPE svg PUBLIC "-//W3C//DTD SVG 1.1//EN" "http://www.w3.org/Graphics/SVG/1.1/DTD/svg11.dtd">
<svg version="1.1" id="Layer_1" xmlns="http://www.w3.org/2000/svg" xmlns:xlink="http://www.w3.org/1999/xlink" x="0px" y="0px"
	 viewBox="0 0 200 200" enable-background="new 0 0 200 200" xml:space="preserve">
<path fill="#ED1C24" stroke="#000000" stroke-miterlimit="10" d="M93.5,71.8c-1.3-1-3.1-0.5-5.9,0c-1.3,0.3-3.2,0.7-5.4,1.9
	c-3.3,1.8-4.9,3.7-8,6.2c-4.3,3.3-7.5,7.1-11.6,10.3c-0.1,0-3.5,1.9-7.4,5.1c-1.1,0.9-2.2,1.9-2.6,3.5c-0.4,1.8,0.2,4,1.3,4.3
	c0.7,0.2,1.1-0.7,3.2-1.9c1.4-0.9,2.6-1.5,4.1-1.4c1.5,0.1,1.6,0.9,2.7,0.9c2.1,0.1,4.9-3.1,6.5-4.2c1.4-1,3.4-1.9,5.7-4.2
	c1.1-1.1,1.6-1.4,2.2-1.9c1-0.9,2.7-1.9,4.7,1.1c1.2,2,0.8,6.3,0.8,8.7c0,1.6,0.1,5.7-0.7,8.7c0,0-0.1,0.7-0.8,3.1l-0.4,1.9
	c0.3,0.7,2.5-0.1,5.9,0c3.4,0.1,3.8,0.8,5.6,0.3c1.9-0.4,2-1.3,4.2-2.1c1.9-0.7,4.2-0.5,4.7-0.4c1.9,0.4,2.1,1,4.3,1.8
	c0.7,0.2,0.3,0,2,0.2c2.9,0.4,4.6,0.4,6.3,0.2c1.5-0.2,1.8-0.4,1.9-0.5c0.8-1-0.2-2.6-0.9-5.9c-0.2-1-1-3.5-0.1-6.5
	c0.3-1.2,0.3-3,1.9-5.8c1.8-3.4,2.4-4.3,3.4-5.3c0.7-0.7,0,0,2.7-2.7c2.7-2.7,2.5-2.3,4-4c1.3-1.4,4.8-5.3,5.6-6.6
	c0.5-1,8.5-13.6,10.1-15.5c0.9-1,6.2-10.3,6.4-10.8c1.3-2.2-4.5-0.5-3.8-0.7c3.2-0.2-1-1.4-3.6-2.2c-2.2-0.7-0.8-5.5-1.5-3.6
	c-1,2.6-3.6,7.1-6,10.9c-2.1,3.1-1.6,2-4.4,6.4c-2.4,3.8-5.8,7.5-7,8.7c-3.2,3.2-4.8,4.7-7.8,3.4c-1.2-0.5-2.5-0.9-5.4-1.4
	c-3.4-0.7-4-0.4-4.3-0.2c-1.2,0.9-0.2,2.5-1.4,4.1c-1.3,1.5-3.6,1.6-4.4,1.6c-0.9,0-2.7,0.1-4.1-1.1C94.1,74.7,94.9,72.9,93.5,71.8z
	"/>
<polygon stroke="#000000" stroke-miterlimit="10" points="94.9,83.3 87.9,90.5 94.9,100.7 109.2,100.7 116.2,90.7 109,83.3 "/>
<polygon fill="#FFFFFF" stroke="#000000" stroke-miterlimit="10" points="93,90.5 97.4,97 105.9,97 111,90.5 108.6,87.3 95.8,87.3 
	"/>
<path fill="#FFFFFF" stroke="#000000" stroke-miterlimit="10" d="M54.8,103.2c-0.3,1.2,1.2,3.4,3.8,6.2c5.8,5.8,6.7,5.1,9.1,8.1
	c2.4,3,2.9,5.3,6.2,7.6c1.4,1,2.4,1.3,3.3,1.1c1.8-0.5,2.4-3.2,2.7-4.8c0.4-1.9,0.9-4.1-0.3-5.7c-1-1.3-2.5-1.6-3.7-1.9
	c-2.5-0.5-3.2,0.3-4.4,0c-3.8-1.1-2.1-10.8-6.7-13c-1.9-0.9-4-0.8-4.9-0.4S55.4,101.5,54.8,103.2z"/>
<path fill="#FFFFFF" stroke="#000000" stroke-miterlimit="10" d="M140.9,45.7c-1.6-4.2,8.7-7.2,8.7-12.3c0-2.5-2.2-3.3-1.8-6.4
	c0.4-3,3-4.6,3.2-4.8c2.3-1.4,5.9-1.9,7.6-0.1c1,1.1,0.8,2.7,0.7,4c-0.4,3.4-2,4.5-3.6,7.9c-0.8,1.5-0.3,1-3.4,11.3
	c-1,3.3-1.4,4.7-2.9,5.3c-2,0.8-4.8-0.1-5.5-0.5C143.2,49.4,141.7,47.6,140.9,45.7z"/>
<path fill="#F7941E" stroke="#000000" stroke-miterlimit="10" d="M82,115c-0.3,1.3-0.8,2.7-1.1,4.1H93l1.3-4.4L82,115z"/>
<polygon fill="#F7941E" stroke="#000000" stroke-miterlimit="10" points="107.9,114.8 107.9,119.7 118.7,119.1 117.5,114.6 "/>
<path stroke="#000000" stroke-miterlimit="10" d="M94.7,115.3c-0.1,0.3-1.4,2.6-0.3,4.8c1.3,2.9,5.4,3,6.2,3c0.9,0,5.2,0,6.8-3.3
	c0.1-0.1,1.3-2.6,0-5.1c-1.8-3.3-6.7-2.6-7.2-2.6C99.2,112.2,96.2,112.7,94.7,115.3z"/>
<path fill="#FFFFFF" stroke="#000000" stroke-miterlimit="10" d="M97.6,116.1c-0.7,1.1-0.5,2.5,0.2,3.5c1.2,1.5,3.8,1.2,5.2,0
	c0.8-0.7,1.5-2,1.1-3.2c-0.4-1.1-2-1.4-2.6-1.4C100.9,114.9,98.7,114.4,97.6,116.1z"/>
<path fill="#ED1C24" stroke="#000000" stroke-miterlimit="10" d="M80.9,119.7c0,0-1.1,3.1-2.1,6.7c-0.2,0.5-0.9,3.3-1.3,4.8
	c-2.7,9.6-2.1,19.1-3.1,20.1c-1.4,1.3-1.5,2.2-2,4.1c-0.4,2.2-0.4,3.4-0.5,5.4c0,1-0.5,1.8-0.3,2.4c0.2,1,1.8,1.4,2.7,1.6
	c0.5,0.2,3.1,0.5,5.1,0.4c2.1-0.1,4.6-1.1,4.6-1.1v-0.8c0,0,0.2-2.5,0.7-3.7c1.3-3.7,3.1-6.2,5.4-8.9c7.5-8.6,7.9-13.2,9.6-13.7
	c0,0,3.1,4.6,11.4,14.7c2.5,3.1,4.5,5.2,4.6,8.3c0,1.9-0.5,3.7,0.5,4.8c0.2,0.2,0.7,0.5,3.5,0.8c5.1,0.3,6.6-0.7,7-0.9
	c0.5-0.3,1.4-1,1.4-1.9c0-0.9,0.2-1.5,0-2.5c-0.4-2.5-0.2-3.2-1.5-5.5c-0.5-1-1-2.3-1.5-3.5c-1.2-2.5,0.1-9.8-1.4-16.7
	c-0.9-3.8-0.1-6.9-1.4-8.1c-2.1-2.1-3.6-6.6-3.6-6.6s-9.9-0.4-10.9,0.3c-2.7,2-2.3,3.1-7.5,3.1c-4.4,0-6.2-3-7.4-3.3
	C89.2,118.7,80.9,119.7,80.9,119.7z"/>
<path stroke="#000000" stroke-miterlimit="10" d="M70.2,167.2c0-1.8-0.1-3.3,0.8-3.7c0.4-0.2,0.9,0,2.1,0.3c1.3,0.4,2.7,0.9,4.1,0.9
	c2.2,0.1,6.4-0.4,6.7,0c1.2,1.4-1.3,5.6-3.2,8.6c-2.6,4.3-3.5,4.4-3.8,6.5c-0.3,2,0.2,2.3,0,6.7c-0.2,3.2-0.5,4.1-0.8,4.4
	c-0.3,0.8-0.9,1.6-3.7,3.8c-2.9,2.3-4.3,3.5-5.6,3.8c-0.3,0.1-4.6,1.4-7.6-0.9c-0.5-0.3-1.4-1.1-1.6-2.2c-0.1-0.4-0.3-1.9,2.1-4.8
	c2.4-3.1,4-3.2,7-6.7c1.2-1.3,1.8-2,2.2-3c1-2.2,0.2-3.2,0.5-7.4C69.5,169.9,70.2,170.6,70.2,167.2z"/>
<path stroke="#000000" stroke-miterlimit="10" d="M118.1,170.1c-1-1.9-2.6-5.1-1.6-5.9c0.4-0.4,1.2,0,3.5,0.3c2.5,0.4,5.3,0.8,7-0.5
	c1.2-0.9,1.2-1.9,1.6-1.9c1.4,0.1,2,7.8,2.1,9.4c0.4,6.7-0.4,7.1,0.5,9.4c0.7,1.6,1.3,1.8,7,7.6c4.2,4.2,5.1,5.5,4.8,6.8
	c-0.3,2.1-3.1,3.1-3.7,3.3c-3.2,1.2-6.2-0.1-6.7-0.3c-1.8-0.9-1.5-1.4-5.2-4.6c-2.6-2.3-2.9-2.1-3.3-3c-0.9-1.8-0.1-2.9-0.2-7.4
	c0-1.4,0-2.2-0.2-3C123.1,176.6,120.8,175.5,118.1,170.1z"/>
<path fill="#21409A" stroke="#000000" stroke-miterlimit="10" d="M131,79.2c0,0,1,1.1,4,3c2.5,1.5,7.6,5.5,12.1,12.2
	c4.2,6.3,3.6,8.9,8.9,15.7c4.1,5.3,6.8,6.7,7.8,7.2c4.2,2.1,8.7,2.3,11,2.2c4.7-0.1,6.5-1.4,7.4-0.3c1.8,1.9-1,8.6-5.6,12.7
	c-2.3,2.1-5.7,3.7-12.4,7c-3.5,1.8-3.2,1.4-4.3,2.1c-6.3,3.8-5.5,7.9-10.2,11.1c-4.1,2.7-4.6,3.4-13,3.3c-4.9,0-7.8,3.4-8.7,2.2
	c-0.2-0.2-0.4-0.3-1.2-1.8c-0.9-1.9-1.4-3.2-2.3-5.1c-0.8-1.6,1.3-7.8-0.7-15.9c-0.9-3.6-2-7.4-3.3-10.3c-2.1-4.5-0.5-1.1-2.1-4.5
	c-1.2-2.5-2.6-11.1-3.5-13c-2.2-4.8,3.4-14.1,4.5-15.8c0.4-0.5,4.8-5.1,8.2-8.6C129,81.5,130.6,79.6,131,79.2z"/>
<path fill="#21409A" stroke="#000000" stroke-miterlimit="10" d="M114.6,157.4c-0.4,0.4-9-3.1-14.5-2.7c-8.2,0.4-14.1,4.5-14.7,3.5
	c-0.8-1.1,3.1-3.5,7.5-10c2.1-3.1,6-11.1,7-11.1c0.8,0,4.5,6,8.2,10.7C111.8,152.2,114.9,156.9,114.6,157.4z"/>
<path fill="#21409A" stroke="#000000" stroke-miterlimit="10" d="M72,154.1c-2.2,2.3-4.8-3.1-10.2-5.1c-5.3-1.9-6.6,1-11.1-0.5
	c-6.5-2.2-4.8-8.5-12.4-13c-1.3-0.8-5.2-2-13-4.4c-6.5-2.1-7.4-2.1-7.8-3.2c-1.4-3.6,8.6-7.8,18.6-20.8c5.7-7.5,5.2-9.6,11-15.2
	c3.7-3.6,7.1-5.8,13.9-10.2c5.4-3.5,9.2-5.5,13.9-6.8c2.7-0.8,8.1-1.1,8.1-1.1s-2.5,2.4-7.8,6.3c-7.6,5.7-6.4,5.7-12.2,10
	c-6.6,4.7-9.8,5.8-10.2,9.1c-0.2,1.6,0.4,3.1,1.4,5.1c1.6,3.3,3.3,4.1,8.1,8.7c4,3.8,5.9,5.7,7,7.4c1.5,2.2,2.3,4.1,4.6,5.2
	s4.7-0.3,4.4,1.1c-0.3,2.1-2.9,6.9-3.1,16.5c0,2.3-0.2,4.7-0.8,7.5C74.5,152.2,73.4,152.7,72,154.1z"/>
<g>
	<path fill="#21409A" stroke="#000000" stroke-miterlimit="10" d="M80.9,89.6c-2-1.4-3.8,2.2-8.9,5.7c-3.8,2.6-6.6,3.2-6.6,4.5
		c0,0.9,0,0.9,1.1,2.5c2,3.1,1.1,8.5,4.1,11c2,1.8,5.2-0.8,7.8,1.3c2.4,1.9,2.7,4.6,3.5,4.5c0.7-0.1,0.9-2.4,1-4.4
		c0.3-3,1.4-5.1,1.9-6.8c0.5-3,0.4-5.5,0.2-6.5c-0.2-0.9-0.1-4.9-0.9-7.6C83.3,90.7,81.8,90.2,80.9,89.6z"/>
</g>
<path fill="#E8B68A" stroke="#E8B68A" stroke-miterlimit="10" d="M103.2,73.7c0,0,0.3-5.5,0.7-8.8c0,0,2.9,1.4,10.2-1.4
	c0.9-0.3,3.8-0.9,7.4-4.5c1.6-1.6,1.9-3.8,2.2-5.4c0.7-3.1-0.2-3.4-0.3-7.1c0,0-0.8-0.2,1.2-1.9c0.2-0.2,1.5-0.2,1.9,0
	c0.7,0.3,1.9,0.8,3.2,0.3c2-0.5,2.6-2.6,3.1-3.7c0.3-0.9,1.2-3.4,0-4.6c-0.9-0.9-2.6-0.7-3.7-0.3c-3.4,1.2-3.8,5.5-4.9,5.3
	c-0.9-0.1,0.2-1.9-1-6.8c-0.3-1.4-0.2-1.8-1.8-4.6c-1.1-2-2.3-4.5-4.1-5.7c-2-1.2-3.8-2.4-9-2.7c-5.7-0.4-6.6-0.1-12.9-0.3
	c-2.6-0.1-6.5-0.1-12.1,2.4c-2.1,1-3.4,9.1-4.3,10.2c-2.9,4,0,4.8-0.2,5.9l0,0c-0.2,0.1-1.2-1.3-2.4-2.2c-0.3-0.2-1.6-1.2-3.3-1.2
	c-1.1,0-3.1,0.3-3.7,1.5c-1.6,2.9,1.5,5.6,4.9,7.5c3.6,1.9,2.2,10.3,3.7,13.3c1.2,2.4,2.9,4.2,7,5.7c4.9,1.8,9.6,2.1,11.5,1l0,0
	c1.9,3.1,0.3,6.2,0.3,6.2c0,0.3,0,1,0,1.8c0.4,0.3,1.2,0.9,2.3,1.1c0.3,0.1,0.7,0.1,1.1,0.1C102,74.7,103.2,73.7,103.2,73.7z"/>
<path fill="none" stroke="#A97C50" stroke-miterlimit="10" d="M127.3,41.7c-0.2-0.2,0.4-1.2,1.3-1.6c1-0.4,2.2-0.3,2.3,0
	C130.9,40.7,127.6,42.3,127.3,41.7z"/>
<path fill="none" stroke="#A97C50" stroke-miterlimit="10" d="M76.8,42.4c0.1-0.2-1-1.3-2.4-1.6c-1.1-0.3-2.5-0.3-2.6,0
	C71.7,41.3,76.6,42.9,76.8,42.4z"/>
<g>
	<path fill="#FFFFFF" stroke="#000000" stroke-miterlimit="10" d="M106.1,43.6c1,0.5,2-1,4.7-1c2.5,0,3.6,1.4,4.4,0.8
		c1-0.8,0.1-3.5-1-6.8c-0.9-2.6-1.6-3.6-2.7-4.4c-0.4-0.3-1.3-0.9-2.3-0.7c-0.4,0.1-1.4,0.4-2.6,3.6
		C106.4,35.6,104.1,42.4,106.1,43.6z"/>
	<path fill="#3C2415" stroke="#000000" stroke-miterlimit="10" d="M107.6,41.7c-1.5-2-0.7-4.4-0.4-4.7c0.1-0.1,1.3-3.1,3.4-3.1
		c2,0.1,3,2.6,3.2,3.1c0.8,1.9-0.5,5.8-3.1,5.6C108.8,42.5,108.7,43.3,107.6,41.7z"/>
	<path fill="#603913" stroke="#000000" stroke-miterlimit="10" d="M110.7,42.5c-1.2-0.1-1.6-0.3-1.6-1.6c0-0.7,0.3-2.3,1.5-2.3
		c1.2,0,1.5,0.4,1.6,2C112.2,41.6,111.8,42.6,110.7,42.5z"/>
</g>
<g>
	<path fill="#FFFFFF" stroke="#000000" stroke-miterlimit="10" d="M86.4,43.6c1,0.5,2-1,4.7-1c2.5,0,3.6,1.4,4.4,0.8
		c1-0.8,0.1-3.5-1-6.8c-0.9-2.6-1.6-3.6-2.7-4.4c-0.4-0.3-1.3-0.9-2.3-0.7c-0.4,0.1-1.4,0.4-2.6,3.6C86.8,35.6,84.3,42.4,86.4,43.6z
		"/>
	<path fill="#3C2415" stroke="#000000" stroke-miterlimit="10" d="M87.9,41.7c-1.5-2-0.7-4.4-0.4-4.7c0.1-0.1,1.3-3.1,3.4-3.1
		c2,0.1,3,2.6,3.2,3.1c0.8,1.9-0.5,5.8-3.1,5.6C89.1,42.5,89.1,43.3,87.9,41.7z"/>
	<path fill="#603913" stroke="#000000" stroke-miterlimit="10" d="M90.9,42.5c-1.2-0.1-1.6-0.3-1.6-1.6c0-0.7,0.3-2.3,1.5-2.3
		c1.2,0,1.5,0.4,1.6,2C92.5,41.6,92.1,42.6,90.9,42.5z"/>
</g>
<path fill="none" stroke="#000000" stroke-miterlimit="10" d="M106.2,27c1.8-0.5,5.2,0,7.8,3"/>
<path fill="none" stroke="#000000" stroke-miterlimit="10" d="M86.4,30c0-1.6,3.5-3,7.8-3"/>
<line fill="none" stroke="#000000" stroke-miterlimit="10" x1="108.2" y1="31.9" x2="108.2" y2="31.9"/>
<g>
	<path fill="none" stroke="#A97C50" stroke-miterlimit="10" d="M101,49.1c-0.2-0.1-1.5-0.9-3-0.4c-1.3,0.4-2.5,1.8-2.3,3.2
		c0.2,1.1,1.1,1.9,2,2.1c1.1,0.3,2.3,0,3.2-0.9"/>
</g>
<path fill="none" stroke="#BE1E2D" stroke-miterlimit="10" d="M83.9,55.7c0.4-0.8,1.9-1.4,1.9-1.4s1.2,1.5,2,2.6
	c2.7,3.5,6.7,4.5,8.1,4.8c2.2,0.4,3.8,0.2,5.5,0.1c1.3-0.1,3.3-0.2,5.5-1.3c1.2-0.7,2.4-1.2,4.2-2.5c2-1.3,2.2-1.9,2.2-1.9
	c1.3-1.3,1.6-1.5,1.6-1.5s0.7,0.8,0.9,1.3"/>
<path stroke="#000000" stroke-miterlimit="10" d="M74.4,33.4c-0.4-1.6-1-2.9-1.2-5.6c-0.2-2-0.3-4.5,0.2-7.8c0.5-2.9,1-5.4,3.1-7.7
	c1.5-1.6,3.3-2.7,4.2-3.2c1.1-0.5,2-0.9,3.7-1.5C86,7,87.2,6.7,87,6.9c-0.4,0.5-3.1,3.4-3.3,7.9c-0.1,0.9-0.2,2.9,1,4.4
	c1.1,1.4,2.5,1.8,2.4,2.3C87,22.2,84.8,21.6,83,23c-0.5,0.4-0.8,0.9-2,4.3c-1.3,4.1-1.3,4.5-2.2,6.5c-0.4,1-1.4,3.2-1.4,3.2l0,0
	C77.5,37.1,75.3,36.5,74.4,33.4z"/>
<path stroke="#000000" stroke-miterlimit="10" d="M92,3.3c1.4-0.7,3.6-1.6,7-2.2c2.7-0.4,6.8-1.1,11.6,0.1c2.2,0.5,9.3,2.3,12.6,8.2
	c2.4,4.2,1.4,5.4,2.3,11.4c0.2,1.4,5.8,3.1,4,11.9c-0.2,1.1-0.8,2-1.1,2.6c-1,2.1-3.3,5.5-4.4,5.2c-1.1-0.3,0.2-3.6-1.3-8.3
	c-0.3-1.1-1.3-4.1-4-6.5c-2.1-2-4.3-2.9-5.6-3.3c-2.4-0.9-3.4-0.5-10.3-0.9c-8.5-0.3-8.1-0.7-10-0.3c-2.3,0.4-2.9,0.4-5.1,0.4
	c-1.8,0-3.2-1.9-3.5-2.4c-1.6-3.2-0.5-6.6,0-8c0.3-1.1,1.2-3,3-4.8C89.1,4.8,90.6,4.1,92,3.3z"/>
<path fill="#F7941E" stroke="#000000" stroke-miterlimit="10" d="M95,71.9c0-0.1,0,0.3,0.9-0.1c0.8-0.4,0.7-0.3,0.7-0.3
	s0,1.1,0.3,2.1c0.4,1.3,2.2,1.9,2.9,2c0.7,0.1,3.2,0.1,4.1-1c0.7-0.9,0.7-3,0.7-3h2.3c0,0-0.5,3.2-1.4,4.3c-1.2,1.4-2.6,1.5-3.6,1.6
	c-1,0.1-3.1,0.3-4.8-1.1C95.1,75.1,94.5,72.6,95,71.9z"/>
</svg>
