<?xml version="1.0" encoding="utf-8"?>
<!-- Generator: Adobe Illustrator 18.1.0, SVG Export Plug-In . SVG Version: 6.00 Build 0)  -->
<!DOCTYPE svg PUBLIC "-//W3C//DTD SVG 1.1//EN" "http://www.w3.org/Graphics/SVG/1.1/DTD/svg11.dtd">
<svg version="1.1" id="Layer_1" xmlns="http://www.w3.org/2000/svg" xmlns:xlink="http://www.w3.org/1999/xlink" x="0px" y="0px"
	 viewBox="0 0 170.9 204.8" enable-background="new 0 0 170.9 204.8" xml:space="preserve">
<path fill="#8DC63F" stroke="#000000" stroke-miterlimit="10" d="M158.4,204.3H12.5c-6.6,0-12-5.4-12-12V12.5c0-6.6,5.4-12,12-12
	h145.9c6.6,0,12,5.4,12,12v179.8C170.4,198.9,165,204.3,158.4,204.3z"/>
<path fill="#E8B68A" stroke="#E8B68A" stroke-miterlimit="10" d="M88.1,81.3c0,0,0.3-5,0.6-8c0,0,2.6,1.3,9.3-1.3
	c0.8-0.3,3.5-0.8,6.7-4.1c1.5-1.5,1.7-3.5,2-4.9c0.6-2.8-0.2-3.1-0.3-6.5c0,0-0.7-0.2,1.1-1.7c0.2-0.2,1.4-0.2,1.7,0
	c0.6,0.3,1.7,0.7,2.9,0.3c1.8-0.5,2.4-2.4,2.8-3.4c0.3-0.8,1.1-3.1,0-4.2c-0.8-0.8-2.4-0.6-3.4-0.3c-3.1,1.1-3.5,5-4.5,4.8
	c-0.8-0.1,0.2-1.7-0.9-6.2c-0.3-1.3-0.2-1.6-1.6-4.2c-1-1.8-2.1-4.1-3.7-5.2c-1.8-1.1-3.5-2.2-8.2-2.5c-5.2-0.4-6-0.1-11.7-0.3
	c-2.4-0.1-5.9-0.1-11,2.2c-1.9,0.9-3.1,8.3-3.9,9.3c-2.6,3.6,0,4.4-0.2,5.4c0,0,0,0,0,0c-0.2,0.1-1.1-1.2-2.2-2
	c-0.3-0.2-1.5-1.1-3-1.1c-1,0-2.8,0.3-3.4,1.4c-1.5,2.6,1.4,5.1,4.5,6.8c3.3,1.7,2,9.4,3.4,12.1c1.1,2.2,2.6,3.8,6.4,5.2
	c4.5,1.6,8.7,1.9,10.5,0.9c0,0,0,0,0,0c1.7,2.8,0.3,5.6,0.3,5.6c0,0.3,0,0.9,0,1.6c0.4,0.3,1.1,0.8,2.1,1c0.3,0.1,0.6,0.1,1,0.1
	C87,82.2,88.1,81.3,88.1,81.3z"/>
<path fill="#ED1C24" stroke="#000000" stroke-miterlimit="10" d="M79.6,79.8c-1.2-0.9-2.8-0.5-5.4,0c-1.2,0.3-2.9,0.6-4.9,1.7
	c-3,1.6-4.5,3.4-7.3,5.6c-3.9,3-6.8,6.5-10.6,9.4c-0.1,0-3.2,1.7-6.7,4.6c-1,0.8-2,1.7-2.4,3.2c-0.4,1.6,0.2,3.6,1.2,3.9
	c0.6,0.2,1-0.6,2.9-1.7c1.3-0.8,2.4-1.4,3.7-1.3c1.4,0.1,1.5,0.8,2.5,0.8c1.9,0.1,4.3-3.3,5.8-4.3c1.3-0.9,3.2-1.3,5.3-3.3
	c1-1,1.2-0.9,2.1-1.3c0.9-0.5,2.3-2.3,4.1,0.5c1.1,1.8,0.9,6.1,1,7.9c0.1,1.5,0,5.4-0.7,8.1c0,0-0.1,0.5-0.7,2.8l-0.4,1.7
	c0.3,0.6,2.3-0.1,5.4,0c3.1,0.1,3.5,0.7,5.1,0.3c1.7-0.4,1.8-1.2,3.8-1.9c1.7-0.6,3.8-0.5,4.3-0.4c1.7,0.4,1.9,0.9,3.9,1.6
	c0.6,0.2,0.3,0,1.8,0.2c2.6,0.4,4.2,0.4,5.7,0.2c1.4-0.2,1.6-0.4,1.7-0.5c0.7-0.9-0.7-2.4-1.3-5.4c-0.2-0.9-0.3-3.4-0.3-6.2
	c0-1.6-0.3-3,0.9-5.6c1.6-3.5,2.8-3.3,3.8-3.7c1.2-0.5,3.3,1.1,7.4,4.4c3.4,2.6,4.3,3.7,6.2,3.9c1.1,0.1,1.9-0.1,3.4,0.3
	c0.7,0.2,2.2,0.7,3.2,2c0.8,1,0.8,1.7,1.2,1.7c0.7,0,1.3-1.6,1.5-2.9c0.1-0.4,0.2-1.5-0.2-2.7c-0.6-2-2.2-3-3.7-4
	c0,0-0.5-0.4-7.6-5.6c-3-2.2-2.4-2-6.1-4.7c-3.8-2.8-4.1-2.8-5.6-4.2c-2.2-2.1-2.3-2.9-4-3.9c-1.1-0.6-2.3-0.8-4.9-1.3
	c-3.1-0.6-3.6-0.4-3.9-0.2c-1.1,0.8-0.2,2.3-1.3,3.7c-1.2,1.4-3.3,1.5-4,1.5c-0.8,0-2.5,0.1-3.7-1C80.2,82.3,80.9,80.8,79.6,79.8z"
	/>
<polygon stroke="#000000" stroke-miterlimit="10" points="80,89.9 73.6,96.5 80,105.8 93,105.8 99.4,96.6 92.8,89.9 "/>
<polygon fill="#FFFFFF" stroke="#000000" stroke-miterlimit="10" points="78.3,96.5 82.3,102.4 90,102.4 94.7,96.5 92.5,93.6 
	80.8,93.6 "/>
<path fill="#FFFFFF" stroke="#000000" stroke-miterlimit="10" d="M44,109c-0.3,1.1,0.6,2.3,3,4.7c5.3,5.3,6.1,4.6,8.3,7.4
	c2.2,2.7,2.6,4.8,5.6,6.9c1.3,0.9,2.2,1.2,3,1c1.6-0.5,2.2-2.9,2.5-4.4c0.4-1.7,0.8-3.7-0.3-5.2c-0.9-1.2-2.3-1.5-3.4-1.7
	c-2.3-0.5-2.9,0.3-4,0c-3.5-1-1.9-9.8-6.1-11.8c-1.7-0.8-4-0.5-5-0.2C46.7,106,44.4,107.4,44,109z"/>
<path fill="#FFFFFF" stroke="#000000" stroke-miterlimit="10" d="M117.6,105.4c-3.8,1.5-2.3,9.8-6.4,11.8c-2.1,1-3.6-0.5-5.9,1
	c-2.3,1.5-2.7,4.3-2.7,4.6c-0.3,2.5,0.8,5.7,2.9,6.2c1.3,0.4,2.6-0.4,3.5-1c2.6-1.7,2.9-3.4,5.1-6.1c0.9-1.2,0.7-0.7,7.9-7.3
	c2.3-2.1,3.3-3.1,3.2-4.4c-0.1-1.9-2.1-4-2.7-4.3C121.7,105.6,119.4,104.7,117.6,105.4z"/>
<path fill="#F7941E" stroke="#000000" stroke-miterlimit="10" d="M68.3,118.8c-0.3,1.2-0.7,2.5-1,3.7h11l1.2-4L68.3,118.8z"/>
<polygon fill="#F7941E" stroke="#000000" stroke-miterlimit="10" points="91.8,118.6 91.8,123.1 101.7,122.5 100.6,118.4 "/>
<path stroke="#000000" stroke-miterlimit="10" d="M79.8,119.1c-0.1,0.3-1.3,2.4-0.3,4.4c1.2,2.6,4.9,2.7,5.6,2.7c0.8,0,4.7,0,6.2-3
	c0.1-0.1,1.2-2.4,0-4.6c-1.6-3-6.1-2.4-6.6-2.4C83.9,116.3,81.1,116.7,79.8,119.1z"/>
<path fill="#FFFFFF" stroke="#000000" stroke-miterlimit="10" d="M82.5,119.8c-0.6,1-0.5,2.3,0.2,3.2c1.1,1.4,3.5,1.1,4.7,0
	c0.7-0.6,1.4-1.8,1-2.9c-0.4-1-1.8-1.3-2.4-1.3C85.5,118.7,83.5,118.3,82.5,119.8z"/>
<path fill="#ED1C24" stroke="#000000" stroke-miterlimit="10" d="M67.8,122.7c0,0-1.5,3.3-2.4,6.5c-0.2,0.5-0.8,3-1.2,4.4
	c-2.5,8.7-1.9,17.4-2.8,18.3c-1.3,1.2-1.4,2-1.8,3.7c-0.4,2-0.4,3.1-0.5,4.9c0,0.9-0.5,1.6-0.3,2.2c0.2,0.9,1.6,1.3,2.5,1.5
	c0.5,0.2,2.8,0.5,4.6,0.4c1.9-0.1,4.2-1,4.2-1l0-0.7c0,0,0.2-2.3,0.6-3.4c1.2-3.4,2.8-5.6,4.9-8.1c6.8-7.8,7.2-12,8.7-12.5
	c0,0,2.8,4.2,10.4,13.4c2.3,2.8,4.1,4.7,4.2,7.6c0,1.7-0.5,3.4,0.5,4.4c0.2,0.2,0.6,0.5,3.2,0.7c4.6,0.3,6-0.6,6.4-0.8
	c0.5-0.3,1.3-0.9,1.3-1.7c0-0.8,0.2-1.4,0-2.3c-0.4-2.3-0.2-2.9-1.4-5c-0.5-0.9-0.9-2.1-1.4-3.2c-1.1-2.3,0.1-8.9-1.3-15.2
	c-0.8-3.5-0.1-6.3-1.3-7.4c-1.9-1.9-3.3-6-3.3-6s-9-0.4-9.9,0.3c-2.5,1.8-2.1,2.8-6.8,2.8c-4,0-5.6-2.7-6.7-3
	C74.8,122.2,67.8,122.7,67.8,122.7z"/>
<path stroke="#000000" stroke-miterlimit="10" d="M57.5,166.3c0-1.6-0.1-3,0.7-3.4c0.4-0.2,0.8,0,1.9,0.3c1.2,0.4,2.5,0.8,3.7,0.8
	c2,0.1,5.8-0.4,6.1,0c1.1,1.3-1.2,5.1-2.9,7.8c-2.4,3.9-3.2,4-3.5,5.9c-0.3,1.8,0.2,2.1,0,6.1c-0.2,2.9-0.5,3.7-0.7,4
	c-0.3,0.7-0.8,1.5-3.4,3.5c-2.6,2.1-3.9,3.2-5.1,3.5c-0.3,0.1-4.2,1.3-6.9-0.8c-0.5-0.3-1.3-1-1.5-2c-0.1-0.4-0.3-1.7,1.9-4.4
	c2.2-2.8,3.6-2.9,6.4-6.1c1.1-1.2,1.6-1.8,2-2.7c0.9-2,0.2-2.9,0.5-6.7C56.9,168.8,57.4,169.3,57.5,166.3z"/>
<path stroke="#000000" stroke-miterlimit="10" d="M101.1,169c-0.9-1.7-2.4-4.6-1.5-5.4c0.4-0.4,1.1,0,3.2,0.3
	c2.3,0.4,4.8,0.7,6.4-0.5c1.1-0.8,1.1-1.7,1.5-1.7c1.3,0.1,1.8,7.1,1.9,8.6c0.4,6.1-0.4,6.5,0.5,8.6c0.6,1.5,1.2,1.6,6.4,6.9
	c3.8,3.8,4.6,5,4.4,6.2c-0.3,1.9-2.8,2.8-3.4,3c-2.9,1.1-5.6-0.1-6.1-0.3c-1.6-0.8-1.4-1.3-4.7-4.2c-2.4-2.1-2.6-1.9-3-2.7
	c-0.8-1.6-0.1-2.6-0.2-6.7c0-1.3,0-2-0.2-2.7C105.7,174.9,103.6,173.9,101.1,169z"/>
<path fill="#21409A" stroke="#000000" stroke-miterlimit="10" d="M101.3,82c0,0,8.8,1.8,15.5,6.6c2.2,1.6,6.9,5,11,11.1
	c3.8,5.7,3.3,8.1,8.1,14.3c3.7,4.8,6.2,6.1,7.1,6.6c3.8,1.9,7.9,2.1,10,2c4.3-0.1,5.9-1.3,6.7-0.3c1.6,1.7-0.9,7.8-5.1,11.6
	c-2.1,1.9-5.2,3.4-11.3,6.4c-3.2,1.6-2.9,1.3-3.9,1.9c-5.7,3.5-5,7.2-9.3,10.1c-3.7,2.5-4.2,3.1-11.8,3c-4.5,0-7.4,2.7-8.3,1.8
	c-0.8-0.8,0.3,1.1-0.7-1.4c-0.6-1.8-1.3-2.9-2.1-4.6c-0.7-1.5,1.2-7.1-0.6-14.5c-0.8-3.3-1-7-1-7s1.8-0.5,3.7-1.4
	c2.5-1.2,3.2-3.4,4.7-5.9c3.9-6.4,7.7-5.2,11.3-11.6c1.2-2.2,2.3-4.1,1.9-6.4c-0.4-2.1-1.8-3.4-7.4-7.8c-3.9-3-5.6-4.6-8.1-6.1
	C106.5,87.5,100.9,82.4,101.3,82z"/>
<g>
	<path fill="#27AAE1" stroke="#000000" stroke-miterlimit="10" d="M103.4,97c1.8-1.3,3.2,0.8,7.8,4c3.4,2.4,6,3.1,5.9,4.2
		c0,0.8-0.9,0.5-1.5,2.1c-1.1,3.1-1,7.2-3.7,9.4c-1.9,1.5-4.4-0.4-6.9,1.4c-2.2,1.6-2.5,4.3-3.2,4.2c-0.6-0.1-0.7-2.2-0.8-4
		c-0.2-2.7-1.2-4.6-1.5-6.2c-0.5-2.7-0.3-5-0.1-5.9c0.2-0.8,1.4-2.2,2.3-4.6C102.3,99.7,102.7,97.5,103.4,97z"/>
</g>
<path fill="#21409A" stroke="#000000" stroke-miterlimit="10" d="M97.9,157.4c-0.4,0.4-8.2-2.8-13.2-2.5c-7.5,0.4-12.8,4.1-13.4,3.2
	c-0.7-1,2.8-3.2,6.8-9.1c1.9-2.8,5.5-10.1,6.4-10.1c0.7,0,4.1,5.5,7.5,9.7C95.3,152.7,98.2,157,97.9,157.4z"/>
<path fill="#21409A" stroke="#000000" stroke-miterlimit="10" d="M59.2,154.4c-2,2.1-4.4-2.8-9.3-4.6c-4.8-1.7-6,0.9-10.1-0.5
	c-5.9-2-4.4-7.7-11.3-11.8c-1.2-0.7-4.7-1.8-11.8-4c-5.9-1.9-6.7-1.9-7.1-2.9c-1.3-3.3,7.8-7.1,16.9-18.9c5.2-6.8,4.7-8.7,10-13.8
	c3.4-3.3,6.5-5.3,12.7-9.3c4.9-3.2,8.4-5,12.7-6.2c2.5-0.7,7.4-1,7.4-1s-2.3,2.2-7.1,5.7c-6.9,5.2-5.8,5.2-11.1,9.1
	c-6,4.3-8.9,5.3-9.3,8.3c-0.2,1.5,0.4,2.8,1.3,4.6c1.5,3,3,3.7,7.4,7.9c3.6,3.5,5.4,5.2,6.4,6.7c1.4,2,2.1,3.7,4.2,4.7
	c2.1,1,4.3-0.3,4,1c-0.3,1.9-2.6,6.3-2.8,15c0,2.1-0.2,4.3-0.7,6.8C61.4,152.7,60.4,153.1,59.2,154.4z"/>
<g>
	<path fill="#21409A" stroke="#000000" stroke-miterlimit="10" d="M103.4,97c2.1-0.5,3.2,0.8,7.8,4c3.4,2.4,6,3.1,5.9,4.2
		c0,0.8-0.9,0.5-1.5,2.1c-1.1,3.1-1,7.2-3.7,9.4c-1.9,1.5-4.4-0.4-6.9,1.4c-2.2,1.6-2.5,4.3-3.2,4.2c-0.6-0.1-0.7-2.2-0.8-4
		c-0.2-2.7-1.2-4.6-1.5-6.2c-0.5-2.7-0.2-5-0.3-5.9c-0.2-1.4-0.2-4.6,1.2-6.5C101.4,98.1,102.5,97.2,103.4,97z"/>
</g>
<g>
	<path fill="#21409A" stroke="#000000" stroke-miterlimit="10" d="M68.7,96.1c-0.5-0.2-4.6,1.5-9.5,4.7c-3.5,2.3-6,2.9-6,4.1
		c0,0.8,0,0.8,1,2.3c1.8,2.8,1,7.7,3.7,10c1.8,1.6,4.7-0.7,7.1,1.2c2.2,1.7,2.5,4.2,3.2,4.1c0.6-0.1,0.8-2.2,0.9-4
		c0.3-2.7,1.3-4.6,1.7-6.2c0.5-2.7,0.4-5,0.2-5.9c-0.2-0.8,0.4-4.5-0.4-6.8C69.9,97.6,69.5,96.5,68.7,96.1z"/>
</g>
<path fill="#F7941E" stroke="#000000" stroke-miterlimit="10" d="M80.1,79.6c0-0.1,0,0.3,0.8-0.1c0.7-0.4,0.6-0.3,0.6-0.3
	s0,1,0.3,1.9c0.4,1.2,2,1.7,2.6,1.8c0.6,0.1,2.9,0.1,3.7-0.9c0.6-0.8,0.6-2.7,0.6-2.7h2.1c0,0-0.5,2.9-1.3,3.9
	c-1.1,1.3-2.4,1.4-3.3,1.5c-0.9,0.1-2.8,0.3-4.4-1C80.2,82.5,79.6,80.2,80.1,79.6z"/>
<path fill="none" stroke="#C49A6C" stroke-miterlimit="10" d="M109.9,52.3c-0.2-0.2,0.4-1.1,1.2-1.5c0.9-0.4,2-0.3,2.1,0
	C113.3,51.3,110.3,52.7,109.9,52.3z"/>
<path fill="none" stroke="#C49A6C" stroke-miterlimit="10" d="M64,52.9c0.1-0.2-0.9-1.2-2.2-1.5c-1-0.3-2.3-0.3-2.4,0
	C59.4,51.8,63.8,53.3,64,52.9z"/>
<g>
	<path fill="#FFFFFF" stroke="#000000" stroke-miterlimit="10" d="M90.7,53.9c0.9,0.5,1.8-0.9,4.3-0.9c2.3,0,3.3,1.3,4,0.7
		c0.9-0.7,0.1-3.2-0.9-6.2c-0.8-2.4-1.5-3.3-2.5-4c-0.4-0.3-1.2-0.8-2.1-0.6c-0.4,0.1-1.3,0.4-2.4,3.3C91,46.7,88.8,52.8,90.7,53.9z
		"/>
	<path fill="#3C2415" stroke="#000000" stroke-miterlimit="10" d="M92,52.2c-1.4-1.8-0.6-4-0.4-4.3c0.1-0.1,1.2-2.8,3.1-2.8
		c1.8,0.1,2.7,2.4,2.9,2.8c0.7,1.7-0.5,5.3-2.8,5.1C93.2,52.9,93.1,53.6,92,52.2z"/>
	<path fill="#603913" stroke="#000000" stroke-miterlimit="10" d="M94.8,52.9c-1.1-0.1-1.5-0.3-1.5-1.5c0-0.6,0.3-2.1,1.4-2.1
		c1.1,0,1.4,0.4,1.5,1.8C96.2,52.1,95.9,53,94.8,52.9z"/>
</g>
<g>
	<path fill="#FFFFFF" stroke="#000000" stroke-miterlimit="10" d="M72.7,53.9c0.9,0.5,1.8-0.9,4.3-0.9c2.3,0,3.3,1.3,4,0.7
		c0.9-0.7,0.1-3.2-0.9-6.2c-0.8-2.4-1.5-3.3-2.5-4c-0.4-0.3-1.2-0.8-2.1-0.6c-0.4,0.1-1.3,0.4-2.4,3.3
		C73.1,46.7,70.9,52.8,72.7,53.9z"/>
	<path fill="#3C2415" stroke="#000000" stroke-miterlimit="10" d="M74.1,52.2c-1.4-1.8-0.6-4-0.4-4.3c0.1-0.1,1.2-2.8,3.1-2.8
		c1.8,0.1,2.7,2.4,2.9,2.8c0.7,1.7-0.5,5.3-2.8,5.1C75.2,52.9,75.1,53.6,74.1,52.2z"/>
	<path fill="#603913" stroke="#000000" stroke-miterlimit="10" d="M76.9,52.9c-1.1-0.1-1.5-0.3-1.5-1.5c0-0.6,0.3-2.1,1.4-2.1
		c1.1,0,1.4,0.4,1.5,1.8C78.3,52.1,77.9,53,76.9,52.9z"/>
</g>
<path fill="none" stroke="#000000" stroke-miterlimit="10" d="M90.7,38.8c1.6-0.5,4.7,0,7.1,2.7"/>
<path fill="none" stroke="#000000" stroke-miterlimit="10" d="M72.7,41.6c0-1.5,3.2-2.7,7.1-2.7"/>
<line fill="none" stroke="#000000" stroke-miterlimit="10" x1="92.5" y1="41.2" x2="92.5" y2="41.2"/>
<g>
	<path fill="none" stroke="#C49A6C" stroke-miterlimit="10" d="M86,58.9c-0.2-0.1-1.4-0.8-2.7-0.4c-1.2,0.4-2.3,1.6-2.1,2.9
		c0.2,1,1,1.7,1.8,1.9c1,0.3,2.1,0,2.9-0.8"/>
</g>
<path fill="none" stroke="#BE1E2D" stroke-miterlimit="10" d="M70.4,65c0.4-0.7,1.7-1.3,1.7-1.3s1.1,1.4,1.8,2.4
	c2.5,3.2,6.1,4.1,7.4,4.4c2,0.4,3.5,0.2,5,0.1c1.2-0.1,3-0.2,5-1.2c1.1-0.6,2.2-1.1,3.8-2.3c1.8-1.2,2-1.7,2-1.7
	c1.2-1.2,1.5-1.4,1.5-1.4s0.6,0.7,0.8,1.2"/>
<path stroke="#000000" stroke-miterlimit="10" d="M61.8,44.6c-0.4-1.5-0.9-2.6-1.1-5.1c-0.2-1.8-0.3-4.1,0.2-7.1
	c0.5-2.6,0.9-4.9,2.8-7c1.4-1.5,3-2.5,3.8-2.9c1-0.5,1.8-0.8,3.4-1.4c1.5-0.5,2.6-0.8,2.4-0.6c-0.4,0.5-2.8,3.1-3,7.2
	c-0.1,0.8-0.2,2.6,0.9,4c1,1.3,2.3,1.6,2.2,2.1c-0.1,0.6-2.1,0.1-3.7,1.3c-0.5,0.4-0.7,0.8-1.8,3.9c-1.2,3.7-1.2,4.1-2,5.9
	c-0.4,0.9-1.3,2.9-1.3,2.9v0C64.6,48,62.6,47.5,61.8,44.6z"/>
<path stroke="#000000" stroke-miterlimit="10" d="M77.9,17.2c1.3-0.6,3.3-1.5,6.4-2c2.5-0.4,6.2-1,10.6,0.1c2,0.5,8.5,2.1,11.5,7.5
	c2.2,3.8,1.3,4.9,2.1,10.4c0.2,1.3,5.3,2.8,3.6,10.8c-0.2,1-0.7,1.8-1,2.4c-0.9,1.9-3,5-4,4.7c-1-0.3,0.2-3.3-1.2-7.6
	c-0.3-1-1.2-3.7-3.6-5.9c-1.9-1.8-3.9-2.6-5.1-3c-2.2-0.8-3.1-0.5-9.4-0.8c-7.7-0.3-7.4-0.6-9.1-0.3C76.8,34,76.2,34,74.3,34
	c-1.6,0-2.9-1.7-3.2-2.2c-1.5-2.9-0.5-6,0-7.3c0.3-1,1.1-2.7,2.7-4.4C75.1,18.6,76.5,17.9,77.9,17.2z"/>
</svg>
