<?xml version="1.0" encoding="utf-8"?>
<!-- Generator: Adobe Illustrator 18.1.0, SVG Export Plug-In . SVG Version: 6.00 Build 0)  -->
<!DOCTYPE svg PUBLIC "-//W3C//DTD SVG 1.1//EN" "http://www.w3.org/Graphics/SVG/1.1/DTD/svg11.dtd">
<svg version="1.1" id="Layer_1" xmlns="http://www.w3.org/2000/svg" xmlns:xlink="http://www.w3.org/1999/xlink" x="0px" y="0px"
	 viewBox="0 0 600 600" enable-background="new 0 0 600 600" xml:space="preserve">
<path fill="#E8B68A" stroke="#E8B68A" stroke-width="3" stroke-miterlimit="10" d="M310.9,221.3c0,0,1-16.5,2-26.4
	c0,0,8.6,4.3,30.7-4.3c2.6-1,11.5-2.6,22.1-13.5c4.9-4.9,5.6-11.5,6.6-16.2c2-9.2-0.7-10.2-1-21.4c0,0-2.3-0.7,3.6-5.6
	c0.7-0.7,4.6-0.7,5.6,0c2,1,5.6,2.3,9.6,1c5.9-1.6,7.9-7.9,9.2-11.2c1-2.6,3.6-10.2,0-13.9c-2.6-2.6-7.9-2-11.2-1
	c-10.2,3.6-11.5,16.5-14.8,15.8c-2.6-0.3,0.7-5.6-3-20.5c-1-4.3-0.7-5.3-5.3-13.9c-3.3-5.9-6.9-13.5-12.2-17.2
	c-5.9-3.6-11.5-7.3-27-8.2c-17.2-1.3-19.8-0.3-38.6-1c-7.9-0.3-19.5-0.3-36.3,7.3c-6.3,3-10.2,27.4-12.9,30.7
	c-8.6,11.9,0,14.5-0.7,17.8l0,0c-0.7,0.3-3.6-4-7.3-6.6c-1-0.7-4.9-3.6-9.9-3.6c-3.3,0-9.2,1-11.2,4.6c-4.9,8.6,4.6,16.8,14.8,22.4
	c10.9,5.6,6.6,31,11.2,39.9c3.6,7.3,8.6,12.5,21.1,17.2c14.8,5.3,28.7,6.3,34.6,3l0,0c5.6,9.2,1,18.5,1,18.5c0,1,0,3,0,5.3
	c1.3,1,3.6,2.6,6.9,3.3c1,0.3,2,0.3,3.3,0.3C307.3,224.3,310.9,221.3,310.9,221.3z"/>
<path fill="#2B3990" stroke="#000000" stroke-width="3" stroke-miterlimit="10" d="M282.8,216.4c-4-3-9.2-1.6-17.8,0
	c-4,1-9.6,2-16.2,5.6c-9.9,5.3-14.8,11.2-24.1,18.5c-12.9,9.9-22.4,21.4-35,31c-0.3,0-10.6,5.6-22.1,15.2c-3.3,2.6-6.6,5.6-7.9,10.6
	c-1.3,5.3,0.7,11.9,4,12.9c2,0.7,3.3-2,9.6-5.6c4.3-2.6,7.9-4.6,12.2-4.3c4.6,0.3,4.9,2.6,8.2,2.6c6.3,0.3,14.2-10.9,19.1-14.2
	c4.3-3,10.6-4.3,17.5-10.9c3.3-3.3,4-3,6.9-4.3c3-1.6,7.6-7.6,13.5,1.6c3.6,5.9,3,20.1,3.3,26.1c0.3,4.9,0,17.8-2.3,26.7
	c0,0-0.3,1.6-2.3,9.2l-1.3,5.6c1,2,7.6-0.3,17.8,0c10.2,0.3,11.5,2.3,16.8,1c5.6-1.3,5.9-4,12.5-6.3c5.6-2,12.5-1.6,14.2-1.3
	c5.6,1.3,6.3,3,12.9,5.3c2,0.7,1,0,5.9,0.7c8.6,1.3,13.9,1.3,18.8,0.7c4.6-0.7,5.3-1.3,5.6-1.6c2.3-3-2.3-7.9-4.3-17.8
	c-0.7-3-1-11.2-1-20.5c0-5.3-1-9.9,3-18.5c5.3-11.5,9.2-10.9,12.5-12.2c4-1.6,10.9,3.6,24.4,14.5c11.2,8.6,14.2,12.2,20.5,12.9
	c3.6,0.3,6.3-0.3,11.2,1c2.3,0.7,7.3,2.3,10.6,6.6c2.6,3.3,2.6,5.6,4,5.6c2.3,0,4.3-5.3,4.9-9.6c0.3-1.3,0.7-4.9-0.7-8.9
	c-2-6.6-7.3-9.9-12.2-13.2c0,0-1.6-1.3-25.1-18.5c-9.9-7.3-7.9-6.6-20.1-15.5c-12.5-9.2-13.5-9.2-18.5-13.9
	c-7.3-6.9-7.6-9.6-13.2-12.9c-3.6-2-7.6-2.6-16.2-4.3c-10.2-2-11.9-1.3-12.9-0.7c-3.6,2.6-0.7,7.6-4.3,12.2
	c-4,4.6-10.9,4.9-13.2,4.9c-2.6,0-8.2,0.3-12.2-3.3C284.8,224.6,287.5,219.7,282.8,216.4z"/>
<polygon stroke="#000000" stroke-width="3" stroke-miterlimit="10" points="284.2,249.7 263.1,271.5 284.2,301.8 327,301.8 
	348.2,271.8 326.4,249.7 "/>
<polygon fill="#FFFFFF" stroke="#000000" stroke-width="3" stroke-miterlimit="10" points="278.6,271.5 291.8,290.9 317.2,290.9 
	332.7,271.5 325.4,261.9 286.8,261.9 "/>
<path stroke="#000000" stroke-width="3" stroke-miterlimit="10" d="M165.4,312.4c-1,3.6,2,7.6,9.9,15.5
	c17.5,17.5,20.1,15.2,27.4,24.4c7.3,8.9,8.6,15.8,18.5,22.8c4.3,3,7.3,4,9.9,3.3c5.3-1.6,7.3-9.6,8.2-14.5c1.3-5.6,2.6-12.2-1-17.2
	c-3-4-7.6-4.9-11.2-5.6c-7.6-1.6-9.6,1-13.2,0c-11.5-3.3-6.3-32.3-20.1-38.9c-5.6-2.6-13.2-1.6-16.5-0.7
	C174.3,302.5,167.1,307.1,165.4,312.4z"/>
<path stroke="#000000" stroke-width="3" stroke-miterlimit="10" d="M408.2,300.8c-12.5,4.9-7.6,32.3-21.1,38.9
	c-6.9,3.3-11.9-1.6-19.5,3.3c-7.6,4.9-8.9,14.2-8.9,15.2c-1,8.2,2.6,18.8,9.6,20.5c4.3,1.3,8.6-1.3,11.5-3.3
	c8.6-5.6,9.6-11.2,16.8-20.1c3-4,2.3-2.3,26.1-24.1c7.6-6.9,10.9-10.2,10.6-14.5c-0.3-6.3-6.9-13.2-8.9-14.2
	C421.7,301.2,414.1,298.5,408.2,300.8z"/>
<path fill="#FFF200" stroke="#000000" stroke-width="3" stroke-miterlimit="10" d="M245.6,344.7c-1,4-2.3,8.2-3.3,12.2h36.3l4-13.2
	L245.6,344.7z"/>
<polygon fill="#FFF200" stroke="#000000" stroke-width="3" stroke-miterlimit="10" points="323.1,344.4 323.1,359.2 355.7,356.9 
	352.1,343.7 "/>
<path stroke="#000000" stroke-width="3" stroke-miterlimit="10" d="M283.5,346c-0.3,1-4.3,7.9-1,14.5c4,8.6,16.2,8.9,18.5,8.9
	c2.6,0,15.5,0,20.5-9.9c0.3-0.3,4-7.9,0-15.2c-5.3-9.9-20.1-7.9-21.8-7.9C297,336.8,288.1,338.1,283.5,346z"/>
<path fill="#FFFFFF" stroke="#000000" stroke-width="3" stroke-miterlimit="10" d="M292.4,348c-2,3.3-1.6,7.6,0.7,10.6
	c3.6,4.6,11.5,3.6,15.5,0c2.3-2,4.6-5.9,3.3-9.6c-1.3-3.3-5.9-4.3-7.9-4.3C302.3,344.4,295.7,343.4,292.4,348z"/>
<path fill="#2B3990" stroke="#000000" stroke-width="3" stroke-miterlimit="10" d="M243.9,357.9c0,0-4.9,10.9-7.9,21.4
	c-0.7,1.6-2.6,9.9-4,14.5c-8.2,28.7-6.3,57.4-9.2,60.4c-4.3,4-4.6,6.6-5.9,12.2c-1.3,6.6-1.3,10.2-1.6,16.2c0,3-1.6,5.3-1,7.3
	c0.7,3,5.3,4.3,8.2,4.9c1.6,0.7,9.2,1.6,15.2,1.3c6.3-0.3,13.9-3.3,13.9-3.3v-2.3c0,0,0.7-7.6,2-11.2c4-11.2,9.2-18.5,16.2-26.7
	c22.4-25.7,23.7-39.6,28.7-41.2c0,0,9.2,13.9,34.3,44.2c7.6,9.2,13.5,15.5,13.9,25.1c0,5.6-1.6,11.2,1.6,14.5
	c0.7,0.7,2,1.6,10.6,2.3c15.2,1,19.8-2,21.1-2.6c1.6-1,4.3-3,4.3-5.6s0.7-4.6,0-7.6c-1.3-7.6-0.7-9.6-4.6-16.5
	c-1.6-3-3-6.9-4.6-10.6c-3.6-7.6,0.3-29.4-4.3-50.1c-2.6-11.5-0.3-20.8-4.3-24.4c-6.3-6.3-10.9-19.8-10.9-19.8s-29.7-1.3-32.7,1
	c-8.2,5.9-6.9,9.2-22.4,9.2c-13.2,0-18.5-8.9-22.1-9.9C267,355.9,243.9,357.9,243.9,357.9z"/>
<path stroke="#000000" stroke-width="3" stroke-miterlimit="10" d="M210,501.7c0-5.3-0.3-9.9,2.3-11.2c1.3-0.7,2.6,0,6.3,1
	c4,1.3,8.2,2.6,12.2,2.6c6.6,0.3,19.1-1.3,20.1,0c3.6,4.3-4,16.8-9.6,25.7c-7.9,12.9-10.6,13.2-11.5,19.5c-1,5.9,0.7,6.9,0,20.1
	c-0.7,9.6-1.6,12.2-2.3,13.2c-1,2.3-2.6,4.9-11.2,11.5c-8.6,6.9-12.9,10.6-16.8,11.5c-1,0.3-13.9,4.3-22.8-2.6
	c-1.6-1-4.3-3.3-4.9-6.6c-0.3-1.3-1-5.6,6.3-14.5c7.3-9.2,11.9-9.6,21.1-20.1c3.6-4,5.3-5.9,6.6-8.9c3-6.6,0.7-9.6,1.6-22.1
	C208,510,210,511.6,210,501.7z"/>
<path stroke="#000000" stroke-width="3" stroke-miterlimit="10" d="M353.8,510.6c-3-5.6-7.9-15.2-4.9-17.8c1.3-1.3,3.6,0,10.6,1
	c7.6,1.3,15.8,2.3,21.1-1.6c3.6-2.6,3.6-5.6,4.9-5.6c4.3,0.3,5.9,23.4,6.3,28.4c1.3,20.1-1.3,21.4,1.6,28.4c2,4.9,4,5.3,21.1,22.8
	c12.5,12.5,15.2,16.5,14.5,20.5c-1,6.3-9.2,9.2-11.2,9.9c-9.6,3.6-18.5-0.3-20.1-1c-5.3-2.6-4.6-4.3-15.5-13.9
	c-7.9-6.9-8.6-6.3-9.9-8.9c-2.6-5.3-0.3-8.6-0.7-22.1c0-4.3,0-6.6-0.7-8.9C368.9,529.7,362,526.4,353.8,510.6z"/>
<path fill="#00A79D" stroke="#000000" stroke-width="3" stroke-miterlimit="10" d="M354.4,223.3c0,0,29,5.9,51.1,21.8
	c7.3,5.3,22.8,16.5,36.3,36.6c12.5,18.8,10.9,26.7,26.7,47.2c12.2,15.8,20.5,20.1,23.4,21.8c12.5,6.3,26.1,6.9,33,6.6
	c14.2-0.3,19.5-4.3,22.1-1c5.3,5.6-3,25.7-16.8,38.3c-6.9,6.3-17.2,11.2-37.3,21.1c-10.6,5.3-9.6,4.3-12.9,6.3
	c-18.8,11.5-16.5,23.7-30.7,33.3c-12.2,8.2-13.9,10.2-38.9,9.9c-14.8,0-24.4,8.9-27.4,5.9c-2.6-2.6,1,3.6-2.3-4.6
	c-2-5.9-4.3-9.6-6.9-15.2c-2.3-4.9,4-23.4-2-47.8c-2.6-10.9-3.3-23.1-3.3-23.1s5.9-1.6,12.2-4.6c8.2-4,10.6-11.2,15.5-19.5
	c12.9-21.1,25.4-17.2,37.3-38.3c4-7.3,7.6-13.5,6.3-21.1c-1.3-6.9-5.9-11.2-24.4-25.7c-12.9-9.9-18.5-15.2-26.7-20.1
	C371.6,241.5,353.1,225,354.4,223.3z"/>
<g>
	<path fill="#27AAE1" stroke="#000000" stroke-width="3" stroke-miterlimit="10" d="M361.4,273.1c5.9-4.3,10.6,2.6,25.7,13.2
		c11.2,7.9,19.8,10.2,19.5,13.9c0,2.6-3,1.6-4.9,6.9c-3.6,10.2-3.3,23.7-12.2,31c-6.3,4.9-14.5-1.3-22.8,4.6
		c-7.3,5.3-8.2,14.2-10.6,13.9c-2-0.3-2.3-7.3-2.6-13.2c-0.7-8.9-4-15.2-4.9-20.5c-1.6-8.9-1-16.5-0.3-19.5
		c0.7-2.6,4.6-7.3,7.6-15.2C357.7,282,359,274.8,361.4,273.1z"/>
</g>
<path fill="#00A79D" stroke="#000000" stroke-width="3" stroke-miterlimit="10" d="M343.2,472.3c-1.3,1.3-27-9.2-43.5-8.2
	c-24.7,1.3-42.2,13.5-44.2,10.6c-2.3-3.3,9.2-10.6,22.4-30c6.3-9.2,18.1-33.3,21.1-33.3c2.3,0,13.5,18.1,24.7,32
	C335,456.8,344.2,471,343.2,472.3z"/>
<path fill="#00A79D" stroke="#000000" stroke-width="3" stroke-miterlimit="10" d="M215.6,462.1c-6.6,6.9-14.5-9.2-30.7-15.2
	c-15.8-5.6-19.8,3-33.3-1.6c-19.5-6.6-14.5-25.4-37.3-38.9c-4-2.3-15.5-5.9-38.9-13.2c-19.5-6.3-22.1-6.3-23.4-9.6
	c-4.3-10.9,25.7-23.4,55.7-62.3c17.2-22.4,15.5-28.7,33-45.5c11.2-10.9,21.4-17.5,41.9-30.7c16.2-10.6,27.7-16.5,41.9-20.5
	c8.2-2.3,24.4-3.3,24.4-3.3s-7.6,7.3-23.4,18.8c-23.1,17.2-19.5,17.2-36.9,30c-19.8,14.2-29.4,17.5-30.7,27.4
	c-0.7,4.9,1.3,9.2,4.3,15.2c4.9,9.9,9.9,12.2,24.4,26.1c11.9,11.5,17.8,17.2,21.1,22.1c4.6,6.6,6.9,12.2,13.9,15.5
	c6.9,3.3,14.2-1,13.2,3.3c-1,6.3-8.6,20.8-9.2,49.5c0,6.9-0.7,14.2-2.3,22.4C222.8,456.5,219.5,458.2,215.6,462.1z"/>
<g>
	<path fill="#00A79D" stroke="#000000" stroke-width="3" stroke-miterlimit="10" d="M361.4,273.1c6.9-1.6,10.6,2.6,25.7,13.2
		c11.2,7.9,19.8,10.2,19.5,13.9c0,2.6-3,1.6-4.9,6.9c-3.6,10.2-3.3,23.7-12.2,31c-6.3,4.9-14.5-1.3-22.8,4.6
		c-7.3,5.3-8.2,14.2-10.6,13.9c-2-0.3-2.3-7.3-2.6-13.2c-0.7-8.9-4-15.2-4.9-20.5c-1.6-8.9-0.7-16.5-1-19.5
		c-0.7-4.6-0.7-15.2,4-21.4C355.1,276.7,358.4,273.8,361.4,273.1z"/>
</g>
<g>
	<path fill="#00A79D" stroke="#000000" stroke-width="3" stroke-miterlimit="10" d="M246.9,270.1c-1.6-0.7-15.2,4.9-31.3,15.5
		c-11.5,7.6-19.8,9.6-19.8,13.5c0,2.6,0,2.6,3.3,7.6c5.9,9.2,3.3,25.4,12.2,33c5.9,5.3,15.5-2.3,23.4,4c7.3,5.6,8.2,13.9,10.6,13.5
		c2-0.3,2.6-7.3,3-13.2c1-8.9,4.3-15.2,5.6-20.5c1.6-8.9,1.3-16.5,0.7-19.5c-0.7-2.6,1.3-14.8-1.3-22.4
		C250.9,275.1,249.5,271.5,246.9,270.1z"/>
</g>
<path fill="#FFF200" stroke="#000000" stroke-width="3" stroke-miterlimit="10" d="M284.5,215.7c0-0.3,0,1,2.6-0.3c2.3-1.3,2-1,2-1
	s0,3.3,1,6.3c1.3,4,6.6,5.6,8.6,5.9c2,0.3,9.6,0.3,12.2-3c2-2.6,2-8.9,2-8.9h6.9c0,0-1.6,9.6-4.3,12.9c-3.6,4.3-7.9,4.6-10.9,4.9
	c-3,0.3-9.2,1-14.5-3.3C284.8,225.3,282.8,217.7,284.5,215.7z"/>
<path fill="none" stroke="#C49A6C" stroke-width="3" stroke-miterlimit="10" d="M383.1,125.3c-0.7-0.7,1.3-3.6,4-4.9
	c3-1.3,6.6-1,6.9,0C394,122.4,384.1,127,383.1,125.3z"/>
<path fill="none" stroke="#C49A6C" stroke-width="3" stroke-miterlimit="10" d="M231.4,127.3c0.3-0.7-3-4-7.3-4.9
	c-3.3-1-7.6-1-7.9,0C216.2,124,230.7,129,231.4,127.3z"/>
<line fill="none" stroke="#000000" stroke-width="3" stroke-miterlimit="10" x1="325.4" y1="89.1" x2="325.4" y2="89.1"/>
<path stroke="#000000" stroke-width="3" stroke-miterlimit="10" d="M224.1,100.3c-1.3-4.9-3-8.6-3.6-16.8c-0.7-5.9-1-13.5,0.7-23.4
	c1.6-8.6,3-16.2,9.2-23.1c4.6-4.9,9.9-8.2,12.5-9.6c3.3-1.6,5.9-2.6,11.2-4.6c4.9-1.6,8.6-2.6,7.9-2c-1.3,1.6-9.2,10.2-9.9,23.7
	c-0.3,2.6-0.7,8.6,3,13.2c3.3,4.3,7.6,5.3,7.3,6.9c-0.3,2-6.9,0.3-12.2,4.3c-1.6,1.3-2.3,2.6-5.9,12.9c-4,12.2-4,13.5-6.6,19.5
	c-1.3,3-4.3,9.6-4.3,9.6l0,0C233.4,111.5,226.8,109.5,224.1,100.3z"/>
<path stroke="#000000" stroke-width="3" stroke-miterlimit="10" d="M277.2,9.9c4.3-2,10.9-4.9,21.1-6.6c8.2-1.3,20.5-3.3,35,0.3
	c6.6,1.6,28,6.9,37.9,24.7c7.3,12.5,4.3,16.2,6.9,34.3c0.7,4.3,17.5,9.2,11.9,35.6c-0.7,3.3-2.3,5.9-3.3,7.9
	c-3,6.3-9.9,16.5-13.2,15.5c-3.3-1,0.7-10.9-4-25.1c-1-3.3-4-12.2-11.9-19.5c-6.3-5.9-12.9-8.6-16.8-9.9c-7.3-2.6-10.2-1.6-31-2.6
	c-25.4-1-24.4-2-30-1C273,65,271.3,65,264.7,65c-5.3,0-9.6-5.6-10.6-7.3c-4.9-9.6-1.6-19.8,0-24.1c1-3.3,3.6-8.9,8.9-14.5
	C268,14.5,272.6,12.2,277.2,9.9z"/>
<path fill="none" stroke="#000000" stroke-width="3" stroke-miterlimit="10" d="M316.5,86.8c6.9-3.6,22.4-4,35.6,6.9"/>
<g>
	<path fill="none" stroke="#C49A6C" stroke-width="3" stroke-miterlimit="10" d="M305.3,142.2c-0.7-0.3-4.6-2.6-8.9-1.3
		c-4,1.3-7.6,5.3-6.9,9.6c0.7,3.3,3.3,5.6,5.9,6.3c3.3,1,6.9,0,9.6-2.6"/>
</g>
<path fill="none" stroke="#BE1E2D" stroke-width="3" stroke-miterlimit="10" d="M253.8,162.3c1.3-2.3,5.6-4.3,5.6-4.3
	s3.6,4.6,5.9,7.9c8.2,10.6,20.1,13.5,24.4,14.5c6.6,1.3,11.5,0.7,16.5,0.3c4-0.3,9.9-0.7,16.5-4c3.6-2,7.3-3.6,12.5-7.6
	c5.9-4,6.6-5.6,6.6-5.6c4-4,4.9-4.6,4.9-4.6s2,2.3,2.6,4"/>
<g>
	<path fill="#FFFFFF" stroke="#000000" stroke-width="3" stroke-miterlimit="10" d="M318.5,114.5c0-0.3-0.3-0.7,0.7-2
		c0.3-1,1-2.6,2.3-4c0.3-0.3,3-4,7.6-5.3c4.3-1.3,8.2-0.7,13.2,1.3c4.3,1.6,1.3,0.7,8.2,3.6c3.6,1.6,8.6,3,8.2,3.6
		c0,1-3.3,1.6-8.9,2.6c-7.9,1.3-8.9,1.6-12.9,2c-2,0.3-6.6-0.3-10.9-0.3C326.1,116.1,318.8,115.4,318.5,114.5z"/>
	<path fill="#3C2415" stroke="#000000" stroke-width="3" stroke-miterlimit="10" d="M328,108.5c0.7-2.6,4.3-3.6,4.9-4
		c0.7,0,5.9-1.6,8.6,2c1.3,2,1.6,4.9,0.7,6.9c-2.6,4-10.9,2-12.5-0.3c-0.3-0.7-0.7-1.3-0.7-1.3C328,110.8,327.7,109.5,328,108.5z"/>
	<path fill="#594A42" stroke="#000000" stroke-width="3" stroke-miterlimit="10" d="M333,111.2c1-1,2.6-1,3.6-1c0.7,0,4,2,4,2.3
		c-0.3,1.6-2,3-3.3,3.3c-1.6,0.7-4.3,0.3-5.3-1.3C331,112.8,332,112.1,333,111.2z"/>
</g>
<g>
	<path fill="#FFFFFF" stroke="#000000" stroke-width="3" stroke-miterlimit="10" d="M286.5,113.1c0-0.3,0-1-0.7-2
		c-0.3-1-1.3-2.3-2.6-3.6c-0.3-0.3-3.3-3.6-7.9-4.6c-4.6-1-8.2,0-12.9,2.3c-4,2-1.3,0.7-7.9,4.3c-3.6,2-8.2,3.6-7.9,4.3
		c0.3,1,3.6,1.3,8.9,2c7.9,0.7,9.2,0.7,12.9,1c2,0,6.6-0.7,10.9-1.3C279.2,115.1,286.1,114.1,286.5,113.1z"/>
	<path fill="#3C2415" stroke="#000000" stroke-width="3" stroke-miterlimit="10" d="M276.6,107.9c-1-2.6-4.6-3.3-5.3-3.3
		s-5.9-1-8.2,2.6c-1.3,2-1.3,4.9,0,6.9c3,4,10.9,1,12.5-1.3c0.3-0.7,0.7-1.3,0.7-1.3C276.9,110.5,276.9,108.9,276.6,107.9z"/>
	<path fill="#594A42" stroke="#000000" stroke-width="3" stroke-miterlimit="10" d="M272,110.8c-1.3-1-3-0.7-3.6-0.7
		c-0.7,0.3-4,2.3-3.6,2.6c0.7,1.6,2.3,2.6,3.6,3c1.6,0.3,4.3,0,5.3-1.6C273.9,112.5,273,111.8,272,110.8z"/>
</g>
<path fill="none" stroke="#000000" stroke-width="3" stroke-miterlimit="10" d="M249.9,89.1c5.9-5.3,21.1-8.9,36.6-1"/>
<g>
	
		<image overflow="visible" opacity="0.75" enable-background="new    " width="771" height="913" xlink:href="../boy1/44CDFADD9178A04.png"  transform="matrix(0.237 0 0 0.237 323.1859 204.7302)">
	</image>
	<g>
		<g>
			<path fill="#FFDE11" d="M408.1,259.6c0.4-2.2,3.4-5,4.9-5.4c1.8-0.5,2.4,0.3,2.6,0.1c0.4-0.4,0.1-0.1,0.1-1.8
				c-0.1-2.5,3.6-5,6.7-5.9c4-1.1,10-0.4,11.7,3.4c1,2.2,0,4.5-0.2,5.1c-1.4,3.1-4.9,4.4-7.5,4.4c-3.3,0-4-1.9-6.8-1.8
				c-3.1,0.2-8.5,1.9-9.6,4.2c-0.4,0.9,0,1.8-0.3,1.9C409.1,264,407.7,261.8,408.1,259.6L408.1,259.6z"/>
			<path fill="none" stroke="#231F20" stroke-width="0.3562" stroke-miterlimit="10" d="M408.1,259.6c0.4-2.2,3.4-5,4.9-5.4
				c1.8-0.5,2.4,0.3,2.6,0.1c0.4-0.4,0.1-0.1,0.1-1.8c-0.1-2.5,3.6-5,6.7-5.9c4-1.1,10-0.4,11.7,3.4c1,2.2,0,4.5-0.2,5.1
				c-1.4,3.1-4.9,4.4-7.5,4.4c-3.3,0-4-1.9-6.8-1.8c-3.1,0.2-8.5,1.9-9.6,4.2c-0.4,0.9,0,1.8-0.3,1.9
				C409.1,264,407.7,261.8,408.1,259.6L408.1,259.6z"/>
			<path fill="#FFDE11" d="M404.3,246c-1.8,1.5-1.7,4.7,0.3,6.1c1.7,1.2,4.3,0.8,5.5-0.9c1-1.5,0.7-3.4-0.4-4.7
				C408.2,244.9,405.7,244.7,404.3,246L404.3,246z"/>
			<path fill="none" stroke="#231F20" stroke-width="0.3562" stroke-miterlimit="10" d="M404.3,246c-1.8,1.5-1.7,4.7,0.3,6.1
				c1.7,1.2,4.3,0.8,5.5-0.9c1-1.5,0.7-3.4-0.4-4.7C408.2,244.9,405.7,244.7,404.3,246L404.3,246z"/>
			<path fill="#FFDE11" d="M374.1,261c-1.3-3,1.9-7.4,1.9-7.4c0.3-0.7,0.6-1.1,0.8-1.3c1.5-1.8,3.7-2.3,4.8-2.5
				c3.1-0.6,7-0.9,8.6-0.3c2.4,0.8,3.3,2.7,3.8,4.5c0.5,1.8-1.1,3.3-0.4,4.1c0.7,0.8,2.4-0.6,4.6,0.2c1.6,0.5,3.1,2,3.3,3.7
				c0.2,1.2-0.3,2.2-0.6,2.6C398,269.1,376.6,266.8,374.1,261L374.1,261z"/>
			<path fill="none" stroke="#231F20" stroke-width="0.3562" stroke-miterlimit="10" d="M374.1,261c-1.3-3,1.9-7.4,1.9-7.4
				c0.3-0.7,0.6-1.1,0.8-1.3c1.5-1.8,3.7-2.3,4.8-2.5c3.1-0.6,7-0.9,8.6-0.3c2.4,0.8,3.3,2.7,3.8,4.5c0.5,1.8-1.1,3.3-0.4,4.1
				c0.7,0.8,2.4-0.6,4.6,0.2c1.6,0.5,3.1,2,3.3,3.7c0.2,1.2-0.3,2.2-0.6,2.6C398,269.1,376.6,266.8,374.1,261L374.1,261z"/>
			<path fill="#FCEE23" d="M380,246.8c2.9-0.9,4.8,1.8,6.5,0.8c1.6-1,0.2-3.5,1.9-5.6c1.9-2.3,6.1-2.1,8.4-1.4
				c0.3,0.1,5.7,1.7,6.9,6.4c0.2,0.8,1.5,3.1,0.4,4.6c-1.4,1.9-4,1.1-5.2,3.1c-0.8,1.3-0.8,2.1-1.9,3.3c-0.1,0.1-1.8,0-2.5,0.4
				c-2,1.2,0.2-2.8-1.3-6c-1.6-3.4-7.8-2.2-8.2-2.2c-4.8,0.7-7.6,4.3-8.6,3.3c-0.4-0.4-0.3-1.1-0.1-2
				C376.4,249.6,377.9,247.4,380,246.8L380,246.8z"/>
			<path fill="none" stroke="#231F20" stroke-width="0.3562" stroke-miterlimit="10" d="M380,246.8c2.9-0.9,4.8,1.8,6.5,0.8
				c1.6-1,0.2-3.5,1.9-5.6c1.9-2.3,6.1-2.1,8.4-1.4c0.3,0.1,5.7,1.7,6.9,6.4c0.2,0.8,1.5,3.1,0.4,4.6c-1.4,1.9-4,1.1-5.2,3.1
				c-0.8,1.3-0.8,2.1-1.9,3.3c-0.1,0.1-1.8,0-2.5,0.4c-2,1.2,0.2-2.8-1.3-6c-1.6-3.4-7.8-2.2-8.2-2.2c-4.8,0.7-7.6,4.3-8.6,3.3
				c-0.4-0.4-0.3-1.1-0.1-2C376.4,249.6,377.9,247.4,380,246.8L380,246.8z"/>
			<path fill="#FFDE11" d="M374.5,249.8c-1.3-1.1-3.1,0.5-4.9-0.5c-1.5-0.9-2.2-3-1.9-4.8c0.4-2.6,2.8-4.8,5.4-4.6
				c2.1,0.2,3.4,1.9,3.6,2.2c0-0.9,0.1-2.6,1.3-4.2c0,0,0.4-0.5,0.8-0.9c1.6-1.6,4.6-2.4,7.4-2c2.4,0.4,6.6,2.1,7.1,5.4
				c0.5,3.6-3.6,7.2-7.2,7.5c-3,0.4-4.3-1.8-6.5-0.9c-3,1.3-3.4,6.9-4.1,6.7C375,253.8,375.8,250.9,374.5,249.8L374.5,249.8z"/>
			<path fill="none" stroke="#231F20" stroke-width="0.3562" stroke-miterlimit="10" d="M374.5,249.8c-1.3-1.1-3.1,0.5-4.9-0.5
				c-1.5-0.9-2.2-3-1.9-4.8c0.4-2.6,2.8-4.8,5.4-4.6c2.1,0.2,3.4,1.9,3.6,2.2c0-0.9,0.1-2.6,1.3-4.2c0,0,0.4-0.5,0.8-0.9
				c1.6-1.6,4.6-2.4,7.4-2c2.4,0.4,6.6,2.1,7.1,5.4c0.5,3.6-3.6,7.2-7.2,7.5c-3,0.4-4.3-1.8-6.5-0.9c-3,1.3-3.4,6.9-4.1,6.7
				C375,253.8,375.8,250.9,374.5,249.8L374.5,249.8z"/>
			<path fill="#FCEE23" d="M381.8,231.6c2.5-1,4.6,1.4,6.2,0.3c1.5-1,0.3-3.3,1.9-5.1c2-2.2,6.2-1.3,7-1.1c4.1,0.9,7.6,4.1,7.2,5.5
				c-0.6,1.7-6.8-0.7-9.9,2.8c-1.3,1.5-1,2.7-2.3,3.2c-2.2,0.9-4.1-2.4-7.6-2.2c-3.1,0.1-4.7,2.6-5.4,2.1
				C378,236.3,379.3,232.6,381.8,231.6L381.8,231.6z"/>
			<path fill="none" stroke="#231F20" stroke-width="0.3562" stroke-miterlimit="10" d="M381.8,231.6c2.5-1,4.6,1.4,6.2,0.3
				c1.5-1,0.3-3.3,1.9-5.1c2-2.2,6.2-1.3,7-1.1c4.1,0.9,7.6,4.1,7.2,5.5c-0.6,1.7-6.8-0.7-9.9,2.8c-1.3,1.5-1,2.7-2.3,3.2
				c-2.2,0.9-4.1-2.4-7.6-2.2c-3.1,0.1-4.7,2.6-5.4,2.1C378,236.3,379.3,232.6,381.8,231.6L381.8,231.6z"/>
			<path fill="#FFDE11" d="M392.8,240c1.6,1.6,3.6,0.2,6.1,1.9c1.9,1.3,1.4,2.5,3.3,3.7c2.3,1.4,4.9,1,5.7,0.9
				c1.1-0.2,3.8-0.6,5.3-2.9c0.8-1.3,1.5-4.3,0.6-5.2c-1.1-1-3.1,1.4-4.8,0.4c-2-1.2-0.6-4.6-3.2-7c-0.9-0.8-1.8-1.1-2.6-1.3
				c-4.1-1.2-9.9,0.5-11.2,4.5C391.4,236.5,391.5,238.7,392.8,240L392.8,240z"/>
			<path fill="none" stroke="#231F20" stroke-width="0.3562" stroke-miterlimit="10" d="M392.8,240c1.6,1.6,3.6,0.2,6.1,1.9
				c1.9,1.3,1.4,2.5,3.3,3.7c2.3,1.4,4.9,1,5.7,0.9c1.1-0.2,3.8-0.6,5.3-2.9c0.8-1.3,1.5-4.3,0.6-5.2c-1.1-1-3.1,1.4-4.8,0.4
				c-2-1.2-0.6-4.6-3.2-7c-0.9-0.8-1.8-1.1-2.6-1.3c-4.1-1.2-9.9,0.5-11.2,4.5C391.4,236.5,391.5,238.7,392.8,240L392.8,240z"/>
			<g>
				<g>
					<defs>
						
							<rect id="SVGID_1_" x="324.3" y="241.8" transform="matrix(-0.1063 0.9943 -0.9943 -0.1063 747.6462 -67.1292)" width="159.3" height="121.2"/>
					</defs>
					<clipPath id="SVGID_2_">
						<use xlink:href="#SVGID_1_"  overflow="visible"/>
					</clipPath>
					<path clip-path="url(#SVGID_2_)" fill="#F8ED34" d="M402.6,227.2c1.2-2.7,4.9-3.4,6.2-3.6c1.6-0.3,5.4-0.9,7.4,1.2
						c2.1,2.2,1,5.8,2.4,6.2c0.9,0.2,1.5-1.3,3.1-1.3c1.2,0,2.6,1,2.9,2.2s-0.6,2.5-1.5,3.2c-2.6,2.1-6.2-0.3-8.4,1.9
						c-0.7,0.7-0.6,1.2-1.5,1.8c-1.2,0.7-3.2,0.9-4.4-0.1c-2-1.5-0.4-4.1-2.5-6.2c-1.5-1.5-3.1-1.1-3.8-2.6
						C401.9,228.7,402.5,227.5,402.6,227.2L402.6,227.2z"/>
				</g>
				<g>
					<defs>
						
							<rect id="SVGID_3_" x="324.3" y="241.8" transform="matrix(-0.1063 0.9943 -0.9943 -0.1063 747.6462 -67.1292)" width="159.3" height="121.2"/>
					</defs>
					<clipPath id="SVGID_4_">
						<use xlink:href="#SVGID_3_"  overflow="visible"/>
					</clipPath>
					<path clip-path="url(#SVGID_4_)" fill="none" stroke="#231F20" stroke-width="0.3562" stroke-miterlimit="10" d="M402.6,227.2
						c1.2-2.7,4.9-3.4,6.2-3.6c1.6-0.3,5.4-0.9,7.4,1.2c2.1,2.2,1,5.8,2.4,6.2c0.9,0.2,1.5-1.3,3.1-1.3c1.2,0,2.6,1,2.9,2.2
						s-0.6,2.5-1.5,3.2c-2.6,2.1-6.2-0.3-8.4,1.9c-0.7,0.7-0.6,1.2-1.5,1.8c-1.2,0.7-3.2,0.9-4.4-0.1c-2-1.5-0.4-4.1-2.5-6.2
						c-1.5-1.5-3.1-1.1-3.8-2.6C401.9,228.7,402.5,227.5,402.6,227.2L402.6,227.2z"/>
				</g>
			</g>
			<path fill="#F8ED34" d="M399.9,265.9c1.2,1.9,8.7,1.2,9.4-0.6c0-0.1,0.7,0.5,0.7,0.1c-0.2-2.2-1.7-3.1-1.9-4.4
				c-0.2-1.7,1.1-3.7,2.3-4.8c1.8-1.6,3.1-1.7,3.1-2.5c0-1.1-2.5-2-4.4-2.3c-2-0.3-3.5,0.2-5.5,0.8c-2.5,0.8-3.7,1.1-4.7,2.3
				c-0.9,1.1-1.8,3.2-1,4.4c0.9,1.5,2.6,0.9,3.5,2.4C402.3,262.9,399,264.6,399.9,265.9L399.9,265.9z"/>
			<path fill="none" stroke="#231F20" stroke-width="0.3562" stroke-miterlimit="10" d="M399.9,265.9c1.2,1.9,8.7,1.2,9.4-0.6
				c0-0.1,0.7,0.5,0.7,0.1c-0.2-2.2-1.7-3.1-1.9-4.4c-0.2-1.7,1.1-3.7,2.3-4.8c1.8-1.6,3.1-1.7,3.1-2.5c0-1.1-2.5-2-4.4-2.3
				c-2-0.3-3.5,0.2-5.5,0.8c-2.5,0.8-3.7,1.1-4.7,2.3c-0.9,1.1-1.8,3.2-1,4.4c0.9,1.5,2.6,0.9,3.5,2.4
				C402.3,262.9,399,264.6,399.9,265.9L399.9,265.9z"/>
			<path fill="#FCEE23" d="M411.7,260.2c1.6-1.1,3.1-1.6,5.5-2c2.1-0.4,3.1-0.2,4.5-0.3c0.7-0.1,5.5,0.3,6,4.3
				c0,0.3,0.9,2.7-0.3,3.8c-1.2,1.2-3.2-0.4-7.4-0.7c-5.4-0.4-8.9,1.8-9.9,0.2c-0.4-0.6,0.1-1.3-0.2-2
				C409.1,261.9,411,260.7,411.7,260.2L411.7,260.2z"/>
			<path fill="none" stroke="#231F20" stroke-width="0.3562" stroke-miterlimit="10" d="M411.7,260.2c1.6-1.1,3.1-1.6,5.5-2
				c2.1-0.4,3.1-0.2,4.5-0.3c0.7-0.1,5.5,0.3,6,4.3c0,0.3,0.9,2.7-0.3,3.8c-1.2,1.2-3.2-0.4-7.4-0.7c-5.4-0.4-8.9,1.8-9.9,0.2
				c-0.4-0.6,0.1-1.3-0.2-2C409.1,261.9,411,260.7,411.7,260.2L411.7,260.2z"/>
			<path fill="#FFDE11" d="M425.6,266.1c0-0.5,1.6-1.4,2.2-1.5c2.2-0.6,4,0.7,4.2,0.8c0.8,0.6,3.5,2.8,3.1,3.4
				C434.3,270,425.4,267.4,425.6,266.1L425.6,266.1z"/>
			<path fill="none" stroke="#231F20" stroke-width="0.3562" stroke-miterlimit="10" d="M425.6,266.1c0-0.5,1.6-1.4,2.2-1.5
				c2.2-0.6,4,0.7,4.2,0.8c0.8,0.6,3.5,2.8,3.1,3.4C434.3,270,425.4,267.4,425.6,266.1L425.6,266.1z"/>
			<path fill="#FFDE11" d="M434.2,255.4c0.9-0.1,3.6-0.4,6.6,1.1c1.3,0.7,3.5,1.8,4.3,4c1.1,2.9-1,5.7,0.1,6.5
				c0.7,0.5,1.5-0.6,3.4-0.5c1.8,0.1,3.8,1.2,3.7,1.9c-0.1,1.6-9.3,3.8-17.1,0.7c-1.6-0.6-3-4.5-6.4-4.5c-2.3,0-2.4-2.6-2.1-4.4
				C427.3,257.3,431.6,255.7,434.2,255.4L434.2,255.4z"/>
			<path fill="none" stroke="#231F20" stroke-width="0.3562" stroke-miterlimit="10" d="M434.2,255.4c0.9-0.1,3.6-0.4,6.6,1.1
				c1.3,0.7,3.5,1.8,4.3,4c1.1,2.9-1,5.7,0.1,6.5c0.7,0.5,1.5-0.6,3.4-0.5c1.8,0.1,3.8,1.2,3.7,1.9c-0.1,1.6-9.3,3.8-17.1,0.7
				c-1.6-0.6-3-4.5-6.4-4.5c-2.3,0-2.4-2.6-2.1-4.4C427.3,257.3,431.6,255.7,434.2,255.4L434.2,255.4z"/>
			<path fill="#FFDE11" d="M435.5,243.1c1-1.2,7.7,1,8.8,5c0.6,2.3-1.1,3.7-0.1,5.8c1.1,2.1,3.5,1.5,4.6,3.5c1.2,2.3-0.1,6.2-2.5,7
				c-1.1,0.4-2.1,0-2.5-0.2c-3.2-1.3-2.5-5.1-5.7-7.5c-2.8-2.2-6.2-0.3-6.5-1.4c-0.4-1.5,4.5-3,5.8-5.6
				C438.9,247,434.7,244.1,435.5,243.1L435.5,243.1z"/>
			<path fill="none" stroke="#231F20" stroke-width="0.3562" stroke-miterlimit="10" d="M435.5,243.1c1-1.2,7.7,1,8.8,5
				c0.6,2.3-1.1,3.7-0.1,5.8c1.1,2.1,3.5,1.5,4.6,3.5c1.2,2.3-0.1,6.2-2.5,7c-1.1,0.4-2.1,0-2.5-0.2c-3.2-1.3-2.5-5.1-5.7-7.5
				c-2.8-2.2-6.2-0.3-6.5-1.4c-0.4-1.5,4.5-3,5.8-5.6C438.9,247,434.7,244.1,435.5,243.1L435.5,243.1z"/>
			<path fill="#FFDE11" d="M421.8,235.6c-0.5-1.6,3.1-4.5,5.3-5.5c4.2-2,8.7,0.6,9.6,1.1c1.2,0.8,4.1,2.5,4.4,5.2
				c0.3,2.6-1.7,4.6-0.9,5.5c0.6,0.6,1.6-0.4,3.1,0c2.3,0.7,3.1,4.1,3.3,6c0.1,1.7-0.8,6.6-1.4,6.9c-2.5,1.5-1.4-7.1-4-9.8
				c-1.4-1.5-2.7,0-5.7-1.4c-1.8-0.8-3.1,0-4.4,0.1c-1.9,0.1-1.9,0.5-2.7,0.2c-1-0.4,0.3-3.4-1.2-5.7
				C425.9,236.2,422.3,237.1,421.8,235.6L421.8,235.6z"/>
			<path fill="none" stroke="#231F20" stroke-width="0.3562" stroke-miterlimit="10" d="M421.8,235.6c-0.5-1.6,3.1-4.5,5.3-5.5
				c4.2-2,8.7,0.6,9.6,1.1c1.2,0.8,4.1,2.5,4.4,5.2c0.3,2.6-1.7,4.6-0.9,5.5c0.6,0.6,1.6-0.4,3.1,0c2.3,0.7,3.1,4.1,3.3,6
				c0.1,1.7-0.8,6.6-1.4,6.9c-2.5,1.5-1.4-7.1-4-9.8c-1.4-1.5-2.7,0-5.7-1.4c-1.8-0.8-3.1,0-4.4,0.1c-1.9,0.1-1.9,0.5-2.7,0.2
				c-1-0.4,0.3-3.4-1.2-5.7C425.9,236.2,422.3,237.1,421.8,235.6L421.8,235.6z"/>
			<path fill="#FCEE23" d="M445.3,254.3c0-1.3,0.2-5.2,1.3-5.6c2.5-0.9,6.6,2.6,7.7,3.3c2.7,1.5,6.2,4.8,5.6,7.6
				c-0.4,1.8-2,2.3-1.7,3.4c0.4,1.3,3.1,0.6,4.9,2.3c1.4,1.4,2.1,4.1,1.1,5.6c-2,3-11.5,1.7-13.8-2.3c-0.4-0.6-0.7-1.5-1.6-2
				c-1.9-1-3.3,1-4,0.1c-0.4-0.5-1-2-0.4-2.6c1.7-1.8,2.7-0.4,3.9-1.8c0.9-1.1,1.2-1.9,0.7-4C448.3,255,445.3,255.9,445.3,254.3
				L445.3,254.3z"/>
			<path fill="none" stroke="#231F20" stroke-width="0.3562" stroke-miterlimit="10" d="M445.3,254.3c0-1.3,0.2-5.2,1.3-5.6
				c2.5-0.9,6.6,2.6,7.7,3.3c2.7,1.5,6.2,4.8,5.6,7.6c-0.4,1.8-2,2.3-1.7,3.4c0.4,1.3,3.1,0.6,4.9,2.3c1.4,1.4,2.1,4.1,1.1,5.6
				c-2,3-11.5,1.7-13.8-2.3c-0.4-0.6-0.7-1.5-1.6-2c-1.9-1-3.3,1-4,0.1c-0.4-0.5-1-2-0.4-2.6c1.7-1.8,2.7-0.4,3.9-1.8
				c0.9-1.1,1.2-1.9,0.7-4C448.3,255,445.3,255.9,445.3,254.3L445.3,254.3z"/>
			<path fill="#FCEE23" d="M413.8,241.7c1.4-1.7-1-2.3,0.4-4.4c1.3-2,6.7-1.5,8.3-1.5c0.7,0,6.6,0.1,8,3.4c0.9,2-0.1,4.2,0.6,4.5
				c0.8,0.3,1.6-1.8,3.3-1.9c1.8-0.1,3.4,2.2,4,3.8c0.7,1.7,1.2,4.8-0.6,6.2c-0.8,0.6-2,0.9-3,0.6c-2.3-0.6-1.9-3.6-4.3-5.1
				c-2.7-1.6-8.5-1.3-11.5,0.4c-2.8,1.6-1.3,5.8-3.6,6.7c-1,0.4-2.1,0.1-2.6-0.1c-2.4-0.7-3.3-2.8-3.4-3.1c-0.7-1.7-0.7-4,0.6-5.3
				C411.8,244.1,412.4,243.3,413.8,241.7L413.8,241.7z"/>
			<path fill="none" stroke="#231F20" stroke-width="0.3562" stroke-miterlimit="10" d="M413.8,241.7c1.4-1.7-1-2.3,0.4-4.4
				c1.3-2,6.7-1.5,8.3-1.5c0.7,0,6.6,0.1,8,3.4c0.9,2-0.1,4.2,0.6,4.5c0.8,0.3,1.6-1.8,3.3-1.9c1.8-0.1,3.4,2.2,4,3.8
				c0.7,1.7,1.2,4.8-0.6,6.2c-0.8,0.6-2,0.9-3,0.6c-2.3-0.6-1.9-3.6-4.3-5.1c-2.7-1.6-8.5-1.3-11.5,0.4c-2.8,1.6-1.3,5.8-3.6,6.7
				c-1,0.4-2.1,0.1-2.6-0.1c-2.4-0.7-3.3-2.8-3.4-3.1c-0.7-1.7-0.7-4,0.6-5.3C411.8,244.1,412.4,243.3,413.8,241.7L413.8,241.7z"/>
			<path fill="#FCEE23" d="M349.7,259.4c-0.8-1.8,0.1-4.5,1.6-5.7c2.2-1.8,4.7,0.5,7.2-1.2c2.5-1.7,1.2-4.9,4.2-6.9
				c1.5-1.1,3.8-1.6,4.9-0.7c1.1,0.9,0.1,2.6,1.2,3.9c1.4,1.6,3.9-0.1,5.7,1.4c1.1,1,1.2,2.6,1.4,5.3c0.1,1.9,0.2,2.9-0.4,3.8
				c-1.2,1.9-4.2,2-6.1,2C357,261.5,350.7,261.5,349.7,259.4L349.7,259.4z"/>
			<g>
				<g>
					<defs>
						
							<rect id="SVGID_5_" x="324.3" y="241.8" transform="matrix(-0.1063 0.9943 -0.9943 -0.1063 747.6462 -67.1292)" width="159.3" height="121.2"/>
					</defs>
					<clipPath id="SVGID_6_">
						<use xlink:href="#SVGID_5_"  overflow="visible"/>
					</clipPath>
					<path clip-path="url(#SVGID_6_)" fill="none" stroke="#231F20" stroke-width="0.3562" stroke-miterlimit="10" d="M349.7,259.4
						c-0.8-1.8,0.1-4.5,1.6-5.7c2.2-1.8,4.7,0.5,7.2-1.2c2.5-1.7,1.2-4.9,4.2-6.9c1.5-1.1,3.8-1.6,4.9-0.7s0.1,2.6,1.2,3.9
						c1.4,1.6,3.9-0.1,5.7,1.4c1.1,1,1.2,2.6,1.4,5.3c0.1,1.9,0.2,2.9-0.4,3.8c-1.2,1.9-4.2,2-6.1,2
						C357,261.5,350.7,261.5,349.7,259.4L349.7,259.4z"/>
				</g>
			</g>
			<path fill="#EC2227" d="M349.1,260.3l-1.9,39.3c0,0-3.2,52.8-5,74.8l105.6,11.3c4.3-20.1,10.7-59.5,10.7-59.5l8.1-53.3
				c0,0-10.4-2.4-13.9-2.5c-4.1-0.2-12.1,1.1-16.3,0.4c-4.4-0.7-11.8-3.6-17.1-4.2c-5.1-0.6-15.5,1.3-20.5,0.4
				c-4.2-0.8-12.2-4.8-16.4-5.1c-6-0.4-18,1.2-23.9,0.6C356.2,262.3,349.1,260.3,349.1,260.3L349.1,260.3z"/>
			<g>
				<g>
					<defs>
						
							<rect id="SVGID_7_" x="324.3" y="241.8" transform="matrix(-0.1063 0.9943 -0.9943 -0.1063 747.6462 -67.1292)" width="159.3" height="121.2"/>
					</defs>
					<clipPath id="SVGID_8_">
						<use xlink:href="#SVGID_7_"  overflow="visible"/>
					</clipPath>
					<path clip-path="url(#SVGID_8_)" fill="none" stroke="#EC2227" stroke-width="2.85" stroke-miterlimit="10" d="M349.1,260.3
						l-1.9,39.3c0,0-3.2,52.8-5,74.8l105.6,11.3c4.3-20.1,10.7-59.5,10.7-59.5l8.1-53.3c0,0-10.4-2.4-13.9-2.5
						c-4.1-0.2-12.1,1.1-16.3,0.4c-4.4-0.7-11.8-3.6-17.1-4.2c-5.1-0.6-15.5,1.3-20.5,0.4c-4.2-0.8-12.2-4.8-16.4-5.1
						c-6-0.4-18,1.2-23.9,0.6C356.2,262.3,349.1,260.3,349.1,260.3L349.1,260.3z"/>
				</g>
			</g>
			<polygon fill="#FFFFFF" points="347.5,376.1 341.2,375.4 352.9,261.3 359.7,262.4 			"/>
			<g>
				<g>
					<defs>
						
							<rect id="SVGID_9_" x="324.3" y="241.8" transform="matrix(-0.1063 0.9943 -0.9943 -0.1063 747.6462 -67.1292)" width="159.3" height="121.2"/>
					</defs>
					<clipPath id="SVGID_10_">
						<use xlink:href="#SVGID_9_"  overflow="visible"/>
					</clipPath>
					<polygon clip-path="url(#SVGID_10_)" fill="none" stroke="#FFFFFF" stroke-width="0.3562" stroke-miterlimit="10" points="
						347.5,376.1 341.2,375.4 352.9,261.3 359.7,262.4 					"/>
				</g>
			</g>
			<polygon fill="#FFFFFF" points="359.7,377.4 353.4,376.7 365.6,262.4 372,262.2 			"/>
			<g>
				<g>
					<defs>
						
							<rect id="SVGID_11_" x="324.3" y="241.8" transform="matrix(-0.1063 0.9943 -0.9943 -0.1063 747.6462 -67.1292)" width="159.3" height="121.2"/>
					</defs>
					<clipPath id="SVGID_12_">
						<use xlink:href="#SVGID_11_"  overflow="visible"/>
					</clipPath>
					<polygon clip-path="url(#SVGID_12_)" fill="none" stroke="#FFFFFF" stroke-width="0.3562" stroke-miterlimit="10" points="
						359.7,377.4 353.4,376.7 365.6,262.4 372,262.2 					"/>
				</g>
			</g>
			<polygon fill="#FFFFFF" points="371.9,378.7 365.5,378 377.9,261.9 384.3,262.1 			"/>
			<g>
				<g>
					<defs>
						
							<rect id="SVGID_13_" x="324.3" y="241.8" transform="matrix(-0.1063 0.9943 -0.9943 -0.1063 747.6462 -67.1292)" width="159.3" height="121.2"/>
					</defs>
					<clipPath id="SVGID_14_">
						<use xlink:href="#SVGID_13_"  overflow="visible"/>
					</clipPath>
					<polygon clip-path="url(#SVGID_14_)" fill="none" stroke="#FFFFFF" stroke-width="0.3562" stroke-miterlimit="10" points="
						371.9,378.7 365.5,378 377.9,261.9 384.3,262.1 					"/>
				</g>
			</g>
			<polygon fill="#FFFFFF" points="384,380 377.6,379.4 389.9,264.1 396.1,266.2 			"/>
			<g>
				<g>
					<defs>
						
							<rect id="SVGID_15_" x="324.3" y="241.8" transform="matrix(-0.1063 0.9943 -0.9943 -0.1063 747.6462 -67.1292)" width="159.3" height="121.2"/>
					</defs>
					<clipPath id="SVGID_16_">
						<use xlink:href="#SVGID_15_"  overflow="visible"/>
					</clipPath>
					<polygon clip-path="url(#SVGID_16_)" fill="none" stroke="#FFFFFF" stroke-width="0.3562" stroke-miterlimit="10" points="
						384,380 377.6,379.4 389.9,264.1 396.1,266.2 					"/>
				</g>
			</g>
			<polygon fill="#FFFFFF" points="395.8,381.3 389.6,380.6 401.7,267.2 408.3,266.4 			"/>
			<g>
				<g>
					<defs>
						
							<rect id="SVGID_17_" x="324.3" y="241.8" transform="matrix(-0.1063 0.9943 -0.9943 -0.1063 747.6462 -67.1292)" width="159.3" height="121.2"/>
					</defs>
					<clipPath id="SVGID_18_">
						<use xlink:href="#SVGID_17_"  overflow="visible"/>
					</clipPath>
					<polygon clip-path="url(#SVGID_18_)" fill="none" stroke="#FFFFFF" stroke-width="0.3562" stroke-miterlimit="10" points="
						395.8,381.3 389.6,380.6 401.7,267.2 408.3,266.4 					"/>
				</g>
			</g>
			<polygon fill="#FFFFFF" points="408.1,382.6 401.9,382 413.9,266.6 420.5,266.7 			"/>
			<g>
				<g>
					<defs>
						
							<rect id="SVGID_19_" x="324.3" y="241.8" transform="matrix(-0.1063 0.9943 -0.9943 -0.1063 747.6462 -67.1292)" width="159.3" height="121.2"/>
					</defs>
					<clipPath id="SVGID_20_">
						<use xlink:href="#SVGID_19_"  overflow="visible"/>
					</clipPath>
					<polygon clip-path="url(#SVGID_20_)" fill="none" stroke="#FFFFFF" stroke-width="0.3562" stroke-miterlimit="10" points="
						408.1,382.6 401.9,382 413.9,266.6 420.5,266.7 					"/>
				</g>
			</g>
			<polygon fill="#FFFFFF" points="420.5,383.9 414.2,383.2 426.5,268.1 432.7,269.8 			"/>
			<g>
				<g>
					<defs>
						
							<rect id="SVGID_21_" x="324.3" y="241.8" transform="matrix(-0.1063 0.9943 -0.9943 -0.1063 747.6462 -67.1292)" width="159.3" height="121.2"/>
					</defs>
					<clipPath id="SVGID_22_">
						<use xlink:href="#SVGID_21_"  overflow="visible"/>
					</clipPath>
					<polygon clip-path="url(#SVGID_22_)" fill="none" stroke="#FFFFFF" stroke-width="0.3562" stroke-miterlimit="10" points="
						420.5,383.9 414.2,383.2 426.5,268.1 432.7,269.8 					"/>
				</g>
			</g>
			<polygon fill="#FFFFFF" points="432.9,385.2 426.6,384.5 438.7,270.9 445.1,270.7 			"/>
			<g>
				<g>
					<defs>
						
							<rect id="SVGID_23_" x="324.3" y="241.8" transform="matrix(-0.1063 0.9943 -0.9943 -0.1063 747.6462 -67.1292)" width="159.3" height="121.2"/>
					</defs>
					<clipPath id="SVGID_24_">
						<use xlink:href="#SVGID_23_"  overflow="visible"/>
					</clipPath>
					<polygon clip-path="url(#SVGID_24_)" fill="none" stroke="#FFFFFF" stroke-width="0.3562" stroke-miterlimit="10" points="
						432.9,385.2 426.6,384.5 438.7,270.9 445.1,270.7 					"/>
				</g>
			</g>
			<polygon fill="#FFFFFF" points="445,386.5 438.7,385.8 451,270.3 457.3,271 			"/>
			<g>
				<g>
					<defs>
						
							<rect id="SVGID_25_" x="324.3" y="241.8" transform="matrix(-0.1063 0.9943 -0.9943 -0.1063 747.6462 -67.1292)" width="159.3" height="121.2"/>
					</defs>
					<clipPath id="SVGID_26_">
						<use xlink:href="#SVGID_25_"  overflow="visible"/>
					</clipPath>
					<polygon clip-path="url(#SVGID_26_)" fill="none" stroke="#FFFFFF" stroke-width="0.3562" stroke-miterlimit="10" points="
						445,386.5 438.7,385.8 451,270.3 457.3,271 					"/>
				</g>
			</g>
			<polygon fill="#FFFFFF" points="459,328.5 452.5,365 462.5,272 466.6,272.8 			"/>
			<g>
				<g>
					<defs>
						
							<rect id="SVGID_27_" x="324.3" y="241.8" transform="matrix(-0.1063 0.9943 -0.9943 -0.1063 747.6462 -67.1292)" width="159.3" height="121.2"/>
					</defs>
					<clipPath id="SVGID_28_">
						<use xlink:href="#SVGID_27_"  overflow="visible"/>
					</clipPath>
					<polygon clip-path="url(#SVGID_28_)" fill="none" stroke="#FFFFFF" stroke-width="0.3562" stroke-miterlimit="10" points="
						459,328.5 452.5,365 462.5,272 466.6,272.8 					"/>
				</g>
			</g>
			
				<text transform="matrix(0.9943 0.1063 -0.1063 0.9943 365.1064 296.8357)" fill="#231F20" font-family="'Monaco'" font-size="19.4632">POPCORN</text>
			<g>
				<g>
					<defs>
						
							<rect id="SVGID_29_" x="324.3" y="241.8" transform="matrix(-0.1063 0.9943 -0.9943 -0.1063 747.6462 -67.1292)" width="159.3" height="121.2"/>
					</defs>
					<clipPath id="SVGID_30_">
						<use xlink:href="#SVGID_29_"  overflow="visible"/>
					</clipPath>
					<g clip-path="url(#SVGID_30_)">
						
							<text transform="matrix(0.9943 0.1063 -0.1063 0.9943 365.1063 296.8362)" fill="none" stroke="#231F20" stroke-width="0.3563" stroke-miterlimit="10" font-family="'Monaco'" font-size="19.4632">POPCORN</text>
					</g>
				</g>
			</g>
		</g>
	</g>
</g>
</svg>
