<?xml version="1.0" encoding="utf-8"?>
<!-- Generator: Adobe Illustrator 18.1.0, SVG Export Plug-In . SVG Version: 6.00 Build 0)  -->
<!DOCTYPE svg PUBLIC "-//W3C//DTD SVG 1.1//EN" "http://www.w3.org/Graphics/SVG/1.1/DTD/svg11.dtd">
<svg version="1.1" xmlns="http://www.w3.org/2000/svg" xmlns:xlink="http://www.w3.org/1999/xlink" x="0px" y="0px"
	 viewBox="0 0 200 200" enable-background="new 0 0 200 200" xml:space="preserve">
<g id="Layer_1">
	<g>
		<path stroke="#000000" stroke-miterlimit="10" d="M59.8,100.5c1-0.3,3.1-0.4,4.9,0.4c4.6,2.2,2.9,11.9,6.7,13
			c1.2,0.4,1.9-0.5,4.4,0c1.2,0.2,2.7,0.5,3.7,1.9c1.2,1.6,0.8,3.8,0.3,5.7c-0.3,1.6-1,4.3-2.7,4.8c-0.9,0.2-1.9-0.1-3.3-1.1
			c-3.3-2.3-3.7-4.6-6.2-7.6c-2.4-3.1-3.2-2.3-9.1-8.1c-2.6-2.7-4.2-4.9-3.8-6.2C55.2,101.6,58.7,100.8,59.8,100.5z"/>
		<g>
			<path fill="#2B3990" stroke="#000000" stroke-miterlimit="10" d="M95.6,76c1.3,1.2,3.2,1.1,4.1,1.1c0.8,0,3.1-0.1,4.4-1.6
				c1.2-1.5,0.2-3.2,1.4-4.1c0.3-0.2,0.9-0.4,4.3,0.2c2.9,0.5,4.2,0.9,5.4,1.4c3,1.3,4.6-0.2,7.8-3.4c1.2-1.2,4.6-4.8,7-8.7
				c2.7-4.4,2.3-3.3,4.4-6.4c2.4-3.7,5.1-8.2,6-10.9c0.8-1.9-0.7,3,1.5,3.6c2.6,0.8,6.8,2,3.6,2.2c-0.7,0.1,5.2-1.5,3.8,0.7
				c-0.2,0.4-5.5,9.8-6.4,10.8c-1.6,1.9-9.6,14.5-10.1,15.5c-0.8,1.3-4.3,5.2-5.6,6.6c-1.4,1.6-1.2,1.2-4,4
				c-2.7,2.7-2.1,2.1-2.7,2.7c-1,1-1.6,1.9-3.4,5.3c-1.5,2.9-1.5,4.6-1.9,5.8c-0.8,3,0,5.5,0.2,6.5c0.8,3.3,1.8,4.9,1,5.9
				c-0.1,0.1-0.3,0.3-1.9,0.5c-1.6,0.2-3.4,0.2-6.3-0.2c-1.6-0.2-1.3,0-2-0.2c-2.2-0.8-2.4-1.3-4.3-1.8c-0.5-0.1-2.9-0.2-4.7,0.4
				c-2.2,0.8-2.3,1.6-4.2,2.1c-1.8,0.4-2.2-0.2-5.6-0.3c-3.4-0.1-5.6,0.7-5.9,0l0.4-1.9c0.7-2.4,0.8-3.1,0.8-3.1
				c0.8-3,0.7-7,0.7-8.7c0-2.4,0.4-6.7-0.8-8.7c-2-3-3.7-2-4.7-1.1c-0.5,0.4-1.1,0.8-2.2,1.9c-2.3,2.3-4.3,3.2-5.7,4.2
				c-1.5,1.1-4.4,4.3-6.5,4.2c-1.1,0-1.2-0.8-2.7-0.9c-1.4,0-2.6,0.7-4.1,1.5c-2.1,1.2-2.5,2.1-3.2,1.9c-1.1-0.3-1.8-2.5-1.3-4.3
				c0.4-1.6,1.5-2.6,2.6-3.5c3.8-3.2,7.2-5.1,7.4-5.1c4.2-3.3,7.4-7.1,11.6-10.4c3.1-2.4,4.7-4.4,8-6.2c2.2-1.2,4.1-1.5,5.4-1.9
				c2.9-0.5,4.6-1,5.9,0C94.8,73,93.9,74.7,95.6,76z"/>
			<polygon stroke="#000000" stroke-miterlimit="10" points="108.9,83.4 116.1,90.7 109,100.7 94.8,100.7 87.7,90.5 94.7,83.4 			
				"/>
			<polygon fill="#FFFFFF" stroke="#000000" stroke-miterlimit="10" points="95.7,87.4 108.4,87.4 110.9,90.5 105.8,97 97.3,97 
				93,90.5 			"/>
			<path stroke="#000000" stroke-miterlimit="10" d="M143.8,50.1c0.7,0.4,3.5,1.3,5.5,0.5c1.4-0.5,1.9-2,2.9-5.3
				c3.1-10.3,2.6-9.8,3.4-11.3c1.6-3.4,3.2-4.5,3.6-7.9c0.1-1.2,0.3-2.9-0.7-4c-1.6-1.8-5.3-1.3-7.6,0.1c-0.2,0.2-2.7,1.9-3.2,4.8
				c-0.4,3.1,1.8,3.8,1.8,6.4c0,5.1-10.3,8.1-8.7,12.3C141.5,47.7,143,49.4,143.8,50.1z"/>
			<path fill="#FFF200" stroke="#000000" stroke-miterlimit="10" d="M94.3,114.6l-1.3,4.5H80.9c0.3-1.3,0.8-2.7,1.1-4.1L94.3,114.6z
				"/>
			<polygon fill="#FFF200" stroke="#000000" stroke-miterlimit="10" points="117.3,114.7 118.7,119.1 107.8,119.8 107.8,114.9 			
				"/>
			<path stroke="#000000" stroke-miterlimit="10" d="M100,112.2c0.5,0,5.5-0.7,7.2,2.6c1.3,2.4,0.1,4.9,0,5.1
				c-1.6,3.3-5.9,3.3-6.8,3.3c-0.8,0-4.8-0.1-6.2-3c-1.1-2.2,0.2-4.5,0.3-4.8C96,112.8,99.1,112.4,100,112.2z"/>
			<path fill="#FFFFFF" stroke="#000000" stroke-miterlimit="10" d="M101.4,115c0.7,0,2.2,0.3,2.6,1.4c0.4,1.2-0.3,2.5-1.1,3.2
				c-1.3,1.2-4,1.5-5.2,0c-0.8-1-0.9-2.4-0.2-3.5C98.7,114.6,100.9,114.9,101.4,115z"/>
			<path fill="#2B3990" stroke="#000000" stroke-miterlimit="10" d="M92.8,120.2c1.2,0.3,3,3.3,7.4,3.3c5.2,0,4.7-1.1,7.5-3.1
				c1-0.8,10.9-0.3,10.9-0.3s1.5,4.5,3.6,6.6c1.3,1.2,0.5,4.3,1.4,8.1c1.5,6.9,0.2,14.2,1.4,16.7c0.5,1.2,1,2.5,1.5,3.5
				c1.3,2.3,1.1,3,1.5,5.5c0.2,1,0,1.6,0,2.5c0,0.9-0.9,1.5-1.4,1.9c-0.4,0.2-2,1.2-7,0.9c-2.9-0.2-3.3-0.5-3.5-0.8
				c-1.1-1.1-0.5-3-0.5-4.8c-0.1-3.2-2.1-5.3-4.6-8.3c-8.3-10-11.4-14.6-11.4-14.6c-1.6,0.5-2.1,5.2-9.6,13.7
				c-2.3,2.7-4.1,5.2-5.4,8.9c-0.4,1.2-0.7,3.7-0.7,3.7v0.8c0,0-2.5,1-4.6,1.1c-2,0.1-4.5-0.3-5.1-0.4c-1-0.3-2.5-0.7-2.7-1.6
				c-0.2-0.7,0.3-1.4,0.3-2.4c0.1-2,0.1-3.2,0.5-5.4c0.4-1.9,0.5-2.7,2-4.1c1.1-1,0.3-10.5,3.1-20.1c0.4-1.5,1.1-4.3,1.3-4.8
				c1-3.5,2.1-6.7,2.1-6.7S89.1,118.7,92.8,120.2z"/>
			<path stroke="#000000" stroke-miterlimit="10" d="M69.3,173.6c-0.3,4.2,0.4,5.2-0.5,7.4c-0.4,1-1,1.6-2.2,3
				c-3.1,3.5-4.6,3.6-7,6.7c-2.4,3-2.2,4.4-2.1,4.8c0.2,1.1,1.1,1.9,1.6,2.2c3,2.3,7.2,1,7.6,0.9c1.3-0.3,2.7-1.5,5.6-3.8
				c2.9-2.2,3.4-3.1,3.7-3.8c0.2-0.3,0.5-1.2,0.8-4.4c0.2-4.4-0.3-4.7,0-6.7c0.3-2.1,1.2-2.2,3.8-6.5c1.9-3,4.4-7.1,3.2-8.6
				c-0.3-0.4-4.5,0.1-6.7,0c-1.3,0-2.7-0.4-4.1-0.9c-1.2-0.3-1.6-0.5-2.1-0.3c-0.9,0.4-0.8,2-0.8,3.7
				C70.1,170.6,69.5,170,69.3,173.6z"/>
			<path stroke="#000000" stroke-miterlimit="10" d="M123.7,180.6c0.2,0.8,0.2,1.5,0.2,3c0.1,4.5-0.7,5.6,0.2,7.4
				c0.4,0.9,0.7,0.7,3.3,3c3.6,3.2,3.4,3.7,5.2,4.6c0.5,0.2,3.5,1.5,6.7,0.3c0.7-0.2,3.4-1.2,3.7-3.3c0.2-1.3-0.7-2.6-4.8-6.8
				c-5.7-5.8-6.4-5.9-7-7.6c-1-2.3-0.1-2.7-0.5-9.4c-0.1-1.6-0.7-9.3-2.1-9.4c-0.4,0-0.4,1-1.6,1.9c-1.8,1.3-4.5,1-7,0.5
				c-2.3-0.3-3.1-0.8-3.5-0.3c-1,0.9,0.7,4.1,1.6,5.9C120.7,175.5,123,176.6,123.7,180.6z"/>
			<path fill="#00A79D" stroke="#000000" stroke-miterlimit="10" d="M127.6,82.7c-3.5,3.5-7.8,8-8.2,8.6c-1.1,1.8-6.7,11-4.5,15.8
				c0.9,1.9,2.3,10.4,3.5,13c1.5,3.4,0,0,2.1,4.5c1.3,3,2.4,6.7,3.3,10.3c2,8.1-0.1,14.3,0.7,15.9c0.9,1.9,1.4,3.2,2.3,5.1
				c0.8,1.4,1,1.5,1.2,1.8c0.9,1.2,3.7-2.2,8.7-2.2c8.3,0.1,8.9-0.4,13-3.3c4.7-3.2,4-7.2,10.2-11.1c1.1-0.7,0.8-0.3,4.3-2.1
				c6.7-3.3,10.1-4.9,12.4-7c4.6-4.2,7.4-10.9,5.6-12.7c-0.9-1.1-2.6,0.2-7.4,0.3c-2.3,0.1-6.8-0.1-11-2.2c-1-0.5-3.7-2-7.8-7.2
				c-5.3-6.8-4.7-9.4-8.9-15.7c-4.5-6.7-9.6-10.7-12.1-12.2c-3-1.9-4-3-4-3C130.5,79.7,129,81.5,127.6,82.7z"/>
			<path fill="#00A79D" stroke="#000000" stroke-miterlimit="10" d="M107.9,147.7c-3.7-4.6-7.5-10.7-8.2-10.7c-0.9,0-4.8,8-6.9,11.1
				c-4.4,6.5-8.2,8.9-7.5,10c0.7,1,6.5-3.1,14.7-3.5c5.5-0.3,14.1,3.2,14.5,2.7C114.8,157.1,111.7,152.3,107.9,147.7z"/>
			<path fill="#00A79D" stroke="#000000" stroke-miterlimit="10" d="M74.4,150.6c0.5-2.7,0.8-5.2,0.8-7.5c0.2-9.6,2.7-14.4,3.1-16.5
				c0.3-1.4-2.1,0-4.4-1.1c-2.3-1.1-3.1-3-4.6-5.2c-1.1-1.6-3.1-3.5-7-7.4c-4.8-4.6-6.5-5.4-8.1-8.7c-1.1-2-1.8-3.4-1.5-5.1
				c0.4-3.3,3.6-4.4,10.2-9.1c5.9-4.3,4.6-4.3,12.2-10c5.3-3.8,7.8-6.3,7.8-6.3s-5.4,0.3-8.1,1.1c-4.6,1.4-8.5,3.4-13.8,6.9
				c-6.7,4.4-10.1,6.6-13.8,10.2c-5.8,5.6-5.2,7.7-10.9,15.2c-10,13-20,17.1-18.6,20.8c0.4,1.1,1.3,1.1,7.8,3.2
				c7.8,2.4,11.6,3.6,13,4.4c7.6,4.5,5.9,10.8,12.4,13c4.5,1.5,5.8-1.3,11.1,0.5c5.4,1.9,8,7.2,10.2,4.9
				C73.3,152.8,74.4,152.2,74.4,150.6z"/>
			<g>
				<path fill="#00A79D" stroke="#000000" stroke-miterlimit="10" d="M84.1,93.9c0.8,2.6,0.7,6.7,0.9,7.6c0.2,1,0.3,3.5-0.2,6.5
					c-0.4,1.8-1.5,3.8-1.9,6.8c-0.1,2-0.3,4.3-1,4.4c-0.8,0.1-1.1-2.6-3.5-4.5c-2.6-2.1-5.8,0.4-7.8-1.3c-3-2.5-2.1-7.9-4.1-11
					c-1.1-1.6-1.1-1.6-1.1-2.5c0-1.3,2.9-1.9,6.6-4.5c5.1-3.5,6.9-7.1,8.9-5.7C81.6,90.2,83.1,90.8,84.1,93.9z"/>
			</g>
			<path fill="#FFF200" stroke="#000000" stroke-miterlimit="10" d="M96.8,76.6c1.8,1.4,3.8,1.2,4.8,1.1c1-0.1,2.4-0.2,3.6-1.6
				c0.9-1.1,1.4-4.3,1.4-4.3h-2.3c0,0,0,2.1-0.7,3c-0.9,1.1-3.4,1.1-4.1,1c-0.7-0.1-2.4-0.7-2.9-2c-0.3-1-0.3-2.1-0.3-2.1
				s0.1-0.1-0.7,0.3c-0.9,0.4-0.9,0-0.9,0.1C94.4,72.6,95,75.2,96.8,76.6z"/>
		</g>
	</g>
</g>
<g id="Layer_2">
	<path fill="#E8B68A" stroke="#E8B68A" stroke-miterlimit="10" d="M102.9,73.7c0,0,0.3-5.5,0.7-8.8c0,0,2.9,1.4,10.2-1.4
		c0.9-0.3,3.8-0.9,7.4-4.5c1.6-1.6,1.9-3.8,2.2-5.4c0.7-3.1-0.2-3.4-0.3-7.1c0,0-0.8-0.2,1.2-1.9c0.2-0.2,1.5-0.2,1.9,0
		c0.7,0.3,1.9,0.8,3.2,0.3c2-0.5,2.6-2.6,3.1-3.7c0.3-0.9,1.2-3.4,0-4.6c-0.9-0.9-2.6-0.7-3.7-0.3c-3.4,1.2-3.8,5.5-4.9,5.3
		c-0.9-0.1,0.2-1.9-1-6.8c-0.3-1.4-0.2-1.8-1.8-4.6c-1.1-2-2.3-4.5-4.1-5.7c-2-1.2-3.8-2.4-9-2.7c-5.7-0.4-6.6-0.1-12.9-0.3
		c-2.6-0.1-6.5-0.1-12.1,2.4c-2.1,1-3.4,9.1-4.3,10.2c-2.9,4,0,4.8-0.2,5.9l0,0c-0.2,0.1-1.2-1.3-2.4-2.2c-0.3-0.2-1.6-1.2-3.3-1.2
		c-1.1,0-3.1,0.3-3.7,1.5c-1.6,2.9,1.5,5.6,4.9,7.5c3.6,1.9,2.2,10.3,3.7,13.3c1.2,2.4,2.9,4.2,7,5.7c4.9,1.8,9.6,2.1,11.5,1l0,0
		c1.9,3.1,0.3,6.2,0.3,6.2c0,0.3,0,1,0,1.8c0.4,0.3,1.2,0.9,2.3,1.1c0.3,0.1,0.7,0.1,1.1,0.1C101.7,74.7,102.9,73.7,102.9,73.7z"/>
	<path fill="none" stroke="#A97C50" stroke-miterlimit="10" d="M126.9,41.7c-0.2-0.2,0.4-1.2,1.3-1.6c1-0.4,2.2-0.3,2.3,0
		C130.6,40.7,127.2,42.3,126.9,41.7z"/>
	<path fill="none" stroke="#A97C50" stroke-miterlimit="10" d="M76.4,42.4c0.1-0.2-1-1.3-2.4-1.6c-1.1-0.3-2.5-0.3-2.6,0
		C71.3,41.3,76.1,42.9,76.4,42.4z"/>
	<line fill="none" stroke="#000000" stroke-miterlimit="10" x1="107.7" y1="31.9" x2="107.7" y2="31.9"/>
	<path stroke="#000000" stroke-miterlimit="10" d="M73.9,33.4c-0.4-1.6-1-2.9-1.2-5.6c-0.2-2-0.3-4.5,0.2-7.8c0.5-2.9,1-5.4,3.1-7.7
		c1.5-1.6,3.3-2.7,4.2-3.2c1.1-0.5,2-0.9,3.7-1.5c1.6-0.5,2.9-0.9,2.6-0.7c-0.4,0.5-3.1,3.4-3.3,7.9c-0.1,0.9-0.2,2.9,1,4.4
		c1.1,1.4,2.5,1.8,2.4,2.3c-0.1,0.7-2.3,0.1-4.1,1.4c-0.5,0.4-0.8,0.9-2,4.3c-1.3,4.1-1.3,4.5-2.2,6.5c-0.4,1-1.4,3.2-1.4,3.2l0,0
		C77.1,37.1,74.9,36.5,73.9,33.4z"/>
	<path stroke="#000000" stroke-miterlimit="10" d="M91.6,3.3c1.4-0.7,3.6-1.6,7-2.2c2.7-0.4,6.8-1.1,11.6,0.1
		c2.2,0.5,9.3,2.3,12.6,8.2c2.4,4.2,1.4,5.4,2.3,11.4c0.2,1.4,5.8,3.1,4,11.9c-0.2,1.1-0.8,2-1.1,2.6c-1,2.1-3.3,5.5-4.4,5.2
		c-1.1-0.3,0.2-3.6-1.3-8.3c-0.3-1.1-1.3-4.1-4-6.5c-2.1-2-4.3-2.9-5.6-3.3c-2.4-0.9-3.4-0.5-10.3-0.9c-8.5-0.3-8.1-0.7-10-0.3
		c-2.3,0.4-2.9,0.4-5.1,0.4c-1.8,0-3.2-1.9-3.5-2.4c-1.6-3.2-0.5-6.6,0-8c0.3-1.1,1.2-3,3-4.8C88.6,4.8,90.2,4.1,91.6,3.3z"/>
	<path fill="none" stroke="#000000" stroke-miterlimit="10" d="M106,29.7c2.3-1.2,7.5-1.3,11.9,2.3"/>
	<g>
		<path fill="none" stroke="#C49A6C" stroke-miterlimit="10" d="M102.3,48.1c-0.2-0.1-1.5-0.9-3-0.4c-1.3,0.4-2.5,1.8-2.3,3.2
			c0.2,1.1,1.1,1.9,2,2.1c1.1,0.3,2.3,0,3.2-0.9"/>
	</g>
	<path fill="none" stroke="#BE1E2D" stroke-miterlimit="10" d="M85.1,54.8c0.4-0.8,1.9-1.4,1.9-1.4s1.2,1.5,2,2.6
		c2.7,3.5,6.7,4.5,8.1,4.8c2.2,0.4,3.8,0.2,5.5,0.1c1.3-0.1,3.3-0.2,5.5-1.3c1.2-0.7,2.4-1.2,4.2-2.5c2-1.3,2.2-1.9,2.2-1.9
		c1.3-1.3,1.6-1.5,1.6-1.5s0.7,0.8,0.9,1.3"/>
	<g>
		<path fill="#FFFFFF" stroke="#000000" stroke-miterlimit="10" d="M106.6,38.9c0-0.1-0.1-0.2,0.2-0.7c0.1-0.3,0.3-0.9,0.8-1.3
			c0.1-0.1,1-1.3,2.5-1.8c1.4-0.4,2.7-0.2,4.4,0.4c1.4,0.5,0.4,0.2,2.7,1.2c1.2,0.5,2.9,1,2.7,1.2c0,0.3-1.1,0.5-3,0.9
			c-2.6,0.4-3,0.5-4.3,0.7c-0.7,0.1-2.2-0.1-3.6-0.1C109.2,39.3,106.9,39.2,106.6,38.9z"/>
		<path fill="#3C2415" stroke="#000000" stroke-miterlimit="10" d="M109.8,36.9c0.2-0.9,1.4-1.2,1.6-1.3c0.2,0,2-0.5,2.9,0.7
			c0.4,0.7,0.5,1.6,0.2,2.3c-1,1.4-3.7,0.7-4.3-0.1c-0.1-0.2-0.2-0.4-0.2-0.4C109.8,37.7,109.7,37.2,109.8,36.9z"/>
		<path fill="#594A42" stroke="#000000" stroke-miterlimit="10" d="M111.5,37.8c0.3-0.3,0.9-0.3,1.2-0.3c0.2,0,1.3,0.7,1.3,0.8
			c-0.1,0.5-0.7,1-1.1,1.1c-0.5,0.2-1.4,0.1-1.8-0.4C110.8,38.3,111.1,38.1,111.5,37.8z"/>
	</g>
	<g>
		<path fill="#FFFFFF" stroke="#000000" stroke-miterlimit="10" d="M96.1,38.4c0-0.1,0-0.3-0.2-0.7c-0.1-0.3-0.4-0.8-0.9-1.2
			c-0.1-0.1-1.1-1.2-2.6-1.5s-2.7,0-4.3,0.8c-1.3,0.7-0.4,0.2-2.6,1.4c-1.2,0.7-2.7,1.2-2.6,1.4c0.1,0.3,1.2,0.4,3,0.7
			c2.6,0.2,3.1,0.2,4.3,0.3c0.7,0,2.2-0.2,3.6-0.4C93.6,39.1,95.9,38.8,96.1,38.4z"/>
		<path fill="#3C2415" stroke="#000000" stroke-miterlimit="10" d="M92.7,36.7c-0.3-0.9-1.5-1.1-1.8-1.1s-2-0.3-2.7,0.9
			c-0.4,0.7-0.4,1.6,0,2.3c1,1.3,3.6,0.3,4.2-0.4c0.1-0.2,0.2-0.4,0.2-0.4C92.8,37.5,92.8,37,92.7,36.7z"/>
		<path fill="#594A42" stroke="#000000" stroke-miterlimit="10" d="M91.2,37.7c-0.4-0.3-1-0.2-1.2-0.2c-0.2,0.1-1.3,0.8-1.2,0.9
			c0.2,0.5,0.8,0.9,1.2,1c0.5,0.1,1.4,0,1.8-0.5C91.8,38.2,91.6,38,91.2,37.7z"/>
	</g>
	<path fill="none" stroke="#000000" stroke-miterlimit="10" d="M83.8,30.4c2-1.8,7-3,12.2-0.3"/>
</g>
</svg>
