<?xml version="1.0" encoding="utf-8"?>
<!-- Generator: Adobe Illustrator 18.1.0, SVG Export Plug-In . SVG Version: 6.00 Build 0)  -->
<!DOCTYPE svg PUBLIC "-//W3C//DTD SVG 1.1//EN" "http://www.w3.org/Graphics/SVG/1.1/DTD/svg11.dtd">
<svg version="1.1" id="Layer_1" xmlns="http://www.w3.org/2000/svg" xmlns:xlink="http://www.w3.org/1999/xlink" x="0px" y="0px"
	 viewBox="0 0 151.3 182.1" enable-background="new 0 0 151.3 182.1" xml:space="preserve">
<path fill="#E8B68A" stroke="#E8B68A" stroke-miterlimit="10" d="M78.3,67.1c0,0,0.3-5,0.6-8c0,0,2.6,1.3,9.3-1.3
	c0.8-0.3,3.5-0.8,6.7-4.1c1.5-1.5,1.7-3.5,2-4.9c0.6-2.8-0.2-3.1-0.3-6.5c0,0-0.7-0.2,1.1-1.7c0.2-0.2,1.4-0.2,1.7,0
	c0.6,0.3,1.7,0.7,2.9,0.3c1.8-0.5,2.4-2.4,2.8-3.4c0.3-0.8,1.1-3.1,0-4.2c-0.8-0.8-2.4-0.6-3.4-0.3c-3.1,1.1-3.5,5-4.5,4.8
	c-0.8-0.1,0.2-1.7-0.9-6.2c-0.3-1.3-0.2-1.6-1.6-4.2c-1-1.8-2.1-4.1-3.7-5.2c-1.8-1.1-3.5-2.2-8.2-2.5c-5.2-0.4-6-0.1-11.7-0.3
	c-2.4-0.1-5.9-0.1-11,2.2c-1.9,0.9-3.1,8.3-3.9,9.3c-2.6,3.6,0,4.4-0.2,5.4c0,0,0,0,0,0c-0.2,0.1-1.1-1.2-2.2-2
	c-0.3-0.2-1.5-1.1-3-1.1c-1,0-2.8,0.3-3.4,1.4c-1.5,2.6,1.4,5.1,4.5,6.8c3.3,1.7,2,9.4,3.4,12.1c1.1,2.2,2.6,3.8,6.4,5.2
	c4.5,1.6,8.7,1.9,10.5,0.9c0,0,0,0,0,0c1.7,2.8,0.3,5.6,0.3,5.6c0,0.3,0,0.9,0,1.6c0.4,0.3,1.1,0.8,2.1,1c0.3,0.1,0.6,0.1,1,0.1
	C77.2,68,78.3,67.1,78.3,67.1z"/>
<path fill="none" stroke="#A97C50" stroke-miterlimit="10" d="M100.1,38c-0.2-0.2,0.4-1.1,1.2-1.5c0.9-0.4,2-0.3,2.1,0
	C103.5,37.1,100.4,38.5,100.1,38z"/>
<path fill="none" stroke="#A97C50" stroke-miterlimit="10" d="M54.2,38.6c0.1-0.2-0.9-1.2-2.2-1.5c-1-0.3-2.3-0.3-2.4,0
	C49.5,37.6,53.9,39.1,54.2,38.6z"/>
<line fill="none" stroke="#000000" stroke-miterlimit="10" x1="82.7" y1="29" x2="82.7" y2="29"/>
<path stroke="#000000" stroke-miterlimit="10" d="M51.9,30.4c-0.4-1.5-0.9-2.6-1.1-5.1c-0.2-1.8-0.3-4.1,0.2-7.1
	c0.5-2.6,0.9-4.9,2.8-7c1.4-1.5,3-2.5,3.8-2.9c1-0.5,1.8-0.8,3.4-1.4c1.5-0.5,2.6-0.8,2.4-0.6c-0.4,0.5-2.8,3.1-3,7.2
	c-0.1,0.8-0.2,2.6,0.9,4c1,1.3,2.3,1.6,2.2,2.1c-0.1,0.6-2.1,0.1-3.7,1.3c-0.5,0.4-0.7,0.8-1.8,3.9c-1.2,3.7-1.2,4.1-2,5.9
	c-0.4,0.9-1.3,2.9-1.3,2.9v0C54.8,33.8,52.8,33.2,51.9,30.4z"/>
<path stroke="#000000" stroke-miterlimit="10" d="M68,3c1.3-0.6,3.3-1.5,6.4-2c2.5-0.4,6.2-1,10.6,0.1c2,0.5,8.5,2.1,11.5,7.5
	c2.2,3.8,1.3,4.9,2.1,10.4c0.2,1.3,5.3,2.8,3.6,10.8c-0.2,1-0.7,1.8-1,2.4c-0.9,1.9-3,5-4,4.7c-1-0.3,0.2-3.3-1.2-7.6
	c-0.3-1-1.2-3.7-3.6-5.9c-1.9-1.8-3.9-2.6-5.1-3c-2.2-0.8-3.1-0.5-9.4-0.8c-7.7-0.3-7.4-0.6-9.1-0.3c-2.1,0.4-2.6,0.4-4.6,0.4
	c-1.6,0-2.9-1.7-3.2-2.2c-1.5-2.9-0.5-6,0-7.3c0.3-1,1.1-2.7,2.7-4.4C65.3,4.4,66.7,3.7,68,3z"/>
<g>
	<path stroke="#000000" stroke-miterlimit="10" d="M116.8,94.1c0.3,1.1-1.1,3.1-3.5,5.6c-5.4,5.3-6.1,4.6-8.3,7.4
		c-2.2,2.7-2.6,4.8-5.6,6.9c-1.3,0.9-2.2,1.2-3,1c-1.6-0.5-2.2-2.9-2.5-4.4c-0.4-1.7-0.8-3.7,0.3-5.2c0.9-1.2,2.3-1.5,3.4-1.7
		c2.3-0.5,2.9,0.4,4,0c3.5-1,1.9-9.8,6.1-11.8c1.7-0.8,3.6-0.7,4.5-0.4C113.2,91.8,116.4,92.5,116.8,94.1z"/>
	<g>
		<path fill="#2B3990" stroke="#000000" stroke-miterlimit="10" d="M81.6,65.4c1.2-0.9,2.8-0.5,5.4,0c1.2,0.3,2.9,0.6,4.9,1.7
			c3,1.6,4.5,3.4,7.3,5.6c3.9,3,6.8,6.5,10.6,9.5c0.1,0,3.2,1.7,6.7,4.6c1,0.8,2,1.7,2.4,3.2c0.4,1.6-0.2,3.6-1.2,3.9
			c-0.6,0.2-1-0.6-2.9-1.7c-1.3-0.8-2.4-1.4-3.7-1.4c-1.4,0.1-1.5,0.8-2.5,0.8c-1.9,0.1-4.5-2.8-5.9-3.8c-1.3-0.9-3.1-1.7-5.2-3.8
			c-1-1-1.5-1.3-2-1.7c-0.9-0.8-2.5-1.7-4.3,1c-1.1,1.8-0.7,5.7-0.7,7.9c0,1.5-0.1,5.2,0.6,7.9c0,0,0.1,0.6,0.7,2.8l0.4,1.7
			c-0.3,0.6-2.3-0.1-5.4,0c-3.1,0.1-3.5,0.7-5.1,0.3c-1.7-0.4-1.8-1.2-3.8-1.9c-1.7-0.6-3.8-0.5-4.3-0.4c-1.7,0.4-1.9,0.9-3.9,1.6
			c-0.6,0.2-0.3,0-1.8,0.2c-2.6,0.4-4.2,0.4-5.7,0.2c-1.4-0.2-1.6-0.4-1.7-0.5c-0.7-0.9,0.2-2.4,0.9-5.4c0.2-0.9,0.9-3.2,0.2-5.9
			c-0.3-1.1-0.3-2.7-1.7-5.3c-1.6-3.1-2.2-3.9-3.1-4.8c-0.6-0.6,0,0-2.5-2.5c-2.5-2.5-2.3-2.1-3.6-3.6c-1.2-1.3-4.4-4.8-5.1-6
			c-0.5-0.9-7.7-12.4-9.2-14.1c-0.8-0.9-5.6-9.4-5.8-9.8c-1.2-2,4.1-0.5,3.5-0.6c-2.9-0.2,0.9-1.3,3.3-2c2-0.6,0.7-5,1.4-3.3
			c0.9,2.4,3.3,6.5,5.5,9.9c1.9,2.8,1.5,1.8,4,5.8c2.2,3.5,5.3,6.8,6.4,7.9c2.9,2.9,4.4,4.3,7.1,3.1c1.1-0.5,2.3-0.8,4.9-1.3
			c3.1-0.6,3.6-0.4,3.9-0.2c1.1,0.8,0.2,2.3,1.3,3.7c1.2,1.4,3.3,1.5,4,1.5c0.8,0,2.5,0.1,3.7-1C81.1,68,80.3,66.5,81.6,65.4z"/>
		<polygon stroke="#000000" stroke-miterlimit="10" points="80.4,75.9 86.8,82.4 80.3,91.7 67.4,91.7 60.9,82.6 67.5,75.9 		"/>
		<polygon fill="#FFFFFF" stroke="#000000" stroke-miterlimit="10" points="82,82.4 78,88.3 70.3,88.3 65.7,82.4 67.9,79.6 
			79.5,79.6 		"/>
		<path stroke="#000000" stroke-miterlimit="10" d="M38.4,41.7c1.5-3.8-7.9-6.6-7.9-11.2c0-2.3,2-3,1.6-5.8
			c-0.4-2.7-2.7-4.2-2.9-4.4c-2.1-1.3-5.4-1.7-6.9-0.1c-0.9,1-0.7,2.5-0.6,3.6c0.4,3.1,1.8,4.1,3.3,7.2c0.7,1.4,0.3,0.9,3.1,10.3
			c0.9,3,1.3,4.3,2.6,4.8c1.8,0.7,4.4-0.1,5-0.5C36.4,45,37.8,43.4,38.4,41.7z"/>
		<path fill="#FFF200" stroke="#000000" stroke-miterlimit="10" d="M92,104.7c0.3,1.2,0.7,2.5,1,3.7l-11,0l-1.2-4.1L92,104.7z"/>
		<polygon fill="#FFF200" stroke="#000000" stroke-miterlimit="10" points="68.5,104.6 68.5,109.1 58.6,108.4 59.8,104.4 		"/>
		<path stroke="#000000" stroke-miterlimit="10" d="M80.5,105.1c0.1,0.3,1.3,2.4,0.3,4.4c-1.2,2.6-4.9,2.7-5.6,2.7
			c-0.8,0-4.7,0-6.2-3c-0.1-0.1-1.2-2.4,0-4.6c1.6-3,6.1-2.4,6.6-2.4C76.4,102.3,79.2,102.7,80.5,105.1z"/>
		<path fill="#FFFFFF" stroke="#000000" stroke-miterlimit="10" d="M77.8,105.7c0.6,1,0.5,2.3-0.2,3.2c-1.1,1.4-3.5,1.1-4.7,0
			c-0.7-0.6-1.4-1.8-1-2.9c0.4-1,1.8-1.3,2.4-1.3C74.8,104.6,76.8,104.3,77.8,105.7z"/>
		<path fill="#2B3990" stroke="#000000" stroke-miterlimit="10" d="M93,109.1c0,0,1,2.9,1.9,6.1c0.2,0.5,0.8,3,1.2,4.4
			c2.5,8.7,1.8,17.4,2.8,18.3c1.3,1.2,1.4,2,1.8,3.7c0.4,2,0.4,3.1,0.5,4.9c0,0.9,0.5,1.6,0.3,2.2c-0.2,0.9-1.6,1.2-2.5,1.5
			c-0.5,0.1-2.8,0.5-4.6,0.4c-1.9-0.1-4.2-1-4.2-1l0-0.7c0,0-0.2-2.3-0.6-3.4c-1.2-3.4-2.8-5.6-4.9-8.1c-6.8-7.8-7.2-12-8.7-12.5
			c0,0-2.8,4.2-10.4,13.3c-2.3,2.8-4.1,4.7-4.2,7.6c0,1.7,0.5,3.4-0.5,4.4c-0.2,0.2-0.6,0.5-3.2,0.7c-4.6,0.3-6-0.6-6.4-0.8
			c-0.5-0.3-1.3-0.9-1.3-1.7c0-0.8-0.2-1.4,0-2.3c0.4-2.3,0.2-2.9,1.4-5c0.5-0.9,0.9-2.1,1.4-3.2c1.1-2.3-0.1-8.9,1.3-15.2
			c0.8-3.5,0.1-6.3,1.3-7.4c1.9-1.9,3.3-6,3.3-6s9-0.4,9.9,0.3c2.5,1.8,2.1,2.8,6.8,2.8c4,0,5.6-2.7,6.7-3
			C85.5,108.1,93,109.1,93,109.1z"/>
		<path stroke="#000000" stroke-miterlimit="10" d="M102.7,152.3c0-1.6,0.1-3-0.7-3.4c-0.4-0.2-0.8,0-1.9,0.3
			c-1.2,0.4-2.5,0.8-3.7,0.8c-2,0.1-5.8-0.4-6.1,0c-1.1,1.3,1.2,5.1,2.9,7.8c2.4,3.9,3.2,4,3.5,5.9c0.3,1.8-0.2,2.1,0,6.1
			c0.2,2.9,0.5,3.7,0.7,4c0.3,0.7,0.8,1.5,3.4,3.5c2.6,2.1,3.9,3.2,5.1,3.5c0.3,0.1,4.2,1.3,6.9-0.8c0.5-0.3,1.3-1,1.5-2
			c0.1-0.4,0.3-1.7-1.9-4.4c-2.2-2.8-3.6-2.9-6.4-6.1c-1.1-1.2-1.6-1.8-2-2.7c-0.9-2-0.2-2.9-0.5-6.7
			C103.4,154.8,102.8,155.3,102.7,152.3z"/>
		<path stroke="#000000" stroke-miterlimit="10" d="M59.2,155c0.9-1.7,2.4-4.6,1.5-5.4c-0.4-0.4-1.1,0-3.2,0.3
			c-2.3,0.4-4.8,0.7-6.4-0.5c-1.1-0.8-1.1-1.7-1.5-1.7c-1.3,0.1-1.8,7.1-1.9,8.6c-0.4,6.1,0.4,6.5-0.5,8.6c-0.6,1.5-1.2,1.6-6.4,6.9
			c-3.8,3.8-4.6,5-4.4,6.2c0.3,1.9,2.8,2.8,3.4,3c2.9,1.1,5.6-0.1,6.1-0.3c1.6-0.8,1.4-1.3,4.7-4.2c2.4-2.1,2.6-1.9,3-2.7
			c0.8-1.6,0.1-2.6,0.2-6.7c0-1.3,0-2,0.2-2.7C54.6,160.8,56.7,159.8,59.2,155z"/>
		<path fill="#00A79D" stroke="#000000" stroke-miterlimit="10" d="M47.4,72.1c0,0-0.9,1-3.6,2.7c-2.3,1.4-6.9,5-11,11.1
			c-3.8,5.7-3.3,8.1-8.1,14.3c-3.7,4.8-6.2,6.1-7.1,6.6c-3.8,1.9-7.9,2.1-10,2c-4.3-0.1-5.9-1.3-6.7-0.3c-1.6,1.7,0.9,7.8,5.1,11.6
			c2.1,1.9,5.2,3.4,11.3,6.4c3.2,1.6,2.9,1.3,3.9,1.9c5.7,3.5,5,7.2,9.3,10.1c3.7,2.6,4.2,3.1,11.8,3c4.5,0,7.1,3.1,7.9,2
			c0.2-0.2,0.4-0.3,1.1-1.6c0.8-1.7,1.3-2.9,2.1-4.6c0.7-1.5-1.2-7.1,0.6-14.5c0.8-3.3,1.8-6.7,3-9.4c1.9-4.1,0.5-1,1.9-4.1
			c1.1-2.3,2.4-10.1,3.2-11.8c2-4.4-3.1-12.8-4.1-14.4c-0.4-0.5-4.3-4.6-7.5-7.8C49.2,74.2,47.8,72.6,47.4,72.1z"/>
		<path fill="#00A79D" stroke="#000000" stroke-miterlimit="10" d="M62.4,143.3c0.4,0.4,8.2-2.8,13.2-2.5c7.5,0.4,12.8,4.1,13.4,3.2
			c0.7-1-2.8-3.2-6.8-9.1c-1.9-2.8-5.5-10.1-6.3-10.1c-0.7,0-4.1,5.5-7.5,9.7C64.9,138.7,62.1,143,62.4,143.3z"/>
		<path fill="#00A79D" stroke="#000000" stroke-miterlimit="10" d="M101.1,140.3c2,2.1,4.4-2.8,9.3-4.5c4.8-1.7,6,0.9,10.1-0.5
			c5.9-2,4.4-7.7,11.3-11.8c1.2-0.7,4.7-1.8,11.8-4c5.9-1.9,6.7-1.9,7.1-2.9c1.3-3.3-7.8-7.1-16.9-18.9c-5.2-6.8-4.6-8.7-9.9-13.8
			c-3.4-3.3-6.5-5.3-12.6-9.3c-4.9-3.2-8.4-5-12.6-6.3c-2.5-0.7-7.4-1-7.4-1s2.3,2.2,7.1,5.7c6.9,5.2,5.7,5.2,11.1,9.1
			c6,4.3,8.9,5.3,9.3,8.3c0.2,1.5-0.4,2.8-1.4,4.6c-1.5,3-3,3.7-7.4,7.9c-3.6,3.5-5.4,5.2-6.4,6.7c-1.4,2-2.1,3.7-4.2,4.7
			c-2.1,1-4.3-0.3-4,1c0.3,1.9,2.6,6.3,2.8,15c0,2.1,0.2,4.3,0.7,6.8C98.9,138.6,99.9,139.1,101.1,140.3z"/>
		<g>
			<path fill="#00A79D" stroke="#000000" stroke-miterlimit="10" d="M93,81.6c1.8-1.3,3.5,2,8.1,5.2c3.4,2.4,6,2.9,6,4.1
				c0,0.8,0,0.8-1,2.3c-1.8,2.8-1,7.7-3.7,10c-1.8,1.6-4.7-0.7-7.1,1.2c-2.2,1.7-2.5,4.2-3.2,4.1c-0.6-0.1-0.8-2.2-0.9-4
				c-0.3-2.7-1.3-4.6-1.7-6.2c-0.5-2.7-0.4-5-0.2-5.9c0.2-0.8,0.1-4.5,0.8-6.9C91,82.7,92.3,82.1,93,81.6z"/>
		</g>
		<path fill="#FFF200" stroke="#000000" stroke-miterlimit="10" d="M80.2,65.6c0-0.1,0,0.3-0.8-0.1c-0.7-0.4-0.6-0.3-0.6-0.3
			s0,1-0.3,1.9c-0.4,1.2-2,1.7-2.6,1.8c-0.6,0.1-2.9,0.1-3.7-0.9c-0.6-0.8-0.6-2.7-0.6-2.7l-2.1,0c0,0,0.5,2.9,1.3,3.9
			c1.1,1.3,2.4,1.4,3.3,1.5c0.9,0.1,2.8,0.3,4.4-1C80.1,68.5,80.7,66.1,80.2,65.6z"/>
	</g>
</g>
<path fill="none" stroke="#000000" stroke-miterlimit="10" d="M81.1,27c2.1-1.1,6.8-1.2,10.8,2.1"/>
<g>
	<path fill="none" stroke="#C49A6C" stroke-miterlimit="10" d="M77.7,43.8c-0.2-0.1-1.4-0.8-2.7-0.4c-1.2,0.4-2.3,1.6-2.1,2.9
		c0.2,1,1,1.7,1.8,1.9c1,0.3,2.1,0,2.9-0.8"/>
</g>
<path fill="none" stroke="#BE1E2D" stroke-miterlimit="10" d="M62.1,49.9c0.4-0.7,1.7-1.3,1.7-1.3s1.1,1.4,1.8,2.4
	c2.5,3.2,6.1,4.1,7.4,4.4c2,0.4,3.5,0.2,5,0.1c1.2-0.1,3-0.2,5-1.2c1.1-0.6,2.2-1.1,3.8-2.3c1.8-1.2,2-1.7,2-1.7
	c1.2-1.2,1.5-1.4,1.5-1.4s0.6,0.7,0.8,1.2"/>
<g>
	<path fill="#FFFFFF" stroke="#000000" stroke-miterlimit="10" d="M81.7,35.4c0-0.1-0.1-0.2,0.2-0.6c0.1-0.3,0.3-0.8,0.7-1.2
		c0.1-0.1,0.9-1.2,2.3-1.6c1.3-0.4,2.5-0.2,4,0.4c1.3,0.5,0.4,0.2,2.5,1.1c1.1,0.5,2.6,0.9,2.5,1.1c0,0.3-1,0.5-2.7,0.8
		c-2.4,0.4-2.7,0.5-3.9,0.6c-0.6,0.1-2-0.1-3.3-0.1C84,35.8,81.9,35.7,81.7,35.4z"/>
	<path fill="#3C2415" stroke="#000000" stroke-miterlimit="10" d="M84.6,33.6c0.2-0.8,1.3-1.1,1.5-1.2c0.2,0,1.8-0.5,2.6,0.6
		c0.4,0.6,0.5,1.5,0.2,2.1C88,36.4,85.5,35.7,85,35c-0.1-0.2-0.2-0.4-0.2-0.4C84.6,34.3,84.5,33.9,84.6,33.6z"/>
	<path fill="#594A42" stroke="#000000" stroke-miterlimit="10" d="M86.1,34.4c0.3-0.3,0.8-0.3,1.1-0.3c0.2,0,1.2,0.6,1.2,0.7
		c-0.1,0.5-0.6,0.9-1,1c-0.5,0.2-1.3,0.1-1.6-0.4C85.5,34.9,85.8,34.7,86.1,34.4z"/>
</g>
<g>
	<path fill="#FFFFFF" stroke="#000000" stroke-miterlimit="10" d="M72.1,35c0-0.1,0-0.3-0.2-0.6c-0.1-0.3-0.4-0.7-0.8-1.1
		c-0.1-0.1-1-1.1-2.4-1.4c-1.4-0.3-2.5,0-3.9,0.7c-1.2,0.6-0.4,0.2-2.4,1.3c-1.1,0.6-2.5,1.1-2.4,1.3c0.1,0.3,1.1,0.4,2.7,0.6
		c2.4,0.2,2.8,0.2,3.9,0.3c0.6,0,2-0.2,3.3-0.4C69.8,35.6,71.9,35.3,72.1,35z"/>
	<path fill="#3C2415" stroke="#000000" stroke-miterlimit="10" d="M69,33.4c-0.3-0.8-1.4-1-1.6-1c-0.2,0-1.8-0.3-2.5,0.8
		c-0.4,0.6-0.4,1.5,0,2.1c0.9,1.2,3.3,0.3,3.8-0.4c0.1-0.2,0.2-0.4,0.2-0.4C69.1,34.1,69.1,33.7,69,33.4z"/>
	<path fill="#594A42" stroke="#000000" stroke-miterlimit="10" d="M67.6,34.3c-0.4-0.3-0.9-0.2-1.1-0.2c-0.2,0.1-1.2,0.7-1.1,0.8
		c0.2,0.5,0.7,0.8,1.1,0.9c0.5,0.1,1.3,0,1.6-0.5C68.2,34.8,68,34.6,67.6,34.3z"/>
</g>
<path fill="none" stroke="#000000" stroke-miterlimit="10" d="M60.9,27.7c1.8-1.6,6.4-2.7,11.1-0.3"/>
</svg>
