<?xml version="1.0" encoding="utf-8"?>
<!-- Generator: Adobe Illustrator 18.1.0, SVG Export Plug-In . SVG Version: 6.00 Build 0)  -->
<!DOCTYPE svg PUBLIC "-//W3C//DTD SVG 1.1//EN" "http://www.w3.org/Graphics/SVG/1.1/DTD/svg11.dtd">
<svg version="1.1" xmlns="http://www.w3.org/2000/svg" xmlns:xlink="http://www.w3.org/1999/xlink" x="0px" y="0px"
	 viewBox="0 0 200 200" enable-background="new 0 0 200 200" xml:space="preserve">
<symbol  id="Blond_Hair_4" viewBox="-11.3 -7.7 22.6 15.3">
	<g>
		<path fill="#FEE751" d="M-11.3,6.9c0,0,5.6,2.6,10.6-1.9c5-4.6,5.8-10.2,12-12.7C4.7-6.6,2.2,0.8-1,3.9
			C-6.1,8.8-10.8,6.9-11.3,6.9z"/>
	</g>
</symbol>
<g id="Layer_1">
	<path fill="#2BB673" stroke="#000000" stroke-width="0.99" stroke-miterlimit="10" d="M91.8,79.1c1.3,1.2,3,1.3,3.9,1.3
		c0.8,0,3,0,4.3-1.4c1.3-1.5,0.4-3.1,1.6-3.9c0.3-0.2,0.9-0.4,4.1,0.4c2.7,0.6,4,1.1,5.1,1.6c2.9,1.4,4.5-0.1,7.7-3
		c1.2-1.1,4.6-4.4,7.1-8.1c2.8-4.1,2.3-3,4.4-5.9c2.5-3.5,5.2-7.8,6.3-10.2c0.8-1.7-0.7,2.9,1.4,3.6c2.5,0.9,6.5,2.1,3.4,2.2
		c-0.7,0,5-1.4,3.7,0.8c-0.3,0.4-5.7,9.2-6.6,10.1c-1.7,1.7-9.7,13.6-10.3,14.5c-0.8,1.2-4.4,4.8-5.7,6.1c-1.5,1.5-1.3,1.2-4,3.7
		c-2.8,2.5-2.8,2.5-3.2,3.4c-0.6,1.7-0.4,1.7-2.3,4.9c-1.6,2.6-2.5,3.7-2.8,4.8c-0.9,2.8-0.3,5.2-0.1,6.2c0.6,3.2,1.5,4.8,0.7,5.7
		c-0.1,0.1-0.3,0.3-1.8,0.5c-1.6,0.1-3.3,0-6-0.4c-1.6-0.3-1.3,0-1.9-0.3c-2-0.8-2.3-1.3-4.1-1.8c-0.6-0.2-2.8-0.4-4.6,0.2
		c-2.1,0.7-2.3,1.5-4.1,1.8c-1.6,0.3-2-0.3-5.3-0.6c-3.3-0.3-5.4,0.4-5.7-0.2l0.5-1.8c0.3-2.8,0.9-3,0.9-3c0.9-2.8,0.8-7.3,0.3-8.7
		c-0.5-1.7-0.7-1.9-1.8-3.8c-1.7-3-1.4-5.2-2.4-5.4c-0.7-0.1-1.1,0.7-2.2,1.7c-2.3,2-4.2,2.8-5.6,3.8c-1.6,1-4.4,4-6.5,3.8
		c-1.1-0.1-1.2-0.9-2.6-1c-1.4-0.1-2.6,0.5-4,1.3c-2,1.1-2.4,1.9-3.1,1.7c-1-0.3-1.6-2.4-1.1-4.1c0.4-1.6,1.6-2.5,2.6-3.3
		c3.8-2.8,7.3-4.5,7.3-4.5c4.1-2.9,7.4-6.5,11.6-9.5c3-2.2,4.7-4,7.9-5.6c2.2-1.1,3.9-1.4,5.2-1.6c2.7-0.5,4.5-0.8,5.7,0.2
		C90.9,76.2,90.1,77.7,91.8,79.1z"/>
	<polygon fill="#F7941E" stroke="#000000" stroke-width="0.99" stroke-miterlimit="10" points="104.1,86.6 110.7,94 103.6,103.4 
		89.8,102.8 83.4,92.8 90.5,86.1 	"/>
	<polygon fill="#27AAE1" stroke="#000000" stroke-width="0.99" stroke-miterlimit="10" points="91.2,90.1 103.5,90.5 105.8,93.7 
		100.6,99.7 92.5,99.4 88.4,93 	"/>
	<path fill="#F7941E" stroke="#000000" stroke-width="0.99" stroke-miterlimit="10" d="M56.2,101.3c1-0.2,3-0.3,4.8,0.6
		c4.3,2.3,2.3,11.5,5.9,12.7c1.2,0.4,1.8-0.4,4.3,0.2c1.1,0.3,2.6,0.6,3.5,1.9c1.2,1.7,0.6,3.8,0.1,5.5c-0.4,1.5-1.1,4.1-2.9,4.5
		c-0.9,0.2-1.8-0.2-3.2-1.2c-3.1-2.4-3.4-4.6-5.6-7.6c-2.2-3.1-3-2.3-8.4-8.2c-2.5-2.7-3.9-4.9-3.5-6
		C51.7,102.2,55.1,101.5,56.2,101.3z"/>
	<path fill="#F7941E" stroke="#000000" stroke-width="0.99" stroke-miterlimit="10" d="M139,55.9c0.6,0.5,3.3,1.4,5.3,0.8
		c1.4-0.5,1.8-1.8,2.9-5c3.4-9.7,3-9.3,3.7-10.7c1.7-3.2,3.3-4.2,3.8-7.5c0.2-1.2,0.4-2.7-0.5-3.9c-1.4-1.8-5-1.6-7.3-0.2
		c-0.3,0.2-2.8,1.7-3.3,4.6c-0.5,2.9,1.6,3.7,1.5,6.2c-0.2,4.9-10.3,7.4-8.8,11.5C136.9,53.5,138.3,55.4,139,55.9z"/>
	<path fill="#F7941E" stroke="#000000" stroke-width="0.99" stroke-miterlimit="10" d="M88.7,116.3l-1.4,4.2L75.7,120
		c0.4-1.3,0.8-2.6,1.3-3.9L88.7,116.3z"/>
	<polygon fill="#F7941E" stroke="#000000" stroke-width="0.99" stroke-miterlimit="10" points="111.1,117.1 112.2,121.4 
		101.6,121.7 101.8,117 	"/>
	<path fill="#ED1C24" stroke="#000000" stroke-width="0.99" stroke-miterlimit="10" d="M94.4,114.1c0.5-0.1,5.2-0.4,6.8,2.8
		c1.2,2.3-0.1,4.7-0.2,4.8c-1.7,3.1-5.9,3-6.7,3c-0.8,0-4.6-0.3-5.8-3.1c-0.9-2.2,0.4-4.4,0.5-4.6C90.6,114.5,93.5,114.2,94.4,114.1
		z"/>
	<path fill="#FFFFFF" stroke="#000000" stroke-width="0.99" stroke-miterlimit="10" d="M95.7,116.9c0.6,0.1,2,0.4,2.4,1.5
		c0.4,1.1-0.4,2.4-1.2,3c-1.4,1.1-3.9,1.3-5-0.2c-0.7-1-0.8-2.4,0-3.4C93,116.3,95.2,116.7,95.7,116.9z"/>
	<path fill="#2BB673" stroke="#000000" stroke-width="0.99" stroke-miterlimit="10" d="M87.4,121.3c1.2,0.4,2.7,3.3,6.9,3.5
		c4.9,0.2,4.6-0.9,7.3-2.6c1-0.7,10.5,0.1,10.5,0.1s1.2,4.4,3.2,6.5c1.2,1.2,0.4,4.1,1,7.8c1.2,6.7-0.3,13.6,0.7,16.1
		c0.5,1.2,0.8,2.5,1.4,3.5c1.2,2.2,1,2.9,1.3,5.3c0.1,1,0,1.7-0.1,2.5c-0.1,0.9-1,1.4-1.5,1.7c-0.4,0.3-1.9,1.1-6.8,0.6
		c-2.7-0.3-3.1-0.6-3.4-0.9c-1.1-1.1-0.4-2.8-0.4-4.7c0-3.1-1.8-5.1-4.1-8.2c-7.7-10-10.4-14.6-10.4-14.6c-1.6,0.5-2.2,4.9-9.7,12.9
		c-2.4,2.5-4.2,4.9-5.5,8.4c-0.4,1.2-0.8,3.6-0.8,3.6l0,0.7c0,0-2.5,0.9-4.5,0.9c-1.9,0-4.3-0.4-4.9-0.6c-1-0.3-2.4-0.8-2.6-1.7
		c-0.1-0.6,0.4-1.3,0.5-2.3c0.2-1.9,0.2-3,0.7-5.1c0.4-1.7,0.7-2.6,2-3.8c1.1-0.9,0.8-10.1,3.7-19.2c0.5-1.5,1.2-4,1.4-4.6
		c1.1-3.4,2.3-6.4,2.3-6.4S83.7,120,87.4,121.3z"/>
	<path fill="#F7941E" stroke="#000000" stroke-width="0.99" stroke-miterlimit="10" d="M62.4,172.3c-0.4,4.1,0.2,5-0.8,7.1
		c-0.5,0.9-1.1,1.5-2.3,2.8c-3.1,3.2-4.6,3.3-7,6.1c-2.4,2.8-2.2,4.1-2.1,4.6c0.2,1.1,1.1,1.8,1.5,2.2c2.8,2.3,6.9,1.3,7.3,1.2
		c1.3-0.4,2.7-1.4,5.5-3.5c2.8-2.1,3.4-2.9,3.7-3.6c0.2-0.4,0.6-1.3,0.9-4.3c0.4-4.2-0.2-4.6,0.3-6.4c0.5-2,1.3-2,4-6.1
		c1.8-2.8,4.5-6.7,3.3-8.1c-0.3-0.4-4.3-0.1-6.4-0.3c-1.3-0.1-2.6-0.6-3.9-1.1c-1.1-0.4-1.5-0.7-1.9-0.5c-0.8,0.4-0.7,1.8-0.9,3.5
		C63.4,169.2,62.8,168.5,62.4,172.3z"/>
	<path fill="#F7941E" stroke="#000000" stroke-width="0.99" stroke-miterlimit="10" d="M114.6,180.8c0.1,0.8,0.1,1.5,0.1,2.9
		c-0.1,4.3-0.8,5.4-0.1,7.1c0.4,0.9,0.6,0.7,3.1,3c3.4,3.2,3.2,3.8,4.8,4.7c0.5,0.2,3.3,1.7,6.4,0.6c0.6-0.2,3.2-1.1,3.7-3.1
		c0.3-1.4-0.5-2.6-4.4-6.8c-5.3-5.9-5.9-5.9-6.5-7.6c-0.8-2.3,0-2.6-0.2-9.1c0-1.5-0.2-9-1.6-9.2c-0.5-0.1-0.5,0.9-1.7,1.7
		c-1.8,1.3-4.4,0.7-6.8,0.3c-2.2-0.4-2.9-0.9-3.4-0.5c-1,0.9,0.5,4,1.4,5.8C112,175.9,114.2,177,114.6,180.8z"/>
	<path fill="#92278F" stroke="#000000" stroke-width="0.99" stroke-miterlimit="10" d="M122.1,87.1c-3.4,3.3-8.2,7.3-8.2,7.9
		c0,2.2-6.2,10.6-5,15c0.6,1.8,1.8,10.1,2.9,12.6c1.3,3.3,0,0,1.8,4.4c1.2,2.9,2.1,6.6,2.8,10.1c1.6,7.9-0.7,13.7,0,15.3
		c0.8,1.8,1.2,3.1,2,5c0.7,1.5,0.9,1.5,1.1,1.8c0.8,1.2,3.7-2,8.4-1.8c8.1,0.4,8.5-0.2,12.6-2.7c4.7-2.9,4.1-6.9,10.3-10.3
		c1-0.6,0.7-0.3,4.2-1.8c6.6-2.9,9.9-4.4,12.2-6.3c4.6-3.9,7.4-10.3,5.8-12.1c-0.9-1.1-2.6,0.2-7.2,0.1c-2.1,0-6.5-0.4-10.4-2.5
		c-1-0.5-3.5-2-7.2-7.3c-4.8-6.8-4.1-9.3-8-15.5c-4.1-6.6-8.8-10.6-11.2-12.2c-2.7-1.9-3.6-3-3.6-3C125.1,84,123.5,85.7,122.1,87.1z
		"/>
	<path fill="#92278F" stroke="#000000" stroke-width="0.99" stroke-miterlimit="10" d="M100.6,148.6c-3.4-4.6-6.8-10.5-7.5-10.5
		c-0.9,0-5,7.6-7.1,10.4c-4.5,6.1-8.3,8.3-7.6,9.4c0.7,0.9,6.3-2.7,14.3-2.8c5.3-0.1,13.4,3.7,13.9,3.2
		C107,157.8,104.1,153.2,100.6,148.6z"/>
	<path fill="#92278F" stroke="#000000" stroke-width="0.99" stroke-miterlimit="10" d="M68.5,150.2c0.6-2.7,0.9-5,1-7.2
		c0.6-9.3,3.2-13.8,3.6-15.8c0.3-1.5-2-0.1-4.2-1.3c-2.1-1.1-2.9-2.9-4.3-5.1c-1-1.7-2.9-3.6-6.5-7.4c-4.5-4.7-6.1-5.5-7.5-8.7
		c-0.9-1.9-1.5-3.3-1.3-4.9c0.5-3.1,3.7-4.1,10.2-8.3c5.9-3.9,4.6-4,12.2-9.2c5.2-3.6,7.7-5.8,7.7-5.8s-5.3,0.1-7.9,0.8
		c-4.5,1.2-8.3,2.9-13.6,6.1c-6.7,4-10,5.9-13.8,9.3c-5.8,5.2-5.3,7.3-11.1,14.2c-10.1,12-19.9,15.7-18.6,19.3
		c0.4,1,1.3,1.1,7.4,3.3c7.4,2.7,11.1,4,12.3,4.8c7.1,4.6,5.3,10.6,11.5,13c4.3,1.7,5.6-1.1,10.7,1c5,2,7.4,7.4,9.6,5.2
		C67.1,152.1,68.2,151.7,68.5,150.2z"/>
	<g>
		<path fill="#92278F" stroke="#000000" stroke-width="0.99" stroke-miterlimit="10" d="M78.1,98.1c0.8,2.5,2,4.1,2.1,5
			c0.2,1,0.2,3.3-0.5,6.2c-0.4,1.7-1.6,3.7-2,6.5c-0.3,1.9-0.5,4.2-1.2,4.2c-0.8,0.1-1-2.6-3.2-4.5c-2.5-2-5.6,0.2-7.5-1.6
			c-2.7-2.5-1.7-7.7-3.4-10.8c-0.9-1.6-0.9-1.6-0.9-2.4c0-1.2,2.8-1.7,6.5-4.1c5.1-3.2,5.2-5.6,7.1-4.2C75.9,93.2,77.5,96,78.1,98.1
			z"/>
	</g>
	<path fill="#F7941E" stroke="#000000" stroke-width="0.99" stroke-miterlimit="10" d="M92.6,79.5c1.6,1.4,3.7,1.3,4.7,1.2
		c1-0.1,2.3-0.2,3.6-1.5c1-1,1.6-4.1,1.6-4.1l-2.2-0.1c0,0,0,2-0.7,2.9c-0.8,1.1-3.3,1-4,0.8c-0.6-0.1-2.2-0.7-2.7-2
		c-0.3-0.9-0.2-2-0.2-2s0.1-0.1-0.6,0.3c-0.9,0.4-0.8,0.1-0.9,0.1C90.5,75.8,91.1,78.3,92.6,79.5z"/>
	<g>
		<g>
			<path fill="none" stroke="#000000" stroke-width="0.99" stroke-miterlimit="10" d="M8.5,122.3"/>
		</g>
	</g>
</g>
<g id="Layer_3">
	<path fill="#FFDE17" stroke="#F9ED32" stroke-width="0.99" stroke-miterlimit="10" d="M27.4,62.9c0-1,8.8-0.8,14.3-7
		c2-2.3,2.8-4.7,6.6-7.7c1.7-1.4,3.5-2.5,3.3-2.9c-0.4-0.8-6,2-7,0.7c-1-1.3,3.6-5.4,8.4-12.1c6.8-9.4,4.7-11.2,9.9-16.9
		c6-6.6,13.4-9.2,17.2-10.6c0,0,8.8-3.6,15.4-2.9C97.3,3.7,98.9,4,98.9,4s1.1,0.3,2.1,0.6c3.5,1.2,12,8.8,12.6,8.4
		c0.3-0.3-3.6-4.5-6.8-7.2c-3.3-2.7-7.7-3.6-7.5-4c1.1-2.2,17.4,6.8,18.4,7.7c1.2,0.9-3.6-9.1-3.4-9c0.5,0.3,6.2,7.7,8.7,12.3
		c2.4,4.4,2.3,4,5.1,8.3c2.5,3.9,2.7,9.1,3,12.4c0.3,2.9,0.2,5.5,0.1,6.8c-0.1,2-0.4,3.5-0.5,4.1c-0.3,1.4-0.7,3.9-2,6.7
		c-0.7,1.7-1.6,3.2-2,3.9c0,0-0.3,0.4-0.5,0.8c-2.9,4.5-6.3,7.4-6.3,7.4c-1.4,1.2-4.9,4.8-9.8,6.1c-3.4,0.9-10.3,2.2-10.4,2.2
		c0,0,0.2-4,0.2-2.2c0,0,17.3-2.3,19.5-10.7c1-3.6-1.2-9.6,1-9.5c1.3,0,2,1.1,4.1,0.2c3.3-1.5,5.6-6.8,3.7-8.6
		c-1.1-1.1-3.6-0.6-5.1,0.4c-2.4,1.6-2.6,4.5-3.3,4.4c-0.8-0.1,0.7-4.9-1.8-8.8c-1-1.6-1.7-1.6-3.7-4.4c-1.2-1.7-1.8-2.6-2.2-4
		c-0.8-2.9,0.5-4.4-0.4-5.1c-1.1-0.9-3.5,1.4-7.4,2.5c-5.4,1.7-6.4-1.2-12.4,0c-4.3,0.9-3.3,2.2-11.4,5.1c-1.5,0.5-3,1.1-4.4,2.5
		C74.1,35.9,74,39,74,39.3c0,2.9,1.5,5,1.1,5.1c-0.4,0.2-1.8-3.5-4.8-4c-1.4-0.3-3.2,0.2-4,1.5c-1.1,1.5-0.3,3.6,0,4.4
		c1.2,3.2,3.4,2.9,4.8,5.9c1,2.1,0,2.6,1.1,5.9c0.8,2.3,1.9,3.9,2.5,4.8c1,1.3,2.2,3,4.4,4.4c1.6,1,3.4,1.4,7,2.2
		c0,0,1.6-0.3,6.5,0.6c-0.2-1.2,0.3,3-0.3,4.2c-0.8,1.6-5,0.4-9.5,0.4c-2.9,0-2,0.5-16.5,4c0,0-5.9,1.5-11.5,1.8h0
		c-5.2,0.3-7.8,0.5-7.9,0c-0.3-0.8,7.1-5.1,6.6-4c-0.1,0.2-23.7-0.2-25.3-1.8C26.2,72.7,43.6,64.3,41,64.4
		C40.1,64.4,27.4,66.2,27.4,62.9z"/>
	<path fill="#F3D9CC" stroke="#F3D9CC" stroke-width="0.99" stroke-miterlimit="10" d="M99.1,77.3c0,0,0.3-5.3,0.6-8.4
		c0,0,2.7,1.4,9.8-1.4c0.8-0.3,3.7-0.9,7.1-4.4c1.5-1.6,1.8-3.7,2.1-5.2c0.7-3-0.2-3.3-0.3-6.9c0,0-0.7-0.2,1.1-1.8
		c0.3-0.2,1.5-0.2,1.7,0c0.7,0.3,1.8,0.7,3.1,0.3c1.9-0.6,2.6-2.5,3-3.6c0.3-0.8,1.2-3.3,0-4.5c-0.9-0.9-2.5-0.7-3.6-0.3
		c-3.2,1.2-3.7,5.3-4.8,5.1c-0.9-0.1,1.1-2.1-0.1-6.9c-0.3-1.4-0.5-1.9-2.5-4.1c-1.5-1.6-2.8-3.7-4-5.5c-0.9-1.4-0.5-6.1-1.6-6.3
		c-2.1-0.5-2.7,1.9-6.9,3.3c-5.3,1.7-6.6-1.3-12.6,0c-3.1,0.6-1.9,1.3-11.4,5.4c-2.3,1-3.1,1.4-3.9,2.4c-2.8,3.8-0.3,9.5-0.7,10.1
		c-0.3,0.4-2.2-3.1-5.6-3.2c-1.2,0-3,0.4-3.6,1.5c-1.6,2.7,2.2,4.9,4.8,9.3c2,3.4,2.2,7.8,3.7,10.6c1.2,2.3,2.8,4.1,6.8,5.5
		c4.8,1.7,9.2,2,11.2,1l0,0c1.7,2.9,0.3,5.9,0.3,5.9c0,0.4,0,0.9,0,1.7c0.4,0.4,1.2,0.8,2.3,1.1c0.3,0.1,0.6,0.1,1.1,0.1
		C97.9,78.2,99.1,77.3,99.1,77.3z"/>
	<path fill="none" stroke="#A97C50" stroke-width="0.99" stroke-miterlimit="10" d="M122.2,46.5c-0.2-0.3,0.4-1.2,1.3-1.6
		c0.9-0.5,2.1-0.3,2.2,0C125.8,45.5,122.5,46.9,122.2,46.5z"/>
	<path fill="none" stroke="#A97C50" stroke-width="0.99" stroke-miterlimit="10" d="M73.5,47.1c0.1-0.3-1-1.3-2.3-1.6
		c-1.1-0.3-2.5-0.3-2.5,0C68.6,46,73.2,47.6,73.5,47.1z"/>
	<g>
		<path fill="#FFFFFF" stroke="#000000" stroke-width="0.99" stroke-miterlimit="10" d="M99.6,48.2c1,0.6,1.9-1,4.6-1
			c2.5,0,3.5,1.4,4.3,0.8c1-0.7,0.1-3.4-1-6.5c-0.9-2.5-1.6-3.5-2.6-4.3c-0.5-0.3-1.3-0.8-2.2-0.6c-0.4,0.1-1.5,0.5-2.5,3.5
			C100,40.6,97.7,47.1,99.6,48.2z"/>
		<path fill="#006838" stroke="#000000" stroke-width="0.99" stroke-miterlimit="10" d="M101.1,46.5c-1.5-1.9-0.6-4.2-0.5-4.6
			c0.1-0.2,1.2-3,3.3-2.9c1.9,0.1,2.9,2.5,3.1,2.9c0.7,1.8-0.5,5.6-3,5.5C102.3,47.2,102.2,47.9,101.1,46.5z"/>
		<path fill="#2BB673" stroke="#000000" stroke-width="0.99" stroke-miterlimit="10" d="M104.1,47.2c-1.2-0.1-1.6-0.3-1.6-1.6
			c0-0.6,0.3-2.2,1.5-2.2s1.5,0.4,1.6,1.9C105.5,46.3,105.2,47.3,104.1,47.2z"/>
	</g>
	<g>
		<path fill="#FFFFFF" stroke="#000000" stroke-width="0.99" stroke-miterlimit="10" d="M80.6,48.2c1,0.6,1.9-1,4.6-1
			c2.5,0,3.5,1.4,4.3,0.8c1-0.7,0.1-3.4-1-6.5c-0.9-2.5-1.6-3.5-2.6-4.3c-0.5-0.3-1.3-0.8-2.2-0.6c-0.4,0.1-1.5,0.5-2.5,3.5
			C81,40.6,78.7,47.1,80.6,48.2z"/>
		<path fill="#006838" stroke="#000000" stroke-width="0.99" stroke-miterlimit="10" d="M82.1,46.5c-1.5-1.9-0.6-4.2-0.5-4.6
			c0.1-0.2,1.2-3,3.3-2.9c1.9,0.1,2.9,2.5,3.1,2.9c0.7,1.8-0.5,5.6-3,5.5C83.3,47.2,83.2,47.9,82.1,46.5z"/>
		<path fill="#2BB673" stroke="#000000" stroke-width="0.99" stroke-miterlimit="10" d="M85,47.2c-1.2-0.1-1.6-0.3-1.6-1.6
			c0-0.6,0.3-2.2,1.5-2.2c1.1,0,1.5,0.4,1.6,1.9C86.5,46.3,86.2,47.3,85,47.2z"/>
	</g>
	<path fill="none" stroke="#FFF200" stroke-width="0.99" stroke-miterlimit="10" d="M99.7,32.3c1.7-0.5,5,0,7.5,2.9"/>
	<path fill="none" stroke="#FFF200" stroke-width="0.99" stroke-miterlimit="10" d="M80.6,35.1c0-1.6,3.4-2.9,7.6-2.9"/>
	<line fill="none" stroke="#000000" stroke-width="0.99" stroke-miterlimit="10" x1="103.8" y1="34.8" x2="103.8" y2="34.8"/>
	<g>
		<path fill="none" stroke="#A97C50" stroke-width="0.99" stroke-miterlimit="10" d="M93.7,53.5c-0.2-0.1-1.5-0.9-2.8-0.4
			c-1.3,0.4-2.4,1.7-2.2,3.1c0.2,1.1,1.1,1.7,1.9,2c1.1,0.3,2.3,0,3.1-0.8"/>
	</g>
	<path fill="none" stroke="#BE1E2D" stroke-width="0.99" stroke-miterlimit="10" d="M79.2,60c0.5-0.7,1.8-1.5,1.8-1.5
		s1.2,1.5,1.9,2.5c2.6,3.4,6.5,4.4,7.8,4.7c2.1,0.4,3.7,0.3,5.3,0.1c1.2-0.1,3.2-0.2,5.3-1.3c1.2-0.6,2.3-1.2,4.1-2.4
		c1.9-1.3,2.1-1.8,2.1-1.8c1.3-1.3,1.6-1.5,1.6-1.5s0.7,0.8,0.9,1.3"/>
	
		<use xlink:href="#Blond_Hair_4"  width="22.6" height="15.3" x="-11.3" y="-7.7" transform="matrix(0.7397 0 0 -1.2636 120.3166 29.9753)" overflow="visible"/>
	
		<use xlink:href="#Blond_Hair_4"  width="22.6" height="15.3" x="-11.3" y="-7.7" transform="matrix(0.7397 0 0 -1.2636 122.8426 25.103)" overflow="visible"/>
	
		<use xlink:href="#Blond_Hair_4"  width="22.6" height="15.3" x="-11.3" y="-7.7" transform="matrix(-2.4361 -0.2338 0.1099 -1.1453 84.509 26.124)" overflow="visible"/>
	
		<use xlink:href="#Blond_Hair_4"  width="22.6" height="15.3" x="-11.3" y="-7.7" transform="matrix(-1.9871 -0.5733 0.3181 -1.1026 87.4674 18.1337)" overflow="visible"/>
	
		<use xlink:href="#Blond_Hair_4"  width="22.6" height="15.3" x="-11.3" y="-7.7" transform="matrix(-1.4754 -0.7758 0.5343 -1.0163 92.0341 12.2516)" overflow="visible"/>
	
		<use xlink:href="#Blond_Hair_4"  width="22.6" height="15.3" x="-11.3" y="-7.7" transform="matrix(-1.1954 0.1401 -7.168942e-02 -0.6118 60.9173 42.2853)" overflow="visible"/>
	
		<use xlink:href="#Blond_Hair_4"  width="22.6" height="15.3" x="-11.3" y="-7.7" transform="matrix(-1.7738 -4.984372e-02 1.897675e-02 -0.6751 50.4857 58.3521)" overflow="visible"/>
	
		<use xlink:href="#Blond_Hair_4"  width="22.6" height="15.3" x="-11.3" y="-7.7" transform="matrix(-1.8771 -5.273894e-02 2.681100e-02 -0.9539 51.5624 68.3611)" overflow="visible"/>
	
		<use xlink:href="#Blond_Hair_4"  width="22.6" height="15.3" x="-11.3" y="-7.7" transform="matrix(-1.2606 -3.543346e-02 2.371931e-02 -0.8439 64.018 73.6793)" overflow="visible"/>
</g>
</svg>
