<?xml version="1.0" encoding="utf-8"?>
<!-- Generator: Adobe Illustrator 18.1.0, SVG Export Plug-In . SVG Version: 6.00 Build 0)  -->
<!DOCTYPE svg PUBLIC "-//W3C//DTD SVG 1.1//EN" "http://www.w3.org/Graphics/SVG/1.1/DTD/svg11.dtd">
<svg version="1.1" id="Layer_1" xmlns="http://www.w3.org/2000/svg" xmlns:xlink="http://www.w3.org/1999/xlink" x="0px" y="0px"
	 viewBox="0 0 503.3 623.1" enable-background="new 0 0 503.3 623.1" xml:space="preserve">
<symbol  id="Blond_Hair_4" viewBox="-11.3 -7.7 22.7 15.4">
	<g>
		<path fill="#FEE751" d="M-11.3,7c0,0,5.6,2.6,10.6-1.9c5-4.6,5.8-10.2,12-12.7C4.7-6.5,2.2,0.9-1,4C-6.1,8.9-10.8,7-11.3,7z"/>
	</g>
</symbol>
<path fill="#FFDE17" stroke="#F9ED32" stroke-width="3.3201" stroke-miterlimit="10" d="M38.4,196.8c0-3.1,27.6-2.4,44.8-21.8
	c6.4-7.2,8.9-14.6,20.7-24.1c5.3-4.3,11-7.8,10.3-9.2c-1.1-2.4-18.8,6.4-21.8,2.3c-3-4.1,11.4-17,26.4-37.9
	c21.3-29.6,14.8-35,31-52.8c18.9-20.6,41.9-28.9,53.9-33.3c0,0,27.7-11.3,48.2-9.2c5.1,0.5,10.1,1.7,10.1,1.7s3.4,0.8,6.7,1.9
	c11,3.7,37.6,27.7,39.4,26.2c1-0.8-11.2-14.2-21.4-22.6s-24-11.3-23.5-12.4c3.3-6.8,54.3,21.4,57.7,24.1
	c3.6,2.9-11.3-28.6-10.5-28.2c1.4,0.8,19.3,24.1,27.4,38.5c7.6,13.6,7.2,12.6,16,25.8c8,12.1,8.4,28.6,9.4,39
	c0.9,9.1,0.7,17.3,0.4,21.4c-0.4,6.2-1.3,10.9-1.6,12.9c-0.8,4.3-2.3,12.2-6.2,21.1c-2.3,5.3-4.9,9.9-6.4,12.3c0,0-0.8,1.3-1.6,2.5
	c-9,14-19.6,23.1-19.6,23.1c-4.2,3.6-15.2,14.9-30.7,19c-10.6,2.8-32.1,6.8-32.7,7c0,0,0.7-12.4,0.5-6.8c0,0.1,54.1-7.3,61.2-33.4
	c3.1-11.3-3.8-30,3.2-29.9c4.1,0.1,6.4,3.5,12.7,0.6c10.2-4.7,17.7-21.3,11.6-27c-3.5-3.3-11.2-2-16.1,1.1
	c-7.6,4.9-8.3,14.1-10.3,13.8c-2.6-0.4,2.1-15.2-5.7-27.5c-3.1-4.9-5.3-4.9-11.5-13.8c-3.8-5.4-5.7-8.3-6.9-12.6
	c-2.4-9,1.4-13.8-1.1-16.1c-3.4-2.9-10.9,4.3-23,8c-17,5.2-20.1-3.8-39,0c-13.4,2.7-10.3,6.9-35.6,16.1c-4.6,1.7-9.5,3.3-13.8,8
	c-6.7,7.5-6.9,17.2-6.9,18.4c0,9,4.5,15.5,3.4,16.1c-1.3,0.7-5.8-11-14.9-12.6c-4.4-0.8-9.9,0.7-12.6,4.6c-3.3,4.8-0.9,11.3,0,13.8
	c3.7,9.9,10.6,9,14.9,18.4c3.1,6.7,0,8.2,3.4,18.4c2.5,7.2,6,12.2,8,14.9c3,4.1,6.9,9.5,13.8,13.8c5.1,3.2,10.6,4.4,21.8,6.9
	c0,0,5.1-0.8,20.4,1.9c-0.6-3.8,0.8,9.5-0.9,13c-2.5,5.1-15.7,1.3-29.8,1.1c-9.1-0.1-6.3,1.5-51.6,12.6c0,0-18.4,4.5-36,5.7
	c0,0-0.1,0-0.1,0c-16.2,1-24.3,1.6-24.8,0.1c-0.8-2.6,22.2-15.9,20.7-12.6c-0.3,0.7-74.2-0.7-79.2-5.7c-6.1-6.1,48.3-32.3,40.2-32.1
	C78.1,201.4,38.4,207.2,38.4,196.8z"/>
<path fill="#F3D9CC" stroke="#F3D9CC" stroke-width="3.3201" stroke-miterlimit="10" d="M262.7,241.8c0,0,0.9-16.7,2-26.5
	c0,0,8.6,4.3,30.8-4.2c2.6-1,11.7-2.8,22.3-13.6c4.8-5,5.7-11.6,6.7-16.2c2.1-9.3-0.7-10.2-0.9-21.6c0,0-2.3-0.6,3.5-5.6
	c0.8-0.6,4.6-0.5,5.5-0.1c2.1,1,5.8,2.3,9.8,1c5.9-1.8,8.1-7.8,9.4-11.3c1-2.6,3.8-10.4,0-14.1c-2.8-2.8-8-2.1-11.3-0.9
	c-10.1,3.7-11.7,16.5-15,16c-2.8-0.4,3.3-6.7-0.2-21.6c-1-4.2-1.6-6-7.8-12.9c-4.5-5.1-8.8-11.7-12.4-17.2c-2.9-4.4-1.5-19-4.9-19.8
	c-6.7-1.5-8.4,6-21.6,10.3c-16.6,5.5-20.6-4-39.5,0c-9.6,2-5.9,3.9-35.7,16.9c-7.3,3.2-9.8,4.3-12.2,7.5
	c-8.8,11.9-0.8,29.9-2.1,31.6c-0.9,1.3-6.8-9.8-17.7-10c-3.7-0.1-9.3,1.3-11.3,4.7c-4.9,8.6,6.9,15.4,14.9,29.2
	c6.2,10.6,6.8,24.5,11.5,33.3c3.8,7.1,8.8,12.8,21.3,17.1c15,5.2,28.9,6.3,35,3.1c0,0,0,0,0,0c5.5,9.2,0.9,18.6,0.9,18.6
	c0,1.1-0.1,2.9-0.1,5.2c1.3,1.1,3.8,2.5,7.1,3.5c0.9,0.3,2,0.4,3.3,0.4C259,244.7,262.7,241.8,262.7,241.8z"/>
<path fill="#2BB673" stroke="#000000" stroke-width="3.3201" stroke-miterlimit="10" d="M234.6,236.7c-3.8-3-9.4-1.8-17.9,0
	c-4.1,0.9-9.6,2.1-16.2,5.6c-10,5.3-14.9,11.3-24.1,18.5c-12.9,10-22.6,21.6-35.3,31.4c-0.2,0.1-10.8,5.7-22.4,15.1
	c-3.3,2.7-6.8,5.7-7.8,10.6c-1.2,5.4,0.7,12,3.9,12.9c2.1,0.6,3.2-1.9,9.5-5.6c4.3-2.5,7.9-4.7,12.3-4.5c4.5,0.2,4.9,2.6,8.4,2.8
	c6.5,0.3,14.4-10.9,19.2-14.2c4.4-3,10.7-4.2,17.8-11c3.5-3.3,4.7-5.9,6.7-5.6c3.4,0.5,2.5,7.5,8.4,16.8c3.8,5.9,4.3,6.6,6.1,11.8
	c1.6,4.6,2.5,18.3,0,27.4c0,0-1.9,0.8-2.4,9.4l-1.5,5.7c0.8,2.1,7.6-0.4,17.9,0c10.5,0.4,11.7,2.4,16.8,1.1
	c5.7-1.4,6.1-3.8,12.7-6.3c5.5-2.1,12.6-1.7,14.4-1.2c5.6,1.5,6.4,3.1,12.9,5.3c1.9,0.6,0.8-0.1,5.9,0.6c8.6,1.2,13.9,1.3,19,0.6
	c4.7-0.6,5.3-1.4,5.6-1.7c2.4-3.1-2.2-8.1-4.5-17.9c-0.7-3.1-2.6-11.7,0-20.7c1.6-5.6,3.2-5.2,7.3-14c5.3-11.5,4-15.4,7.3-16.8
	c3.8-1.7,10.8,3.7,24.6,14.6c11.1,8.7,14.1,12.3,20.7,12.9c3.8,0.4,6.3-0.5,11.2,1.1c2.3,0.8,7.2,2.3,10.6,6.7
	c2.5,3.2,2.5,5.5,3.9,5.6c2.2,0.1,4.4-5.3,5-9.5c0.2-1.3,0.7-4.9-0.6-9c-2.1-6.5-7.4-10.1-12.3-13.4c0,0-1.8-1.2-25.2-18.5
	c-9.9-7.3-8.1-6.7-20.2-15.7c-12.6-9.3-13.7-9.3-18.5-14c-7.2-7-7.5-9.7-13.4-12.9c-3.5-1.9-7.8-2.7-16.2-4.5
	c-10.1-2.1-11.9-1.3-12.9-0.6c-3.6,2.7-0.7,7.6-4.5,12.3c-3.8,4.8-10.9,5-13.4,5c-2.7,0.1-8.2,0.2-12.3-3.4
	C236.3,245.2,238.9,240.1,234.6,236.7z"/>
<polygon fill="#F7941E" stroke="#000000" stroke-width="3.3201" stroke-miterlimit="10" points="235.7,270.3 214.4,292.2 235.7,323 
	278.8,323 300.1,292.7 278.2,270.3 "/>
<polygon fill="#27AAE1" stroke="#000000" stroke-width="3.3201" stroke-miterlimit="10" points="230.1,292.2 243.5,311.8 269,311.8 
	284.4,292.2 277.1,282.7 238.5,282.7 "/>
<path fill="#F7941E" stroke="#000000" stroke-width="3.3201" stroke-miterlimit="10" d="M114.7,330.8c-1,3.7,3.5,10.3,11.8,18.5
	c17.8,17.7,20.1,15.3,27.4,24.6c7.1,9.1,8.5,15.9,18.5,23c4.3,3.1,7.3,4.1,10.1,3.4c5.4-1.5,7.3-9.7,8.4-14.6
	c1.3-5.5,2.8-12.3-1.1-17.4c-3-3.9-7.7-4.9-11.2-5.6c-7.6-1.6-9.5,1.2-13.4,0c-11.6-3.4-6.3-32.7-20.2-39.2
	c-5.7-2.7-11.9-2.2-15.1-1.4C126.7,323,116,325.5,114.7,330.8z"/>
<path fill="#F7941E" stroke="#000000" stroke-width="3.3201" stroke-miterlimit="10" d="M361.5,321.3c-13.5,1-8.4,33.1-22.2,39.8
	c-7,3.4-12-1.7-19.6,3.4c-7.6,5-8.8,14.1-9,15.1c-1,8.2,2.6,18.8,9.5,20.7c4.3,1.2,8.5-1.3,11.8-3.4c8.8-5.5,9.7-11.2,16.8-20.2
	c3.1-3.9,2.4-2.2,26.3-24.1c7.6-7,11-10.2,10.6-14.6c-0.5-6.4-6.6-13.1-8.7-14.3C374.6,322.5,367.6,320.9,361.5,321.3z"/>
<path fill="#F7941E" stroke="#000000" stroke-width="3.3201" stroke-miterlimit="10" d="M197,366.1c-1.1,4.1-2.2,8.2-3.4,12.3h36.4
	L234,365L197,366.1z"/>
<polygon fill="#F7941E" stroke="#000000" stroke-width="3.3201" stroke-miterlimit="10" points="274.9,365.7 274.9,380.7 
	307.9,378.4 304,365 "/>
<path fill="#ED1C24" stroke="#000000" stroke-width="3.3201" stroke-miterlimit="10" d="M235.1,367.2c-0.5,0.9-4.3,7.9-1.1,14.6
	c4.1,8.7,16.2,8.9,18.5,9c2.7,0.1,15.8-0.1,20.7-10.1c0.2-0.4,3.9-8.1,0-15.1c-5.5-9.9-20.2-8.1-21.8-7.8
	C248.7,358.1,239.6,359.3,235.1,367.2z"/>
<path fill="#FFFFFF" stroke="#000000" stroke-width="3.3201" stroke-miterlimit="10" d="M244.1,369.5c-2.1,3.2-1.7,7.8,0.6,10.6
	c3.7,4.6,11.6,3.6,15.7,0c2.3-2,4.8-6.1,3.4-9.5c-1.4-3.4-5.9-4.2-7.8-4.5C254.1,365.8,247.3,364.7,244.1,369.5z"/>
<path fill="#2BB673" stroke="#000000" stroke-width="3.3201" stroke-miterlimit="10" d="M193.7,380.7c0,0-3.4,9.5-6.5,20.2
	c-0.5,1.8-2.6,9.9-3.9,14.6c-8.2,28.8-6.2,57.7-9.3,60.6c-4.2,3.8-4.7,6.8-5.8,12.2c-1.4,6.7-1.4,10.3-1.6,16.3
	c-0.1,3.1-1.5,5.3-1.2,7.2c0.6,2.8,5.2,4.2,8.4,5c1.8,0.5,9.3,1.6,15.2,1.3c6.4-0.4,14-3.3,14-3.3v-2.2c0,0,0.7-7.6,2-11.3
	c4-11.2,9.2-18.6,16.4-27c22.5-26,23.9-39.8,28.9-41.5c0,0,9.2,13.8,34.4,44.3c7.6,9.2,13.8,15.5,14,25.2c0.1,5.7-1.7,11.2,1.7,14.6
	c0.8,0.8,2.1,1.8,10.6,2.2c15.3,0.9,19.9-1.9,21.3-2.8c1.5-1,4.3-2.9,4.5-5.6c0.1-2.5,0.5-4.6,0-7.8c-1.3-7.7-0.8-9.8-4.8-16.7
	c-1.8-3-3-7.1-4.7-10.7c-3.6-7.7,0.3-29.7-4.3-50.5c-2.5-11.5-0.5-20.8-4.2-24.4c-6.5-6.3-10.9-19.9-10.9-19.9s-29.8-1.3-33,0.9
	c-8.3,5.9-7.1,9.2-22.5,9.2c-13.3,0-18.5-9-22.1-10C218.5,377.4,193.7,380.7,193.7,380.7z"/>
<path fill="#F7941E" stroke="#000000" stroke-width="3.3201" stroke-miterlimit="10" d="M161.2,524.1c0.2-5.4-0.2-9.9,2.2-11.2
	c1.3-0.7,2.7,0,6.2,1.1c4,1.3,8.3,2.7,12.3,2.8c6.7,0.2,19.1-1.2,20.2,0c3.7,4.3-4,16.8-9.5,25.8c-8,13.1-10.6,13.1-11.8,19.6
	c-1.1,5.8,0.7,7,0,20.2c-0.5,9.5-1.6,12.2-2.2,13.4c-1.1,2.3-2.8,4.9-11.2,11.8c-8.6,7-12.9,10.5-16.8,11.8
	c-1.1,0.3-13.9,4.2-23-2.8c-1.5-1.2-4.2-3.2-5-6.7c-0.3-1.3-1-5.6,6.2-14.6c7.3-9.2,12-9.8,21.3-20.2c3.6-4,5.4-6.1,6.7-9
	c3-6.6,0.8-9.6,1.7-22.4C159.1,532.2,160.9,534.1,161.2,524.1z"/>
<path fill="#F7941E" stroke="#000000" stroke-width="3.3201" stroke-miterlimit="10" d="M305.7,533c-2.9-5.5-7.9-15.1-5-17.9
	c1.4-1.4,3.6,0,10.6,1.1c7.6,1.2,15.8,2.5,21.3-1.7c3.5-2.7,3.5-5.7,5-5.6c4.3,0.3,5.8,23.7,6.2,28.6c1.4,20.3-1.3,21.5,1.7,28.6
	c2.1,5.1,3.9,5.3,21.3,23c12.5,12.7,15.4,16.5,14.6,20.7c-1.2,6.1-9.2,9.3-11.2,10.1c-9.6,3.7-18.6-0.4-20.2-1.1
	c-5.3-2.5-4.6-4.4-15.7-14c-8.1-7-8.8-6.3-10.1-9c-2.5-5.2-0.2-8.8-0.6-22.4c-0.1-4.3-0.2-6.5-0.6-9
	C321.1,552.4,314.1,549.1,305.7,533z"/>
<path fill="#92278F" stroke="#000000" stroke-width="3.3201" stroke-miterlimit="10" d="M306.4,244c0,0,29.2,5.9,51.4,21.9
	c7.2,5.2,22.9,16.8,36.4,37c12.7,19,10.9,27,26.9,47.6c12.3,15.9,20.4,20.3,23.5,21.8c12.5,6.2,26.2,6.8,33,6.7
	c14.4-0.3,19.4-4.3,22.4-1.1c5.2,5.6-3,26-16.8,38.7c-7,6.4-17.2,11.4-37.5,21.3c-10.8,5.2-9.7,4.2-12.9,6.2
	c-18.8,11.5-16.6,23.9-30.8,33.6c-12.3,8.5-13.9,10.3-39.2,10.1c-14.8-0.1-24.5,9-27.6,5.9c-2.6-2.6,0.9,3.8-2.2-4.7
	c-2.1-5.9-4.3-9.5-6.9-15.2c-2.3-5,4.1-23.6-1.9-48.2c-2.7-11-3.3-23.3-3.3-23.3s6-1.8,12.3-4.7c8.4-3.9,10.6-11.3,15.7-19.6
	c13-21.1,25.7-17.2,37.5-38.7c4.1-7.4,7.6-13.7,6.2-21.3c-1.3-6.9-5.9-11.3-24.6-25.8c-12.9-9.9-18.5-15.4-26.9-20.2
	C323.8,262.2,305.1,245.5,306.4,244z"/>
<g>
	<path fill="#27AAE1" stroke="#000000" stroke-width="3.3201" stroke-miterlimit="10" d="M313.5,293.9c6-4.2,10.5,2.5,25.8,13.4
		c11.3,8.1,19.8,10.2,19.6,14c-0.1,2.5-3,1.8-4.9,7c-3.8,10.3-3.4,23.9-12.4,31.3c-6.2,5.1-14.8-1.2-23,4.8
		c-7.4,5.4-8.2,14.4-10.6,14c-2.1-0.4-2.3-7.4-2.8-13.4c-0.7-9-4.1-15.3-5-20.7c-1.6-9.1-1-16.5-0.3-19.5c0.6-2.6,4.7-7.5,7.6-15.2
		C309.8,303,311.1,295.6,313.5,293.9z"/>
</g>
<path fill="#92278F" stroke="#000000" stroke-width="3.3201" stroke-miterlimit="10" d="M295.1,494.4c-1.4,1.5-27.3-9.3-43.9-8.4
	c-25,1.4-42.4,13.5-44.6,10.6c-2.4-3.2,9.2-10.7,22.6-30.3c6.2-9.2,18.4-33.5,21.1-33.5c2.4,0,13.5,18.3,24.9,32.1
	C286.7,478.9,296.1,493.2,295.1,494.4z"/>
<path fill="#92278F" stroke="#000000" stroke-width="3.3201" stroke-miterlimit="10" d="M166.8,484.3c-6.5,7-14.7-9.4-30.8-15.1
	c-16.1-5.7-19.9,3.1-33.6-1.7c-19.6-6.8-14.6-25.7-37.5-39.2c-3.9-2.3-15.7-6-39.2-13.4c-19.5-6.2-22.3-6.5-23.5-9.5
	c-4.4-11.1,25.8-23.7,56-62.7c17.4-22.5,15.5-28.7,33-45.9c11.4-11.1,21.6-17.7,42-30.8c16.3-10.5,28-16.5,42-20.7
	c8.1-2.5,24.6-3.4,24.6-3.4s-7.6,7.2-23.5,19c-23,17.1-19.1,17.4-37,30.2c-19.8,14.3-29.6,17.5-30.8,27.4c-0.6,5.1,1.4,9.2,4.5,15.1
	c5,9.9,10.1,12.1,24.6,26.3c11.9,11.6,17.9,17.4,21.3,22.4c4.5,6.7,7.1,12.3,14,15.7c7,3.4,14.1-1.1,13.4,3.4
	c-1,6.2-8.6,20.8-9.3,49.9c-0.2,6.9-0.6,14.2-2.2,22.7C174,478.7,170.6,480.2,166.8,484.3z"/>
<g>
	<path fill="#92278F" stroke="#000000" stroke-width="3.3201" stroke-miterlimit="10" d="M313.5,293.9c6-4.2,10.5,2.5,25.8,13.4
		c11.3,8.1,19.8,10.2,19.6,14c-0.1,2.5-3,1.8-4.9,7c-3.8,10.3-3.4,23.9-12.4,31.3c-6.2,5.1-14.8-1.2-23,4.8
		c-7.4,5.4-8.2,14.4-10.6,14c-2.1-0.4-2.3-7.4-2.8-13.4c-0.7-9-4.1-15.3-5-20.7c-1.6-9.1-1-16.5-0.3-19.5c0.6-2.6,4.7-7.5,7.6-15.2
		C309.8,303,311.1,295.6,313.5,293.9z"/>
</g>
<g>
	<path fill="#92278F" stroke="#000000" stroke-width="3.3201" stroke-miterlimit="10" d="M192.7,293.8c-5.9-4.3-10.6,2.3-26.1,12.8
		c-11.5,7.8-20.1,9.8-19.9,13.5c0.1,2.6,0.1,2.6,3.2,7.5c5.9,9.3,3.3,25.7,12.1,33.3c6.1,5.2,15.5-2.2,23.6,4
		c7.2,5.5,8.3,13.9,10.7,13.5c2.1-0.3,2.5-7.4,3.1-13.4c0.9-9,4.4-15.2,5.5-20.6c1.8-9.1,1.3-16.5,0.8-19.5
		c-0.5-2.6-4.6-7.6-7.2-15.4C196.2,303.1,195.1,295.6,192.7,293.8z"/>
</g>
<path fill="#F7941E" stroke="#000000" stroke-width="3.3201" stroke-miterlimit="10" d="M236.1,236.2c0.2-0.2,0,0.9,2.8-0.5
	c2.3-1.2,2-0.9,2-0.9s-0.1,3.5,1,6.3c1.4,3.9,6.8,5.6,8.7,5.8c2,0.3,9.8,0.4,12.2-3.1c2-2.8,1.8-9.1,1.8-9.1h7c0,0-1.6,9.8-4.5,13.1
	c-3.6,4.2-7.9,4.7-11,5c-2.9,0.3-9.5,1-14.7-3.2C236.5,245.9,234.4,238.1,236.1,236.2z"/>
<path fill="none" stroke="#A97C50" stroke-width="3.3201" stroke-miterlimit="10" d="M335.2,145.4c-0.6-0.8,1.3-3.6,3.9-4.9
	c2.9-1.5,6.6-1,6.8,0C346.3,142.2,336.2,146.8,335.2,145.4z"/>
<path fill="none" stroke="#A97C50" stroke-width="3.3201" stroke-miterlimit="10" d="M182.6,147.4c0.4-0.8-3.1-3.9-7.2-5.1
	c-3.4-1-7.7-0.8-7.9,0C167.3,143.9,181.8,148.8,182.6,147.4z"/>
<g>
	<path fill="#FFFFFF" stroke="#000000" stroke-width="3.3201" stroke-miterlimit="10" d="M264.5,150.8c3.1,1.8,6-3.1,14.3-3.1
		c7.7,0,10.9,4.2,13.3,2.4c3.1-2.3,0.3-10.7-3.1-20.5c-2.7-7.8-4.9-11.1-8.2-13.3c-1.4-0.9-4-2.6-6.8-2c-1.3,0.3-4.5,1.4-7.9,10.9
		C265.7,126.8,258.5,147.2,264.5,150.8z"/>
	<path fill="#006838" stroke="#000000" stroke-width="3.3201" stroke-miterlimit="10" d="M269.1,145.3c-4.5-5.9-1.8-13.1-1.4-14.3
		c0.2-0.5,3.8-9.4,10.2-9.2c5.9,0.2,9.1,8,9.6,9.2c2.3,5.8-1.5,17.7-9.4,17.1C272.8,147.6,272.5,149.9,269.1,145.3z"/>
	<path fill="#2BB673" stroke="#000000" stroke-width="3.3201" stroke-miterlimit="10" d="M278.4,147.6c-3.6-0.3-4.9-0.8-5.1-5
		c-0.1-1.9,1-7,4.5-7c3.5,0,4.8,1.3,5,5.9C283,144.8,281.9,147.9,278.4,147.6z"/>
</g>
<g>
	<path fill="#FFFFFF" stroke="#000000" stroke-width="3.3201" stroke-miterlimit="10" d="M204.9,150.8c3.1,1.8,6-3.1,14.3-3.1
		c7.7,0,10.9,4.2,13.3,2.4c3.1-2.3,0.3-10.7-3.1-20.5c-2.7-7.8-4.9-11.1-8.2-13.3c-1.4-0.9-4-2.6-6.8-2c-1.3,0.3-4.5,1.4-7.9,10.9
		C206.1,126.8,198.9,147.2,204.9,150.8z"/>
	<path fill="#006838" stroke="#000000" stroke-width="3.3201" stroke-miterlimit="10" d="M209.5,145.3c-4.5-5.9-1.8-13.1-1.4-14.3
		c0.2-0.5,3.8-9.4,10.2-9.2c5.9,0.2,9.1,8,9.6,9.2c2.3,5.8-1.5,17.7-9.4,17.1C213.2,147.6,212.9,149.9,209.5,145.3z"/>
	<path fill="#2BB673" stroke="#000000" stroke-width="3.3201" stroke-miterlimit="10" d="M218.7,147.6c-3.6-0.3-4.9-0.8-5.1-5
		c-0.1-1.9,1-7,4.5-7c3.5,0,4.8,1.3,5,5.9C223.4,144.8,222.3,147.9,218.7,147.6z"/>
</g>
<path fill="none" stroke="#FFF200" stroke-width="3.3201" stroke-miterlimit="10" d="M264.7,100.8c5.2-1.7,15.7,0,23.5,9"/>
<path fill="none" stroke="#FFF200" stroke-width="3.3201" stroke-miterlimit="10" d="M204.9,109.8c0-5,10.6-9,23.7-9"/>
<line fill="none" stroke="#000000" stroke-width="3.3201" stroke-miterlimit="10" x1="277.4" y1="108.6" x2="277.4" y2="108.6"/>
<g>
	<path fill="none" stroke="#A97C50" stroke-width="3.3201" stroke-miterlimit="10" d="M245.9,167.4c-0.6-0.4-4.5-2.8-8.9-1.3
		c-3.9,1.3-7.6,5.3-6.8,9.7c0.6,3.3,3.4,5.5,6,6.3c3.3,1,7.1,0,9.7-2.6"/>
</g>
<path fill="none" stroke="#BE1E2D" stroke-width="3.3201" stroke-miterlimit="10" d="M200.6,187.6c1.4-2.2,5.6-4.5,5.6-4.5
	s3.6,4.7,6.1,8c8.3,10.7,20.3,13.8,24.5,14.6c6.5,1.3,11.7,0.8,16.7,0.2c3.8-0.4,9.9-0.5,16.7-4c3.6-1.9,7.3-3.8,12.7-7.5
	c5.9-4.1,6.7-5.6,6.7-5.6c3.9-3.9,5.1-4.7,5.1-4.7s2.1,2.4,2.7,4"/>
<use xlink:href="#Blond_Hair_4"  width="22.7" height="15.4" x="-11.3" y="-7.7" transform="matrix(2.3149 0 0 -3.9547 329.1168 93.4411)" overflow="visible"/>
<use xlink:href="#Blond_Hair_4"  width="22.7" height="15.4" x="-11.3" y="-7.7" transform="matrix(2.3149 0 0 -3.9547 337.0252 78.1869)" overflow="visible"/>
<use xlink:href="#Blond_Hair_4"  width="22.7" height="15.4" x="-11.3" y="-7.7" transform="matrix(-7.6242 -0.7316 0.3439 -3.5843 217.5243 81.4385)" overflow="visible"/>
<use xlink:href="#Blond_Hair_4"  width="22.7" height="15.4" x="-11.3" y="-7.7" transform="matrix(-6.2191 -1.7943 0.9956 -3.4508 226.7488 56.4823)" overflow="visible"/>
<use xlink:href="#Blond_Hair_4"  width="22.7" height="15.4" x="-11.3" y="-7.7" transform="matrix(-4.6177 -2.4279 1.6723 -3.1806 240.9998 38.1117)" overflow="visible"/>
<use xlink:href="#Blond_Hair_4"  width="22.7" height="15.4" x="-11.3" y="-7.7" transform="matrix(-3.7413 0.4384 -0.2244 -1.9148 143.4407 132.061)" overflow="visible"/>
<use xlink:href="#Blond_Hair_4"  width="22.7" height="15.4" x="-11.3" y="-7.7" transform="matrix(-5.5515 -0.156 5.939145e-02 -2.113 110.8863 182.3828)" overflow="visible"/>
<use xlink:href="#Blond_Hair_4"  width="22.7" height="15.4" x="-11.3" y="-7.7" transform="matrix(-5.8746 -0.1651 8.391029e-02 -2.9854 114.2746 213.6761)" overflow="visible"/>
<use xlink:href="#Blond_Hair_4"  width="22.7" height="15.4" x="-11.3" y="-7.7" transform="matrix(-3.9454 -0.1109 7.423421e-02 -2.6411 153.1736 230.3409)" overflow="visible"/>
</svg>
