<?xml version="1.0" encoding="utf-8"?>
<!-- Generator: Adobe Illustrator 18.1.0, SVG Export Plug-In . SVG Version: 6.00 Build 0)  -->
<!DOCTYPE svg PUBLIC "-//W3C//DTD SVG 1.1//EN" "http://www.w3.org/Graphics/SVG/1.1/DTD/svg11.dtd">
<svg version="1.1" id="Layer_1" xmlns="http://www.w3.org/2000/svg" xmlns:xlink="http://www.w3.org/1999/xlink" x="0px" y="0px"
	 viewBox="0 0 503.3 625.4" enable-background="new 0 0 503.3 625.4" xml:space="preserve">
<symbol  id="Blond_Hair_4" viewBox="-11.3 -7.7 22.7 15.4">
	<g>
		<path fill="#FEE751" d="M-11.3,7c0,0,5.6,2.6,10.6-1.9c5-4.6,5.8-10.2,12-12.7C4.7-6.5,2.2,0.9-1,4C-6.1,8.9-10.8,7-11.3,7z"/>
	</g>
</symbol>
<path fill="#FFDE17" stroke="#F9ED32" stroke-width="3.3239" stroke-miterlimit="10" d="M456.8,186.1c-0.1-3.1-27.7-1.3-45.6-20
	c-6.7-7-9.5-14.2-21.6-23.3c-5.5-4.1-11.3-7.4-10.7-8.8c1-2.4,19,5.6,21.9,1.4c2.9-4.2-12.1-16.5-27.9-36.8
	c-22.5-28.8-16.2-34.5-33.1-51.6c-19.7-19.9-43.1-27.3-55.3-31.2c0,0-28.1-10.2-48.6-7.3c-5.1,0.7-10,2.1-10,2.1s-3.4,0.9-6.7,2.2
	c-10.9,4.1-36.5,29.2-38.4,27.8c-1.1-0.8,10.6-14.7,20.6-23.4c9.9-8.7,23.6-12.2,23-13.3c-3.6-6.7-53.5,23.6-56.7,26.4
	c-3.5,3.1,10.1-29.1,9.4-28.6c-1.3,0.8-18.4,24.9-25.9,39.6c-7.1,13.9-6.7,12.9-14.9,26.4c-7.5,12.4-7.2,29-7.9,39.4
	c-0.6,9.1,0,17.3,0.5,21.4c0.7,6.2,1.7,10.8,2.1,12.8c1,4.3,2.8,12.1,7,20.9c2.5,5.3,5.3,9.7,6.9,12.1c0,0,0.8,1.2,1.7,2.5
	c9.6,13.7,20.6,22.3,20.6,22.3c4.3,3.4,15.8,14.4,31.5,17.8c10.7,2.4,32.4,5.6,33,5.7c0,0-1.2-12.4-0.7-6.8c0,0.1-54.4-5.2-62.6-31
	c-3.5-11.2,2.6-30.2-4.4-29.7c-4.1,0.2-6.3,3.8-12.7,1.2c-10.4-4.3-18.5-20.6-12.7-26.6c3.4-3.4,11.1-2.5,16.1,0.5
	c7.8,4.6,8.9,13.8,10.9,13.4c2.6-0.5-2.7-15.1,4.6-27.8c2.9-5,5.1-5.1,10.9-14.2c3.5-5.6,5.4-8.5,6.4-12.9c2-9.1-2-13.8,0.5-16.1
	c3.2-3.1,11.1,3.9,23.3,7.1c17.3,4.6,20-4.6,39-1.5c13.5,2.2,10.6,6.5,36.2,14.7c4.6,1.5,9.6,2.9,14.1,7.5c7,7.2,7.6,17,7.6,18.1
	c0.4,9-3.9,15.7-2.8,16.2c1.3,0.7,5.4-11.2,14.4-13.2c4.4-1,10,0.3,12.8,4.1c3.5,4.7,1.4,11.3,0.5,13.8c-3.3,10-10.3,9.4-14.2,19
	c-2.8,6.9,0.4,8.2-2.7,18.5c-2.2,7.3-5.5,12.4-7.4,15.2c-2.8,4.2-6.5,9.8-13.2,14.3c-4.9,3.4-10.5,4.8-21.5,7.8
	c0,0-5.1-0.6-20.3,2.7c0.4-3.8-0.4,9.6,1.4,13c2.7,5,15.8,0.7,29.9,0c9.1-0.5,6.4,1.2,52.2,10.6c0,0,18.6,3.8,36.2,4.3
	c0,0,0.1,0,0.1,0c16.2,0.4,24.4,0.6,24.8-0.9c0.7-2.6-22.9-15.1-21.2-11.8c0.4,0.7,74.1-3.7,79-8.9c5.9-6.3-49.6-30.4-41.5-30.6
	C417.2,192.3,457.2,196.5,456.8,186.1z"/>
<path fill="#F3D9CC" stroke="#F3D9CC" stroke-width="3.3239" stroke-miterlimit="10" d="M234.2,240c0,0-1.6-16.7-3-26.4
	c0,0-8.4,4.6-31-3c-2.7-0.9-11.8-2.3-22.8-12.8c-5-4.8-6.2-11.4-7.4-15.9c-2.4-9.2,0.2-10.2,0.1-21.7c0,0,2.3-0.7-3.8-5.5
	c-0.8-0.6-4.6-0.3-5.5,0.1c-2,1.1-5.7,2.5-9.7,1.4c-6-1.6-8.4-7.5-9.9-10.9c-1.1-2.6-4.2-10.2-0.6-14.1c2.7-2.9,7.9-2.4,11.2-1.4
	c10.3,3.3,12.4,16.1,15.7,15.4c2.7-0.6-3.5-6.6-0.6-21.6c0.8-4.2,1.4-6,7.3-13.3c4.3-5.3,8.4-12,11.8-17.7c2.7-4.5,0.7-19.1,4.1-20
	c6.6-1.7,8.7,5.6,22,9.5c16.8,4.8,20.5-4.8,39.5-1.6c9.7,1.6,6.1,3.7,36.4,15.5c7.4,2.9,10,3.9,12.5,7c9.2,11.5,2,29.8,3.3,31.6
	c1,1.3,6.4-10.1,17.3-10.7c3.7-0.2,9.4,0.9,11.5,4.3c5.2,8.4-6.3,15.7-13.8,29.8c-5.7,10.8-5.8,24.8-10.2,33.7
	c-3.5,7.3-8.3,13.1-20.6,18c-14.8,5.8-28.7,7.5-34.9,4.5c0,0,0,0,0,0c-5.1,9.5-0.2,18.7-0.2,18.7c0.1,1.1,0.2,2.9,0.3,5.2
	c-1.3,1.1-3.7,2.7-6.9,3.8c-0.9,0.3-2,0.5-3.3,0.6C238,242.8,234.2,240,234.2,240z"/>
<path fill="#2BB673" stroke="#000000" stroke-width="3.3239" stroke-miterlimit="10" d="M265.1,232.7c3.7-3.2,9.3-2.2,17.9-0.7
	c4.2,0.7,9.6,1.7,16.5,5c10.2,4.9,15.3,10.7,24.8,17.5c13.3,9.5,23.5,20.8,36.5,30c0.2,0.1,11,5.3,23,14.2c3.4,2.5,7,5.4,8.3,10.3
	c1.4,5.3-0.2,12.1-3.4,13c-2.1,0.7-3.3-1.7-9.7-5.2c-4.4-2.4-8.1-4.4-12.5-4c-4.5,0.4-4.8,2.8-8.3,3.1c-6.5,0.5-15.3-8.8-20.3-11.9
	c-4.6-2.9-10.4-5.4-17.7-11.8c-3.6-3.2-4.9-5.7-6.9-5.3c-3.3,0.6-2.2,7.6-7.7,17.1c-3.5,6.1-4,6.8-5.7,12c-1.4,4.6-1.8,18.5,1,27.4
	c0,0,1.9,0.7,2.8,9.4l1.7,5.6c-0.8,2.1-7.6-0.1-17.9,0.7c-10.4,0.8-11.7,2.8-16.8,1.8c-5.7-1.2-6.2-3.6-13-5.8
	c-5.6-1.8-12.6-1.2-14.5-0.6c-5.5,1.7-6.3,3.4-12.7,5.8c-1.8,0.7-0.8-0.1-5.9,0.8c-8.5,1.5-13.9,1.8-19,1.3
	c-4.7-0.4-5.4-1.1-5.7-1.5c-2.6-3,0.2-8,2.1-17.9c0.6-3.2,2.4-10.7-0.3-19.6c-1-3.5-4-6.7-8.9-15c-5.9-9.9-5.2-10.2-7.1-15.4
	c-1-2.7-1.2-2.6-9.9-10.6c-8.6-7.8-7.9-6.8-12.5-11.6c-4-4.2-15.4-15.4-17.8-19.2c-1.8-2.9-27.2-40.2-32.3-45.5
	c-2.8-2.9-19.8-30.5-20.6-31.7c-4.4-6.6,13.6-2.4,11.5-2.4c-9.6-0.2,2.7-4.3,10.7-6.9c6.5-2.2,1.7-16.7,4.2-11.3
	c3.4,7.7,11.9,21.2,19.7,32.1c6.6,9.2,5.2,5.8,13.9,18.6c7.8,11.5,18.7,21.9,22.3,25.3c10,9.2,15.1,13.7,24.1,9.4
	c3.6-1.7,7.7-3.1,16.1-5.1c10.1-2.5,11.8-1.8,12.9-1.1c3.7,2.6,1,7.5,5,12.2c4,4.6,11.1,4.5,13.6,4.5c2.7,0,8.2-0.1,12.2-3.9
	C263.7,241.3,260.9,236.3,265.1,232.7z"/>
<polygon fill="#F7941E" stroke="#000000" stroke-width="3.3239" stroke-miterlimit="10" points="262.3,267.5 284.5,288.5 
	264.4,320.1 221.2,321.8 198.7,292.4 219.7,269.2 "/>
<polygon fill="#27AAE1" stroke="#000000" stroke-width="3.3239" stroke-miterlimit="10" points="268.8,289.1 256.1,309.2 
	230.6,310.3 214.4,291.3 221.3,281.4 260,279.9 "/>
<path fill="#F7941E" stroke="#000000" stroke-width="3.3239" stroke-miterlimit="10" d="M385.7,323.2c1.1,3.7-3.1,10.4-11,19
	c-17.1,18.4-19.5,16.1-26.5,25.7c-6.8,9.4-7.9,16.2-17.6,23.7c-4.2,3.2-7.2,4.4-10,3.8c-5.5-1.3-7.7-9.4-9-14.2
	c-1.5-5.5-3.3-12.2,0.4-17.4c2.8-4,7.5-5.2,11-6c7.6-1.9,9.6,0.8,13.4-0.5c11.4-3.9,5-32.9,18.6-40c5.6-2.9,11.8-2.7,15-2
	C373.4,315.9,384.2,318,385.7,323.2z"/>
<path fill="#F7941E" stroke="#000000" stroke-width="3.3239" stroke-miterlimit="10" d="M304.8,361.8c1.3,4.1,2.6,8.1,3.9,12.2
	l-36.4,1.4l-4.5-13.3L304.8,361.8z"/>
<polygon fill="#F7941E" stroke="#000000" stroke-width="3.3239" stroke-miterlimit="10" points="226.9,364.4 227.4,379.4 
	194.3,378.5 197.7,364.9 "/>
<path fill="#ED1C24" stroke="#000000" stroke-width="3.3239" stroke-miterlimit="10" d="M266.7,364.4c0.5,0.8,4.6,7.7,1.7,14.5
	c-3.8,8.9-15.8,9.6-18.1,9.7c-2.7,0.2-15.8,0.5-21.1-9.3c-0.2-0.4-4.2-8-0.6-15.1c5.1-10.1,19.9-8.9,21.5-8.7
	C252.7,355.8,261.9,356.6,266.7,364.4z"/>
<path fill="#FFFFFF" stroke="#000000" stroke-width="3.3239" stroke-miterlimit="10" d="M257.8,367c2.3,3.1,2.1,7.7-0.1,10.7
	c-3.5,4.7-11.4,4.1-15.7,0.6c-2.4-1.9-5-5.9-3.7-9.4c1.3-3.5,5.7-4.4,7.7-4.8C247.6,363.7,254.5,362.3,257.8,367z"/>
<path fill="#2BB673" stroke="#000000" stroke-width="3.3239" stroke-miterlimit="10" d="M308.7,376.2c0,0,3.7,9.3,7.3,20
	c0.6,1.8,3,9.8,4.5,14.4c9.3,28.5,8.4,57.5,11.7,60.3c4.3,3.7,5,6.6,6.3,12c1.7,6.6,1.8,10.2,2.3,16.2c0.2,3.1,1.8,5.2,1.4,7.2
	c-0.5,2.9-5.1,4.4-8.2,5.4c-1.8,0.6-9.3,2-15.2,1.9c-6.4-0.1-14.2-2.8-14.2-2.8l-0.1-2.2c0,0-1-7.6-2.4-11.2
	c-4.4-11.1-9.9-18.3-17.4-26.3c-23.5-25.1-25.5-38.8-30.5-40.4c0,0-8.7,14.2-32.7,45.7c-7.3,9.6-13.1,16-13,25.8
	c0.1,5.7,2.2,11.1-1.1,14.6c-0.7,0.8-2.1,1.9-10.6,2.7c-15.3,1.5-20-1.1-21.4-2c-1.6-0.9-4.5-2.7-4.7-5.4c-0.2-2.5-0.7-4.6-0.3-7.8
	c1-7.8,0.4-9.8,4.1-16.8c1.7-3.1,2.8-7.3,4.3-10.9c3.3-7.9-1.5-29.7,2.3-50.7c2.1-11.6-0.4-20.8,3.2-24.6
	c6.2-6.6,10.1-20.4,10.1-20.4s29.8-2.5,33-0.4c8.5,5.5,7.5,8.9,22.9,8.3c13.3-0.5,18.1-9.7,21.8-10.9
	C283.7,373.9,308.7,376.2,308.7,376.2z"/>
<path fill="#F7941E" stroke="#000000" stroke-width="3.3239" stroke-miterlimit="10" d="M346.9,518.4c-0.4-5.4-0.2-9.9-2.7-11.1
	c-1.4-0.7-2.7,0.1-6.1,1.4c-4,1.5-8.2,3-12.2,3.3c-6.7,0.5-19.2-0.4-20.2,0.8c-3.5,4.4,4.7,16.7,10.5,25.4
	c8.6,12.8,11.1,12.7,12.5,19.1c1.3,5.8-0.4,7.1,0.8,20.2c0.9,9.4,2.1,12.1,2.8,13.4c1.1,2.2,3,4.8,11.7,11.3
	c8.9,6.7,13.4,10,17.3,11.1c1.1,0.3,14.1,3.6,22.9-3.7c1.5-1.2,4.1-3.4,4.8-6.9c0.3-1.4,0.8-5.6-6.7-14.3
	c-7.7-8.9-12.4-9.3-22.1-19.3c-3.8-3.9-5.7-5.8-7.1-8.7c-3.2-6.5-1.2-9.5-2.6-22.3C349.2,526.4,347.6,528.4,346.9,518.4z"/>
<path fill="#F7941E" stroke="#000000" stroke-width="3.3239" stroke-miterlimit="10" d="M202.7,533c2.7-5.7,7.3-15.4,4.3-18.1
	c-1.5-1.3-3.6,0.2-10.6,1.5c-7.6,1.5-15.7,3.1-21.4-0.8c-3.6-2.5-3.7-5.6-5.3-5.4c-4.3,0.5-4.9,24-5,28.8
	c-0.6,20.3,2.1,21.5-0.5,28.6c-1.9,5.2-3.7,5.4-20.4,23.8c-12,13.2-14.7,17.1-13.7,21.3c1.4,6.1,9.6,8.9,11.6,9.6
	c9.7,3.4,18.6-1.1,20.1-1.9c5.2-2.7,4.4-4.6,15.1-14.6c7.8-7.3,8.5-6.6,9.7-9.4c2.3-5.3-0.1-8.8-0.3-22.4c-0.1-4.4-0.1-6.5,0.2-9
	C188,553.1,194.9,549.5,202.7,533z"/>
<path fill="#92278F" stroke="#000000" stroke-width="3.3239" stroke-miterlimit="10" d="M152.4,259.4c0,0-2.8,3.4-11.4,9.5
	c-7.3,5.1-22.3,17.7-35,38.4c-12,19.6-9.8,27.4-25,48.7c-11.7,16.4-19.6,21.1-22.7,22.8c-12.2,6.7-26,7.9-32.8,8
	c-14.4,0.3-19.6-3.5-22.5-0.2c-5,5.8,4,25.9,18.3,38c7.3,6.1,17.6,10.7,38.4,19.8c11,4.8,9.9,3.8,13.1,5.7
	c19.3,10.8,17.6,23.2,32.2,32.4c12.7,8,14.3,9.8,39.6,8.5c14.8-0.7,24.1,9.4,26.5,5.6c0.5-0.8,1.3-0.9,3.4-5.6
	c2.6-5.7,3.9-9.7,6.3-15.5c2.1-5.1-5-23.4,0-48.2c2.2-11.1,5.2-22.6,8.9-31.7c5.6-13.8,1.4-3.5,5.6-13.8c3.2-7.8,7.3-33.7,9-39.5
	c3.8-13.7-15.7-40.2-15.6-47.1c0-2.1-15.1-14.6-25.8-24.9C158.7,266.3,153.8,260.9,152.4,259.4z"/>
<path fill="#92278F" stroke="#000000" stroke-width="3.3239" stroke-miterlimit="10" d="M211.8,494c1.4,1.4,26.9-10.4,43.6-10.1
	c25.1,0.4,42.9,11.8,45,8.9c2.3-3.3-9.6-10.3-23.8-29.4c-6.6-8.9-19.7-32.8-22.4-32.7c-2.4,0-12.8,18.8-23.6,33.1
	C219.5,478.2,210.6,492.8,211.8,494z"/>
<path fill="#92278F" stroke="#000000" stroke-width="3.3239" stroke-miterlimit="10" d="M339.7,478.8c6.8,6.7,14.3-10,30.2-16.4
	c15.9-6.3,20,2.3,33.6-3c19.3-7.6,13.6-26.3,36-40.7c3.8-2.5,15.5-6.6,38.7-15c19.3-6.9,22.1-7.3,23.2-10.5
	c3.9-11.3-26.7-22.7-58.5-60.5c-18.3-21.8-16.6-28.1-34.9-44.6c-11.8-10.7-22.3-16.8-43.2-29.2c-16.7-9.8-28.7-15.4-42.8-19.1
	c-8.2-2.1-24.8-2.4-24.8-2.4s7.9,6.9,24.3,18.1c23.7,16.2,19.8,16.6,38.2,28.8c20.4,13.5,30.3,16.4,31.9,26.2
	c0.8,5.1-1.1,9.2-3.9,15.3c-4.6,10.1-9.6,12.5-23.6,27.3c-11.4,12.1-17.2,18.1-20.4,23.3c-4.3,6.9-6.6,12.6-13.4,16.2
	c-6.9,3.7-14.2-0.6-13.3,3.9c1.2,6.2,9.4,20.5,11.3,49.6c0.4,6.9,1.2,14.2,3.1,22.6C332.2,473.4,335.7,474.8,339.7,478.8z"/>
<g>
	<path fill="#92278F" stroke="#000000" stroke-width="3.3239" stroke-miterlimit="10" d="M310.7,287.8c5.8-4.5,6.2,3.3,22.2,13.3
		c11.8,7.4,20.4,9,20.5,12.8c0,2.6,0,2.6-2.9,7.6c-5.5,9.5-2.3,25.8-10.8,33.8c-5.8,5.5-15.5-1.6-23.4,4.9c-7,5.8-7.8,14.2-10.2,14
		c-2.1-0.2-2.8-7.3-3.6-13.3c-1.3-8.9-5-15.1-6.3-20.4c-2.2-9-2-16.4-1.5-19.5c0.4-2.7,4.3-7.8,6.6-15.6
		C303,298.7,308.3,289.7,310.7,287.8z"/>
</g>
<path fill="#F7941E" stroke="#000000" stroke-width="3.3239" stroke-miterlimit="10" d="M260.5,233.3c-0.2-0.2,0,0.9-2.8-0.4
	c-2.3-1.1-2-0.8-2-0.8s0.2,3.5-0.7,6.3c-1.3,4-6.5,5.9-8.4,6.2c-2,0.4-9.8,0.8-12.4-2.6c-2.1-2.7-2.2-9-2.2-9l-7,0.3
	c0,0,2,9.7,5,12.9c3.8,4,8.1,4.4,11.2,4.6c2.9,0.2,9.5,0.6,14.6-3.8C260.5,243,262.3,235.2,260.5,233.3z"/>
<path fill="none" stroke="#C49A6C" stroke-width="3.3239" stroke-miterlimit="10" d="M157.8,146.4c0.5-0.8-1.5-3.5-4.1-4.7
	c-3-1.4-6.6-0.7-6.8,0.3C146.6,143.7,156.8,147.9,157.8,146.4z"/>
<path fill="none" stroke="#C49A6C" stroke-width="3.3239" stroke-miterlimit="10" d="M310.5,142.3c-0.4-0.8,3-4,7-5.4
	c3.4-1.2,7.7-1.2,7.9-0.3C325.7,138.2,311.3,143.8,310.5,142.3z"/>
<g>
	<path fill="#FFFFFF" stroke="#000000" stroke-width="3.3239" stroke-miterlimit="10" d="M288.3,146.6c-3,1.9-6.1-2.8-14.5-2.5
		c-7.7,0.3-10.7,4.7-13.2,2.9c-3.2-2.2-0.7-10.7,2.3-20.6c2.3-7.9,4.5-11.3,7.7-13.6c1.3-1,3.9-2.8,6.7-2.3
		c1.3,0.2,4.5,1.3,8.3,10.6C286.2,122.7,294.2,142.9,288.3,146.6z"/>
	<path fill="#006838" stroke="#000000" stroke-width="3.3239" stroke-miterlimit="10" d="M283.5,141.4c4.2-6.1,1.3-13.2,0.8-14.4
		c-0.2-0.5-4.2-9.3-10.6-8.8c-5.9,0.4-8.8,8.4-9.2,9.6c-2.1,5.9,2.2,17.6,10,16.7C279.9,143.8,280.3,146.1,283.5,141.4z"/>
	<path fill="#2BB673" stroke="#000000" stroke-width="3.3239" stroke-miterlimit="10" d="M274.4,144c3.6-0.5,4.9-1,4.9-5.2
		c0-1.9-1.3-6.9-4.8-6.8c-3.5,0.1-4.7,1.5-4.8,6.1C269.6,141.4,270.8,144.5,274.4,144z"/>
</g>
<path fill="none" stroke="#000000" stroke-width="3.3239" stroke-miterlimit="10" d="M226.5,99.1c-5.3-1.5-15.7,0.6-23.1,10"/>
<path fill="none" stroke="#000000" stroke-width="3.3239" stroke-miterlimit="10" d="M286.7,105.7c-0.2-5-10.9-8.6-24-8.1"/>
<line fill="none" stroke="#000000" stroke-width="3.3239" stroke-miterlimit="10" x1="214.2" y1="107.4" x2="214.2" y2="107.4"/>
<g>
	<path fill="none" stroke="#C49A6C" stroke-width="3.3239" stroke-miterlimit="10" d="M258.9,175.4c-0.5,0.5-3.5,4-8.2,3.8
		c-4.1-0.1-8.8-2.9-9.4-7.3c-0.4-3.3,1.7-6.2,3.9-7.8c2.9-2,6.8-2.1,10.1-0.3"/>
</g>
<path fill="none" stroke="#BE1E2D" stroke-width="3.3239" stroke-miterlimit="10" d="M294.1,183.3c-1.5-2.2-5.8-4.2-5.8-4.2
	s-3.4,4.9-5.7,8.2c-7.9,11-19.8,14.6-23.9,15.6c-6.5,1.6-11.7,1.2-16.7,0.9c-3.8-0.3-10-0.1-16.9-3.3c-3.7-1.7-7.5-3.5-13-7
	c-6-3.9-6.9-5.4-6.9-5.4c-4.1-3.7-5.3-4.5-5.3-4.5s-2,2.5-2.6,4.2"/>
<g>
	<path fill="#FFFFFF" stroke="#000000" stroke-width="3.3239" stroke-miterlimit="10" d="M231.5,148.9c-3,1.9-6.1-2.8-14.5-2.5
		c-7.7,0.3-10.7,4.7-13.2,2.9c-3.2-2.2-0.7-10.7,2.3-20.6c2.3-7.9,4.5-11.3,7.7-13.6c1.3-1,3.9-2.8,6.7-2.3
		c1.3,0.2,4.5,1.3,8.3,10.6C229.5,124.9,237.4,145.1,231.5,148.9z"/>
	<path fill="#006838" stroke="#000000" stroke-width="3.3239" stroke-miterlimit="10" d="M226.8,143.6c4.2-6.1,1.3-13.2,0.8-14.4
		c-0.2-0.5-4.2-9.3-10.6-8.8c-5.9,0.4-8.8,8.4-9.2,9.6c-2.1,5.9,2.2,17.6,10,16.7C223.1,146.1,223.5,148.3,226.8,143.6z"/>
	<path fill="#2BB673" stroke="#000000" stroke-width="3.3239" stroke-miterlimit="10" d="M217.6,146.3c3.6-0.5,4.9-1,4.9-5.2
		c0-1.9-1.3-6.9-4.8-6.8c-3.5,0.1-4.7,1.5-4.8,6.1C212.8,143.6,214,146.7,217.6,146.3z"/>
</g>
<use xlink:href="#Blond_Hair_4"  width="22.7" height="15.4" x="-11.3" y="-7.7" transform="matrix(-2.3157 9.174465e-02 -0.1567 -3.9561 162.7293 94.9776)" overflow="visible"/>
<use xlink:href="#Blond_Hair_4"  width="22.7" height="15.4" x="-11.3" y="-7.7" transform="matrix(-2.3157 9.174465e-02 -0.1567 -3.9561 154.2136 80.0315)" overflow="visible"/>
<use xlink:href="#Blond_Hair_4"  width="22.7" height="15.4" x="-11.3" y="-7.7" transform="matrix(7.5978 -1.034 -0.4861 -3.5719 273.8848 78.5482)" overflow="visible"/>
<use xlink:href="#Blond_Hair_4"  width="22.7" height="15.4" x="-11.3" y="-7.7" transform="matrix(6.1501 -2.0414 -1.1327 -3.4125 263.6681 53.949)" overflow="visible"/>
<use xlink:href="#Blond_Hair_4"  width="22.7" height="15.4" x="-11.3" y="-7.7" transform="matrix(4.523 -2.6117 -1.7989 -3.1154 248.684 36.1368)" overflow="visible"/>
<use xlink:href="#Blond_Hair_4"  width="22.7" height="15.4" x="-11.3" y="-7.7" transform="matrix(3.7599 0.2903 0.1486 -1.9243 350.0004 126.2522)" overflow="visible"/>
<use xlink:href="#Blond_Hair_4"  width="22.7" height="15.4" x="-11.3" y="-7.7" transform="matrix(5.5472 -0.3761 -0.1432 -2.1114 384.5605 175.3014)" overflow="visible"/>
<use xlink:href="#Blond_Hair_4"  width="22.7" height="15.4" x="-11.3" y="-7.7" transform="matrix(3.9423 -0.2673 -0.1789 -2.6391 344.1591 224.952)" overflow="visible"/>
<use xlink:href="#Blond_Hair_4"  width="22.7" height="15.4" x="-11.3" y="-7.7" transform="matrix(5.8701 -0.398 -0.2023 -2.9831 383.0396 202.5937)" overflow="visible"/>
<g>
	<g>
		<path fill="none" stroke="#000000" stroke-miterlimit="10" d="M519.9,381.1"/>
	</g>
</g>
<g>
	<path fill="#F7941E" stroke="#000000" stroke-width="3.3239" stroke-miterlimit="10" d="M96.8,178.3c-13.5-8.2-7.3-52-29-54.8
		c-12.1-1.5-14.2-4.6-14.1-5.2c0.1-0.5,14.2,0.6,14-4c-0.2-4.3-15.2-4.5-15.2-3.9c-0.1,0.6,15-0.6,14.9-4.9
		c-0.1-3.7-16.4-1.7-16.4-1.8c0-0.1,16-3.1,15.9-4.9c-0.2-3-16.5-2.7-16.5-2.9c0-0.2,15.6,0.3,16-1.7c0.7-3.8-16.8-7.5-16.2-7.4
		c0.3,0,11.2,4.8,13.6,1.8c2.3-2.8-3.1-10-2.2-14.1c0.5-2.3,5.6-3.6,7.1-1.1c2.1,3.4,3.9,8.4,4,10.8c0.2,5.3,1.5,10.8,17.5,31.7
		c27.7,36.1,40.4,42.8,37.7,51.8C124.8,177.3,106.2,184.1,96.8,178.3z"/>
	<path fill="none" stroke="#000000" stroke-width="3.3239" stroke-miterlimit="10" d="M49.9,86.8c0,3.2,0.1,6.3,0.2,9.2
		c0.1,2.9,0.3,5.6,0.4,8c0.2,2.5,0.4,4.8,0.7,6.7c0.6,4.7,1.5,7.6,2.4,7.6"/>
	<g>
		<g>
			<path d="M50.8,89.6c0,1.2-0.4,3.5,0.4,4.5c0.7,0.9,1.4,0.5,2.3,0.4c1.6-0.1,3.1,0.8,4.8,0.7c1.8,0,3.5-0.4,5.1-1
				c0.8-0.3,0.8-1.3,0-1.6c-2-0.7-3.8-1.6-5.8-2.3c-1.4-0.6-3.3-1.6-4.8-1.4c-0.4,0-0.7,0.2-0.8,0.6c-0.4,1.3-0.6,3,0.9,3.4
				c0.6,0.2,1.3,0,2,0.2c0.6,0.2,1.2,0.5,1.8,0.7c1.1,0.4,2.1,0.7,3.2,0.5c0.9-0.1,1.1-1.3,0.2-1.6c-2.1-0.8-4.3-1.8-6.6-2.2
				c-1-0.2-1.5,1.4-0.4,1.6c2.3,0.3,4.4,1.3,6.6,2.2c0.1-0.5,0.1-1.1,0.2-1.6c-1.7,0.2-3-0.7-4.6-1.2c-0.3-0.1-1.1-0.4-1.4-0.3
				c-0.7-0.2-0.8,0-0.4,0.4c0-0.6,0.1-1.1,0.2-1.7c-0.3,0.2-0.5,0.4-0.8,0.6c1.6-0.2,4,1.2,5.4,1.8c1.6,0.7,3.1,1.3,4.7,1.9
				c0-0.5,0-1.1,0-1.6c-2.8,0.9-5.2,1.1-8,0.3c-0.7-0.2-1.3-0.2-2-0.2c-0.9-0.1-0.3,0.4-0.4-0.4c-0.1-0.9-0.1-1.8,0-2.7
				C52.5,88.5,50.8,88.5,50.8,89.6L50.8,89.6z"/>
		</g>
	</g>
	<g>
		<g>
			<path d="M51,98.1c0.1,1.4,0.2,2.9,0.3,4.3c0.1,0.8,1.1,1.2,1.5,0.4c0.7-1.4,3.9-1.4,5.2-1.7c1.7-0.4,3.3-0.9,4.9-1.3
				c0.6-0.2,0.8-0.9,0.4-1.4c-1.5-1.7-3.8-1.4-5.8-1.3c-1.3,0-5.1-0.8-5.6,1c-0.3,1.1,0.4,2.5,1.5,2.5c1.3,0.1,2.7-0.3,4-0.3
				c1.4,0.1,2.7,0,4.1-0.3c1-0.3,0.6-1.9-0.4-1.6c-1.6,0.4-3.1,0.2-4.7,0.2c-0.5,0-1,0-1.5,0.1c-0.2,0-1.8,0.1-1.3,0.2
				c2.4,0.5,6.8-1.4,8.7,0.8c0.1-0.5,0.2-0.9,0.4-1.4c-2.5,0.7-4.9,1.4-7.5,1.8c-1.6,0.2-2.9,0.5-3.7,2c0.5,0.1,1,0.3,1.5,0.4
				c-0.1-1.4-0.2-2.9-0.3-4.3C52.6,97,50.9,97,51,98.1L51,98.1z"/>
		</g>
	</g>
	<g>
		<g>
			<path d="M56.1,99.4c0.7,0,2.1-0.3,2.8,0c0.4,0.2,0.7,0.6,1.1,0.7c0.6,0.2,1.4,0.1,2,0.1c0.8,0,1.8,0.1,2.6-0.2
				c0.4-0.1,0.6-0.4,0.6-0.8c0,0,0-0.1,0-0.1c0-0.3-0.2-0.6-0.4-0.7c0,0-0.1,0-0.1-0.1c-0.9-0.6-1.7,0.9-0.8,1.4c0,0,0.1,0,0.1,0.1
				c-0.1-0.2-0.3-0.5-0.4-0.7c0,0,0,0.1,0,0.1c0.2-0.3,0.4-0.5,0.6-0.8c-0.7,0.2-1.7,0.2-2.4,0.1c-0.5,0.1-1,0-1.5-0.3
				c-0.2-0.1-0.3-0.2-0.5-0.4c-1.1-0.4-2.4-0.2-3.6-0.2C55,97.8,55,99.4,56.1,99.4L56.1,99.4z"/>
		</g>
	</g>
	<g>
		<g>
			<path d="M52.3,101.4c0.4,0,0.8,0,1.2,0c1.1,0,1.1-1.7,0-1.7c-0.4,0-0.8,0-1.2,0C51.2,99.8,51.2,101.4,52.3,101.4L52.3,101.4z"/>
		</g>
	</g>
	<g>
		<g>
			<path d="M51.9,106.4c4.5,0,9.1,0,13.6,0c-0.1-0.5-0.1-1.1-0.2-1.6c-2.8,0.8-5.6,1.6-8.4,2.4c-0.7,0.2-1.4,0.3-2,0.6
				c-0.3,0-0.6,0.2-0.8,0.3c-0.3,0.3-0.4,0.3-0.4-0.2c-1.4-0.9,2.1-0.5,2.7-0.5c1.4,0,2.7-0.1,4.1-0.3c0.2,0,2-0.2,2-0.2
				c0-0.2-1.7-0.2-1.9-0.2c-0.9,0.1-1.7,0.4-2.5,0.7c-0.4,0.2-0.9,0.5-1.4,0.6c-0.5,0.4-1,0.3-1.5-0.2c-0.9-0.1-1.2-0.3-0.7-0.7
				c0.1,0.5,0.1,1,0.2,1.5c0.2-0.1,0.4-0.2,0.6-0.3c1.1-0.1,1.1-1.7,0-1.7c-0.7,0-0.9,0-1.5,0.5c-0.5,0.4-0.6,1.4,0.2,1.5
				c1.5,0.2,2.5-1.4,1.1-2.5c-1.2-1-2.4-0.1-2.6,1.2c-0.3,2.7,2.3,3,4.3,2.4c0.8-0.3,1.6-0.8,2.5-1c1-0.3,1.9-0.2,2.9-0.4
				c0.8-0.1,1.8-0.4,2.2-1.2c1.1-2.1-1.8-2-3-1.9c-2.4,0.2-4.7,0.4-7.2,0.3c-0.9,0-1.8-0.3-2.3,0.6c-0.6,1,0.2,3.3,1.3,3.6
				c1.4,0.4,4.4-1.1,5.6-1.5c2.3-0.7,4.6-1.3,6.9-2c0.9-0.3,0.7-1.6-0.2-1.6c-4.5,0-9.1,0-13.6,0C50.9,104.8,50.9,106.4,51.9,106.4
				L51.9,106.4z"/>
		</g>
	</g>
	<g>
		<g>
			<path d="M52.6,113.4c2.6-0.1,5.2-0.2,7.8,0.1c1.2,0.1,2.7,0.2,3.9,0.6c0.6,0.2,0.6,0.1,0.1-0.2c-0.7,0.3-1.5,0.6-2.2,0.9
				c-1.1,0.4-2.2,0.7-3.4,0.8c-0.2,0-5.3,0.9-4.4-1c0.3-0.5,3.9-0.7,4.5-0.8c0.7-0.1,4.7-0.1,1.8,0.6c-0.9,0.2-1.8,0.3-2.7,0.5
				c-1.3,0.2-3.6,0.5-1-0.1c0.9-0.2,1.9-0.4,2.9-0.5c0.8,0.2,1.4,0.1,1.9-0.4c-0.1,0-0.1,0-0.2,0c-1.2,0.1-2.5,0.4-3.6,0.7
				c-0.6,0.2-1.2,0.3-1.8,0.5c0.1,0.7,0.5,0.8,1.1,0.3c1,0,2.2-0.5,3.2-0.6c1.1-0.1,0.6-1.7-0.4-1.6c-1.6,0.2-7.3,0.8-5.1,3.6
				c0.2,0.2,0.6,0.3,0.8,0.2c2.3-0.8,4.6-1,6.9-1.6c0.7-0.2,1.2-0.3,1.4-1.1c0.4-2.3-3.4-1.9-4.6-1.7c-1.4,0.2-6.6,0.1-6.1,2.8
				c0.6,2.7,5.9,0.9,7.3,0.6c1.4-0.3,4.2-1.5,2.6-3.2c-0.8-0.9-2.4-0.9-3.5-0.8c-1.8,0.2-3.6,0.5-5.4,0.6c-2.2,0.1-2.4,3-0.9,4.4
				c1.6,1.5,6.4,0.1,8.2-0.4c1-0.3,6.2-1.7,4.1-3.7c-1-1-3.7-0.9-5.1-1c-2.7-0.3-5.5-0.3-8.2-0.2C51.5,111.7,51.5,113.4,52.6,113.4
				L52.6,113.4z"/>
		</g>
	</g>
</g>
</svg>
