<?xml version="1.0" encoding="utf-8"?>
<!-- Generator: Adobe Illustrator 18.1.0, SVG Export Plug-In . SVG Version: 6.00 Build 0)  -->
<!DOCTYPE svg PUBLIC "-//W3C//DTD SVG 1.1//EN" "http://www.w3.org/Graphics/SVG/1.1/DTD/svg11.dtd">
<svg version="1.1" id="Layer_1" xmlns="http://www.w3.org/2000/svg" xmlns:xlink="http://www.w3.org/1999/xlink" x="0px" y="0px"
	 viewBox="0 0 200 200" enable-background="new 0 0 200 200" xml:space="preserve">
<symbol  id="Blond_Hair_4" viewBox="-11.3 -7.7 22.6 15.3">
	<g>
		<path fill="#FEE751" d="M-11.3,6.9c0,0,5.6,2.6,10.6-1.9c5-4.6,5.8-10.2,12-12.7C4.7-6.6,2.2,0.8-1,3.9
			C-6.1,8.8-10.8,6.9-11.3,6.9z"/>
	</g>
</symbol>
<path fill="#FFDE17" stroke="#F9ED32" stroke-miterlimit="10" d="M31.2,63c0-1,8.9-0.8,14.5-7c2.1-2.3,2.9-4.7,6.7-7.8
	c1.7-1.4,3.5-2.5,3.3-3c-0.4-0.8-6.1,2.1-7,0.7c-1-1.3,3.7-5.5,8.5-12.2c6.9-9.5,4.8-11.3,10-17C73.3,10,80.7,7.3,84.6,5.9
	c0,0,8.9-3.6,15.6-3c1.6,0.2,3.3,0.5,3.3,0.5s1.1,0.3,2.2,0.6c3.5,1.2,12.1,8.9,12.7,8.5c0.3-0.3-3.6-4.6-6.9-7.3
	c-3.3-2.7-7.7-3.6-7.6-4c1.1-2.2,17.5,6.9,18.6,7.8c1.2,0.9-3.6-9.2-3.4-9.1c0.5,0.3,6.2,7.8,8.8,12.4c2.5,4.4,2.3,4.1,5.2,8.3
	c2.6,3.9,2.7,9.2,3,12.6c0.3,2.9,0.2,5.6,0.1,6.9c-0.1,2-0.4,3.5-0.5,4.2c-0.3,1.4-0.7,3.9-2,6.8c-0.7,1.7-1.6,3.2-2.1,4
	c0,0-0.3,0.4-0.5,0.8c-2.9,4.5-6.3,7.5-6.3,7.5c-1.4,1.2-4.9,4.8-9.9,6.1c-3.4,0.9-10.4,2.2-10.5,2.3c0,0,0.2-4,0.2-2.2
	c0,0,17.5-2.4,19.7-10.8c1-3.6-1.2-9.7,1-9.6c1.3,0,2.1,1.1,4.1,0.2c3.3-1.5,5.7-6.9,3.7-8.7c-1.1-1.1-3.6-0.6-5.2,0.4
	c-2.5,1.6-2.7,4.5-3.3,4.5c-0.8-0.1,0.7-4.9-1.8-8.9c-1-1.6-1.7-1.6-3.7-4.5c-1.2-1.7-1.8-2.7-2.2-4.1c-0.8-2.9,0.5-4.5-0.4-5.2
	c-1.1-0.9-3.5,1.4-7.4,2.6c-5.5,1.7-6.5-1.2-12.6,0c-4.3,0.9-3.3,2.2-11.5,5.2c-1.5,0.5-3.1,1.1-4.5,2.6c-2.2,2.4-2.2,5.5-2.2,5.9
	c0,2.9,1.5,5,1.1,5.2c-0.4,0.2-1.9-3.5-4.8-4.1c-1.4-0.3-3.2,0.2-4.1,1.5c-1.1,1.5-0.3,3.6,0,4.5c1.2,3.2,3.4,2.9,4.8,5.9
	c1,2.2,0,2.6,1.1,5.9c0.8,2.3,1.9,3.9,2.6,4.8c1,1.3,2.2,3.1,4.5,4.5c1.6,1,3.4,1.4,7,2.2c0,0,1.6-0.3,6.6,0.6
	c-0.2-1.2,0.3,3.1-0.3,4.2c-0.8,1.6-5.1,0.4-9.6,0.4c-2.9,0-2,0.5-16.6,4.1c0,0-5.9,1.5-11.6,1.8h0c-5.2,0.3-7.8,0.5-8,0
	c-0.3-0.8,7.2-5.1,6.7-4.1c-0.1,0.2-23.9-0.2-25.6-1.8c-2-2,15.6-10.4,13-10.4C44,64.5,31.2,66.3,31.2,63z"/>
<path fill="#F3D9CC" stroke="#F3D9CC" stroke-miterlimit="10" d="M103.6,77.5c0,0,0.3-5.4,0.6-8.5c0,0,2.8,1.4,9.9-1.4
	c0.8-0.3,3.8-0.9,7.2-4.4c1.5-1.6,1.8-3.7,2.2-5.2c0.7-3-0.2-3.3-0.3-7c0,0-0.7-0.2,1.1-1.8c0.3-0.2,1.5-0.2,1.8,0
	c0.7,0.3,1.9,0.7,3.2,0.3c1.9-0.6,2.6-2.5,3-3.6c0.3-0.8,1.2-3.4,0-4.5c-0.9-0.9-2.6-0.7-3.6-0.3c-3.3,1.2-3.8,5.3-4.8,5.2
	c-0.9-0.1,1.1-2.2-0.1-7c-0.3-1.4-0.5-1.9-2.5-4.2c-1.5-1.6-2.8-3.8-4-5.5c-0.9-1.4-0.5-6.1-1.6-6.4c-2.2-0.5-2.7,1.9-7,3.3
	c-5.4,1.8-6.6-1.3-12.7,0c-3.1,0.6-1.9,1.3-11.5,5.5c-2.4,1-3.2,1.4-3.9,2.4c-2.8,3.8-0.3,9.6-0.7,10.2c-0.3,0.4-2.2-3.2-5.7-3.2
	c-1.2,0-3,0.4-3.6,1.5c-1.6,2.8,2.2,5,4.8,9.4c2,3.4,2.2,7.9,3.7,10.7c1.2,2.3,2.8,4.1,6.9,5.5c4.8,1.7,9.3,2,11.3,1l0,0
	c1.8,3,0.3,6,0.3,6c0,0.4,0,0.9,0,1.7c0.4,0.4,1.2,0.8,2.3,1.1c0.3,0.1,0.6,0.1,1.1,0.1C102.4,78.4,103.6,77.5,103.6,77.5z"/>
<path fill="#2BB673" stroke="#000000" stroke-miterlimit="10" d="M94.5,75.9c-1.2-1-3-0.6-5.8,0c-1.3,0.3-3.1,0.7-5.2,1.8
	c-3.2,1.7-4.8,3.6-7.8,6c-4.2,3.2-7.3,7-11.4,10.1c-0.1,0-3.5,1.8-7.2,4.9c-1.1,0.9-2.2,1.8-2.5,3.4c-0.4,1.7,0.2,3.9,1.3,4.2
	c0.7,0.2,1-0.6,3.1-1.8c1.4-0.8,2.5-1.5,4-1.5c1.5,0.1,1.6,0.8,2.7,0.9c2.1,0.1,4.6-3.5,6.2-4.6c1.4-1,3.5-1.4,5.7-3.5
	c1.1-1.1,1.5-1.9,2.2-1.8c1.1,0.2,0.8,2.4,2.7,5.4c1.2,1.9,1.4,2.1,2,3.8c0.5,1.5,0.8,5.9,0,8.8c0,0-0.6,0.3-0.8,3l-0.5,1.8
	c0.3,0.7,2.5-0.1,5.8,0c3.4,0.1,3.8,0.8,5.4,0.4c1.8-0.5,2-1.2,4.1-2c1.8-0.7,4.1-0.5,4.6-0.4c1.8,0.5,2.1,1,4.2,1.7
	c0.6,0.2,0.3,0,1.9,0.2c2.8,0.4,4.5,0.4,6.1,0.2c1.5-0.2,1.7-0.5,1.8-0.5c0.8-1-0.7-2.6-1.5-5.8c-0.2-1-0.8-3.8,0-6.7
	c0.5-1.8,1-1.7,2.4-4.5c1.7-3.7,1.3-5,2.4-5.4c1.2-0.5,3.5,1.2,7.9,4.7c3.6,2.8,4.5,4,6.7,4.2c1.2,0.1,2-0.2,3.6,0.4
	c0.7,0.3,2.3,0.7,3.4,2.2c0.8,1,0.8,1.8,1.3,1.8c0.7,0,1.4-1.7,1.6-3.1c0.1-0.4,0.2-1.6-0.2-2.9c-0.7-2.1-2.4-3.3-4-4.3
	c0,0-0.6-0.4-8.1-6c-3.2-2.4-2.6-2.2-6.5-5.1c-4.1-3-4.4-3-6-4.5c-2.3-2.3-2.4-3.1-4.3-4.2c-1.1-0.6-2.5-0.9-5.2-1.5
	c-3.3-0.7-3.8-0.4-4.2-0.2c-1.2,0.9-0.2,2.5-1.5,4c-1.2,1.5-3.5,1.6-4.3,1.6c-0.9,0-2.6,0.1-4-1.1C95,78.6,95.9,76.9,94.5,75.9z"/>
<polygon fill="#F7941E" stroke="#000000" stroke-miterlimit="10" points="94.9,86.7 88,93.8 94.9,103.7 108.8,103.7 115.6,93.9 
	108.6,86.7 "/>
<polygon fill="#27AAE1" stroke="#000000" stroke-miterlimit="10" points="93,93.8 97.4,100.1 105.6,100.1 110.6,93.8 108.2,90.7 
	95.8,90.7 "/>
<path fill="#F7941E" stroke="#000000" stroke-miterlimit="10" d="M55.8,106.2c-0.3,1.2,1.1,3.3,3.8,6c5.7,5.7,6.5,4.9,8.8,7.9
	c2.3,2.9,2.7,5.1,6,7.4c1.4,1,2.4,1.3,3.3,1.1c1.7-0.5,2.4-3.1,2.7-4.7c0.4-1.8,0.9-4-0.4-5.6c-1-1.3-2.5-1.6-3.6-1.8
	c-2.5-0.5-3.1,0.4-4.3,0c-3.7-1.1-2-10.5-6.5-12.6c-1.8-0.9-3.8-0.7-4.9-0.5C59.7,103.7,56.2,104.5,55.8,106.2z"/>
<path fill="#F7941E" stroke="#000000" stroke-miterlimit="10" d="M135.4,103.1c-4.4,0.3-2.7,10.7-7.2,12.8c-2.3,1.1-3.9-0.5-6.3,1.1
	c-2.5,1.6-2.8,4.5-2.9,4.9c-0.3,2.6,0.8,6.1,3.1,6.7c1.4,0.4,2.7-0.4,3.8-1.1c2.8-1.8,3.1-3.6,5.4-6.5c1-1.3,0.8-0.7,8.5-7.8
	c2.5-2.3,3.5-3.3,3.4-4.7c-0.2-2.1-2.1-4.2-2.8-4.6C139.7,103.5,137.4,103,135.4,103.1z"/>
<path fill="#F7941E" stroke="#000000" stroke-miterlimit="10" d="M82.4,117.6c-0.4,1.3-0.7,2.6-1.1,4H93l1.3-4.3L82.4,117.6z"/>
<polygon fill="#F7941E" stroke="#000000" stroke-miterlimit="10" points="107.5,117.5 107.5,122.3 118.1,121.6 116.9,117.2 "/>
<path fill="#ED1C24" stroke="#000000" stroke-miterlimit="10" d="M94.7,118c-0.2,0.3-1.4,2.5-0.4,4.7c1.3,2.8,5.2,2.9,6,2.9
	c0.9,0,5.1,0,6.7-3.3c0.1-0.1,1.3-2.6,0-4.9c-1.8-3.2-6.5-2.6-7-2.5C99,115,96.1,115.4,94.7,118z"/>
<path fill="#FFFFFF" stroke="#000000" stroke-miterlimit="10" d="M97.6,118.7c-0.7,1-0.5,2.5,0.2,3.4c1.2,1.5,3.7,1.2,5.1,0
	c0.7-0.6,1.5-2,1.1-3.1c-0.5-1.1-1.9-1.4-2.5-1.5C100.8,117.5,98.6,117.1,97.6,118.7z"/>
<path fill="#2BB673" stroke="#000000" stroke-miterlimit="10" d="M81.3,122.3c0,0-1.1,3.1-2.1,6.5c-0.2,0.6-0.8,3.2-1.3,4.7
	c-2.6,9.3-2,18.6-3,19.6c-1.4,1.2-1.5,2.2-1.9,3.9c-0.5,2.2-0.5,3.3-0.5,5.3c0,1-0.5,1.7-0.4,2.3c0.2,0.9,1.7,1.4,2.7,1.6
	c0.6,0.2,3,0.5,4.9,0.4c2.1-0.1,4.5-1.1,4.5-1.1v-0.7c0,0,0.2-2.5,0.6-3.6c1.3-3.6,3-6,5.3-8.7c7.3-8.4,7.7-12.8,9.3-13.4
	c0,0,3,4.5,11.1,14.3c2.5,3,4.5,5,4.5,8.1c0,1.8-0.5,3.6,0.5,4.7c0.3,0.3,0.7,0.6,3.4,0.7c4.9,0.3,6.4-0.6,6.9-0.9
	c0.5-0.3,1.4-0.9,1.5-1.8c0-0.8,0.2-1.5,0-2.5c-0.4-2.5-0.3-3.2-1.5-5.4c-0.6-1-1-2.3-1.5-3.5c-1.2-2.5,0.1-9.6-1.4-16.3
	c-0.8-3.7-0.2-6.7-1.4-7.9c-2.1-2-3.5-6.4-3.5-6.4s-9.6-0.4-10.6,0.3c-2.7,1.9-2.3,3-7.3,3c-4.3,0-6-2.9-7.1-3.2
	C89.3,121.2,81.3,122.3,81.3,122.3z"/>
<path fill="#F7941E" stroke="#000000" stroke-miterlimit="10" d="M70.8,168.6c0.1-1.7-0.1-3.2,0.7-3.6c0.4-0.2,0.9,0,2,0.4
	c1.3,0.4,2.7,0.9,4,0.9c2.2,0.1,6.2-0.4,6.5,0c1.2,1.4-1.3,5.4-3.1,8.3c-2.6,4.2-3.4,4.2-3.8,6.3c-0.4,1.9,0.2,2.3,0,6.5
	c-0.2,3.1-0.5,3.9-0.7,4.3c-0.4,0.7-0.9,1.6-3.6,3.8c-2.8,2.3-4.2,3.4-5.4,3.8c-0.4,0.1-4.5,1.4-7.4-0.9c-0.5-0.4-1.4-1-1.6-2.2
	c-0.1-0.4-0.3-1.8,2-4.7c2.4-3,3.9-3.2,6.9-6.5c1.2-1.3,1.7-2,2.2-2.9c1-2.1,0.3-3.1,0.5-7.2C70.1,171.2,70.7,171.8,70.8,168.6z"/>
<path fill="#F7941E" stroke="#000000" stroke-miterlimit="10" d="M117.4,171.4c-0.9-1.8-2.5-4.9-1.6-5.8c0.5-0.5,1.2,0,3.4,0.4
	c2.5,0.4,5.1,0.8,6.9-0.5c1.1-0.9,1.1-1.8,1.6-1.8c1.4,0.1,1.9,7.6,2,9.2c0.5,6.5-0.4,6.9,0.5,9.2c0.7,1.6,1.3,1.7,6.9,7.4
	c4,4.1,5,5.3,4.7,6.7c-0.4,2-3,3-3.6,3.3c-3.1,1.2-6-0.1-6.5-0.4c-1.7-0.8-1.5-1.4-5.1-4.5c-2.6-2.3-2.8-2-3.3-2.9
	c-0.8-1.7-0.1-2.8-0.2-7.2c0-1.4-0.1-2.1-0.2-2.9C122.4,177.7,120.1,176.6,117.4,171.4z"/>
<path fill="#92278F" stroke="#000000" stroke-miterlimit="10" d="M117.7,78.2c0,0,9.4,1.9,16.6,7.1c2.3,1.7,7.4,5.4,11.7,11.9
	c4.1,6.1,3.5,8.7,8.7,15.4c4,5.1,6.6,6.5,7.6,7c4,2,8.5,2.2,10.6,2.2c4.6-0.1,6.3-1.4,7.2-0.4c1.7,1.8-1,8.4-5.4,12.5
	c-2.3,2.1-5.5,3.7-12.1,6.9c-3.5,1.7-3.1,1.4-4.2,2c-6.1,3.7-5.4,7.7-9.9,10.8c-4,2.7-4.5,3.3-12.6,3.3c-4.8,0-7.9,2.9-8.9,1.9
	c-0.8-0.8,0.3,1.2-0.7-1.5c-0.7-1.9-1.4-3.1-2.2-4.9c-0.7-1.6,1.3-7.6-0.6-15.6c-0.9-3.5-1.1-7.5-1.1-7.5s1.9-0.6,4-1.5
	c2.7-1.3,3.4-3.6,5.1-6.3c4.2-6.8,8.3-5.5,12.1-12.5c1.3-2.4,2.5-4.4,2-6.9c-0.4-2.2-1.9-3.6-7.9-8.3c-4.2-3.2-6-5-8.7-6.5
	C123.3,84.1,117.2,78.7,117.7,78.2z"/>
<g>
	<path fill="#27AAE1" stroke="#000000" stroke-miterlimit="10" d="M120,94.3c1.9-1.4,3.4,0.8,8.3,4.3c3.6,2.6,6.4,3.3,6.3,4.5
		c0,0.8-1,0.6-1.6,2.3c-1.2,3.3-1.1,7.7-4,10.1c-2,1.6-4.8-0.4-7.4,1.5c-2.4,1.7-2.6,4.6-3.4,4.5c-0.7-0.1-0.7-2.4-0.9-4.3
		c-0.2-2.9-1.3-4.9-1.6-6.7c-0.5-2.9-0.3-5.3-0.1-6.3c0.2-0.8,1.5-2.4,2.5-4.9C118.8,97.2,119.2,94.9,120,94.3z"/>
</g>
<path fill="#92278F" stroke="#000000" stroke-miterlimit="10" d="M114,159c-0.5,0.5-8.8-3-14.2-2.7c-8.1,0.5-13.7,4.4-14.4,3.4
	c-0.8-1,3-3.5,7.3-9.8c2-3,5.9-10.8,6.8-10.8c0.8,0,4.4,5.9,8,10.4C111.3,154,114.3,158.6,114,159z"/>
<path fill="#92278F" stroke="#000000" stroke-miterlimit="10" d="M72.6,155.7c-2.1,2.3-4.7-3-9.9-4.9c-5.2-1.8-6.4,1-10.8-0.5
	c-6.3-2.2-4.7-8.3-12.1-12.6c-1.3-0.7-5.1-1.9-12.6-4.3c-6.3-2-7.2-2.1-7.6-3.1c-1.4-3.6,8.3-7.6,18.1-20.2c5.6-7.3,5-9.3,10.6-14.8
	c3.7-3.6,7-5.7,13.5-9.9c5.3-3.4,9-5.3,13.5-6.7c2.6-0.8,7.9-1.1,7.9-1.1s-2.5,2.3-7.6,6.1c-7.4,5.5-6.2,5.6-11.9,9.7
	c-6.4,4.6-9.5,5.6-9.9,8.8c-0.2,1.6,0.5,3,1.5,4.9c1.6,3.2,3.3,3.9,7.9,8.5c3.8,3.7,5.8,5.6,6.9,7.2c1.5,2.2,2.3,4,4.5,5.1
	c2.3,1.1,4.5-0.4,4.3,1.1c-0.3,2-2.8,6.7-3,16.1c-0.1,2.2-0.2,4.6-0.7,7.3C74.9,153.9,73.9,154.4,72.6,155.7z"/>
<g>
	<path fill="#92278F" stroke="#000000" stroke-miterlimit="10" d="M120,94.3c1.9-1.4,3.4,0.8,8.3,4.3c3.6,2.6,6.4,3.3,6.3,4.5
		c0,0.8-1,0.6-1.6,2.3c-1.2,3.3-1.1,7.7-4,10.1c-2,1.6-4.8-0.4-7.4,1.5c-2.4,1.7-2.6,4.6-3.4,4.5c-0.7-0.1-0.7-2.4-0.9-4.3
		c-0.2-2.9-1.3-4.9-1.6-6.7c-0.5-2.9-0.3-5.3-0.1-6.3c0.2-0.8,1.5-2.4,2.5-4.9C118.8,97.2,119.2,94.9,120,94.3z"/>
</g>
<g>
	<path fill="#92278F" stroke="#000000" stroke-miterlimit="10" d="M81,94.3c-1.9-1.4-3.4,0.7-8.4,4.1c-3.7,2.5-6.5,3.2-6.4,4.4
		c0,0.8,0,0.8,1,2.4c1.9,3,1.1,8.3,3.9,10.7c2,1.7,5-0.7,7.6,1.3c2.3,1.8,2.7,4.5,3.5,4.4c0.7-0.1,0.8-2.4,1-4.3
		c0.3-2.9,1.4-4.9,1.8-6.6c0.6-2.9,0.4-5.3,0.3-6.3c-0.2-0.8-1.5-2.5-2.3-5C82.1,97.3,81.8,94.9,81,94.3z"/>
</g>
<path fill="#F7941E" stroke="#000000" stroke-miterlimit="10" d="M95,75.7c0.1-0.1,0,0.3,0.9-0.2c0.7-0.4,0.6-0.3,0.6-0.3
	s0,1.1,0.3,2c0.5,1.3,2.2,1.8,2.8,1.9c0.6,0.1,3.2,0.1,3.9-1c0.6-0.9,0.6-2.9,0.6-2.9h2.3c0,0-0.5,3.2-1.5,4.2
	c-1.2,1.4-2.5,1.5-3.5,1.6c-0.9,0.1-3.1,0.3-4.7-1C95.1,78.8,94.4,76.3,95,75.7z"/>
<path fill="none" stroke="#A97C50" stroke-miterlimit="10" d="M127,46.4c-0.2-0.3,0.4-1.2,1.3-1.6c0.9-0.5,2.1-0.3,2.2,0
	C130.5,45.4,127.3,46.8,127,46.4z"/>
<path fill="none" stroke="#A97C50" stroke-miterlimit="10" d="M77.7,47c0.1-0.3-1-1.3-2.3-1.6c-1.1-0.3-2.5-0.3-2.5,0
	C72.8,45.9,77.5,47.5,77.7,47z"/>
<g>
	<path fill="#FFFFFF" stroke="#000000" stroke-miterlimit="10" d="M104.1,48.1c1,0.6,1.9-1,4.6-1c2.5,0,3.5,1.4,4.3,0.8
		c1-0.7,0.1-3.5-1-6.6c-0.9-2.5-1.6-3.6-2.6-4.3c-0.5-0.3-1.3-0.8-2.2-0.6c-0.4,0.1-1.5,0.5-2.5,3.5C104.5,40.4,102.2,47,104.1,48.1
		z"/>
	<path fill="#006838" stroke="#000000" stroke-miterlimit="10" d="M105.6,46.4c-1.5-1.9-0.6-4.2-0.5-4.6c0.1-0.2,1.2-3,3.3-3
		c1.9,0.1,2.9,2.6,3.1,3c0.7,1.9-0.5,5.7-3,5.5C106.8,47.1,106.7,47.8,105.6,46.4z"/>
	<path fill="#2BB673" stroke="#000000" stroke-miterlimit="10" d="M108.6,47.1c-1.2-0.1-1.6-0.3-1.6-1.6c0-0.6,0.3-2.3,1.5-2.3
		s1.5,0.4,1.6,1.9C110.1,46.2,109.8,47.2,108.6,47.1z"/>
</g>
<g>
	<path fill="#FFFFFF" stroke="#000000" stroke-miterlimit="10" d="M84.9,48.1c1,0.6,1.9-1,4.6-1c2.5,0,3.5,1.4,4.3,0.8
		c1-0.7,0.1-3.5-1-6.6c-0.9-2.5-1.6-3.6-2.6-4.3c-0.5-0.3-1.3-0.8-2.2-0.6c-0.4,0.1-1.5,0.5-2.5,3.5C85.3,40.4,83,47,84.9,48.1z"/>
	<path fill="#006838" stroke="#000000" stroke-miterlimit="10" d="M86.4,46.4c-1.5-1.9-0.6-4.2-0.5-4.6c0.1-0.2,1.2-3,3.3-3
		c1.9,0.1,2.9,2.6,3.1,3c0.7,1.9-0.5,5.7-3,5.5C87.6,47.1,87.5,47.8,86.4,46.4z"/>
	<path fill="#2BB673" stroke="#000000" stroke-miterlimit="10" d="M89.4,47.1c-1.2-0.1-1.6-0.3-1.6-1.6c0-0.6,0.3-2.3,1.5-2.3
		s1.5,0.4,1.6,1.9C90.9,46.2,90.5,47.2,89.4,47.1z"/>
</g>
<path fill="none" stroke="#FFF200" stroke-miterlimit="10" d="M104.2,32c1.7-0.5,5.1,0,7.6,2.9"/>
<path fill="none" stroke="#FFF200" stroke-miterlimit="10" d="M84.9,34.9c0-1.6,3.4-2.9,7.6-2.9"/>
<line fill="none" stroke="#000000" stroke-miterlimit="10" x1="108.3" y1="34.5" x2="108.3" y2="34.5"/>
<g>
	<path fill="none" stroke="#A97C50" stroke-miterlimit="10" d="M98.1,53.5c-0.2-0.1-1.5-0.9-2.9-0.4c-1.3,0.4-2.5,1.7-2.2,3.1
		c0.2,1.1,1.1,1.8,1.9,2c1.1,0.3,2.3,0,3.1-0.8"/>
</g>
<path fill="none" stroke="#BE1E2D" stroke-miterlimit="10" d="M83.5,60c0.5-0.7,1.8-1.5,1.8-1.5s1.2,1.5,2,2.6
	c2.7,3.5,6.5,4.5,7.9,4.7c2.1,0.4,3.8,0.3,5.4,0.1c1.2-0.1,3.2-0.2,5.4-1.3c1.2-0.6,2.4-1.2,4.1-2.4c1.9-1.3,2.2-1.8,2.2-1.8
	c1.3-1.3,1.6-1.5,1.6-1.5s0.7,0.8,0.9,1.3"/>
<use xlink:href="#Blond_Hair_4"  width="22.6" height="15.3" x="-11.3" y="-7.7" transform="matrix(0.7471 0 0 -1.2763 125.0294 29.6981)" overflow="visible"/>
<use xlink:href="#Blond_Hair_4"  width="22.6" height="15.3" x="-11.3" y="-7.7" transform="matrix(0.7471 0 0 -1.2763 127.5808 24.7769)" overflow="visible"/>
<use xlink:href="#Blond_Hair_4"  width="22.6" height="15.3" x="-11.3" y="-7.7" transform="matrix(-2.4606 -0.2361 0.111 -1.1568 88.8619 25.8081)" overflow="visible"/>
<use xlink:href="#Blond_Hair_4"  width="22.6" height="15.3" x="-11.3" y="-7.7" transform="matrix(-2.0071 -0.5791 0.3213 -1.1137 91.8501 17.7375)" overflow="visible"/>
<use xlink:href="#Blond_Hair_4"  width="22.6" height="15.3" x="-11.3" y="-7.7" transform="matrix(-1.4903 -0.7835 0.5397 -1.0265 96.4627 11.7963)" overflow="visible"/>
<use xlink:href="#Blond_Hair_4"  width="22.6" height="15.3" x="-11.3" y="-7.7" transform="matrix(-1.2074 0.1415 -7.240996e-02 -0.618 65.0331 42.1318)" overflow="visible"/>
<use xlink:href="#Blond_Hair_4"  width="22.6" height="15.3" x="-11.3" y="-7.7" transform="matrix(-1.7916 -5.034469e-02 1.916748e-02 -0.6819 54.4967 58.3601)" overflow="visible"/>
<use xlink:href="#Blond_Hair_4"  width="22.6" height="15.3" x="-11.3" y="-7.7" transform="matrix(-1.8959 -5.326901e-02 2.708047e-02 -0.9635 55.5842 68.4697)" overflow="visible"/>
<use xlink:href="#Blond_Hair_4"  width="22.6" height="15.3" x="-11.3" y="-7.7" transform="matrix(-1.2733 -3.578959e-02 2.395770e-02 -0.8524 68.165 73.8414)" overflow="visible"/>
</svg>
