<?xml version="1.0" encoding="utf-8"?>
<!-- Generator: Adobe Illustrator 18.1.0, SVG Export Plug-In . SVG Version: 6.00 Build 0)  -->
<!DOCTYPE svg PUBLIC "-//W3C//DTD SVG 1.1//EN" "http://www.w3.org/Graphics/SVG/1.1/DTD/svg11.dtd">
<svg version="1.1" id="Layer_1" xmlns="http://www.w3.org/2000/svg" xmlns:xlink="http://www.w3.org/1999/xlink" x="0px" y="0px"
	 viewBox="0 0 600 600" enable-background="new 0 0 600 600" xml:space="preserve">
<symbol  id="Blond_Hair_4" viewBox="-11.3 -7.7 22.6 15.3">
	<g>
		<path fill="#FEE751" d="M-11.3,6.9c0,0,5.6,2.6,10.6-1.9c5-4.6,5.8-10.2,12-12.7C4.7-6.6,2.2,0.8-1,3.9
			C-6.1,8.8-10.8,6.9-11.3,6.9z"/>
	</g>
</symbol>
<g>
	<path fill="#92278F" stroke="#000000" stroke-width="3.3428" stroke-miterlimit="10" d="M385,460.3c6.6,6.5,13.8-9.6,29.1-15.8
		c15.3-6.1,19.3,2.2,32.4-2.9c18.6-7.3,13.1-25.4,34.7-39.3c3.7-2.4,15-6.4,37.3-14.5c18.6-6.7,21.3-7,22.4-10.1
		c3.8-10.9-25.8-21.9-56.4-58.4c-17.7-21-16-27.1-33.7-43c-11.4-10.3-21.5-16.2-41.7-28.2c-16.1-9.5-27.7-14.9-41.3-18.4
		c-7.9-2-23.9-2.3-23.9-2.3s7.6,6.7,23.4,17.5c22.9,15.6,6.6,18.6-6.8,35.2c-36.8,45.9,1.5,96.6,2.3,100.8c1.2,6,9.1,19.8,10.9,47.9
		c0.4,6.7,1.2,13.7,3,21.8C377.7,455.1,381.1,456.4,385,460.3z"/>
	<path fill="#FFDE17" stroke="#F9ED32" stroke-width="3.3428" stroke-miterlimit="10" d="M504.3,177.9c-0.1-3-26.7-1.3-44-19.3
		c-6.5-6.8-9.2-13.7-20.8-22.5c-5.3-4-10.9-7.1-10.3-8.5c1-2.3,18.3,5.4,21.1,1.4c2.8-4.1-11.7-15.9-26.9-35.5
		c-21.7-27.9-15.6-33.3-31.9-49.8c-19-19.2-41.6-26.3-53.4-30.1c0,0-27.1-9.8-46.9-7c-4.9,0.7-9.6,2-9.6,2s-3.3,0.9-6.5,2.1
		c-10.5,4-35.2,28.2-37.1,26.8c-1.1-0.8,10.2-14.2,19.9-22.6c9.6-8.4,22.8-11.8,22.2-12.8c-3.5-6.5-51.6,22.8-54.7,25.5
		c-3.4,3,3.4-28.1,2.6-27.6c-1.3,0.8-11.3,24-18.5,38.2c-6.9,13.4-6.5,12.4-14.4,25.5c-7.2,12-6.9,28-7.6,38
		c-0.6,8.8,0,16.7,0.5,20.6c0.7,6,1.6,10.4,2,12.4c1,4.1,2.7,11.7,6.8,20.2c2.4,5.1,5.1,9.4,6.7,11.7c0,0,0.8,1.2,1.6,2.4
		c9.3,13.2,19.9,21.5,19.9,21.5c4.1,3.3,15.2,13.9,30.4,17.2c10.3,2.3,31.3,5.4,31.8,5.5c0,0-1.2-12-0.7-6.6c0,0.1-52.5-5-60.4-29.9
		c-3.4-10.8,2.5-29.1-4.2-28.7c-4,0.2-6.1,3.7-12.3,1.2c-10-4.1-17.8-19.9-12.3-25.7c3.3-3.3,10.7-2.4,15.5,0.5
		c7.5,4.4,8.6,13.3,10.5,12.9c2.5-0.5-2.6-14.6,4.4-26.8c2.8-4.8,4.9-4.9,10.5-13.7c3.4-5.4,5.2-8.2,6.2-12.4
		c1.9-8.8-1.9-13.3,0.5-15.5c3.1-3,10.7,3.8,22.5,6.9c16.7,4.4,19.3-4.4,37.6-1.4c13,2.1,10.2,6.3,34.9,14.2
		c4.4,1.4,9.3,2.8,13.6,7.2c6.8,6.9,7.3,16.4,7.3,17.5c0.4,8.7-3.8,15.1-2.7,15.6c1.3,0.7,5.2-10.8,13.9-12.7c4.2-1,9.6,0.3,12.4,4
		c3.4,4.5,1.4,10.9,0.5,13.3c-3.2,9.6-9.9,9.1-13.7,18.3c-2.7,6.7,0.4,7.9-2.6,17.8c-2.1,7-5.3,12-7.1,14.7
		c-2.7,4.1-6.3,9.5-12.7,13.8c-4.7,3.3-10.1,4.6-20.7,7.5c0,0-4.9-0.6-19.6,2.6c0.4-3.7-0.4,9.3,1.4,12.5c2.6,4.8,15.2,0.7,28.8,0
		c8.8-0.5,6.2,1.2,50.4,10.2c0,0,17.9,3.7,34.9,4.1h0.1c15.6,0.4,23.5,0.6,23.9-0.9c0.7-2.5-22.1-14.6-20.5-11.4
		c0.4,0.7,71.5-3.6,76.2-8.6c5.7-6.1-47.9-29.3-40-29.5C466.2,183.8,504.7,187.9,504.3,177.9z"/>
	
		<use xlink:href="#Blond_Hair_4"  width="22.6" height="15.3" x="-11.3" y="-7.7" transform="matrix(5.6832 -0.3853 -0.1959 -2.8881 433.4681 193.7445)" overflow="visible"/>
	
		<use xlink:href="#Blond_Hair_4"  width="22.6" height="15.3" x="-11.3" y="-7.7" transform="matrix(3.8168 -0.2588 -0.1732 -2.5551 395.8615 215.3232)" overflow="visible" enable-background="new    "/>
	<path fill="#2BB673" stroke="#000000" stroke-width="3.3428" stroke-miterlimit="10" d="M316.9,225.4c3.8-2.9,9.1-1.6,17.3,0.3
		c4,0.9,10,1.8,16.6,3.2c11,2.3,17.5,5,28.1,1.2c11.9-4.3,28.9-15.3,39.9-21.5c0.2-0.1,11.7-20.4,19.4-26.5
		c3.2-2.5,5.2,7.3,9.3,10.2c3.2,2.3,13.1,6.3,14.5,7.9c0,0-1.6,1-4,3.2c-3.4,3.5-11.3,15.1-15.2,18.5c-3.3,2.9-12.3,13.3-14.4,15.9
		c-3.9,4.9-12.7,7.9-18.7,10.5c-4.7,2.1-18,7.4-25.6,9.9c-4.4,1.4-22.1,20.6-23.5,22.1c-2.1,1.9-3.3,6.6-8.4,16.1
		c-3.2,6-4.2,6.4-6.1,11.3c-1.6,4.3-1.3,23.6-0.4,26.4c0,0,0.3,1,2.2,9.2l1.4,5.5c-0.9,2-7.3-0.5-17.3-0.3
		c-10.1,0.2-11.4,2.1-16.2,0.9c-5.5-1.4-5.8-3.8-12.2-6.3c-5.3-2-12.2-1.8-13.9-1.4c-5.4,1.4-6.2,2.9-12.5,4.9
		c-1.8,0.6-0.8-0.1-5.8,0.5c-8.3,1.1-13.4,1.1-18.4,0.3c-4.5-0.7-5.1-1.4-5.4-1.7c-2.3-3,0.6-7.6,3-17.2c0.8-3,2.9-10.1,0.8-18.9
		c-0.9-3.4-3.5-6.7-7.8-14.9c-5.1-9.8-4.4-10.1-6.1-15.2c-0.8-2.7-1.1-2.6-9-10.8c-7.8-8-7.2-6.9-11.5-11.8
		c-3.7-4.2-11.7-14.9-18.2-14.9c-3.3,0-37.9-10.1-42.5-15.5c-2.5-2.9-20-30.9-20.6-32c-4-6.6,1.7-11.3,3.3-12.4
		c5.8-4.6,7.1-3.9,11.3-8.1c4.6-4.7,6.5-10.7,8.5-5.1c1,2.6,14.7,33.6,19.2,35.9c8.2,4.2,46.6,18.5,51.1,20.1
		c9.9,3.4,14.7,5.7,24.1,3.6c3.8-0.8,7.5-2.5,15.7-4.1c9.8-1.8,11.5-1.2,12.4-0.4c3.4,2.7,0.6,7.3,4.1,12c3.7,4.6,10.4,4.9,12.9,5
		c2.6,0.1,7.9,0.3,12-3.1C315.1,233.6,312.7,228.6,316.9,225.4z"/>
	<path fill="#F3D9CC" stroke="#F3D9CC" stroke-width="3.3428" stroke-miterlimit="10" d="M289.5,229.9c0,0-1.5-16.1-2.9-25.5
		c0,0-8.1,4.4-29.9-2.9c-2.6-0.9-11.4-2.2-22-12.4c-4.8-4.6-6-11-7.1-15.3c-2.3-8.9,0.2-9.8,0.1-20.9c0,0,2.2-0.7-3.7-5.3
		c-0.8-0.6-4.4-0.3-5.3,0.1c-1.9,1.1-5.5,2.4-9.4,1.4c-5.8-1.5-8.1-7.2-9.6-10.5c-1.1-2.5-4.1-9.8-0.6-13.6
		c2.6-2.8,7.6-2.3,10.8-1.4c9.9,3.2,12,15.5,15.1,14.9c2.6-0.6-3.4-6.4-0.6-20.8c0.8-4.1,1.4-5.8,7-12.8c4.1-5.1,8.1-11.6,11.4-17.1
		c2.6-4.3,0.7-18.4,4-19.3c6.4-1.6,8.4,5.4,21.2,9.2c16.2,4.6,19.8-4.6,38.1-1.5c9.4,1.5,5.9,3.6,35.1,15c7.1,2.8,9.6,3.8,12.1,6.8
		c8.9,11.1,1.9,28.8,3.2,30.5c1,1.3,6.2-9.7,16.7-10.3c3.6-0.2,9.1,0.9,11.1,4.1c5,8.1-6.1,15.1-13.3,28.8
		c-5.5,10.4-5.6,23.9-9.8,32.5c-3.4,7-8,12.6-19.9,17.4c-14.3,5.6-27.7,7.2-33.7,4.3l0,0c-4.9,9.2-0.2,18-0.2,18
		c0.1,1.1,0.2,2.8,0.3,5c-1.3,1.1-3.6,2.6-6.7,3.7c-0.9,0.3-1.9,0.5-3.2,0.6C293.2,232.6,289.5,229.9,289.5,229.9z"/>
	<polygon fill="#F7941E" stroke="#000000" stroke-width="3.3428" stroke-miterlimit="10" points="316.6,256.4 338.1,276.7 
		318.7,307.1 277.1,308.8 255.4,280.4 275.6,258 	"/>
	<polygon fill="#27AAE1" stroke="#000000" stroke-width="3.3428" stroke-miterlimit="10" points="322.9,277.2 310.7,296.6 
		286.1,297.7 270.5,279.4 277.2,269.8 314.4,268.4 	"/>
	<path fill="#F7941E" stroke="#000000" stroke-width="3.3428" stroke-miterlimit="10" d="M351.3,347.4c1.3,4,2.5,7.8,3.8,11.8
		l-35.1,1.4l-4.3-12.8L351.3,347.4z"/>
	<polygon fill="#F7941E" stroke="#000000" stroke-width="3.3428" stroke-miterlimit="10" points="276.1,349.9 276.6,364.4 
		244.7,363.5 247.9,350.4 	"/>
	<path fill="#ED1C24" stroke="#000000" stroke-width="3.3428" stroke-miterlimit="10" d="M314.5,349.9c0.5,0.8,4.4,7.4,1.6,14
		c-3.7,8.6-15.2,9.3-17.5,9.4c-2.6,0.2-15.2,0.5-20.4-9c-0.2-0.4-4.1-7.7-0.6-14.6c4.9-9.7,19.2-8.6,20.7-8.4
		C301,341.6,309.9,342.4,314.5,349.9z"/>
	<path fill="#FFFFFF" stroke="#000000" stroke-width="3.3428" stroke-miterlimit="10" d="M305.9,352.4c2.2,3,2,7.4-0.1,10.3
		c-3.4,4.5-11,4-15.1,0.6c-2.3-1.8-4.8-5.7-3.6-9.1c1.3-3.4,5.5-4.2,7.4-4.6C296.1,349.2,302.7,347.9,305.9,352.4z"/>
	<path fill="#2BB673" stroke="#000000" stroke-width="3.3428" stroke-miterlimit="10" d="M355,361.3c0,0,3.6,9,7,19.3
		c0.6,1.7,2.9,9.5,4.3,13.9c9,27.5,8.1,55.5,11.3,58.2c4.1,3.6,4.8,6.4,6.1,11.6c1.6,6.4,1.7,9.8,2.2,15.6c0.2,3,1.7,5,1.4,6.9
		c-0.5,2.8-4.9,4.2-7.9,5.2c-1.7,0.6-9,1.9-14.7,1.8c-6.2-0.1-13.7-2.7-13.7-2.7L351,489c0,0-1-7.3-2.3-10.8
		c-4.2-10.7-9.6-17.7-16.8-25.4c-22.7-24.2-24.6-37.4-29.4-39c0,0-8.4,13.7-31.6,44.1c-7,9.3-12.6,15.4-12.5,24.9
		c0.1,5.5,2.1,10.7-1.1,14.1c-0.7,0.8-2,1.8-10.2,2.6c-14.8,1.4-19.3-1.1-20.6-1.9c-1.5-0.9-4.3-2.6-4.5-5.2
		c-0.2-2.4-0.7-4.4-0.3-7.5c1-7.5,0.4-9.5,4-16.2c1.6-3,2.7-7,4.1-10.5c3.2-7.6-1.4-28.7,2.2-48.9c2-11.2-0.4-20.1,3.1-23.7
		c6-6.4,9.7-19.7,9.7-19.7s28.8-2.4,31.8-0.4c8.2,5.3,7.2,8.6,22.1,8c12.8-0.5,17.5-9.4,21-10.5C330.9,359,355,361.3,355,361.3z"/>
	<path fill="#F7941E" stroke="#000000" stroke-width="3.3428" stroke-miterlimit="10" d="M391.9,498.5c-0.4-5.2-0.2-9.6-2.6-10.7
		c-1.4-0.7-2.6,0.1-5.9,1.4c-3.9,1.4-7.9,2.9-11.8,3.2c-6.5,0.5-18.5-0.4-19.5,0.8c-3.4,4.2,4.5,16.1,10.1,24.5
		c8.3,12.3,10.7,12.3,12.1,18.4c1.3,5.6-0.4,6.9,0.8,19.5c0.9,9.1,2,11.7,2.7,12.9c1.1,2.1,2.9,4.6,11.3,10.9
		c8.6,6.5,12.9,9.6,16.7,10.7c1.1,0.3,13.6,3.5,22.1-3.6c1.4-1.2,4-3.3,4.6-6.7c0.3-1.4,0.8-5.4-6.5-13.8c-7.4-8.6-12-9-21.3-18.6
		c-3.7-3.8-5.5-5.6-6.9-8.4c-3.1-6.3-1.2-9.2-2.5-21.5C394.1,506.2,392.6,508.1,391.9,498.5z"/>
	<path fill="#F7941E" stroke="#000000" stroke-width="3.3428" stroke-miterlimit="10" d="M252.8,512.6c2.6-5.5,7-14.9,4.1-17.5
		c-1.4-1.3-3.5,0.2-10.2,1.4c-7.3,1.4-15.1,3-20.6-0.8c-3.5-2.4-3.6-5.4-5.1-5.2c-4.1,0.5-4.7,23.2-4.8,27.8
		c-0.6,19.6,2,20.7-0.5,27.6c-1.8,5-3.6,5.2-19.7,23c-11.6,12.7-14.2,16.5-13.2,20.6c1.4,5.9,9.3,8.6,11.2,9.3
		c9.4,3.3,17.9-1.1,19.4-1.8c5-2.6,4.2-4.4,14.6-14.1c7.5-7,8.2-6.4,9.4-9.1c2.2-5.1-0.1-8.5-0.3-21.6c-0.1-4.2-0.1-6.3,0.2-8.7
		C238.6,531.9,245.2,528.5,252.8,512.6z"/>
	<path fill="#92278F" stroke="#000000" stroke-width="3.3428" stroke-miterlimit="10" d="M205.9,245.9c0,0-4.3,6.1-12.7,11.9
		c-7,4.9-21.5,17.1-33.8,37.1c-11.6,18.9-9.5,26.4-24.1,47c-11.3,15.8-18.9,20.4-21.9,22c-11.8,6.5-25.1,7.6-31.6,7.7
		c-13.9,0.3-18.9-3.4-21.7-0.2c-4.8,5.6,3.9,25,17.7,36.7c7,5.9,17,10.3,37.1,19.1c10.6,4.6,9.6,3.7,12.6,5.5
		c18.6,10.4,17,22.4,31.1,31.3c12.3,7.7,13.8,9.5,38.2,8.2c14.3-0.7,23.3,9.1,25.6,5.4c0.5-0.8,1.3-0.9,3.3-5.4
		c2.5-5.5,3.8-9.4,6.1-15c2-4.9-4.8-22.6,0-46.5c2.1-10.7,5-21.8,8.6-30.6c5.4-13.3,1.4-3.4,5.4-13.3c3.1-7.5,7-32.5,8.7-38.1
		c3.7-13.2-14.2-44.4-16.6-49.8c-0.9-1.8-10.3-12.1-20.7-22C213,253,207.2,247.2,205.9,245.9z"/>
	<path fill="#92278F" stroke="#000000" stroke-width="3.3428" stroke-miterlimit="10" d="M261.6,474.9c1.4,1.4,26-10,42.1-9.7
		c24.2,0.4,41.4,11.4,43.4,8.6c2.2-3.2-9.3-9.9-23-28.4c-6.4-8.6-19-31.6-21.6-31.6c-2.3,0-12.4,18.1-22.8,31.9
		C269,459.7,260.4,473.8,261.6,474.9z"/>
	<path fill="none" stroke="#C49A6C" stroke-width="3.3428" stroke-miterlimit="10" d="M215.8,139.5c0.5-0.8-1.4-3.4-4-4.5
		c-2.9-1.4-6.4-0.7-6.6,0.3C205,136.9,214.9,141,215.8,139.5z"/>
	<path fill="none" stroke="#C49A6C" stroke-width="3.3428" stroke-miterlimit="10" d="M363.2,135.6c-0.4-0.8,2.9-3.9,6.8-5.2
		c3.3-1.2,7.4-1.2,7.6-0.3C377.9,131.6,364,137,363.2,135.6z"/>
	<g>
		<path fill="#FFFFFF" stroke="#000000" stroke-width="3.3428" stroke-miterlimit="10" d="M341.8,139.7c-2.9,1.8-5.9-2.7-14-2.4
			c-7.4,0.3-10.3,4.5-12.7,2.8c-3.1-2.1-0.7-10.3,2.2-19.9c2.2-7.6,4.3-10.9,7.4-13.1c1.3-1,3.8-2.7,6.5-2.2c1.3,0.2,4.3,1.3,8,10.2
			C339.8,116.7,347.5,136.2,341.8,139.7z"/>
		<path fill="#006838" stroke="#000000" stroke-width="3.3428" stroke-miterlimit="10" d="M337.2,134.7c4.1-5.9,1.3-12.7,0.8-13.9
			c-0.2-0.5-4.1-9-10.2-8.5c-5.7,0.4-8.5,8.1-8.9,9.3c-2,5.7,2.1,17,9.6,16.1C333.6,137,334,139.3,337.2,134.7z"/>
		<path fill="#2BB673" stroke="#000000" stroke-width="3.3428" stroke-miterlimit="10" d="M328.3,137.2c3.5-0.5,4.7-1,4.7-5
			c0-1.8-1.3-6.7-4.6-6.6c-3.4,0.1-4.5,1.4-4.6,5.9C323.7,134.7,324.9,137.7,328.3,137.2z"/>
	</g>
	<path fill="none" stroke="#000000" stroke-width="3.3428" stroke-miterlimit="10" d="M282.2,93.9c-5.1-1.4-15.1,0.6-22.3,9.6"/>
	<path fill="none" stroke="#000000" stroke-width="3.3428" stroke-miterlimit="10" d="M340.2,100.3c-0.2-4.8-10.5-8.3-23.2-7.8"/>
	<line fill="none" stroke="#000000" stroke-width="3.3428" stroke-miterlimit="10" x1="270.2" y1="101.9" x2="270.2" y2="101.9"/>
	<g>
		<path fill="none" stroke="#C49A6C" stroke-width="3.3428" stroke-miterlimit="10" d="M313.4,167.5c-0.5,0.5-3.4,3.9-7.9,3.7
			c-4-0.1-8.5-2.8-9.1-7c-0.4-3.2,1.6-6,3.8-7.5c2.8-1.9,6.6-2,9.7-0.3"/>
	</g>
	<path fill="none" stroke="#BE1E2D" stroke-width="3.3428" stroke-miterlimit="10" d="M347.3,175.1c-1.4-2.1-5.6-4.1-5.6-4.1
		s-3.3,4.7-5.5,7.9c-7.6,10.6-19.1,14.1-23.1,15.1c-6.3,1.5-11.3,1.2-16.1,0.9c-3.7-0.3-9.6-0.1-16.3-3.2c-3.6-1.6-7.2-3.4-12.5-6.8
		c-5.8-3.8-6.7-5.2-6.7-5.2c-4-3.6-5.1-4.3-5.1-4.3s-1.9,2.4-2.5,4.1"/>
	<g>
		<path fill="#FFFFFF" stroke="#000000" stroke-width="3.3428" stroke-miterlimit="10" d="M287,142c-2.9,1.8-5.9-2.7-14-2.4
			c-7.4,0.3-10.3,4.5-12.7,2.8c-3.1-2.1-0.7-10.3,2.2-19.9c2.2-7.6,4.3-10.9,7.4-13.1c1.3-1,3.8-2.7,6.5-2.2c1.3,0.2,4.3,1.3,8,10.2
			C285,118.8,292.7,138.3,287,142z"/>
		<path fill="#006838" stroke="#000000" stroke-width="3.3428" stroke-miterlimit="10" d="M282.4,136.8c4.1-5.9,1.3-12.7,0.8-13.9
			c-0.2-0.5-4.1-9-10.2-8.5c-5.7,0.4-8.5,8.1-8.9,9.3c-2,5.7,2.1,17,9.6,16.1C278.9,139.3,279.2,141.4,282.4,136.8z"/>
		<path fill="#2BB673" stroke="#000000" stroke-width="3.3428" stroke-miterlimit="10" d="M273.5,139.4c3.5-0.5,4.7-1,4.7-5
			c0-1.8-1.3-6.7-4.6-6.6c-3.4,0.1-4.5,1.4-4.6,5.9C269,136.8,270.1,139.8,273.5,139.4z"/>
	</g>
	
		<use xlink:href="#Blond_Hair_4"  width="22.6" height="15.3" x="-11.3" y="-7.7" transform="matrix(-2.242 8.882406e-02 -0.1517 -3.8302 220.5076 89.9347)" overflow="visible" enable-background="new    "/>
	
		<use xlink:href="#Blond_Hair_4"  width="22.6" height="15.3" x="-11.3" y="-7.7" transform="matrix(-2.242 8.882406e-02 -0.1517 -3.8302 212.2912 75.514)" overflow="visible" enable-background="new    "/>
	
		<use xlink:href="#Blond_Hair_4"  width="22.6" height="15.3" x="-11.3" y="-7.7" transform="matrix(7.3559 -1.0011 -0.4706 -3.4582 328.2337 74.0287)" overflow="visible" enable-background="new    "/>
	
		<use xlink:href="#Blond_Hair_4"  width="22.6" height="15.3" x="-11.3" y="-7.7" transform="matrix(5.9543 -1.9764 -1.0966 -3.3039 318.3061 50.2457)" overflow="visible" enable-background="new    "/>
	
		<use xlink:href="#Blond_Hair_4"  width="22.6" height="15.3" x="-11.3" y="-7.7" transform="matrix(4.379 -2.5286 -1.7416 -3.0162 303.77 33.0322)" overflow="visible" enable-background="new    "/>
	
		<use xlink:href="#Blond_Hair_4"  width="22.6" height="15.3" x="-11.3" y="-7.7" transform="matrix(3.6402 0.2811 0.1439 -1.863 401.4887 120.1202)" overflow="visible" enable-background="new    "/>
	
		<use xlink:href="#Blond_Hair_4"  width="22.6" height="15.3" x="-11.3" y="-7.7" transform="matrix(5.3706 -0.3641 -0.1386 -2.0442 434.92 167.4129)" overflow="visible" enable-background="new    "/>
	<g>
		<path fill="#F7941E" stroke="#000000" stroke-width="3.3428" stroke-miterlimit="10" d="M131.4,186.4c-13-7.9-7-50.2-28-52.9
			c-11.7-1.4-13.7-4.4-13.6-5c0.1-0.5,13.7,0.6,13.5-3.9c-0.2-4.1-14.7-4.3-14.7-3.8c-0.1,0.6,14.5-0.6,14.4-4.7
			c-0.1-3.6-15.8-1.6-15.8-1.7c0-0.1,15.4-3,15.3-4.7c-0.2-2.9-15.9-2.6-15.9-2.8s15.1,0.3,15.4-1.6c0.7-3.7-16.2-7.2-15.6-7.1
			c0.3,0,10.8,4.6,13.1,1.7c2.2-2.7-3-9.6-2.1-13.6c0.5-2.2,5.4-3.5,6.9-1.1c2,3.3,3.8,8.1,3.9,10.4c0.2,5.1,1.4,10.4,16.9,30.6
			c26.7,34.8,39,41.3,36.4,50C158.4,185.4,140.5,191.9,131.4,186.4z"/>
		<path fill="none" stroke="#000000" stroke-width="3.3428" stroke-miterlimit="10" d="M86.1,98.1c0,3.1,0.1,6.1,0.2,8.9
			c0.1,2.8,0.3,5.4,0.4,7.7c0.2,2.4,0.4,4.6,0.7,6.5c0.6,4.5,1.4,7.3,2.3,7.3"/>
		<g>
			<g>
				<path d="M87,100.8c0,1.2-0.4,3.4,0.4,4.3c0.7,0.9,1.4,0.5,2.2,0.4c1.5-0.1,3,0.8,4.6,0.7c1.7,0,3.4-0.4,4.9-1
					c0.8-0.3,0.8-1.3,0-1.5c-1.9-0.7-3.7-1.5-5.6-2.2c-1.4-0.6-3.2-1.5-4.6-1.4c-0.4,0-0.7,0.2-0.8,0.6c-0.4,1.3-0.6,2.9,0.9,3.3
					c0.6,0.2,1.3,0,1.9,0.2c0.6,0.2,1.2,0.5,1.7,0.7c1.1,0.4,2,0.7,3.1,0.5c0.9-0.1,1.1-1.3,0.2-1.5c-2-0.8-4.1-1.7-6.4-2.1
					c-1-0.2-1.4,1.4-0.4,1.5c2.2,0.3,4.2,1.3,6.4,2.1c0.1-0.5,0.1-1.1,0.2-1.5c-1.6,0.2-2.9-0.7-4.4-1.2c-0.3-0.1-1.1-0.4-1.4-0.3
					c-0.7-0.2-0.8,0-0.4,0.4c0-0.6,0.1-1.1,0.2-1.6c-0.3,0.2-0.5,0.4-0.8,0.6c1.5-0.2,3.9,1.2,5.2,1.7c1.5,0.7,3,1.3,4.5,1.8
					c0-0.5,0-1.1,0-1.5c-2.7,0.9-5,1.1-7.7,0.3c-0.7-0.2-1.3-0.2-1.9-0.2c-0.9-0.1-0.3,0.4-0.4-0.4c-0.1-0.9-0.1-1.7,0-2.6
					C88.7,99.7,87,99.7,87,100.8L87,100.8z"/>
			</g>
		</g>
		<g>
			<g>
				<path d="M87.1,109c0.1,1.4,0.2,2.8,0.3,4.1c0.1,0.8,1.1,1.2,1.4,0.4c0.7-1.4,3.8-1.4,5-1.6c1.6-0.4,3.2-0.9,4.7-1.3
					c0.6-0.2,0.8-0.9,0.4-1.4c-1.4-1.6-3.7-1.4-5.6-1.3c-1.3,0-4.9-0.8-5.4,1c-0.3,1.1,0.4,2.4,1.4,2.4c1.3,0.1,2.6-0.3,3.9-0.3
					c1.4,0.1,2.6,0,4-0.3c1-0.3,0.6-1.8-0.4-1.5c-1.5,0.4-3,0.2-4.5,0.2c-0.5,0-1,0-1.4,0.1c-0.2,0-1.7,0.1-1.3,0.2
					c2.3,0.5,6.6-1.4,8.4,0.8c0.1-0.5,0.2-0.9,0.4-1.4c-2.4,0.7-4.7,1.4-7.2,1.7c-1.5,0.2-2.8,0.5-3.6,1.9c0.5,0.1,1,0.3,1.4,0.4
					c-0.1-1.4-0.2-2.8-0.3-4.1C88.7,108,87.1,107.9,87.1,109L87.1,109z"/>
			</g>
		</g>
		<g>
			<g>
				<path d="M92,110.2c0.7,0,2-0.3,2.7,0c0.4,0.2,0.7,0.6,1.1,0.7c0.6,0.2,1.4,0.1,1.9,0.1c0.8,0,1.7,0.1,2.5-0.2
					c0.4-0.1,0.6-0.4,0.6-0.8v-0.1c0-0.3-0.2-0.6-0.4-0.7c0,0-0.1,0-0.1-0.1c-0.9-0.6-1.6,0.9-0.8,1.4c0,0,0.1,0,0.1,0.1
					c-0.1-0.2-0.3-0.5-0.4-0.7v0.1c0.2-0.3,0.4-0.5,0.6-0.8c-0.7,0.2-1.6,0.2-2.3,0.1c-0.5,0.1-1,0-1.4-0.3
					c-0.2-0.1-0.3-0.2-0.5-0.4c-1.1-0.4-2.3-0.2-3.5-0.2C91,108.7,91,110.2,92,110.2L92,110.2z"/>
			</g>
		</g>
		<g>
			<g>
				<path d="M88.5,112.1c0.4,0,0.8,0,1.2,0c1.1,0,1.1-1.6,0-1.6c-0.4,0-0.8,0-1.2,0C87.4,110.6,87.4,112.1,88.5,112.1L88.5,112.1z"
					/>
			</g>
		</g>
		<g>
			<g>
				<path d="M88.1,117c4.3,0,8.8,0,13.1,0c-0.1-0.5-0.1-1.1-0.2-1.5c-2.7,0.8-5.4,1.5-8.1,2.3c-0.7,0.2-1.4,0.3-1.9,0.6
					c-0.3,0-0.6,0.2-0.8,0.3c-0.3,0.3-0.4,0.3-0.4-0.2c-1.4-0.9,2-0.5,2.6-0.5c1.4,0,2.6-0.1,4-0.3c0.2,0,1.9-0.2,1.9-0.2
					c0-0.2-1.6-0.2-1.8-0.2c-0.9,0.1-1.6,0.4-2.4,0.7c-0.4,0.2-0.9,0.5-1.4,0.6c-0.5,0.4-1,0.3-1.4-0.2c-0.9-0.1-1.2-0.3-0.7-0.7
					c0.1,0.5,0.1,1,0.2,1.4c0.2-0.1,0.4-0.2,0.6-0.3c1.1-0.1,1.1-1.6,0-1.6c-0.7,0-0.9,0-1.4,0.5c-0.5,0.4-0.6,1.4,0.2,1.4
					c1.4,0.2,2.4-1.4,1.1-2.4c-1.2-1-2.3-0.1-2.5,1.2c-0.3,2.6,2.2,2.9,4.1,2.3c0.8-0.3,1.5-0.8,2.4-1c1-0.3,1.8-0.2,2.8-0.4
					c0.8-0.1,1.7-0.4,2.1-1.2c1.1-2-1.7-1.9-2.9-1.8c-2.3,0.2-4.5,0.4-6.9,0.3c-0.9,0-1.7-0.3-2.2,0.6c-0.6,1,0.2,3.2,1.3,3.5
					c1.4,0.4,4.2-1.1,5.4-1.4c2.2-0.7,4.4-1.3,6.7-1.9c0.9-0.3,0.7-1.5-0.2-1.5c-4.3,0-8.8,0-13.1,0C87,115.4,87,117,88.1,117
					L88.1,117z"/>
			</g>
		</g>
		<g>
			<g>
				<path d="M88.7,123.7c2.5-0.1,5-0.2,7.5,0.1c1.2,0.1,2.6,0.2,3.8,0.6c0.6,0.2,0.6,0.1,0.1-0.2c-0.7,0.3-1.4,0.6-2.1,0.9
					c-1.1,0.4-2.1,0.7-3.3,0.8c-0.2,0-5.1,0.9-4.2-1c0.3-0.5,3.8-0.7,4.3-0.8c0.7-0.1,4.5-0.1,1.7,0.6c-0.9,0.2-1.7,0.3-2.6,0.5
					c-1.3,0.2-3.5,0.5-1-0.1c0.9-0.2,1.8-0.4,2.8-0.5c0.8,0.2,1.4,0.1,1.8-0.4c-0.1,0-0.1,0-0.2,0c-1.2,0.1-2.4,0.4-3.5,0.7
					c-0.6,0.2-1.2,0.3-1.7,0.5c0.1,0.7,0.5,0.8,1.1,0.3c1,0,2.1-0.5,3.1-0.6c1.1-0.1,0.6-1.6-0.4-1.5c-1.5,0.2-7,0.8-4.9,3.5
					c0.2,0.2,0.6,0.3,0.8,0.2c2.2-0.8,4.4-1,6.7-1.5c0.7-0.2,1.2-0.3,1.4-1.1c0.4-2.2-3.3-1.8-4.4-1.6c-1.4,0.2-6.4,0.1-5.9,2.7
					c0.6,2.6,5.7,0.9,7,0.6c1.4-0.3,4.1-1.4,2.5-3.1c-0.8-0.9-2.3-0.9-3.4-0.8c-1.7,0.2-3.5,0.5-5.2,0.6c-2.1,0.1-2.3,2.9-0.9,4.2
					c1.5,1.4,6.2,0.1,7.9-0.4c1-0.3,6-1.6,4-3.6c-1-1-3.6-0.9-4.9-1c-2.6-0.3-5.3-0.3-7.9-0.2C87.7,122.2,87.7,123.7,88.7,123.7
					L88.7,123.7z"/>
			</g>
		</g>
	</g>
	<path fill="#F7941E" stroke="#000000" stroke-width="3.3428" stroke-miterlimit="10" d="M315,223.4c-0.2-0.2,0,0.9-2.7-0.4
		c-2.2-1.1-1.9-0.8-1.9-0.8s0.2,3.4-0.7,6.1c-1.3,3.9-6.3,5.7-8.1,6c-1.9,0.4-9.5,0.8-12-2.5c-2-2.6-2.1-8.7-2.1-8.7l-6.8,0.3
		c0,0,1.9,9.4,4.8,12.4c3.7,3.9,7.8,4.2,10.8,4.4c2.8,0.2,9.2,0.6,14.1-3.7C314.9,232.8,316.6,225.2,315,223.4z"/>
	<g>
		<path fill="#F7941E" stroke="#000000" stroke-width="3.3428" stroke-miterlimit="10" d="M462.1,200.9c12.7-8.4,5.2-50.5,26.1-53.9
			c11.7-1.9,13.6-4.9,13.4-5.5c-0.1-0.5-13.7,1.1-13.6-3.4c0.1-4.1,14.5-4.8,14.6-4.2c0.1,0.6-14.5-0.1-14.5-4.1
			c0-3.6,15.7-2.2,15.8-2.3c0-0.1-15.5-2.4-15.4-4.1c0.1-2.9,15.8-3.2,15.8-3.4c0-0.2-15.1,0.9-15.4-1.2c-0.8-3.6,15.9-7.8,15.3-7.7
			c-0.3,0-10.6,5-13,2.2c-2.3-2.6,2.6-9.7,1.6-13.6c-0.6-2.2-5.5-3.3-6.9-0.9c-1.9,3.3-3.5,8.2-3.5,10.5c0,5.1-1.1,10.5-15.7,31.2
			c-25.5,35.8-37.4,42.6-34.5,51.2C435,200.8,453.3,206.8,462.1,200.9z"/>
		<path fill="none" stroke="#000000" stroke-width="3.3428" stroke-miterlimit="10" d="M504,111.2c0.1,3.2,0.2,3.8,0.2,6.7
			s0.1,8.9,0,11.4c-0.1,2.5-0.4,1.4-0.6,3.5c-0.5,4.7-1.2,7.6-2.1,7.7"/>
		<g>
			<g>
				<path d="M502.1,114c0,0.6-0.1,1.3,0.1,1.7c-0.3,0.8-0.1,1.1,0.5,0.8c0.7,0,0.8-0.1,0.1-0.2c-1.1-0.3-2.1,0-3.1,0.3
					c-3.1,0.8-5.7,0.8-8.9,0c0,1.1,0,2,0,3.1c1.9-0.6,3.9-1.4,5.8-2.1c1.5-0.6,4.1-1.9,5.8-1.8c-0.5-0.4-1.1-0.8-1.5-1.2
					c0.2,0.5,0.3,1.2,0.2,1.6c0.3-0.5,0.5-1,0.8-1.4c-0.2,0.1-2.3,0.3-3,0.5c-1.5,0.5-2.9,1.2-4.5,1.2c0,1.1,0,2.1,0,3.2
					c0.3,0,1.3,1.4,1.8,1.6c0.7,0.4,1.4,0.5,2.2,0.2c1.9-0.7,2.3-3.8,4.1-4.3c1.9-0.6,1.2-3.7-0.9-3.1c-1.5,0.5-3.2,2.3-3.8,3.8
					c-0.1,0.2-0.3,0.4-0.4,0.5c0.6,0.2,0.7,0.2,0.3-0.1c-0.4-0.3-0.7-0.7-1-1c-0.7-0.6-1.4-1-2.2-0.9c-2,0.1-2,3.1,0,3.2
					c1.5,0.1,2.9-0.3,4.2-0.8s2.7-0.5,4.1-0.9c1.9-0.6,2-2.5,1.4-4.2c-0.3-0.7-0.8-1.2-1.5-1.2c-1.8-0.1-4,1-5.7,1.6
					c-2.2,0.9-4.4,1.7-6.7,2.5c-1.4,0.5-1.6,2.7,0,3.1c1.8,0.4,3.8,0.8,5.7,0.8c2.3,0,4.4-1,6.7-1c3.4,0,3.1-2.6,2.9-5.6
					C505.2,112,502,112,502.1,114L502.1,114z"/>
			</g>
		</g>
		<g>
			<g>
				<path d="M502.1,120.8c-0.1,1.5-0.1,3-0.2,4.5c1-0.3,2-0.6,3-0.8c-1.1-1.7-2.7-2.1-4.6-2.3c-3.1-0.3-6-0.9-9-1.5
					c0.2,0.9,0.5,1.8,0.7,2.7c1.2-1.3,3.4-0.9,4.9-0.9c1.1,0,4.3-0.5,4.8-0.1c-0.3-0.5-0.5-1-0.8-1.4c0,1.5,0.1,3.2-0.1,4.7
					c1.1-0.1,2.1-0.3,3.2-0.4c-0.1-0.6,0-2.5-0.5-3.6c-0.2-0.5-0.9-0.8-1.4-0.8c-1.4,0-2.8-0.2-4.2-0.2c-1.6,0.1-3.3,0.3-5,0
					c-2-0.4-2.9,2.7-0.9,3.1c1.6,0.3,3.3,0.3,5,0.2c1.7-0.1,3.4,0.1,5.1,0.1c-0.5-0.3-1-0.5-1.4-0.8c0,0.1,0,2,0.1,2.8
					c0.4,1.9,3,1.3,3.2-0.4c0.2-1.8,0.8-5.7-1.4-6.5c-1-0.4-2.3-0.1-3.3,0c-1.4,0-3,0-4.4,0.1c-1.9,0.1-3.9,0.3-5.2,1.8
					c-0.8,0.9-0.5,2.4,0.7,2.7c1.9,0.5,3.9,0.9,5.9,1.2c1.3,0.2,5.1,0.1,5.8,1.2c0.9,1.4,2.9,0.8,3-0.8s0.1-3,0.2-4.5
					C505.4,118.8,502.2,118.8,502.1,120.8L502.1,120.8z"/>
			</g>
		</g>
		<g>
			<g>
				<path d="M499.7,120.6c-1.2,0-2.4-0.1-3.5,0.3c-0.2,0.1-0.3,0.2-0.4,0.4c-0.5,0.3-1,0.4-1.4,0.3c-0.7,0.1-1.7,0.1-2.3,0
					c0.2,0.2,0.4,0.4,0.6,0.6v-0.1c-0.1,0.3-0.3,0.6-0.4,0.9c0,0,0.1,0,0.1-0.1c0.9-0.6,0-1.9-0.8-1.4c0,0-0.1,0-0.1,0.1
					c-0.3,0.2-0.4,0.5-0.4,0.9v0.1c0,0.3,0.3,0.5,0.6,0.6c1.2,0.3,3.1,0.3,4.2,0c0.5-0.1,0.8-0.6,1.2-0.7c0.8-0.3,1.9-0.1,2.8-0.1
					C500.6,122.2,500.6,120.6,499.7,120.6L499.7,120.6z"/>
			</g>
		</g>
		<g>
			<g>
				<path d="M503.3,122.5c-0.4,0-0.8,0-1.2,0c-1.1,0-1.1,1.6,0,1.6c0.4,0,0.8,0,1.2,0C504.4,124,504.4,122.4,503.3,122.5
					L503.3,122.5z"/>
			</g>
		</g>
		<g>
			<g>
				<path d="M503.9,126.4c-4.8,0.2-9.6,0.4-14.4,0.5c-1.7,0.1-2.2,2.7-0.4,3.2c2.4,0.6,4.9,1.1,7.3,1.6c2,0.5,4.1,1.3,6.3,1.3
					c0.6,0,1.2-0.3,1.4-0.8c0.8-1.4,1.4-3.8-0.3-4.6c-1.1-0.6-2.8-0.1-4,0c-2,0.1-4-0.1-6-0.1c-1.5,0-4.2-0.2-4.1,2.2
					c0.3,2.8,4,2.2,5.8,2.5c2.3,0.4,5.3,2.4,7.4,0.6c1.3-1,1.6-3.5,0.4-4.6c-3.3-2.9-6.4,4.6-1.4,3.8c1.4-0.3,1.4-2.2,0.4-2.9
					c-0.7-0.5-1.1-0.6-1.9-0.6c-2,0-2,3.2,0,3.2c0.1,0,0.2,0.1,0.3,0.1c0.1-1,0.3-1.9,0.4-2.9c0.4,0.2,0.8,0.4,1.2,0.6
					c-0.1,0.5-0.3,1.1-0.4,1.5c-0.2,0.2-4.4-1.7-5.3-1.9c-0.6-0.1-1.3-0.3-1.7-0.3c-0.3,0-0.6,0-0.9,0c-1.6,1.4-1.8,1.9-0.7,1.8
					c1.1,0.6,3.7,0.2,4.8,0.2c1,0,4.1-0.4,4.2-0.3c-0.3-0.5-0.5-1-0.8-1.4c0,0.5-0.1,1-0.3,1.4c0.5-0.3,1-0.5,1.4-0.8
					c-2.1,0-4.4-1-6.5-1.4c-2.1-0.5-4.1-1-6.3-1.4c-0.1,1.1-0.3,2.1-0.4,3.2c4.8-0.2,9.6-0.4,14.4-0.5
					C505.9,129.6,505.9,126.3,503.9,126.4L503.9,126.4z"/>
			</g>
		</g>
		<g>
			<g>
				<path d="M503.1,132.7c-4.1-0.1-9.8-0.2-13.6,1.9c-2.6,1.4-0.9,4,1,5.1c3,1.7,7.1,3.2,10.6,2.6c3-0.5,3.1-4.6,2.3-6.9
					c-0.2-0.5-0.6-1.1-1.2-1.2c-2.4-0.4-3.4,2-4,4c-0.1,0.3-0.3,0.7-0.4,1c0.9,0.1,1.1-0.1,0.5-0.5c-0.1-0.5-1-1.3-1.4-1.7
					c-0.6-0.9-1.3-1.8-2.1-2.4c-1.8-1.4-4.4-0.1-4.3,2.3c0.2,3.6,5.8,4,8.3,4.4c2.7,0.5,4.8-1.4,3.8-4.1c-0.3-0.8-0.8-2.1-1.4-2.8
					c-0.9-1-1.4-0.7-2.4-0.5c-1.9,0.4-3.7,0.2-5.6,0.5c-1.4,0.2-2.7,0.9-2.9,2.5c-0.1,1.2,0.3,2,1.4,2.5c1,0.5,2.2,0.4,3.3,0.7
					c1.4,0.4,2.9,0.9,4.2,1.5c0.9,0.4,1.6,0.2,2.2-0.6c2.6-3.7-3.8-5.1-6-5.5c-2-0.3-2.9,2.8-0.9,3.1c0.5,0.1,3.8,1.3,4.1,0.8
					c0.8-0.2,1.4-0.4,2.2-0.6c-1.4-0.6-2.7-1.2-4.1-1.6c-1.4-0.4-2.9-0.4-4.2-0.9c0.4,0.4,0.8,0.8,1.2,1.2c-0.6,0.3-0.5,0.4,0.3,0.2
					c0.5-0.1,1-0.1,1.4-0.1c0.8,0,1.5,0.1,2.4,0c0.7-0.1,1.4-0.2,2-0.5c0.9-0.4,1.1,0-0.2-0.3c-0.4-0.4-0.8-0.8-1.2-1.2
					c0.3,0.8,0.9,1.4,1.2,2.2s0.3,0.5-0.6,0.2c-0.8-0.3-1.6-0.4-2.5-0.5c-0.3-0.1-3.4-0.7-3.4-0.4c0,0.1,0.8,0.9,1,1.1
					c0.7,0.9,1.3,1.8,2,2.6c1.1,1.2,2.5,2.1,3.9,1c0.7-0.5,1-1.4,1.3-2.1c0.2-0.5,0.4-1,0.6-1.4c0.1-0.3,0.2-0.5,0.3-0.8
					c0.4-0.6,0.2-0.6-0.7-0.2c-0.4-0.4-0.8-0.8-1.2-1.2c0.2,0.7,0.3,2.8,0,3c-0.1,0.1-1.9-0.2-2.3-0.3c-2.2-0.3-3.9-1.4-5.9-2
					c-0.8-0.7-1-0.7-0.6-0.1c0.1,0.6,0.5,0.7,1.2,0.1c1,0,1.9-0.5,2.8-0.7c2.5-0.5,5.1-0.4,7.6-0.4
					C505.3,136,505.3,132.7,503.1,132.7L503.1,132.7z"/>
			</g>
		</g>
	</g>
</g>
</svg>
