<?xml version="1.0" encoding="utf-8"?>
<!-- Generator: Adobe Illustrator 18.1.0, SVG Export Plug-In . SVG Version: 6.00 Build 0)  -->
<!DOCTYPE svg PUBLIC "-//W3C//DTD SVG 1.1//EN" "http://www.w3.org/Graphics/SVG/1.1/DTD/svg11.dtd">
<svg version="1.1" id="Layer_1" xmlns="http://www.w3.org/2000/svg" xmlns:xlink="http://www.w3.org/1999/xlink" x="0px" y="0px"
	 viewBox="0 0 600 600" enable-background="new 0 0 600 600" xml:space="preserve">
<symbol  id="Blond_Hair_4" viewBox="-11.3 -7.7 22.6 15.3">
	<g>
		<path fill="#FEE751" d="M-11.3,6.9c0,0,5.6,2.6,10.6-1.9c5-4.6,5.8-10.2,12-12.7C4.7-6.6,2.2,0.8-1,3.9
			C-6.1,8.8-10.8,6.9-11.3,6.9z"/>
	</g>
</symbol>
<g>
	<path fill="#FFDE17" stroke="#F9ED32" stroke-width="3.3371" stroke-miterlimit="10" d="M93.6,188.9c0-3,26.7-2.3,43.4-21.1
		c6.2-7,8.6-14.1,20-23.3c5.1-4.2,10.6-7.5,10-8.9c-1.1-2.3-18.2,6.2-21.1,2.2c-2.9-4,11-16.5,25.6-36.7
		c20.6-28.6,14.3-33.9,30-51.1c18.3-19.9,40.6-28,52.2-32.2c0,0,26.8-10.9,46.7-8.9c4.9,0.5,9.8,1.6,9.8,1.6s3.3,0.8,6.5,1.8
		c10.6,3.6,36.4,26.8,38.1,25.4c1-0.8-10.8-13.7-20.7-21.9c-9.9-8.1-23.2-10.9-22.7-12c3.2-6.6,52.6,20.7,55.8,23.3
		c3.5,2.8-10.9-27.7-10.2-27.3c1.4,0.8,18.7,23.3,26.5,37.3c7.4,13.2,7,12.2,15.5,25c7.7,11.7,8.1,27.7,9.1,37.7
		c0.9,8.8,0.7,16.7,0.4,20.7c-0.4,6-1.3,10.5-1.5,12.5c-0.8,4.2-2.2,11.8-6,20.4c-2.2,5.1-4.7,9.6-6.2,11.9c0,0-0.8,1.3-1.5,2.4
		c-8.7,13.5-19,22.4-19,22.4c-4.1,3.5-14.7,14.4-29.7,18.4c-10.3,2.7-31.1,6.6-31.6,6.8c0,0,0.7-12,0.5-6.6
		c0,0.1,52.4-7.1,59.2-32.3c3-10.9-3.7-29,3.1-28.9c4,0.1,6.2,3.4,12.3,0.6c9.9-4.5,17.1-20.6,11.2-26.1c-3.4-3.2-10.8-1.9-15.6,1.1
		c-7.4,4.7-8,13.6-10,13.4c-2.5-0.4,2-14.7-5.5-26.6c-3-4.7-5.1-4.7-11.1-13.4c-3.7-5.2-5.5-8-6.7-12.2c-2.3-8.7,1.4-13.4-1.1-15.6
		c-3.3-2.8-10.5,4.2-22.3,7.7c-16.5,5-19.5-3.7-37.7,0c-13,2.6-10,6.7-34.5,15.6c-4.5,1.6-9.2,3.2-13.4,7.7
		c-6.5,7.3-6.7,16.6-6.7,17.8c0,8.7,4.4,15,3.3,15.6c-1.3,0.7-5.6-10.6-14.4-12.2c-4.3-0.8-9.6,0.7-12.2,4.5
		c-3.2,4.6-0.9,10.9,0,13.4c3.6,9.6,10.3,8.7,14.4,17.8c3,6.5,0,7.9,3.3,17.8c2.4,7,5.8,11.8,7.7,14.4c2.9,4,6.7,9.2,13.4,13.4
		c4.9,3.1,10.3,4.3,21.1,6.7c0,0,4.9-0.8,19.7,1.8c-0.6-3.7,0.8,9.2-0.9,12.6c-2.4,4.9-15.2,1.3-28.8,1.1
		c-8.8-0.1-6.1,1.5-49.9,12.2c0,0-17.8,4.4-34.8,5.5h-0.1c-15.7,1-23.5,1.5-24,0.1c-0.8-2.5,21.5-15.4,20-12.2
		c-0.3,0.7-71.8-0.7-76.7-5.5c-5.9-5.9,46.7-31.3,38.9-31.1C132,193.4,93.6,199,93.6,188.9z"/>
	<path fill="#F3D9CC" stroke="#F3D9CC" stroke-width="3.3371" stroke-miterlimit="10" d="M310.7,232.5c0,0,0.9-16.2,1.9-25.6
		c0,0,8.3,4.2,29.8-4.1c2.5-1,11.3-2.7,21.6-13.2c4.6-4.8,5.5-11.2,6.5-15.7c2-9-0.7-9.9-0.9-20.9c0,0-2.2-0.6,3.4-5.4
		c0.8-0.6,4.5-0.5,5.3-0.1c2,1,5.6,2.2,9.5,1c5.7-1.7,7.8-7.5,9.1-10.9c1-2.5,3.7-10.1,0-13.6c-2.7-2.7-7.7-2-10.9-0.9
		c-9.8,3.6-11.3,16-14.5,15.5c-2.7-0.4,3.2-6.5-0.2-20.9c-1-4.1-1.5-5.8-7.5-12.5c-4.4-4.9-8.5-11.3-12-16.6
		c-2.8-4.3-1.5-18.4-4.7-19.2c-6.5-1.5-8.1,5.8-20.9,10c-16.1,5.3-19.9-3.9-38.2,0c-9.3,1.9-5.7,3.8-34.6,16.4
		c-7.1,3.1-9.5,4.2-11.8,7.3c-8.5,11.5-0.8,28.9-2,30.6c-0.9,1.3-6.6-9.5-17.1-9.7c-3.6-0.1-9,1.3-10.9,4.5
		c-4.7,8.3,6.7,14.9,14.4,28.3c6,10.3,6.6,23.7,11.1,32.2c3.7,6.9,8.5,12.4,20.6,16.6c14.5,5,28,6.1,33.9,3l0,0
		c5.3,8.9,0.9,18,0.9,18c0,1.1-0.1,2.8-0.1,5c1.3,1.1,3.7,2.4,6.9,3.4c0.9,0.3,1.9,0.4,3.2,0.4C307.1,235.3,310.7,232.5,310.7,232.5
		z"/>
	<path fill="#2BB673" stroke="#000000" stroke-width="3.3371" stroke-miterlimit="10" d="M283.5,227.6c-3.7-2.9-9.1-1.7-17.3,0
		c-4,0.9-9.3,2-15.7,5.4c-9.7,5.1-14.4,10.9-23.3,17.9c-12.5,9.7-21.9,20.9-34.2,30.4c-0.2,0.1-10.5,5.5-21.7,14.6
		c-3.2,2.6-6.6,5.5-7.5,10.3c-1.2,5.2,0.7,11.6,3.8,12.5c2,0.6,3.1-1.8,9.2-5.4c4.2-2.4,7.6-4.5,11.9-4.4c4.4,0.2,4.7,2.5,8.1,2.7
		c6.3,0.3,13.9-10.5,18.6-13.7c4.3-2.9,10.4-4.1,17.2-10.6c3.4-3.2,4.5-5.7,6.5-5.4c3.3,0.5,2.4,7.3,8.1,16.3
		c3.7,5.7,4.2,6.4,5.9,11.4c1.5,4.5,2.4,17.7,0,26.5c0,0-1.8,0.8-2.3,9.1l-1.5,5.5c0.8,2,7.4-0.4,17.3,0c10.2,0.4,11.3,2.3,16.3,1.1
		c5.5-1.4,5.9-3.7,12.3-6.1c5.3-2,12.2-1.6,13.9-1.2c5.4,1.5,6.2,3,12.5,5.1c1.8,0.6,0.8-0.1,5.7,0.6c8.3,1.2,13.5,1.3,18.4,0.6
		c4.5-0.6,5.1-1.4,5.4-1.6c2.3-3-2.1-7.8-4.4-17.3c-0.7-3-2.5-11.3,0-20c1.5-5.4,3.1-5,7.1-13.5c5.1-11.1,3.9-14.9,7.1-16.3
		c3.7-1.6,10.5,3.6,23.8,14.1c10.7,8.4,13.6,11.9,20,12.5c3.7,0.4,6.1-0.5,10.8,1.1c2.2,0.8,7,2.2,10.3,6.5c2.4,3.1,2.4,5.3,3.8,5.4
		c2.1,0.1,4.3-5.1,4.8-9.2c0.2-1.3,0.7-4.7-0.6-8.7c-2-6.3-7.2-9.8-11.9-13c0,0-1.7-1.2-24.4-17.9c-9.6-7.1-7.8-6.5-19.6-15.2
		c-12.2-9-13.3-9-17.9-13.5c-7-6.8-7.3-9.4-13-12.5c-3.4-1.8-7.5-2.6-15.7-4.4c-9.8-2-11.5-1.3-12.5-0.6c-3.5,2.6-0.7,7.4-4.4,11.9
		c-3.7,4.6-10.5,4.8-13,4.8c-2.6,0.1-7.9,0.2-11.9-3.3C285.1,235.8,287.7,230.8,283.5,227.6z"/>
	<polygon fill="#F7941E" stroke="#000000" stroke-width="3.3371" stroke-miterlimit="10" points="284.6,260.1 263.9,281.3 
		284.6,311.1 326.3,311.1 346.9,281.8 325.7,260.1 	"/>
	<polygon fill="#27AAE1" stroke="#000000" stroke-width="3.3371" stroke-miterlimit="10" points="279.1,281.3 292.1,300.2 
		316.8,300.2 331.7,281.3 324.6,272.1 287.3,272.1 	"/>
	<path fill="#F7941E" stroke="#000000" stroke-width="3.3371" stroke-miterlimit="10" d="M167.5,318.6c-1,3.6,3.4,10,11.4,17.9
		c17.2,17.1,19.5,14.8,26.5,23.8c6.9,8.8,8.2,15.4,17.9,22.3c4.2,3,7.1,4,9.8,3.3c5.2-1.5,7.1-9.4,8.1-14.1
		c1.3-5.3,2.7-11.9-1.1-16.8c-2.9-3.8-7.5-4.7-10.8-5.4c-7.4-1.5-9.2,1.2-13,0c-11.2-3.3-6.1-31.6-19.6-37.9
		c-5.5-2.6-11.5-2.1-14.6-1.4C179.1,311.1,168.7,313.5,167.5,318.6z"/>
	<path fill="#F7941E" stroke="#000000" stroke-width="3.3371" stroke-miterlimit="10" d="M406.3,309.4c-13.1,1-8.1,32-21.5,38.5
		c-6.8,3.3-11.6-1.6-19,3.3c-7.4,4.8-8.5,13.6-8.7,14.6c-1,7.9,2.5,18.2,9.2,20c4.2,1.2,8.2-1.3,11.4-3.3
		c8.5-5.3,9.4-10.8,16.3-19.6c3-3.8,2.3-2.1,25.5-23.3c7.4-6.8,10.6-9.9,10.3-14.1c-0.5-6.2-6.4-12.7-8.4-13.8
		C419,310.6,412.2,309,406.3,309.4z"/>
	<path fill="#F7941E" stroke="#000000" stroke-width="3.3371" stroke-miterlimit="10" d="M247.1,352.8c-1.1,4-2.1,7.9-3.3,11.9H279
		l3.9-13L247.1,352.8z"/>
	<polygon fill="#F7941E" stroke="#000000" stroke-width="3.3371" stroke-miterlimit="10" points="322.5,352.4 322.5,366.9 
		354.4,364.7 350.7,351.7 	"/>
	<path fill="#ED1C24" stroke="#000000" stroke-width="3.3371" stroke-miterlimit="10" d="M284,353.9c-0.5,0.9-4.2,7.6-1.1,14.1
		c4,8.4,15.7,8.6,17.9,8.7c2.6,0.1,15.3-0.1,20-9.8c0.2-0.4,3.8-7.8,0-14.6c-5.3-9.6-19.6-7.8-21.1-7.5
		C297.1,345.1,288.3,346.2,284,353.9z"/>
	<path fill="#FFFFFF" stroke="#000000" stroke-width="3.3371" stroke-miterlimit="10" d="M292.7,356.1c-2,3.1-1.6,7.5,0.6,10.3
		c3.6,4.5,11.2,3.5,15.2,0c2.2-1.9,4.6-5.9,3.3-9.2c-1.4-3.3-5.7-4.1-7.5-4.4C302.4,352.5,295.8,351.4,292.7,356.1z"/>
	<path fill="#2BB673" stroke="#000000" stroke-width="3.3371" stroke-miterlimit="10" d="M243.9,366.9c0,0-3.3,9.2-6.3,19.6
		c-0.5,1.7-2.5,9.6-3.8,14.1c-7.9,27.9-6,55.8-9,58.7c-4.1,3.7-4.5,6.6-5.6,11.8c-1.4,6.5-1.4,10-1.5,15.8c-0.1,3-1.5,5.1-1.2,7
		c0.6,2.7,5,4.1,8.1,4.8c1.7,0.5,9,1.5,14.7,1.3c6.2-0.4,13.5-3.2,13.5-3.2v-2.1c0,0,0.7-7.4,1.9-10.9c3.9-10.8,8.9-18,15.9-26.1
		c21.8-25.2,23.1-38.5,28-40.2c0,0,8.9,13.4,33.3,42.9c7.4,8.9,13.4,15,13.5,24.4c0.1,5.5-1.6,10.8,1.6,14.1c0.8,0.8,2,1.7,10.3,2.1
		c14.8,0.9,19.3-1.8,20.6-2.7c1.5-1,4.2-2.8,4.4-5.4c0.1-2.4,0.5-4.5,0-7.5c-1.3-7.5-0.8-9.5-4.6-16.2c-1.7-2.9-2.9-6.9-4.5-10.4
		c-3.5-7.5,0.3-28.7-4.2-48.9c-2.4-11.1-0.5-20.1-4.1-23.6c-6.3-6.1-10.5-19.3-10.5-19.3s-28.8-1.3-31.9,0.9
		c-8,5.7-6.9,8.9-21.8,8.9c-12.9,0-17.9-8.7-21.4-9.7C267.9,363.7,243.9,366.9,243.9,366.9z"/>
	<path fill="#F7941E" stroke="#000000" stroke-width="3.3371" stroke-miterlimit="10" d="M212.5,505.7c0.2-5.2-0.2-9.6,2.1-10.8
		c1.3-0.7,2.6,0,6,1.1c3.9,1.3,8,2.6,11.9,2.7c6.5,0.2,18.5-1.2,19.6,0c3.6,4.2-3.9,16.3-9.2,25c-7.7,12.7-10.3,12.7-11.4,19
		c-1.1,5.6,0.7,6.8,0,19.6c-0.5,9.2-1.5,11.8-2.1,13c-1.1,2.2-2.7,4.7-10.8,11.4c-8.3,6.8-12.5,10.2-16.3,11.4
		c-1.1,0.3-13.5,4.1-22.3-2.7c-1.5-1.2-4.1-3.1-4.8-6.5c-0.3-1.3-1-5.4,6-14.1c7.1-8.9,11.6-9.5,20.6-19.6c3.5-3.9,5.2-5.9,6.5-8.7
		c2.9-6.4,0.8-9.3,1.6-21.7C210.4,513.6,212.2,515.4,212.5,505.7z"/>
	<path fill="#F7941E" stroke="#000000" stroke-width="3.3371" stroke-miterlimit="10" d="M352.3,514.3c-2.8-5.3-7.6-14.6-4.8-17.3
		c1.4-1.4,3.5,0,10.3,1.1c7.4,1.2,15.3,2.4,20.6-1.6c3.4-2.6,3.4-5.5,4.8-5.4c4.2,0.3,5.6,22.9,6,27.7c1.4,19.6-1.3,20.8,1.6,27.7
		c2,4.9,3.8,5.1,20.6,22.3c12.1,12.3,14.9,16,14.1,20c-1.2,5.9-8.9,9-10.8,9.8c-9.3,3.6-18-0.4-19.6-1.1c-5.1-2.4-4.5-4.3-15.2-13.5
		c-7.8-6.8-8.5-6.1-9.8-8.7c-2.4-5-0.2-8.5-0.6-21.7c-0.1-4.2-0.2-6.3-0.6-8.7C367.2,533.1,360.4,529.9,352.3,514.3z"/>
	<path fill="#92278F" stroke="#000000" stroke-width="3.3371" stroke-miterlimit="10" d="M353,234.6c0,0,28.3,5.7,49.7,21.2
		c7,5,22.2,16.3,35.2,35.8c12.3,18.4,10.5,26.1,26,46.1c11.9,15.4,19.7,19.6,22.7,21.1c12.1,6,25.4,6.6,31.9,6.5
		c13.9-0.3,18.8-4.2,21.7-1.1c5,5.4-2.9,25.2-16.3,37.5c-6.8,6.2-16.6,11-36.3,20.6c-10.5,5-9.4,4.1-12.5,6
		c-18.2,11.1-16.1,23.1-29.8,32.5c-11.9,8.2-13.5,10-37.9,9.8c-14.3-0.1-23.7,8.7-26.7,5.7c-2.5-2.5,0.9,3.7-2.1-4.5
		c-2-5.7-4.2-9.2-6.7-14.7c-2.2-4.8,4-22.8-1.8-46.7c-2.6-10.6-3.2-22.6-3.2-22.6s5.8-1.7,11.9-4.5c8.1-3.8,10.3-10.9,15.2-19
		c12.6-20.4,24.9-16.6,36.3-37.5c4-7.2,7.4-13.3,6-20.6c-1.3-6.7-5.7-10.9-23.8-25c-12.5-9.6-17.9-14.9-26-19.6
		C369.8,252.2,351.7,236.1,353,234.6z"/>
	<g>
		<path fill="#27AAE1" stroke="#000000" stroke-width="3.3371" stroke-miterlimit="10" d="M359.9,282.9c5.8-4.1,10.2,2.4,25,13
			c10.9,7.8,19.2,9.9,19,13.5c-0.1,2.4-2.9,1.7-4.7,6.8c-3.7,10-3.3,23.1-12,30.3c-6,4.9-14.3-1.2-22.3,4.6
			c-7.2,5.2-7.9,13.9-10.3,13.5c-2-0.4-2.2-7.2-2.7-13c-0.7-8.7-4-14.8-4.8-20c-1.5-8.8-1-16-0.3-18.9c0.6-2.5,4.5-7.3,7.4-14.7
			C356.3,291.7,357.5,284.6,359.9,282.9z"/>
	</g>
	<path fill="#92278F" stroke="#000000" stroke-width="3.3371" stroke-miterlimit="10" d="M342.1,477c-1.4,1.5-26.4-9-42.5-8.1
		c-24.2,1.4-41,13.1-43.2,10.3c-2.3-3.1,8.9-10.4,21.9-29.3c6-8.9,17.8-32.4,20.4-32.4c2.3,0,13.1,17.7,24.1,31.1
		C333.9,462,343,475.8,342.1,477z"/>
	<path fill="#92278F" stroke="#000000" stroke-width="3.3371" stroke-miterlimit="10" d="M217.9,467.2c-6.3,6.8-14.2-9.1-29.8-14.6
		s-19.3,3-32.5-1.6c-19-6.6-14.1-24.9-36.3-37.9c-3.8-2.2-15.2-5.8-37.9-13c-18.9-6-21.6-6.3-22.7-9.2c-4.3-10.7,25-22.9,54.2-60.7
		c16.8-21.8,15-27.8,31.9-44.4c11-10.7,20.9-17.1,40.6-29.8c15.8-10.2,27.1-16,40.6-20c7.8-2.4,23.8-3.3,23.8-3.3s-7.4,7-22.7,18.4
		c-22.3,16.6-18.5,16.8-35.8,29.2c-19.2,13.8-28.6,16.9-29.8,26.5c-0.6,4.9,1.4,8.9,4.4,14.6c4.8,9.6,9.8,11.7,23.8,25.5
		c11.5,11.2,17.3,16.8,20.6,21.7c4.4,6.5,6.9,11.9,13.5,15.2c6.8,3.3,13.6-1.1,13,3.3c-1,6-8.3,20.1-9,48.3
		c-0.2,6.7-0.6,13.7-2.1,22C224.8,461.8,221.6,463.2,217.9,467.2z"/>
	<g>
		<path fill="#92278F" stroke="#000000" stroke-width="3.3371" stroke-miterlimit="10" d="M359.9,282.9c5.8-4.1,10.2,2.4,25,13
			c10.9,7.8,19.2,9.9,19,13.5c-0.1,2.4-2.9,1.7-4.7,6.8c-3.7,10-3.3,23.1-12,30.3c-6,4.9-14.3-1.2-22.3,4.6
			c-7.2,5.2-7.9,13.9-10.3,13.5c-2-0.4-2.2-7.2-2.7-13c-0.7-8.7-4-14.8-4.8-20c-1.5-8.8-1-16-0.3-18.9c0.6-2.5,4.5-7.3,7.4-14.7
			C356.3,291.7,357.5,284.6,359.9,282.9z"/>
	</g>
	<g>
		<path fill="#92278F" stroke="#000000" stroke-width="3.3371" stroke-miterlimit="10" d="M242.9,282.8c-5.7-4.2-10.3,2.2-25.3,12.4
			c-11.1,7.5-19.5,9.5-19.3,13.1c0.1,2.5,0.1,2.5,3.1,7.3c5.7,9,3.2,24.9,11.7,32.2c5.9,5,15-2.1,22.8,3.9c7,5.3,8,13.5,10.4,13.1
			c2-0.3,2.4-7.2,3-13c0.9-8.7,4.3-14.7,5.3-19.9c1.7-8.8,1.3-16,0.8-18.9c-0.5-2.5-4.5-7.4-7-14.9
			C246.3,291.8,245.3,284.6,242.9,282.8z"/>
	</g>
	<path fill="#F7941E" stroke="#000000" stroke-width="3.3371" stroke-miterlimit="10" d="M284.9,227.1c0.2-0.2,0,0.9,2.7-0.5
		c2.2-1.2,1.9-0.9,1.9-0.9s-0.1,3.4,1,6.1c1.4,3.8,6.6,5.4,8.4,5.6c1.9,0.3,9.5,0.4,11.8-3c1.9-2.7,1.7-8.8,1.7-8.8h6.8
		c0,0-1.5,9.5-4.4,12.7c-3.5,4.1-7.6,4.5-10.6,4.8c-2.8,0.3-9.2,1-14.2-3.1C285.3,236.5,283.3,228.9,284.9,227.1z"/>
	<path fill="none" stroke="#A97C50" stroke-width="3.3371" stroke-miterlimit="10" d="M380.9,139.2c-0.6-0.8,1.3-3.5,3.8-4.7
		c2.8-1.5,6.4-1,6.6,0C391.6,136.1,381.8,140.5,380.9,139.2z"/>
	<path fill="none" stroke="#A97C50" stroke-width="3.3371" stroke-miterlimit="10" d="M233.2,141.1c0.4-0.8-3-3.8-7-4.9
		c-3.3-1-7.5-0.8-7.6,0C218.4,137.7,232.4,142.5,233.2,141.1z"/>
	<g>
		<path fill="#FFFFFF" stroke="#000000" stroke-width="3.3371" stroke-miterlimit="10" d="M312.4,144.4c3,1.7,5.8-3,13.8-3
			c7.5,0,10.5,4.1,12.9,2.3c3-2.2,0.3-10.4-3-19.8c-2.6-7.5-4.7-10.7-7.9-12.9c-1.4-0.9-3.9-2.5-6.6-1.9c-1.3,0.3-4.4,1.4-7.6,10.5
			C313.6,121.2,306.6,140.9,312.4,144.4z"/>
		<path fill="#006838" stroke="#000000" stroke-width="3.3371" stroke-miterlimit="10" d="M316.9,139.1c-4.4-5.7-1.7-12.7-1.4-13.8
			c0.2-0.5,3.7-9.1,9.9-8.9c5.7,0.2,8.8,7.7,9.3,8.9c2.2,5.6-1.5,17.1-9.1,16.6C320.5,141.3,320.2,143.5,316.9,139.1z"/>
		<path fill="#2BB673" stroke="#000000" stroke-width="3.3371" stroke-miterlimit="10" d="M325.9,141.3c-3.5-0.3-4.7-0.8-4.9-4.8
			c-0.1-1.8,1-6.8,4.4-6.8s4.6,1.3,4.8,5.7C330.3,138.6,329.3,141.6,325.9,141.3z"/>
	</g>
	<g>
		<path fill="#FFFFFF" stroke="#000000" stroke-width="3.3371" stroke-miterlimit="10" d="M254.8,144.4c3,1.7,5.8-3,13.8-3
			c7.5,0,10.5,4.1,12.9,2.3c3-2.2,0.3-10.4-3-19.8c-2.6-7.5-4.7-10.7-7.9-12.9c-1.4-0.9-3.9-2.5-6.6-1.9c-1.3,0.3-4.4,1.4-7.6,10.5
			C255.9,121.2,248.9,140.9,254.8,144.4z"/>
		<path fill="#006838" stroke="#000000" stroke-width="3.3371" stroke-miterlimit="10" d="M259.2,139.1c-4.4-5.7-1.7-12.7-1.4-13.8
			c0.2-0.5,3.7-9.1,9.9-8.9c5.7,0.2,8.8,7.7,9.3,8.9c2.2,5.6-1.5,17.1-9.1,16.6C262.8,141.3,262.5,143.5,259.2,139.1z"/>
		<path fill="#2BB673" stroke="#000000" stroke-width="3.3371" stroke-miterlimit="10" d="M268.1,141.3c-3.5-0.3-4.7-0.8-4.9-4.8
			c-0.1-1.8,1-6.8,4.4-6.8s4.6,1.3,4.8,5.7C272.7,138.6,271.6,141.6,268.1,141.3z"/>
	</g>
	<path fill="none" stroke="#FFF200" stroke-width="3.3371" stroke-miterlimit="10" d="M312.6,96c5-1.6,15.2,0,22.7,8.7"/>
	<path fill="none" stroke="#FFF200" stroke-width="3.3371" stroke-miterlimit="10" d="M254.8,104.7c0-4.8,10.3-8.7,22.9-8.7"/>
	<line fill="none" stroke="#000000" stroke-width="3.3371" stroke-miterlimit="10" x1="324.9" y1="103.6" x2="324.9" y2="103.6"/>
	<g>
		<path fill="none" stroke="#A97C50" stroke-width="3.3371" stroke-miterlimit="10" d="M294.4,160.5c-0.6-0.4-4.4-2.7-8.6-1.3
			c-3.8,1.3-7.4,5.1-6.6,9.4c0.6,3.2,3.3,5.3,5.8,6.1c3.2,1,6.9,0,9.4-2.5"/>
	</g>
	<path fill="none" stroke="#BE1E2D" stroke-width="3.3371" stroke-miterlimit="10" d="M250.6,180c1.4-2.1,5.4-4.4,5.4-4.4
		s3.5,4.5,5.9,7.7c8,10.4,19.6,13.4,23.7,14.1c6.3,1.3,11.3,0.8,16.2,0.2c3.7-0.4,9.6-0.5,16.2-3.9c3.5-1.8,7.1-3.7,12.3-7.3
		c5.7-4,6.5-5.4,6.5-5.4c3.8-3.8,4.9-4.5,4.9-4.5s2,2.3,2.6,3.9"/>
	
		<use xlink:href="#Blond_Hair_4"  width="22.6" height="15.3" x="-11.3" y="-7.7" transform="matrix(2.2482 0 0 -3.8407 375.0882 88.9022)" overflow="visible"/>
	
		<use xlink:href="#Blond_Hair_4"  width="22.6" height="15.3" x="-11.3" y="-7.7" transform="matrix(2.2482 0 0 -3.8407 382.7424 74.1384)" overflow="visible" enable-background="new    "/>
	
		<use xlink:href="#Blond_Hair_4"  width="22.6" height="15.3" x="-11.3" y="-7.7" transform="matrix(-7.4045 -0.7105 0.334 -3.481 266.6025 77.2502)" overflow="visible" enable-background="new    "/>
	
		<use xlink:href="#Blond_Hair_4"  width="22.6" height="15.3" x="-11.3" y="-7.7" transform="matrix(-6.0399 -1.7426 0.9669 -3.3514 275.5986 53.0449)" overflow="visible" enable-background="new    "/>
	
		<use xlink:href="#Blond_Hair_4"  width="22.6" height="15.3" x="-11.3" y="-7.7" transform="matrix(-4.4846 -2.3579 1.6241 -3.0889 289.4692 35.2344)" overflow="visible" enable-background="new    "/>
	
		<use xlink:href="#Blond_Hair_4"  width="22.6" height="15.3" x="-11.3" y="-7.7" transform="matrix(-3.6335 0.4258 -0.2179 -1.8596 195.0883 126.3024)" overflow="visible" enable-background="new    "/>
	
		<use xlink:href="#Blond_Hair_4"  width="22.6" height="15.3" x="-11.3" y="-7.7" transform="matrix(-5.3915 -0.1515 5.767983e-02 -2.0521 163.493 174.9776)" overflow="visible" enable-background="new    "/>
	
		<use xlink:href="#Blond_Hair_4"  width="22.6" height="15.3" x="-11.3" y="-7.7" transform="matrix(-5.7053 -0.1603 8.149204e-02 -2.8994 166.7567 205.2641)" overflow="visible" enable-background="new    "/>
	
		<use xlink:href="#Blond_Hair_4"  width="22.6" height="15.3" x="-11.3" y="-7.7" transform="matrix(-3.8317 -0.1077 7.209483e-02 -2.565 204.4985 221.3959)" overflow="visible" enable-background="new    "/>
</g>
</svg>
